<?xml version="1.0" encoding="utf-8"?>
<!-- Generator: Adobe Illustrator 27.0.1, SVG Export Plug-In . SVG Version: 6.00 Build 0)  -->
<svg version="1.1" id="Capa_1" xmlns="http://www.w3.org/2000/svg" xmlns:xlink="http://www.w3.org/1999/xlink" x="0px" y="0px"
	 viewBox="0 0 599 309.5" style="enable-background:new 0 0 599 309.5;" xml:space="preserve">
<style type="text/css">
	.st0{opacity:0.15;fill:#55A0B8;}
	.st1{opacity:0.5;}
	.st2{fill:none;}
	.st3{fill:none;stroke:#1D1D1B;stroke-width:0.25;stroke-linecap:round;stroke-linejoin:round;}
	.st4{opacity:0.35;}
	.st5{fill:none;stroke:#1D1D1B;stroke-width:0.25;stroke-linecap:round;stroke-linejoin:round;stroke-dasharray:0,0.751;}
	.st6{fill:none;stroke:#55A0B8;stroke-width:50;}
	.st7{fill:#55A0B8;}
	.st8{fill:#1D1D1B;}
	.st9{fill:none;stroke:#55A0B8;stroke-width:10;}
	
		.st10{opacity:0.5;fill:none;stroke:#1D1D1B;stroke-width:0.25;stroke-linecap:round;stroke-linejoin:round;stroke-dasharray:0,0.751;}
	.st11{fill:#FFFFFF;}
</style>
<g>
	<path class="st7" d="M5.2,23.57H4.34l-2.57-4.95l-0.01,4.95H0.91v-6.63h0.86l2.57,4.94l0.01-4.94H5.2V23.57z"/>
	<path class="st7" d="M7.51,16.95h4.01v0.73H9.93v5.17h1.59v0.73H7.51v-0.73h1.55v-5.17H7.51V16.95z"/>
	<path class="st7" d="M18.26,21.58c-0.04,0.31-0.12,0.59-0.24,0.84s-0.27,0.48-0.46,0.66c-0.19,0.18-0.42,0.33-0.67,0.43
		c-0.26,0.1-0.55,0.15-0.87,0.15c-0.27,0-0.52-0.04-0.75-0.12c-0.22-0.08-0.42-0.19-0.6-0.32c-0.17-0.14-0.33-0.3-0.45-0.48
		c-0.13-0.18-0.23-0.39-0.31-0.61c-0.08-0.22-0.15-0.45-0.19-0.69c-0.04-0.24-0.06-0.48-0.07-0.73V19.8c0-0.25,0.02-0.49,0.07-0.73
		c0.04-0.24,0.1-0.47,0.19-0.69c0.08-0.22,0.19-0.42,0.31-0.61c0.13-0.19,0.28-0.35,0.45-0.48c0.17-0.14,0.37-0.24,0.59-0.32
		s0.47-0.12,0.75-0.12c0.33,0,0.63,0.05,0.89,0.15c0.26,0.1,0.49,0.25,0.67,0.43c0.19,0.19,0.34,0.41,0.45,0.67
		c0.11,0.26,0.19,0.55,0.23,0.86h-0.84c-0.03-0.2-0.07-0.39-0.14-0.56c-0.07-0.17-0.16-0.33-0.27-0.46
		c-0.11-0.13-0.25-0.23-0.41-0.31s-0.35-0.11-0.58-0.11c-0.2,0-0.38,0.03-0.53,0.1c-0.15,0.07-0.29,0.15-0.4,0.27
		c-0.11,0.11-0.2,0.24-0.28,0.39c-0.08,0.15-0.13,0.31-0.18,0.47c-0.04,0.17-0.08,0.34-0.1,0.51c-0.02,0.17-0.03,0.34-0.03,0.51
		v0.93c0,0.16,0.01,0.33,0.03,0.51c0.02,0.18,0.05,0.35,0.1,0.52c0.05,0.17,0.11,0.33,0.18,0.47c0.07,0.15,0.17,0.28,0.28,0.39
		c0.11,0.11,0.24,0.2,0.4,0.27c0.15,0.07,0.33,0.1,0.53,0.1c0.22,0,0.41-0.03,0.58-0.1s0.3-0.17,0.41-0.29s0.2-0.27,0.27-0.45
		c0.07-0.17,0.11-0.36,0.14-0.56H18.26z"/>
	<path class="st7" d="M23.6,21.86h-2.21l-0.53,1.72h-0.84l2.14-6.63h0.71l2.1,6.63h-0.84L23.6,21.86z M21.61,21.12h1.76l-0.87-2.88
		L21.61,21.12z"/>
	<path class="st7" d="M29.09,20.87h-1.32v2.7h-0.84v-6.63h1.94c0.31,0.01,0.6,0.05,0.87,0.13c0.27,0.08,0.51,0.2,0.72,0.37
		c0.2,0.16,0.37,0.37,0.48,0.62c0.12,0.25,0.17,0.54,0.17,0.87c0,0.22-0.03,0.41-0.09,0.59c-0.06,0.18-0.15,0.34-0.26,0.49
		c-0.11,0.14-0.24,0.27-0.39,0.39c-0.15,0.11-0.32,0.21-0.5,0.29l1.41,2.83l0,0.05h-0.89L29.09,20.87z M27.77,20.18h1.13
		c0.19,0,0.37-0.03,0.53-0.09c0.17-0.06,0.31-0.14,0.44-0.24s0.23-0.24,0.3-0.39c0.07-0.15,0.11-0.33,0.11-0.53
		c0-0.21-0.04-0.4-0.1-0.56c-0.07-0.16-0.17-0.29-0.29-0.4c-0.12-0.11-0.27-0.19-0.44-0.24c-0.17-0.05-0.36-0.08-0.56-0.09h-1.11
		V20.18z"/>
	<path class="st7" d="M36.52,21.86h-2.21l-0.53,1.72h-0.84l2.14-6.63h0.71l2.1,6.63h-0.84L36.52,21.86z M34.54,21.12h1.76
		l-0.87-2.88L34.54,21.12z"/>
	<path class="st7" d="M44.11,22.7c-0.28,0.33-0.6,0.57-0.96,0.73c-0.36,0.16-0.76,0.24-1.19,0.23c-0.27,0-0.52-0.04-0.75-0.12
		c-0.23-0.08-0.44-0.19-0.62-0.33c-0.18-0.14-0.34-0.31-0.48-0.5c-0.14-0.19-0.25-0.4-0.34-0.62c-0.09-0.22-0.16-0.46-0.21-0.7
		c-0.05-0.24-0.07-0.49-0.08-0.74v-0.77c0-0.25,0.03-0.49,0.07-0.74c0.04-0.25,0.1-0.48,0.19-0.7s0.19-0.43,0.32-0.62
		c0.13-0.19,0.28-0.36,0.46-0.5s0.38-0.25,0.6-0.33s0.48-0.12,0.76-0.12c0.31,0,0.59,0.05,0.86,0.14c0.26,0.1,0.49,0.23,0.68,0.41
		c0.19,0.18,0.35,0.39,0.47,0.64c0.12,0.25,0.19,0.53,0.22,0.84h-0.83c-0.03-0.19-0.08-0.37-0.15-0.53
		c-0.07-0.16-0.16-0.3-0.28-0.42c-0.11-0.12-0.25-0.21-0.41-0.27c-0.16-0.07-0.34-0.1-0.55-0.1c-0.2,0-0.38,0.03-0.53,0.1
		c-0.16,0.07-0.29,0.16-0.41,0.28s-0.21,0.25-0.29,0.4c-0.08,0.15-0.14,0.32-0.19,0.49s-0.08,0.34-0.1,0.52s-0.03,0.35-0.03,0.51
		v0.78c0,0.17,0.02,0.34,0.04,0.52c0.03,0.18,0.07,0.35,0.12,0.52s0.12,0.33,0.21,0.48c0.08,0.15,0.19,0.29,0.31,0.4
		c0.12,0.12,0.26,0.21,0.42,0.28c0.16,0.07,0.34,0.1,0.54,0.11c0.12,0,0.24,0,0.36-0.01c0.13-0.01,0.25-0.04,0.37-0.07
		c0.12-0.04,0.23-0.09,0.33-0.15s0.19-0.14,0.26-0.24l0.01-1.49h-1.35v-0.71h2.15L44.11,22.7z"/>
	<path class="st7" d="M50.44,16.95l0.01,4.49c-0.01,0.31-0.06,0.6-0.17,0.87c-0.11,0.27-0.25,0.51-0.45,0.71
		c-0.19,0.2-0.42,0.36-0.68,0.48c-0.26,0.12-0.55,0.17-0.87,0.17c-0.32,0-0.61-0.06-0.88-0.17c-0.26-0.12-0.49-0.27-0.68-0.48
		s-0.33-0.44-0.44-0.71c-0.11-0.27-0.16-0.56-0.16-0.87l0.01-4.49h0.8l0.02,4.49c0,0.2,0.03,0.39,0.09,0.57
		c0.06,0.18,0.14,0.34,0.25,0.48s0.25,0.25,0.41,0.34c0.17,0.08,0.36,0.13,0.57,0.13c0.22,0,0.41-0.04,0.57-0.12s0.3-0.2,0.41-0.34
		c0.11-0.14,0.2-0.3,0.25-0.49c0.06-0.18,0.09-0.37,0.09-0.57l0.01-4.49H50.44z"/>
	<path class="st7" d="M55.91,21.86H53.7l-0.53,1.72h-0.84l2.14-6.63h0.71l2.1,6.63h-0.84L55.91,21.86z M53.92,21.12h1.76l-0.87-2.88
		L53.92,21.12z"/>
</g>
<g>
	<path class="st7" d="M4.49,52.93H2.28l-0.53,1.72H0.91l2.14-6.63h0.71l2.1,6.63H5.02L4.49,52.93z M2.51,52.2h1.76L3.4,49.32
		L2.51,52.2z"/>
	<path class="st7" d="M11.48,51.72H8.72v2.93H7.87v-6.63h4.07v0.72H8.72V51h2.76V51.72z"/>
	<path class="st7" d="M18.54,53.78c-0.28,0.33-0.6,0.57-0.96,0.73c-0.36,0.16-0.76,0.23-1.19,0.23c-0.27,0-0.52-0.04-0.75-0.12
		c-0.23-0.08-0.44-0.19-0.62-0.33c-0.18-0.14-0.34-0.31-0.48-0.5c-0.14-0.19-0.25-0.4-0.34-0.62c-0.09-0.22-0.16-0.46-0.21-0.7
		s-0.07-0.49-0.08-0.74v-0.77c0-0.25,0.03-0.49,0.07-0.73s0.1-0.48,0.19-0.7s0.19-0.43,0.32-0.63c0.13-0.19,0.28-0.36,0.46-0.5
		s0.38-0.25,0.6-0.33c0.22-0.08,0.48-0.12,0.76-0.12c0.31,0,0.59,0.05,0.86,0.14s0.49,0.23,0.68,0.41s0.35,0.39,0.47,0.64
		c0.12,0.25,0.19,0.53,0.22,0.84H17.7c-0.03-0.19-0.08-0.37-0.15-0.53c-0.07-0.16-0.16-0.3-0.28-0.42
		c-0.11-0.12-0.25-0.21-0.41-0.27c-0.16-0.06-0.34-0.1-0.55-0.1c-0.2,0-0.38,0.03-0.53,0.1c-0.16,0.07-0.29,0.16-0.41,0.28
		c-0.12,0.12-0.21,0.25-0.29,0.4c-0.08,0.15-0.14,0.31-0.19,0.48s-0.08,0.34-0.1,0.52c-0.02,0.18-0.03,0.35-0.03,0.51v0.78
		c0,0.17,0.02,0.34,0.04,0.52c0.03,0.18,0.07,0.35,0.12,0.52s0.12,0.33,0.21,0.48c0.08,0.15,0.19,0.29,0.31,0.4s0.26,0.21,0.42,0.28
		c0.16,0.07,0.34,0.1,0.54,0.11c0.12,0,0.24,0,0.36-0.01c0.13-0.01,0.25-0.04,0.37-0.07c0.12-0.04,0.23-0.09,0.33-0.15
		c0.1-0.06,0.19-0.14,0.26-0.24l0.01-1.49h-1.35v-0.71h2.15L18.54,53.78z"/>
	<path class="st7" d="M23.88,52.93h-2.21l-0.53,1.72h-0.84l2.14-6.63h0.71l2.1,6.63H24.4L23.88,52.93z M21.9,52.2h1.76l-0.87-2.88
		L21.9,52.2z"/>
	<path class="st7" d="M31.33,54.65h-0.86l-2.57-4.95l-0.01,4.95h-0.85v-6.63h0.86l2.57,4.94l0.01-4.94h0.85V54.65z"/>
	<path class="st7" d="M33.64,48.02h4.01v0.73h-1.59v5.17h1.59v0.73h-4.01v-0.73h1.55v-5.17h-1.55V48.02z"/>
	<path class="st7" d="M43.57,52.97c0-0.2-0.05-0.38-0.14-0.51c-0.09-0.14-0.21-0.26-0.36-0.35s-0.31-0.17-0.48-0.24
		c-0.17-0.06-0.34-0.12-0.5-0.17c-0.23-0.08-0.47-0.17-0.71-0.27s-0.46-0.24-0.66-0.39c-0.2-0.15-0.36-0.34-0.49-0.55
		s-0.19-0.46-0.19-0.74s0.06-0.54,0.19-0.76s0.29-0.42,0.49-0.57s0.43-0.27,0.69-0.35s0.52-0.12,0.78-0.12
		c0.29,0,0.57,0.05,0.83,0.14c0.27,0.1,0.5,0.23,0.71,0.4c0.21,0.17,0.37,0.38,0.5,0.63c0.12,0.25,0.19,0.52,0.2,0.82h-0.86
		c-0.02-0.19-0.07-0.37-0.14-0.52c-0.07-0.16-0.16-0.29-0.28-0.4c-0.12-0.11-0.25-0.2-0.41-0.26c-0.16-0.06-0.34-0.09-0.54-0.09
		c-0.16,0-0.32,0.02-0.47,0.07c-0.15,0.04-0.29,0.11-0.41,0.21c-0.12,0.09-0.21,0.2-0.29,0.34c-0.07,0.13-0.11,0.29-0.11,0.46
		c0,0.19,0.05,0.35,0.15,0.48c0.09,0.13,0.21,0.24,0.36,0.33c0.14,0.09,0.3,0.17,0.47,0.23c0.17,0.06,0.33,0.11,0.48,0.16
		c0.16,0.05,0.33,0.11,0.5,0.17s0.33,0.14,0.48,0.23c0.15,0.08,0.3,0.18,0.43,0.29c0.13,0.11,0.25,0.23,0.35,0.36
		c0.1,0.13,0.18,0.28,0.23,0.45c0.06,0.16,0.08,0.34,0.08,0.54c0,0.3-0.07,0.56-0.2,0.78c-0.13,0.22-0.3,0.41-0.51,0.55
		c-0.21,0.15-0.45,0.26-0.71,0.33c-0.26,0.07-0.53,0.11-0.79,0.11c-0.29,0-0.58-0.05-0.86-0.14c-0.28-0.09-0.54-0.22-0.76-0.39
		c-0.22-0.17-0.41-0.38-0.54-0.63c-0.14-0.25-0.21-0.53-0.22-0.84h0.86c0.03,0.21,0.08,0.39,0.17,0.55c0.08,0.16,0.19,0.29,0.33,0.4
		c0.13,0.11,0.29,0.2,0.46,0.25c0.17,0.06,0.37,0.08,0.57,0.08c0.16,0,0.33-0.02,0.49-0.06s0.3-0.1,0.43-0.19
		c0.12-0.09,0.23-0.2,0.3-0.33S43.57,53.15,43.57,52.97z"/>
	<path class="st7" d="M51.04,48.74h-2.05v5.91h-0.82v-5.91h-2.05v-0.72h4.92V48.74z"/>
	<path class="st7" d="M56.19,52.93h-2.21l-0.53,1.72H52.6l2.14-6.63h0.71l2.1,6.63h-0.84L56.19,52.93z M54.21,52.2h1.76l-0.87-2.88
		L54.21,52.2z"/>
	<path class="st7" d="M63.64,54.65h-0.86l-2.57-4.95l-0.01,4.95h-0.85v-6.63h0.86l2.57,4.94l0.01-4.94h0.85V54.65z"/>
</g>
<g>
	<path class="st7" d="M1.75,83.06v2.66H0.91v-6.63h2.15c0.3,0.01,0.58,0.05,0.84,0.14c0.27,0.09,0.5,0.22,0.7,0.38
		c0.2,0.17,0.36,0.37,0.48,0.62c0.12,0.25,0.18,0.53,0.18,0.85s-0.06,0.6-0.18,0.84S4.8,82.38,4.6,82.54
		c-0.2,0.17-0.43,0.29-0.7,0.38s-0.55,0.13-0.84,0.14H1.75z M1.75,82.37h1.31c0.19,0,0.37-0.03,0.54-0.09
		c0.16-0.06,0.31-0.14,0.43-0.25c0.12-0.11,0.22-0.24,0.28-0.4s0.1-0.33,0.1-0.54s-0.03-0.38-0.1-0.54
		c-0.07-0.16-0.16-0.3-0.28-0.41c-0.12-0.11-0.26-0.2-0.43-0.26s-0.34-0.09-0.54-0.1H1.75V82.37z"/>
	<path class="st7" d="M10.46,84.01H8.24l-0.53,1.72H6.87l2.14-6.63h0.71l2.1,6.63h-0.84L10.46,84.01z M8.47,83.27h1.76L9.36,80.4
		L8.47,83.27z"/>
	<path class="st7" d="M15.34,82.64l-0.74,0.84v2.24h-0.86v-6.63h0.86v3.24l0.64-0.8l1.94-2.44h1.02l-2.32,2.9l2.47,3.73h-1.02
		L15.34,82.64z"/>
	<path class="st7" d="M20.21,79.09h4.01v0.73h-1.59v5.17h1.59v0.73h-4.01v-0.73h1.55v-5.17h-1.55V79.09z"/>
	<path class="st7" d="M30.15,84.05c0-0.2-0.05-0.38-0.14-0.51c-0.09-0.14-0.21-0.26-0.36-0.35s-0.31-0.17-0.48-0.24
		c-0.17-0.06-0.34-0.12-0.5-0.17c-0.23-0.08-0.47-0.17-0.71-0.27s-0.46-0.24-0.66-0.39c-0.2-0.15-0.36-0.34-0.49-0.55
		s-0.19-0.46-0.19-0.74s0.06-0.54,0.19-0.76s0.29-0.42,0.49-0.57s0.43-0.27,0.69-0.35S28.51,79,28.77,79c0.29,0,0.57,0.05,0.83,0.14
		c0.27,0.1,0.5,0.23,0.71,0.4c0.21,0.17,0.37,0.38,0.5,0.63c0.12,0.25,0.19,0.52,0.2,0.82h-0.86c-0.02-0.19-0.07-0.37-0.14-0.52
		c-0.07-0.16-0.16-0.29-0.28-0.4c-0.12-0.11-0.25-0.2-0.41-0.26c-0.16-0.06-0.34-0.09-0.54-0.09c-0.16,0-0.32,0.02-0.47,0.07
		c-0.15,0.04-0.29,0.11-0.41,0.21c-0.12,0.09-0.21,0.2-0.29,0.34c-0.07,0.13-0.11,0.29-0.11,0.46c0,0.19,0.05,0.35,0.15,0.48
		c0.09,0.13,0.21,0.24,0.36,0.33c0.14,0.09,0.3,0.17,0.47,0.23c0.17,0.06,0.33,0.11,0.48,0.16c0.16,0.05,0.33,0.11,0.5,0.17
		s0.33,0.14,0.48,0.23c0.15,0.08,0.3,0.18,0.43,0.29c0.13,0.11,0.25,0.23,0.35,0.36c0.1,0.13,0.18,0.28,0.23,0.45
		c0.06,0.16,0.08,0.34,0.08,0.54c0,0.3-0.07,0.56-0.2,0.78c-0.13,0.22-0.3,0.41-0.51,0.55c-0.21,0.15-0.45,0.26-0.71,0.33
		c-0.26,0.07-0.53,0.11-0.79,0.11c-0.29,0-0.58-0.05-0.86-0.14c-0.28-0.09-0.54-0.22-0.76-0.39c-0.22-0.17-0.41-0.38-0.54-0.63
		c-0.14-0.25-0.21-0.53-0.22-0.84h0.86c0.03,0.21,0.08,0.39,0.17,0.55c0.08,0.16,0.19,0.29,0.33,0.4c0.13,0.11,0.29,0.2,0.46,0.25
		c0.17,0.06,0.37,0.08,0.57,0.08c0.16,0,0.33-0.02,0.49-0.06s0.3-0.1,0.43-0.19c0.12-0.09,0.23-0.2,0.3-0.33
		S30.15,84.23,30.15,84.05z"/>
	<path class="st7" d="M37.61,79.81h-2.05v5.91h-0.82v-5.91h-2.05v-0.72h4.92V79.81z"/>
	<path class="st7" d="M42.77,84.01h-2.21l-0.53,1.72h-0.84l2.14-6.63h0.71l2.1,6.63h-0.84L42.77,84.01z M40.78,83.27h1.76
		l-0.87-2.88L40.78,83.27z"/>
	<path class="st7" d="M50.22,85.72h-0.86l-2.57-4.95l-0.01,4.95h-0.85v-6.63h0.86l2.57,4.94l0.01-4.94h0.85V85.72z"/>
</g>
<g>
	<path class="st7" d="M5.21,116.8h-0.8v-3.06H1.7v3.06H0.91v-6.63H1.7v2.85h2.72v-2.85h0.8V116.8z"/>
	<path class="st7" d="M11.83,113.87c0,0.24-0.02,0.47-0.06,0.72c-0.04,0.24-0.1,0.47-0.18,0.7c-0.08,0.22-0.18,0.43-0.3,0.63
		c-0.12,0.2-0.27,0.37-0.44,0.51c-0.17,0.15-0.36,0.26-0.58,0.34c-0.22,0.08-0.47,0.12-0.74,0.12s-0.52-0.04-0.74-0.12
		c-0.22-0.08-0.42-0.2-0.58-0.34c-0.17-0.14-0.32-0.32-0.44-0.51c-0.12-0.2-0.23-0.41-0.31-0.63c-0.08-0.22-0.14-0.46-0.18-0.7
		c-0.04-0.24-0.06-0.48-0.06-0.71v-0.76c0-0.24,0.02-0.48,0.06-0.72c0.04-0.24,0.1-0.47,0.18-0.7c0.08-0.22,0.18-0.44,0.3-0.63
		s0.27-0.37,0.44-0.51c0.17-0.15,0.37-0.26,0.58-0.35c0.22-0.08,0.47-0.13,0.74-0.13c0.27,0,0.52,0.04,0.74,0.13
		c0.22,0.08,0.42,0.2,0.59,0.34c0.17,0.15,0.32,0.32,0.44,0.51c0.12,0.2,0.22,0.41,0.3,0.63s0.14,0.46,0.18,0.7
		c0.04,0.24,0.06,0.48,0.06,0.72V113.87z M11,113.1c0-0.16-0.01-0.32-0.03-0.49s-0.05-0.34-0.09-0.51s-0.1-0.33-0.17-0.48
		c-0.07-0.15-0.16-0.29-0.27-0.4c-0.11-0.12-0.24-0.21-0.39-0.28s-0.32-0.1-0.52-0.1c-0.19,0-0.37,0.04-0.51,0.11
		c-0.15,0.07-0.28,0.16-0.39,0.28c-0.11,0.12-0.2,0.25-0.27,0.4c-0.07,0.15-0.13,0.31-0.18,0.48c-0.04,0.17-0.08,0.34-0.09,0.51
		c-0.02,0.17-0.03,0.33-0.03,0.49v0.77c0,0.15,0.01,0.32,0.03,0.49c0.02,0.17,0.05,0.34,0.1,0.51c0.04,0.17,0.1,0.33,0.18,0.48
		c0.07,0.15,0.16,0.29,0.27,0.41c0.11,0.12,0.24,0.21,0.39,0.28c0.15,0.07,0.32,0.1,0.52,0.1s0.37-0.03,0.52-0.1
		s0.28-0.16,0.39-0.28c0.11-0.12,0.2-0.25,0.27-0.4c0.07-0.15,0.13-0.31,0.17-0.48s0.07-0.34,0.09-0.51
		c0.02-0.17,0.03-0.34,0.03-0.5V113.1z"/>
	<path class="st7" d="M18.13,116.8h-0.86l-2.57-4.95l-0.01,4.95h-0.85v-6.63h0.86l2.57,4.94l0.01-4.94h0.85V116.8z"/>
	<path class="st7" d="M20.36,116.8v-6.63h1.53c0.46,0.01,0.87,0.08,1.24,0.23c0.36,0.15,0.67,0.36,0.92,0.63
		c0.25,0.27,0.44,0.59,0.57,0.96s0.2,0.79,0.2,1.24v0.49c0,0.46-0.07,0.87-0.2,1.24s-0.32,0.7-0.57,0.96
		c-0.25,0.27-0.56,0.48-0.92,0.63c-0.36,0.15-0.77,0.23-1.24,0.23H20.36z M21.21,110.86v5.25h0.68c0.36,0,0.67-0.07,0.93-0.19
		c0.26-0.12,0.48-0.29,0.65-0.5c0.17-0.21,0.3-0.46,0.38-0.75c0.08-0.29,0.13-0.6,0.13-0.94v-0.5c0-0.34-0.05-0.65-0.13-0.94
		s-0.21-0.54-0.38-0.75c-0.17-0.21-0.39-0.38-0.65-0.5c-0.26-0.12-0.57-0.19-0.93-0.19H21.21z"/>
	<path class="st7" d="M31.07,110.17l0.01,4.49c-0.01,0.31-0.06,0.6-0.17,0.87c-0.11,0.27-0.25,0.51-0.45,0.71s-0.42,0.36-0.68,0.48
		c-0.26,0.12-0.55,0.17-0.87,0.17c-0.32,0-0.61-0.06-0.88-0.17c-0.26-0.12-0.49-0.27-0.68-0.48c-0.19-0.2-0.33-0.44-0.44-0.71
		s-0.16-0.56-0.16-0.87l0.01-4.49h0.8l0.02,4.49c0,0.2,0.03,0.39,0.09,0.57c0.06,0.18,0.14,0.34,0.25,0.48
		c0.11,0.14,0.25,0.25,0.41,0.34c0.17,0.09,0.36,0.13,0.57,0.13c0.22,0,0.41-0.04,0.57-0.12c0.16-0.08,0.3-0.2,0.41-0.34
		c0.11-0.14,0.2-0.3,0.25-0.48c0.06-0.18,0.09-0.37,0.09-0.57l0.01-4.49H31.07z"/>
	<path class="st7" d="M35.56,114.09h-1.32v2.71H33.4v-6.63h1.94c0.31,0.01,0.6,0.05,0.87,0.13c0.27,0.08,0.51,0.21,0.72,0.37
		c0.2,0.16,0.37,0.37,0.48,0.62c0.12,0.25,0.17,0.54,0.17,0.87c0,0.21-0.03,0.41-0.09,0.59c-0.06,0.18-0.15,0.34-0.26,0.49
		s-0.24,0.28-0.39,0.39c-0.15,0.11-0.32,0.21-0.5,0.29l1.41,2.83l0,0.05h-0.89L35.56,114.09z M34.24,113.4h1.13
		c0.19,0,0.37-0.03,0.53-0.09c0.17-0.05,0.31-0.14,0.44-0.24c0.13-0.11,0.23-0.24,0.3-0.39c0.07-0.15,0.11-0.33,0.11-0.53
		c0-0.21-0.04-0.4-0.1-0.56c-0.07-0.16-0.17-0.29-0.29-0.4c-0.12-0.11-0.27-0.19-0.44-0.24s-0.36-0.08-0.56-0.09h-1.11V113.4z"/>
	<path class="st7" d="M43.48,113.73h-2.77v2.35h3.23v0.71h-4.07v-6.63h4.03v0.72h-3.19v2.13h2.77V113.73z"/>
	<path class="st7" d="M49.76,115.12c0-0.2-0.05-0.38-0.14-0.51c-0.09-0.14-0.21-0.26-0.36-0.35s-0.31-0.18-0.48-0.24
		c-0.17-0.06-0.34-0.12-0.5-0.17c-0.23-0.08-0.47-0.17-0.71-0.27c-0.24-0.11-0.46-0.24-0.66-0.39c-0.2-0.16-0.36-0.34-0.49-0.55
		s-0.19-0.46-0.19-0.74s0.06-0.54,0.19-0.77s0.29-0.41,0.49-0.57s0.43-0.27,0.69-0.35s0.52-0.12,0.78-0.12
		c0.29,0,0.57,0.05,0.83,0.14c0.27,0.1,0.5,0.23,0.71,0.4c0.21,0.17,0.37,0.38,0.5,0.63c0.12,0.25,0.19,0.52,0.2,0.82h-0.86
		c-0.02-0.19-0.07-0.37-0.14-0.52c-0.07-0.16-0.16-0.29-0.28-0.4c-0.12-0.11-0.25-0.2-0.41-0.26c-0.16-0.06-0.34-0.09-0.54-0.09
		c-0.16,0-0.32,0.02-0.47,0.07c-0.15,0.04-0.29,0.11-0.41,0.21c-0.12,0.09-0.21,0.2-0.29,0.34s-0.11,0.29-0.11,0.46
		c0,0.19,0.05,0.35,0.15,0.48c0.09,0.13,0.21,0.24,0.36,0.33c0.14,0.09,0.3,0.17,0.47,0.23c0.17,0.06,0.33,0.11,0.48,0.16
		c0.16,0.05,0.33,0.11,0.5,0.18c0.17,0.07,0.33,0.14,0.48,0.23c0.15,0.08,0.3,0.18,0.43,0.29c0.13,0.11,0.25,0.23,0.35,0.36
		c0.1,0.13,0.18,0.28,0.23,0.45c0.06,0.16,0.08,0.34,0.08,0.54c0,0.3-0.07,0.56-0.2,0.78s-0.3,0.41-0.51,0.55
		c-0.21,0.15-0.45,0.26-0.71,0.33c-0.26,0.07-0.53,0.11-0.79,0.11c-0.29,0-0.58-0.04-0.86-0.14c-0.28-0.09-0.54-0.22-0.76-0.39
		c-0.22-0.17-0.41-0.38-0.54-0.63c-0.14-0.25-0.21-0.53-0.22-0.84h0.86c0.03,0.21,0.08,0.39,0.17,0.55c0.08,0.16,0.19,0.29,0.33,0.4
		s0.29,0.2,0.46,0.25c0.17,0.06,0.37,0.08,0.57,0.08c0.16,0,0.33-0.02,0.49-0.06s0.3-0.11,0.43-0.19c0.12-0.09,0.23-0.2,0.3-0.33
		C49.72,115.46,49.76,115.3,49.76,115.12z"/>
</g>
<g>
	<path class="st7" d="M1.75,145.21v2.66H0.91v-6.63h2.15c0.3,0.01,0.58,0.05,0.84,0.14s0.5,0.22,0.7,0.38
		c0.2,0.17,0.36,0.37,0.48,0.62s0.18,0.53,0.18,0.85c0,0.32-0.06,0.6-0.18,0.84s-0.28,0.45-0.48,0.62c-0.2,0.17-0.43,0.29-0.7,0.38
		s-0.55,0.13-0.84,0.14H1.75z M1.75,144.52h1.31c0.19,0,0.37-0.03,0.54-0.09c0.16-0.06,0.31-0.14,0.43-0.25s0.22-0.24,0.28-0.4
		s0.1-0.33,0.1-0.54c0-0.2-0.03-0.38-0.1-0.54s-0.16-0.3-0.28-0.41c-0.12-0.11-0.26-0.2-0.43-0.26s-0.34-0.09-0.54-0.1H1.75V144.52z
		"/>
	<path class="st7" d="M10.94,144.81H8.17v2.35h3.23v0.71H7.33v-6.63h4.03v0.72H8.17v2.13h2.77V144.81z"/>
	<path class="st7" d="M15.95,145.17h-1.32v2.71h-0.84v-6.63h1.94c0.31,0.01,0.6,0.05,0.87,0.13c0.27,0.08,0.51,0.21,0.72,0.37
		c0.2,0.16,0.37,0.37,0.48,0.62c0.12,0.25,0.17,0.54,0.17,0.87c0,0.21-0.03,0.41-0.09,0.59c-0.06,0.18-0.15,0.34-0.26,0.49
		s-0.24,0.28-0.39,0.39c-0.15,0.11-0.32,0.21-0.5,0.29l1.41,2.83l0,0.05h-0.89L15.95,145.17z M14.62,144.48h1.13
		c0.19,0,0.37-0.03,0.53-0.09c0.17-0.05,0.31-0.14,0.44-0.24c0.13-0.11,0.23-0.24,0.3-0.39c0.07-0.15,0.11-0.33,0.11-0.53
		c0-0.21-0.04-0.4-0.1-0.56c-0.07-0.16-0.17-0.29-0.29-0.4c-0.12-0.11-0.27-0.19-0.44-0.24s-0.36-0.08-0.56-0.09h-1.11V144.48z"/>
	<path class="st7" d="M24.38,141.24l0.01,4.49c-0.01,0.31-0.06,0.6-0.17,0.87c-0.11,0.27-0.25,0.51-0.45,0.71s-0.42,0.36-0.68,0.48
		c-0.26,0.12-0.55,0.17-0.87,0.17c-0.32,0-0.61-0.06-0.88-0.17c-0.26-0.12-0.49-0.27-0.68-0.48c-0.19-0.2-0.33-0.44-0.44-0.71
		s-0.16-0.56-0.16-0.87l0.01-4.49h0.8l0.02,4.49c0,0.2,0.03,0.39,0.09,0.57c0.06,0.18,0.14,0.34,0.25,0.48
		c0.11,0.14,0.25,0.25,0.41,0.34c0.17,0.09,0.36,0.13,0.57,0.13c0.22,0,0.41-0.04,0.57-0.12c0.16-0.08,0.3-0.2,0.41-0.34
		c0.11-0.14,0.2-0.3,0.25-0.48c0.06-0.18,0.09-0.37,0.09-0.57l0.01-4.49H24.38z M22.87,139.62h1.02l-1.22,1.21h-0.64L22.87,139.62z"
		/>
</g>
<g>
	<path class="st7" d="M4.63,177.27c0-0.2-0.05-0.38-0.14-0.51c-0.09-0.14-0.21-0.26-0.36-0.35s-0.31-0.18-0.48-0.24
		c-0.17-0.06-0.34-0.12-0.5-0.17c-0.23-0.08-0.47-0.17-0.71-0.27c-0.24-0.11-0.46-0.24-0.66-0.39c-0.2-0.16-0.36-0.34-0.49-0.55
		s-0.19-0.46-0.19-0.74s0.06-0.54,0.19-0.77s0.29-0.41,0.49-0.57s0.43-0.27,0.69-0.35s0.52-0.12,0.78-0.12
		c0.29,0,0.57,0.05,0.83,0.14c0.27,0.1,0.5,0.23,0.71,0.4c0.21,0.17,0.37,0.38,0.5,0.63c0.12,0.25,0.19,0.52,0.2,0.82H4.63
		c-0.02-0.19-0.07-0.37-0.14-0.52c-0.07-0.16-0.16-0.29-0.28-0.4c-0.12-0.11-0.25-0.2-0.41-0.26c-0.16-0.06-0.34-0.09-0.54-0.09
		c-0.16,0-0.32,0.02-0.47,0.07c-0.15,0.04-0.29,0.11-0.41,0.21c-0.12,0.09-0.21,0.2-0.29,0.34s-0.11,0.29-0.11,0.46
		c0,0.19,0.05,0.35,0.15,0.48c0.09,0.13,0.21,0.24,0.36,0.33c0.14,0.09,0.3,0.17,0.47,0.23c0.17,0.06,0.33,0.11,0.48,0.16
		c0.16,0.05,0.33,0.11,0.5,0.18c0.17,0.07,0.33,0.14,0.48,0.23c0.15,0.08,0.3,0.18,0.43,0.29c0.13,0.11,0.25,0.23,0.35,0.36
		c0.1,0.13,0.18,0.28,0.23,0.45c0.06,0.16,0.08,0.34,0.08,0.54c0,0.3-0.07,0.56-0.2,0.78s-0.3,0.41-0.51,0.55
		c-0.21,0.15-0.45,0.26-0.71,0.33c-0.26,0.07-0.53,0.11-0.79,0.11c-0.29,0-0.58-0.04-0.86-0.14c-0.28-0.09-0.54-0.22-0.76-0.39
		c-0.22-0.17-0.41-0.38-0.54-0.63c-0.14-0.25-0.21-0.53-0.22-0.84h0.86c0.03,0.21,0.08,0.39,0.17,0.55c0.08,0.16,0.19,0.29,0.33,0.4
		s0.29,0.2,0.46,0.25c0.17,0.06,0.37,0.08,0.57,0.08c0.16,0,0.33-0.02,0.49-0.06s0.3-0.11,0.43-0.19c0.12-0.09,0.23-0.2,0.3-0.33
		C4.59,177.61,4.63,177.45,4.63,177.27z"/>
	<path class="st7" d="M11.27,175.88H8.5v2.35h3.23v0.71H7.66v-6.63h4.03v0.72H8.5v2.13h2.77V175.88z"/>
	<path class="st7" d="M18.24,178.95h-0.86l-2.57-4.95l-0.01,4.95h-0.85v-6.63h0.86l2.57,4.94l0.01-4.94h0.85V178.95z"/>
	<path class="st7" d="M24.19,175.88h-2.77v2.35h3.23v0.71h-4.07v-6.63h4.03v0.72h-3.19v2.13h2.77V175.88z"/>
	<path class="st7" d="M31.3,178.08c-0.28,0.33-0.6,0.57-0.96,0.73c-0.36,0.16-0.76,0.24-1.19,0.23c-0.27,0-0.52-0.04-0.75-0.12
		c-0.23-0.08-0.44-0.19-0.62-0.33c-0.18-0.14-0.34-0.31-0.48-0.5c-0.14-0.19-0.25-0.4-0.34-0.62c-0.09-0.22-0.16-0.46-0.21-0.7
		s-0.07-0.49-0.08-0.74v-0.77c0-0.25,0.03-0.49,0.07-0.73s0.1-0.48,0.19-0.7s0.19-0.43,0.32-0.63c0.13-0.19,0.28-0.36,0.46-0.5
		c0.18-0.14,0.38-0.25,0.6-0.34s0.48-0.12,0.76-0.12c0.31,0,0.59,0.05,0.86,0.14s0.49,0.23,0.68,0.41s0.35,0.39,0.47,0.64
		c0.12,0.25,0.19,0.53,0.22,0.84h-0.83c-0.03-0.19-0.08-0.37-0.15-0.53c-0.07-0.16-0.16-0.3-0.28-0.42
		c-0.11-0.12-0.25-0.21-0.41-0.27c-0.16-0.07-0.34-0.1-0.55-0.1c-0.2,0-0.38,0.03-0.53,0.1c-0.16,0.07-0.29,0.16-0.41,0.28
		s-0.21,0.25-0.29,0.4c-0.08,0.15-0.14,0.32-0.19,0.49s-0.08,0.34-0.1,0.52c-0.02,0.18-0.03,0.35-0.03,0.51v0.78
		c0,0.17,0.02,0.34,0.04,0.52c0.03,0.18,0.07,0.35,0.12,0.52s0.12,0.33,0.21,0.48c0.08,0.15,0.19,0.29,0.31,0.4s0.26,0.21,0.42,0.28
		c0.16,0.07,0.34,0.1,0.54,0.11c0.12,0,0.24,0,0.36-0.01c0.13-0.01,0.25-0.04,0.37-0.07c0.12-0.04,0.23-0.09,0.33-0.15
		c0.1-0.06,0.19-0.14,0.26-0.24l0.01-1.49h-1.35v-0.71h2.15L31.3,178.08z"/>
	<path class="st7" d="M36.64,177.23h-2.21l-0.53,1.72h-0.84l2.14-6.63h0.71l2.1,6.63h-0.84L36.64,177.23z M34.65,176.5h1.76
		l-0.87-2.88L34.65,176.5z"/>
	<path class="st7" d="M40.88,178.23h3.24v0.71h-4.08v-6.63h0.84V178.23z"/>
</g>
<g>
	<path class="st7" d="M1.95,203.39l1.08,3.31l1.17-3.31h1.05v6.63H4.42v-2.64l0.07-2.77l-1.22,3.57H2.78l-1.12-3.47l0.07,2.67v2.64
		H0.91v-6.63H1.95z"/>
	<path class="st7" d="M10.65,208.31H8.44l-0.53,1.72H7.06l2.14-6.63h0.71l2.1,6.63h-0.84L10.65,208.31z M8.67,207.57h1.76
		l-0.87-2.88L8.67,207.57z"/>
	<path class="st7" d="M14.9,209.31h3.24v0.71h-4.08v-6.63h0.84V209.31z"/>
	<path class="st7" d="M20.41,203.39h4.01v0.73h-1.59v5.17h1.59v0.73h-4.01v-0.73h1.55v-5.17h-1.55V203.39z"/>
</g>
<g>
	<path class="st7" d="M1.95,234.47l1.08,3.31l1.17-3.31h1.05v6.63H4.42v-2.64l0.07-2.77l-1.22,3.57H2.78l-1.12-3.47l0.07,2.67v2.64
		H0.91v-6.63H1.95z"/>
	<path class="st7" d="M10.65,239.38H8.44L7.9,241.1H7.06l2.14-6.63h0.71l2.1,6.63h-0.84L10.65,239.38z M8.67,238.65h1.76l-0.87-2.88
		L8.67,238.65z"/>
	<path class="st7" d="M16.14,238.39h-1.32v2.71h-0.84v-6.63h1.94c0.31,0.01,0.6,0.05,0.87,0.13c0.27,0.08,0.51,0.21,0.72,0.37
		c0.2,0.16,0.37,0.37,0.48,0.62c0.12,0.25,0.17,0.54,0.17,0.87c0,0.21-0.03,0.41-0.09,0.59c-0.06,0.18-0.15,0.34-0.26,0.49
		s-0.24,0.28-0.39,0.39c-0.15,0.11-0.32,0.21-0.5,0.29l1.41,2.83l0,0.05h-0.89L16.14,238.39z M14.82,237.7h1.13
		c0.19,0,0.37-0.03,0.53-0.09c0.17-0.05,0.31-0.14,0.44-0.24c0.13-0.11,0.23-0.24,0.3-0.39c0.07-0.15,0.11-0.33,0.11-0.53
		c0-0.21-0.04-0.4-0.1-0.56c-0.07-0.16-0.17-0.29-0.29-0.4c-0.12-0.11-0.27-0.19-0.44-0.24s-0.36-0.08-0.56-0.09h-1.11V237.7z"/>
	<path class="st7" d="M22.6,238.39h-1.32v2.71h-0.84v-6.63h1.94c0.31,0.01,0.6,0.05,0.87,0.13c0.27,0.08,0.51,0.21,0.72,0.37
		c0.2,0.16,0.37,0.37,0.48,0.62c0.12,0.25,0.17,0.54,0.17,0.87c0,0.21-0.03,0.41-0.09,0.59c-0.06,0.18-0.15,0.34-0.26,0.49
		s-0.24,0.28-0.39,0.39c-0.15,0.11-0.32,0.21-0.5,0.29l1.41,2.83l0,0.05h-0.89L22.6,238.39z M21.28,237.7h1.13
		c0.19,0,0.37-0.03,0.53-0.09c0.17-0.05,0.31-0.14,0.44-0.24c0.13-0.11,0.23-0.24,0.3-0.39c0.07-0.15,0.11-0.33,0.11-0.53
		c0-0.21-0.04-0.4-0.1-0.56c-0.07-0.16-0.17-0.29-0.29-0.4c-0.12-0.11-0.27-0.19-0.44-0.24s-0.36-0.08-0.56-0.09h-1.11V237.7z"/>
	<path class="st7" d="M31.03,234.47l0.01,4.49c-0.01,0.31-0.06,0.6-0.17,0.87c-0.11,0.27-0.25,0.51-0.45,0.71s-0.42,0.36-0.68,0.48
		c-0.26,0.12-0.55,0.17-0.87,0.17c-0.32,0-0.61-0.06-0.88-0.17c-0.26-0.12-0.49-0.27-0.68-0.48c-0.19-0.2-0.33-0.44-0.44-0.71
		s-0.16-0.56-0.16-0.87l0.01-4.49h0.8l0.02,4.49c0,0.2,0.03,0.39,0.09,0.57c0.06,0.18,0.14,0.34,0.25,0.48
		c0.11,0.14,0.25,0.25,0.41,0.34c0.17,0.09,0.36,0.13,0.57,0.13c0.22,0,0.41-0.04,0.57-0.12c0.16-0.08,0.3-0.2,0.41-0.34
		c0.11-0.14,0.2-0.3,0.25-0.48c0.06-0.18,0.09-0.37,0.09-0.57l0.01-4.49H31.03z"/>
	<path class="st7" d="M36.98,238.03h-2.77v2.35h3.23v0.71h-4.07v-6.63h4.03v0.72h-3.19v2.13h2.77V238.03z"/>
	<path class="st7" d="M44.09,239.1c-0.04,0.31-0.12,0.59-0.24,0.84c-0.12,0.26-0.27,0.48-0.46,0.66c-0.19,0.18-0.42,0.33-0.67,0.43
		c-0.26,0.1-0.55,0.15-0.87,0.15c-0.27,0-0.52-0.04-0.75-0.12c-0.22-0.08-0.42-0.18-0.6-0.32c-0.17-0.14-0.33-0.3-0.45-0.48
		c-0.13-0.19-0.23-0.39-0.31-0.61c-0.08-0.22-0.15-0.45-0.19-0.69c-0.04-0.24-0.06-0.48-0.07-0.73v-0.93c0-0.24,0.02-0.49,0.07-0.73
		c0.04-0.24,0.1-0.47,0.19-0.69c0.08-0.22,0.19-0.42,0.31-0.61c0.13-0.19,0.28-0.35,0.45-0.48c0.17-0.14,0.37-0.24,0.59-0.32
		c0.22-0.08,0.47-0.12,0.75-0.12c0.33,0,0.63,0.05,0.89,0.15c0.26,0.1,0.49,0.24,0.67,0.43c0.19,0.19,0.34,0.41,0.45,0.67
		c0.11,0.26,0.19,0.55,0.23,0.87h-0.84c-0.03-0.2-0.07-0.39-0.14-0.56c-0.07-0.17-0.16-0.32-0.27-0.46s-0.25-0.23-0.41-0.31
		c-0.16-0.07-0.35-0.11-0.58-0.11c-0.2,0-0.38,0.03-0.53,0.1c-0.15,0.07-0.29,0.15-0.4,0.27c-0.11,0.11-0.2,0.24-0.28,0.39
		c-0.08,0.15-0.13,0.31-0.18,0.47c-0.04,0.17-0.08,0.34-0.1,0.51s-0.03,0.34-0.03,0.51v0.93c0,0.16,0.01,0.33,0.03,0.51
		c0.02,0.17,0.05,0.35,0.1,0.51c0.05,0.17,0.11,0.33,0.18,0.47c0.07,0.15,0.17,0.28,0.28,0.39s0.24,0.2,0.4,0.27
		c0.15,0.06,0.33,0.1,0.53,0.1c0.22,0,0.41-0.04,0.58-0.11s0.3-0.17,0.41-0.29c0.11-0.13,0.2-0.28,0.27-0.45
		c0.07-0.17,0.11-0.36,0.14-0.56H44.09z"/>
	<path class="st7" d="M50.57,238.17c0,0.24-0.02,0.47-0.06,0.72c-0.04,0.24-0.1,0.47-0.18,0.7c-0.08,0.22-0.18,0.43-0.3,0.63
		c-0.12,0.2-0.27,0.37-0.44,0.51c-0.17,0.15-0.36,0.26-0.58,0.34c-0.22,0.08-0.47,0.12-0.74,0.12s-0.52-0.04-0.74-0.12
		c-0.22-0.08-0.42-0.2-0.58-0.34c-0.17-0.14-0.32-0.32-0.44-0.51c-0.12-0.2-0.23-0.41-0.31-0.63c-0.08-0.22-0.14-0.46-0.18-0.7
		c-0.04-0.24-0.06-0.48-0.06-0.71v-0.76c0-0.24,0.02-0.48,0.06-0.72c0.04-0.24,0.1-0.47,0.18-0.7c0.08-0.22,0.18-0.44,0.3-0.63
		s0.27-0.37,0.44-0.51c0.17-0.15,0.37-0.26,0.58-0.35c0.22-0.08,0.47-0.13,0.74-0.13c0.27,0,0.52,0.04,0.74,0.13
		c0.22,0.08,0.42,0.2,0.59,0.34c0.17,0.15,0.32,0.32,0.44,0.51c0.12,0.2,0.22,0.41,0.3,0.63s0.14,0.46,0.18,0.7
		c0.04,0.24,0.06,0.48,0.06,0.72V238.17z M49.74,237.4c0-0.16-0.01-0.32-0.03-0.49s-0.05-0.34-0.09-0.51s-0.1-0.33-0.17-0.48
		c-0.07-0.15-0.16-0.29-0.27-0.4c-0.11-0.12-0.24-0.21-0.39-0.28s-0.32-0.1-0.52-0.1c-0.19,0-0.37,0.04-0.51,0.11
		c-0.15,0.07-0.28,0.16-0.39,0.28c-0.11,0.12-0.2,0.25-0.27,0.4c-0.07,0.15-0.13,0.31-0.18,0.48c-0.04,0.17-0.08,0.34-0.09,0.51
		c-0.02,0.17-0.03,0.33-0.03,0.49v0.77c0,0.15,0.01,0.32,0.03,0.49c0.02,0.17,0.05,0.34,0.1,0.51c0.04,0.17,0.1,0.33,0.18,0.48
		c0.07,0.15,0.16,0.29,0.27,0.41c0.11,0.12,0.24,0.21,0.39,0.28c0.15,0.07,0.32,0.1,0.52,0.1s0.37-0.03,0.52-0.1
		s0.28-0.16,0.39-0.28c0.11-0.12,0.2-0.25,0.27-0.4c0.07-0.15,0.13-0.31,0.17-0.48s0.07-0.34,0.09-0.51
		c0.02-0.17,0.03-0.34,0.03-0.5V237.4z"/>
	<path class="st7" d="M56.19,239.42c0-0.2-0.05-0.38-0.14-0.51c-0.09-0.14-0.21-0.26-0.36-0.35s-0.31-0.18-0.48-0.24
		c-0.17-0.06-0.34-0.12-0.5-0.17c-0.23-0.08-0.47-0.17-0.71-0.27c-0.24-0.11-0.46-0.24-0.66-0.39c-0.2-0.16-0.36-0.34-0.49-0.55
		s-0.19-0.46-0.19-0.74s0.06-0.54,0.19-0.77s0.29-0.41,0.49-0.57s0.43-0.27,0.69-0.35s0.52-0.12,0.78-0.12
		c0.29,0,0.57,0.05,0.83,0.14c0.27,0.1,0.5,0.23,0.71,0.4c0.21,0.17,0.37,0.38,0.5,0.63c0.12,0.25,0.19,0.52,0.2,0.82h-0.86
		c-0.02-0.19-0.07-0.37-0.14-0.52c-0.07-0.16-0.16-0.29-0.28-0.4c-0.12-0.11-0.25-0.2-0.41-0.26c-0.16-0.06-0.34-0.09-0.54-0.09
		c-0.16,0-0.32,0.02-0.47,0.07c-0.15,0.04-0.29,0.11-0.41,0.21c-0.12,0.09-0.21,0.2-0.29,0.34s-0.11,0.29-0.11,0.46
		c0,0.19,0.05,0.35,0.15,0.48c0.09,0.13,0.21,0.24,0.36,0.33c0.14,0.09,0.3,0.17,0.47,0.23c0.17,0.06,0.33,0.11,0.48,0.16
		c0.16,0.05,0.33,0.11,0.5,0.18c0.17,0.07,0.33,0.14,0.48,0.23c0.15,0.08,0.3,0.18,0.43,0.29c0.13,0.11,0.25,0.23,0.35,0.36
		c0.1,0.13,0.18,0.28,0.23,0.45c0.06,0.16,0.08,0.34,0.08,0.54c0,0.3-0.07,0.56-0.2,0.78s-0.3,0.41-0.51,0.55
		c-0.21,0.15-0.45,0.26-0.71,0.33c-0.26,0.07-0.53,0.11-0.79,0.11c-0.29,0-0.58-0.04-0.86-0.14c-0.28-0.09-0.54-0.22-0.76-0.39
		c-0.22-0.17-0.41-0.38-0.54-0.63c-0.14-0.25-0.21-0.53-0.22-0.84h0.86c0.03,0.21,0.08,0.39,0.17,0.55c0.08,0.16,0.19,0.29,0.33,0.4
		s0.29,0.2,0.46,0.25c0.17,0.06,0.37,0.08,0.57,0.08c0.16,0,0.33-0.02,0.49-0.06s0.3-0.11,0.43-0.19c0.12-0.09,0.23-0.2,0.3-0.33
		C56.15,239.76,56.19,239.6,56.19,239.42z"/>
</g>
<g>
	<path class="st7" d="M5.5,270.18c-0.04,0.31-0.12,0.59-0.24,0.85c-0.12,0.26-0.27,0.48-0.46,0.66c-0.19,0.18-0.42,0.33-0.67,0.43
		c-0.26,0.1-0.55,0.15-0.87,0.15c-0.27,0-0.52-0.04-0.75-0.12c-0.22-0.08-0.42-0.18-0.6-0.32c-0.17-0.14-0.33-0.3-0.45-0.48
		s-0.23-0.39-0.31-0.61c-0.08-0.22-0.15-0.45-0.19-0.69s-0.06-0.48-0.07-0.73v-0.92c0-0.25,0.02-0.49,0.07-0.73s0.1-0.47,0.19-0.69
		c0.08-0.22,0.19-0.42,0.31-0.61c0.13-0.19,0.28-0.35,0.45-0.48c0.17-0.14,0.37-0.24,0.59-0.32c0.22-0.08,0.47-0.12,0.75-0.12
		c0.33,0,0.63,0.05,0.89,0.15c0.26,0.1,0.49,0.25,0.67,0.43c0.19,0.19,0.34,0.41,0.45,0.67c0.11,0.26,0.19,0.55,0.23,0.87H4.66
		c-0.03-0.2-0.07-0.39-0.14-0.56c-0.07-0.17-0.16-0.32-0.27-0.46c-0.11-0.13-0.25-0.23-0.41-0.31s-0.35-0.11-0.58-0.11
		c-0.2,0-0.38,0.03-0.53,0.1c-0.15,0.06-0.29,0.15-0.4,0.27c-0.11,0.11-0.2,0.24-0.28,0.39c-0.08,0.15-0.13,0.31-0.18,0.47
		c-0.04,0.17-0.08,0.34-0.1,0.51c-0.02,0.18-0.03,0.34-0.03,0.51v0.93c0,0.16,0.01,0.33,0.03,0.51s0.05,0.35,0.1,0.51
		c0.05,0.17,0.11,0.33,0.18,0.48c0.07,0.15,0.17,0.28,0.28,0.39c0.11,0.11,0.24,0.2,0.4,0.27c0.15,0.07,0.33,0.1,0.53,0.1
		c0.22,0,0.41-0.04,0.58-0.1c0.16-0.07,0.3-0.17,0.41-0.29c0.11-0.12,0.2-0.27,0.27-0.45c0.07-0.17,0.11-0.36,0.14-0.56H5.5z"/>
	<path class="st7" d="M11.98,269.24c0,0.24-0.02,0.48-0.06,0.72c-0.04,0.24-0.1,0.47-0.18,0.7c-0.08,0.22-0.18,0.43-0.3,0.63
		c-0.12,0.19-0.27,0.36-0.44,0.51c-0.17,0.14-0.36,0.26-0.58,0.34c-0.22,0.08-0.47,0.12-0.74,0.12s-0.52-0.04-0.74-0.12
		c-0.22-0.08-0.42-0.2-0.58-0.34c-0.17-0.15-0.32-0.32-0.44-0.51c-0.12-0.2-0.23-0.41-0.31-0.63c-0.08-0.22-0.14-0.46-0.18-0.7
		c-0.04-0.24-0.06-0.48-0.06-0.71v-0.76c0-0.24,0.02-0.47,0.06-0.72c0.04-0.24,0.1-0.47,0.18-0.7c0.08-0.22,0.18-0.43,0.3-0.63
		c0.12-0.2,0.27-0.37,0.44-0.52c0.17-0.15,0.37-0.26,0.58-0.35s0.47-0.12,0.74-0.12c0.27,0,0.52,0.04,0.74,0.12
		c0.22,0.08,0.42,0.2,0.59,0.34s0.32,0.32,0.44,0.51s0.22,0.41,0.3,0.63s0.14,0.46,0.18,0.7s0.06,0.48,0.06,0.72V269.24z
		 M11.15,268.48c0-0.16-0.01-0.32-0.03-0.49s-0.05-0.34-0.09-0.51c-0.04-0.17-0.1-0.33-0.17-0.48c-0.07-0.15-0.16-0.29-0.27-0.41
		s-0.24-0.21-0.39-0.28s-0.32-0.1-0.52-0.1c-0.19,0-0.37,0.03-0.51,0.1s-0.28,0.16-0.39,0.28c-0.11,0.12-0.2,0.25-0.27,0.41
		c-0.07,0.15-0.13,0.31-0.18,0.48s-0.08,0.34-0.09,0.51c-0.02,0.17-0.03,0.33-0.03,0.49v0.76c0,0.15,0.01,0.32,0.03,0.49
		c0.02,0.17,0.05,0.34,0.1,0.51c0.04,0.17,0.1,0.33,0.18,0.48c0.07,0.16,0.16,0.29,0.27,0.41s0.24,0.21,0.39,0.28
		c0.15,0.07,0.32,0.11,0.52,0.11s0.37-0.04,0.52-0.11c0.15-0.07,0.28-0.16,0.39-0.28s0.2-0.25,0.27-0.4
		c0.07-0.15,0.13-0.31,0.17-0.48c0.04-0.17,0.07-0.34,0.09-0.51c0.02-0.17,0.03-0.34,0.03-0.5V268.48z"/>
	<path class="st7" d="M15.09,271.46h3.24v0.71h-4.08v-6.63h0.84V271.46z"/>
	<path class="st7" d="M24.91,269.24c0,0.24-0.02,0.48-0.06,0.72c-0.04,0.24-0.1,0.47-0.18,0.7c-0.08,0.22-0.18,0.43-0.3,0.63
		c-0.12,0.19-0.27,0.36-0.44,0.51c-0.17,0.14-0.36,0.26-0.58,0.34c-0.22,0.08-0.47,0.12-0.74,0.12s-0.52-0.04-0.74-0.12
		c-0.22-0.08-0.42-0.2-0.58-0.34c-0.17-0.15-0.32-0.32-0.44-0.51c-0.12-0.2-0.23-0.41-0.31-0.63c-0.08-0.22-0.14-0.46-0.18-0.7
		c-0.04-0.24-0.06-0.48-0.06-0.71v-0.76c0-0.24,0.02-0.47,0.06-0.72c0.04-0.24,0.1-0.47,0.18-0.7c0.08-0.22,0.18-0.43,0.3-0.63
		c0.12-0.2,0.27-0.37,0.44-0.52c0.17-0.15,0.37-0.26,0.58-0.35s0.47-0.12,0.74-0.12c0.27,0,0.52,0.04,0.74,0.12
		c0.22,0.08,0.42,0.2,0.59,0.34s0.32,0.32,0.44,0.51s0.22,0.41,0.3,0.63s0.14,0.46,0.18,0.7s0.06,0.48,0.06,0.72V269.24z
		 M24.08,268.48c0-0.16-0.01-0.32-0.03-0.49s-0.05-0.34-0.09-0.51c-0.04-0.17-0.1-0.33-0.17-0.48c-0.07-0.15-0.16-0.29-0.27-0.41
		s-0.24-0.21-0.39-0.28s-0.32-0.1-0.52-0.1c-0.19,0-0.37,0.03-0.51,0.1s-0.28,0.16-0.39,0.28c-0.11,0.12-0.2,0.25-0.27,0.41
		c-0.07,0.15-0.13,0.31-0.18,0.48s-0.08,0.34-0.09,0.51c-0.02,0.17-0.03,0.33-0.03,0.49v0.76c0,0.15,0.01,0.32,0.03,0.49
		c0.02,0.17,0.05,0.34,0.1,0.51c0.04,0.17,0.1,0.33,0.18,0.48c0.07,0.16,0.16,0.29,0.27,0.41s0.24,0.21,0.39,0.28
		c0.15,0.07,0.32,0.11,0.52,0.11s0.37-0.04,0.52-0.11c0.15-0.07,0.28-0.16,0.39-0.28s0.2-0.25,0.27-0.4
		c0.07-0.15,0.13-0.31,0.17-0.48c0.04-0.17,0.07-0.34,0.09-0.51c0.02-0.17,0.03-0.34,0.03-0.5V268.48z M23.05,264.97h-0.68
		l-1.13-1.21h1.02L23.05,264.97z"/>
	<path class="st7" d="M27.98,265.54l1.08,3.31l1.17-3.31h1.05v6.63h-0.82v-2.64l0.07-2.77l-1.22,3.57h-0.48l-1.12-3.47l0.07,2.67
		v2.64h-0.82v-6.63H27.98z"/>
	<path class="st7" d="M33.51,272.17v-6.63h1.97c0.27,0,0.54,0.04,0.8,0.11c0.26,0.07,0.49,0.17,0.7,0.32s0.37,0.33,0.49,0.55
		c0.12,0.22,0.18,0.49,0.18,0.8c0,0.17-0.03,0.33-0.08,0.47c-0.05,0.14-0.13,0.27-0.22,0.38c-0.09,0.12-0.2,0.21-0.33,0.3
		c-0.12,0.08-0.26,0.16-0.4,0.22c0.18,0.05,0.34,0.12,0.48,0.22s0.27,0.21,0.38,0.35c0.11,0.13,0.19,0.29,0.25,0.46
		c0.06,0.17,0.09,0.35,0.09,0.55c0,0.31-0.06,0.58-0.18,0.82c-0.12,0.24-0.28,0.43-0.49,0.59s-0.44,0.28-0.7,0.37
		c-0.27,0.08-0.54,0.13-0.82,0.13H33.51z M34.36,268.37h1.17c0.16,0,0.31-0.03,0.46-0.07c0.15-0.05,0.29-0.12,0.41-0.21
		c0.12-0.09,0.21-0.2,0.29-0.33c0.07-0.13,0.11-0.28,0.11-0.46c0-0.19-0.04-0.34-0.11-0.47s-0.17-0.24-0.29-0.32
		c-0.12-0.08-0.26-0.14-0.41-0.19c-0.16-0.04-0.32-0.06-0.48-0.06h-1.15V268.37z M34.36,269.07v2.38h1.3c0.18,0,0.34-0.03,0.5-0.09
		c0.16-0.06,0.3-0.13,0.42-0.23s0.22-0.22,0.29-0.37s0.11-0.31,0.11-0.5c0-0.19-0.03-0.36-0.09-0.5c-0.07-0.15-0.16-0.27-0.27-0.37
		s-0.25-0.18-0.41-0.23c-0.16-0.05-0.32-0.09-0.5-0.09H34.36z"/>
	<path class="st7" d="M39.98,265.54h4.01v0.73H42.4v5.17h1.59v0.73h-4.01v-0.73h1.55v-5.17h-1.55V265.54z"/>
	<path class="st7" d="M49.61,270.46H47.4l-0.53,1.71h-0.84l2.14-6.63h0.71l2.1,6.63h-0.84L49.61,270.46z M47.62,269.72h1.76
		l-0.87-2.88L47.62,269.72z"/>
</g>
<g>
	<path class="st7" d="M3.36,301.89l1.57-5.27h0.9l-2.09,6.63H3l-2.09-6.63h0.9L3.36,301.89z"/>
	<path class="st7" d="M11.48,300.18H8.72v2.35h3.23v0.71H7.87v-6.63h4.03v0.72H8.72v2.13h2.77V300.18z"/>
	<path class="st7" d="M18.45,303.25H17.6l-2.57-4.95l-0.01,4.95h-0.85v-6.63h0.86l2.57,4.94l0.01-4.94h0.85V303.25z"/>
	<path class="st7" d="M24.41,300.18h-2.77v2.35h3.23v0.71H20.8v-6.63h4.03v0.72h-3.19v2.13h2.77V300.18z"/>
	<path class="st7" d="M27.91,302.53h3.43v0.71h-4.38l-0.01-0.66l3.3-5.25h-3.24v-0.72h4.2l0.01,0.64L27.91,302.53z"/>
	<path class="st7" d="M37.85,296.62l0.01,4.49c-0.01,0.31-0.06,0.6-0.17,0.87c-0.11,0.27-0.25,0.51-0.45,0.71s-0.42,0.36-0.68,0.48
		c-0.26,0.12-0.55,0.17-0.87,0.17c-0.32,0-0.61-0.06-0.88-0.17c-0.26-0.12-0.49-0.27-0.68-0.48c-0.19-0.2-0.33-0.44-0.44-0.71
		s-0.16-0.56-0.16-0.87l0.01-4.49h0.8l0.02,4.49c0,0.2,0.03,0.39,0.09,0.57c0.06,0.18,0.14,0.34,0.25,0.48
		c0.11,0.14,0.25,0.25,0.41,0.34c0.17,0.09,0.36,0.13,0.57,0.13c0.22,0,0.41-0.04,0.57-0.12c0.16-0.08,0.3-0.2,0.41-0.34
		c0.11-0.14,0.2-0.3,0.25-0.48c0.06-0.18,0.09-0.37,0.09-0.57l0.01-4.49H37.85z"/>
	<path class="st7" d="M43.79,300.18h-2.77v2.35h3.23v0.71h-4.07v-6.63h4.03v0.72h-3.19v2.13h2.77V300.18z"/>
	<path class="st7" d="M47.56,302.53h3.24v0.71h-4.08v-6.63h0.84V302.53z"/>
	<path class="st7" d="M56.24,301.53h-2.21l-0.53,1.72h-0.84l2.14-6.63h0.71l2.1,6.63h-0.84L56.24,301.53z M54.25,300.8h1.76
		l-0.87-2.88L54.25,300.8z"/>
</g>
<g class="st1">
	<g>
		<path class="st8" d="M219.81,41.38l-3.23-0.37l0.05-3.31l0.53,0.01l-0.04,2.85l2.21,0.26c-0.11-0.17-0.2-0.36-0.26-0.57
			c-0.06-0.21-0.09-0.44-0.09-0.68c0-0.3,0.06-0.57,0.17-0.81c0.11-0.24,0.26-0.44,0.45-0.61c0.19-0.17,0.42-0.29,0.68-0.38
			c0.26-0.09,0.55-0.13,0.86-0.12c0.31,0,0.59,0.05,0.86,0.13c0.27,0.08,0.5,0.21,0.69,0.37c0.2,0.16,0.35,0.37,0.46,0.62
			c0.11,0.25,0.17,0.54,0.16,0.88c0,0.28-0.05,0.53-0.13,0.77c-0.09,0.23-0.21,0.44-0.37,0.61c-0.16,0.17-0.36,0.32-0.58,0.42
			c-0.23,0.11-0.49,0.17-0.78,0.2l0.01-0.53c0.21-0.02,0.41-0.07,0.58-0.15c0.17-0.08,0.32-0.18,0.44-0.3
			c0.12-0.13,0.21-0.27,0.28-0.45c0.06-0.17,0.1-0.37,0.1-0.58c0-0.24-0.04-0.45-0.12-0.63c-0.08-0.18-0.2-0.33-0.36-0.45
			c-0.16-0.12-0.34-0.21-0.55-0.27s-0.44-0.09-0.68-0.09c-0.23,0-0.45,0.03-0.65,0.09c-0.2,0.07-0.38,0.16-0.53,0.29
			c-0.15,0.13-0.27,0.28-0.36,0.47s-0.13,0.4-0.14,0.63c0,0.14,0,0.27,0.02,0.38c0.02,0.12,0.04,0.23,0.08,0.33
			c0.04,0.1,0.09,0.2,0.14,0.29c0.06,0.09,0.13,0.19,0.21,0.28L219.81,41.38z"/>
		<path class="st8" d="M222.95,33.69c-0.13,0-0.24-0.05-0.32-0.13c-0.09-0.09-0.13-0.2-0.13-0.34c0-0.15,0.05-0.26,0.14-0.34
			s0.2-0.12,0.33-0.12c0.13,0,0.23,0.05,0.31,0.13c0.08,0.08,0.12,0.2,0.12,0.35c0,0.14-0.05,0.25-0.13,0.34
			C223.18,33.65,223.07,33.69,222.95,33.69z"/>
		<path class="st8" d="M220.85,24.76c0.37,0.01,0.72,0.05,1.05,0.14s0.61,0.22,0.86,0.39c0.24,0.17,0.43,0.39,0.57,0.66
			c0.14,0.26,0.21,0.58,0.2,0.94c-0.01,0.36-0.08,0.67-0.23,0.93c-0.15,0.26-0.35,0.47-0.6,0.64c-0.25,0.17-0.54,0.29-0.87,0.37
			c-0.33,0.08-0.68,0.12-1.05,0.11l-1.38-0.02c-0.37-0.01-0.72-0.06-1.05-0.14c-0.33-0.09-0.62-0.22-0.86-0.39
			c-0.25-0.17-0.44-0.39-0.58-0.66c-0.14-0.26-0.21-0.57-0.2-0.93c0.01-0.36,0.08-0.67,0.23-0.93c0.15-0.26,0.35-0.47,0.6-0.64
			s0.54-0.29,0.87-0.37c0.33-0.08,0.68-0.11,1.05-0.11L220.85,24.76z M220.88,28.39c0.12,0,0.24,0,0.35-0.01l-2.66-3.03
			c-0.2,0.04-0.38,0.1-0.54,0.17c-0.17,0.07-0.31,0.17-0.44,0.29s-0.22,0.26-0.29,0.42c-0.07,0.16-0.11,0.35-0.11,0.57
			c0,0.28,0.05,0.52,0.17,0.72c0.12,0.2,0.27,0.36,0.47,0.48c0.2,0.12,0.43,0.22,0.69,0.28s0.53,0.09,0.82,0.09L220.88,28.39z
			 M219.37,25.29c-0.1,0-0.2,0-0.3,0.01l2.66,3.02c0.19-0.04,0.37-0.1,0.53-0.18c0.16-0.08,0.3-0.17,0.42-0.29
			c0.12-0.12,0.21-0.25,0.28-0.41s0.11-0.34,0.11-0.55c0-0.28-0.05-0.52-0.17-0.72s-0.27-0.36-0.47-0.48
			c-0.2-0.12-0.43-0.21-0.69-0.27c-0.26-0.06-0.53-0.09-0.82-0.09L219.37,25.29z"/>
		<path class="st8" d="M220.96,18.3c0.37,0.01,0.72,0.05,1.05,0.14c0.33,0.09,0.61,0.22,0.86,0.39c0.24,0.17,0.43,0.39,0.58,0.66
			c0.14,0.26,0.21,0.58,0.2,0.94c-0.01,0.36-0.08,0.67-0.23,0.93c-0.15,0.26-0.35,0.47-0.6,0.64c-0.25,0.17-0.54,0.29-0.87,0.37
			c-0.33,0.08-0.68,0.12-1.05,0.11l-1.38-0.02c-0.37-0.01-0.72-0.06-1.05-0.14s-0.62-0.22-0.86-0.39c-0.25-0.17-0.44-0.39-0.58-0.66
			c-0.14-0.26-0.21-0.57-0.2-0.93c0-0.36,0.08-0.67,0.23-0.93c0.15-0.26,0.35-0.47,0.6-0.64c0.25-0.17,0.54-0.29,0.88-0.37
			c0.33-0.08,0.68-0.11,1.05-0.11L220.96,18.3z M220.98,21.93c0.12,0,0.24,0,0.35-0.01l-2.66-3.03c-0.19,0.04-0.38,0.1-0.54,0.17
			c-0.17,0.07-0.31,0.17-0.44,0.29c-0.12,0.12-0.22,0.26-0.29,0.42c-0.07,0.16-0.11,0.35-0.11,0.57c0,0.28,0.05,0.52,0.17,0.72
			c0.12,0.2,0.27,0.36,0.47,0.48c0.2,0.12,0.43,0.22,0.69,0.28c0.26,0.06,0.53,0.09,0.82,0.09L220.98,21.93z M219.48,18.83
			c-0.1,0-0.2,0-0.3,0.01l2.66,3.02c0.19-0.04,0.37-0.1,0.53-0.18c0.16-0.08,0.3-0.17,0.42-0.29c0.12-0.12,0.21-0.25,0.28-0.41
			c0.07-0.16,0.1-0.35,0.11-0.55c0-0.28-0.05-0.52-0.17-0.72c-0.12-0.2-0.27-0.36-0.47-0.48c-0.2-0.12-0.43-0.21-0.69-0.27
			s-0.53-0.09-0.82-0.1L219.48,18.83z"/>
		<path class="st8" d="M221.06,11.84c0.37,0.01,0.72,0.05,1.05,0.14c0.33,0.09,0.61,0.22,0.86,0.39c0.24,0.17,0.43,0.39,0.58,0.66
			c0.14,0.26,0.21,0.58,0.2,0.94c-0.01,0.36-0.08,0.67-0.23,0.93c-0.15,0.26-0.35,0.47-0.59,0.64c-0.25,0.17-0.54,0.29-0.87,0.37
			s-0.68,0.12-1.05,0.11l-1.38-0.02c-0.37-0.01-0.72-0.06-1.05-0.14c-0.33-0.09-0.62-0.22-0.86-0.39c-0.25-0.17-0.44-0.39-0.58-0.66
			c-0.14-0.26-0.21-0.57-0.2-0.93c0.01-0.36,0.08-0.67,0.23-0.93s0.35-0.47,0.6-0.64c0.25-0.17,0.54-0.29,0.87-0.37
			s0.68-0.11,1.05-0.11L221.06,11.84z M221.08,15.47c0.12,0,0.24,0,0.35-0.01l-2.66-3.03c-0.19,0.04-0.38,0.1-0.54,0.17
			c-0.17,0.07-0.31,0.17-0.44,0.29c-0.12,0.12-0.22,0.26-0.29,0.42c-0.07,0.16-0.11,0.35-0.11,0.57c0,0.28,0.05,0.52,0.17,0.72
			c0.12,0.2,0.27,0.36,0.47,0.48c0.2,0.12,0.43,0.22,0.69,0.28c0.26,0.06,0.53,0.09,0.82,0.09L221.08,15.47z M219.58,12.36
			c-0.1,0-0.2,0-0.3,0.01l2.66,3.02c0.19-0.04,0.37-0.1,0.53-0.18c0.16-0.08,0.3-0.17,0.42-0.29c0.12-0.12,0.21-0.25,0.28-0.41
			c0.07-0.16,0.1-0.35,0.11-0.55c0-0.28-0.05-0.52-0.17-0.72c-0.12-0.2-0.27-0.36-0.47-0.48c-0.2-0.12-0.43-0.21-0.69-0.27
			c-0.26-0.06-0.53-0.09-0.82-0.09L219.58,12.36z"/>
	</g>
	<g>
		<path class="st8" d="M363.96,46.21l-0.01,0.55l-5.94-0.09l0.76,1.85l-0.51-0.01l-0.92-2.32l0-0.08L363.96,46.21z"/>
		<path class="st8" d="M361.46,38.2c0.37,0.01,0.72,0.05,1.05,0.14s0.61,0.22,0.86,0.39s0.43,0.39,0.57,0.66
			c0.14,0.26,0.21,0.58,0.2,0.94c-0.01,0.36-0.08,0.67-0.23,0.93s-0.35,0.47-0.6,0.64c-0.25,0.17-0.54,0.29-0.87,0.37
			c-0.33,0.08-0.68,0.12-1.05,0.11l-1.38-0.02c-0.37-0.01-0.72-0.06-1.05-0.14c-0.33-0.09-0.62-0.22-0.86-0.39
			c-0.25-0.17-0.44-0.39-0.58-0.66c-0.14-0.26-0.21-0.57-0.2-0.93c0.01-0.36,0.08-0.67,0.23-0.93s0.35-0.47,0.6-0.64
			c0.25-0.17,0.54-0.29,0.87-0.37c0.33-0.08,0.68-0.11,1.05-0.11L361.46,38.2z M361.48,41.83c0.12,0,0.24,0,0.36-0.01l-2.66-3.03
			c-0.19,0.04-0.38,0.1-0.54,0.17c-0.17,0.07-0.31,0.17-0.44,0.29s-0.22,0.26-0.29,0.42s-0.11,0.35-0.11,0.57
			c0,0.28,0.05,0.52,0.17,0.72s0.27,0.36,0.47,0.48s0.43,0.22,0.69,0.27s0.53,0.09,0.82,0.1L361.48,41.83z M359.98,38.72
			c-0.1,0-0.2,0-0.3,0.01l2.66,3.02c0.19-0.04,0.36-0.1,0.53-0.18s0.3-0.17,0.42-0.29c0.12-0.12,0.21-0.25,0.28-0.41
			s0.11-0.34,0.11-0.55c0-0.28-0.05-0.52-0.17-0.72s-0.27-0.36-0.47-0.48s-0.43-0.21-0.69-0.27c-0.26-0.06-0.53-0.09-0.82-0.09
			L359.98,38.72z"/>
		<path class="st8" d="M363.76,34.2c-0.13,0-0.24-0.05-0.32-0.13c-0.09-0.09-0.13-0.2-0.13-0.34c0-0.15,0.05-0.26,0.14-0.34
			s0.2-0.12,0.33-0.12c0.13,0,0.23,0.04,0.31,0.13s0.12,0.2,0.12,0.35c0,0.14-0.05,0.25-0.13,0.34
			C363.99,34.16,363.89,34.2,363.76,34.2z"/>
		<path class="st8" d="M361.66,25.27c0.37,0.01,0.72,0.05,1.05,0.14c0.33,0.09,0.61,0.22,0.86,0.39s0.43,0.39,0.58,0.66
			c0.14,0.26,0.21,0.58,0.2,0.94c-0.01,0.36-0.08,0.67-0.23,0.93c-0.15,0.26-0.35,0.47-0.6,0.64c-0.25,0.17-0.54,0.29-0.87,0.37
			c-0.33,0.08-0.68,0.12-1.05,0.11l-1.38-0.02c-0.37-0.01-0.72-0.06-1.05-0.14c-0.33-0.09-0.62-0.22-0.86-0.39
			c-0.25-0.17-0.44-0.39-0.58-0.66c-0.14-0.26-0.21-0.57-0.2-0.93c0.01-0.36,0.08-0.67,0.23-0.93c0.15-0.26,0.35-0.47,0.6-0.64
			c0.25-0.17,0.54-0.29,0.87-0.37c0.33-0.08,0.68-0.11,1.05-0.11L361.66,25.27z M361.69,28.9c0.12,0,0.24,0,0.35-0.01l-2.66-3.03
			c-0.19,0.04-0.38,0.1-0.54,0.17c-0.17,0.07-0.31,0.17-0.44,0.29c-0.12,0.12-0.22,0.26-0.29,0.42c-0.07,0.16-0.11,0.35-0.11,0.57
			c0,0.28,0.05,0.52,0.17,0.72c0.11,0.2,0.27,0.36,0.47,0.48s0.43,0.22,0.69,0.28c0.26,0.06,0.53,0.09,0.82,0.09L361.69,28.9z
			 M360.18,25.8c-0.1,0-0.2,0-0.3,0.01l2.66,3.02c0.19-0.04,0.36-0.1,0.53-0.18c0.16-0.08,0.3-0.17,0.42-0.29
			c0.12-0.12,0.21-0.25,0.28-0.41c0.07-0.16,0.11-0.35,0.11-0.55c0-0.28-0.05-0.52-0.17-0.72c-0.12-0.2-0.27-0.36-0.47-0.48
			s-0.43-0.21-0.69-0.27s-0.53-0.09-0.82-0.1L360.18,25.8z"/>
		<path class="st8" d="M361.77,18.81c0.37,0.01,0.72,0.05,1.05,0.14c0.33,0.09,0.61,0.22,0.86,0.39c0.24,0.17,0.43,0.39,0.58,0.66
			c0.14,0.26,0.21,0.58,0.2,0.94c-0.01,0.36-0.08,0.67-0.23,0.93c-0.15,0.26-0.35,0.47-0.59,0.64c-0.25,0.17-0.54,0.29-0.87,0.37
			s-0.68,0.12-1.05,0.11l-1.38-0.02c-0.37-0.01-0.72-0.06-1.05-0.14c-0.33-0.09-0.62-0.22-0.86-0.39c-0.25-0.17-0.44-0.39-0.58-0.66
			c-0.14-0.26-0.21-0.57-0.2-0.93c0.01-0.36,0.08-0.67,0.23-0.93s0.35-0.47,0.6-0.64c0.25-0.17,0.54-0.29,0.87-0.37
			c0.33-0.08,0.68-0.11,1.05-0.11L361.77,18.81z M361.79,22.44c0.12,0,0.24,0,0.35-0.01l-2.66-3.03c-0.19,0.04-0.38,0.1-0.54,0.17
			s-0.31,0.17-0.44,0.29c-0.12,0.12-0.22,0.26-0.29,0.42s-0.11,0.35-0.11,0.57c0,0.28,0.05,0.52,0.17,0.72s0.27,0.36,0.47,0.48
			s0.43,0.22,0.69,0.28c0.26,0.06,0.53,0.09,0.82,0.09L361.79,22.44z M360.29,19.33c-0.1,0-0.2,0-0.3,0.01l2.66,3.02
			c0.19-0.04,0.36-0.1,0.53-0.18s0.3-0.17,0.42-0.29c0.12-0.12,0.21-0.25,0.28-0.41c0.07-0.16,0.11-0.35,0.11-0.55
			c0-0.28-0.05-0.52-0.17-0.72c-0.12-0.2-0.28-0.36-0.47-0.48s-0.43-0.21-0.69-0.27c-0.26-0.06-0.53-0.09-0.82-0.09L360.29,19.33z"
			/>
		<path class="st8" d="M361.87,12.35c0.37,0.01,0.72,0.05,1.05,0.14c0.33,0.09,0.61,0.22,0.86,0.39s0.43,0.39,0.58,0.66
			c0.14,0.26,0.21,0.58,0.2,0.94c0,0.36-0.08,0.67-0.23,0.93c-0.15,0.26-0.35,0.47-0.59,0.64c-0.25,0.17-0.54,0.29-0.87,0.37
			c-0.33,0.08-0.68,0.12-1.05,0.11l-1.38-0.02c-0.37-0.01-0.72-0.06-1.05-0.14c-0.33-0.09-0.62-0.22-0.86-0.39s-0.44-0.39-0.58-0.66
			c-0.14-0.26-0.21-0.57-0.2-0.93c0.01-0.36,0.08-0.67,0.23-0.93s0.35-0.47,0.6-0.64s0.54-0.29,0.87-0.37s0.68-0.12,1.05-0.11
			L361.87,12.35z M361.89,15.98c0.12,0,0.24,0,0.36-0.01l-2.66-3.03c-0.19,0.04-0.38,0.1-0.54,0.17c-0.17,0.07-0.31,0.17-0.44,0.29
			c-0.12,0.12-0.22,0.26-0.29,0.42c-0.07,0.16-0.11,0.35-0.11,0.57c0,0.28,0.05,0.52,0.17,0.72s0.27,0.36,0.47,0.48
			c0.2,0.12,0.43,0.21,0.69,0.27c0.26,0.06,0.53,0.09,0.82,0.09L361.89,15.98z M360.39,12.87c-0.1,0-0.2,0-0.3,0.01l2.66,3.02
			c0.19-0.04,0.36-0.1,0.53-0.18s0.3-0.17,0.42-0.29c0.12-0.12,0.21-0.25,0.28-0.41c0.07-0.16,0.11-0.35,0.11-0.55
			c0-0.28-0.05-0.52-0.17-0.72c-0.12-0.2-0.28-0.36-0.47-0.48s-0.43-0.21-0.69-0.27c-0.26-0.06-0.53-0.09-0.82-0.09L360.39,12.87z"
			/>
	</g>
	<g>
		<path class="st8" d="M503.45,46.78l-0.01,0.55l-5.94-0.09l0.76,1.85l-0.51-0.01l-0.92-2.32l0-0.08L503.45,46.78z"/>
		<path class="st8" d="M500.12,42.46l-3.23-0.37l0.05-3.31l0.53,0.01l-0.04,2.85l2.21,0.26c-0.11-0.17-0.2-0.36-0.26-0.57
			s-0.09-0.44-0.09-0.68c0-0.3,0.06-0.57,0.17-0.81c0.11-0.24,0.26-0.45,0.45-0.61c0.19-0.17,0.42-0.29,0.68-0.38
			c0.26-0.09,0.55-0.13,0.86-0.12c0.31,0,0.59,0.05,0.86,0.13c0.27,0.08,0.5,0.21,0.69,0.37c0.2,0.17,0.35,0.37,0.46,0.62
			c0.11,0.25,0.16,0.54,0.16,0.88c0,0.28-0.05,0.53-0.13,0.77c-0.09,0.23-0.21,0.44-0.37,0.61c-0.16,0.17-0.36,0.32-0.58,0.42
			c-0.23,0.11-0.49,0.17-0.78,0.2l0.01-0.53c0.22-0.02,0.41-0.07,0.58-0.15c0.17-0.08,0.32-0.18,0.44-0.3s0.21-0.27,0.28-0.45
			c0.06-0.17,0.1-0.37,0.1-0.58c0-0.24-0.04-0.45-0.12-0.63c-0.08-0.18-0.21-0.33-0.36-0.45s-0.34-0.21-0.55-0.27
			c-0.21-0.06-0.44-0.09-0.68-0.09c-0.23,0-0.45,0.03-0.65,0.09c-0.2,0.06-0.38,0.16-0.53,0.29c-0.15,0.13-0.27,0.29-0.36,0.47
			s-0.13,0.4-0.14,0.63c0,0.14,0,0.27,0.02,0.38s0.04,0.23,0.08,0.33c0.04,0.1,0.09,0.2,0.15,0.29c0.06,0.09,0.13,0.19,0.21,0.28
			L500.12,42.46z"/>
		<path class="st8" d="M503.26,34.76c-0.13,0-0.24-0.05-0.32-0.13c-0.09-0.09-0.13-0.2-0.13-0.34c0-0.15,0.05-0.26,0.14-0.34
			s0.2-0.12,0.33-0.12s0.23,0.05,0.31,0.13c0.08,0.09,0.12,0.2,0.12,0.35c0,0.14-0.05,0.26-0.13,0.34
			C503.49,34.73,503.38,34.77,503.26,34.76z"/>
		<path class="st8" d="M501.16,25.84c0.37,0.01,0.72,0.05,1.05,0.14c0.33,0.09,0.61,0.22,0.86,0.39s0.43,0.39,0.58,0.66
			c0.14,0.26,0.21,0.58,0.2,0.94c-0.01,0.36-0.08,0.67-0.23,0.93c-0.15,0.26-0.35,0.47-0.59,0.64c-0.25,0.17-0.54,0.29-0.87,0.37
			s-0.68,0.12-1.05,0.11l-1.38-0.02c-0.37-0.01-0.72-0.06-1.05-0.14s-0.62-0.22-0.86-0.39c-0.25-0.17-0.44-0.39-0.58-0.66
			c-0.14-0.26-0.21-0.57-0.2-0.93c0.01-0.36,0.08-0.67,0.23-0.93c0.15-0.26,0.35-0.47,0.6-0.64s0.54-0.29,0.87-0.37
			c0.33-0.08,0.68-0.11,1.05-0.11L501.16,25.84z M501.19,29.47c0.12,0,0.24,0,0.35-0.01l-2.66-3.03c-0.19,0.04-0.38,0.1-0.54,0.17
			c-0.17,0.07-0.31,0.17-0.44,0.29c-0.12,0.12-0.22,0.26-0.29,0.42s-0.11,0.35-0.11,0.57c0,0.28,0.05,0.52,0.17,0.72
			c0.12,0.2,0.27,0.36,0.47,0.48c0.2,0.12,0.43,0.22,0.69,0.27c0.26,0.06,0.53,0.09,0.82,0.09L501.19,29.47z M499.68,26.36
			c-0.1,0-0.2,0-0.3,0.01l2.66,3.02c0.19-0.04,0.36-0.1,0.53-0.18s0.3-0.17,0.42-0.29c0.12-0.12,0.21-0.26,0.28-0.42
			c0.07-0.16,0.11-0.34,0.11-0.55c0-0.28-0.05-0.52-0.17-0.72c-0.12-0.2-0.28-0.36-0.47-0.48c-0.2-0.12-0.43-0.21-0.69-0.27
			c-0.26-0.06-0.53-0.09-0.82-0.1L499.68,26.36z"/>
		<path class="st8" d="M501.27,19.38c0.37,0.01,0.72,0.05,1.05,0.14c0.33,0.09,0.61,0.22,0.86,0.39c0.24,0.17,0.43,0.39,0.57,0.66
			c0.14,0.26,0.21,0.58,0.2,0.94c0,0.36-0.08,0.67-0.23,0.93c-0.15,0.26-0.35,0.47-0.59,0.64c-0.25,0.17-0.54,0.29-0.87,0.37
			c-0.33,0.08-0.68,0.12-1.05,0.11l-1.38-0.02c-0.37-0.01-0.72-0.06-1.05-0.14s-0.62-0.22-0.86-0.39c-0.25-0.17-0.44-0.39-0.58-0.66
			c-0.14-0.26-0.21-0.57-0.2-0.93c0.01-0.36,0.08-0.67,0.23-0.93c0.15-0.26,0.35-0.47,0.6-0.64c0.25-0.17,0.54-0.29,0.87-0.37
			s0.68-0.11,1.05-0.11L501.27,19.38z M501.29,23.01c0.12,0,0.24,0,0.35-0.01l-2.66-3.03c-0.19,0.04-0.38,0.1-0.54,0.17
			c-0.17,0.07-0.31,0.17-0.44,0.29c-0.12,0.12-0.22,0.26-0.29,0.42c-0.07,0.16-0.11,0.35-0.11,0.57c0,0.28,0.05,0.52,0.17,0.72
			c0.12,0.2,0.27,0.36,0.47,0.48c0.2,0.12,0.43,0.22,0.69,0.27c0.26,0.06,0.53,0.09,0.82,0.09L501.29,23.01z M499.79,19.9
			c-0.1,0-0.2,0-0.3,0.01l2.66,3.02c0.19-0.04,0.36-0.1,0.53-0.18s0.3-0.17,0.42-0.29c0.12-0.12,0.21-0.26,0.28-0.42
			s0.11-0.34,0.11-0.55c0-0.28-0.05-0.52-0.17-0.72c-0.12-0.2-0.27-0.36-0.47-0.48s-0.43-0.21-0.69-0.27
			c-0.26-0.06-0.53-0.09-0.82-0.09L499.79,19.9z"/>
		<path class="st8" d="M501.37,12.92c0.37,0.01,0.72,0.05,1.05,0.14c0.33,0.09,0.61,0.22,0.86,0.39s0.43,0.39,0.57,0.66
			c0.14,0.26,0.21,0.58,0.2,0.94c-0.01,0.36-0.08,0.67-0.23,0.93c-0.15,0.26-0.35,0.47-0.59,0.64c-0.25,0.17-0.54,0.29-0.87,0.37
			c-0.33,0.08-0.68,0.12-1.05,0.11l-1.38-0.02c-0.37-0.01-0.72-0.06-1.05-0.14c-0.33-0.09-0.62-0.22-0.86-0.39s-0.44-0.39-0.58-0.66
			c-0.14-0.26-0.21-0.57-0.2-0.93c0-0.36,0.08-0.67,0.23-0.93c0.15-0.26,0.35-0.47,0.6-0.64s0.54-0.29,0.87-0.37
			s0.68-0.12,1.05-0.11L501.37,12.92z M501.39,16.55c0.12,0,0.24,0,0.35-0.01l-2.66-3.03c-0.19,0.04-0.38,0.1-0.54,0.17
			c-0.17,0.07-0.31,0.17-0.44,0.29c-0.12,0.12-0.22,0.26-0.29,0.42c-0.07,0.16-0.11,0.35-0.11,0.57c0,0.28,0.05,0.52,0.17,0.72
			c0.12,0.2,0.27,0.36,0.47,0.48c0.2,0.12,0.43,0.21,0.69,0.27c0.26,0.06,0.53,0.09,0.82,0.1L501.39,16.55z M499.89,13.44
			c-0.1,0-0.2,0-0.3,0.01l2.66,3.02c0.19-0.04,0.36-0.1,0.53-0.18c0.16-0.08,0.3-0.17,0.42-0.29c0.12-0.12,0.21-0.26,0.28-0.42
			s0.11-0.34,0.11-0.55c0-0.28-0.05-0.52-0.17-0.72s-0.27-0.36-0.47-0.48s-0.43-0.21-0.69-0.27c-0.26-0.06-0.53-0.09-0.82-0.09
			L499.89,13.44z"/>
	</g>
</g>
<path class="st3" d="M72.99,307.51L72.99,307.51 M72.99,11.23L72.99,11.23"/>
<path class="st3" d="M128.93,307.51L128.93,307.51 M128.93,11.23L128.93,11.23"/>
<path class="st3" d="M184.48,307.51L184.48,307.51 M184.48,11.23L184.48,11.23"/>
<path class="st3" d="M240.03,307.51L240.03,307.51 M240.03,11.23L240.03,11.23"/>
<path class="st3" d="M296.75,307.51L296.75,307.51 M296.75,11.23L296.75,11.23"/>
<path class="st3" d="M352.69,307.51L352.69,307.51 M352.69,11.23L352.69,11.23"/>
<path class="st3" d="M408.63,307.51L408.63,307.51 M408.63,11.23L408.63,11.23"/>
<path class="st3" d="M464.18,307.51L464.18,307.51 M464.18,11.23L464.18,11.23"/>
<path class="st3" d="M520.12,307.51L520.12,307.51 M520.12,11.23L520.12,11.23"/>
<path class="st3" d="M576.26,307.51L576.26,307.51 M576.26,11.23L576.26,11.23"/>
<g class="st4">
	<line class="st5" x1="72.86" y1="11.49" x2="72.75" y2="302.86"/>
	<line class="st5" x1="100.78" y1="11.51" x2="100.67" y2="302.88"/>
	<line class="st5" x1="128.7" y1="11.53" x2="128.59" y2="302.9"/>
	<line class="st5" x1="156.62" y1="11.55" x2="156.51" y2="302.92"/>
	<line class="st5" x1="184.54" y1="11.57" x2="184.42" y2="302.93"/>
	<line class="st5" x1="212.46" y1="11.59" x2="212.34" y2="302.95"/>
	<line class="st5" x1="268.3" y1="11.6" x2="268.18" y2="302.97"/>
	<line class="st5" x1="379.98" y1="11.62" x2="379.86" y2="302.99"/>
	<line class="st5" x1="296.22" y1="11.64" x2="296.1" y2="303.01"/>
	<line class="st5" x1="324.14" y1="11.68" x2="324.02" y2="303.05"/>
	<line class="st5" x1="352.06" y1="11.72" x2="351.94" y2="303.08"/>
	<line class="st5" x1="407.9" y1="11.66" x2="407.78" y2="303.03"/>
	<line class="st5" x1="240.38" y1="11.7" x2="240.26" y2="303.07"/>
	<line class="st5" x1="435.82" y1="11.74" x2="435.7" y2="303.1"/>
	<line class="st5" x1="463.74" y1="11.75" x2="463.62" y2="303.12"/>
	<line class="st5" x1="491.66" y1="11.77" x2="491.54" y2="303.14"/>
	<line class="st5" x1="519.58" y1="11.77" x2="519.46" y2="303.14"/>
</g>
<line class="st9" x1="72.79" y1="299.74" x2="547" y2="299.74"/>
<g>
	<path class="st7" d="M560.82,302.79h-0.84v-5.55l-1.73,0.66v-0.77l2.51-0.96h0.07V302.79z"/>
	<path class="st7" d="M564.85,299.47l0.33-3.3h3.4v0.82h-2.69l-0.19,1.77c0.13-0.07,0.29-0.14,0.47-0.2
		c0.18-0.06,0.39-0.09,0.63-0.09c0.31,0,0.58,0.05,0.82,0.16c0.24,0.11,0.45,0.26,0.62,0.45c0.17,0.19,0.3,0.43,0.39,0.7
		c0.09,0.27,0.14,0.58,0.14,0.91c0,0.31-0.04,0.61-0.13,0.88c-0.08,0.27-0.21,0.5-0.38,0.7c-0.17,0.2-0.39,0.35-0.65,0.46
		c-0.26,0.11-0.57,0.17-0.92,0.17c-0.27,0-0.52-0.04-0.76-0.11c-0.24-0.08-0.45-0.19-0.64-0.34c-0.19-0.15-0.34-0.34-0.46-0.57
		c-0.12-0.23-0.2-0.5-0.23-0.8h0.8c0.05,0.38,0.19,0.66,0.42,0.86c0.23,0.19,0.52,0.29,0.87,0.29c0.2,0,0.38-0.04,0.53-0.11
		c0.15-0.07,0.28-0.17,0.39-0.3c0.11-0.13,0.18-0.29,0.24-0.48c0.05-0.18,0.08-0.39,0.08-0.62c0-0.21-0.03-0.4-0.09-0.58
		c-0.06-0.18-0.15-0.33-0.26-0.47c-0.11-0.13-0.25-0.23-0.41-0.31s-0.35-0.11-0.56-0.11c-0.14,0-0.26,0.01-0.36,0.03
		c-0.1,0.02-0.19,0.05-0.28,0.08c-0.08,0.04-0.16,0.08-0.23,0.13c-0.07,0.05-0.14,0.11-0.22,0.18L564.85,299.47z"/>
	<path class="st7" d="M572.48,302.25c0-0.09,0.01-0.18,0.04-0.26c0.03-0.08,0.07-0.15,0.12-0.21s0.12-0.11,0.21-0.14
		s0.18-0.05,0.29-0.05s0.21,0.02,0.29,0.05s0.15,0.08,0.21,0.14c0.06,0.06,0.1,0.13,0.13,0.21s0.04,0.16,0.04,0.26
		c0,0.09-0.02,0.17-0.04,0.25c-0.03,0.08-0.07,0.14-0.13,0.2c-0.06,0.06-0.12,0.1-0.21,0.13s-0.18,0.05-0.29,0.05
		s-0.21-0.02-0.29-0.05s-0.15-0.08-0.21-0.13c-0.05-0.06-0.1-0.12-0.12-0.2C572.5,302.42,572.48,302.34,572.48,302.25z"/>
	<path class="st7" d="M578.38,302.05c0.3,0,0.56-0.03,0.79-0.08c0.23-0.05,0.43-0.13,0.59-0.22s0.31-0.21,0.42-0.34
		c0.11-0.13,0.2-0.28,0.28-0.44c0.07-0.16,0.12-0.33,0.16-0.51c0.03-0.18,0.05-0.36,0.06-0.54c-0.07,0.09-0.16,0.18-0.25,0.26
		c-0.09,0.08-0.2,0.15-0.32,0.21c-0.12,0.06-0.25,0.11-0.39,0.14s-0.3,0.05-0.47,0.05c-0.33,0-0.61-0.06-0.85-0.19
		s-0.43-0.3-0.59-0.51c-0.15-0.21-0.27-0.45-0.34-0.71c-0.07-0.27-0.11-0.53-0.11-0.8c0-0.31,0.04-0.61,0.13-0.89
		s0.21-0.52,0.39-0.73c0.17-0.21,0.39-0.37,0.64-0.5c0.26-0.12,0.55-0.18,0.89-0.18c0.25,0,0.48,0.04,0.69,0.11
		c0.21,0.07,0.38,0.17,0.54,0.29c0.16,0.13,0.29,0.28,0.4,0.45c0.11,0.17,0.2,0.36,0.28,0.55s0.12,0.41,0.16,0.62
		s0.05,0.44,0.05,0.65v0.3c0,0.28-0.01,0.57-0.04,0.87c-0.03,0.29-0.08,0.58-0.16,0.86c-0.08,0.28-0.19,0.54-0.34,0.78
		c-0.14,0.24-0.33,0.46-0.57,0.64c-0.23,0.18-0.52,0.33-0.85,0.43s-0.73,0.16-1.19,0.16h-0.09v-0.75H578.38z M579.39,299.88
		c0.14,0,0.28-0.03,0.42-0.07s0.26-0.11,0.37-0.2c0.11-0.09,0.22-0.19,0.3-0.3c0.09-0.12,0.16-0.25,0.21-0.39v-0.27
		c0-0.29-0.04-0.56-0.1-0.79s-0.16-0.43-0.28-0.58c-0.12-0.16-0.25-0.28-0.4-0.37c-0.15-0.08-0.32-0.13-0.49-0.13
		c-0.2,0-0.37,0.04-0.52,0.12c-0.15,0.08-0.28,0.19-0.38,0.33c-0.1,0.14-0.18,0.3-0.24,0.49s-0.08,0.39-0.08,0.61
		c0,0.2,0.02,0.38,0.07,0.57c0.05,0.19,0.12,0.35,0.22,0.5c0.1,0.15,0.22,0.26,0.37,0.35S579.19,299.88,579.39,299.88z"/>
	<path class="st7" d="M584.84,302.05c0.3,0,0.56-0.03,0.79-0.08c0.23-0.05,0.43-0.13,0.59-0.22s0.31-0.21,0.42-0.34
		c0.11-0.13,0.2-0.28,0.28-0.44c0.07-0.16,0.12-0.33,0.16-0.51s0.05-0.36,0.06-0.54c-0.07,0.09-0.16,0.18-0.25,0.26
		c-0.09,0.08-0.2,0.15-0.32,0.21c-0.12,0.06-0.25,0.11-0.39,0.14c-0.14,0.04-0.3,0.05-0.47,0.05c-0.33,0-0.61-0.06-0.85-0.19
		c-0.24-0.13-0.44-0.3-0.59-0.51c-0.16-0.21-0.27-0.45-0.34-0.71c-0.07-0.27-0.11-0.53-0.11-0.8c0-0.31,0.04-0.61,0.13-0.89
		s0.22-0.52,0.39-0.73c0.17-0.21,0.39-0.37,0.64-0.5c0.26-0.12,0.55-0.18,0.89-0.18c0.26,0,0.49,0.04,0.69,0.11
		c0.2,0.07,0.39,0.17,0.54,0.29c0.16,0.13,0.29,0.28,0.4,0.45c0.11,0.17,0.2,0.36,0.28,0.55s0.12,0.41,0.16,0.62
		c0.03,0.22,0.05,0.44,0.05,0.65v0.3c0,0.28-0.01,0.57-0.04,0.87c-0.03,0.29-0.08,0.58-0.16,0.86c-0.08,0.28-0.19,0.54-0.34,0.78
		c-0.15,0.24-0.34,0.46-0.57,0.64c-0.23,0.18-0.52,0.33-0.85,0.43s-0.73,0.16-1.19,0.16h-0.09v-0.75H584.84z M585.85,299.88
		c0.14,0,0.28-0.03,0.42-0.07c0.14-0.05,0.26-0.11,0.37-0.2c0.11-0.09,0.21-0.19,0.3-0.3c0.09-0.12,0.16-0.25,0.21-0.39v-0.27
		c0-0.29-0.03-0.56-0.1-0.79s-0.16-0.43-0.28-0.58c-0.12-0.16-0.25-0.28-0.41-0.37c-0.15-0.08-0.32-0.13-0.49-0.13
		c-0.2,0-0.37,0.04-0.52,0.12c-0.15,0.08-0.28,0.19-0.38,0.33s-0.18,0.3-0.24,0.49s-0.08,0.39-0.08,0.61c0,0.2,0.03,0.38,0.07,0.57
		c0.05,0.19,0.12,0.35,0.22,0.5c0.1,0.15,0.22,0.26,0.37,0.35S585.65,299.88,585.85,299.88z"/>
	<path class="st7" d="M590.7,299.47l0.33-3.3h3.4v0.82h-2.69l-0.19,1.77c0.13-0.07,0.29-0.14,0.47-0.2
		c0.18-0.06,0.39-0.09,0.63-0.09c0.31,0,0.58,0.05,0.82,0.16c0.24,0.11,0.45,0.26,0.62,0.45c0.17,0.19,0.3,0.43,0.39,0.7
		c0.09,0.27,0.14,0.58,0.14,0.91c0,0.31-0.04,0.61-0.13,0.88c-0.08,0.27-0.21,0.5-0.38,0.7c-0.17,0.2-0.39,0.35-0.65,0.46
		c-0.26,0.11-0.57,0.17-0.92,0.17c-0.27,0-0.53-0.04-0.76-0.11c-0.24-0.08-0.45-0.19-0.64-0.34c-0.19-0.15-0.34-0.34-0.46-0.57
		s-0.19-0.5-0.23-0.8h0.8c0.05,0.38,0.19,0.66,0.42,0.86c0.23,0.19,0.52,0.29,0.87,0.29c0.2,0,0.38-0.04,0.53-0.11
		c0.15-0.07,0.28-0.17,0.39-0.3c0.1-0.13,0.18-0.29,0.24-0.48c0.05-0.18,0.08-0.39,0.08-0.62c0-0.21-0.03-0.4-0.09-0.58
		c-0.06-0.18-0.15-0.33-0.26-0.47c-0.11-0.13-0.25-0.23-0.41-0.31s-0.35-0.11-0.56-0.11c-0.14,0-0.26,0.01-0.36,0.03
		c-0.1,0.02-0.19,0.05-0.28,0.08c-0.08,0.04-0.16,0.08-0.23,0.13c-0.07,0.05-0.15,0.11-0.22,0.18L590.7,299.47z"/>
</g>
<line class="st9" x1="72.79" y1="268.38" x2="394" y2="268.38"/>
<g>
	<g>
		<path class="st7" d="M407.74,272.42h-0.84v-5.55l-1.73,0.66v-0.77l2.51-0.96h0.07V272.42z"/>
		<path class="st7" d="M414.2,272.42h-0.84v-5.55l-1.73,0.66v-0.77l2.51-0.96h0.07V272.42z"/>
		<path class="st7" d="M419.39,271.88c0-0.09,0.01-0.18,0.04-0.26c0.03-0.08,0.07-0.15,0.12-0.21s0.12-0.11,0.21-0.14
			s0.18-0.05,0.29-0.05s0.21,0.02,0.29,0.05s0.15,0.08,0.21,0.14c0.06,0.06,0.1,0.13,0.13,0.21s0.04,0.16,0.04,0.26
			c0,0.09-0.02,0.17-0.04,0.25c-0.03,0.08-0.07,0.14-0.13,0.2c-0.06,0.06-0.12,0.1-0.21,0.13s-0.18,0.05-0.29,0.05
			s-0.21-0.02-0.29-0.05s-0.15-0.08-0.21-0.13c-0.05-0.06-0.1-0.12-0.12-0.2C419.41,272.05,419.39,271.96,419.39,271.88z"/>
		<path class="st7" d="M424.69,269.1l0.33-3.3h3.4v0.82h-2.69l-0.19,1.77c0.13-0.07,0.29-0.14,0.47-0.2
			c0.18-0.06,0.39-0.09,0.63-0.09c0.31,0,0.58,0.05,0.82,0.16c0.24,0.11,0.45,0.26,0.62,0.45c0.17,0.19,0.3,0.43,0.39,0.7
			c0.09,0.27,0.14,0.58,0.14,0.91c0,0.31-0.04,0.61-0.13,0.88c-0.08,0.27-0.21,0.5-0.38,0.7c-0.17,0.2-0.39,0.35-0.65,0.46
			c-0.26,0.11-0.57,0.17-0.92,0.17c-0.27,0-0.53-0.04-0.76-0.11c-0.24-0.08-0.45-0.19-0.64-0.34c-0.19-0.15-0.34-0.34-0.46-0.57
			s-0.19-0.5-0.23-0.8h0.8c0.05,0.38,0.19,0.66,0.42,0.86c0.23,0.19,0.52,0.29,0.87,0.29c0.2,0,0.38-0.04,0.53-0.11
			c0.15-0.07,0.28-0.17,0.39-0.3c0.1-0.13,0.18-0.29,0.24-0.48c0.05-0.18,0.08-0.39,0.08-0.62c0-0.21-0.03-0.4-0.09-0.58
			c-0.06-0.18-0.15-0.33-0.26-0.47c-0.11-0.13-0.25-0.23-0.41-0.31s-0.35-0.11-0.56-0.11c-0.14,0-0.26,0.01-0.36,0.03
			c-0.1,0.02-0.19,0.05-0.28,0.08c-0.08,0.04-0.16,0.08-0.23,0.13c-0.07,0.05-0.15,0.11-0.22,0.18L424.69,269.1z"/>
		<path class="st7" d="M433.96,265.79v0.76h-0.07c-0.28,0-0.53,0.03-0.75,0.09c-0.22,0.06-0.41,0.14-0.58,0.24
			c-0.17,0.1-0.31,0.22-0.43,0.36c-0.12,0.14-0.22,0.29-0.3,0.45c-0.08,0.16-0.14,0.33-0.18,0.51s-0.07,0.36-0.08,0.55
			c0.08-0.1,0.17-0.18,0.27-0.26c0.1-0.08,0.21-0.15,0.33-0.21c0.12-0.06,0.25-0.11,0.39-0.14c0.14-0.04,0.28-0.05,0.44-0.05
			c0.33,0,0.62,0.06,0.86,0.19c0.24,0.13,0.44,0.29,0.59,0.5c0.15,0.21,0.27,0.44,0.34,0.7c0.07,0.26,0.11,0.53,0.11,0.8
			c0,0.31-0.04,0.6-0.13,0.88c-0.09,0.27-0.21,0.51-0.39,0.72c-0.17,0.21-0.39,0.37-0.64,0.48c-0.26,0.12-0.55,0.18-0.89,0.18
			c-0.24,0-0.46-0.04-0.66-0.11c-0.2-0.07-0.38-0.16-0.54-0.28c-0.16-0.12-0.3-0.26-0.41-0.43c-0.12-0.16-0.22-0.34-0.29-0.53
			c-0.08-0.19-0.14-0.38-0.17-0.59c-0.04-0.2-0.06-0.41-0.06-0.61v-0.4c0-0.3,0.02-0.61,0.06-0.91s0.1-0.6,0.19-0.88
			c0.09-0.28,0.21-0.54,0.37-0.79s0.35-0.46,0.58-0.63c0.23-0.18,0.52-0.32,0.84-0.42c0.32-0.1,0.7-0.15,1.14-0.15H433.96z
			 M432.86,268.78c-0.14,0-0.28,0.02-0.41,0.07c-0.13,0.05-0.26,0.11-0.37,0.19c-0.12,0.08-0.22,0.18-0.31,0.3s-0.16,0.24-0.21,0.38
			V270c0,0.29,0.04,0.55,0.11,0.78c0.07,0.23,0.16,0.42,0.28,0.57s0.25,0.27,0.41,0.35c0.16,0.08,0.32,0.12,0.49,0.12
			c0.2,0,0.37-0.04,0.52-0.11s0.28-0.18,0.38-0.31c0.1-0.13,0.18-0.29,0.24-0.48c0.05-0.19,0.08-0.39,0.08-0.61
			c0-0.19-0.02-0.38-0.07-0.57c-0.05-0.18-0.12-0.35-0.22-0.49s-0.23-0.26-0.38-0.34C433.24,268.82,433.06,268.78,432.86,268.78z"/>
		<path class="st7" d="M441.51,266.27l-2.75,6.15h-0.88l2.74-5.89h-3.59v-0.74h4.48V266.27z"/>
	</g>
</g>
<line class="st9" x1="72.79" y1="237.18" x2="255" y2="237.18"/>
<g>
	<g>
		<path class="st7" d="M269.65,234.59v0.76h-0.07c-0.28,0-0.53,0.03-0.75,0.09c-0.22,0.06-0.41,0.14-0.58,0.24
			c-0.17,0.1-0.31,0.22-0.43,0.36c-0.12,0.14-0.22,0.29-0.3,0.45c-0.08,0.16-0.14,0.33-0.18,0.51c-0.04,0.18-0.07,0.36-0.08,0.55
			c0.08-0.1,0.17-0.18,0.27-0.26c0.1-0.08,0.21-0.15,0.33-0.21c0.12-0.06,0.25-0.11,0.39-0.14s0.28-0.05,0.43-0.05
			c0.33,0,0.62,0.06,0.86,0.19c0.24,0.13,0.44,0.29,0.59,0.5c0.15,0.21,0.27,0.44,0.34,0.7c0.07,0.26,0.11,0.53,0.11,0.8
			c0,0.31-0.04,0.6-0.13,0.88c-0.09,0.27-0.22,0.51-0.39,0.72c-0.17,0.21-0.39,0.37-0.64,0.48s-0.55,0.18-0.89,0.18
			c-0.24,0-0.46-0.04-0.66-0.11c-0.2-0.07-0.38-0.16-0.53-0.28c-0.16-0.12-0.3-0.26-0.42-0.43s-0.22-0.34-0.29-0.53
			c-0.08-0.19-0.13-0.38-0.17-0.59s-0.06-0.41-0.06-0.61v-0.4c0-0.3,0.02-0.61,0.06-0.91c0.04-0.3,0.1-0.6,0.19-0.88
			c0.09-0.28,0.21-0.54,0.37-0.79c0.16-0.24,0.35-0.46,0.59-0.63c0.23-0.18,0.51-0.32,0.84-0.42c0.32-0.1,0.7-0.15,1.14-0.15H269.65
			z M268.55,237.58c-0.14,0-0.28,0.02-0.42,0.07c-0.13,0.05-0.26,0.11-0.37,0.19c-0.12,0.08-0.22,0.18-0.31,0.3
			s-0.16,0.24-0.21,0.38v0.28c0,0.29,0.04,0.55,0.11,0.78c0.07,0.23,0.16,0.42,0.28,0.57c0.12,0.15,0.26,0.27,0.41,0.35
			c0.15,0.08,0.32,0.12,0.49,0.12c0.2,0,0.37-0.04,0.52-0.11c0.15-0.08,0.28-0.18,0.38-0.31c0.11-0.13,0.18-0.29,0.24-0.48
			c0.05-0.19,0.08-0.39,0.08-0.61c0-0.19-0.02-0.38-0.07-0.57s-0.12-0.35-0.22-0.49c-0.1-0.14-0.23-0.26-0.38-0.34
			C268.93,237.62,268.75,237.58,268.55,237.58z"/>
		<path class="st7" d="M274.47,240.68c0-0.09,0.01-0.18,0.04-0.26c0.03-0.08,0.07-0.15,0.12-0.21s0.12-0.11,0.21-0.14
			s0.18-0.05,0.29-0.05s0.21,0.02,0.29,0.05s0.15,0.08,0.21,0.14c0.06,0.06,0.1,0.13,0.13,0.21s0.04,0.16,0.04,0.26
			c0,0.09-0.02,0.17-0.04,0.25c-0.03,0.08-0.07,0.14-0.13,0.2c-0.06,0.06-0.12,0.1-0.21,0.13s-0.18,0.05-0.29,0.05
			s-0.21-0.02-0.29-0.05s-0.15-0.08-0.21-0.13c-0.05-0.06-0.1-0.12-0.12-0.2C274.49,240.85,274.47,240.77,274.47,240.68z"/>
		<path class="st7" d="M279.77,237.9l0.33-3.3h3.4v0.82h-2.69l-0.19,1.77c0.13-0.07,0.29-0.14,0.47-0.2
			c0.18-0.06,0.39-0.09,0.63-0.09c0.31,0,0.58,0.05,0.82,0.16c0.24,0.11,0.45,0.26,0.62,0.45c0.17,0.19,0.3,0.43,0.39,0.7
			c0.09,0.27,0.14,0.58,0.14,0.91c0,0.31-0.04,0.61-0.13,0.88c-0.08,0.27-0.21,0.5-0.38,0.7c-0.17,0.2-0.39,0.35-0.65,0.46
			c-0.26,0.11-0.57,0.17-0.92,0.17c-0.27,0-0.52-0.04-0.76-0.11c-0.24-0.08-0.45-0.19-0.64-0.34c-0.19-0.15-0.34-0.34-0.46-0.57
			c-0.12-0.23-0.2-0.5-0.23-0.8h0.8c0.05,0.38,0.19,0.66,0.42,0.86c0.23,0.19,0.52,0.29,0.87,0.29c0.2,0,0.38-0.04,0.53-0.11
			c0.15-0.07,0.28-0.17,0.39-0.3c0.11-0.13,0.18-0.29,0.24-0.48c0.05-0.18,0.08-0.39,0.08-0.62c0-0.21-0.03-0.4-0.09-0.58
			c-0.06-0.18-0.15-0.33-0.26-0.47c-0.11-0.13-0.25-0.23-0.41-0.31s-0.35-0.11-0.56-0.11c-0.14,0-0.26,0.01-0.36,0.03
			c-0.1,0.02-0.19,0.05-0.28,0.08c-0.08,0.04-0.16,0.08-0.23,0.13c-0.07,0.05-0.14,0.11-0.22,0.18L279.77,237.9z"/>
		<path class="st7" d="M286.92,237.51h0.6c0.21,0,0.4-0.03,0.56-0.09c0.16-0.06,0.3-0.14,0.41-0.24c0.11-0.1,0.2-0.22,0.25-0.36
			c0.06-0.14,0.09-0.29,0.09-0.46c0-0.38-0.1-0.68-0.3-0.87c-0.2-0.2-0.49-0.29-0.87-0.29c-0.18,0-0.34,0.03-0.49,0.08
			c-0.15,0.05-0.27,0.13-0.38,0.23c-0.1,0.1-0.19,0.22-0.24,0.36c-0.06,0.14-0.09,0.29-0.09,0.47h-0.85c0-0.25,0.05-0.49,0.15-0.71
			s0.24-0.42,0.42-0.58c0.18-0.17,0.39-0.3,0.64-0.39c0.25-0.1,0.53-0.14,0.83-0.14c0.3,0,0.57,0.04,0.82,0.12
			c0.25,0.08,0.46,0.2,0.63,0.36c0.18,0.16,0.31,0.35,0.41,0.59c0.1,0.23,0.15,0.5,0.15,0.81c0,0.13-0.02,0.26-0.06,0.4
			c-0.04,0.14-0.1,0.27-0.18,0.4c-0.08,0.13-0.19,0.25-0.32,0.36c-0.13,0.12-0.28,0.21-0.46,0.29c0.21,0.07,0.39,0.16,0.54,0.27
			c0.14,0.11,0.26,0.24,0.35,0.38c0.09,0.14,0.15,0.29,0.18,0.44c0.03,0.15,0.05,0.31,0.05,0.46c0,0.31-0.05,0.58-0.16,0.82
			c-0.11,0.24-0.25,0.44-0.44,0.61s-0.41,0.29-0.67,0.38c-0.26,0.09-0.53,0.13-0.83,0.13c-0.29,0-0.57-0.04-0.82-0.12
			s-0.48-0.2-0.67-0.36s-0.34-0.35-0.45-0.58c-0.11-0.23-0.17-0.49-0.17-0.78h0.84c0,0.17,0.03,0.33,0.09,0.47s0.14,0.26,0.25,0.36
			s0.24,0.18,0.4,0.23s0.33,0.08,0.52,0.08c0.19,0,0.36-0.03,0.52-0.08c0.16-0.05,0.29-0.12,0.4-0.23s0.19-0.23,0.25-0.38
			c0.06-0.15,0.09-0.34,0.09-0.54c0-0.21-0.03-0.38-0.1-0.54s-0.16-0.28-0.29-0.38s-0.27-0.17-0.45-0.22
			c-0.17-0.05-0.37-0.07-0.58-0.07h-0.6V237.51z"/>
		<path class="st7" d="M295.5,234.59v0.76h-0.07c-0.28,0-0.53,0.03-0.75,0.09c-0.22,0.06-0.41,0.14-0.58,0.24
			c-0.17,0.1-0.31,0.22-0.43,0.36c-0.12,0.14-0.22,0.29-0.3,0.45c-0.08,0.16-0.14,0.33-0.18,0.51c-0.04,0.18-0.07,0.36-0.08,0.55
			c0.08-0.1,0.17-0.18,0.27-0.26c0.1-0.08,0.21-0.15,0.33-0.21c0.12-0.06,0.25-0.11,0.39-0.14c0.14-0.04,0.28-0.05,0.43-0.05
			c0.33,0,0.62,0.06,0.86,0.19c0.24,0.13,0.44,0.29,0.59,0.5c0.16,0.21,0.27,0.44,0.34,0.7c0.07,0.26,0.11,0.53,0.11,0.8
			c0,0.31-0.04,0.6-0.13,0.88c-0.09,0.27-0.22,0.51-0.39,0.72s-0.39,0.37-0.64,0.48c-0.26,0.12-0.55,0.18-0.89,0.18
			c-0.24,0-0.46-0.04-0.66-0.11c-0.2-0.07-0.38-0.16-0.53-0.28c-0.16-0.12-0.3-0.26-0.42-0.43c-0.12-0.16-0.22-0.34-0.29-0.53
			c-0.08-0.19-0.14-0.38-0.18-0.59c-0.04-0.2-0.06-0.41-0.06-0.61v-0.4c0-0.3,0.02-0.61,0.06-0.91s0.1-0.6,0.19-0.88
			c0.09-0.28,0.21-0.54,0.37-0.79s0.35-0.46,0.58-0.63c0.24-0.18,0.51-0.32,0.84-0.42c0.33-0.1,0.7-0.15,1.14-0.15H295.5z
			 M294.4,237.58c-0.14,0-0.28,0.02-0.42,0.07c-0.13,0.05-0.26,0.11-0.37,0.19s-0.22,0.18-0.3,0.3s-0.16,0.24-0.21,0.38v0.28
			c0,0.29,0.03,0.55,0.1,0.78c0.07,0.23,0.16,0.42,0.28,0.57c0.12,0.15,0.25,0.27,0.41,0.35c0.15,0.08,0.32,0.12,0.49,0.12
			c0.2,0,0.37-0.04,0.52-0.11c0.15-0.08,0.28-0.18,0.38-0.31c0.11-0.13,0.18-0.29,0.24-0.48c0.05-0.19,0.08-0.39,0.08-0.61
			c0-0.19-0.02-0.38-0.07-0.57c-0.05-0.18-0.12-0.35-0.22-0.49s-0.23-0.26-0.38-0.34C294.78,237.62,294.6,237.58,294.4,237.58z"/>
	</g>
</g>
<line class="st9" x1="72.79" y1="206.31" x2="201" y2="206.31"/>
<g>
	<g>
		<path class="st7" d="M216.81,207.8h0.92v0.69h-0.92v1.54h-0.84v-1.54h-3.02v-0.5l2.97-4.59h0.9V207.8z M213.88,207.8h2.09v-3.28
			l-0.14,0.25L213.88,207.8z"/>
		<path class="st7" d="M221.33,209.48c0-0.09,0.01-0.18,0.04-0.26c0.03-0.08,0.07-0.15,0.13-0.21s0.12-0.11,0.2-0.14
			c0.08-0.03,0.18-0.05,0.29-0.05s0.21,0.02,0.29,0.05c0.08,0.03,0.15,0.08,0.21,0.14c0.06,0.06,0.1,0.13,0.13,0.21
			c0.03,0.08,0.04,0.16,0.04,0.26c0,0.09-0.01,0.17-0.04,0.25c-0.03,0.08-0.07,0.14-0.13,0.2c-0.06,0.06-0.13,0.1-0.21,0.13
			c-0.08,0.03-0.18,0.05-0.29,0.05s-0.21-0.02-0.29-0.05c-0.08-0.03-0.15-0.08-0.2-0.13c-0.05-0.06-0.1-0.12-0.13-0.2
			C221.34,209.65,221.33,209.57,221.33,209.48z"/>
		<path class="st7" d="M229.43,203.4v0.76h-0.07c-0.28,0-0.53,0.03-0.75,0.09c-0.22,0.06-0.41,0.14-0.58,0.24
			c-0.17,0.1-0.31,0.22-0.43,0.36c-0.12,0.14-0.22,0.29-0.3,0.45c-0.08,0.16-0.14,0.33-0.18,0.51c-0.04,0.18-0.07,0.36-0.08,0.55
			c0.08-0.1,0.17-0.18,0.27-0.26c0.1-0.08,0.21-0.15,0.33-0.21c0.12-0.06,0.25-0.11,0.39-0.14c0.14-0.04,0.28-0.05,0.43-0.05
			c0.33,0,0.62,0.06,0.86,0.19c0.24,0.13,0.44,0.29,0.59,0.5c0.15,0.21,0.27,0.44,0.34,0.7c0.07,0.26,0.11,0.53,0.11,0.8
			c0,0.31-0.04,0.6-0.13,0.88c-0.09,0.27-0.22,0.51-0.39,0.72c-0.17,0.21-0.39,0.37-0.64,0.48s-0.55,0.18-0.89,0.18
			c-0.24,0-0.46-0.04-0.66-0.11c-0.2-0.07-0.38-0.16-0.54-0.28c-0.16-0.12-0.3-0.26-0.41-0.43s-0.22-0.34-0.29-0.53
			c-0.08-0.19-0.14-0.38-0.17-0.59c-0.04-0.2-0.06-0.41-0.06-0.61v-0.4c0-0.3,0.02-0.61,0.06-0.91c0.04-0.3,0.1-0.6,0.19-0.88
			c0.09-0.28,0.21-0.54,0.37-0.79c0.16-0.24,0.35-0.46,0.58-0.63c0.24-0.18,0.52-0.32,0.84-0.42c0.33-0.1,0.7-0.15,1.14-0.15H229.43
			z M228.33,206.38c-0.14,0-0.28,0.02-0.41,0.07c-0.13,0.05-0.26,0.11-0.37,0.19s-0.22,0.18-0.31,0.3
			c-0.09,0.12-0.16,0.24-0.21,0.38v0.28c0,0.29,0.04,0.55,0.1,0.78c0.07,0.23,0.16,0.42,0.28,0.57s0.25,0.27,0.41,0.35
			c0.15,0.08,0.32,0.12,0.49,0.12c0.2,0,0.37-0.04,0.52-0.11c0.15-0.08,0.28-0.18,0.38-0.31c0.1-0.13,0.18-0.29,0.24-0.48
			c0.05-0.19,0.08-0.39,0.08-0.61c0-0.19-0.02-0.38-0.07-0.57s-0.12-0.35-0.22-0.49c-0.1-0.14-0.23-0.26-0.38-0.34
			C228.71,206.43,228.53,206.38,228.33,206.38z"/>
		<path class="st7" d="M236.2,207.8h0.92v0.69h-0.92v1.54h-0.84v-1.54h-3.02v-0.5l2.97-4.59h0.9V207.8z M233.27,207.8h2.09v-3.28
			l-0.14,0.25L233.27,207.8z"/>
		<path class="st7" d="M243.45,203.88l-2.75,6.15h-0.88l2.74-5.89h-3.59v-0.74h4.48V203.88z"/>
	</g>
</g>
<line class="st9" x1="72.79" y1="175.11" x2="161" y2="175.11"/>
<g>
	<g>
		<path class="st7" d="M173.07,175.12h0.6c0.21,0,0.4-0.03,0.56-0.09c0.16-0.06,0.3-0.14,0.41-0.24c0.11-0.1,0.19-0.22,0.25-0.36
			c0.06-0.14,0.09-0.29,0.09-0.46c0-0.38-0.1-0.68-0.3-0.87c-0.2-0.2-0.49-0.29-0.87-0.29c-0.18,0-0.34,0.03-0.49,0.08
			s-0.27,0.13-0.38,0.23c-0.1,0.1-0.19,0.22-0.24,0.36c-0.06,0.14-0.09,0.29-0.09,0.47h-0.85c0-0.25,0.05-0.49,0.15-0.71
			s0.24-0.42,0.42-0.58c0.18-0.17,0.39-0.3,0.64-0.39c0.25-0.1,0.53-0.14,0.83-0.14c0.3,0,0.57,0.04,0.82,0.12
			c0.25,0.08,0.46,0.2,0.63,0.36c0.18,0.16,0.31,0.35,0.41,0.59c0.1,0.23,0.15,0.5,0.15,0.81c0,0.13-0.02,0.26-0.06,0.4
			c-0.04,0.14-0.1,0.27-0.18,0.4s-0.19,0.25-0.32,0.36c-0.13,0.12-0.28,0.21-0.46,0.29c0.22,0.07,0.4,0.16,0.54,0.27
			c0.14,0.11,0.26,0.24,0.35,0.38c0.09,0.14,0.15,0.29,0.18,0.44c0.04,0.15,0.05,0.31,0.05,0.46c0,0.31-0.05,0.58-0.16,0.82
			s-0.25,0.44-0.44,0.61c-0.19,0.17-0.41,0.29-0.67,0.38c-0.26,0.09-0.53,0.13-0.83,0.13c-0.29,0-0.57-0.04-0.82-0.12
			c-0.26-0.08-0.48-0.2-0.67-0.36c-0.19-0.16-0.34-0.35-0.45-0.58c-0.11-0.23-0.17-0.49-0.17-0.78h0.84c0,0.17,0.03,0.33,0.09,0.47
			c0.06,0.14,0.14,0.26,0.25,0.36s0.24,0.18,0.4,0.23s0.33,0.08,0.52,0.08s0.36-0.03,0.52-0.08c0.16-0.05,0.29-0.12,0.4-0.23
			s0.19-0.23,0.25-0.38c0.06-0.15,0.09-0.34,0.09-0.54c0-0.21-0.03-0.38-0.1-0.54s-0.16-0.28-0.29-0.38s-0.27-0.17-0.45-0.22
			s-0.37-0.07-0.58-0.07h-0.6V175.12z"/>
		<path class="st7" d="M180.01,178.29c0-0.09,0.01-0.18,0.04-0.26c0.03-0.08,0.07-0.15,0.13-0.21s0.12-0.11,0.2-0.14
			c0.08-0.03,0.18-0.05,0.29-0.05s0.21,0.02,0.29,0.05c0.08,0.03,0.15,0.08,0.21,0.14c0.06,0.06,0.1,0.13,0.13,0.21
			c0.03,0.08,0.04,0.16,0.04,0.26c0,0.09-0.01,0.17-0.04,0.25c-0.03,0.08-0.07,0.14-0.13,0.2c-0.06,0.06-0.13,0.1-0.21,0.13
			c-0.08,0.03-0.18,0.05-0.29,0.05s-0.21-0.02-0.29-0.05c-0.08-0.03-0.15-0.08-0.2-0.13c-0.05-0.06-0.1-0.12-0.13-0.2
			C180.03,178.46,180.01,178.38,180.01,178.29z"/>
		<path class="st7" d="M187.74,178.83h-0.84v-5.55l-1.73,0.66v-0.77l2.51-0.96h0.07V178.83z"/>
		<path class="st7" d="M192.38,178.09c0.3,0,0.56-0.03,0.79-0.08s0.43-0.13,0.59-0.22c0.17-0.1,0.31-0.21,0.42-0.34
			c0.11-0.13,0.2-0.28,0.28-0.44c0.07-0.16,0.12-0.33,0.16-0.51c0.03-0.18,0.05-0.36,0.06-0.54c-0.07,0.09-0.16,0.18-0.25,0.26
			c-0.09,0.08-0.2,0.15-0.32,0.21s-0.25,0.11-0.39,0.14c-0.14,0.04-0.3,0.05-0.47,0.05c-0.33,0-0.61-0.06-0.85-0.19
			s-0.43-0.3-0.59-0.51c-0.15-0.21-0.27-0.45-0.34-0.71c-0.07-0.27-0.11-0.53-0.11-0.8c0-0.31,0.04-0.61,0.13-0.89
			c0.09-0.28,0.22-0.52,0.39-0.73c0.17-0.21,0.38-0.37,0.64-0.5s0.55-0.18,0.89-0.18c0.25,0,0.48,0.04,0.69,0.11
			c0.21,0.07,0.39,0.17,0.54,0.29c0.16,0.13,0.29,0.28,0.4,0.45c0.11,0.17,0.2,0.36,0.28,0.55s0.12,0.41,0.16,0.62
			c0.03,0.22,0.05,0.44,0.05,0.65v0.3c0,0.28-0.01,0.57-0.04,0.87c-0.03,0.29-0.08,0.58-0.16,0.86c-0.08,0.28-0.19,0.54-0.34,0.78
			s-0.33,0.46-0.57,0.64c-0.23,0.18-0.52,0.33-0.85,0.43c-0.33,0.11-0.73,0.16-1.19,0.16h-0.09v-0.75H192.38z M193.38,175.92
			c0.14,0,0.28-0.03,0.42-0.07c0.13-0.05,0.26-0.11,0.37-0.2c0.11-0.09,0.21-0.19,0.3-0.3c0.09-0.12,0.16-0.25,0.21-0.39v-0.27
			c0-0.29-0.03-0.56-0.1-0.79s-0.16-0.43-0.28-0.58c-0.12-0.16-0.25-0.28-0.41-0.37c-0.15-0.08-0.32-0.13-0.49-0.13
			c-0.2,0-0.37,0.04-0.52,0.12c-0.15,0.08-0.28,0.19-0.38,0.33c-0.11,0.14-0.18,0.3-0.24,0.49s-0.08,0.39-0.08,0.61
			c0,0.2,0.02,0.38,0.07,0.57c0.05,0.19,0.12,0.35,0.22,0.5c0.1,0.15,0.22,0.26,0.37,0.35S193.18,175.92,193.38,175.92z"/>
		<path class="st7" d="M202.01,173.94c0,0.33-0.09,0.62-0.27,0.88c-0.18,0.26-0.41,0.46-0.71,0.61c0.17,0.07,0.32,0.16,0.46,0.27
			c0.14,0.11,0.26,0.23,0.35,0.37c0.1,0.14,0.17,0.29,0.23,0.46c0.05,0.16,0.08,0.34,0.08,0.52c0,0.3-0.06,0.57-0.17,0.8
			c-0.11,0.23-0.26,0.43-0.45,0.59c-0.19,0.16-0.41,0.28-0.67,0.37c-0.25,0.08-0.53,0.12-0.82,0.12c-0.3,0-0.57-0.04-0.83-0.12
			c-0.26-0.08-0.48-0.2-0.67-0.36c-0.19-0.16-0.34-0.36-0.45-0.59c-0.11-0.23-0.16-0.5-0.16-0.81c0-0.19,0.03-0.36,0.08-0.53
			s0.13-0.32,0.22-0.46c0.1-0.14,0.21-0.26,0.35-0.37s0.29-0.2,0.46-0.27c-0.15-0.07-0.28-0.16-0.4-0.26s-0.22-0.21-0.3-0.34
			c-0.08-0.12-0.15-0.26-0.19-0.41c-0.05-0.15-0.07-0.3-0.07-0.47c0-0.29,0.05-0.54,0.15-0.77c0.1-0.23,0.23-0.42,0.4-0.57
			c0.17-0.16,0.38-0.27,0.62-0.36s0.5-0.12,0.78-0.12c0.28,0,0.54,0.04,0.78,0.12c0.24,0.08,0.45,0.2,0.62,0.36
			c0.18,0.15,0.31,0.34,0.41,0.57C201.96,173.39,202.01,173.65,202.01,173.94z M201.32,177.03c0-0.19-0.03-0.36-0.09-0.51
			s-0.15-0.29-0.26-0.4s-0.25-0.2-0.4-0.26s-0.33-0.09-0.51-0.09c-0.19,0-0.36,0.03-0.52,0.09c-0.15,0.06-0.29,0.15-0.4,0.26
			s-0.19,0.24-0.25,0.4s-0.09,0.32-0.09,0.51c0,0.19,0.03,0.36,0.09,0.51s0.14,0.28,0.25,0.38s0.24,0.18,0.4,0.24
			s0.33,0.08,0.53,0.08c0.19,0,0.36-0.03,0.51-0.08c0.16-0.05,0.29-0.13,0.4-0.24c0.11-0.1,0.2-0.23,0.26-0.38
			S201.32,177.22,201.32,177.03z M201.16,173.95c0-0.17-0.03-0.32-0.08-0.46c-0.06-0.14-0.13-0.26-0.23-0.36
			c-0.1-0.1-0.22-0.18-0.35-0.24c-0.14-0.05-0.29-0.08-0.45-0.08s-0.31,0.03-0.45,0.08c-0.13,0.05-0.25,0.13-0.35,0.23
			c-0.1,0.1-0.17,0.22-0.23,0.36c-0.05,0.14-0.08,0.3-0.08,0.47c0,0.17,0.03,0.33,0.08,0.47c0.05,0.14,0.13,0.26,0.23,0.36
			c0.1,0.1,0.22,0.17,0.35,0.23c0.14,0.05,0.29,0.08,0.45,0.08c0.16,0,0.31-0.03,0.45-0.08c0.14-0.05,0.25-0.13,0.35-0.23
			c0.1-0.1,0.17-0.22,0.23-0.36S201.16,174.12,201.16,173.95z"/>
	</g>
</g>
<line class="st9" x1="72.79" y1="143.59" x2="138" y2="143.59"/>
<g>
	<g>
		<path class="st7" d="M152.84,147.64h-4.34v-0.61l2.17-2.41c0.19-0.21,0.36-0.41,0.49-0.57c0.13-0.17,0.24-0.32,0.31-0.46
			c0.08-0.14,0.13-0.28,0.17-0.4c0.03-0.13,0.05-0.26,0.05-0.39c0-0.16-0.03-0.32-0.08-0.46c-0.05-0.14-0.13-0.27-0.23-0.38
			c-0.1-0.11-0.22-0.19-0.37-0.25c-0.14-0.06-0.31-0.09-0.49-0.09c-0.22,0-0.41,0.03-0.58,0.1c-0.16,0.06-0.3,0.15-0.41,0.27
			s-0.19,0.26-0.24,0.43c-0.05,0.17-0.08,0.35-0.08,0.56h-0.85c0-0.28,0.05-0.54,0.15-0.79c0.1-0.25,0.24-0.46,0.42-0.65
			s0.41-0.33,0.67-0.44c0.26-0.11,0.57-0.16,0.91-0.16c0.31,0,0.59,0.05,0.84,0.14c0.25,0.09,0.46,0.22,0.64,0.38
			c0.17,0.16,0.31,0.36,0.4,0.58c0.09,0.22,0.14,0.47,0.14,0.73c0,0.2-0.03,0.39-0.1,0.58s-0.16,0.38-0.27,0.57
			c-0.11,0.19-0.25,0.37-0.4,0.56s-0.31,0.37-0.48,0.55l-1.78,1.93h3.33V147.64z"/>
		<path class="st7" d="M156.7,147.09c0-0.09,0.01-0.18,0.04-0.26c0.03-0.08,0.07-0.15,0.13-0.21s0.12-0.11,0.2-0.14
			c0.08-0.03,0.18-0.05,0.29-0.05s0.21,0.02,0.29,0.05c0.08,0.03,0.15,0.08,0.21,0.14c0.06,0.06,0.1,0.13,0.13,0.21
			c0.03,0.08,0.04,0.16,0.04,0.26c0,0.09-0.01,0.17-0.04,0.25c-0.03,0.08-0.07,0.14-0.13,0.2c-0.06,0.06-0.13,0.1-0.21,0.13
			c-0.08,0.03-0.18,0.05-0.29,0.05s-0.21-0.02-0.29-0.05c-0.08-0.03-0.15-0.08-0.2-0.13c-0.05-0.06-0.1-0.12-0.13-0.2
			C156.72,147.26,156.7,147.18,156.7,147.09z"/>
		<path class="st7" d="M162.68,143.92h0.6c0.21,0,0.4-0.03,0.56-0.09c0.16-0.06,0.3-0.14,0.41-0.24c0.11-0.1,0.19-0.22,0.25-0.36
			c0.06-0.14,0.09-0.29,0.09-0.46c0-0.38-0.1-0.68-0.3-0.87c-0.2-0.2-0.49-0.29-0.87-0.29c-0.18,0-0.34,0.03-0.49,0.08
			s-0.27,0.13-0.38,0.23c-0.1,0.1-0.19,0.22-0.24,0.36c-0.06,0.14-0.09,0.29-0.09,0.47h-0.85c0-0.25,0.05-0.49,0.15-0.71
			s0.24-0.42,0.42-0.58c0.18-0.17,0.39-0.3,0.64-0.39c0.25-0.1,0.53-0.14,0.83-0.14c0.3,0,0.57,0.04,0.82,0.12
			c0.25,0.08,0.46,0.2,0.63,0.36c0.18,0.16,0.31,0.35,0.41,0.59c0.1,0.23,0.15,0.5,0.15,0.81c0,0.13-0.02,0.26-0.06,0.4
			c-0.04,0.14-0.1,0.27-0.18,0.4s-0.19,0.25-0.32,0.36c-0.13,0.12-0.28,0.21-0.46,0.29c0.22,0.07,0.4,0.16,0.54,0.27
			c0.14,0.11,0.26,0.24,0.35,0.38c0.09,0.14,0.15,0.29,0.18,0.44c0.04,0.15,0.05,0.31,0.05,0.46c0,0.31-0.05,0.58-0.16,0.82
			s-0.25,0.44-0.44,0.61c-0.19,0.17-0.41,0.29-0.67,0.38c-0.26,0.09-0.53,0.13-0.83,0.13c-0.29,0-0.57-0.04-0.82-0.12
			c-0.26-0.08-0.48-0.2-0.67-0.36c-0.19-0.16-0.34-0.35-0.45-0.58c-0.11-0.23-0.17-0.49-0.17-0.78h0.84c0,0.17,0.03,0.33,0.09,0.47
			c0.06,0.14,0.14,0.26,0.25,0.36s0.24,0.18,0.4,0.23s0.33,0.08,0.52,0.08s0.36-0.03,0.52-0.08c0.16-0.05,0.29-0.12,0.4-0.23
			s0.19-0.23,0.25-0.38c0.06-0.15,0.09-0.34,0.09-0.54c0-0.21-0.03-0.38-0.1-0.54s-0.16-0.28-0.29-0.38s-0.27-0.17-0.45-0.22
			s-0.37-0.07-0.58-0.07h-0.6V143.92z"/>
		<path class="st7" d="M168.46,144.31l0.33-3.3h3.4v0.82h-2.69l-0.19,1.77c0.13-0.07,0.29-0.14,0.47-0.2
			c0.18-0.06,0.39-0.09,0.63-0.09c0.31,0,0.58,0.05,0.82,0.16c0.24,0.11,0.45,0.26,0.62,0.45c0.17,0.19,0.3,0.43,0.39,0.7
			c0.09,0.27,0.14,0.58,0.14,0.91c0,0.31-0.04,0.61-0.13,0.88c-0.08,0.27-0.21,0.5-0.38,0.7c-0.17,0.2-0.39,0.35-0.65,0.46
			c-0.26,0.11-0.57,0.17-0.92,0.17c-0.27,0-0.52-0.04-0.76-0.11c-0.24-0.08-0.45-0.19-0.64-0.34s-0.34-0.34-0.46-0.57
			c-0.12-0.23-0.19-0.5-0.22-0.8h0.8c0.05,0.38,0.19,0.66,0.42,0.86c0.23,0.19,0.52,0.29,0.87,0.29c0.2,0,0.38-0.04,0.53-0.11
			c0.15-0.07,0.28-0.17,0.39-0.3c0.11-0.13,0.18-0.29,0.24-0.48c0.05-0.18,0.08-0.39,0.08-0.62c0-0.21-0.03-0.4-0.09-0.58
			c-0.06-0.18-0.15-0.33-0.26-0.47c-0.11-0.13-0.25-0.23-0.41-0.31s-0.35-0.11-0.56-0.11c-0.14,0-0.26,0.01-0.36,0.03
			s-0.19,0.05-0.28,0.08c-0.08,0.04-0.16,0.08-0.23,0.13c-0.07,0.05-0.15,0.11-0.22,0.18L168.46,144.31z"/>
		<path class="st7" d="M177.73,141v0.76h-0.07c-0.28,0-0.53,0.03-0.75,0.09c-0.22,0.06-0.41,0.14-0.58,0.24
			c-0.17,0.1-0.31,0.22-0.43,0.36c-0.12,0.14-0.22,0.29-0.3,0.45c-0.08,0.16-0.14,0.33-0.18,0.51c-0.04,0.18-0.07,0.36-0.08,0.55
			c0.08-0.1,0.17-0.18,0.27-0.26c0.1-0.08,0.21-0.15,0.33-0.21c0.12-0.06,0.25-0.11,0.39-0.14c0.14-0.04,0.28-0.05,0.43-0.05
			c0.33,0,0.62,0.06,0.86,0.19c0.24,0.13,0.44,0.29,0.59,0.5c0.15,0.21,0.27,0.44,0.34,0.7c0.07,0.26,0.11,0.53,0.11,0.8
			c0,0.31-0.04,0.6-0.13,0.88c-0.09,0.27-0.22,0.51-0.39,0.72c-0.17,0.21-0.39,0.37-0.64,0.48s-0.55,0.18-0.89,0.18
			c-0.24,0-0.46-0.04-0.66-0.11c-0.2-0.07-0.38-0.16-0.54-0.28c-0.16-0.12-0.3-0.26-0.41-0.43s-0.22-0.34-0.29-0.53
			c-0.08-0.19-0.14-0.38-0.17-0.59c-0.04-0.2-0.06-0.41-0.06-0.61v-0.4c0-0.3,0.02-0.61,0.06-0.91c0.04-0.3,0.1-0.6,0.19-0.88
			c0.09-0.28,0.21-0.54,0.37-0.79c0.16-0.24,0.35-0.46,0.58-0.63c0.24-0.18,0.52-0.32,0.84-0.42c0.33-0.1,0.7-0.15,1.14-0.15H177.73
			z M176.62,143.99c-0.14,0-0.28,0.02-0.41,0.07c-0.13,0.05-0.26,0.11-0.37,0.19s-0.22,0.18-0.31,0.3
			c-0.09,0.12-0.16,0.24-0.21,0.38v0.28c0,0.29,0.04,0.55,0.1,0.78c0.07,0.23,0.16,0.42,0.28,0.57s0.25,0.27,0.41,0.35
			c0.15,0.08,0.32,0.12,0.49,0.12c0.2,0,0.37-0.04,0.52-0.11c0.15-0.08,0.28-0.18,0.38-0.31c0.1-0.13,0.18-0.29,0.24-0.48
			c0.05-0.19,0.08-0.39,0.08-0.61c0-0.19-0.02-0.38-0.07-0.57s-0.12-0.35-0.22-0.49c-0.1-0.14-0.23-0.26-0.38-0.34
			C177.01,144.03,176.83,143.99,176.62,143.99z"/>
	</g>
</g>
<line class="st9" x1="72.79" y1="112.72" x2="136" y2="112.72"/>
<g>
	<g>
		<path class="st7" d="M150.03,116.44h-4.34v-0.61l2.17-2.41c0.19-0.21,0.36-0.41,0.49-0.57c0.13-0.17,0.24-0.32,0.31-0.46
			c0.08-0.14,0.13-0.28,0.17-0.4c0.03-0.13,0.05-0.26,0.05-0.39c0-0.16-0.03-0.32-0.08-0.46c-0.05-0.14-0.13-0.27-0.23-0.38
			c-0.1-0.11-0.22-0.19-0.37-0.25c-0.14-0.06-0.31-0.09-0.49-0.09c-0.22,0-0.41,0.03-0.58,0.1c-0.16,0.06-0.3,0.15-0.41,0.27
			s-0.19,0.26-0.24,0.43c-0.05,0.17-0.08,0.35-0.08,0.56h-0.85c0-0.28,0.05-0.54,0.15-0.79c0.1-0.25,0.24-0.46,0.42-0.65
			s0.41-0.33,0.67-0.44c0.26-0.11,0.57-0.16,0.91-0.16c0.31,0,0.59,0.05,0.84,0.14c0.25,0.09,0.46,0.22,0.64,0.38
			c0.17,0.16,0.31,0.36,0.4,0.58c0.09,0.22,0.14,0.47,0.14,0.73c0,0.2-0.03,0.39-0.1,0.58s-0.16,0.38-0.27,0.57
			c-0.11,0.19-0.25,0.37-0.4,0.56s-0.31,0.37-0.48,0.55l-1.78,1.93h3.33V116.44z"/>
		<path class="st7" d="M153.9,115.9c0-0.09,0.01-0.18,0.04-0.26c0.03-0.08,0.07-0.15,0.13-0.21s0.12-0.11,0.2-0.14
			c0.08-0.03,0.18-0.05,0.29-0.05s0.21,0.02,0.29,0.05c0.08,0.03,0.15,0.08,0.21,0.14c0.06,0.06,0.1,0.13,0.13,0.21
			c0.03,0.08,0.04,0.16,0.04,0.26c0,0.09-0.01,0.17-0.04,0.25c-0.03,0.08-0.07,0.14-0.13,0.2c-0.06,0.06-0.13,0.1-0.21,0.13
			c-0.08,0.03-0.18,0.05-0.29,0.05s-0.21-0.02-0.29-0.05c-0.08-0.03-0.15-0.08-0.2-0.13c-0.05-0.06-0.1-0.12-0.13-0.2
			C153.91,116.07,153.9,115.98,153.9,115.9z"/>
		<path class="st7" d="M162.96,116.44h-4.34v-0.61l2.17-2.41c0.19-0.21,0.36-0.41,0.49-0.57c0.13-0.17,0.24-0.32,0.31-0.46
			c0.08-0.14,0.13-0.28,0.17-0.4c0.03-0.13,0.05-0.26,0.05-0.39c0-0.16-0.03-0.32-0.08-0.46c-0.05-0.14-0.13-0.27-0.23-0.38
			c-0.1-0.11-0.22-0.19-0.37-0.25c-0.14-0.06-0.31-0.09-0.49-0.09c-0.22,0-0.41,0.03-0.58,0.1c-0.16,0.06-0.3,0.15-0.41,0.27
			s-0.19,0.26-0.24,0.43c-0.05,0.17-0.08,0.35-0.08,0.56h-0.85c0-0.28,0.05-0.54,0.15-0.79c0.1-0.25,0.24-0.46,0.42-0.65
			s0.41-0.33,0.67-0.44c0.26-0.11,0.57-0.16,0.91-0.16c0.31,0,0.59,0.05,0.84,0.14c0.25,0.09,0.46,0.22,0.64,0.38
			c0.17,0.16,0.31,0.36,0.4,0.58c0.09,0.22,0.14,0.47,0.14,0.73c0,0.2-0.03,0.39-0.1,0.58s-0.16,0.38-0.27,0.57
			c-0.11,0.19-0.25,0.37-0.4,0.56s-0.31,0.37-0.48,0.55l-1.78,1.93h3.33V116.44z"/>
		<path class="st7" d="M165.65,113.12l0.33-3.3h3.4v0.82h-2.69l-0.19,1.77c0.13-0.07,0.29-0.14,0.47-0.2
			c0.18-0.06,0.39-0.09,0.63-0.09c0.31,0,0.58,0.05,0.82,0.16c0.24,0.11,0.45,0.26,0.62,0.45c0.17,0.19,0.3,0.43,0.39,0.7
			c0.09,0.27,0.14,0.58,0.14,0.91c0,0.31-0.04,0.61-0.13,0.88c-0.08,0.27-0.21,0.5-0.38,0.7c-0.17,0.2-0.39,0.35-0.65,0.46
			c-0.26,0.11-0.57,0.17-0.92,0.17c-0.27,0-0.52-0.04-0.76-0.11c-0.24-0.08-0.45-0.19-0.64-0.34s-0.34-0.34-0.46-0.57
			c-0.12-0.23-0.19-0.5-0.22-0.8h0.8c0.05,0.38,0.19,0.66,0.42,0.86c0.23,0.19,0.52,0.29,0.87,0.29c0.2,0,0.38-0.04,0.53-0.11
			c0.15-0.07,0.28-0.17,0.39-0.3c0.11-0.13,0.18-0.29,0.24-0.48c0.05-0.18,0.08-0.39,0.08-0.62c0-0.21-0.03-0.4-0.09-0.58
			c-0.06-0.18-0.15-0.33-0.26-0.47c-0.11-0.13-0.25-0.23-0.41-0.31s-0.35-0.11-0.56-0.11c-0.14,0-0.26,0.01-0.36,0.03
			s-0.19,0.05-0.28,0.08c-0.08,0.04-0.16,0.08-0.23,0.13c-0.07,0.05-0.15,0.11-0.22,0.18L165.65,113.12z"/>
		<path class="st7" d="M175.23,114.21h0.92v0.69h-0.92v1.54h-0.84v-1.54h-3.02v-0.5l2.97-4.59h0.9V114.21z M172.3,114.21h2.09v-3.28
			l-0.14,0.25L172.3,114.21z"/>
	</g>
</g>
<line class="st9" x1="72.79" y1="81.36" x2="119" y2="81.36"/>
<g>
	<g>
		<path class="st7" d="M132.86,85.25h-0.84v-5.55l-1.73,0.66v-0.77l2.51-0.96h0.07V85.25z"/>
		<path class="st7" d="M138.05,84.7c0-0.09,0.01-0.18,0.04-0.25c0.03-0.08,0.07-0.15,0.13-0.21s0.12-0.11,0.2-0.14
			c0.08-0.03,0.18-0.05,0.29-0.05s0.21,0.02,0.29,0.05c0.08,0.03,0.15,0.08,0.21,0.14c0.06,0.06,0.1,0.13,0.13,0.21
			c0.03,0.08,0.04,0.16,0.04,0.25c0,0.09-0.01,0.17-0.04,0.25c-0.03,0.08-0.07,0.14-0.13,0.2c-0.06,0.06-0.13,0.1-0.21,0.13
			c-0.08,0.03-0.18,0.05-0.29,0.05s-0.21-0.02-0.29-0.05c-0.08-0.03-0.15-0.08-0.2-0.13c-0.05-0.06-0.1-0.12-0.13-0.2
			C138.07,84.87,138.05,84.79,138.05,84.7z"/>
		<path class="st7" d="M146.15,78.61v0.76h-0.07c-0.28,0-0.53,0.03-0.75,0.09s-0.41,0.14-0.58,0.24c-0.17,0.1-0.31,0.22-0.43,0.36
			c-0.12,0.14-0.22,0.29-0.3,0.45s-0.14,0.34-0.18,0.51c-0.04,0.18-0.07,0.36-0.08,0.55c0.08-0.09,0.17-0.18,0.27-0.26
			s0.21-0.15,0.33-0.21c0.12-0.06,0.25-0.11,0.39-0.14c0.14-0.03,0.28-0.05,0.43-0.05c0.33,0,0.62,0.06,0.86,0.19
			c0.24,0.13,0.44,0.29,0.59,0.5c0.15,0.21,0.27,0.44,0.34,0.7c0.07,0.26,0.11,0.53,0.11,0.8c0,0.31-0.04,0.6-0.13,0.87
			c-0.09,0.27-0.22,0.51-0.39,0.72c-0.17,0.21-0.39,0.37-0.64,0.49s-0.55,0.18-0.89,0.18c-0.24,0-0.46-0.03-0.66-0.1
			c-0.2-0.07-0.38-0.17-0.54-0.29c-0.16-0.12-0.3-0.26-0.41-0.43s-0.22-0.34-0.29-0.53c-0.08-0.19-0.14-0.38-0.17-0.59
			c-0.04-0.2-0.06-0.41-0.06-0.61v-0.4c0-0.3,0.02-0.61,0.06-0.91c0.04-0.31,0.1-0.6,0.19-0.88c0.09-0.28,0.21-0.54,0.37-0.79
			c0.16-0.24,0.35-0.46,0.58-0.63c0.24-0.18,0.52-0.32,0.84-0.42c0.33-0.1,0.7-0.15,1.14-0.15H146.15z M145.05,81.6
			c-0.14,0-0.28,0.02-0.41,0.07c-0.13,0.04-0.26,0.11-0.37,0.19c-0.12,0.08-0.22,0.18-0.31,0.3c-0.09,0.12-0.16,0.24-0.21,0.38v0.28
			c0,0.29,0.04,0.55,0.1,0.78c0.07,0.23,0.16,0.42,0.28,0.57c0.12,0.16,0.25,0.27,0.41,0.35c0.15,0.08,0.32,0.12,0.49,0.12
			c0.2,0,0.37-0.04,0.52-0.11c0.15-0.08,0.28-0.18,0.38-0.31c0.1-0.13,0.18-0.29,0.24-0.48c0.05-0.19,0.08-0.39,0.08-0.61
			c0-0.19-0.02-0.38-0.07-0.57s-0.12-0.35-0.22-0.49c-0.1-0.14-0.23-0.26-0.38-0.34C145.43,81.64,145.25,81.6,145.05,81.6z"/>
		<path class="st7" d="M150.49,81.53h0.6c0.21,0,0.4-0.03,0.56-0.09c0.16-0.06,0.3-0.14,0.41-0.24c0.11-0.1,0.19-0.22,0.25-0.36
			c0.06-0.14,0.09-0.29,0.09-0.46c0-0.39-0.1-0.68-0.3-0.87s-0.49-0.29-0.87-0.29c-0.18,0-0.34,0.03-0.49,0.08s-0.27,0.13-0.38,0.23
			c-0.1,0.1-0.19,0.22-0.24,0.36c-0.06,0.14-0.09,0.3-0.09,0.47h-0.85c0-0.25,0.05-0.49,0.15-0.71c0.1-0.22,0.24-0.42,0.42-0.58
			c0.18-0.17,0.39-0.29,0.64-0.39c0.25-0.1,0.53-0.14,0.83-0.14c0.3,0,0.57,0.04,0.82,0.12c0.25,0.08,0.46,0.2,0.63,0.36
			c0.18,0.16,0.31,0.35,0.41,0.59c0.1,0.23,0.15,0.5,0.15,0.81c0,0.13-0.02,0.26-0.06,0.4c-0.04,0.14-0.1,0.27-0.18,0.4
			s-0.19,0.25-0.32,0.36s-0.28,0.21-0.46,0.28c0.22,0.07,0.4,0.16,0.54,0.27c0.14,0.11,0.26,0.24,0.35,0.38
			c0.09,0.14,0.15,0.29,0.18,0.44c0.04,0.15,0.05,0.31,0.05,0.46c0,0.31-0.05,0.58-0.16,0.82c-0.11,0.24-0.25,0.44-0.44,0.61
			c-0.19,0.17-0.41,0.29-0.67,0.38c-0.26,0.09-0.53,0.13-0.83,0.13c-0.29,0-0.57-0.04-0.82-0.12c-0.26-0.08-0.48-0.2-0.67-0.36
			c-0.19-0.16-0.34-0.35-0.45-0.58c-0.11-0.23-0.17-0.49-0.17-0.78h0.84c0,0.17,0.03,0.33,0.09,0.47c0.06,0.14,0.14,0.26,0.25,0.36
			s0.24,0.18,0.4,0.23s0.33,0.08,0.52,0.08s0.36-0.03,0.52-0.08c0.16-0.05,0.29-0.13,0.4-0.23c0.11-0.1,0.19-0.23,0.25-0.38
			c0.06-0.15,0.09-0.33,0.09-0.54c0-0.21-0.03-0.38-0.1-0.54s-0.16-0.28-0.29-0.38s-0.27-0.17-0.45-0.22
			c-0.17-0.05-0.37-0.07-0.58-0.07h-0.6V81.53z"/>
		<path class="st7" d="M160.04,85.25h-4.34v-0.61l2.17-2.41c0.19-0.22,0.36-0.41,0.49-0.57c0.13-0.17,0.24-0.32,0.31-0.46
			c0.08-0.14,0.13-0.27,0.17-0.4c0.03-0.13,0.05-0.26,0.05-0.39c0-0.16-0.03-0.32-0.08-0.46s-0.13-0.27-0.23-0.38
			c-0.1-0.11-0.22-0.19-0.37-0.25c-0.14-0.06-0.31-0.09-0.49-0.09c-0.22,0-0.41,0.03-0.58,0.1c-0.16,0.06-0.3,0.15-0.41,0.27
			c-0.11,0.12-0.19,0.26-0.24,0.43c-0.05,0.17-0.08,0.35-0.08,0.56h-0.85c0-0.28,0.05-0.54,0.15-0.79c0.1-0.25,0.24-0.46,0.42-0.65
			s0.41-0.33,0.67-0.44c0.26-0.11,0.57-0.16,0.91-0.16c0.31,0,0.59,0.05,0.84,0.14c0.25,0.09,0.46,0.22,0.64,0.38
			c0.17,0.16,0.31,0.36,0.4,0.58c0.09,0.22,0.14,0.47,0.14,0.73c0,0.2-0.03,0.39-0.1,0.58s-0.16,0.38-0.27,0.57
			c-0.11,0.19-0.25,0.38-0.4,0.56s-0.31,0.37-0.48,0.55l-1.78,1.93h3.33V85.25z"/>
	</g>
</g>
<line class="st9" x1="72.79" y1="50.32" x2="117" y2="50.32"/>
<g>
	<g>
		<path class="st7" d="M130.85,55.05h-0.84v-5.55l-1.73,0.66v-0.77l2.51-0.96h0.07V55.05z"/>
		<path class="st7" d="M136.05,54.5c0-0.09,0.01-0.18,0.04-0.25c0.03-0.08,0.07-0.15,0.13-0.21s0.12-0.11,0.2-0.14
			c0.08-0.03,0.18-0.05,0.29-0.05s0.21,0.02,0.29,0.05c0.08,0.03,0.15,0.08,0.21,0.14c0.06,0.06,0.1,0.13,0.13,0.21
			c0.03,0.08,0.04,0.16,0.04,0.25c0,0.09-0.01,0.17-0.04,0.25c-0.03,0.08-0.07,0.14-0.13,0.2c-0.06,0.06-0.13,0.1-0.21,0.13
			c-0.08,0.03-0.18,0.05-0.29,0.05s-0.21-0.02-0.29-0.05c-0.08-0.03-0.15-0.08-0.2-0.13c-0.05-0.06-0.1-0.12-0.13-0.2
			C136.06,54.67,136.05,54.59,136.05,54.5z"/>
		<path class="st7" d="M144.15,48.42v0.76h-0.07c-0.28,0-0.53,0.03-0.75,0.09s-0.41,0.14-0.58,0.24c-0.17,0.1-0.31,0.22-0.43,0.36
			c-0.12,0.14-0.22,0.29-0.3,0.45s-0.14,0.34-0.18,0.51c-0.04,0.18-0.07,0.36-0.08,0.55c0.08-0.09,0.17-0.18,0.27-0.26
			s0.21-0.15,0.33-0.21c0.12-0.06,0.25-0.11,0.39-0.14c0.14-0.03,0.28-0.05,0.43-0.05c0.33,0,0.62,0.06,0.86,0.19
			c0.24,0.13,0.44,0.29,0.59,0.5c0.15,0.21,0.27,0.44,0.34,0.7c0.07,0.26,0.11,0.53,0.11,0.8c0,0.31-0.04,0.6-0.13,0.87
			c-0.09,0.27-0.22,0.51-0.39,0.72c-0.17,0.21-0.39,0.37-0.64,0.49s-0.55,0.18-0.89,0.18c-0.24,0-0.46-0.03-0.66-0.1
			c-0.2-0.07-0.38-0.17-0.54-0.29c-0.16-0.12-0.3-0.26-0.41-0.43s-0.22-0.34-0.29-0.53c-0.08-0.19-0.14-0.38-0.17-0.59
			c-0.04-0.2-0.06-0.41-0.06-0.61v-0.4c0-0.3,0.02-0.61,0.06-0.91c0.04-0.31,0.1-0.6,0.19-0.88c0.09-0.28,0.21-0.54,0.37-0.79
			c0.16-0.24,0.35-0.46,0.58-0.63c0.24-0.18,0.52-0.32,0.84-0.42c0.33-0.1,0.7-0.15,1.14-0.15H144.15z M143.05,51.4
			c-0.14,0-0.28,0.02-0.41,0.07c-0.13,0.04-0.26,0.11-0.37,0.19c-0.12,0.08-0.22,0.18-0.31,0.3c-0.09,0.12-0.16,0.24-0.21,0.38v0.28
			c0,0.29,0.04,0.55,0.1,0.78c0.07,0.23,0.16,0.42,0.28,0.57c0.12,0.16,0.25,0.27,0.41,0.35c0.15,0.08,0.32,0.12,0.49,0.12
			c0.2,0,0.37-0.04,0.52-0.11c0.15-0.08,0.28-0.18,0.38-0.31c0.1-0.13,0.18-0.29,0.24-0.48c0.05-0.19,0.08-0.39,0.08-0.61
			c0-0.19-0.02-0.38-0.07-0.57s-0.12-0.35-0.22-0.49c-0.1-0.14-0.23-0.26-0.38-0.34C143.43,51.44,143.25,51.4,143.05,51.4z"/>
		<path class="st7" d="M151.57,55.05h-4.34v-0.61l2.17-2.41c0.19-0.22,0.36-0.41,0.49-0.57c0.13-0.17,0.24-0.32,0.31-0.46
			c0.08-0.14,0.13-0.27,0.17-0.4c0.03-0.13,0.05-0.26,0.05-0.39c0-0.16-0.03-0.32-0.08-0.46s-0.13-0.27-0.23-0.38
			c-0.1-0.11-0.22-0.19-0.37-0.25c-0.14-0.06-0.31-0.09-0.49-0.09c-0.22,0-0.41,0.03-0.58,0.1c-0.16,0.06-0.3,0.15-0.41,0.27
			c-0.11,0.12-0.19,0.26-0.24,0.43c-0.05,0.17-0.08,0.35-0.08,0.56h-0.85c0-0.28,0.05-0.54,0.15-0.79c0.1-0.25,0.24-0.46,0.42-0.65
			s0.41-0.33,0.67-0.44c0.26-0.11,0.57-0.16,0.91-0.16c0.31,0,0.59,0.05,0.84,0.14c0.25,0.09,0.46,0.22,0.64,0.38
			c0.17,0.16,0.31,0.36,0.4,0.58c0.09,0.22,0.14,0.47,0.14,0.73c0,0.2-0.03,0.39-0.1,0.58s-0.16,0.38-0.27,0.57
			c-0.11,0.19-0.25,0.38-0.4,0.56s-0.31,0.37-0.48,0.55l-1.78,1.93h3.33V55.05z"/>
		<path class="st7" d="M158.04,55.05h-4.34v-0.61l2.17-2.41c0.19-0.22,0.36-0.41,0.49-0.57c0.13-0.17,0.24-0.32,0.31-0.46
			c0.08-0.14,0.13-0.27,0.17-0.4c0.03-0.13,0.05-0.26,0.05-0.39c0-0.16-0.03-0.32-0.08-0.46s-0.13-0.27-0.23-0.38
			c-0.1-0.11-0.22-0.19-0.37-0.25c-0.14-0.06-0.31-0.09-0.49-0.09c-0.22,0-0.41,0.03-0.58,0.1c-0.16,0.06-0.3,0.15-0.41,0.27
			c-0.11,0.12-0.19,0.26-0.24,0.43c-0.05,0.17-0.08,0.35-0.08,0.56h-0.85c0-0.28,0.05-0.54,0.15-0.79c0.1-0.25,0.24-0.46,0.42-0.65
			s0.41-0.33,0.67-0.44c0.26-0.11,0.57-0.16,0.91-0.16c0.31,0,0.59,0.05,0.84,0.14c0.25,0.09,0.46,0.22,0.64,0.38
			c0.17,0.16,0.31,0.36,0.4,0.58c0.09,0.22,0.14,0.47,0.14,0.73c0,0.2-0.03,0.39-0.1,0.58s-0.16,0.38-0.27,0.57
			c-0.11,0.19-0.25,0.38-0.4,0.56s-0.31,0.37-0.48,0.55l-1.78,1.93h3.33V55.05z"/>
	</g>
</g>
<line class="st9" x1="72.79" y1="19.13" x2="108" y2="19.13"/>
<g>
	<g>
		<path class="st7" d="M120.9,23.85h-0.84V18.3l-1.73,0.66v-0.77l2.51-0.97h0.07V23.85z"/>
		<path class="st7" d="M126.1,23.31c0-0.09,0.01-0.18,0.04-0.25c0.03-0.08,0.07-0.15,0.13-0.21s0.12-0.11,0.2-0.14
			c0.08-0.03,0.18-0.05,0.29-0.05s0.21,0.02,0.29,0.05c0.08,0.03,0.15,0.08,0.21,0.14c0.06,0.06,0.1,0.13,0.13,0.21
			c0.03,0.08,0.04,0.16,0.04,0.25c0,0.09-0.01,0.17-0.04,0.25c-0.03,0.08-0.07,0.15-0.13,0.2c-0.06,0.06-0.13,0.1-0.21,0.13
			c-0.08,0.03-0.18,0.05-0.29,0.05s-0.21-0.02-0.29-0.05c-0.08-0.03-0.15-0.08-0.2-0.13c-0.05-0.06-0.1-0.12-0.13-0.2
			C126.12,23.48,126.1,23.39,126.1,23.31z"/>
		<path class="st7" d="M135.16,23.85h-4.34v-0.61l2.17-2.41c0.19-0.22,0.36-0.41,0.49-0.57c0.13-0.17,0.24-0.32,0.31-0.46
			c0.08-0.14,0.13-0.28,0.17-0.4c0.03-0.13,0.05-0.26,0.05-0.39c0-0.16-0.03-0.32-0.08-0.46c-0.05-0.14-0.13-0.27-0.23-0.38
			c-0.1-0.11-0.22-0.19-0.37-0.25c-0.14-0.06-0.31-0.09-0.49-0.09c-0.22,0-0.41,0.03-0.58,0.1c-0.16,0.06-0.3,0.15-0.41,0.27
			s-0.19,0.26-0.24,0.43c-0.05,0.17-0.08,0.35-0.08,0.56h-0.85c0-0.28,0.05-0.54,0.15-0.79c0.1-0.25,0.24-0.46,0.42-0.65
			s0.41-0.33,0.67-0.44c0.26-0.11,0.57-0.16,0.91-0.16c0.31,0,0.59,0.05,0.84,0.14c0.25,0.09,0.46,0.22,0.64,0.38
			c0.17,0.16,0.31,0.36,0.4,0.58c0.09,0.22,0.14,0.47,0.14,0.73c0,0.2-0.03,0.39-0.1,0.58c-0.07,0.19-0.16,0.38-0.27,0.57
			c-0.11,0.19-0.25,0.37-0.4,0.56s-0.31,0.37-0.48,0.55l-1.78,1.93h3.33V23.85z"/>
		<path class="st7" d="M140.66,17.22v0.76h-0.07c-0.28,0-0.53,0.03-0.75,0.09s-0.41,0.14-0.58,0.24c-0.17,0.1-0.31,0.22-0.43,0.36
			s-0.22,0.29-0.3,0.45s-0.14,0.33-0.18,0.51c-0.04,0.18-0.07,0.36-0.08,0.55c0.08-0.09,0.17-0.18,0.27-0.26
			c0.1-0.08,0.21-0.15,0.33-0.21c0.12-0.06,0.25-0.11,0.39-0.14c0.14-0.04,0.28-0.05,0.43-0.05c0.33,0,0.62,0.06,0.86,0.19
			c0.24,0.13,0.44,0.29,0.59,0.5c0.15,0.21,0.27,0.44,0.34,0.7c0.07,0.26,0.11,0.53,0.11,0.8c0,0.31-0.04,0.6-0.13,0.87
			c-0.09,0.27-0.22,0.51-0.39,0.72c-0.17,0.2-0.39,0.37-0.64,0.48c-0.26,0.12-0.55,0.18-0.89,0.18c-0.24,0-0.46-0.04-0.66-0.11
			c-0.2-0.07-0.38-0.16-0.54-0.28c-0.16-0.12-0.3-0.26-0.41-0.42c-0.12-0.16-0.22-0.34-0.29-0.53c-0.08-0.19-0.14-0.38-0.17-0.59
			c-0.04-0.2-0.06-0.41-0.06-0.61v-0.4c0-0.3,0.02-0.61,0.06-0.91c0.04-0.3,0.1-0.6,0.19-0.88c0.09-0.28,0.21-0.54,0.37-0.79
			c0.16-0.25,0.35-0.46,0.58-0.64c0.24-0.18,0.52-0.32,0.84-0.42c0.33-0.1,0.7-0.16,1.14-0.16H140.66z M139.56,20.21
			c-0.14,0-0.28,0.02-0.41,0.07c-0.13,0.05-0.26,0.11-0.37,0.19s-0.22,0.18-0.31,0.3c-0.09,0.12-0.16,0.24-0.21,0.38v0.28
			c0,0.29,0.04,0.55,0.1,0.78c0.07,0.23,0.16,0.42,0.28,0.57c0.12,0.15,0.25,0.27,0.41,0.35c0.15,0.08,0.32,0.12,0.49,0.12
			c0.2,0,0.37-0.04,0.52-0.11c0.15-0.08,0.28-0.18,0.38-0.31c0.1-0.13,0.18-0.29,0.24-0.48c0.05-0.19,0.08-0.39,0.08-0.61
			c0-0.19-0.02-0.38-0.07-0.57s-0.12-0.35-0.22-0.49c-0.1-0.14-0.23-0.26-0.38-0.34C139.94,20.25,139.76,20.21,139.56,20.21z"/>
		<path class="st7" d="M148.18,21.32c0,0.42-0.05,0.8-0.15,1.12c-0.1,0.33-0.24,0.6-0.42,0.82c-0.18,0.22-0.41,0.39-0.67,0.51
			c-0.26,0.12-0.57,0.17-0.91,0.17c-0.34,0-0.64-0.06-0.9-0.17c-0.27-0.12-0.49-0.28-0.68-0.51c-0.18-0.22-0.33-0.5-0.43-0.82
			s-0.15-0.7-0.15-1.12v-1.55c0-0.42,0.05-0.79,0.15-1.12c0.1-0.33,0.24-0.6,0.42-0.83s0.41-0.4,0.67-0.51
			c0.27-0.12,0.57-0.17,0.9-0.17c0.34,0,0.64,0.06,0.91,0.17c0.27,0.12,0.49,0.29,0.67,0.51c0.18,0.22,0.32,0.5,0.42,0.83
			c0.1,0.33,0.15,0.7,0.15,1.12V21.32z M144.74,21.15l2.58-1.98c-0.05-0.44-0.18-0.78-0.38-1c-0.21-0.23-0.51-0.34-0.9-0.34
			c-0.44,0-0.77,0.15-0.98,0.45s-0.32,0.74-0.32,1.31V21.15z M147.33,19.97l-2.58,1.97c0.05,0.43,0.18,0.75,0.4,0.98
			c0.21,0.22,0.51,0.34,0.89,0.34c0.45,0,0.77-0.15,0.98-0.46c0.21-0.3,0.31-0.74,0.31-1.31V19.97z"/>
	</g>
</g>
</svg>
