<?xml version="1.0" encoding="utf-8"?>
<!-- Generator: Adobe Illustrator 27.0.1, SVG Export Plug-In . SVG Version: 6.00 Build 0)  -->
<svg version="1.1" id="Capa_1" xmlns="http://www.w3.org/2000/svg" xmlns:xlink="http://www.w3.org/1999/xlink" x="0px" y="0px"
	 viewBox="0 0 599 64" style="enable-background:new 0 0 599 64;" xml:space="preserve">
<style type="text/css">
	.st0{opacity:0.15;fill:#55A0B8;}
	.st1{opacity:0.5;}
	.st2{fill:none;}
	.st3{fill:none;stroke:#1D1D1B;stroke-width:0.25;stroke-linecap:round;stroke-linejoin:round;}
	.st4{opacity:0.35;}
	.st5{fill:none;stroke:#1D1D1B;stroke-width:0.25;stroke-linecap:round;stroke-linejoin:round;stroke-dasharray:0,0.751;}
	.st6{fill:none;stroke:#55A0B8;stroke-width:50;}
	.st7{fill:#55A0B8;}
	.st8{fill:#1D1D1B;}
	.st9{fill:none;stroke:#55A0B8;stroke-width:10;}
	
		.st10{opacity:0.5;fill:none;stroke:#1D1D1B;stroke-width:0.25;stroke-linecap:round;stroke-linejoin:round;stroke-dasharray:0,0.751;}
	.st11{fill:#FFFFFF;}
	.st12{fill:none;stroke:#FFFF00;stroke-width:4;stroke-miterlimit:10;}
</style>
<rect x="1" y="9" class="st0" width="546" height="50"/>
<g>
	<path class="st7" d="M10.71,25.5v0.76h-0.07c-0.28,0-0.53,0.03-0.75,0.09c-0.22,0.06-0.41,0.14-0.58,0.24
		c-0.17,0.1-0.31,0.22-0.43,0.36c-0.12,0.14-0.22,0.29-0.3,0.45c-0.08,0.16-0.14,0.33-0.18,0.51s-0.07,0.36-0.08,0.55
		c0.08-0.1,0.17-0.18,0.27-0.26c0.1-0.08,0.21-0.15,0.33-0.21c0.12-0.06,0.25-0.11,0.39-0.14c0.14-0.04,0.28-0.05,0.43-0.05
		c0.33,0,0.62,0.06,0.86,0.19c0.24,0.13,0.44,0.29,0.59,0.5c0.16,0.21,0.27,0.44,0.34,0.7c0.07,0.26,0.11,0.53,0.11,0.8
		c0,0.31-0.04,0.6-0.13,0.88c-0.09,0.27-0.22,0.51-0.39,0.72c-0.17,0.21-0.39,0.37-0.64,0.48c-0.26,0.12-0.55,0.18-0.89,0.18
		c-0.24,0-0.46-0.04-0.66-0.11c-0.2-0.07-0.38-0.16-0.54-0.28c-0.16-0.12-0.3-0.26-0.41-0.43s-0.22-0.34-0.29-0.53
		c-0.08-0.19-0.14-0.38-0.17-0.59c-0.04-0.2-0.06-0.41-0.06-0.61v-0.4c0-0.3,0.02-0.61,0.06-0.91s0.1-0.6,0.19-0.88
		c0.09-0.28,0.21-0.54,0.37-0.79c0.16-0.24,0.35-0.46,0.58-0.63c0.24-0.18,0.52-0.32,0.84-0.42c0.33-0.1,0.7-0.15,1.14-0.15H10.71z
		 M9.6,28.48c-0.14,0-0.28,0.02-0.41,0.07c-0.13,0.05-0.26,0.11-0.37,0.19c-0.12,0.08-0.22,0.18-0.31,0.3s-0.16,0.24-0.21,0.38v0.28
		c0,0.29,0.03,0.55,0.1,0.78c0.07,0.23,0.16,0.42,0.28,0.57s0.25,0.27,0.41,0.35c0.15,0.08,0.32,0.12,0.49,0.12
		c0.2,0,0.37-0.04,0.52-0.11c0.15-0.08,0.28-0.18,0.38-0.31c0.11-0.13,0.18-0.29,0.24-0.48c0.05-0.19,0.08-0.39,0.08-0.61
		c0-0.19-0.02-0.38-0.07-0.57c-0.05-0.18-0.12-0.35-0.22-0.49c-0.1-0.14-0.23-0.26-0.38-0.34C9.99,28.53,9.81,28.48,9.6,28.48z"/>
	<path class="st7" d="M17.48,29.9h0.92v0.69h-0.92v1.54h-0.84v-1.54h-3.02v-0.5l2.97-4.59h0.9V29.9z M14.55,29.9h2.09v-3.28
		l-0.14,0.25L14.55,29.9z"/>
	<path class="st7" d="M19.93,26.7c0-0.17,0.03-0.34,0.08-0.49c0.05-0.16,0.13-0.29,0.23-0.41c0.1-0.12,0.23-0.21,0.38-0.28
		c0.15-0.07,0.33-0.1,0.52-0.1c0.2,0,0.38,0.03,0.53,0.1s0.28,0.16,0.38,0.28c0.1,0.12,0.18,0.26,0.23,0.41s0.08,0.32,0.08,0.49
		v0.35c0,0.17-0.03,0.34-0.08,0.49c-0.05,0.16-0.13,0.29-0.23,0.41s-0.23,0.21-0.38,0.28s-0.33,0.1-0.52,0.1s-0.37-0.04-0.53-0.1
		s-0.28-0.16-0.38-0.28c-0.1-0.12-0.18-0.25-0.24-0.41c-0.05-0.15-0.08-0.32-0.08-0.49V26.7z M20.56,27.05
		c0,0.09,0.01,0.18,0.03,0.27c0.02,0.09,0.06,0.16,0.1,0.23s0.11,0.12,0.18,0.16s0.17,0.06,0.28,0.06c0.11,0,0.2-0.02,0.27-0.06
		s0.13-0.1,0.18-0.16c0.05-0.07,0.08-0.14,0.1-0.23c0.02-0.09,0.03-0.18,0.03-0.27V26.7c0-0.09-0.01-0.19-0.03-0.28
		c-0.02-0.09-0.06-0.17-0.1-0.24s-0.11-0.12-0.18-0.16c-0.08-0.04-0.17-0.06-0.28-0.06c-0.11,0-0.2,0.02-0.27,0.06
		s-0.13,0.1-0.18,0.16c-0.05,0.07-0.08,0.15-0.1,0.24s-0.03,0.18-0.03,0.28V27.05z M21.54,31.28l-0.5-0.28l2.58-4.72l0.5,0.28
		L21.54,31.28z M22.67,30.59c0-0.17,0.03-0.34,0.08-0.49c0.05-0.16,0.13-0.29,0.23-0.41c0.1-0.12,0.23-0.21,0.38-0.28
		c0.15-0.07,0.33-0.1,0.52-0.1c0.2,0,0.38,0.04,0.53,0.1c0.15,0.07,0.28,0.16,0.38,0.28c0.1,0.12,0.18,0.25,0.23,0.41
		c0.05,0.15,0.08,0.32,0.08,0.49v0.36c0,0.17-0.03,0.34-0.08,0.49c-0.05,0.15-0.13,0.29-0.23,0.41c-0.1,0.12-0.23,0.21-0.38,0.28
		s-0.32,0.1-0.52,0.1c-0.2,0-0.38-0.03-0.53-0.1s-0.28-0.16-0.38-0.28c-0.1-0.12-0.18-0.25-0.23-0.41s-0.08-0.32-0.08-0.49V30.59z
		 M23.3,30.95c0,0.09,0.01,0.19,0.03,0.27s0.06,0.17,0.1,0.23s0.11,0.12,0.18,0.16c0.08,0.04,0.17,0.06,0.28,0.06
		c0.11,0,0.2-0.02,0.27-0.06c0.07-0.04,0.13-0.1,0.18-0.16c0.04-0.07,0.08-0.15,0.1-0.23s0.03-0.18,0.03-0.27v-0.36
		c0-0.09-0.01-0.18-0.03-0.27s-0.05-0.17-0.1-0.23c-0.05-0.07-0.11-0.12-0.18-0.16c-0.08-0.04-0.17-0.06-0.27-0.06
		c-0.11,0-0.2,0.02-0.28,0.06s-0.13,0.1-0.18,0.16c-0.05,0.07-0.08,0.15-0.1,0.23c-0.02,0.09-0.03,0.18-0.03,0.27V30.95z"/>
</g>
<rect x="353" y="9" class="st7" width="194" height="50"/>
<g>
	<g>
		<path class="st11" d="M361.58,28.41h0.6c0.21,0,0.4-0.03,0.56-0.09c0.16-0.06,0.3-0.14,0.41-0.24c0.11-0.1,0.2-0.22,0.25-0.36
			c0.06-0.14,0.09-0.29,0.09-0.46c0-0.38-0.1-0.68-0.3-0.87c-0.2-0.2-0.49-0.29-0.87-0.29c-0.18,0-0.34,0.03-0.49,0.08
			s-0.27,0.13-0.38,0.23c-0.1,0.1-0.19,0.22-0.24,0.36c-0.06,0.14-0.09,0.29-0.09,0.47h-0.85c0-0.25,0.05-0.49,0.15-0.71
			s0.24-0.42,0.42-0.58s0.39-0.3,0.64-0.39c0.25-0.1,0.53-0.14,0.83-0.14c0.3,0,0.57,0.04,0.81,0.12c0.25,0.08,0.46,0.2,0.63,0.36
			c0.18,0.16,0.31,0.35,0.41,0.59c0.1,0.23,0.15,0.5,0.15,0.81c0,0.13-0.02,0.26-0.06,0.4c-0.04,0.14-0.1,0.27-0.18,0.4
			s-0.19,0.25-0.32,0.36c-0.13,0.12-0.28,0.21-0.46,0.29c0.22,0.07,0.4,0.16,0.54,0.27c0.14,0.11,0.26,0.24,0.35,0.38
			c0.09,0.14,0.15,0.29,0.18,0.44c0.04,0.15,0.05,0.31,0.05,0.46c0,0.31-0.05,0.58-0.16,0.82c-0.11,0.24-0.25,0.44-0.44,0.61
			c-0.19,0.17-0.41,0.29-0.67,0.38c-0.26,0.09-0.53,0.13-0.83,0.13c-0.29,0-0.57-0.04-0.82-0.12c-0.26-0.08-0.48-0.2-0.67-0.36
			c-0.19-0.16-0.34-0.35-0.45-0.58c-0.11-0.23-0.17-0.49-0.17-0.78h0.84c0,0.17,0.03,0.33,0.09,0.47c0.06,0.14,0.14,0.26,0.25,0.36
			s0.24,0.18,0.4,0.23s0.33,0.08,0.52,0.08c0.19,0,0.36-0.03,0.52-0.08c0.16-0.05,0.29-0.12,0.4-0.23s0.19-0.23,0.25-0.38
			c0.06-0.15,0.09-0.34,0.09-0.54c0-0.21-0.03-0.38-0.1-0.54s-0.16-0.28-0.29-0.38s-0.27-0.17-0.45-0.22s-0.37-0.07-0.58-0.07h-0.6
			V28.41z"/>
		<path class="st11" d="M370.17,25.5v0.76h-0.07c-0.28,0-0.53,0.03-0.75,0.09c-0.22,0.06-0.41,0.14-0.58,0.24
			c-0.17,0.1-0.31,0.22-0.43,0.36c-0.12,0.14-0.22,0.29-0.3,0.45c-0.08,0.16-0.14,0.33-0.18,0.51s-0.07,0.36-0.08,0.55
			c0.08-0.1,0.17-0.18,0.27-0.26c0.1-0.08,0.21-0.15,0.33-0.21c0.12-0.06,0.25-0.11,0.39-0.14c0.14-0.04,0.28-0.05,0.43-0.05
			c0.33,0,0.62,0.06,0.86,0.19c0.24,0.13,0.44,0.29,0.59,0.5c0.16,0.21,0.27,0.44,0.34,0.7c0.07,0.26,0.11,0.53,0.11,0.8
			c0,0.31-0.04,0.6-0.13,0.88c-0.09,0.27-0.22,0.51-0.39,0.72c-0.17,0.21-0.39,0.37-0.64,0.48c-0.26,0.12-0.55,0.18-0.89,0.18
			c-0.24,0-0.46-0.04-0.66-0.11c-0.2-0.07-0.38-0.16-0.54-0.28c-0.16-0.12-0.3-0.26-0.41-0.43s-0.22-0.34-0.29-0.53
			c-0.08-0.19-0.14-0.38-0.17-0.59c-0.04-0.2-0.06-0.41-0.06-0.61v-0.4c0-0.3,0.02-0.61,0.06-0.91s0.1-0.6,0.19-0.88
			c0.09-0.28,0.21-0.54,0.37-0.79c0.16-0.24,0.35-0.46,0.58-0.63c0.24-0.18,0.52-0.32,0.84-0.42c0.33-0.1,0.7-0.15,1.14-0.15H370.17
			z M369.07,28.48c-0.14,0-0.28,0.02-0.41,0.07c-0.13,0.05-0.26,0.11-0.37,0.19c-0.12,0.08-0.22,0.18-0.31,0.3s-0.16,0.24-0.21,0.38
			v0.28c0,0.29,0.03,0.55,0.1,0.78c0.07,0.23,0.16,0.42,0.28,0.57s0.25,0.27,0.41,0.35c0.15,0.08,0.32,0.12,0.49,0.12
			c0.2,0,0.37-0.04,0.52-0.11c0.15-0.08,0.28-0.18,0.38-0.31c0.11-0.13,0.18-0.29,0.24-0.48c0.05-0.19,0.08-0.39,0.08-0.61
			c0-0.19-0.02-0.38-0.07-0.57c-0.05-0.18-0.12-0.35-0.22-0.49c-0.1-0.14-0.23-0.26-0.38-0.34
			C369.45,28.53,369.27,28.48,369.07,28.48z"/>
		<path class="st11" d="M372.93,26.7c0-0.17,0.03-0.34,0.08-0.49c0.05-0.16,0.13-0.29,0.23-0.41c0.1-0.12,0.23-0.21,0.38-0.28
			c0.15-0.07,0.33-0.1,0.52-0.1c0.2,0,0.38,0.03,0.53,0.1s0.28,0.16,0.38,0.28c0.1,0.12,0.18,0.26,0.23,0.41s0.08,0.32,0.08,0.49
			v0.35c0,0.17-0.03,0.34-0.08,0.49c-0.05,0.16-0.13,0.29-0.23,0.41s-0.23,0.21-0.38,0.28s-0.33,0.1-0.52,0.1s-0.37-0.04-0.53-0.1
			s-0.28-0.16-0.38-0.28c-0.1-0.12-0.18-0.25-0.24-0.41c-0.05-0.15-0.08-0.32-0.08-0.49V26.7z M373.56,27.05
			c0,0.09,0.01,0.18,0.03,0.27c0.02,0.09,0.06,0.16,0.1,0.23s0.11,0.12,0.18,0.16s0.17,0.06,0.28,0.06c0.11,0,0.2-0.02,0.27-0.06
			s0.13-0.1,0.18-0.16c0.05-0.07,0.08-0.14,0.1-0.23c0.02-0.09,0.03-0.18,0.03-0.27V26.7c0-0.09-0.01-0.19-0.03-0.28
			c-0.02-0.09-0.06-0.17-0.1-0.24s-0.11-0.12-0.18-0.16c-0.08-0.04-0.17-0.06-0.28-0.06c-0.11,0-0.2,0.02-0.27,0.06
			s-0.13,0.1-0.18,0.16c-0.05,0.07-0.08,0.15-0.1,0.24s-0.03,0.18-0.03,0.28V27.05z M374.54,31.28l-0.5-0.28l2.58-4.72l0.5,0.28
			L374.54,31.28z M375.67,30.59c0-0.17,0.03-0.34,0.08-0.49c0.05-0.16,0.13-0.29,0.23-0.41c0.1-0.12,0.23-0.21,0.38-0.28
			c0.15-0.07,0.33-0.1,0.52-0.1c0.2,0,0.38,0.04,0.53,0.1c0.15,0.07,0.28,0.16,0.38,0.28c0.1,0.12,0.18,0.25,0.23,0.41
			c0.05,0.15,0.08,0.32,0.08,0.49v0.36c0,0.17-0.03,0.34-0.08,0.49c-0.05,0.15-0.13,0.29-0.23,0.41c-0.1,0.12-0.23,0.21-0.38,0.28
			s-0.32,0.1-0.52,0.1c-0.2,0-0.38-0.03-0.53-0.1s-0.28-0.16-0.38-0.28c-0.1-0.12-0.18-0.25-0.23-0.41s-0.08-0.32-0.08-0.49V30.59z
			 M376.3,30.95c0,0.09,0.01,0.19,0.03,0.27s0.06,0.17,0.1,0.23s0.11,0.12,0.18,0.16c0.08,0.04,0.17,0.06,0.28,0.06
			c0.11,0,0.2-0.02,0.27-0.06c0.07-0.04,0.13-0.1,0.18-0.16c0.04-0.07,0.08-0.15,0.1-0.23s0.03-0.18,0.03-0.27v-0.36
			c0-0.09-0.01-0.18-0.03-0.27s-0.05-0.17-0.1-0.23c-0.05-0.07-0.11-0.12-0.18-0.16c-0.08-0.04-0.17-0.06-0.27-0.06
			c-0.11,0-0.2,0.02-0.28,0.06s-0.13,0.1-0.18,0.16c-0.05,0.07-0.08,0.15-0.1,0.23c-0.02,0.09-0.03,0.18-0.03,0.27V30.95z"/>
	</g>
</g>
<rect x="-126.34" y="-499.5" class="st12" width="990" height="709"/>
<g>
	<path class="st7" d="M10.96,22.94v-3.06H8.24v3.06H7.45v-6.63h0.79v2.85h2.72v-2.85h0.8v6.63H10.96z"/>
	<path class="st7" d="M18.31,20.73c-0.04,0.24-0.1,0.47-0.18,0.7c-0.08,0.22-0.18,0.43-0.3,0.63c-0.12,0.2-0.27,0.37-0.44,0.51
		c-0.17,0.15-0.36,0.26-0.58,0.34c-0.22,0.08-0.47,0.12-0.74,0.12s-0.52-0.04-0.74-0.12c-0.22-0.08-0.42-0.2-0.58-0.34
		c-0.17-0.14-0.32-0.32-0.44-0.51c-0.12-0.2-0.23-0.41-0.3-0.63c-0.08-0.22-0.14-0.46-0.18-0.7c-0.04-0.24-0.06-0.48-0.06-0.71
		v-0.76c0-0.24,0.02-0.48,0.06-0.72c0.04-0.24,0.1-0.47,0.18-0.7c0.08-0.22,0.18-0.44,0.3-0.63s0.27-0.37,0.44-0.52
		c0.17-0.14,0.37-0.26,0.58-0.34c0.22-0.08,0.47-0.13,0.74-0.13c0.27,0,0.52,0.04,0.74,0.13c0.22,0.08,0.42,0.2,0.59,0.34
		c0.17,0.15,0.32,0.32,0.44,0.51c0.12,0.2,0.22,0.41,0.31,0.63c0.08,0.22,0.14,0.46,0.18,0.7c0.04,0.24,0.06,0.48,0.06,0.72v0.76
		C18.37,20.25,18.35,20.49,18.31,20.73z M17.51,18.75c-0.02-0.17-0.05-0.34-0.09-0.51c-0.05-0.17-0.1-0.33-0.18-0.48
		c-0.07-0.15-0.16-0.29-0.27-0.41c-0.11-0.12-0.24-0.21-0.39-0.28s-0.32-0.1-0.52-0.1c-0.19,0-0.37,0.04-0.51,0.11
		c-0.15,0.07-0.28,0.16-0.39,0.28c-0.11,0.12-0.2,0.25-0.27,0.41c-0.07,0.15-0.13,0.31-0.17,0.48c-0.05,0.17-0.08,0.34-0.1,0.51
		c-0.02,0.17-0.03,0.33-0.03,0.49v0.77c0,0.15,0.01,0.32,0.03,0.49c0.02,0.17,0.05,0.34,0.1,0.51c0.04,0.17,0.1,0.33,0.18,0.49
		c0.07,0.15,0.16,0.29,0.27,0.4c0.11,0.12,0.24,0.21,0.39,0.28c0.15,0.07,0.32,0.1,0.52,0.1s0.37-0.03,0.52-0.1s0.28-0.16,0.39-0.28
		c0.11-0.12,0.2-0.25,0.27-0.4c0.07-0.15,0.13-0.31,0.17-0.48c0.04-0.17,0.07-0.34,0.09-0.51c0.02-0.17,0.03-0.34,0.03-0.5v-0.77
		C17.54,19.09,17.53,18.92,17.51,18.75z"/>
	<path class="st7" d="M22.53,19.63l1.17-3.31h1.05v6.63h-0.82V20.3l0.07-2.77l-1.22,3.57h-0.48l-1.12-3.47l0.07,2.67v2.64h-0.82
		v-6.63h1.04L22.53,19.63z"/>
	<path class="st7" d="M26.98,16.31h1.97c0.27,0,0.54,0.04,0.8,0.11c0.26,0.07,0.49,0.17,0.7,0.32s0.37,0.32,0.49,0.55
		c0.12,0.22,0.18,0.49,0.18,0.79c0,0.17-0.03,0.33-0.08,0.47c-0.05,0.14-0.12,0.27-0.22,0.38c-0.09,0.12-0.2,0.21-0.31,0.29
		c-0.11,0.08-0.25,0.15-0.41,0.22v0.01c0.17,0.04,0.33,0.11,0.48,0.21c0.15,0.1,0.28,0.22,0.38,0.34c0.11,0.14,0.19,0.29,0.25,0.46
		c0.06,0.17,0.09,0.35,0.09,0.55c0,0.31-0.06,0.58-0.18,0.82c-0.12,0.24-0.28,0.44-0.49,0.59c-0.2,0.16-0.44,0.29-0.7,0.37
		c-0.27,0.09-0.54,0.13-0.82,0.13h-2.12V16.31z M29,19.14c0.16,0,0.31-0.03,0.46-0.07s0.29-0.12,0.41-0.21
		c0.12-0.09,0.21-0.2,0.29-0.33c0.07-0.13,0.11-0.28,0.11-0.46c0-0.19-0.04-0.34-0.11-0.47c-0.07-0.13-0.17-0.24-0.28-0.32
		c-0.12-0.08-0.26-0.14-0.42-0.18s-0.32-0.06-0.48-0.06h-1.15v2.11H29z M27.83,22.23h1.3c0.18,0,0.34-0.03,0.5-0.09
		c0.16-0.05,0.3-0.13,0.42-0.23c0.12-0.1,0.22-0.22,0.29-0.37c0.07-0.15,0.11-0.31,0.11-0.5c0-0.19-0.03-0.35-0.09-0.5
		s-0.16-0.27-0.27-0.37c-0.12-0.1-0.25-0.18-0.41-0.23c-0.16-0.05-0.32-0.08-0.5-0.09h-1.34V22.23z"/>
	<path class="st7" d="M34.32,20.24v2.71h-0.84v-6.63h1.94c0.31,0.01,0.6,0.05,0.87,0.13c0.27,0.08,0.51,0.21,0.72,0.37
		c0.2,0.16,0.36,0.37,0.48,0.62c0.12,0.25,0.17,0.54,0.17,0.87c0,0.21-0.03,0.41-0.09,0.59c-0.06,0.18-0.15,0.34-0.26,0.49
		s-0.24,0.28-0.39,0.39c-0.15,0.11-0.32,0.21-0.5,0.29l1.41,2.83l0,0.05h-0.89l-1.3-2.71H34.32z M35.45,19.55
		c0.19,0,0.37-0.03,0.53-0.09c0.17-0.05,0.31-0.14,0.44-0.24c0.12-0.11,0.22-0.24,0.3-0.39c0.07-0.15,0.11-0.33,0.11-0.53
		c0-0.21-0.04-0.4-0.1-0.56c-0.07-0.16-0.17-0.29-0.29-0.4c-0.12-0.11-0.27-0.19-0.44-0.24s-0.36-0.08-0.56-0.09h-1.11v2.54H35.45z"
		/>
	<path class="st7" d="M40.79,19.88v2.35h3.23v0.71h-4.07v-6.63h4.03v0.72h-3.19v2.13h2.77v0.71H40.79z"/>
	<path class="st7" d="M49.7,20.75c-0.09-0.14-0.21-0.26-0.36-0.36c-0.15-0.09-0.31-0.17-0.48-0.24c-0.17-0.06-0.34-0.12-0.5-0.17
		c-0.23-0.08-0.47-0.17-0.71-0.28s-0.46-0.24-0.66-0.39c-0.2-0.16-0.36-0.34-0.49-0.55s-0.19-0.46-0.19-0.74s0.06-0.54,0.19-0.77
		s0.29-0.41,0.49-0.57s0.43-0.27,0.69-0.35s0.52-0.12,0.78-0.12c0.29,0,0.57,0.05,0.83,0.14c0.27,0.1,0.5,0.23,0.71,0.4
		c0.21,0.17,0.37,0.38,0.5,0.63c0.12,0.25,0.19,0.52,0.2,0.82h-0.86c-0.02-0.19-0.07-0.37-0.14-0.52c-0.07-0.16-0.16-0.29-0.28-0.4
		c-0.12-0.11-0.25-0.2-0.41-0.26c-0.16-0.06-0.34-0.09-0.54-0.09c-0.16,0-0.32,0.02-0.47,0.07c-0.15,0.04-0.29,0.11-0.41,0.21
		c-0.12,0.09-0.22,0.2-0.29,0.34s-0.11,0.29-0.11,0.46c0,0.19,0.05,0.35,0.15,0.48c0.09,0.13,0.21,0.24,0.36,0.33
		c0.14,0.09,0.3,0.17,0.47,0.23c0.17,0.06,0.33,0.11,0.48,0.16c0.25,0.08,0.49,0.17,0.74,0.28c0.25,0.11,0.47,0.25,0.67,0.41
		c0.2,0.16,0.36,0.35,0.48,0.57s0.18,0.48,0.18,0.78c0,0.3-0.07,0.56-0.2,0.78s-0.3,0.4-0.51,0.55c-0.21,0.15-0.45,0.26-0.71,0.33
		c-0.26,0.07-0.53,0.11-0.79,0.11c-0.32,0-0.63-0.05-0.93-0.16c-0.3-0.11-0.57-0.26-0.79-0.46c-0.2-0.17-0.36-0.38-0.48-0.61
		c-0.12-0.23-0.18-0.49-0.19-0.78h0.86c0.03,0.21,0.08,0.39,0.17,0.55c0.08,0.16,0.19,0.29,0.33,0.4c0.13,0.11,0.29,0.2,0.46,0.25
		c0.17,0.06,0.37,0.08,0.57,0.08c0.16,0,0.33-0.02,0.49-0.06s0.3-0.11,0.43-0.19c0.12-0.09,0.23-0.19,0.3-0.33
		c0.08-0.13,0.12-0.29,0.12-0.47C49.84,21.06,49.8,20.89,49.7,20.75z"/>
</g>
<g>
	<path class="st11" d="M363.03,19.63l1.17-3.31h1.05v6.63h-0.82V20.3l0.07-2.77l-1.22,3.57h-0.48l-1.12-3.47l0.07,2.67v2.64h-0.82
		v-6.63h1.04L363.03,19.63z"/>
	<path class="st11" d="M371.66,20.8c0,0.31-0.05,0.6-0.16,0.87c-0.11,0.27-0.26,0.51-0.45,0.71c-0.19,0.2-0.42,0.36-0.68,0.48
		c-0.26,0.12-0.55,0.17-0.87,0.17c-0.32,0-0.61-0.06-0.88-0.17c-0.26-0.12-0.49-0.28-0.68-0.48c-0.19-0.2-0.33-0.44-0.44-0.71
		s-0.16-0.56-0.16-0.87l0.01-4.49h0.8l0.02,4.49c0,0.2,0.03,0.39,0.09,0.57c0.06,0.18,0.14,0.34,0.26,0.48
		c0.11,0.14,0.25,0.25,0.41,0.34c0.17,0.09,0.36,0.13,0.57,0.13c0.22,0,0.41-0.04,0.57-0.12c0.16-0.08,0.3-0.2,0.41-0.34
		c0.11-0.14,0.19-0.3,0.25-0.48c0.06-0.18,0.09-0.37,0.09-0.57l0.01-4.49h0.82L371.66,20.8z"/>
	<path class="st11" d="M377.92,16.31v4.61c-0.01,0.31-0.06,0.59-0.17,0.85c-0.11,0.26-0.26,0.48-0.45,0.66
		c-0.19,0.19-0.42,0.33-0.68,0.44c-0.26,0.11-0.54,0.16-0.85,0.16c-0.31,0-0.59-0.05-0.84-0.14c-0.25-0.09-0.47-0.23-0.66-0.4
		c-0.19-0.17-0.34-0.38-0.45-0.63s-0.18-0.53-0.21-0.83h0.86c0.01,0.19,0.05,0.36,0.11,0.52c0.07,0.16,0.15,0.29,0.27,0.41
		c0.11,0.12,0.25,0.21,0.4,0.27c0.16,0.06,0.33,0.1,0.53,0.1c0.2,0,0.38-0.04,0.54-0.11c0.16-0.07,0.29-0.17,0.41-0.3
		c0.11-0.13,0.19-0.28,0.25-0.44c0.06-0.17,0.09-0.35,0.1-0.54v-4.61H377.92z"/>
	<path class="st11" d="M381.29,19.88v2.35h3.23v0.71h-4.07v-6.63h4.03v0.72h-3.19v2.13h2.77v0.71H381.29z"/>
	<path class="st11" d="M387.75,20.24v2.71h-0.84v-6.63h1.94c0.31,0.01,0.6,0.05,0.87,0.13c0.27,0.08,0.51,0.21,0.72,0.37
		c0.2,0.16,0.36,0.37,0.48,0.62c0.12,0.25,0.17,0.54,0.17,0.87c0,0.21-0.03,0.41-0.09,0.59c-0.06,0.18-0.15,0.34-0.26,0.49
		s-0.24,0.28-0.39,0.39c-0.15,0.11-0.32,0.21-0.5,0.29l1.41,2.83l0,0.05h-0.89l-1.3-2.71H387.75z M388.88,19.55
		c0.19,0,0.37-0.03,0.53-0.09c0.17-0.05,0.31-0.14,0.44-0.24c0.12-0.11,0.22-0.24,0.3-0.39c0.07-0.15,0.11-0.33,0.11-0.53
		c0-0.21-0.04-0.4-0.1-0.56c-0.07-0.16-0.17-0.29-0.29-0.4c-0.12-0.11-0.27-0.19-0.44-0.24s-0.36-0.08-0.56-0.09h-1.11v2.54H388.88z
		"/>
	<path class="st11" d="M394.22,19.88v2.35h3.23v0.71h-4.07v-6.63h4.03v0.72h-3.19v2.13h2.77v0.71H394.22z"/>
	<path class="st11" d="M403.13,20.75c-0.09-0.14-0.21-0.26-0.36-0.36c-0.15-0.09-0.31-0.17-0.48-0.24c-0.17-0.06-0.34-0.12-0.5-0.17
		c-0.23-0.08-0.47-0.17-0.71-0.28s-0.46-0.24-0.66-0.39c-0.2-0.16-0.36-0.34-0.49-0.55s-0.19-0.46-0.19-0.74s0.06-0.54,0.19-0.77
		s0.29-0.41,0.49-0.57s0.43-0.27,0.69-0.35s0.52-0.12,0.78-0.12c0.29,0,0.57,0.05,0.83,0.14c0.27,0.1,0.5,0.23,0.71,0.4
		c0.21,0.17,0.37,0.38,0.5,0.63c0.12,0.25,0.19,0.52,0.2,0.82h-0.86c-0.02-0.19-0.07-0.37-0.14-0.52c-0.07-0.16-0.16-0.29-0.28-0.4
		c-0.12-0.11-0.25-0.2-0.41-0.26c-0.16-0.06-0.34-0.09-0.54-0.09c-0.16,0-0.32,0.02-0.47,0.07c-0.15,0.04-0.29,0.11-0.41,0.21
		c-0.12,0.09-0.22,0.2-0.29,0.34s-0.11,0.29-0.11,0.46c0,0.19,0.05,0.35,0.15,0.48c0.09,0.13,0.21,0.24,0.36,0.33
		c0.14,0.09,0.3,0.17,0.47,0.23c0.17,0.06,0.33,0.11,0.48,0.16c0.25,0.08,0.49,0.17,0.74,0.28c0.25,0.11,0.47,0.25,0.67,0.41
		c0.2,0.16,0.36,0.35,0.48,0.57s0.18,0.48,0.18,0.78c0,0.3-0.07,0.56-0.2,0.78s-0.3,0.4-0.51,0.55c-0.21,0.15-0.45,0.26-0.71,0.33
		c-0.26,0.07-0.53,0.11-0.79,0.11c-0.32,0-0.63-0.05-0.93-0.16c-0.3-0.11-0.57-0.26-0.79-0.46c-0.2-0.17-0.36-0.38-0.48-0.61
		c-0.12-0.23-0.18-0.49-0.19-0.78h0.86c0.03,0.21,0.08,0.39,0.17,0.55c0.08,0.16,0.19,0.29,0.33,0.4c0.13,0.11,0.29,0.2,0.46,0.25
		c0.17,0.06,0.37,0.08,0.57,0.08c0.16,0,0.33-0.02,0.49-0.06s0.3-0.11,0.43-0.19c0.12-0.09,0.23-0.19,0.3-0.33
		c0.08-0.13,0.12-0.29,0.12-0.47C403.27,21.06,403.22,20.89,403.13,20.75z"/>
</g>
</svg>
