<?xml version="1.0" encoding="utf-8"?>
<!-- Generator: Adobe Illustrator 27.0.1, SVG Export Plug-In . SVG Version: 6.00 Build 0)  -->
<svg version="1.1" id="Capa_1" xmlns="http://www.w3.org/2000/svg" xmlns:xlink="http://www.w3.org/1999/xlink" x="0px" y="0px"
	 viewBox="0 0 155.5 708" style="enable-background:new 0 0 155.5 708;" xml:space="preserve">
<style type="text/css">
	.st0{opacity:0.5;}
	.st1{fill:none;}
	.st2{fill:none;stroke:#1D1D1B;stroke-width:0.25;stroke-linecap:round;stroke-linejoin:round;}
	.st3{opacity:0.35;}
	.st4{fill:none;stroke:#1D1D1B;stroke-width:0.25;stroke-linecap:round;stroke-linejoin:round;stroke-dasharray:0,0.751;}
	.st5{fill:none;stroke:#55A0B8;stroke-width:50;}
	.st6{fill:none;stroke:#55A0B8;stroke-width:10;}
	.st7{opacity:0.15;fill:#55A0B8;}
	.st8{fill:#55A0B8;}
	.st9{fill:#FFFFFF;}
	
		.st10{opacity:0.5;fill:none;stroke:#1D1D1B;stroke-width:0.25;stroke-linecap:round;stroke-linejoin:round;stroke-dasharray:0,0.751;}
</style>
<rect x="9.57" y="63" class="st7" width="50" height="552.48"/>
<rect x="9.57" y="416" class="st8" width="50" height="199.63"/>
<g>
	<g>
		<path class="st9" d="M14.51,427.94v-6.63h1.53c0.46,0.01,0.87,0.08,1.24,0.23c0.36,0.15,0.67,0.36,0.92,0.63
			c0.25,0.27,0.44,0.59,0.57,0.96s0.2,0.79,0.2,1.25v0.49c0,0.46-0.07,0.87-0.2,1.25s-0.32,0.7-0.57,0.96
			c-0.25,0.27-0.56,0.48-0.92,0.63c-0.36,0.15-0.77,0.23-1.24,0.23H14.51z M15.37,422.01v5.25h0.68c0.36,0,0.67-0.07,0.93-0.19
			c0.26-0.12,0.48-0.29,0.65-0.5c0.17-0.21,0.3-0.46,0.38-0.75c0.08-0.29,0.13-0.6,0.13-0.94v-0.5c0-0.34-0.05-0.65-0.13-0.94
			s-0.21-0.54-0.38-0.75s-0.38-0.38-0.65-0.5c-0.26-0.12-0.57-0.19-0.93-0.19H15.37z"/>
		<path class="st9" d="M25.38,425.01c0,0.24-0.02,0.48-0.06,0.72c-0.04,0.24-0.1,0.47-0.18,0.7s-0.18,0.43-0.3,0.63
			s-0.27,0.36-0.44,0.51s-0.36,0.26-0.58,0.34c-0.22,0.08-0.47,0.12-0.74,0.12c-0.27,0-0.52-0.04-0.74-0.12s-0.42-0.2-0.58-0.34
			s-0.32-0.32-0.44-0.51c-0.12-0.2-0.23-0.41-0.31-0.63c-0.08-0.22-0.14-0.46-0.18-0.7c-0.04-0.24-0.06-0.48-0.06-0.71v-0.76
			c0-0.24,0.02-0.48,0.06-0.72s0.1-0.47,0.18-0.7c0.08-0.22,0.18-0.43,0.3-0.63c0.12-0.2,0.27-0.37,0.44-0.51s0.36-0.26,0.58-0.35
			c0.22-0.08,0.47-0.13,0.74-0.13c0.27,0,0.52,0.04,0.74,0.13c0.22,0.08,0.42,0.2,0.59,0.34c0.17,0.15,0.32,0.32,0.44,0.51
			c0.12,0.2,0.22,0.41,0.31,0.63c0.08,0.22,0.14,0.46,0.18,0.7c0.04,0.24,0.06,0.48,0.06,0.72V425.01z M24.54,424.25
			c0-0.16-0.01-0.32-0.03-0.49c-0.02-0.17-0.05-0.34-0.09-0.51c-0.04-0.17-0.1-0.33-0.17-0.48c-0.07-0.15-0.16-0.29-0.27-0.41
			c-0.11-0.12-0.24-0.21-0.39-0.28c-0.15-0.07-0.32-0.1-0.52-0.1c-0.19,0-0.37,0.03-0.51,0.1c-0.15,0.07-0.28,0.16-0.39,0.28
			c-0.11,0.12-0.2,0.25-0.27,0.41c-0.07,0.15-0.13,0.31-0.18,0.48c-0.04,0.17-0.08,0.34-0.1,0.51c-0.02,0.17-0.03,0.33-0.03,0.49
			v0.76c0,0.15,0.01,0.32,0.03,0.49s0.05,0.34,0.1,0.51c0.04,0.17,0.1,0.33,0.18,0.48c0.07,0.16,0.16,0.29,0.27,0.41
			c0.11,0.12,0.24,0.21,0.39,0.28c0.15,0.07,0.32,0.1,0.52,0.1s0.37-0.03,0.52-0.1c0.15-0.07,0.28-0.16,0.39-0.28
			c0.11-0.12,0.2-0.25,0.27-0.4s0.13-0.31,0.17-0.48c0.04-0.17,0.07-0.34,0.09-0.51s0.03-0.34,0.03-0.5V424.25z"/>
		<path class="st9" d="M31.68,427.94h-0.86l-2.57-4.95l-0.01,4.95h-0.85v-6.63h0.86l2.57,4.94l0.01-4.94h0.85V427.94z"/>
		<path class="st9" d="M37.63,424.88h-2.77v2.35h3.23v0.71h-4.07v-6.63h4.03v0.72h-3.19v2.13h2.77V424.88z"/>
		<path class="st9" d="M43.92,426.27c0-0.2-0.05-0.37-0.14-0.51c-0.09-0.14-0.21-0.26-0.36-0.35c-0.15-0.09-0.31-0.17-0.48-0.24
			c-0.17-0.06-0.34-0.12-0.5-0.17c-0.23-0.08-0.47-0.17-0.71-0.27s-0.46-0.24-0.66-0.39c-0.2-0.16-0.36-0.34-0.49-0.55
			s-0.19-0.46-0.19-0.74s0.06-0.54,0.19-0.76s0.29-0.41,0.49-0.57c0.2-0.15,0.43-0.27,0.69-0.35c0.26-0.08,0.52-0.12,0.78-0.12
			c0.29,0,0.57,0.05,0.83,0.14c0.27,0.1,0.5,0.23,0.71,0.4s0.37,0.38,0.5,0.63c0.12,0.25,0.19,0.52,0.2,0.82h-0.87
			c-0.02-0.19-0.07-0.37-0.14-0.52c-0.07-0.16-0.16-0.29-0.28-0.4c-0.12-0.11-0.25-0.2-0.41-0.26c-0.16-0.06-0.34-0.09-0.54-0.09
			c-0.16,0-0.32,0.02-0.47,0.07c-0.15,0.04-0.29,0.11-0.41,0.21c-0.12,0.09-0.22,0.2-0.29,0.34c-0.07,0.13-0.11,0.29-0.11,0.46
			c0,0.19,0.05,0.35,0.15,0.49c0.09,0.13,0.21,0.24,0.36,0.33c0.14,0.09,0.3,0.17,0.47,0.23c0.17,0.06,0.33,0.11,0.48,0.16
			c0.16,0.05,0.33,0.11,0.5,0.18s0.33,0.14,0.48,0.23c0.16,0.08,0.3,0.18,0.43,0.29c0.13,0.11,0.25,0.23,0.35,0.36
			s0.18,0.28,0.23,0.45c0.06,0.16,0.08,0.34,0.08,0.54c0,0.3-0.07,0.56-0.2,0.78c-0.13,0.22-0.3,0.41-0.51,0.55
			c-0.21,0.15-0.45,0.26-0.71,0.33c-0.26,0.07-0.53,0.11-0.79,0.11c-0.29,0-0.58-0.04-0.87-0.14c-0.28-0.09-0.54-0.22-0.76-0.39
			c-0.22-0.17-0.4-0.38-0.54-0.63s-0.21-0.53-0.22-0.84h0.86c0.03,0.21,0.08,0.39,0.17,0.55s0.19,0.29,0.33,0.41
			c0.13,0.11,0.29,0.19,0.46,0.25c0.17,0.06,0.36,0.08,0.57,0.08c0.16,0,0.33-0.02,0.48-0.06s0.3-0.1,0.43-0.19
			c0.12-0.09,0.23-0.2,0.3-0.33C43.88,426.61,43.92,426.45,43.92,426.27z"/>
	</g>
</g>
<g>
	<path class="st8" d="M18.76,74.94h-0.8v-3.06h-2.72v3.06h-0.79v-6.63h0.79v2.85h2.72v-2.85h0.8V74.94z"/>
	<path class="st8" d="M25.38,72.01c0,0.24-0.02,0.48-0.06,0.72c-0.04,0.24-0.1,0.47-0.18,0.7s-0.18,0.43-0.3,0.63
		s-0.27,0.36-0.44,0.51s-0.36,0.26-0.58,0.34c-0.22,0.08-0.47,0.12-0.74,0.12c-0.27,0-0.52-0.04-0.74-0.12s-0.42-0.2-0.58-0.34
		s-0.32-0.32-0.44-0.51c-0.12-0.2-0.23-0.41-0.31-0.63c-0.08-0.22-0.14-0.46-0.18-0.7c-0.04-0.24-0.06-0.48-0.06-0.71v-0.76
		c0-0.24,0.02-0.48,0.06-0.72s0.1-0.47,0.18-0.7c0.08-0.22,0.18-0.43,0.3-0.63c0.12-0.2,0.27-0.37,0.44-0.51s0.36-0.26,0.58-0.35
		c0.22-0.08,0.47-0.13,0.74-0.13c0.27,0,0.52,0.04,0.74,0.13c0.22,0.08,0.42,0.2,0.59,0.34c0.17,0.15,0.32,0.32,0.44,0.51
		c0.12,0.2,0.22,0.41,0.31,0.63c0.08,0.22,0.14,0.46,0.18,0.7c0.04,0.24,0.06,0.48,0.06,0.72V72.01z M24.54,71.25
		c0-0.16-0.01-0.32-0.03-0.49c-0.02-0.17-0.05-0.34-0.09-0.51c-0.04-0.17-0.1-0.33-0.17-0.48c-0.07-0.15-0.16-0.29-0.27-0.41
		c-0.11-0.12-0.24-0.21-0.39-0.28c-0.15-0.07-0.32-0.1-0.52-0.1c-0.19,0-0.37,0.03-0.51,0.1c-0.15,0.07-0.28,0.16-0.39,0.28
		c-0.11,0.12-0.2,0.25-0.27,0.41c-0.07,0.15-0.13,0.31-0.18,0.48c-0.04,0.17-0.08,0.34-0.1,0.51c-0.02,0.17-0.03,0.33-0.03,0.49
		v0.76c0,0.15,0.01,0.32,0.03,0.49s0.05,0.34,0.1,0.51c0.04,0.17,0.1,0.33,0.18,0.48c0.07,0.16,0.16,0.29,0.27,0.41
		c0.11,0.12,0.24,0.21,0.39,0.28c0.15,0.07,0.32,0.1,0.52,0.1s0.37-0.03,0.52-0.1c0.15-0.07,0.28-0.16,0.39-0.28
		c0.11-0.12,0.2-0.25,0.27-0.4s0.13-0.31,0.17-0.48c0.04-0.17,0.07-0.34,0.09-0.51s0.03-0.34,0.03-0.5V71.25z"/>
	<path class="st8" d="M28.45,68.31l1.08,3.31l1.17-3.31h1.05v6.63h-0.82V72.3l0.07-2.77l-1.22,3.57h-0.48l-1.12-3.47l0.07,2.67v2.64
		h-0.82v-6.63H28.45z"/>
	<path class="st8" d="M37.63,71.88h-2.77v2.35h3.23v0.71h-4.07v-6.63h4.03v0.72h-3.19v2.13h2.77V71.88z"/>
	<path class="st8" d="M43.92,73.27c0-0.2-0.05-0.37-0.14-0.51c-0.09-0.14-0.21-0.26-0.36-0.35c-0.15-0.09-0.31-0.17-0.48-0.24
		c-0.17-0.06-0.34-0.12-0.5-0.17c-0.23-0.08-0.47-0.17-0.71-0.27s-0.46-0.24-0.66-0.39c-0.2-0.16-0.36-0.34-0.49-0.55
		s-0.19-0.46-0.19-0.74s0.06-0.54,0.19-0.76s0.29-0.41,0.49-0.57c0.2-0.15,0.43-0.27,0.69-0.35c0.26-0.08,0.52-0.12,0.78-0.12
		c0.29,0,0.57,0.05,0.83,0.14c0.27,0.1,0.5,0.23,0.71,0.4s0.37,0.38,0.5,0.63c0.12,0.25,0.19,0.52,0.2,0.82h-0.87
		c-0.02-0.19-0.07-0.37-0.14-0.52c-0.07-0.16-0.16-0.29-0.28-0.4c-0.12-0.11-0.25-0.2-0.41-0.26c-0.16-0.06-0.34-0.09-0.54-0.09
		c-0.16,0-0.32,0.02-0.47,0.07c-0.15,0.04-0.29,0.11-0.41,0.21c-0.12,0.09-0.22,0.2-0.29,0.34c-0.07,0.13-0.11,0.29-0.11,0.46
		c0,0.19,0.05,0.35,0.15,0.49c0.09,0.13,0.21,0.24,0.36,0.33c0.14,0.09,0.3,0.17,0.47,0.23c0.17,0.06,0.33,0.11,0.48,0.16
		c0.16,0.05,0.33,0.11,0.5,0.18s0.33,0.14,0.48,0.23c0.16,0.08,0.3,0.18,0.43,0.29c0.13,0.11,0.25,0.23,0.35,0.36
		s0.18,0.28,0.23,0.45c0.06,0.16,0.08,0.34,0.08,0.54c0,0.3-0.07,0.56-0.2,0.78c-0.13,0.22-0.3,0.41-0.51,0.55
		c-0.21,0.15-0.45,0.26-0.71,0.33c-0.26,0.07-0.53,0.11-0.79,0.11c-0.29,0-0.58-0.04-0.87-0.14c-0.28-0.09-0.54-0.22-0.76-0.39
		c-0.22-0.17-0.4-0.38-0.54-0.63s-0.21-0.53-0.22-0.84h0.86c0.03,0.21,0.08,0.39,0.17,0.55s0.19,0.29,0.33,0.41
		c0.13,0.11,0.29,0.19,0.46,0.25c0.17,0.06,0.36,0.08,0.57,0.08c0.16,0,0.33-0.02,0.48-0.06s0.3-0.1,0.43-0.19
		c0.12-0.09,0.23-0.2,0.3-0.33C43.88,73.61,43.92,73.45,43.92,73.27z"/>
</g>
<line class="st10" x1="8.32" y1="415.92" x2="138" y2="415.92"/>
<g>
	<g>
		<path class="st8" d="M105.21,429.04l1.1-0.02c0.42-0.01,0.82-0.08,1.2-0.2c0.37-0.12,0.7-0.29,0.98-0.52
			c0.28-0.22,0.5-0.49,0.66-0.81c0.16-0.32,0.23-0.68,0.23-1.1c-0.01-0.43-0.08-0.81-0.22-1.15c-0.14-0.33-0.33-0.62-0.58-0.84
			c-0.25-0.23-0.54-0.4-0.89-0.51c-0.35-0.12-0.73-0.17-1.15-0.16c-0.42,0.01-0.8,0.08-1.15,0.21c-0.35,0.14-0.65,0.33-0.91,0.57
			s-0.45,0.53-0.59,0.87c-0.14,0.34-0.21,0.72-0.21,1.13l-1.09,0.02c0-0.52,0.1-1.01,0.3-1.46c0.2-0.45,0.47-0.84,0.81-1.18
			c0.35-0.33,0.76-0.6,1.24-0.79s1.01-0.29,1.59-0.3c0.57-0.01,1.09,0.06,1.56,0.22c0.48,0.16,0.89,0.39,1.24,0.7
			c0.35,0.31,0.62,0.69,0.82,1.14c0.2,0.45,0.3,0.97,0.31,1.55c0,0.33-0.04,0.64-0.14,0.95c-0.1,0.3-0.25,0.58-0.45,0.85
			c-0.2,0.26-0.43,0.5-0.72,0.71c-0.28,0.21-0.6,0.38-0.95,0.51c0.83,0.22,1.47,0.6,1.91,1.16c0.45,0.55,0.68,1.22,0.69,2
			c0.01,0.59-0.09,1.13-0.29,1.6c-0.2,0.47-0.48,0.87-0.84,1.2c-0.36,0.33-0.79,0.58-1.28,0.76c-0.49,0.18-1.02,0.28-1.59,0.29
			c-0.58,0.01-1.13-0.07-1.64-0.23c-0.51-0.17-0.96-0.41-1.35-0.72c-0.39-0.32-0.7-0.71-0.93-1.17c-0.23-0.46-0.36-0.99-0.38-1.58
			l1.08-0.02c0.02,0.44,0.11,0.83,0.28,1.18c0.17,0.35,0.4,0.65,0.69,0.89c0.29,0.24,0.62,0.43,1,0.56
			c0.38,0.13,0.79,0.19,1.24,0.18c0.43-0.01,0.83-0.07,1.19-0.2s0.68-0.31,0.94-0.55c0.26-0.24,0.46-0.54,0.6-0.89
			c0.14-0.36,0.21-0.76,0.2-1.22c-0.01-0.49-0.11-0.9-0.29-1.24s-0.43-0.62-0.74-0.83c-0.31-0.21-0.67-0.37-1.07-0.46
			c-0.41-0.1-0.84-0.14-1.29-0.14l-1.1,0.02L105.21,429.04z"/>
		<path class="st8" d="M121.86,422.62l0.02,0.99l-0.16,0c-0.89,0.02-1.65,0.18-2.28,0.49c-0.63,0.3-1.15,0.7-1.56,1.2
			c-0.41,0.5-0.72,1.07-0.93,1.71c-0.21,0.65-0.33,1.32-0.36,2.02c0.17-0.25,0.37-0.47,0.6-0.68c0.23-0.21,0.49-0.39,0.77-0.54
			c0.28-0.15,0.58-0.27,0.9-0.36c0.32-0.09,0.65-0.13,0.99-0.14c0.64-0.01,1.2,0.1,1.68,0.34c0.48,0.24,0.88,0.56,1.21,0.95
			s0.57,0.86,0.74,1.38c0.17,0.52,0.25,1.06,0.26,1.62c0.01,0.58-0.06,1.15-0.22,1.69c-0.16,0.55-0.4,1.03-0.72,1.46
			s-0.73,0.77-1.21,1.03c-0.49,0.26-1.05,0.4-1.69,0.41c-0.69,0.01-1.31-0.12-1.84-0.38c-0.54-0.27-0.99-0.62-1.36-1.07
			c-0.37-0.45-0.66-0.96-0.85-1.54c-0.2-0.58-0.31-1.18-0.32-1.8l-0.02-1.17c-0.01-0.63,0.03-1.26,0.11-1.87
			c0.09-0.62,0.23-1.2,0.43-1.76c0.2-0.55,0.46-1.07,0.77-1.55c0.32-0.48,0.71-0.89,1.17-1.24c0.46-0.35,1-0.63,1.62-0.84
			c0.62-0.21,1.32-0.32,2.11-0.34L121.86,422.62z M119.68,428.24c-0.35,0.01-0.68,0.07-1.01,0.18s-0.63,0.27-0.91,0.47
			c-0.28,0.2-0.52,0.44-0.72,0.72c-0.2,0.28-0.36,0.59-0.45,0.92l0.01,0.86c0.01,0.57,0.1,1.1,0.26,1.58
			c0.17,0.48,0.39,0.89,0.68,1.23c0.29,0.34,0.63,0.61,1.02,0.79s0.83,0.28,1.29,0.26c0.46-0.01,0.87-0.11,1.22-0.32
			s0.64-0.48,0.88-0.81s0.41-0.72,0.53-1.15c0.12-0.43,0.17-0.87,0.16-1.33s-0.08-0.89-0.21-1.3c-0.13-0.41-0.32-0.78-0.57-1.09
			c-0.25-0.31-0.56-0.56-0.92-0.75S120.16,428.24,119.68,428.24z"/>
		<path class="st8" d="M126.99,425.11c-0.01-0.33,0.04-0.66,0.13-0.98c0.1-0.32,0.24-0.61,0.42-0.86c0.19-0.25,0.42-0.46,0.71-0.62
			c0.29-0.16,0.62-0.24,0.99-0.24c0.38-0.01,0.72,0.07,1.01,0.21c0.29,0.15,0.53,0.35,0.73,0.59c0.2,0.25,0.35,0.53,0.45,0.84
			c0.11,0.32,0.16,0.64,0.17,0.98l0.01,0.7c0.01,0.33-0.04,0.65-0.13,0.97c-0.09,0.32-0.24,0.6-0.42,0.85
			c-0.19,0.25-0.42,0.46-0.7,0.61c-0.28,0.16-0.61,0.24-0.99,0.24c-0.38,0.01-0.72-0.06-1.01-0.21c-0.29-0.15-0.54-0.34-0.73-0.58
			c-0.2-0.24-0.35-0.52-0.46-0.84s-0.16-0.64-0.17-0.97L126.99,425.11z M127.88,425.79c0,0.22,0.04,0.44,0.09,0.66
			c0.06,0.22,0.15,0.42,0.27,0.59c0.12,0.17,0.27,0.31,0.46,0.42c0.18,0.11,0.4,0.16,0.66,0.15c0.25,0,0.47-0.06,0.64-0.18
			c0.17-0.12,0.32-0.26,0.43-0.44c0.11-0.18,0.19-0.38,0.24-0.6c0.05-0.22,0.08-0.44,0.07-0.66l-0.01-0.7
			c0-0.22-0.04-0.45-0.09-0.67c-0.06-0.22-0.15-0.42-0.26-0.6c-0.12-0.18-0.27-0.32-0.45-0.43s-0.4-0.16-0.66-0.16
			c-0.25,0-0.47,0.06-0.65,0.18s-0.32,0.26-0.43,0.44c-0.11,0.18-0.19,0.38-0.24,0.61c-0.05,0.23-0.08,0.45-0.07,0.67L127.88,425.79
			z M130,434.39l-0.71-0.41l5.24-10l0.71,0.41L130,434.39z M132.85,432.62c0-0.33,0.05-0.65,0.14-0.97
			c0.09-0.32,0.23-0.61,0.42-0.86c0.19-0.25,0.43-0.46,0.71-0.61c0.28-0.16,0.62-0.24,1-0.24c0.38-0.01,0.72,0.06,1,0.21
			c0.29,0.15,0.53,0.34,0.73,0.59s0.35,0.53,0.46,0.84s0.16,0.64,0.17,0.97l0.01,0.71c0,0.33-0.05,0.66-0.14,0.98
			c-0.09,0.32-0.23,0.6-0.42,0.85s-0.43,0.46-0.71,0.61c-0.28,0.16-0.61,0.24-0.99,0.24c-0.38,0.01-0.72-0.06-1.01-0.21
			c-0.29-0.15-0.54-0.34-0.73-0.59c-0.2-0.24-0.35-0.52-0.46-0.84c-0.11-0.31-0.17-0.64-0.18-0.97L132.85,432.62z M133.74,433.32
			c0,0.22,0.03,0.45,0.09,0.67s0.15,0.42,0.27,0.6c0.12,0.18,0.27,0.32,0.45,0.43c0.18,0.11,0.41,0.16,0.67,0.15
			c0.25,0,0.47-0.06,0.65-0.17s0.32-0.26,0.43-0.44c0.11-0.18,0.19-0.38,0.24-0.61s0.08-0.45,0.07-0.67l-0.01-0.71
			c0-0.22-0.03-0.45-0.09-0.67s-0.14-0.42-0.26-0.59c-0.12-0.17-0.27-0.31-0.45-0.42c-0.18-0.11-0.41-0.16-0.67-0.15
			c-0.26,0-0.48,0.06-0.66,0.17c-0.18,0.11-0.32,0.26-0.43,0.44c-0.11,0.18-0.19,0.38-0.24,0.6s-0.07,0.45-0.07,0.67L133.74,433.32z
			"/>
	</g>
</g>
<line class="st10" x1="9" y1="62.92" x2="138" y2="62.92"/>
<g>
	<g>
		<path class="st8" d="M109.73,69.38v0.99h-0.16c-0.88,0.01-1.65,0.15-2.29,0.45c-0.64,0.29-1.16,0.68-1.58,1.17
			c-0.42,0.49-0.74,1.05-0.96,1.7c-0.22,0.64-0.35,1.31-0.39,2.01c0.17-0.24,0.37-0.47,0.61-0.67c0.24-0.21,0.5-0.38,0.78-0.53
			c0.28-0.15,0.58-0.26,0.91-0.34s0.65-0.12,0.99-0.12c0.64,0,1.2,0.12,1.67,0.37c0.47,0.25,0.87,0.57,1.19,0.97
			s0.56,0.87,0.71,1.39c0.16,0.52,0.24,1.07,0.24,1.62c0,0.58-0.08,1.15-0.25,1.69c-0.17,0.54-0.42,1.02-0.75,1.44
			c-0.33,0.42-0.74,0.76-1.23,1.01c-0.49,0.25-1.05,0.38-1.7,0.38c-0.69,0-1.3-0.14-1.83-0.41s-0.98-0.64-1.34-1.09
			c-0.36-0.45-0.64-0.97-0.83-1.55s-0.29-1.18-0.29-1.8v-1.17c0-0.63,0.05-1.25,0.14-1.87c0.1-0.62,0.25-1.2,0.46-1.75
			c0.21-0.55,0.47-1.06,0.8-1.54s0.72-0.88,1.19-1.22c0.47-0.34,1.01-0.61,1.63-0.81s1.32-0.3,2.11-0.3H109.73z M107.46,74.97
			c-0.35,0-0.69,0.05-1.02,0.16c-0.33,0.11-0.64,0.26-0.92,0.46s-0.52,0.43-0.73,0.71s-0.37,0.58-0.47,0.92v0.86
			c0,0.57,0.08,1.1,0.24,1.58s0.38,0.9,0.66,1.24c0.28,0.35,0.62,0.62,1.01,0.81c0.39,0.19,0.82,0.29,1.29,0.28
			c0.46,0,0.87-0.1,1.22-0.3s0.65-0.47,0.89-0.8s0.42-0.71,0.55-1.14c0.12-0.43,0.19-0.87,0.19-1.33s-0.06-0.89-0.19-1.31
			c-0.12-0.42-0.31-0.78-0.56-1.1s-0.55-0.57-0.91-0.76S107.94,74.97,107.46,74.97z"/>
		<path class="st8" d="M122.51,78.47h2.08v0.92h-2.08v3.35h-1.08v-3.35h-6.24v-0.62l6.13-9.29h1.19V78.47z M116.5,78.47h4.93v-7.61
			l-0.52,0.92L116.5,78.47z"/>
		<path class="st8" d="M127.38,71.96c0-0.33,0.05-0.66,0.15-0.98s0.25-0.6,0.44-0.86c0.19-0.25,0.43-0.45,0.72-0.61
			c0.29-0.15,0.62-0.23,1-0.23c0.38,0,0.72,0.08,1.01,0.23c0.29,0.16,0.53,0.36,0.72,0.61s0.34,0.53,0.44,0.85
			c0.1,0.32,0.15,0.64,0.15,0.98v0.7c0,0.33-0.05,0.65-0.15,0.96c-0.1,0.32-0.24,0.6-0.44,0.85c-0.19,0.25-0.43,0.45-0.71,0.6
			c-0.29,0.15-0.62,0.23-0.99,0.23c-0.38,0-0.72-0.08-1.01-0.23c-0.29-0.15-0.53-0.35-0.72-0.6c-0.2-0.25-0.34-0.53-0.44-0.85
			s-0.15-0.64-0.15-0.97V71.96z M128.25,72.66c0,0.22,0.03,0.44,0.08,0.66s0.14,0.42,0.26,0.6c0.12,0.18,0.27,0.32,0.45,0.43
			s0.4,0.16,0.66,0.16c0.25,0,0.47-0.06,0.65-0.17c0.18-0.11,0.32-0.26,0.44-0.43c0.12-0.18,0.2-0.37,0.26-0.59
			c0.05-0.22,0.08-0.44,0.08-0.66v-0.7c0-0.22-0.03-0.45-0.08-0.67s-0.14-0.42-0.26-0.6c-0.12-0.18-0.26-0.32-0.45-0.44
			s-0.4-0.17-0.66-0.17c-0.25,0-0.47,0.06-0.65,0.17s-0.33,0.26-0.44,0.44c-0.12,0.18-0.2,0.38-0.26,0.61
			c-0.05,0.23-0.08,0.45-0.08,0.67V72.66z M130.22,81.29l-0.7-0.42l5.41-9.91l0.7,0.42L130.22,81.29z M133.1,79.57
			c0.01-0.33,0.06-0.65,0.15-0.97c0.1-0.32,0.24-0.6,0.44-0.85c0.2-0.25,0.43-0.45,0.72-0.6c0.29-0.15,0.62-0.23,1-0.23
			s0.72,0.08,1,0.23c0.29,0.15,0.53,0.35,0.72,0.6c0.2,0.25,0.34,0.53,0.44,0.85c0.1,0.32,0.15,0.64,0.16,0.97v0.71
			c-0.01,0.33-0.06,0.66-0.15,0.97c-0.1,0.32-0.24,0.6-0.44,0.85c-0.2,0.25-0.43,0.45-0.72,0.6c-0.29,0.15-0.62,0.23-0.99,0.23
			c-0.38,0-0.72-0.08-1.01-0.23c-0.29-0.15-0.53-0.35-0.72-0.6c-0.2-0.25-0.34-0.53-0.44-0.85c-0.1-0.32-0.15-0.64-0.16-0.97V79.57z
			 M133.98,80.28c0,0.22,0.03,0.45,0.08,0.67s0.14,0.42,0.26,0.6c0.12,0.18,0.26,0.32,0.45,0.43s0.4,0.16,0.66,0.16
			c0.26,0,0.47-0.05,0.65-0.16c0.18-0.11,0.32-0.25,0.44-0.43c0.11-0.18,0.2-0.38,0.25-0.6s0.08-0.44,0.08-0.67v-0.71
			c0-0.22-0.03-0.45-0.08-0.67s-0.14-0.42-0.25-0.6c-0.11-0.18-0.26-0.32-0.44-0.43c-0.18-0.11-0.4-0.16-0.66-0.16
			s-0.48,0.05-0.66,0.16s-0.33,0.25-0.44,0.43c-0.12,0.18-0.2,0.37-0.25,0.6c-0.05,0.22-0.08,0.45-0.08,0.67V80.28z"/>
	</g>
</g>
</svg>
