<?xml version="1.0" encoding="utf-8"?>
<!-- Generator: Adobe Illustrator 27.0.1, SVG Export Plug-In . SVG Version: 6.00 Build 0)  -->
<svg version="1.1" id="Capa_1" xmlns="http://www.w3.org/2000/svg" xmlns:xlink="http://www.w3.org/1999/xlink" x="0px" y="0px"
	 viewBox="0 0 599 309.5" style="enable-background:new 0 0 599 309.5;" xml:space="preserve">
<style type="text/css">
	.st0{opacity:0.15;fill:#55A0B8;}
	.st1{opacity:0.5;}
	.st2{fill:none;}
	.st3{fill:none;stroke:#1D1D1B;stroke-width:0.25;stroke-linecap:round;stroke-linejoin:round;}
	.st4{opacity:0.35;}
	.st5{fill:none;stroke:#1D1D1B;stroke-width:0.25;stroke-linecap:round;stroke-linejoin:round;stroke-dasharray:0,0.751;}
	.st6{fill:none;stroke:#55A0B8;stroke-width:50;}
	.st7{fill:#55A0B8;}
	.st8{fill:#1D1D1B;}
	.st9{fill:none;stroke:#55A0B8;stroke-width:10;}
	
		.st10{opacity:0.5;fill:none;stroke:#1D1D1B;stroke-width:0.25;stroke-linecap:round;stroke-linejoin:round;stroke-dasharray:0,0.751;}
	.st11{fill:#FFFFFF;}
	.st12{fill:none;stroke:#FFFF00;stroke-width:4;stroke-miterlimit:10;}
</style>
<g>
	<path class="st7" d="M5.2,23.57H4.34l-2.57-4.95l-0.01,4.95H0.91v-6.63h0.86l2.57,4.94l0.01-4.94H5.2V23.57z"/>
	<path class="st7" d="M7.51,16.95h4.01v0.73H9.93v5.17h1.59v0.73H7.51v-0.73h1.55v-5.17H7.51V16.95z"/>
	<path class="st7" d="M18.26,21.58c-0.04,0.31-0.12,0.59-0.24,0.84s-0.27,0.48-0.46,0.66c-0.19,0.18-0.42,0.33-0.67,0.43
		c-0.26,0.1-0.55,0.15-0.87,0.15c-0.27,0-0.52-0.04-0.75-0.12c-0.22-0.08-0.42-0.19-0.6-0.32c-0.17-0.14-0.33-0.3-0.45-0.48
		c-0.13-0.18-0.23-0.39-0.31-0.61c-0.08-0.22-0.15-0.45-0.19-0.69c-0.04-0.24-0.06-0.48-0.07-0.73V19.8c0-0.25,0.02-0.49,0.07-0.73
		c0.04-0.24,0.1-0.47,0.19-0.69c0.08-0.22,0.19-0.42,0.31-0.61c0.13-0.19,0.28-0.35,0.45-0.48c0.17-0.14,0.37-0.24,0.59-0.32
		s0.47-0.12,0.75-0.12c0.33,0,0.63,0.05,0.89,0.15c0.26,0.1,0.49,0.25,0.67,0.43c0.19,0.19,0.34,0.41,0.45,0.67
		c0.11,0.26,0.19,0.55,0.23,0.86h-0.84c-0.03-0.2-0.07-0.39-0.14-0.56c-0.07-0.17-0.16-0.33-0.27-0.46
		c-0.11-0.13-0.25-0.23-0.41-0.31s-0.35-0.11-0.58-0.11c-0.2,0-0.38,0.03-0.53,0.1c-0.15,0.07-0.29,0.15-0.4,0.27
		c-0.11,0.11-0.2,0.24-0.28,0.39c-0.08,0.15-0.13,0.31-0.18,0.47c-0.04,0.17-0.08,0.34-0.1,0.51c-0.02,0.17-0.03,0.34-0.03,0.51
		v0.93c0,0.16,0.01,0.33,0.03,0.51c0.02,0.18,0.05,0.35,0.1,0.52c0.05,0.17,0.11,0.33,0.18,0.47c0.07,0.15,0.17,0.28,0.28,0.39
		c0.11,0.11,0.24,0.2,0.4,0.27c0.15,0.07,0.33,0.1,0.53,0.1c0.22,0,0.41-0.03,0.58-0.1s0.3-0.17,0.41-0.29s0.2-0.27,0.27-0.45
		c0.07-0.17,0.11-0.36,0.14-0.56H18.26z"/>
	<path class="st7" d="M23.6,21.86h-2.21l-0.53,1.72h-0.84l2.14-6.63h0.71l2.1,6.63h-0.84L23.6,21.86z M21.61,21.12h1.76l-0.87-2.88
		L21.61,21.12z"/>
	<path class="st7" d="M29.09,20.87h-1.32v2.7h-0.84v-6.63h1.94c0.31,0.01,0.6,0.05,0.87,0.13c0.27,0.08,0.51,0.2,0.72,0.37
		c0.2,0.16,0.37,0.37,0.48,0.62c0.12,0.25,0.17,0.54,0.17,0.87c0,0.22-0.03,0.41-0.09,0.59c-0.06,0.18-0.15,0.34-0.26,0.49
		c-0.11,0.14-0.24,0.27-0.39,0.39c-0.15,0.11-0.32,0.21-0.5,0.29l1.41,2.83l0,0.05h-0.89L29.09,20.87z M27.77,20.18h1.13
		c0.19,0,0.37-0.03,0.53-0.09c0.17-0.06,0.31-0.14,0.44-0.24s0.23-0.24,0.3-0.39c0.07-0.15,0.11-0.33,0.11-0.53
		c0-0.21-0.04-0.4-0.1-0.56c-0.07-0.16-0.17-0.29-0.29-0.4c-0.12-0.11-0.27-0.19-0.44-0.24c-0.17-0.05-0.36-0.08-0.56-0.09h-1.11
		V20.18z"/>
	<path class="st7" d="M36.52,21.86h-2.21l-0.53,1.72h-0.84l2.14-6.63h0.71l2.1,6.63h-0.84L36.52,21.86z M34.54,21.12h1.76
		l-0.87-2.88L34.54,21.12z"/>
	<path class="st7" d="M44.11,22.7c-0.28,0.33-0.6,0.57-0.96,0.73c-0.36,0.16-0.76,0.24-1.19,0.23c-0.27,0-0.52-0.04-0.75-0.12
		c-0.23-0.08-0.44-0.19-0.62-0.33c-0.18-0.14-0.34-0.31-0.48-0.5c-0.14-0.19-0.25-0.4-0.34-0.62c-0.09-0.22-0.16-0.46-0.21-0.7
		c-0.05-0.24-0.07-0.49-0.08-0.74v-0.77c0-0.25,0.03-0.49,0.07-0.74c0.04-0.25,0.1-0.48,0.19-0.7s0.19-0.43,0.32-0.62
		c0.13-0.19,0.28-0.36,0.46-0.5s0.38-0.25,0.6-0.33s0.48-0.12,0.76-0.12c0.31,0,0.59,0.05,0.86,0.14c0.26,0.1,0.49,0.23,0.68,0.41
		c0.19,0.18,0.35,0.39,0.47,0.64c0.12,0.25,0.19,0.53,0.22,0.84h-0.83c-0.03-0.19-0.08-0.37-0.15-0.53
		c-0.07-0.16-0.16-0.3-0.28-0.42c-0.11-0.12-0.25-0.21-0.41-0.27c-0.16-0.07-0.34-0.1-0.55-0.1c-0.2,0-0.38,0.03-0.53,0.1
		c-0.16,0.07-0.29,0.16-0.41,0.28s-0.21,0.25-0.29,0.4c-0.08,0.15-0.14,0.32-0.19,0.49s-0.08,0.34-0.1,0.52s-0.03,0.35-0.03,0.51
		v0.78c0,0.17,0.02,0.34,0.04,0.52c0.03,0.18,0.07,0.35,0.12,0.52s0.12,0.33,0.21,0.48c0.08,0.15,0.19,0.29,0.31,0.4
		c0.12,0.12,0.26,0.21,0.42,0.28c0.16,0.07,0.34,0.1,0.54,0.11c0.12,0,0.24,0,0.36-0.01c0.13-0.01,0.25-0.04,0.37-0.07
		c0.12-0.04,0.23-0.09,0.33-0.15s0.19-0.14,0.26-0.24l0.01-1.49h-1.35v-0.71h2.15L44.11,22.7z"/>
	<path class="st7" d="M50.44,16.95l0.01,4.49c-0.01,0.31-0.06,0.6-0.17,0.87c-0.11,0.27-0.25,0.51-0.45,0.71
		c-0.19,0.2-0.42,0.36-0.68,0.48c-0.26,0.12-0.55,0.17-0.87,0.17c-0.32,0-0.61-0.06-0.88-0.17c-0.26-0.12-0.49-0.27-0.68-0.48
		s-0.33-0.44-0.44-0.71c-0.11-0.27-0.16-0.56-0.16-0.87l0.01-4.49h0.8l0.02,4.49c0,0.2,0.03,0.39,0.09,0.57
		c0.06,0.18,0.14,0.34,0.25,0.48s0.25,0.25,0.41,0.34c0.17,0.08,0.36,0.13,0.57,0.13c0.22,0,0.41-0.04,0.57-0.12s0.3-0.2,0.41-0.34
		c0.11-0.14,0.2-0.3,0.25-0.49c0.06-0.18,0.09-0.37,0.09-0.57l0.01-4.49H50.44z"/>
	<path class="st7" d="M55.91,21.86H53.7l-0.53,1.72h-0.84l2.14-6.63h0.71l2.1,6.63h-0.84L55.91,21.86z M53.92,21.12h1.76l-0.87-2.88
		L53.92,21.12z"/>
</g>
<g>
	<path class="st7" d="M1.75,145.21v2.66H0.91v-6.63h2.15c0.3,0.01,0.58,0.05,0.84,0.14s0.5,0.22,0.7,0.38
		c0.2,0.17,0.36,0.37,0.48,0.62s0.18,0.53,0.18,0.85c0,0.32-0.06,0.6-0.18,0.84s-0.28,0.45-0.48,0.62c-0.2,0.17-0.43,0.29-0.7,0.38
		s-0.55,0.13-0.84,0.14H1.75z M1.75,144.52h1.31c0.19,0,0.37-0.03,0.54-0.09c0.16-0.06,0.31-0.14,0.43-0.25s0.22-0.24,0.28-0.4
		s0.1-0.33,0.1-0.54c0-0.2-0.03-0.38-0.1-0.54s-0.16-0.3-0.28-0.41c-0.12-0.11-0.26-0.2-0.43-0.26s-0.34-0.09-0.54-0.1H1.75V144.52z
		"/>
	<path class="st7" d="M10.94,144.81H8.17v2.35h3.23v0.71H7.33v-6.63h4.03v0.72H8.17v2.13h2.77V144.81z"/>
	<path class="st7" d="M15.95,145.17h-1.32v2.71h-0.84v-6.63h1.94c0.31,0.01,0.6,0.05,0.87,0.13c0.27,0.08,0.51,0.21,0.72,0.37
		c0.2,0.16,0.37,0.37,0.48,0.62c0.12,0.25,0.17,0.54,0.17,0.87c0,0.21-0.03,0.41-0.09,0.59c-0.06,0.18-0.15,0.34-0.26,0.49
		s-0.24,0.28-0.39,0.39c-0.15,0.11-0.32,0.21-0.5,0.29l1.41,2.83l0,0.05h-0.89L15.95,145.17z M14.62,144.48h1.13
		c0.19,0,0.37-0.03,0.53-0.09c0.17-0.05,0.31-0.14,0.44-0.24c0.13-0.11,0.23-0.24,0.3-0.39c0.07-0.15,0.11-0.33,0.11-0.53
		c0-0.21-0.04-0.4-0.1-0.56c-0.07-0.16-0.17-0.29-0.29-0.4c-0.12-0.11-0.27-0.19-0.44-0.24s-0.36-0.08-0.56-0.09h-1.11V144.48z"/>
	<path class="st7" d="M24.38,141.24l0.01,4.49c-0.01,0.31-0.06,0.6-0.17,0.87c-0.11,0.27-0.25,0.51-0.45,0.71s-0.42,0.36-0.68,0.48
		c-0.26,0.12-0.55,0.17-0.87,0.17c-0.32,0-0.61-0.06-0.88-0.17c-0.26-0.12-0.49-0.27-0.68-0.48c-0.19-0.2-0.33-0.44-0.44-0.71
		s-0.16-0.56-0.16-0.87l0.01-4.49h0.8l0.02,4.49c0,0.2,0.03,0.39,0.09,0.57c0.06,0.18,0.14,0.34,0.25,0.48
		c0.11,0.14,0.25,0.25,0.41,0.34c0.17,0.09,0.36,0.13,0.57,0.13c0.22,0,0.41-0.04,0.57-0.12c0.16-0.08,0.3-0.2,0.41-0.34
		c0.11-0.14,0.2-0.3,0.25-0.48c0.06-0.18,0.09-0.37,0.09-0.57l0.01-4.49H24.38z M22.87,139.62h1.02l-1.22,1.21h-0.64L22.87,139.62z"
		/>
</g>
<g>
	<path class="st7" d="M4.63,177.27c0-0.2-0.05-0.38-0.14-0.51c-0.09-0.14-0.21-0.26-0.36-0.35s-0.31-0.18-0.48-0.24
		c-0.17-0.06-0.34-0.12-0.5-0.17c-0.23-0.08-0.47-0.17-0.71-0.27c-0.24-0.11-0.46-0.24-0.66-0.39c-0.2-0.16-0.36-0.34-0.49-0.55
		s-0.19-0.46-0.19-0.74s0.06-0.54,0.19-0.77s0.29-0.41,0.49-0.57s0.43-0.27,0.69-0.35s0.52-0.12,0.78-0.12
		c0.29,0,0.57,0.05,0.83,0.14c0.27,0.1,0.5,0.23,0.71,0.4c0.21,0.17,0.37,0.38,0.5,0.63c0.12,0.25,0.19,0.52,0.2,0.82H4.63
		c-0.02-0.19-0.07-0.37-0.14-0.52c-0.07-0.16-0.16-0.29-0.28-0.4c-0.12-0.11-0.25-0.2-0.41-0.26c-0.16-0.06-0.34-0.09-0.54-0.09
		c-0.16,0-0.32,0.02-0.47,0.07c-0.15,0.04-0.29,0.11-0.41,0.21c-0.12,0.09-0.21,0.2-0.29,0.34s-0.11,0.29-0.11,0.46
		c0,0.19,0.05,0.35,0.15,0.48c0.09,0.13,0.21,0.24,0.36,0.33c0.14,0.09,0.3,0.17,0.47,0.23c0.17,0.06,0.33,0.11,0.48,0.16
		c0.16,0.05,0.33,0.11,0.5,0.18c0.17,0.07,0.33,0.14,0.48,0.23c0.15,0.08,0.3,0.18,0.43,0.29c0.13,0.11,0.25,0.23,0.35,0.36
		c0.1,0.13,0.18,0.28,0.23,0.45c0.06,0.16,0.08,0.34,0.08,0.54c0,0.3-0.07,0.56-0.2,0.78s-0.3,0.41-0.51,0.55
		c-0.21,0.15-0.45,0.26-0.71,0.33c-0.26,0.07-0.53,0.11-0.79,0.11c-0.29,0-0.58-0.04-0.86-0.14c-0.28-0.09-0.54-0.22-0.76-0.39
		c-0.22-0.17-0.41-0.38-0.54-0.63c-0.14-0.25-0.21-0.53-0.22-0.84h0.86c0.03,0.21,0.08,0.39,0.17,0.55c0.08,0.16,0.19,0.29,0.33,0.4
		s0.29,0.2,0.46,0.25c0.17,0.06,0.37,0.08,0.57,0.08c0.16,0,0.33-0.02,0.49-0.06s0.3-0.11,0.43-0.19c0.12-0.09,0.23-0.2,0.3-0.33
		C4.59,177.61,4.63,177.45,4.63,177.27z"/>
	<path class="st7" d="M11.27,175.88H8.5v2.35h3.23v0.71H7.66v-6.63h4.03v0.72H8.5v2.13h2.77V175.88z"/>
	<path class="st7" d="M18.24,178.95h-0.86l-2.57-4.95l-0.01,4.95h-0.85v-6.63h0.86l2.57,4.94l0.01-4.94h0.85V178.95z"/>
	<path class="st7" d="M24.19,175.88h-2.77v2.35h3.23v0.71h-4.07v-6.63h4.03v0.72h-3.19v2.13h2.77V175.88z"/>
	<path class="st7" d="M31.3,178.08c-0.28,0.33-0.6,0.57-0.96,0.73c-0.36,0.16-0.76,0.24-1.19,0.23c-0.27,0-0.52-0.04-0.75-0.12
		c-0.23-0.08-0.44-0.19-0.62-0.33c-0.18-0.14-0.34-0.31-0.48-0.5c-0.14-0.19-0.25-0.4-0.34-0.62c-0.09-0.22-0.16-0.46-0.21-0.7
		s-0.07-0.49-0.08-0.74v-0.77c0-0.25,0.03-0.49,0.07-0.73s0.1-0.48,0.19-0.7s0.19-0.43,0.32-0.63c0.13-0.19,0.28-0.36,0.46-0.5
		c0.18-0.14,0.38-0.25,0.6-0.34s0.48-0.12,0.76-0.12c0.31,0,0.59,0.05,0.86,0.14s0.49,0.23,0.68,0.41s0.35,0.39,0.47,0.64
		c0.12,0.25,0.19,0.53,0.22,0.84h-0.83c-0.03-0.19-0.08-0.37-0.15-0.53c-0.07-0.16-0.16-0.3-0.28-0.42
		c-0.11-0.12-0.25-0.21-0.41-0.27c-0.16-0.07-0.34-0.1-0.55-0.1c-0.2,0-0.38,0.03-0.53,0.1c-0.16,0.07-0.29,0.16-0.41,0.28
		s-0.21,0.25-0.29,0.4c-0.08,0.15-0.14,0.32-0.19,0.49s-0.08,0.34-0.1,0.52c-0.02,0.18-0.03,0.35-0.03,0.51v0.78
		c0,0.17,0.02,0.34,0.04,0.52c0.03,0.18,0.07,0.35,0.12,0.52s0.12,0.33,0.21,0.48c0.08,0.15,0.19,0.29,0.31,0.4s0.26,0.21,0.42,0.28
		c0.16,0.07,0.34,0.1,0.54,0.11c0.12,0,0.24,0,0.36-0.01c0.13-0.01,0.25-0.04,0.37-0.07c0.12-0.04,0.23-0.09,0.33-0.15
		c0.1-0.06,0.19-0.14,0.26-0.24l0.01-1.49h-1.35v-0.71h2.15L31.3,178.08z"/>
	<path class="st7" d="M36.64,177.23h-2.21l-0.53,1.72h-0.84l2.14-6.63h0.71l2.1,6.63h-0.84L36.64,177.23z M34.65,176.5h1.76
		l-0.87-2.88L34.65,176.5z"/>
	<path class="st7" d="M40.88,178.23h3.24v0.71h-4.08v-6.63h0.84V178.23z"/>
</g>
<g>
	<path class="st7" d="M1.95,203.39l1.08,3.31l1.17-3.31h1.05v6.63H4.42v-2.64l0.07-2.77l-1.22,3.57H2.78l-1.12-3.47l0.07,2.67v2.64
		H0.91v-6.63H1.95z"/>
	<path class="st7" d="M10.65,208.31H8.44l-0.53,1.72H7.06l2.14-6.63h0.71l2.1,6.63h-0.84L10.65,208.31z M8.67,207.57h1.76
		l-0.87-2.88L8.67,207.57z"/>
	<path class="st7" d="M14.9,209.31h3.24v0.71h-4.08v-6.63h0.84V209.31z"/>
	<path class="st7" d="M20.41,203.39h4.01v0.73h-1.59v5.17h1.59v0.73h-4.01v-0.73h1.55v-5.17h-1.55V203.39z"/>
</g>
<g class="st1">
	<g>
		<path class="st8" d="M219.81,41.38l-3.23-0.37l0.05-3.31l0.53,0.01l-0.04,2.85l2.21,0.26c-0.11-0.17-0.2-0.36-0.26-0.57
			c-0.06-0.21-0.09-0.44-0.09-0.68c0-0.3,0.06-0.57,0.17-0.81c0.11-0.24,0.26-0.44,0.45-0.61c0.19-0.17,0.42-0.29,0.68-0.38
			c0.26-0.09,0.55-0.13,0.86-0.12c0.31,0,0.59,0.05,0.86,0.13c0.27,0.08,0.5,0.21,0.69,0.37c0.2,0.16,0.35,0.37,0.46,0.62
			c0.11,0.25,0.17,0.54,0.16,0.88c0,0.28-0.05,0.53-0.13,0.77c-0.09,0.23-0.21,0.44-0.37,0.61c-0.16,0.17-0.36,0.32-0.58,0.42
			c-0.23,0.11-0.49,0.17-0.78,0.2l0.01-0.53c0.21-0.02,0.41-0.07,0.58-0.15c0.17-0.08,0.32-0.18,0.44-0.3
			c0.12-0.13,0.21-0.27,0.28-0.45c0.06-0.17,0.1-0.37,0.1-0.58c0-0.24-0.04-0.45-0.12-0.63c-0.08-0.18-0.2-0.33-0.36-0.45
			c-0.16-0.12-0.34-0.21-0.55-0.27s-0.44-0.09-0.68-0.09c-0.23,0-0.45,0.03-0.65,0.09c-0.2,0.07-0.38,0.16-0.53,0.29
			c-0.15,0.13-0.27,0.28-0.36,0.47s-0.13,0.4-0.14,0.63c0,0.14,0,0.27,0.02,0.38c0.02,0.12,0.04,0.23,0.08,0.33
			c0.04,0.1,0.09,0.2,0.14,0.29c0.06,0.09,0.13,0.19,0.21,0.28L219.81,41.38z"/>
		<path class="st8" d="M222.95,33.69c-0.13,0-0.24-0.05-0.32-0.13c-0.09-0.09-0.13-0.2-0.13-0.34c0-0.15,0.05-0.26,0.14-0.34
			s0.2-0.12,0.33-0.12c0.13,0,0.23,0.05,0.31,0.13c0.08,0.08,0.12,0.2,0.12,0.35c0,0.14-0.05,0.25-0.13,0.34
			C223.18,33.65,223.07,33.69,222.95,33.69z"/>
		<path class="st8" d="M220.85,24.76c0.37,0.01,0.72,0.05,1.05,0.14s0.61,0.22,0.86,0.39c0.24,0.17,0.43,0.39,0.57,0.66
			c0.14,0.26,0.21,0.58,0.2,0.94c-0.01,0.36-0.08,0.67-0.23,0.93c-0.15,0.26-0.35,0.47-0.6,0.64c-0.25,0.17-0.54,0.29-0.87,0.37
			c-0.33,0.08-0.68,0.12-1.05,0.11l-1.38-0.02c-0.37-0.01-0.72-0.06-1.05-0.14c-0.33-0.09-0.62-0.22-0.86-0.39
			c-0.25-0.17-0.44-0.39-0.58-0.66c-0.14-0.26-0.21-0.57-0.2-0.93c0.01-0.36,0.08-0.67,0.23-0.93c0.15-0.26,0.35-0.47,0.6-0.64
			s0.54-0.29,0.87-0.37c0.33-0.08,0.68-0.11,1.05-0.11L220.85,24.76z M220.88,28.39c0.12,0,0.24,0,0.35-0.01l-2.66-3.03
			c-0.2,0.04-0.38,0.1-0.54,0.17c-0.17,0.07-0.31,0.17-0.44,0.29s-0.22,0.26-0.29,0.42c-0.07,0.16-0.11,0.35-0.11,0.57
			c0,0.28,0.05,0.52,0.17,0.72c0.12,0.2,0.27,0.36,0.47,0.48c0.2,0.12,0.43,0.22,0.69,0.28s0.53,0.09,0.82,0.09L220.88,28.39z
			 M219.37,25.29c-0.1,0-0.2,0-0.3,0.01l2.66,3.02c0.19-0.04,0.37-0.1,0.53-0.18c0.16-0.08,0.3-0.17,0.42-0.29
			c0.12-0.12,0.21-0.25,0.28-0.41s0.11-0.34,0.11-0.55c0-0.28-0.05-0.52-0.17-0.72s-0.27-0.36-0.47-0.48
			c-0.2-0.12-0.43-0.21-0.69-0.27c-0.26-0.06-0.53-0.09-0.82-0.09L219.37,25.29z"/>
		<path class="st8" d="M220.96,18.3c0.37,0.01,0.72,0.05,1.05,0.14c0.33,0.09,0.61,0.22,0.86,0.39c0.24,0.17,0.43,0.39,0.58,0.66
			c0.14,0.26,0.21,0.58,0.2,0.94c-0.01,0.36-0.08,0.67-0.23,0.93c-0.15,0.26-0.35,0.47-0.6,0.64c-0.25,0.17-0.54,0.29-0.87,0.37
			c-0.33,0.08-0.68,0.12-1.05,0.11l-1.38-0.02c-0.37-0.01-0.72-0.06-1.05-0.14s-0.62-0.22-0.86-0.39c-0.25-0.17-0.44-0.39-0.58-0.66
			c-0.14-0.26-0.21-0.57-0.2-0.93c0-0.36,0.08-0.67,0.23-0.93c0.15-0.26,0.35-0.47,0.6-0.64c0.25-0.17,0.54-0.29,0.88-0.37
			c0.33-0.08,0.68-0.11,1.05-0.11L220.96,18.3z M220.98,21.93c0.12,0,0.24,0,0.35-0.01l-2.66-3.03c-0.19,0.04-0.38,0.1-0.54,0.17
			c-0.17,0.07-0.31,0.17-0.44,0.29c-0.12,0.12-0.22,0.26-0.29,0.42c-0.07,0.16-0.11,0.35-0.11,0.57c0,0.28,0.05,0.52,0.17,0.72
			c0.12,0.2,0.27,0.36,0.47,0.48c0.2,0.12,0.43,0.22,0.69,0.28c0.26,0.06,0.53,0.09,0.82,0.09L220.98,21.93z M219.48,18.83
			c-0.1,0-0.2,0-0.3,0.01l2.66,3.02c0.19-0.04,0.37-0.1,0.53-0.18c0.16-0.08,0.3-0.17,0.42-0.29c0.12-0.12,0.21-0.25,0.28-0.41
			c0.07-0.16,0.1-0.35,0.11-0.55c0-0.28-0.05-0.52-0.17-0.72c-0.12-0.2-0.27-0.36-0.47-0.48c-0.2-0.12-0.43-0.21-0.69-0.27
			s-0.53-0.09-0.82-0.1L219.48,18.83z"/>
		<path class="st8" d="M221.06,11.84c0.37,0.01,0.72,0.05,1.05,0.14c0.33,0.09,0.61,0.22,0.86,0.39c0.24,0.17,0.43,0.39,0.58,0.66
			c0.14,0.26,0.21,0.58,0.2,0.94c-0.01,0.36-0.08,0.67-0.23,0.93c-0.15,0.26-0.35,0.47-0.59,0.64c-0.25,0.17-0.54,0.29-0.87,0.37
			s-0.68,0.12-1.05,0.11l-1.38-0.02c-0.37-0.01-0.72-0.06-1.05-0.14c-0.33-0.09-0.62-0.22-0.86-0.39c-0.25-0.17-0.44-0.39-0.58-0.66
			c-0.14-0.26-0.21-0.57-0.2-0.93c0.01-0.36,0.08-0.67,0.23-0.93s0.35-0.47,0.6-0.64c0.25-0.17,0.54-0.29,0.87-0.37
			s0.68-0.11,1.05-0.11L221.06,11.84z M221.08,15.47c0.12,0,0.24,0,0.35-0.01l-2.66-3.03c-0.19,0.04-0.38,0.1-0.54,0.17
			c-0.17,0.07-0.31,0.17-0.44,0.29c-0.12,0.12-0.22,0.26-0.29,0.42c-0.07,0.16-0.11,0.35-0.11,0.57c0,0.28,0.05,0.52,0.17,0.72
			c0.12,0.2,0.27,0.36,0.47,0.48c0.2,0.12,0.43,0.22,0.69,0.28c0.26,0.06,0.53,0.09,0.82,0.09L221.08,15.47z M219.58,12.36
			c-0.1,0-0.2,0-0.3,0.01l2.66,3.02c0.19-0.04,0.37-0.1,0.53-0.18c0.16-0.08,0.3-0.17,0.42-0.29c0.12-0.12,0.21-0.25,0.28-0.41
			c0.07-0.16,0.1-0.35,0.11-0.55c0-0.28-0.05-0.52-0.17-0.72c-0.12-0.2-0.27-0.36-0.47-0.48c-0.2-0.12-0.43-0.21-0.69-0.27
			c-0.26-0.06-0.53-0.09-0.82-0.09L219.58,12.36z"/>
	</g>
	<g>
		<path class="st8" d="M363.96,46.21l-0.01,0.55l-5.94-0.09l0.76,1.85l-0.51-0.01l-0.92-2.32l0-0.08L363.96,46.21z"/>
		<path class="st8" d="M361.46,38.2c0.37,0.01,0.72,0.05,1.05,0.14s0.61,0.22,0.86,0.39s0.43,0.39,0.57,0.66
			c0.14,0.26,0.21,0.58,0.2,0.94c-0.01,0.36-0.08,0.67-0.23,0.93s-0.35,0.47-0.6,0.64c-0.25,0.17-0.54,0.29-0.87,0.37
			c-0.33,0.08-0.68,0.12-1.05,0.11l-1.38-0.02c-0.37-0.01-0.72-0.06-1.05-0.14c-0.33-0.09-0.62-0.22-0.86-0.39
			c-0.25-0.17-0.44-0.39-0.58-0.66c-0.14-0.26-0.21-0.57-0.2-0.93c0.01-0.36,0.08-0.67,0.23-0.93s0.35-0.47,0.6-0.64
			c0.25-0.17,0.54-0.29,0.87-0.37c0.33-0.08,0.68-0.11,1.05-0.11L361.46,38.2z M361.48,41.83c0.12,0,0.24,0,0.36-0.01l-2.66-3.03
			c-0.19,0.04-0.38,0.1-0.54,0.17c-0.17,0.07-0.31,0.17-0.44,0.29s-0.22,0.26-0.29,0.42s-0.11,0.35-0.11,0.57
			c0,0.28,0.05,0.52,0.17,0.72s0.27,0.36,0.47,0.48s0.43,0.22,0.69,0.27s0.53,0.09,0.82,0.1L361.48,41.83z M359.98,38.72
			c-0.1,0-0.2,0-0.3,0.01l2.66,3.02c0.19-0.04,0.36-0.1,0.53-0.18s0.3-0.17,0.42-0.29c0.12-0.12,0.21-0.25,0.28-0.41
			s0.11-0.34,0.11-0.55c0-0.28-0.05-0.52-0.17-0.72s-0.27-0.36-0.47-0.48s-0.43-0.21-0.69-0.27c-0.26-0.06-0.53-0.09-0.82-0.09
			L359.98,38.72z"/>
		<path class="st8" d="M363.76,34.2c-0.13,0-0.24-0.05-0.32-0.13c-0.09-0.09-0.13-0.2-0.13-0.34c0-0.15,0.05-0.26,0.14-0.34
			s0.2-0.12,0.33-0.12c0.13,0,0.23,0.04,0.31,0.13s0.12,0.2,0.12,0.35c0,0.14-0.05,0.25-0.13,0.34
			C363.99,34.16,363.89,34.2,363.76,34.2z"/>
		<path class="st8" d="M361.66,25.27c0.37,0.01,0.72,0.05,1.05,0.14c0.33,0.09,0.61,0.22,0.86,0.39s0.43,0.39,0.58,0.66
			c0.14,0.26,0.21,0.58,0.2,0.94c-0.01,0.36-0.08,0.67-0.23,0.93c-0.15,0.26-0.35,0.47-0.6,0.64c-0.25,0.17-0.54,0.29-0.87,0.37
			c-0.33,0.08-0.68,0.12-1.05,0.11l-1.38-0.02c-0.37-0.01-0.72-0.06-1.05-0.14c-0.33-0.09-0.62-0.22-0.86-0.39
			c-0.25-0.17-0.44-0.39-0.58-0.66c-0.14-0.26-0.21-0.57-0.2-0.93c0.01-0.36,0.08-0.67,0.23-0.93c0.15-0.26,0.35-0.47,0.6-0.64
			c0.25-0.17,0.54-0.29,0.87-0.37c0.33-0.08,0.68-0.11,1.05-0.11L361.66,25.27z M361.69,28.9c0.12,0,0.24,0,0.35-0.01l-2.66-3.03
			c-0.19,0.04-0.38,0.1-0.54,0.17c-0.17,0.07-0.31,0.17-0.44,0.29c-0.12,0.12-0.22,0.26-0.29,0.42c-0.07,0.16-0.11,0.35-0.11,0.57
			c0,0.28,0.05,0.52,0.17,0.72c0.11,0.2,0.27,0.36,0.47,0.48s0.43,0.22,0.69,0.28c0.26,0.06,0.53,0.09,0.82,0.09L361.69,28.9z
			 M360.18,25.8c-0.1,0-0.2,0-0.3,0.01l2.66,3.02c0.19-0.04,0.36-0.1,0.53-0.18c0.16-0.08,0.3-0.17,0.42-0.29
			c0.12-0.12,0.21-0.25,0.28-0.41c0.07-0.16,0.11-0.35,0.11-0.55c0-0.28-0.05-0.52-0.17-0.72c-0.12-0.2-0.27-0.36-0.47-0.48
			s-0.43-0.21-0.69-0.27s-0.53-0.09-0.82-0.1L360.18,25.8z"/>
		<path class="st8" d="M361.77,18.81c0.37,0.01,0.72,0.05,1.05,0.14c0.33,0.09,0.61,0.22,0.86,0.39c0.24,0.17,0.43,0.39,0.58,0.66
			c0.14,0.26,0.21,0.58,0.2,0.94c-0.01,0.36-0.08,0.67-0.23,0.93c-0.15,0.26-0.35,0.47-0.59,0.64c-0.25,0.17-0.54,0.29-0.87,0.37
			s-0.68,0.12-1.05,0.11l-1.38-0.02c-0.37-0.01-0.72-0.06-1.05-0.14c-0.33-0.09-0.62-0.22-0.86-0.39c-0.25-0.17-0.44-0.39-0.58-0.66
			c-0.14-0.26-0.21-0.57-0.2-0.93c0.01-0.36,0.08-0.67,0.23-0.93s0.35-0.47,0.6-0.64c0.25-0.17,0.54-0.29,0.87-0.37
			c0.33-0.08,0.68-0.11,1.05-0.11L361.77,18.81z M361.79,22.44c0.12,0,0.24,0,0.35-0.01l-2.66-3.03c-0.19,0.04-0.38,0.1-0.54,0.17
			s-0.31,0.17-0.44,0.29c-0.12,0.12-0.22,0.26-0.29,0.42s-0.11,0.35-0.11,0.57c0,0.28,0.05,0.52,0.17,0.72s0.27,0.36,0.47,0.48
			s0.43,0.22,0.69,0.28c0.26,0.06,0.53,0.09,0.82,0.09L361.79,22.44z M360.29,19.33c-0.1,0-0.2,0-0.3,0.01l2.66,3.02
			c0.19-0.04,0.36-0.1,0.53-0.18s0.3-0.17,0.42-0.29c0.12-0.12,0.21-0.25,0.28-0.41c0.07-0.16,0.11-0.35,0.11-0.55
			c0-0.28-0.05-0.52-0.17-0.72c-0.12-0.2-0.28-0.36-0.47-0.48s-0.43-0.21-0.69-0.27c-0.26-0.06-0.53-0.09-0.82-0.09L360.29,19.33z"
			/>
		<path class="st8" d="M361.87,12.35c0.37,0.01,0.72,0.05,1.05,0.14c0.33,0.09,0.61,0.22,0.86,0.39s0.43,0.39,0.58,0.66
			c0.14,0.26,0.21,0.58,0.2,0.94c0,0.36-0.08,0.67-0.23,0.93c-0.15,0.26-0.35,0.47-0.59,0.64c-0.25,0.17-0.54,0.29-0.87,0.37
			c-0.33,0.08-0.68,0.12-1.05,0.11l-1.38-0.02c-0.37-0.01-0.72-0.06-1.05-0.14c-0.33-0.09-0.62-0.22-0.86-0.39s-0.44-0.39-0.58-0.66
			c-0.14-0.26-0.21-0.57-0.2-0.93c0.01-0.36,0.08-0.67,0.23-0.93s0.35-0.47,0.6-0.64s0.54-0.29,0.87-0.37s0.68-0.12,1.05-0.11
			L361.87,12.35z M361.89,15.98c0.12,0,0.24,0,0.36-0.01l-2.66-3.03c-0.19,0.04-0.38,0.1-0.54,0.17c-0.17,0.07-0.31,0.17-0.44,0.29
			c-0.12,0.12-0.22,0.26-0.29,0.42c-0.07,0.16-0.11,0.35-0.11,0.57c0,0.28,0.05,0.52,0.17,0.72s0.27,0.36,0.47,0.48
			c0.2,0.12,0.43,0.21,0.69,0.27c0.26,0.06,0.53,0.09,0.82,0.09L361.89,15.98z M360.39,12.87c-0.1,0-0.2,0-0.3,0.01l2.66,3.02
			c0.19-0.04,0.36-0.1,0.53-0.18s0.3-0.17,0.42-0.29c0.12-0.12,0.21-0.25,0.28-0.41c0.07-0.16,0.11-0.35,0.11-0.55
			c0-0.28-0.05-0.52-0.17-0.72c-0.12-0.2-0.28-0.36-0.47-0.48s-0.43-0.21-0.69-0.27c-0.26-0.06-0.53-0.09-0.82-0.09L360.39,12.87z"
			/>
	</g>
	<g>
		<path class="st8" d="M503.45,46.78l-0.01,0.55l-5.94-0.09l0.76,1.85l-0.51-0.01l-0.92-2.32l0-0.08L503.45,46.78z"/>
		<path class="st8" d="M500.12,42.46l-3.23-0.37l0.05-3.31l0.53,0.01l-0.04,2.85l2.21,0.26c-0.11-0.17-0.2-0.36-0.26-0.57
			s-0.09-0.44-0.09-0.68c0-0.3,0.06-0.57,0.17-0.81c0.11-0.24,0.26-0.45,0.45-0.61c0.19-0.17,0.42-0.29,0.68-0.38
			c0.26-0.09,0.55-0.13,0.86-0.12c0.31,0,0.59,0.05,0.86,0.13c0.27,0.08,0.5,0.21,0.69,0.37c0.2,0.17,0.35,0.37,0.46,0.62
			c0.11,0.25,0.16,0.54,0.16,0.88c0,0.28-0.05,0.53-0.13,0.77c-0.09,0.23-0.21,0.44-0.37,0.61c-0.16,0.17-0.36,0.32-0.58,0.42
			c-0.23,0.11-0.49,0.17-0.78,0.2l0.01-0.53c0.22-0.02,0.41-0.07,0.58-0.15c0.17-0.08,0.32-0.18,0.44-0.3s0.21-0.27,0.28-0.45
			c0.06-0.17,0.1-0.37,0.1-0.58c0-0.24-0.04-0.45-0.12-0.63c-0.08-0.18-0.21-0.33-0.36-0.45s-0.34-0.21-0.55-0.27
			c-0.21-0.06-0.44-0.09-0.68-0.09c-0.23,0-0.45,0.03-0.65,0.09c-0.2,0.06-0.38,0.16-0.53,0.29c-0.15,0.13-0.27,0.29-0.36,0.47
			s-0.13,0.4-0.14,0.63c0,0.14,0,0.27,0.02,0.38s0.04,0.23,0.08,0.33c0.04,0.1,0.09,0.2,0.15,0.29c0.06,0.09,0.13,0.19,0.21,0.28
			L500.12,42.46z"/>
		<path class="st8" d="M503.26,34.76c-0.13,0-0.24-0.05-0.32-0.13c-0.09-0.09-0.13-0.2-0.13-0.34c0-0.15,0.05-0.26,0.14-0.34
			s0.2-0.12,0.33-0.12s0.23,0.05,0.31,0.13c0.08,0.09,0.12,0.2,0.12,0.35c0,0.14-0.05,0.26-0.13,0.34
			C503.49,34.73,503.38,34.77,503.26,34.76z"/>
		<path class="st8" d="M501.16,25.84c0.37,0.01,0.72,0.05,1.05,0.14c0.33,0.09,0.61,0.22,0.86,0.39s0.43,0.39,0.58,0.66
			c0.14,0.26,0.21,0.58,0.2,0.94c-0.01,0.36-0.08,0.67-0.23,0.93c-0.15,0.26-0.35,0.47-0.59,0.64c-0.25,0.17-0.54,0.29-0.87,0.37
			s-0.68,0.12-1.05,0.11l-1.38-0.02c-0.37-0.01-0.72-0.06-1.05-0.14s-0.62-0.22-0.86-0.39c-0.25-0.17-0.44-0.39-0.58-0.66
			c-0.14-0.26-0.21-0.57-0.2-0.93c0.01-0.36,0.08-0.67,0.23-0.93c0.15-0.26,0.35-0.47,0.6-0.64s0.54-0.29,0.87-0.37
			c0.33-0.08,0.68-0.11,1.05-0.11L501.16,25.84z M501.19,29.47c0.12,0,0.24,0,0.35-0.01l-2.66-3.03c-0.19,0.04-0.38,0.1-0.54,0.17
			c-0.17,0.07-0.31,0.17-0.44,0.29c-0.12,0.12-0.22,0.26-0.29,0.42s-0.11,0.35-0.11,0.57c0,0.28,0.05,0.52,0.17,0.72
			c0.12,0.2,0.27,0.36,0.47,0.48c0.2,0.12,0.43,0.22,0.69,0.27c0.26,0.06,0.53,0.09,0.82,0.09L501.19,29.47z M499.68,26.36
			c-0.1,0-0.2,0-0.3,0.01l2.66,3.02c0.19-0.04,0.36-0.1,0.53-0.18s0.3-0.17,0.42-0.29c0.12-0.12,0.21-0.26,0.28-0.42
			c0.07-0.16,0.11-0.34,0.11-0.55c0-0.28-0.05-0.52-0.17-0.72c-0.12-0.2-0.28-0.36-0.47-0.48c-0.2-0.12-0.43-0.21-0.69-0.27
			c-0.26-0.06-0.53-0.09-0.82-0.1L499.68,26.36z"/>
		<path class="st8" d="M501.27,19.38c0.37,0.01,0.72,0.05,1.05,0.14c0.33,0.09,0.61,0.22,0.86,0.39c0.24,0.17,0.43,0.39,0.57,0.66
			c0.14,0.26,0.21,0.58,0.2,0.94c0,0.36-0.08,0.67-0.23,0.93c-0.15,0.26-0.35,0.47-0.59,0.64c-0.25,0.17-0.54,0.29-0.87,0.37
			c-0.33,0.08-0.68,0.12-1.05,0.11l-1.38-0.02c-0.37-0.01-0.72-0.06-1.05-0.14s-0.62-0.22-0.86-0.39c-0.25-0.17-0.44-0.39-0.58-0.66
			c-0.14-0.26-0.21-0.57-0.2-0.93c0.01-0.36,0.08-0.67,0.23-0.93c0.15-0.26,0.35-0.47,0.6-0.64c0.25-0.17,0.54-0.29,0.87-0.37
			s0.68-0.11,1.05-0.11L501.27,19.38z M501.29,23.01c0.12,0,0.24,0,0.35-0.01l-2.66-3.03c-0.19,0.04-0.38,0.1-0.54,0.17
			c-0.17,0.07-0.31,0.17-0.44,0.29c-0.12,0.12-0.22,0.26-0.29,0.42c-0.07,0.16-0.11,0.35-0.11,0.57c0,0.28,0.05,0.52,0.17,0.72
			c0.12,0.2,0.27,0.36,0.47,0.48c0.2,0.12,0.43,0.22,0.69,0.27c0.26,0.06,0.53,0.09,0.82,0.09L501.29,23.01z M499.79,19.9
			c-0.1,0-0.2,0-0.3,0.01l2.66,3.02c0.19-0.04,0.36-0.1,0.53-0.18s0.3-0.17,0.42-0.29c0.12-0.12,0.21-0.26,0.28-0.42
			s0.11-0.34,0.11-0.55c0-0.28-0.05-0.52-0.17-0.72c-0.12-0.2-0.27-0.36-0.47-0.48s-0.43-0.21-0.69-0.27
			c-0.26-0.06-0.53-0.09-0.82-0.09L499.79,19.9z"/>
		<path class="st8" d="M501.37,12.92c0.37,0.01,0.72,0.05,1.05,0.14c0.33,0.09,0.61,0.22,0.86,0.39s0.43,0.39,0.57,0.66
			c0.14,0.26,0.21,0.58,0.2,0.94c-0.01,0.36-0.08,0.67-0.23,0.93c-0.15,0.26-0.35,0.47-0.59,0.64c-0.25,0.17-0.54,0.29-0.87,0.37
			c-0.33,0.08-0.68,0.12-1.05,0.11l-1.38-0.02c-0.37-0.01-0.72-0.06-1.05-0.14c-0.33-0.09-0.62-0.22-0.86-0.39s-0.44-0.39-0.58-0.66
			c-0.14-0.26-0.21-0.57-0.2-0.93c0-0.36,0.08-0.67,0.23-0.93c0.15-0.26,0.35-0.47,0.6-0.64s0.54-0.29,0.87-0.37
			s0.68-0.12,1.05-0.11L501.37,12.92z M501.39,16.55c0.12,0,0.24,0,0.35-0.01l-2.66-3.03c-0.19,0.04-0.38,0.1-0.54,0.17
			c-0.17,0.07-0.31,0.17-0.44,0.29c-0.12,0.12-0.22,0.26-0.29,0.42c-0.07,0.16-0.11,0.35-0.11,0.57c0,0.28,0.05,0.52,0.17,0.72
			c0.12,0.2,0.27,0.36,0.47,0.48c0.2,0.12,0.43,0.21,0.69,0.27c0.26,0.06,0.53,0.09,0.82,0.1L501.39,16.55z M499.89,13.44
			c-0.1,0-0.2,0-0.3,0.01l2.66,3.02c0.19-0.04,0.36-0.1,0.53-0.18c0.16-0.08,0.3-0.17,0.42-0.29c0.12-0.12,0.21-0.26,0.28-0.42
			s0.11-0.34,0.11-0.55c0-0.28-0.05-0.52-0.17-0.72s-0.27-0.36-0.47-0.48s-0.43-0.21-0.69-0.27c-0.26-0.06-0.53-0.09-0.82-0.09
			L499.89,13.44z"/>
	</g>
</g>
<path class="st3" d="M72.99,307.51L72.99,307.51 M72.99,11.23L72.99,11.23"/>
<path class="st3" d="M128.93,307.51L128.93,307.51 M128.93,11.23L128.93,11.23"/>
<path class="st3" d="M184.48,307.51L184.48,307.51 M184.48,11.23L184.48,11.23"/>
<path class="st3" d="M240.03,307.51L240.03,307.51 M240.03,11.23L240.03,11.23"/>
<path class="st3" d="M296.75,307.51L296.75,307.51 M296.75,11.23L296.75,11.23"/>
<path class="st3" d="M352.69,307.51L352.69,307.51 M352.69,11.23L352.69,11.23"/>
<path class="st3" d="M408.63,307.51L408.63,307.51 M408.63,11.23L408.63,11.23"/>
<path class="st3" d="M464.18,307.51L464.18,307.51 M464.18,11.23L464.18,11.23"/>
<path class="st3" d="M520.12,307.51L520.12,307.51 M520.12,11.23L520.12,11.23"/>
<path class="st3" d="M576.26,307.51L576.26,307.51 M576.26,11.23L576.26,11.23"/>
<g class="st4">
	<line class="st5" x1="72.86" y1="11.49" x2="72.75" y2="302.86"/>
	<line class="st5" x1="100.78" y1="11.51" x2="100.67" y2="302.88"/>
	<line class="st5" x1="128.7" y1="11.53" x2="128.59" y2="302.9"/>
	<line class="st5" x1="156.62" y1="11.55" x2="156.51" y2="302.92"/>
	<line class="st5" x1="184.54" y1="11.57" x2="184.42" y2="302.93"/>
	<line class="st5" x1="212.46" y1="11.59" x2="212.34" y2="302.95"/>
	<line class="st5" x1="268.3" y1="11.6" x2="268.18" y2="302.97"/>
	<line class="st5" x1="379.98" y1="11.62" x2="379.86" y2="302.99"/>
	<line class="st5" x1="296.22" y1="11.64" x2="296.1" y2="303.01"/>
	<line class="st5" x1="324.14" y1="11.68" x2="324.02" y2="303.05"/>
	<line class="st5" x1="352.06" y1="11.72" x2="351.94" y2="303.08"/>
	<line class="st5" x1="407.9" y1="11.66" x2="407.78" y2="303.03"/>
	<line class="st5" x1="240.38" y1="11.7" x2="240.26" y2="303.07"/>
	<line class="st5" x1="435.82" y1="11.74" x2="435.7" y2="303.1"/>
	<line class="st5" x1="463.74" y1="11.75" x2="463.62" y2="303.12"/>
	<line class="st5" x1="491.66" y1="11.77" x2="491.54" y2="303.14"/>
	<line class="st5" x1="519.58" y1="11.77" x2="519.46" y2="303.14"/>
</g>
<line class="st9" x1="72.79" y1="299.74" x2="547" y2="299.74"/>
<g>
	<path class="st7" d="M560.82,302.79h-0.84v-5.55l-1.73,0.66v-0.77l2.51-0.96h0.07V302.79z"/>
	<path class="st7" d="M564.85,299.47l0.33-3.3h3.4v0.82h-2.69l-0.19,1.77c0.13-0.07,0.29-0.14,0.47-0.2
		c0.18-0.06,0.39-0.09,0.63-0.09c0.31,0,0.58,0.05,0.82,0.16c0.24,0.11,0.45,0.26,0.62,0.45c0.17,0.19,0.3,0.43,0.39,0.7
		c0.09,0.27,0.14,0.58,0.14,0.91c0,0.31-0.04,0.61-0.13,0.88c-0.08,0.27-0.21,0.5-0.38,0.7c-0.17,0.2-0.39,0.35-0.65,0.46
		c-0.26,0.11-0.57,0.17-0.92,0.17c-0.27,0-0.52-0.04-0.76-0.11c-0.24-0.08-0.45-0.19-0.64-0.34c-0.19-0.15-0.34-0.34-0.46-0.57
		c-0.12-0.23-0.2-0.5-0.23-0.8h0.8c0.05,0.38,0.19,0.66,0.42,0.86c0.23,0.19,0.52,0.29,0.87,0.29c0.2,0,0.38-0.04,0.53-0.11
		c0.15-0.07,0.28-0.17,0.39-0.3c0.11-0.13,0.18-0.29,0.24-0.48c0.05-0.18,0.08-0.39,0.08-0.62c0-0.21-0.03-0.4-0.09-0.58
		c-0.06-0.18-0.15-0.33-0.26-0.47c-0.11-0.13-0.25-0.23-0.41-0.31s-0.35-0.11-0.56-0.11c-0.14,0-0.26,0.01-0.36,0.03
		c-0.1,0.02-0.19,0.05-0.28,0.08c-0.08,0.04-0.16,0.08-0.23,0.13c-0.07,0.05-0.14,0.11-0.22,0.18L564.85,299.47z"/>
	<path class="st7" d="M572.48,302.25c0-0.09,0.01-0.18,0.04-0.26c0.03-0.08,0.07-0.15,0.12-0.21s0.12-0.11,0.21-0.14
		s0.18-0.05,0.29-0.05s0.21,0.02,0.29,0.05s0.15,0.08,0.21,0.14c0.06,0.06,0.1,0.13,0.13,0.21s0.04,0.16,0.04,0.26
		c0,0.09-0.02,0.17-0.04,0.25c-0.03,0.08-0.07,0.14-0.13,0.2c-0.06,0.06-0.12,0.1-0.21,0.13s-0.18,0.05-0.29,0.05
		s-0.21-0.02-0.29-0.05s-0.15-0.08-0.21-0.13c-0.05-0.06-0.1-0.12-0.12-0.2C572.5,302.42,572.48,302.34,572.48,302.25z"/>
	<path class="st7" d="M578.38,302.05c0.3,0,0.56-0.03,0.79-0.08c0.23-0.05,0.43-0.13,0.59-0.22s0.31-0.21,0.42-0.34
		c0.11-0.13,0.2-0.28,0.28-0.44c0.07-0.16,0.12-0.33,0.16-0.51c0.03-0.18,0.05-0.36,0.06-0.54c-0.07,0.09-0.16,0.18-0.25,0.26
		c-0.09,0.08-0.2,0.15-0.32,0.21c-0.12,0.06-0.25,0.11-0.39,0.14s-0.3,0.05-0.47,0.05c-0.33,0-0.61-0.06-0.85-0.19
		s-0.43-0.3-0.59-0.51c-0.15-0.21-0.27-0.45-0.34-0.71c-0.07-0.27-0.11-0.53-0.11-0.8c0-0.31,0.04-0.61,0.13-0.89
		s0.21-0.52,0.39-0.73c0.17-0.21,0.39-0.37,0.64-0.5c0.26-0.12,0.55-0.18,0.89-0.18c0.25,0,0.48,0.04,0.69,0.11
		c0.21,0.07,0.38,0.17,0.54,0.29c0.16,0.13,0.29,0.28,0.4,0.45c0.11,0.17,0.2,0.36,0.28,0.55s0.12,0.41,0.16,0.62
		s0.05,0.44,0.05,0.65v0.3c0,0.28-0.01,0.57-0.04,0.87c-0.03,0.29-0.08,0.58-0.16,0.86c-0.08,0.28-0.19,0.54-0.34,0.78
		c-0.14,0.24-0.33,0.46-0.57,0.64c-0.23,0.18-0.52,0.33-0.85,0.43s-0.73,0.16-1.19,0.16h-0.09v-0.75H578.38z M579.39,299.88
		c0.14,0,0.28-0.03,0.42-0.07s0.26-0.11,0.37-0.2c0.11-0.09,0.22-0.19,0.3-0.3c0.09-0.12,0.16-0.25,0.21-0.39v-0.27
		c0-0.29-0.04-0.56-0.1-0.79s-0.16-0.43-0.28-0.58c-0.12-0.16-0.25-0.28-0.4-0.37c-0.15-0.08-0.32-0.13-0.49-0.13
		c-0.2,0-0.37,0.04-0.52,0.12c-0.15,0.08-0.28,0.19-0.38,0.33c-0.1,0.14-0.18,0.3-0.24,0.49s-0.08,0.39-0.08,0.61
		c0,0.2,0.02,0.38,0.07,0.57c0.05,0.19,0.12,0.35,0.22,0.5c0.1,0.15,0.22,0.26,0.37,0.35S579.19,299.88,579.39,299.88z"/>
	<path class="st7" d="M584.84,302.05c0.3,0,0.56-0.03,0.79-0.08c0.23-0.05,0.43-0.13,0.59-0.22s0.31-0.21,0.42-0.34
		c0.11-0.13,0.2-0.28,0.28-0.44c0.07-0.16,0.12-0.33,0.16-0.51s0.05-0.36,0.06-0.54c-0.07,0.09-0.16,0.18-0.25,0.26
		c-0.09,0.08-0.2,0.15-0.32,0.21c-0.12,0.06-0.25,0.11-0.39,0.14c-0.14,0.04-0.3,0.05-0.47,0.05c-0.33,0-0.61-0.06-0.85-0.19
		c-0.24-0.13-0.44-0.3-0.59-0.51c-0.16-0.21-0.27-0.45-0.34-0.71c-0.07-0.27-0.11-0.53-0.11-0.8c0-0.31,0.04-0.61,0.13-0.89
		s0.22-0.52,0.39-0.73c0.17-0.21,0.39-0.37,0.64-0.5c0.26-0.12,0.55-0.18,0.89-0.18c0.26,0,0.49,0.04,0.69,0.11
		c0.2,0.07,0.39,0.17,0.54,0.29c0.16,0.13,0.29,0.28,0.4,0.45c0.11,0.17,0.2,0.36,0.28,0.55s0.12,0.41,0.16,0.62
		c0.03,0.22,0.05,0.44,0.05,0.65v0.3c0,0.28-0.01,0.57-0.04,0.87c-0.03,0.29-0.08,0.58-0.16,0.86c-0.08,0.28-0.19,0.54-0.34,0.78
		c-0.15,0.24-0.34,0.46-0.57,0.64c-0.23,0.18-0.52,0.33-0.85,0.43s-0.73,0.16-1.19,0.16h-0.09v-0.75H584.84z M585.85,299.88
		c0.14,0,0.28-0.03,0.42-0.07c0.14-0.05,0.26-0.11,0.37-0.2c0.11-0.09,0.21-0.19,0.3-0.3c0.09-0.12,0.16-0.25,0.21-0.39v-0.27
		c0-0.29-0.03-0.56-0.1-0.79s-0.16-0.43-0.28-0.58c-0.12-0.16-0.25-0.28-0.41-0.37c-0.15-0.08-0.32-0.13-0.49-0.13
		c-0.2,0-0.37,0.04-0.52,0.12c-0.15,0.08-0.28,0.19-0.38,0.33s-0.18,0.3-0.24,0.49s-0.08,0.39-0.08,0.61c0,0.2,0.03,0.38,0.07,0.57
		c0.05,0.19,0.12,0.35,0.22,0.5c0.1,0.15,0.22,0.26,0.37,0.35S585.65,299.88,585.85,299.88z"/>
	<path class="st7" d="M590.7,299.47l0.33-3.3h3.4v0.82h-2.69l-0.19,1.77c0.13-0.07,0.29-0.14,0.47-0.2
		c0.18-0.06,0.39-0.09,0.63-0.09c0.31,0,0.58,0.05,0.82,0.16c0.24,0.11,0.45,0.26,0.62,0.45c0.17,0.19,0.3,0.43,0.39,0.7
		c0.09,0.27,0.14,0.58,0.14,0.91c0,0.31-0.04,0.61-0.13,0.88c-0.08,0.27-0.21,0.5-0.38,0.7c-0.17,0.2-0.39,0.35-0.65,0.46
		c-0.26,0.11-0.57,0.17-0.92,0.17c-0.27,0-0.53-0.04-0.76-0.11c-0.24-0.08-0.45-0.19-0.64-0.34c-0.19-0.15-0.34-0.34-0.46-0.57
		s-0.19-0.5-0.23-0.8h0.8c0.05,0.38,0.19,0.66,0.42,0.86c0.23,0.19,0.52,0.29,0.87,0.29c0.2,0,0.38-0.04,0.53-0.11
		c0.15-0.07,0.28-0.17,0.39-0.3c0.1-0.13,0.18-0.29,0.24-0.48c0.05-0.18,0.08-0.39,0.08-0.62c0-0.21-0.03-0.4-0.09-0.58
		c-0.06-0.18-0.15-0.33-0.26-0.47c-0.11-0.13-0.25-0.23-0.41-0.31s-0.35-0.11-0.56-0.11c-0.14,0-0.26,0.01-0.36,0.03
		c-0.1,0.02-0.19,0.05-0.28,0.08c-0.08,0.04-0.16,0.08-0.23,0.13c-0.07,0.05-0.15,0.11-0.22,0.18L590.7,299.47z"/>
</g>
<line class="st9" x1="72.79" y1="268.38" x2="394" y2="268.38"/>
<g>
	<g>
		<path class="st7" d="M407.74,272.42h-0.84v-5.55l-1.73,0.66v-0.77l2.51-0.96h0.07V272.42z"/>
		<path class="st7" d="M414.2,272.42h-0.84v-5.55l-1.73,0.66v-0.77l2.51-0.96h0.07V272.42z"/>
		<path class="st7" d="M419.39,271.88c0-0.09,0.01-0.18,0.04-0.26c0.03-0.08,0.07-0.15,0.12-0.21s0.12-0.11,0.21-0.14
			s0.18-0.05,0.29-0.05s0.21,0.02,0.29,0.05s0.15,0.08,0.21,0.14c0.06,0.06,0.1,0.13,0.13,0.21s0.04,0.16,0.04,0.26
			c0,0.09-0.02,0.17-0.04,0.25c-0.03,0.08-0.07,0.14-0.13,0.2c-0.06,0.06-0.12,0.1-0.21,0.13s-0.18,0.05-0.29,0.05
			s-0.21-0.02-0.29-0.05s-0.15-0.08-0.21-0.13c-0.05-0.06-0.1-0.12-0.12-0.2C419.41,272.05,419.39,271.96,419.39,271.88z"/>
		<path class="st7" d="M424.69,269.1l0.33-3.3h3.4v0.82h-2.69l-0.19,1.77c0.13-0.07,0.29-0.14,0.47-0.2
			c0.18-0.06,0.39-0.09,0.63-0.09c0.31,0,0.58,0.05,0.82,0.16c0.24,0.11,0.45,0.26,0.62,0.45c0.17,0.19,0.3,0.43,0.39,0.7
			c0.09,0.27,0.14,0.58,0.14,0.91c0,0.31-0.04,0.61-0.13,0.88c-0.08,0.27-0.21,0.5-0.38,0.7c-0.17,0.2-0.39,0.35-0.65,0.46
			c-0.26,0.11-0.57,0.17-0.92,0.17c-0.27,0-0.53-0.04-0.76-0.11c-0.24-0.08-0.45-0.19-0.64-0.34c-0.19-0.15-0.34-0.34-0.46-0.57
			s-0.19-0.5-0.23-0.8h0.8c0.05,0.38,0.19,0.66,0.42,0.86c0.23,0.19,0.52,0.29,0.87,0.29c0.2,0,0.38-0.04,0.53-0.11
			c0.15-0.07,0.28-0.17,0.39-0.3c0.1-0.13,0.18-0.29,0.24-0.48c0.05-0.18,0.08-0.39,0.08-0.62c0-0.21-0.03-0.4-0.09-0.58
			c-0.06-0.18-0.15-0.33-0.26-0.47c-0.11-0.13-0.25-0.23-0.41-0.31s-0.35-0.11-0.56-0.11c-0.14,0-0.26,0.01-0.36,0.03
			c-0.1,0.02-0.19,0.05-0.28,0.08c-0.08,0.04-0.16,0.08-0.23,0.13c-0.07,0.05-0.15,0.11-0.22,0.18L424.69,269.1z"/>
		<path class="st7" d="M433.96,265.79v0.76h-0.07c-0.28,0-0.53,0.03-0.75,0.09c-0.22,0.06-0.41,0.14-0.58,0.24
			c-0.17,0.1-0.31,0.22-0.43,0.36c-0.12,0.14-0.22,0.29-0.3,0.45c-0.08,0.16-0.14,0.33-0.18,0.51s-0.07,0.36-0.08,0.55
			c0.08-0.1,0.17-0.18,0.27-0.26c0.1-0.08,0.21-0.15,0.33-0.21c0.12-0.06,0.25-0.11,0.39-0.14c0.14-0.04,0.28-0.05,0.44-0.05
			c0.33,0,0.62,0.06,0.86,0.19c0.24,0.13,0.44,0.29,0.59,0.5c0.15,0.21,0.27,0.44,0.34,0.7c0.07,0.26,0.11,0.53,0.11,0.8
			c0,0.31-0.04,0.6-0.13,0.88c-0.09,0.27-0.21,0.51-0.39,0.72c-0.17,0.21-0.39,0.37-0.64,0.48c-0.26,0.12-0.55,0.18-0.89,0.18
			c-0.24,0-0.46-0.04-0.66-0.11c-0.2-0.07-0.38-0.16-0.54-0.28c-0.16-0.12-0.3-0.26-0.41-0.43c-0.12-0.16-0.22-0.34-0.29-0.53
			c-0.08-0.19-0.14-0.38-0.17-0.59c-0.04-0.2-0.06-0.41-0.06-0.61v-0.4c0-0.3,0.02-0.61,0.06-0.91s0.1-0.6,0.19-0.88
			c0.09-0.28,0.21-0.54,0.37-0.79s0.35-0.46,0.58-0.63c0.23-0.18,0.52-0.32,0.84-0.42c0.32-0.1,0.7-0.15,1.14-0.15H433.96z
			 M432.86,268.78c-0.14,0-0.28,0.02-0.41,0.07c-0.13,0.05-0.26,0.11-0.37,0.19c-0.12,0.08-0.22,0.18-0.31,0.3s-0.16,0.24-0.21,0.38
			V270c0,0.29,0.04,0.55,0.11,0.78c0.07,0.23,0.16,0.42,0.28,0.57s0.25,0.27,0.41,0.35c0.16,0.08,0.32,0.12,0.49,0.12
			c0.2,0,0.37-0.04,0.52-0.11s0.28-0.18,0.38-0.31c0.1-0.13,0.18-0.29,0.24-0.48c0.05-0.19,0.08-0.39,0.08-0.61
			c0-0.19-0.02-0.38-0.07-0.57c-0.05-0.18-0.12-0.35-0.22-0.49s-0.23-0.26-0.38-0.34C433.24,268.82,433.06,268.78,432.86,268.78z"/>
		<path class="st7" d="M441.51,266.27l-2.75,6.15h-0.88l2.74-5.89h-3.59v-0.74h4.48V266.27z"/>
	</g>
</g>
<line class="st9" x1="72.79" y1="237.18" x2="255" y2="237.18"/>
<g>
	<g>
		<path class="st7" d="M269.65,234.59v0.76h-0.07c-0.28,0-0.53,0.03-0.75,0.09c-0.22,0.06-0.41,0.14-0.58,0.24
			c-0.17,0.1-0.31,0.22-0.43,0.36c-0.12,0.14-0.22,0.29-0.3,0.45c-0.08,0.16-0.14,0.33-0.18,0.51c-0.04,0.18-0.07,0.36-0.08,0.55
			c0.08-0.1,0.17-0.18,0.27-0.26c0.1-0.08,0.21-0.15,0.33-0.21c0.12-0.06,0.25-0.11,0.39-0.14s0.28-0.05,0.43-0.05
			c0.33,0,0.62,0.06,0.86,0.19c0.24,0.13,0.44,0.29,0.59,0.5c0.15,0.21,0.27,0.44,0.34,0.7c0.07,0.26,0.11,0.53,0.11,0.8
			c0,0.31-0.04,0.6-0.13,0.88c-0.09,0.27-0.22,0.51-0.39,0.72c-0.17,0.21-0.39,0.37-0.64,0.48s-0.55,0.18-0.89,0.18
			c-0.24,0-0.46-0.04-0.66-0.11c-0.2-0.07-0.38-0.16-0.53-0.28c-0.16-0.12-0.3-0.26-0.42-0.43s-0.22-0.34-0.29-0.53
			c-0.08-0.19-0.13-0.38-0.17-0.59s-0.06-0.41-0.06-0.61v-0.4c0-0.3,0.02-0.61,0.06-0.91c0.04-0.3,0.1-0.6,0.19-0.88
			c0.09-0.28,0.21-0.54,0.37-0.79c0.16-0.24,0.35-0.46,0.59-0.63c0.23-0.18,0.51-0.32,0.84-0.42c0.32-0.1,0.7-0.15,1.14-0.15H269.65
			z M268.55,237.58c-0.14,0-0.28,0.02-0.42,0.07c-0.13,0.05-0.26,0.11-0.37,0.19c-0.12,0.08-0.22,0.18-0.31,0.3
			s-0.16,0.24-0.21,0.38v0.28c0,0.29,0.04,0.55,0.11,0.78c0.07,0.23,0.16,0.42,0.28,0.57c0.12,0.15,0.26,0.27,0.41,0.35
			c0.15,0.08,0.32,0.12,0.49,0.12c0.2,0,0.37-0.04,0.52-0.11c0.15-0.08,0.28-0.18,0.38-0.31c0.11-0.13,0.18-0.29,0.24-0.48
			c0.05-0.19,0.08-0.39,0.08-0.61c0-0.19-0.02-0.38-0.07-0.57s-0.12-0.35-0.22-0.49c-0.1-0.14-0.23-0.26-0.38-0.34
			C268.93,237.62,268.75,237.58,268.55,237.58z"/>
		<path class="st7" d="M274.47,240.68c0-0.09,0.01-0.18,0.04-0.26c0.03-0.08,0.07-0.15,0.12-0.21s0.12-0.11,0.21-0.14
			s0.18-0.05,0.29-0.05s0.21,0.02,0.29,0.05s0.15,0.08,0.21,0.14c0.06,0.06,0.1,0.13,0.13,0.21s0.04,0.16,0.04,0.26
			c0,0.09-0.02,0.17-0.04,0.25c-0.03,0.08-0.07,0.14-0.13,0.2c-0.06,0.06-0.12,0.1-0.21,0.13s-0.18,0.05-0.29,0.05
			s-0.21-0.02-0.29-0.05s-0.15-0.08-0.21-0.13c-0.05-0.06-0.1-0.12-0.12-0.2C274.49,240.85,274.47,240.77,274.47,240.68z"/>
		<path class="st7" d="M279.77,237.9l0.33-3.3h3.4v0.82h-2.69l-0.19,1.77c0.13-0.07,0.29-0.14,0.47-0.2
			c0.18-0.06,0.39-0.09,0.63-0.09c0.31,0,0.58,0.05,0.82,0.16c0.24,0.11,0.45,0.26,0.62,0.45c0.17,0.19,0.3,0.43,0.39,0.7
			c0.09,0.27,0.14,0.58,0.14,0.91c0,0.31-0.04,0.61-0.13,0.88c-0.08,0.27-0.21,0.5-0.38,0.7c-0.17,0.2-0.39,0.35-0.65,0.46
			c-0.26,0.11-0.57,0.17-0.92,0.17c-0.27,0-0.52-0.04-0.76-0.11c-0.24-0.08-0.45-0.19-0.64-0.34c-0.19-0.15-0.34-0.34-0.46-0.57
			c-0.12-0.23-0.2-0.5-0.23-0.8h0.8c0.05,0.38,0.19,0.66,0.42,0.86c0.23,0.19,0.52,0.29,0.87,0.29c0.2,0,0.38-0.04,0.53-0.11
			c0.15-0.07,0.28-0.17,0.39-0.3c0.11-0.13,0.18-0.29,0.24-0.48c0.05-0.18,0.08-0.39,0.08-0.62c0-0.21-0.03-0.4-0.09-0.58
			c-0.06-0.18-0.15-0.33-0.26-0.47c-0.11-0.13-0.25-0.23-0.41-0.31s-0.35-0.11-0.56-0.11c-0.14,0-0.26,0.01-0.36,0.03
			c-0.1,0.02-0.19,0.05-0.28,0.08c-0.08,0.04-0.16,0.08-0.23,0.13c-0.07,0.05-0.14,0.11-0.22,0.18L279.77,237.9z"/>
		<path class="st7" d="M286.92,237.51h0.6c0.21,0,0.4-0.03,0.56-0.09c0.16-0.06,0.3-0.14,0.41-0.24c0.11-0.1,0.2-0.22,0.25-0.36
			c0.06-0.14,0.09-0.29,0.09-0.46c0-0.38-0.1-0.68-0.3-0.87c-0.2-0.2-0.49-0.29-0.87-0.29c-0.18,0-0.34,0.03-0.49,0.08
			c-0.15,0.05-0.27,0.13-0.38,0.23c-0.1,0.1-0.19,0.22-0.24,0.36c-0.06,0.14-0.09,0.29-0.09,0.47h-0.85c0-0.25,0.05-0.49,0.15-0.71
			s0.24-0.42,0.42-0.58c0.18-0.17,0.39-0.3,0.64-0.39c0.25-0.1,0.53-0.14,0.83-0.14c0.3,0,0.57,0.04,0.82,0.12
			c0.25,0.08,0.46,0.2,0.63,0.36c0.18,0.16,0.31,0.35,0.41,0.59c0.1,0.23,0.15,0.5,0.15,0.81c0,0.13-0.02,0.26-0.06,0.4
			c-0.04,0.14-0.1,0.27-0.18,0.4c-0.08,0.13-0.19,0.25-0.32,0.36c-0.13,0.12-0.28,0.21-0.46,0.29c0.21,0.07,0.39,0.16,0.54,0.27
			c0.14,0.11,0.26,0.24,0.35,0.38c0.09,0.14,0.15,0.29,0.18,0.44c0.03,0.15,0.05,0.31,0.05,0.46c0,0.31-0.05,0.58-0.16,0.82
			c-0.11,0.24-0.25,0.44-0.44,0.61s-0.41,0.29-0.67,0.38c-0.26,0.09-0.53,0.13-0.83,0.13c-0.29,0-0.57-0.04-0.82-0.12
			s-0.48-0.2-0.67-0.36s-0.34-0.35-0.45-0.58c-0.11-0.23-0.17-0.49-0.17-0.78h0.84c0,0.17,0.03,0.33,0.09,0.47s0.14,0.26,0.25,0.36
			s0.24,0.18,0.4,0.23s0.33,0.08,0.52,0.08c0.19,0,0.36-0.03,0.52-0.08c0.16-0.05,0.29-0.12,0.4-0.23s0.19-0.23,0.25-0.38
			c0.06-0.15,0.09-0.34,0.09-0.54c0-0.21-0.03-0.38-0.1-0.54s-0.16-0.28-0.29-0.38s-0.27-0.17-0.45-0.22
			c-0.17-0.05-0.37-0.07-0.58-0.07h-0.6V237.51z"/>
		<path class="st7" d="M295.5,234.59v0.76h-0.07c-0.28,0-0.53,0.03-0.75,0.09c-0.22,0.06-0.41,0.14-0.58,0.24
			c-0.17,0.1-0.31,0.22-0.43,0.36c-0.12,0.14-0.22,0.29-0.3,0.45c-0.08,0.16-0.14,0.33-0.18,0.51c-0.04,0.18-0.07,0.36-0.08,0.55
			c0.08-0.1,0.17-0.18,0.27-0.26c0.1-0.08,0.21-0.15,0.33-0.21c0.12-0.06,0.25-0.11,0.39-0.14c0.14-0.04,0.28-0.05,0.43-0.05
			c0.33,0,0.62,0.06,0.86,0.19c0.24,0.13,0.44,0.29,0.59,0.5c0.16,0.21,0.27,0.44,0.34,0.7c0.07,0.26,0.11,0.53,0.11,0.8
			c0,0.31-0.04,0.6-0.13,0.88c-0.09,0.27-0.22,0.51-0.39,0.72s-0.39,0.37-0.64,0.48c-0.26,0.12-0.55,0.18-0.89,0.18
			c-0.24,0-0.46-0.04-0.66-0.11c-0.2-0.07-0.38-0.16-0.53-0.28c-0.16-0.12-0.3-0.26-0.42-0.43c-0.12-0.16-0.22-0.34-0.29-0.53
			c-0.08-0.19-0.14-0.38-0.18-0.59c-0.04-0.2-0.06-0.41-0.06-0.61v-0.4c0-0.3,0.02-0.61,0.06-0.91s0.1-0.6,0.19-0.88
			c0.09-0.28,0.21-0.54,0.37-0.79s0.35-0.46,0.58-0.63c0.24-0.18,0.51-0.32,0.84-0.42c0.33-0.1,0.7-0.15,1.14-0.15H295.5z
			 M294.4,237.58c-0.14,0-0.28,0.02-0.42,0.07c-0.13,0.05-0.26,0.11-0.37,0.19s-0.22,0.18-0.3,0.3s-0.16,0.24-0.21,0.38v0.28
			c0,0.29,0.03,0.55,0.1,0.78c0.07,0.23,0.16,0.42,0.28,0.57c0.12,0.15,0.25,0.27,0.41,0.35c0.15,0.08,0.32,0.12,0.49,0.12
			c0.2,0,0.37-0.04,0.52-0.11c0.15-0.08,0.28-0.18,0.38-0.31c0.11-0.13,0.18-0.29,0.24-0.48c0.05-0.19,0.08-0.39,0.08-0.61
			c0-0.19-0.02-0.38-0.07-0.57c-0.05-0.18-0.12-0.35-0.22-0.49s-0.23-0.26-0.38-0.34C294.78,237.62,294.6,237.58,294.4,237.58z"/>
	</g>
</g>
<line class="st9" x1="72.79" y1="206.31" x2="201" y2="206.31"/>
<g>
	<g>
		<path class="st7" d="M216.81,207.8h0.92v0.69h-0.92v1.54h-0.84v-1.54h-3.02v-0.5l2.97-4.59h0.9V207.8z M213.88,207.8h2.09v-3.28
			l-0.14,0.25L213.88,207.8z"/>
		<path class="st7" d="M221.33,209.48c0-0.09,0.01-0.18,0.04-0.26c0.03-0.08,0.07-0.15,0.13-0.21s0.12-0.11,0.2-0.14
			c0.08-0.03,0.18-0.05,0.29-0.05s0.21,0.02,0.29,0.05c0.08,0.03,0.15,0.08,0.21,0.14c0.06,0.06,0.1,0.13,0.13,0.21
			c0.03,0.08,0.04,0.16,0.04,0.26c0,0.09-0.01,0.17-0.04,0.25c-0.03,0.08-0.07,0.14-0.13,0.2c-0.06,0.06-0.13,0.1-0.21,0.13
			c-0.08,0.03-0.18,0.05-0.29,0.05s-0.21-0.02-0.29-0.05c-0.08-0.03-0.15-0.08-0.2-0.13c-0.05-0.06-0.1-0.12-0.13-0.2
			C221.34,209.65,221.33,209.57,221.33,209.48z"/>
		<path class="st7" d="M229.43,203.4v0.76h-0.07c-0.28,0-0.53,0.03-0.75,0.09c-0.22,0.06-0.41,0.14-0.58,0.24
			c-0.17,0.1-0.31,0.22-0.43,0.36c-0.12,0.14-0.22,0.29-0.3,0.45c-0.08,0.16-0.14,0.33-0.18,0.51c-0.04,0.18-0.07,0.36-0.08,0.55
			c0.08-0.1,0.17-0.18,0.27-0.26c0.1-0.08,0.21-0.15,0.33-0.21c0.12-0.06,0.25-0.11,0.39-0.14c0.14-0.04,0.28-0.05,0.43-0.05
			c0.33,0,0.62,0.06,0.86,0.19c0.24,0.13,0.44,0.29,0.59,0.5c0.15,0.21,0.27,0.44,0.34,0.7c0.07,0.26,0.11,0.53,0.11,0.8
			c0,0.31-0.04,0.6-0.13,0.88c-0.09,0.27-0.22,0.51-0.39,0.72c-0.17,0.21-0.39,0.37-0.64,0.48s-0.55,0.18-0.89,0.18
			c-0.24,0-0.46-0.04-0.66-0.11c-0.2-0.07-0.38-0.16-0.54-0.28c-0.16-0.12-0.3-0.26-0.41-0.43s-0.22-0.34-0.29-0.53
			c-0.08-0.19-0.14-0.38-0.17-0.59c-0.04-0.2-0.06-0.41-0.06-0.61v-0.4c0-0.3,0.02-0.61,0.06-0.91c0.04-0.3,0.1-0.6,0.19-0.88
			c0.09-0.28,0.21-0.54,0.37-0.79c0.16-0.24,0.35-0.46,0.58-0.63c0.24-0.18,0.52-0.32,0.84-0.42c0.33-0.1,0.7-0.15,1.14-0.15H229.43
			z M228.33,206.38c-0.14,0-0.28,0.02-0.41,0.07c-0.13,0.05-0.26,0.11-0.37,0.19s-0.22,0.18-0.31,0.3
			c-0.09,0.12-0.16,0.24-0.21,0.38v0.28c0,0.29,0.04,0.55,0.1,0.78c0.07,0.23,0.16,0.42,0.28,0.57s0.25,0.27,0.41,0.35
			c0.15,0.08,0.32,0.12,0.49,0.12c0.2,0,0.37-0.04,0.52-0.11c0.15-0.08,0.28-0.18,0.38-0.31c0.1-0.13,0.18-0.29,0.24-0.48
			c0.05-0.19,0.08-0.39,0.08-0.61c0-0.19-0.02-0.38-0.07-0.57s-0.12-0.35-0.22-0.49c-0.1-0.14-0.23-0.26-0.38-0.34
			C228.71,206.43,228.53,206.38,228.33,206.38z"/>
		<path class="st7" d="M236.2,207.8h0.92v0.69h-0.92v1.54h-0.84v-1.54h-3.02v-0.5l2.97-4.59h0.9V207.8z M233.27,207.8h2.09v-3.28
			l-0.14,0.25L233.27,207.8z"/>
		<path class="st7" d="M243.45,203.88l-2.75,6.15h-0.88l2.74-5.89h-3.59v-0.74h4.48V203.88z"/>
	</g>
</g>
<line class="st9" x1="72.79" y1="175.11" x2="161" y2="175.11"/>
<g>
	<g>
		<path class="st7" d="M173.07,175.12h0.6c0.21,0,0.4-0.03,0.56-0.09c0.16-0.06,0.3-0.14,0.41-0.24c0.11-0.1,0.19-0.22,0.25-0.36
			c0.06-0.14,0.09-0.29,0.09-0.46c0-0.38-0.1-0.68-0.3-0.87c-0.2-0.2-0.49-0.29-0.87-0.29c-0.18,0-0.34,0.03-0.49,0.08
			s-0.27,0.13-0.38,0.23c-0.1,0.1-0.19,0.22-0.24,0.36c-0.06,0.14-0.09,0.29-0.09,0.47h-0.85c0-0.25,0.05-0.49,0.15-0.71
			s0.24-0.42,0.42-0.58c0.18-0.17,0.39-0.3,0.64-0.39c0.25-0.1,0.53-0.14,0.83-0.14c0.3,0,0.57,0.04,0.82,0.12
			c0.25,0.08,0.46,0.2,0.63,0.36c0.18,0.16,0.31,0.35,0.41,0.59c0.1,0.23,0.15,0.5,0.15,0.81c0,0.13-0.02,0.26-0.06,0.4
			c-0.04,0.14-0.1,0.27-0.18,0.4s-0.19,0.25-0.32,0.36c-0.13,0.12-0.28,0.21-0.46,0.29c0.22,0.07,0.4,0.16,0.54,0.27
			c0.14,0.11,0.26,0.24,0.35,0.38c0.09,0.14,0.15,0.29,0.18,0.44c0.04,0.15,0.05,0.31,0.05,0.46c0,0.31-0.05,0.58-0.16,0.82
			s-0.25,0.44-0.44,0.61c-0.19,0.17-0.41,0.29-0.67,0.38c-0.26,0.09-0.53,0.13-0.83,0.13c-0.29,0-0.57-0.04-0.82-0.12
			c-0.26-0.08-0.48-0.2-0.67-0.36c-0.19-0.16-0.34-0.35-0.45-0.58c-0.11-0.23-0.17-0.49-0.17-0.78h0.84c0,0.17,0.03,0.33,0.09,0.47
			c0.06,0.14,0.14,0.26,0.25,0.36s0.24,0.18,0.4,0.23s0.33,0.08,0.52,0.08s0.36-0.03,0.52-0.08c0.16-0.05,0.29-0.12,0.4-0.23
			s0.19-0.23,0.25-0.38c0.06-0.15,0.09-0.34,0.09-0.54c0-0.21-0.03-0.38-0.1-0.54s-0.16-0.28-0.29-0.38s-0.27-0.17-0.45-0.22
			s-0.37-0.07-0.58-0.07h-0.6V175.12z"/>
		<path class="st7" d="M180.01,178.29c0-0.09,0.01-0.18,0.04-0.26c0.03-0.08,0.07-0.15,0.13-0.21s0.12-0.11,0.2-0.14
			c0.08-0.03,0.18-0.05,0.29-0.05s0.21,0.02,0.29,0.05c0.08,0.03,0.15,0.08,0.21,0.14c0.06,0.06,0.1,0.13,0.13,0.21
			c0.03,0.08,0.04,0.16,0.04,0.26c0,0.09-0.01,0.17-0.04,0.25c-0.03,0.08-0.07,0.14-0.13,0.2c-0.06,0.06-0.13,0.1-0.21,0.13
			c-0.08,0.03-0.18,0.05-0.29,0.05s-0.21-0.02-0.29-0.05c-0.08-0.03-0.15-0.08-0.2-0.13c-0.05-0.06-0.1-0.12-0.13-0.2
			C180.03,178.46,180.01,178.38,180.01,178.29z"/>
		<path class="st7" d="M187.74,178.83h-0.84v-5.55l-1.73,0.66v-0.77l2.51-0.96h0.07V178.83z"/>
		<path class="st7" d="M192.38,178.09c0.3,0,0.56-0.03,0.79-0.08s0.43-0.13,0.59-0.22c0.17-0.1,0.31-0.21,0.42-0.34
			c0.11-0.13,0.2-0.28,0.28-0.44c0.07-0.16,0.12-0.33,0.16-0.51c0.03-0.18,0.05-0.36,0.06-0.54c-0.07,0.09-0.16,0.18-0.25,0.26
			c-0.09,0.08-0.2,0.15-0.32,0.21s-0.25,0.11-0.39,0.14c-0.14,0.04-0.3,0.05-0.47,0.05c-0.33,0-0.61-0.06-0.85-0.19
			s-0.43-0.3-0.59-0.51c-0.15-0.21-0.27-0.45-0.34-0.71c-0.07-0.27-0.11-0.53-0.11-0.8c0-0.31,0.04-0.61,0.13-0.89
			c0.09-0.28,0.22-0.52,0.39-0.73c0.17-0.21,0.38-0.37,0.64-0.5s0.55-0.18,0.89-0.18c0.25,0,0.48,0.04,0.69,0.11
			c0.21,0.07,0.39,0.17,0.54,0.29c0.16,0.13,0.29,0.28,0.4,0.45c0.11,0.17,0.2,0.36,0.28,0.55s0.12,0.41,0.16,0.62
			c0.03,0.22,0.05,0.44,0.05,0.65v0.3c0,0.28-0.01,0.57-0.04,0.87c-0.03,0.29-0.08,0.58-0.16,0.86c-0.08,0.28-0.19,0.54-0.34,0.78
			s-0.33,0.46-0.57,0.64c-0.23,0.18-0.52,0.33-0.85,0.43c-0.33,0.11-0.73,0.16-1.19,0.16h-0.09v-0.75H192.38z M193.38,175.92
			c0.14,0,0.28-0.03,0.42-0.07c0.13-0.05,0.26-0.11,0.37-0.2c0.11-0.09,0.21-0.19,0.3-0.3c0.09-0.12,0.16-0.25,0.21-0.39v-0.27
			c0-0.29-0.03-0.56-0.1-0.79s-0.16-0.43-0.28-0.58c-0.12-0.16-0.25-0.28-0.41-0.37c-0.15-0.08-0.32-0.13-0.49-0.13
			c-0.2,0-0.37,0.04-0.52,0.12c-0.15,0.08-0.28,0.19-0.38,0.33c-0.11,0.14-0.18,0.3-0.24,0.49s-0.08,0.39-0.08,0.61
			c0,0.2,0.02,0.38,0.07,0.57c0.05,0.19,0.12,0.35,0.22,0.5c0.1,0.15,0.22,0.26,0.37,0.35S193.18,175.92,193.38,175.92z"/>
		<path class="st7" d="M202.01,173.94c0,0.33-0.09,0.62-0.27,0.88c-0.18,0.26-0.41,0.46-0.71,0.61c0.17,0.07,0.32,0.16,0.46,0.27
			c0.14,0.11,0.26,0.23,0.35,0.37c0.1,0.14,0.17,0.29,0.23,0.46c0.05,0.16,0.08,0.34,0.08,0.52c0,0.3-0.06,0.57-0.17,0.8
			c-0.11,0.23-0.26,0.43-0.45,0.59c-0.19,0.16-0.41,0.28-0.67,0.37c-0.25,0.08-0.53,0.12-0.82,0.12c-0.3,0-0.57-0.04-0.83-0.12
			c-0.26-0.08-0.48-0.2-0.67-0.36c-0.19-0.16-0.34-0.36-0.45-0.59c-0.11-0.23-0.16-0.5-0.16-0.81c0-0.19,0.03-0.36,0.08-0.53
			s0.13-0.32,0.22-0.46c0.1-0.14,0.21-0.26,0.35-0.37s0.29-0.2,0.46-0.27c-0.15-0.07-0.28-0.16-0.4-0.26s-0.22-0.21-0.3-0.34
			c-0.08-0.12-0.15-0.26-0.19-0.41c-0.05-0.15-0.07-0.3-0.07-0.47c0-0.29,0.05-0.54,0.15-0.77c0.1-0.23,0.23-0.42,0.4-0.57
			c0.17-0.16,0.38-0.27,0.62-0.36s0.5-0.12,0.78-0.12c0.28,0,0.54,0.04,0.78,0.12c0.24,0.08,0.45,0.2,0.62,0.36
			c0.18,0.15,0.31,0.34,0.41,0.57C201.96,173.39,202.01,173.65,202.01,173.94z M201.32,177.03c0-0.19-0.03-0.36-0.09-0.51
			s-0.15-0.29-0.26-0.4s-0.25-0.2-0.4-0.26s-0.33-0.09-0.51-0.09c-0.19,0-0.36,0.03-0.52,0.09c-0.15,0.06-0.29,0.15-0.4,0.26
			s-0.19,0.24-0.25,0.4s-0.09,0.32-0.09,0.51c0,0.19,0.03,0.36,0.09,0.51s0.14,0.28,0.25,0.38s0.24,0.18,0.4,0.24
			s0.33,0.08,0.53,0.08c0.19,0,0.36-0.03,0.51-0.08c0.16-0.05,0.29-0.13,0.4-0.24c0.11-0.1,0.2-0.23,0.26-0.38
			S201.32,177.22,201.32,177.03z M201.16,173.95c0-0.17-0.03-0.32-0.08-0.46c-0.06-0.14-0.13-0.26-0.23-0.36
			c-0.1-0.1-0.22-0.18-0.35-0.24c-0.14-0.05-0.29-0.08-0.45-0.08s-0.31,0.03-0.45,0.08c-0.13,0.05-0.25,0.13-0.35,0.23
			c-0.1,0.1-0.17,0.22-0.23,0.36c-0.05,0.14-0.08,0.3-0.08,0.47c0,0.17,0.03,0.33,0.08,0.47c0.05,0.14,0.13,0.26,0.23,0.36
			c0.1,0.1,0.22,0.17,0.35,0.23c0.14,0.05,0.29,0.08,0.45,0.08c0.16,0,0.31-0.03,0.45-0.08c0.14-0.05,0.25-0.13,0.35-0.23
			c0.1-0.1,0.17-0.22,0.23-0.36S201.16,174.12,201.16,173.95z"/>
	</g>
</g>
<line class="st9" x1="72.79" y1="143.59" x2="138" y2="143.59"/>
<g>
	<g>
		<path class="st7" d="M152.84,147.64h-4.34v-0.61l2.17-2.41c0.19-0.21,0.36-0.41,0.49-0.57c0.13-0.17,0.24-0.32,0.31-0.46
			c0.08-0.14,0.13-0.28,0.17-0.4c0.03-0.13,0.05-0.26,0.05-0.39c0-0.16-0.03-0.32-0.08-0.46c-0.05-0.14-0.13-0.27-0.23-0.38
			c-0.1-0.11-0.22-0.19-0.37-0.25c-0.14-0.06-0.31-0.09-0.49-0.09c-0.22,0-0.41,0.03-0.58,0.1c-0.16,0.06-0.3,0.15-0.41,0.27
			s-0.19,0.26-0.24,0.43c-0.05,0.17-0.08,0.35-0.08,0.56h-0.85c0-0.28,0.05-0.54,0.15-0.79c0.1-0.25,0.24-0.46,0.42-0.65
			s0.41-0.33,0.67-0.44c0.26-0.11,0.57-0.16,0.91-0.16c0.31,0,0.59,0.05,0.84,0.14c0.25,0.09,0.46,0.22,0.64,0.38
			c0.17,0.16,0.31,0.36,0.4,0.58c0.09,0.22,0.14,0.47,0.14,0.73c0,0.2-0.03,0.39-0.1,0.58s-0.16,0.38-0.27,0.57
			c-0.11,0.19-0.25,0.37-0.4,0.56s-0.31,0.37-0.48,0.55l-1.78,1.93h3.33V147.64z"/>
		<path class="st7" d="M156.7,147.09c0-0.09,0.01-0.18,0.04-0.26c0.03-0.08,0.07-0.15,0.13-0.21s0.12-0.11,0.2-0.14
			c0.08-0.03,0.18-0.05,0.29-0.05s0.21,0.02,0.29,0.05c0.08,0.03,0.15,0.08,0.21,0.14c0.06,0.06,0.1,0.13,0.13,0.21
			c0.03,0.08,0.04,0.16,0.04,0.26c0,0.09-0.01,0.17-0.04,0.25c-0.03,0.08-0.07,0.14-0.13,0.2c-0.06,0.06-0.13,0.1-0.21,0.13
			c-0.08,0.03-0.18,0.05-0.29,0.05s-0.21-0.02-0.29-0.05c-0.08-0.03-0.15-0.08-0.2-0.13c-0.05-0.06-0.1-0.12-0.13-0.2
			C156.72,147.26,156.7,147.18,156.7,147.09z"/>
		<path class="st7" d="M162.68,143.92h0.6c0.21,0,0.4-0.03,0.56-0.09c0.16-0.06,0.3-0.14,0.41-0.24c0.11-0.1,0.19-0.22,0.25-0.36
			c0.06-0.14,0.09-0.29,0.09-0.46c0-0.38-0.1-0.68-0.3-0.87c-0.2-0.2-0.49-0.29-0.87-0.29c-0.18,0-0.34,0.03-0.49,0.08
			s-0.27,0.13-0.38,0.23c-0.1,0.1-0.19,0.22-0.24,0.36c-0.06,0.14-0.09,0.29-0.09,0.47h-0.85c0-0.25,0.05-0.49,0.15-0.71
			s0.24-0.42,0.42-0.58c0.18-0.17,0.39-0.3,0.64-0.39c0.25-0.1,0.53-0.14,0.83-0.14c0.3,0,0.57,0.04,0.82,0.12
			c0.25,0.08,0.46,0.2,0.63,0.36c0.18,0.16,0.31,0.35,0.41,0.59c0.1,0.23,0.15,0.5,0.15,0.81c0,0.13-0.02,0.26-0.06,0.4
			c-0.04,0.14-0.1,0.27-0.18,0.4s-0.19,0.25-0.32,0.36c-0.13,0.12-0.28,0.21-0.46,0.29c0.22,0.07,0.4,0.16,0.54,0.27
			c0.14,0.11,0.26,0.24,0.35,0.38c0.09,0.14,0.15,0.29,0.18,0.44c0.04,0.15,0.05,0.31,0.05,0.46c0,0.31-0.05,0.58-0.16,0.82
			s-0.25,0.44-0.44,0.61c-0.19,0.17-0.41,0.29-0.67,0.38c-0.26,0.09-0.53,0.13-0.83,0.13c-0.29,0-0.57-0.04-0.82-0.12
			c-0.26-0.08-0.48-0.2-0.67-0.36c-0.19-0.16-0.34-0.35-0.45-0.58c-0.11-0.23-0.17-0.49-0.17-0.78h0.84c0,0.17,0.03,0.33,0.09,0.47
			c0.06,0.14,0.14,0.26,0.25,0.36s0.24,0.18,0.4,0.23s0.33,0.08,0.52,0.08s0.36-0.03,0.52-0.08c0.16-0.05,0.29-0.12,0.4-0.23
			s0.19-0.23,0.25-0.38c0.06-0.15,0.09-0.34,0.09-0.54c0-0.21-0.03-0.38-0.1-0.54s-0.16-0.28-0.29-0.38s-0.27-0.17-0.45-0.22
			s-0.37-0.07-0.58-0.07h-0.6V143.92z"/>
		<path class="st7" d="M168.46,144.31l0.33-3.3h3.4v0.82h-2.69l-0.19,1.77c0.13-0.07,0.29-0.14,0.47-0.2
			c0.18-0.06,0.39-0.09,0.63-0.09c0.31,0,0.58,0.05,0.82,0.16c0.24,0.11,0.45,0.26,0.62,0.45c0.17,0.19,0.3,0.43,0.39,0.7
			c0.09,0.27,0.14,0.58,0.14,0.91c0,0.31-0.04,0.61-0.13,0.88c-0.08,0.27-0.21,0.5-0.38,0.7c-0.17,0.2-0.39,0.35-0.65,0.46
			c-0.26,0.11-0.57,0.17-0.92,0.17c-0.27,0-0.52-0.04-0.76-0.11c-0.24-0.08-0.45-0.19-0.64-0.34s-0.34-0.34-0.46-0.57
			c-0.12-0.23-0.19-0.5-0.22-0.8h0.8c0.05,0.38,0.19,0.66,0.42,0.86c0.23,0.19,0.52,0.29,0.87,0.29c0.2,0,0.38-0.04,0.53-0.11
			c0.15-0.07,0.28-0.17,0.39-0.3c0.11-0.13,0.18-0.29,0.24-0.48c0.05-0.18,0.08-0.39,0.08-0.62c0-0.21-0.03-0.4-0.09-0.58
			c-0.06-0.18-0.15-0.33-0.26-0.47c-0.11-0.13-0.25-0.23-0.41-0.31s-0.35-0.11-0.56-0.11c-0.14,0-0.26,0.01-0.36,0.03
			s-0.19,0.05-0.28,0.08c-0.08,0.04-0.16,0.08-0.23,0.13c-0.07,0.05-0.15,0.11-0.22,0.18L168.46,144.31z"/>
		<path class="st7" d="M177.73,141v0.76h-0.07c-0.28,0-0.53,0.03-0.75,0.09c-0.22,0.06-0.41,0.14-0.58,0.24
			c-0.17,0.1-0.31,0.22-0.43,0.36c-0.12,0.14-0.22,0.29-0.3,0.45c-0.08,0.16-0.14,0.33-0.18,0.51c-0.04,0.18-0.07,0.36-0.08,0.55
			c0.08-0.1,0.17-0.18,0.27-0.26c0.1-0.08,0.21-0.15,0.33-0.21c0.12-0.06,0.25-0.11,0.39-0.14c0.14-0.04,0.28-0.05,0.43-0.05
			c0.33,0,0.62,0.06,0.86,0.19c0.24,0.13,0.44,0.29,0.59,0.5c0.15,0.21,0.27,0.44,0.34,0.7c0.07,0.26,0.11,0.53,0.11,0.8
			c0,0.31-0.04,0.6-0.13,0.88c-0.09,0.27-0.22,0.51-0.39,0.72c-0.17,0.21-0.39,0.37-0.64,0.48s-0.55,0.18-0.89,0.18
			c-0.24,0-0.46-0.04-0.66-0.11c-0.2-0.07-0.38-0.16-0.54-0.28c-0.16-0.12-0.3-0.26-0.41-0.43s-0.22-0.34-0.29-0.53
			c-0.08-0.19-0.14-0.38-0.17-0.59c-0.04-0.2-0.06-0.41-0.06-0.61v-0.4c0-0.3,0.02-0.61,0.06-0.91c0.04-0.3,0.1-0.6,0.19-0.88
			c0.09-0.28,0.21-0.54,0.37-0.79c0.16-0.24,0.35-0.46,0.58-0.63c0.24-0.18,0.52-0.32,0.84-0.42c0.33-0.1,0.7-0.15,1.14-0.15H177.73
			z M176.62,143.99c-0.14,0-0.28,0.02-0.41,0.07c-0.13,0.05-0.26,0.11-0.37,0.19s-0.22,0.18-0.31,0.3
			c-0.09,0.12-0.16,0.24-0.21,0.38v0.28c0,0.29,0.04,0.55,0.1,0.78c0.07,0.23,0.16,0.42,0.28,0.57s0.25,0.27,0.41,0.35
			c0.15,0.08,0.32,0.12,0.49,0.12c0.2,0,0.37-0.04,0.52-0.11c0.15-0.08,0.28-0.18,0.38-0.31c0.1-0.13,0.18-0.29,0.24-0.48
			c0.05-0.19,0.08-0.39,0.08-0.61c0-0.19-0.02-0.38-0.07-0.57s-0.12-0.35-0.22-0.49c-0.1-0.14-0.23-0.26-0.38-0.34
			C177.01,144.03,176.83,143.99,176.62,143.99z"/>
	</g>
</g>
<line class="st9" x1="72.79" y1="112.72" x2="136" y2="112.72"/>
<g>
	<g>
		<path class="st7" d="M150.03,116.44h-4.34v-0.61l2.17-2.41c0.19-0.21,0.36-0.41,0.49-0.57c0.13-0.17,0.24-0.32,0.31-0.46
			c0.08-0.14,0.13-0.28,0.17-0.4c0.03-0.13,0.05-0.26,0.05-0.39c0-0.16-0.03-0.32-0.08-0.46c-0.05-0.14-0.13-0.27-0.23-0.38
			c-0.1-0.11-0.22-0.19-0.37-0.25c-0.14-0.06-0.31-0.09-0.49-0.09c-0.22,0-0.41,0.03-0.58,0.1c-0.16,0.06-0.3,0.15-0.41,0.27
			s-0.19,0.26-0.24,0.43c-0.05,0.17-0.08,0.35-0.08,0.56h-0.85c0-0.28,0.05-0.54,0.15-0.79c0.1-0.25,0.24-0.46,0.42-0.65
			s0.41-0.33,0.67-0.44c0.26-0.11,0.57-0.16,0.91-0.16c0.31,0,0.59,0.05,0.84,0.14c0.25,0.09,0.46,0.22,0.64,0.38
			c0.17,0.16,0.31,0.36,0.4,0.58c0.09,0.22,0.14,0.47,0.14,0.73c0,0.2-0.03,0.39-0.1,0.58s-0.16,0.38-0.27,0.57
			c-0.11,0.19-0.25,0.37-0.4,0.56s-0.31,0.37-0.48,0.55l-1.78,1.93h3.33V116.44z"/>
		<path class="st7" d="M153.9,115.9c0-0.09,0.01-0.18,0.04-0.26c0.03-0.08,0.07-0.15,0.13-0.21s0.12-0.11,0.2-0.14
			c0.08-0.03,0.18-0.05,0.29-0.05s0.21,0.02,0.29,0.05c0.08,0.03,0.15,0.08,0.21,0.14c0.06,0.06,0.1,0.13,0.13,0.21
			c0.03,0.08,0.04,0.16,0.04,0.26c0,0.09-0.01,0.17-0.04,0.25c-0.03,0.08-0.07,0.14-0.13,0.2c-0.06,0.06-0.13,0.1-0.21,0.13
			c-0.08,0.03-0.18,0.05-0.29,0.05s-0.21-0.02-0.29-0.05c-0.08-0.03-0.15-0.08-0.2-0.13c-0.05-0.06-0.1-0.12-0.13-0.2
			C153.91,116.07,153.9,115.98,153.9,115.9z"/>
		<path class="st7" d="M162.96,116.44h-4.34v-0.61l2.17-2.41c0.19-0.21,0.36-0.41,0.49-0.57c0.13-0.17,0.24-0.32,0.31-0.46
			c0.08-0.14,0.13-0.28,0.17-0.4c0.03-0.13,0.05-0.26,0.05-0.39c0-0.16-0.03-0.32-0.08-0.46c-0.05-0.14-0.13-0.27-0.23-0.38
			c-0.1-0.11-0.22-0.19-0.37-0.25c-0.14-0.06-0.31-0.09-0.49-0.09c-0.22,0-0.41,0.03-0.58,0.1c-0.16,0.06-0.3,0.15-0.41,0.27
			s-0.19,0.26-0.24,0.43c-0.05,0.17-0.08,0.35-0.08,0.56h-0.85c0-0.28,0.05-0.54,0.15-0.79c0.1-0.25,0.24-0.46,0.42-0.65
			s0.41-0.33,0.67-0.44c0.26-0.11,0.57-0.16,0.91-0.16c0.31,0,0.59,0.05,0.84,0.14c0.25,0.09,0.46,0.22,0.64,0.38
			c0.17,0.16,0.31,0.36,0.4,0.58c0.09,0.22,0.14,0.47,0.14,0.73c0,0.2-0.03,0.39-0.1,0.58s-0.16,0.38-0.27,0.57
			c-0.11,0.19-0.25,0.37-0.4,0.56s-0.31,0.37-0.48,0.55l-1.78,1.93h3.33V116.44z"/>
		<path class="st7" d="M165.65,113.12l0.33-3.3h3.4v0.82h-2.69l-0.19,1.77c0.13-0.07,0.29-0.14,0.47-0.2
			c0.18-0.06,0.39-0.09,0.63-0.09c0.31,0,0.58,0.05,0.82,0.16c0.24,0.11,0.45,0.26,0.62,0.45c0.17,0.19,0.3,0.43,0.39,0.7
			c0.09,0.27,0.14,0.58,0.14,0.91c0,0.31-0.04,0.61-0.13,0.88c-0.08,0.27-0.21,0.5-0.38,0.7c-0.17,0.2-0.39,0.35-0.65,0.46
			c-0.26,0.11-0.57,0.17-0.92,0.17c-0.27,0-0.52-0.04-0.76-0.11c-0.24-0.08-0.45-0.19-0.64-0.34s-0.34-0.34-0.46-0.57
			c-0.12-0.23-0.19-0.5-0.22-0.8h0.8c0.05,0.38,0.19,0.66,0.42,0.86c0.23,0.19,0.52,0.29,0.87,0.29c0.2,0,0.38-0.04,0.53-0.11
			c0.15-0.07,0.28-0.17,0.39-0.3c0.11-0.13,0.18-0.29,0.24-0.48c0.05-0.18,0.08-0.39,0.08-0.62c0-0.21-0.03-0.4-0.09-0.58
			c-0.06-0.18-0.15-0.33-0.26-0.47c-0.11-0.13-0.25-0.23-0.41-0.31s-0.35-0.11-0.56-0.11c-0.14,0-0.26,0.01-0.36,0.03
			s-0.19,0.05-0.28,0.08c-0.08,0.04-0.16,0.08-0.23,0.13c-0.07,0.05-0.15,0.11-0.22,0.18L165.65,113.12z"/>
		<path class="st7" d="M175.23,114.21h0.92v0.69h-0.92v1.54h-0.84v-1.54h-3.02v-0.5l2.97-4.59h0.9V114.21z M172.3,114.21h2.09v-3.28
			l-0.14,0.25L172.3,114.21z"/>
	</g>
</g>
<line class="st9" x1="72.79" y1="81.36" x2="119" y2="81.36"/>
<g>
	<g>
		<path class="st7" d="M132.86,85.25h-0.84v-5.55l-1.73,0.66v-0.77l2.51-0.96h0.07V85.25z"/>
		<path class="st7" d="M138.05,84.7c0-0.09,0.01-0.18,0.04-0.25c0.03-0.08,0.07-0.15,0.13-0.21s0.12-0.11,0.2-0.14
			c0.08-0.03,0.18-0.05,0.29-0.05s0.21,0.02,0.29,0.05c0.08,0.03,0.15,0.08,0.21,0.14c0.06,0.06,0.1,0.13,0.13,0.21
			c0.03,0.08,0.04,0.16,0.04,0.25c0,0.09-0.01,0.17-0.04,0.25c-0.03,0.08-0.07,0.14-0.13,0.2c-0.06,0.06-0.13,0.1-0.21,0.13
			c-0.08,0.03-0.18,0.05-0.29,0.05s-0.21-0.02-0.29-0.05c-0.08-0.03-0.15-0.08-0.2-0.13c-0.05-0.06-0.1-0.12-0.13-0.2
			C138.07,84.87,138.05,84.79,138.05,84.7z"/>
		<path class="st7" d="M146.15,78.61v0.76h-0.07c-0.28,0-0.53,0.03-0.75,0.09s-0.41,0.14-0.58,0.24c-0.17,0.1-0.31,0.22-0.43,0.36
			c-0.12,0.14-0.22,0.29-0.3,0.45s-0.14,0.34-0.18,0.51c-0.04,0.18-0.07,0.36-0.08,0.55c0.08-0.09,0.17-0.18,0.27-0.26
			s0.21-0.15,0.33-0.21c0.12-0.06,0.25-0.11,0.39-0.14c0.14-0.03,0.28-0.05,0.43-0.05c0.33,0,0.62,0.06,0.86,0.19
			c0.24,0.13,0.44,0.29,0.59,0.5c0.15,0.21,0.27,0.44,0.34,0.7c0.07,0.26,0.11,0.53,0.11,0.8c0,0.31-0.04,0.6-0.13,0.87
			c-0.09,0.27-0.22,0.51-0.39,0.72c-0.17,0.21-0.39,0.37-0.64,0.49s-0.55,0.18-0.89,0.18c-0.24,0-0.46-0.03-0.66-0.1
			c-0.2-0.07-0.38-0.17-0.54-0.29c-0.16-0.12-0.3-0.26-0.41-0.43s-0.22-0.34-0.29-0.53c-0.08-0.19-0.14-0.38-0.17-0.59
			c-0.04-0.2-0.06-0.41-0.06-0.61v-0.4c0-0.3,0.02-0.61,0.06-0.91c0.04-0.31,0.1-0.6,0.19-0.88c0.09-0.28,0.21-0.54,0.37-0.79
			c0.16-0.24,0.35-0.46,0.58-0.63c0.24-0.18,0.52-0.32,0.84-0.42c0.33-0.1,0.7-0.15,1.14-0.15H146.15z M145.05,81.6
			c-0.14,0-0.28,0.02-0.41,0.07c-0.13,0.04-0.26,0.11-0.37,0.19c-0.12,0.08-0.22,0.18-0.31,0.3c-0.09,0.12-0.16,0.24-0.21,0.38v0.28
			c0,0.29,0.04,0.55,0.1,0.78c0.07,0.23,0.16,0.42,0.28,0.57c0.12,0.16,0.25,0.27,0.41,0.35c0.15,0.08,0.32,0.12,0.49,0.12
			c0.2,0,0.37-0.04,0.52-0.11c0.15-0.08,0.28-0.18,0.38-0.31c0.1-0.13,0.18-0.29,0.24-0.48c0.05-0.19,0.08-0.39,0.08-0.61
			c0-0.19-0.02-0.38-0.07-0.57s-0.12-0.35-0.22-0.49c-0.1-0.14-0.23-0.26-0.38-0.34C145.43,81.64,145.25,81.6,145.05,81.6z"/>
		<path class="st7" d="M150.49,81.53h0.6c0.21,0,0.4-0.03,0.56-0.09c0.16-0.06,0.3-0.14,0.41-0.24c0.11-0.1,0.19-0.22,0.25-0.36
			c0.06-0.14,0.09-0.29,0.09-0.46c0-0.39-0.1-0.68-0.3-0.87s-0.49-0.29-0.87-0.29c-0.18,0-0.34,0.03-0.49,0.08s-0.27,0.13-0.38,0.23
			c-0.1,0.1-0.19,0.22-0.24,0.36c-0.06,0.14-0.09,0.3-0.09,0.47h-0.85c0-0.25,0.05-0.49,0.15-0.71c0.1-0.22,0.24-0.42,0.42-0.58
			c0.18-0.17,0.39-0.29,0.64-0.39c0.25-0.1,0.53-0.14,0.83-0.14c0.3,0,0.57,0.04,0.82,0.12c0.25,0.08,0.46,0.2,0.63,0.36
			c0.18,0.16,0.31,0.35,0.41,0.59c0.1,0.23,0.15,0.5,0.15,0.81c0,0.13-0.02,0.26-0.06,0.4c-0.04,0.14-0.1,0.27-0.18,0.4
			s-0.19,0.25-0.32,0.36s-0.28,0.21-0.46,0.28c0.22,0.07,0.4,0.16,0.54,0.27c0.14,0.11,0.26,0.24,0.35,0.38
			c0.09,0.14,0.15,0.29,0.18,0.44c0.04,0.15,0.05,0.31,0.05,0.46c0,0.31-0.05,0.58-0.16,0.82c-0.11,0.24-0.25,0.44-0.44,0.61
			c-0.19,0.17-0.41,0.29-0.67,0.38c-0.26,0.09-0.53,0.13-0.83,0.13c-0.29,0-0.57-0.04-0.82-0.12c-0.26-0.08-0.48-0.2-0.67-0.36
			c-0.19-0.16-0.34-0.35-0.45-0.58c-0.11-0.23-0.17-0.49-0.17-0.78h0.84c0,0.17,0.03,0.33,0.09,0.47c0.06,0.14,0.14,0.26,0.25,0.36
			s0.24,0.18,0.4,0.23s0.33,0.08,0.52,0.08s0.36-0.03,0.52-0.08c0.16-0.05,0.29-0.13,0.4-0.23c0.11-0.1,0.19-0.23,0.25-0.38
			c0.06-0.15,0.09-0.33,0.09-0.54c0-0.21-0.03-0.38-0.1-0.54s-0.16-0.28-0.29-0.38s-0.27-0.17-0.45-0.22
			c-0.17-0.05-0.37-0.07-0.58-0.07h-0.6V81.53z"/>
		<path class="st7" d="M160.04,85.25h-4.34v-0.61l2.17-2.41c0.19-0.22,0.36-0.41,0.49-0.57c0.13-0.17,0.24-0.32,0.31-0.46
			c0.08-0.14,0.13-0.27,0.17-0.4c0.03-0.13,0.05-0.26,0.05-0.39c0-0.16-0.03-0.32-0.08-0.46s-0.13-0.27-0.23-0.38
			c-0.1-0.11-0.22-0.19-0.37-0.25c-0.14-0.06-0.31-0.09-0.49-0.09c-0.22,0-0.41,0.03-0.58,0.1c-0.16,0.06-0.3,0.15-0.41,0.27
			c-0.11,0.12-0.19,0.26-0.24,0.43c-0.05,0.17-0.08,0.35-0.08,0.56h-0.85c0-0.28,0.05-0.54,0.15-0.79c0.1-0.25,0.24-0.46,0.42-0.65
			s0.41-0.33,0.67-0.44c0.26-0.11,0.57-0.16,0.91-0.16c0.31,0,0.59,0.05,0.84,0.14c0.25,0.09,0.46,0.22,0.64,0.38
			c0.17,0.16,0.31,0.36,0.4,0.58c0.09,0.22,0.14,0.47,0.14,0.73c0,0.2-0.03,0.39-0.1,0.58s-0.16,0.38-0.27,0.57
			c-0.11,0.19-0.25,0.38-0.4,0.56s-0.31,0.37-0.48,0.55l-1.78,1.93h3.33V85.25z"/>
	</g>
</g>
<line class="st9" x1="72.79" y1="50.32" x2="117" y2="50.32"/>
<g>
	<g>
		<path class="st7" d="M130.85,55.05h-0.84v-5.55l-1.73,0.66v-0.77l2.51-0.96h0.07V55.05z"/>
		<path class="st7" d="M136.05,54.5c0-0.09,0.01-0.18,0.04-0.25c0.03-0.08,0.07-0.15,0.13-0.21s0.12-0.11,0.2-0.14
			c0.08-0.03,0.18-0.05,0.29-0.05s0.21,0.02,0.29,0.05c0.08,0.03,0.15,0.08,0.21,0.14c0.06,0.06,0.1,0.13,0.13,0.21
			c0.03,0.08,0.04,0.16,0.04,0.25c0,0.09-0.01,0.17-0.04,0.25c-0.03,0.08-0.07,0.14-0.13,0.2c-0.06,0.06-0.13,0.1-0.21,0.13
			c-0.08,0.03-0.18,0.05-0.29,0.05s-0.21-0.02-0.29-0.05c-0.08-0.03-0.15-0.08-0.2-0.13c-0.05-0.06-0.1-0.12-0.13-0.2
			C136.06,54.67,136.05,54.59,136.05,54.5z"/>
		<path class="st7" d="M144.15,48.42v0.76h-0.07c-0.28,0-0.53,0.03-0.75,0.09s-0.41,0.14-0.58,0.24c-0.17,0.1-0.31,0.22-0.43,0.36
			c-0.12,0.14-0.22,0.29-0.3,0.45s-0.14,0.34-0.18,0.51c-0.04,0.18-0.07,0.36-0.08,0.55c0.08-0.09,0.17-0.18,0.27-0.26
			s0.21-0.15,0.33-0.21c0.12-0.06,0.25-0.11,0.39-0.14c0.14-0.03,0.28-0.05,0.43-0.05c0.33,0,0.62,0.06,0.86,0.19
			c0.24,0.13,0.44,0.29,0.59,0.5c0.15,0.21,0.27,0.44,0.34,0.7c0.07,0.26,0.11,0.53,0.11,0.8c0,0.31-0.04,0.6-0.13,0.87
			c-0.09,0.27-0.22,0.51-0.39,0.72c-0.17,0.21-0.39,0.37-0.64,0.49s-0.55,0.18-0.89,0.18c-0.24,0-0.46-0.03-0.66-0.1
			c-0.2-0.07-0.38-0.17-0.54-0.29c-0.16-0.12-0.3-0.26-0.41-0.43s-0.22-0.34-0.29-0.53c-0.08-0.19-0.14-0.38-0.17-0.59
			c-0.04-0.2-0.06-0.41-0.06-0.61v-0.4c0-0.3,0.02-0.61,0.06-0.91c0.04-0.31,0.1-0.6,0.19-0.88c0.09-0.28,0.21-0.54,0.37-0.79
			c0.16-0.24,0.35-0.46,0.58-0.63c0.24-0.18,0.52-0.32,0.84-0.42c0.33-0.1,0.7-0.15,1.14-0.15H144.15z M143.05,51.4
			c-0.14,0-0.28,0.02-0.41,0.07c-0.13,0.04-0.26,0.11-0.37,0.19c-0.12,0.08-0.22,0.18-0.31,0.3c-0.09,0.12-0.16,0.24-0.21,0.38v0.28
			c0,0.29,0.04,0.55,0.1,0.78c0.07,0.23,0.16,0.42,0.28,0.57c0.12,0.16,0.25,0.27,0.41,0.35c0.15,0.08,0.32,0.12,0.49,0.12
			c0.2,0,0.37-0.04,0.52-0.11c0.15-0.08,0.28-0.18,0.38-0.31c0.1-0.13,0.18-0.29,0.24-0.48c0.05-0.19,0.08-0.39,0.08-0.61
			c0-0.19-0.02-0.38-0.07-0.57s-0.12-0.35-0.22-0.49c-0.1-0.14-0.23-0.26-0.38-0.34C143.43,51.44,143.25,51.4,143.05,51.4z"/>
		<path class="st7" d="M151.57,55.05h-4.34v-0.61l2.17-2.41c0.19-0.22,0.36-0.41,0.49-0.57c0.13-0.17,0.24-0.32,0.31-0.46
			c0.08-0.14,0.13-0.27,0.17-0.4c0.03-0.13,0.05-0.26,0.05-0.39c0-0.16-0.03-0.32-0.08-0.46s-0.13-0.27-0.23-0.38
			c-0.1-0.11-0.22-0.19-0.37-0.25c-0.14-0.06-0.31-0.09-0.49-0.09c-0.22,0-0.41,0.03-0.58,0.1c-0.16,0.06-0.3,0.15-0.41,0.27
			c-0.11,0.12-0.19,0.26-0.24,0.43c-0.05,0.17-0.08,0.35-0.08,0.56h-0.85c0-0.28,0.05-0.54,0.15-0.79c0.1-0.25,0.24-0.46,0.42-0.65
			s0.41-0.33,0.67-0.44c0.26-0.11,0.57-0.16,0.91-0.16c0.31,0,0.59,0.05,0.84,0.14c0.25,0.09,0.46,0.22,0.64,0.38
			c0.17,0.16,0.31,0.36,0.4,0.58c0.09,0.22,0.14,0.47,0.14,0.73c0,0.2-0.03,0.39-0.1,0.58s-0.16,0.38-0.27,0.57
			c-0.11,0.19-0.25,0.38-0.4,0.56s-0.31,0.37-0.48,0.55l-1.78,1.93h3.33V55.05z"/>
		<path class="st7" d="M158.04,55.05h-4.34v-0.61l2.17-2.41c0.19-0.22,0.36-0.41,0.49-0.57c0.13-0.17,0.24-0.32,0.31-0.46
			c0.08-0.14,0.13-0.27,0.17-0.4c0.03-0.13,0.05-0.26,0.05-0.39c0-0.16-0.03-0.32-0.08-0.46s-0.13-0.27-0.23-0.38
			c-0.1-0.11-0.22-0.19-0.37-0.25c-0.14-0.06-0.31-0.09-0.49-0.09c-0.22,0-0.41,0.03-0.58,0.1c-0.16,0.06-0.3,0.15-0.41,0.27
			c-0.11,0.12-0.19,0.26-0.24,0.43c-0.05,0.17-0.08,0.35-0.08,0.56h-0.85c0-0.28,0.05-0.54,0.15-0.79c0.1-0.25,0.24-0.46,0.42-0.65
			s0.41-0.33,0.67-0.44c0.26-0.11,0.57-0.16,0.91-0.16c0.31,0,0.59,0.05,0.84,0.14c0.25,0.09,0.46,0.22,0.64,0.38
			c0.17,0.16,0.31,0.36,0.4,0.58c0.09,0.22,0.14,0.47,0.14,0.73c0,0.2-0.03,0.39-0.1,0.58s-0.16,0.38-0.27,0.57
			c-0.11,0.19-0.25,0.38-0.4,0.56s-0.31,0.37-0.48,0.55l-1.78,1.93h3.33V55.05z"/>
	</g>
</g>
<line class="st9" x1="72.79" y1="19.13" x2="108" y2="19.13"/>
<g>
	<g>
		<path class="st7" d="M120.9,23.85h-0.84V18.3l-1.73,0.66v-0.77l2.51-0.97h0.07V23.85z"/>
		<path class="st7" d="M126.1,23.31c0-0.09,0.01-0.18,0.04-0.25c0.03-0.08,0.07-0.15,0.13-0.21s0.12-0.11,0.2-0.14
			c0.08-0.03,0.18-0.05,0.29-0.05s0.21,0.02,0.29,0.05c0.08,0.03,0.15,0.08,0.21,0.14c0.06,0.06,0.1,0.13,0.13,0.21
			c0.03,0.08,0.04,0.16,0.04,0.25c0,0.09-0.01,0.17-0.04,0.25c-0.03,0.08-0.07,0.15-0.13,0.2c-0.06,0.06-0.13,0.1-0.21,0.13
			c-0.08,0.03-0.18,0.05-0.29,0.05s-0.21-0.02-0.29-0.05c-0.08-0.03-0.15-0.08-0.2-0.13c-0.05-0.06-0.1-0.12-0.13-0.2
			C126.12,23.48,126.1,23.39,126.1,23.31z"/>
		<path class="st7" d="M135.16,23.85h-4.34v-0.61l2.17-2.41c0.19-0.22,0.36-0.41,0.49-0.57c0.13-0.17,0.24-0.32,0.31-0.46
			c0.08-0.14,0.13-0.28,0.17-0.4c0.03-0.13,0.05-0.26,0.05-0.39c0-0.16-0.03-0.32-0.08-0.46c-0.05-0.14-0.13-0.27-0.23-0.38
			c-0.1-0.11-0.22-0.19-0.37-0.25c-0.14-0.06-0.31-0.09-0.49-0.09c-0.22,0-0.41,0.03-0.58,0.1c-0.16,0.06-0.3,0.15-0.41,0.27
			s-0.19,0.26-0.24,0.43c-0.05,0.17-0.08,0.35-0.08,0.56h-0.85c0-0.28,0.05-0.54,0.15-0.79c0.1-0.25,0.24-0.46,0.42-0.65
			s0.41-0.33,0.67-0.44c0.26-0.11,0.57-0.16,0.91-0.16c0.31,0,0.59,0.05,0.84,0.14c0.25,0.09,0.46,0.22,0.64,0.38
			c0.17,0.16,0.31,0.36,0.4,0.58c0.09,0.22,0.14,0.47,0.14,0.73c0,0.2-0.03,0.39-0.1,0.58c-0.07,0.19-0.16,0.38-0.27,0.57
			c-0.11,0.19-0.25,0.37-0.4,0.56s-0.31,0.37-0.48,0.55l-1.78,1.93h3.33V23.85z"/>
		<path class="st7" d="M140.66,17.22v0.76h-0.07c-0.28,0-0.53,0.03-0.75,0.09s-0.41,0.14-0.58,0.24c-0.17,0.1-0.31,0.22-0.43,0.36
			s-0.22,0.29-0.3,0.45s-0.14,0.33-0.18,0.51c-0.04,0.18-0.07,0.36-0.08,0.55c0.08-0.09,0.17-0.18,0.27-0.26
			c0.1-0.08,0.21-0.15,0.33-0.21c0.12-0.06,0.25-0.11,0.39-0.14c0.14-0.04,0.28-0.05,0.43-0.05c0.33,0,0.62,0.06,0.86,0.19
			c0.24,0.13,0.44,0.29,0.59,0.5c0.15,0.21,0.27,0.44,0.34,0.7c0.07,0.26,0.11,0.53,0.11,0.8c0,0.31-0.04,0.6-0.13,0.87
			c-0.09,0.27-0.22,0.51-0.39,0.72c-0.17,0.2-0.39,0.37-0.64,0.48c-0.26,0.12-0.55,0.18-0.89,0.18c-0.24,0-0.46-0.04-0.66-0.11
			c-0.2-0.07-0.38-0.16-0.54-0.28c-0.16-0.12-0.3-0.26-0.41-0.42c-0.12-0.16-0.22-0.34-0.29-0.53c-0.08-0.19-0.14-0.38-0.17-0.59
			c-0.04-0.2-0.06-0.41-0.06-0.61v-0.4c0-0.3,0.02-0.61,0.06-0.91c0.04-0.3,0.1-0.6,0.19-0.88c0.09-0.28,0.21-0.54,0.37-0.79
			c0.16-0.25,0.35-0.46,0.58-0.64c0.24-0.18,0.52-0.32,0.84-0.42c0.33-0.1,0.7-0.16,1.14-0.16H140.66z M139.56,20.21
			c-0.14,0-0.28,0.02-0.41,0.07c-0.13,0.05-0.26,0.11-0.37,0.19s-0.22,0.18-0.31,0.3c-0.09,0.12-0.16,0.24-0.21,0.38v0.28
			c0,0.29,0.04,0.55,0.1,0.78c0.07,0.23,0.16,0.42,0.28,0.57c0.12,0.15,0.25,0.27,0.41,0.35c0.15,0.08,0.32,0.12,0.49,0.12
			c0.2,0,0.37-0.04,0.52-0.11c0.15-0.08,0.28-0.18,0.38-0.31c0.1-0.13,0.18-0.29,0.24-0.48c0.05-0.19,0.08-0.39,0.08-0.61
			c0-0.19-0.02-0.38-0.07-0.57s-0.12-0.35-0.22-0.49c-0.1-0.14-0.23-0.26-0.38-0.34C139.94,20.25,139.76,20.21,139.56,20.21z"/>
		<path class="st7" d="M148.18,21.32c0,0.42-0.05,0.8-0.15,1.12c-0.1,0.33-0.24,0.6-0.42,0.82c-0.18,0.22-0.41,0.39-0.67,0.51
			c-0.26,0.12-0.57,0.17-0.91,0.17c-0.34,0-0.64-0.06-0.9-0.17c-0.27-0.12-0.49-0.28-0.68-0.51c-0.18-0.22-0.33-0.5-0.43-0.82
			s-0.15-0.7-0.15-1.12v-1.55c0-0.42,0.05-0.79,0.15-1.12c0.1-0.33,0.24-0.6,0.42-0.83s0.41-0.4,0.67-0.51
			c0.27-0.12,0.57-0.17,0.9-0.17c0.34,0,0.64,0.06,0.91,0.17c0.27,0.12,0.49,0.29,0.67,0.51c0.18,0.22,0.32,0.5,0.42,0.83
			c0.1,0.33,0.15,0.7,0.15,1.12V21.32z M144.74,21.15l2.58-1.98c-0.05-0.44-0.18-0.78-0.38-1c-0.21-0.23-0.51-0.34-0.9-0.34
			c-0.44,0-0.77,0.15-0.98,0.45s-0.32,0.74-0.32,1.31V21.15z M147.33,19.97l-2.58,1.97c0.05,0.43,0.18,0.75,0.4,0.98
			c0.21,0.22,0.51,0.34,0.89,0.34c0.45,0,0.77-0.15,0.98-0.46c0.21-0.3,0.31-0.74,0.31-1.31V19.97z"/>
	</g>
</g>
<rect x="-148.5" y="-124.5" class="st12" width="990" height="709"/>
<g>
	<path class="st7" d="M2.32,52.93l-0.53,1.72H0.94l2.14-6.63h0.71l2.1,6.63H5.05l-0.52-1.72H2.32z M4.31,52.2l-0.87-2.88L2.54,52.2
		H4.31z"/>
	<path class="st7" d="M8.75,51.72v2.93H7.9v-6.63h4.07v0.72H8.75V51h2.76v0.71H8.75z"/>
	<path class="st7" d="M18.25,54.11c-0.12,0.1-0.24,0.18-0.36,0.26c-0.21,0.13-0.44,0.22-0.69,0.28c-0.25,0.06-0.5,0.09-0.77,0.09
		c-0.27,0-0.52-0.04-0.75-0.12c-0.23-0.08-0.44-0.19-0.62-0.33c-0.18-0.14-0.34-0.3-0.48-0.5c-0.14-0.19-0.25-0.4-0.34-0.62
		c-0.09-0.22-0.17-0.46-0.21-0.7s-0.07-0.49-0.08-0.74v-0.77c0-0.25,0.03-0.49,0.07-0.74s0.1-0.48,0.19-0.7s0.19-0.43,0.32-0.63
		c0.13-0.19,0.28-0.36,0.46-0.5c0.18-0.14,0.38-0.25,0.6-0.33s0.48-0.12,0.76-0.12c0.31,0,0.59,0.05,0.86,0.14s0.49,0.23,0.68,0.41
		c0.19,0.18,0.35,0.39,0.47,0.64c0.12,0.25,0.19,0.53,0.22,0.84h-0.83c-0.03-0.19-0.08-0.37-0.15-0.53
		c-0.07-0.16-0.16-0.3-0.27-0.42c-0.12-0.12-0.25-0.21-0.41-0.27c-0.16-0.07-0.34-0.1-0.55-0.1c-0.2,0-0.38,0.03-0.53,0.1
		c-0.16,0.07-0.29,0.16-0.41,0.28s-0.21,0.25-0.29,0.4c-0.08,0.15-0.14,0.32-0.19,0.49s-0.08,0.34-0.1,0.52
		c-0.02,0.18-0.03,0.35-0.03,0.51v0.78c0,0.17,0.02,0.34,0.04,0.52c0.03,0.18,0.07,0.35,0.12,0.52s0.12,0.33,0.21,0.48
		c0.08,0.15,0.19,0.29,0.31,0.4c0.12,0.12,0.26,0.21,0.42,0.28c0.16,0.07,0.34,0.1,0.54,0.11c0.12,0,0.24,0,0.36-0.01
		c0.13-0.01,0.25-0.04,0.37-0.07c0.12-0.04,0.23-0.09,0.33-0.15c0.1-0.06,0.19-0.14,0.26-0.24l0.01-1.49h-1.35v-0.71h2.15l0.01,2.43
		C18.47,53.9,18.36,54.01,18.25,54.11z"/>
	<path class="st7" d="M21.7,52.93l-0.53,1.72h-0.84l2.14-6.63h0.71l2.1,6.63h-0.84l-0.52-1.72H21.7z M23.69,52.2l-0.87-2.88
		l-0.89,2.88H23.69z"/>
	<path class="st7" d="M30.51,54.65l-2.57-4.95l-0.01,4.95h-0.85v-6.63h0.86l2.57,4.94l0.01-4.94h0.85v6.63H30.51z"/>
	<path class="st7" d="M37.68,48.02v0.73h-1.59v5.17h1.59v0.73h-4.01v-0.73h1.55v-5.17h-1.55v-0.73H37.68z"/>
	<path class="st7" d="M43.47,52.46c-0.09-0.14-0.21-0.26-0.36-0.36c-0.15-0.09-0.31-0.17-0.48-0.24c-0.17-0.06-0.34-0.12-0.5-0.17
		c-0.23-0.08-0.47-0.17-0.71-0.28c-0.24-0.11-0.46-0.24-0.66-0.39c-0.2-0.16-0.36-0.34-0.49-0.55s-0.19-0.46-0.19-0.74
		s0.06-0.54,0.19-0.76s0.29-0.41,0.49-0.57c0.2-0.15,0.43-0.27,0.69-0.35s0.52-0.12,0.78-0.12c0.29,0,0.57,0.05,0.83,0.14
		c0.27,0.1,0.5,0.23,0.71,0.4c0.21,0.17,0.37,0.38,0.5,0.63c0.12,0.25,0.19,0.52,0.2,0.82H43.6c-0.02-0.19-0.07-0.37-0.14-0.52
		c-0.07-0.16-0.16-0.29-0.28-0.4c-0.12-0.11-0.25-0.2-0.41-0.26c-0.16-0.06-0.34-0.09-0.54-0.09c-0.16,0-0.32,0.02-0.47,0.07
		c-0.15,0.04-0.29,0.11-0.41,0.21c-0.12,0.09-0.22,0.2-0.29,0.34c-0.07,0.13-0.11,0.29-0.11,0.46c0,0.19,0.05,0.35,0.15,0.49
		c0.09,0.13,0.21,0.24,0.36,0.33c0.14,0.09,0.3,0.17,0.47,0.23c0.17,0.06,0.33,0.11,0.48,0.16c0.25,0.08,0.49,0.17,0.74,0.28
		c0.25,0.11,0.47,0.25,0.67,0.41c0.2,0.16,0.36,0.34,0.48,0.57s0.18,0.48,0.18,0.78c0,0.3-0.07,0.56-0.2,0.78
		c-0.13,0.22-0.3,0.41-0.51,0.55c-0.21,0.15-0.45,0.26-0.71,0.33c-0.26,0.07-0.53,0.11-0.79,0.11c-0.32,0-0.63-0.05-0.93-0.16
		s-0.57-0.26-0.79-0.46c-0.2-0.17-0.36-0.38-0.48-0.61c-0.12-0.23-0.18-0.49-0.19-0.78h0.86c0.03,0.21,0.08,0.39,0.17,0.55
		s0.19,0.29,0.33,0.4c0.13,0.11,0.29,0.2,0.46,0.25c0.17,0.06,0.37,0.08,0.57,0.08c0.16,0,0.33-0.02,0.49-0.06s0.3-0.11,0.43-0.19
		c0.12-0.08,0.23-0.19,0.3-0.33s0.12-0.29,0.12-0.47C43.61,52.77,43.56,52.6,43.47,52.46z"/>
	<path class="st7" d="M49.02,48.74v5.91H48.2v-5.91h-2.05v-0.72h4.92v0.72H49.02z"/>
	<path class="st7" d="M54.01,52.93l-0.53,1.72h-0.84l2.14-6.63h0.71l2.1,6.63h-0.84l-0.52-1.72H54.01z M56,52.2l-0.87-2.88
		l-0.89,2.88H56z M56.6,46.34l-1.22,1.21h-0.64l0.84-1.21H56.6z"/>
	<path class="st7" d="M62.82,54.65l-2.57-4.95l-0.01,4.95h-0.85v-6.63h0.86l2.57,4.94l0.01-4.94h0.85v6.63H62.82z"/>
</g>
<g>
	<path class="st7" d="M1.71,85.72H0.87v-6.63h2.15c0.3,0.01,0.58,0.05,0.84,0.14s0.5,0.22,0.7,0.38s0.36,0.37,0.48,0.62
		c0.12,0.25,0.18,0.53,0.18,0.85c0,0.32-0.06,0.6-0.18,0.84c-0.12,0.25-0.28,0.45-0.48,0.62s-0.43,0.29-0.7,0.38
		s-0.55,0.13-0.84,0.14H1.71V85.72z M3.02,82.37c0.19,0,0.37-0.03,0.54-0.09c0.16-0.06,0.31-0.14,0.43-0.25
		c0.12-0.11,0.22-0.24,0.28-0.4s0.1-0.33,0.1-0.54s-0.03-0.38-0.1-0.54c-0.07-0.16-0.16-0.3-0.28-0.41
		c-0.12-0.11-0.27-0.2-0.43-0.26s-0.34-0.09-0.54-0.1H1.71v2.59H3.02z"/>
	<path class="st7" d="M8.2,84.01l-0.53,1.72H6.83l2.14-6.63h0.71l2.1,6.63h-0.84l-0.52-1.72H8.2z M10.19,83.27L9.32,80.4l-0.89,2.88
		H10.19z"/>
	<path class="st7" d="M14.57,83.48v2.24h-0.86v-6.63h0.86v3.24l0.64-0.8l1.94-2.44h1.02l-2.32,2.9l2.47,3.73h-1.02l-2-3.08
		L14.57,83.48z"/>
	<path class="st7" d="M24.18,79.09v0.73h-1.59v5.17h1.59v0.73h-4.01v-0.73h1.55v-5.17h-1.55v-0.73H24.18z"/>
	<path class="st7" d="M29.97,83.53c-0.09-0.14-0.21-0.26-0.36-0.36c-0.15-0.09-0.31-0.17-0.48-0.24c-0.17-0.06-0.34-0.12-0.5-0.17
		c-0.23-0.08-0.47-0.17-0.71-0.28c-0.24-0.11-0.46-0.24-0.66-0.39c-0.2-0.16-0.36-0.34-0.49-0.55s-0.19-0.46-0.19-0.74
		s0.06-0.54,0.19-0.76s0.29-0.41,0.49-0.57c0.2-0.15,0.43-0.27,0.69-0.35S28.47,79,28.73,79c0.29,0,0.57,0.05,0.83,0.14
		c0.27,0.1,0.5,0.23,0.71,0.4c0.21,0.17,0.37,0.38,0.5,0.63c0.12,0.25,0.19,0.52,0.2,0.82H30.1c-0.02-0.19-0.07-0.37-0.14-0.52
		c-0.07-0.16-0.16-0.29-0.28-0.4c-0.12-0.11-0.25-0.2-0.41-0.26c-0.16-0.06-0.34-0.09-0.54-0.09c-0.16,0-0.32,0.02-0.47,0.07
		c-0.15,0.04-0.29,0.11-0.41,0.21c-0.12,0.09-0.22,0.2-0.29,0.34c-0.07,0.13-0.11,0.29-0.11,0.46c0,0.19,0.05,0.35,0.15,0.49
		c0.09,0.13,0.21,0.24,0.36,0.33c0.14,0.09,0.3,0.17,0.47,0.23c0.17,0.06,0.33,0.11,0.48,0.16c0.25,0.08,0.49,0.17,0.74,0.28
		c0.25,0.11,0.47,0.25,0.67,0.41c0.2,0.16,0.36,0.34,0.48,0.57s0.18,0.48,0.18,0.78c0,0.3-0.07,0.56-0.2,0.78
		c-0.13,0.22-0.3,0.41-0.51,0.55c-0.21,0.15-0.45,0.26-0.71,0.33c-0.26,0.07-0.53,0.11-0.79,0.11c-0.32,0-0.63-0.05-0.93-0.16
		s-0.57-0.26-0.79-0.46c-0.2-0.17-0.36-0.38-0.48-0.61c-0.12-0.23-0.18-0.49-0.19-0.78h0.86c0.03,0.21,0.08,0.39,0.17,0.55
		s0.19,0.29,0.33,0.4c0.13,0.11,0.29,0.2,0.46,0.25c0.17,0.06,0.37,0.08,0.57,0.08c0.16,0,0.33-0.02,0.49-0.06s0.3-0.11,0.43-0.19
		c0.12-0.08,0.23-0.19,0.3-0.33s0.12-0.29,0.12-0.47C30.11,83.84,30.06,83.67,29.97,83.53z"/>
	<path class="st7" d="M35.52,79.81v5.91H34.7v-5.91h-2.05v-0.72h4.92v0.72H35.52z"/>
	<path class="st7" d="M40.52,84.01l-0.53,1.72h-0.84l2.14-6.63h0.71l2.1,6.63h-0.84l-0.52-1.72H40.52z M42.51,83.27l-0.87-2.88
		l-0.89,2.88H42.51z M43.1,77.42l-1.22,1.21h-0.64l0.84-1.21H43.1z"/>
	<path class="st7" d="M49.32,85.72l-2.57-4.95l-0.01,4.95h-0.85v-6.63h0.86l2.57,4.94l0.01-4.94h0.85v6.63H49.32z"/>
</g>
<g>
	<path class="st7" d="M4.46,116.8v-3.06H1.74v3.06H0.95v-6.63h0.79v2.85h2.72v-2.85h0.8v6.63H4.46z"/>
	<path class="st7" d="M11.81,114.58c-0.04,0.24-0.1,0.47-0.18,0.7c-0.08,0.22-0.18,0.43-0.3,0.63s-0.27,0.36-0.44,0.51
		c-0.17,0.15-0.36,0.26-0.58,0.34c-0.22,0.08-0.47,0.12-0.74,0.12s-0.52-0.04-0.74-0.12c-0.22-0.08-0.42-0.2-0.58-0.34
		s-0.32-0.32-0.44-0.51c-0.12-0.2-0.23-0.41-0.3-0.63c-0.08-0.22-0.14-0.46-0.18-0.7c-0.04-0.24-0.06-0.48-0.06-0.71v-0.76
		c0-0.24,0.02-0.48,0.06-0.72s0.1-0.47,0.18-0.7c0.08-0.22,0.18-0.43,0.3-0.63c0.12-0.2,0.27-0.37,0.44-0.52
		c0.17-0.15,0.37-0.26,0.58-0.34c0.22-0.08,0.47-0.13,0.74-0.13c0.27,0,0.52,0.04,0.74,0.13c0.22,0.08,0.42,0.2,0.59,0.34
		c0.17,0.15,0.32,0.32,0.44,0.51c0.12,0.2,0.22,0.41,0.31,0.63c0.08,0.22,0.14,0.46,0.18,0.7c0.04,0.24,0.06,0.48,0.06,0.72v0.76
		C11.87,114.1,11.85,114.34,11.81,114.58z M11.01,112.61c-0.02-0.17-0.05-0.34-0.09-0.51c-0.05-0.17-0.1-0.33-0.18-0.48
		s-0.16-0.29-0.27-0.41c-0.11-0.12-0.24-0.21-0.39-0.28s-0.32-0.1-0.52-0.1c-0.19,0-0.37,0.03-0.51,0.1
		c-0.15,0.07-0.28,0.16-0.39,0.28c-0.11,0.12-0.2,0.25-0.27,0.41c-0.07,0.15-0.13,0.31-0.17,0.48c-0.05,0.17-0.08,0.34-0.1,0.51
		c-0.02,0.17-0.03,0.33-0.03,0.49v0.76c0,0.15,0.01,0.32,0.03,0.49c0.02,0.17,0.05,0.34,0.1,0.51c0.04,0.17,0.1,0.33,0.18,0.49
		c0.07,0.16,0.16,0.29,0.27,0.41c0.11,0.12,0.24,0.21,0.39,0.28c0.15,0.07,0.32,0.1,0.52,0.1s0.37-0.03,0.52-0.1
		c0.15-0.07,0.28-0.16,0.39-0.28c0.11-0.12,0.2-0.25,0.27-0.4s0.13-0.32,0.17-0.49c0.04-0.17,0.07-0.34,0.09-0.51
		s0.03-0.34,0.03-0.5v-0.76C11.04,112.94,11.03,112.78,11.01,112.61z"/>
	<path class="st7" d="M17.32,116.8l-2.57-4.95l-0.01,4.95h-0.85v-6.63h0.86l2.57,4.94l0.01-4.94h0.85v6.63H17.32z"/>
	<path class="st7" d="M20.4,110.17h1.53c0.26,0,0.5,0.03,0.73,0.08c0.23,0.05,0.44,0.12,0.63,0.21c0.27,0.12,0.51,0.29,0.72,0.49
		s0.37,0.43,0.5,0.7c0.11,0.22,0.2,0.47,0.26,0.74c0.06,0.27,0.09,0.55,0.09,0.86v0.49c0,0.29-0.03,0.57-0.08,0.83
		c-0.06,0.26-0.14,0.5-0.24,0.72c-0.11,0.23-0.25,0.43-0.41,0.62s-0.35,0.34-0.56,0.47c-0.22,0.14-0.46,0.24-0.74,0.31
		c-0.27,0.07-0.57,0.11-0.89,0.11H20.4V110.17z M21.25,116.11h0.68c0.24,0,0.46-0.03,0.66-0.09c0.2-0.06,0.38-0.14,0.53-0.25
		c0.16-0.11,0.31-0.24,0.43-0.4c0.12-0.16,0.21-0.34,0.28-0.54c0.06-0.16,0.11-0.33,0.14-0.52s0.05-0.38,0.05-0.58v-0.5
		c0-0.21-0.02-0.4-0.05-0.59c-0.03-0.19-0.08-0.37-0.14-0.53c-0.08-0.21-0.19-0.4-0.33-0.58c-0.14-0.17-0.31-0.31-0.51-0.42
		c-0.14-0.08-0.3-0.14-0.48-0.18c-0.18-0.04-0.37-0.07-0.58-0.07h-0.68V116.11z"/>
	<path class="st7" d="M31.12,114.66c0,0.31-0.05,0.6-0.16,0.87c-0.11,0.27-0.26,0.51-0.45,0.71c-0.19,0.2-0.42,0.36-0.68,0.48
		c-0.26,0.12-0.55,0.17-0.87,0.17c-0.32,0-0.61-0.06-0.88-0.17c-0.26-0.12-0.49-0.27-0.68-0.48c-0.19-0.2-0.33-0.44-0.44-0.71
		s-0.16-0.56-0.16-0.87l0.01-4.49h0.8l0.02,4.49c0,0.2,0.03,0.39,0.09,0.57c0.06,0.18,0.14,0.34,0.26,0.48
		c0.11,0.14,0.25,0.25,0.41,0.34c0.17,0.08,0.36,0.13,0.57,0.13c0.22,0,0.41-0.04,0.57-0.12c0.16-0.08,0.3-0.2,0.41-0.34
		c0.11-0.14,0.19-0.3,0.25-0.48c0.06-0.18,0.09-0.37,0.09-0.57l0.01-4.49h0.82L31.12,114.66z"/>
	<path class="st7" d="M34.28,114.09v2.7h-0.84v-6.63h1.94c0.31,0.01,0.6,0.05,0.87,0.13c0.27,0.08,0.51,0.21,0.72,0.37
		c0.2,0.16,0.36,0.37,0.48,0.62c0.12,0.25,0.17,0.54,0.17,0.87c0,0.21-0.03,0.41-0.09,0.59c-0.06,0.18-0.15,0.34-0.26,0.49
		c-0.11,0.15-0.24,0.27-0.39,0.39c-0.15,0.11-0.32,0.21-0.5,0.29l1.41,2.83l0,0.05H36.9l-1.3-2.7H34.28z M35.41,113.4
		c0.19,0,0.37-0.03,0.53-0.09c0.17-0.06,0.31-0.14,0.44-0.24c0.12-0.11,0.22-0.24,0.3-0.39c0.07-0.15,0.11-0.33,0.11-0.53
		c0-0.21-0.04-0.4-0.1-0.56c-0.07-0.16-0.17-0.29-0.29-0.4c-0.12-0.11-0.27-0.19-0.44-0.24s-0.36-0.08-0.56-0.09h-1.11v2.54H35.41z"
		/>
	<path class="st7" d="M40.82,115.08l-0.53,1.72h-0.84l2.14-6.63h0.71l2.1,6.63h-0.84l-0.52-1.72H40.82z M42.81,114.35l-0.87-2.88
		l-0.89,2.88H42.81z"/>
	<path class="st7" d="M49.66,114.61c-0.09-0.14-0.21-0.26-0.36-0.36c-0.15-0.09-0.31-0.17-0.48-0.24c-0.17-0.06-0.34-0.12-0.5-0.17
		c-0.23-0.08-0.47-0.17-0.71-0.28c-0.24-0.11-0.46-0.24-0.66-0.39c-0.2-0.16-0.36-0.34-0.49-0.55s-0.19-0.46-0.19-0.74
		s0.06-0.54,0.19-0.76s0.29-0.41,0.49-0.57c0.2-0.15,0.43-0.27,0.69-0.35s0.52-0.12,0.78-0.12c0.29,0,0.57,0.05,0.83,0.14
		c0.27,0.1,0.5,0.23,0.71,0.4c0.21,0.17,0.37,0.38,0.5,0.63c0.12,0.25,0.19,0.52,0.2,0.82H49.8c-0.02-0.19-0.07-0.37-0.14-0.52
		c-0.07-0.16-0.16-0.29-0.28-0.4c-0.12-0.11-0.25-0.2-0.41-0.26c-0.16-0.06-0.34-0.09-0.54-0.09c-0.16,0-0.32,0.02-0.47,0.07
		c-0.15,0.04-0.29,0.11-0.41,0.21c-0.12,0.09-0.22,0.2-0.29,0.34c-0.07,0.13-0.11,0.29-0.11,0.46c0,0.19,0.05,0.35,0.15,0.49
		c0.09,0.13,0.21,0.24,0.36,0.33c0.14,0.09,0.3,0.17,0.47,0.23c0.17,0.06,0.33,0.11,0.48,0.16c0.25,0.08,0.49,0.17,0.74,0.28
		c0.25,0.11,0.47,0.25,0.67,0.41c0.2,0.16,0.36,0.34,0.48,0.57s0.18,0.48,0.18,0.78c0,0.3-0.07,0.56-0.2,0.78
		c-0.13,0.22-0.3,0.41-0.51,0.55c-0.21,0.15-0.45,0.26-0.71,0.33c-0.26,0.07-0.53,0.11-0.79,0.11c-0.32,0-0.63-0.05-0.93-0.16
		s-0.57-0.26-0.79-0.46c-0.2-0.17-0.36-0.38-0.48-0.61c-0.12-0.23-0.18-0.49-0.19-0.78h0.86c0.03,0.21,0.08,0.39,0.17,0.55
		s0.19,0.29,0.33,0.4c0.13,0.11,0.29,0.2,0.46,0.25c0.17,0.06,0.37,0.08,0.57,0.08c0.16,0,0.33-0.02,0.49-0.06s0.3-0.11,0.43-0.19
		c0.12-0.08,0.23-0.19,0.3-0.33s0.12-0.29,0.12-0.47C49.8,114.92,49.76,114.75,49.66,114.61z"/>
</g>
<g>
	<path class="st7" d="M5.15,271.11c-0.12,0.26-0.27,0.48-0.46,0.66c-0.19,0.19-0.42,0.33-0.68,0.43c-0.26,0.1-0.55,0.15-0.87,0.15
		c-0.27,0-0.52-0.04-0.75-0.12c-0.22-0.08-0.42-0.18-0.59-0.32c-0.18-0.14-0.33-0.3-0.45-0.48c-0.13-0.19-0.23-0.39-0.31-0.61
		c-0.08-0.22-0.15-0.45-0.19-0.69c-0.04-0.24-0.06-0.48-0.07-0.73v-0.93c0-0.24,0.02-0.49,0.07-0.73c0.04-0.24,0.1-0.47,0.19-0.69
		c0.08-0.22,0.19-0.42,0.31-0.61c0.13-0.19,0.28-0.35,0.45-0.48c0.17-0.14,0.37-0.24,0.59-0.32c0.22-0.08,0.47-0.12,0.75-0.12
		c0.33,0,0.63,0.05,0.89,0.15c0.26,0.1,0.49,0.24,0.67,0.43c0.19,0.19,0.34,0.41,0.45,0.67c0.11,0.26,0.19,0.55,0.23,0.87H4.55
		c-0.03-0.2-0.07-0.39-0.14-0.56c-0.07-0.17-0.16-0.32-0.27-0.46s-0.25-0.23-0.41-0.31c-0.16-0.07-0.35-0.11-0.58-0.11
		c-0.2,0-0.38,0.03-0.53,0.1c-0.15,0.07-0.28,0.15-0.39,0.27c-0.11,0.11-0.21,0.24-0.28,0.39c-0.08,0.15-0.13,0.31-0.18,0.47
		c-0.04,0.17-0.08,0.34-0.1,0.51s-0.03,0.34-0.03,0.51v0.93c0,0.16,0.01,0.33,0.03,0.51c0.02,0.17,0.05,0.34,0.1,0.51
		c0.05,0.17,0.11,0.33,0.18,0.48c0.07,0.15,0.17,0.28,0.28,0.39c0.11,0.12,0.24,0.21,0.4,0.27c0.15,0.06,0.33,0.1,0.53,0.1
		c0.22,0,0.41-0.04,0.58-0.11s0.3-0.17,0.41-0.29c0.11-0.12,0.2-0.27,0.27-0.45c0.07-0.17,0.11-0.36,0.14-0.56h0.84
		C5.35,270.58,5.27,270.86,5.15,271.11z"/>
	<path class="st7" d="M11.81,270.05c-0.04,0.24-0.1,0.47-0.18,0.7c-0.08,0.22-0.18,0.43-0.3,0.63c-0.12,0.2-0.27,0.37-0.44,0.51
		c-0.17,0.15-0.36,0.26-0.58,0.34c-0.22,0.08-0.47,0.12-0.74,0.12s-0.52-0.04-0.74-0.12c-0.22-0.08-0.42-0.2-0.58-0.34
		c-0.17-0.14-0.32-0.32-0.44-0.51c-0.12-0.2-0.23-0.41-0.3-0.63c-0.08-0.22-0.14-0.46-0.18-0.7c-0.04-0.24-0.06-0.48-0.06-0.71
		v-0.76c0-0.24,0.02-0.48,0.06-0.72c0.04-0.24,0.1-0.47,0.18-0.7c0.08-0.22,0.18-0.44,0.3-0.63s0.27-0.37,0.44-0.52
		c0.17-0.14,0.37-0.26,0.58-0.34c0.22-0.08,0.47-0.13,0.74-0.13c0.27,0,0.52,0.04,0.74,0.13c0.22,0.08,0.42,0.2,0.59,0.34
		c0.17,0.15,0.32,0.32,0.44,0.51c0.12,0.2,0.22,0.41,0.31,0.63c0.08,0.22,0.14,0.46,0.18,0.7c0.04,0.24,0.06,0.48,0.06,0.72v0.76
		C11.87,269.57,11.85,269.81,11.81,270.05z M11.01,268.07c-0.02-0.17-0.05-0.34-0.09-0.51c-0.05-0.17-0.1-0.33-0.18-0.48
		c-0.07-0.15-0.16-0.29-0.27-0.41c-0.11-0.12-0.24-0.21-0.39-0.28s-0.32-0.1-0.52-0.1c-0.19,0-0.37,0.04-0.51,0.11
		c-0.15,0.07-0.28,0.16-0.39,0.28c-0.11,0.12-0.2,0.25-0.27,0.41c-0.07,0.15-0.13,0.31-0.17,0.48c-0.05,0.17-0.08,0.34-0.1,0.51
		c-0.02,0.17-0.03,0.33-0.03,0.49v0.77c0,0.15,0.01,0.32,0.03,0.49c0.02,0.17,0.05,0.34,0.1,0.51c0.04,0.17,0.1,0.33,0.18,0.49
		c0.07,0.15,0.16,0.29,0.27,0.4c0.11,0.12,0.24,0.21,0.39,0.28c0.15,0.07,0.32,0.1,0.52,0.1s0.37-0.03,0.52-0.1s0.28-0.16,0.39-0.28
		c0.11-0.12,0.2-0.25,0.27-0.4c0.07-0.15,0.13-0.31,0.17-0.48c0.04-0.17,0.07-0.34,0.09-0.51c0.02-0.17,0.03-0.34,0.03-0.5v-0.77
		C11.04,268.41,11.03,268.24,11.01,268.07z"/>
	<path class="st7" d="M18.22,271.55v0.71h-4.08v-6.63h0.84v5.91H18.22z"/>
	<path class="st7" d="M24.73,270.05c-0.04,0.24-0.1,0.47-0.18,0.7c-0.08,0.22-0.18,0.43-0.3,0.63c-0.12,0.2-0.27,0.37-0.44,0.51
		c-0.17,0.15-0.36,0.26-0.58,0.34c-0.22,0.08-0.47,0.12-0.74,0.12s-0.52-0.04-0.74-0.12c-0.22-0.08-0.42-0.2-0.58-0.34
		c-0.17-0.14-0.32-0.32-0.44-0.51c-0.12-0.2-0.23-0.41-0.3-0.63c-0.08-0.22-0.14-0.46-0.18-0.7c-0.04-0.24-0.06-0.48-0.06-0.71
		v-0.76c0-0.24,0.02-0.48,0.06-0.72c0.04-0.24,0.1-0.47,0.18-0.7c0.08-0.22,0.18-0.44,0.3-0.63s0.27-0.37,0.44-0.52
		c0.17-0.14,0.37-0.26,0.58-0.34c0.22-0.08,0.47-0.13,0.74-0.13c0.27,0,0.52,0.04,0.74,0.13c0.22,0.08,0.42,0.2,0.59,0.34
		c0.17,0.15,0.32,0.32,0.44,0.51c0.12,0.2,0.22,0.41,0.31,0.63c0.08,0.22,0.14,0.46,0.18,0.7c0.04,0.24,0.06,0.48,0.06,0.72v0.76
		C24.79,269.57,24.77,269.81,24.73,270.05z M23.93,268.07c-0.02-0.17-0.05-0.34-0.09-0.51c-0.05-0.17-0.1-0.33-0.18-0.48
		c-0.07-0.15-0.16-0.29-0.27-0.41c-0.11-0.12-0.24-0.21-0.39-0.28s-0.32-0.1-0.52-0.1c-0.19,0-0.37,0.04-0.51,0.11
		c-0.15,0.07-0.28,0.16-0.39,0.28c-0.11,0.12-0.2,0.25-0.27,0.41c-0.07,0.15-0.13,0.31-0.17,0.48c-0.05,0.17-0.08,0.34-0.1,0.51
		c-0.02,0.17-0.03,0.33-0.03,0.49v0.77c0,0.15,0.01,0.32,0.03,0.49c0.02,0.17,0.05,0.34,0.1,0.51c0.04,0.17,0.1,0.33,0.18,0.49
		c0.07,0.15,0.16,0.29,0.27,0.4c0.11,0.12,0.24,0.21,0.39,0.28c0.15,0.07,0.32,0.1,0.52,0.1s0.37-0.03,0.52-0.1s0.28-0.16,0.39-0.28
		c0.11-0.12,0.2-0.25,0.27-0.4c0.07-0.15,0.13-0.31,0.17-0.48c0.04-0.17,0.07-0.34,0.09-0.51c0.02-0.17,0.03-0.34,0.03-0.5v-0.77
		C23.96,268.41,23.95,268.24,23.93,268.07z"/>
	<path class="st7" d="M28.95,268.95l1.17-3.31h1.05v6.63h-0.82v-2.64l0.07-2.77l-1.22,3.57H28.7l-1.12-3.47l0.07,2.67v2.64h-0.82
		v-6.63h1.04L28.95,268.95z"/>
	<path class="st7" d="M33.4,265.63h1.97c0.27,0,0.54,0.04,0.8,0.11c0.26,0.07,0.49,0.17,0.7,0.32s0.37,0.32,0.49,0.55
		c0.12,0.22,0.18,0.49,0.18,0.79c0,0.17-0.03,0.33-0.08,0.47c-0.05,0.14-0.12,0.27-0.22,0.38c-0.09,0.12-0.2,0.21-0.31,0.29
		c-0.11,0.08-0.25,0.15-0.41,0.22v0.01c0.17,0.04,0.33,0.11,0.48,0.21c0.15,0.1,0.28,0.22,0.38,0.34c0.11,0.14,0.19,0.29,0.25,0.46
		c0.06,0.17,0.09,0.35,0.09,0.55c0,0.31-0.06,0.58-0.18,0.82c-0.12,0.24-0.28,0.44-0.49,0.59c-0.2,0.16-0.44,0.29-0.7,0.37
		c-0.27,0.09-0.54,0.13-0.82,0.13H33.4V265.63z M35.42,268.46c0.16,0,0.31-0.03,0.46-0.07s0.29-0.12,0.41-0.21
		c0.12-0.09,0.21-0.2,0.29-0.33c0.07-0.13,0.11-0.28,0.11-0.46c0-0.19-0.04-0.34-0.11-0.47c-0.07-0.13-0.17-0.24-0.28-0.32
		c-0.12-0.08-0.26-0.14-0.42-0.18s-0.32-0.06-0.48-0.06h-1.15v2.11H35.42z M34.25,271.55h1.3c0.18,0,0.34-0.03,0.5-0.09
		c0.16-0.05,0.3-0.13,0.42-0.23c0.12-0.1,0.22-0.22,0.29-0.37c0.07-0.15,0.11-0.31,0.11-0.5c0-0.19-0.03-0.35-0.09-0.5
		s-0.16-0.27-0.27-0.37c-0.12-0.1-0.25-0.18-0.41-0.23c-0.16-0.05-0.32-0.08-0.5-0.09h-1.34V271.55z"/>
	<path class="st7" d="M43.88,265.63v0.73h-1.59v5.17h1.59v0.73h-4.01v-0.73h1.55v-5.17h-1.55v-0.73H43.88z"/>
	<path class="st7" d="M47.28,270.55l-0.53,1.72h-0.84l2.14-6.63h0.71l2.1,6.63h-0.84l-0.52-1.72H47.28z M49.27,269.81l-0.87-2.88
		l-0.89,2.88H49.27z"/>
</g>
<g>
	<path class="st7" d="M3.03,237.71l1.17-3.31h1.05v6.63H4.42v-2.64l0.07-2.77l-1.22,3.57H2.78l-1.12-3.47l0.07,2.67v2.64H0.91v-6.63
		h1.04L3.03,237.71z"/>
	<path class="st7" d="M8.44,239.31l-0.53,1.72H7.06l2.14-6.63h0.71l2.1,6.63h-0.84l-0.52-1.72H8.44z M10.43,238.57l-0.87-2.88
		l-0.89,2.88H10.43z"/>
	<path class="st7" d="M14.82,238.32v2.7h-0.84v-6.63h1.94c0.31,0.01,0.6,0.05,0.87,0.13c0.27,0.08,0.51,0.21,0.72,0.37
		c0.2,0.16,0.36,0.37,0.48,0.62c0.12,0.25,0.17,0.54,0.17,0.87c0,0.21-0.03,0.41-0.09,0.59c-0.06,0.18-0.15,0.34-0.26,0.49
		c-0.11,0.15-0.24,0.27-0.39,0.39c-0.15,0.11-0.32,0.21-0.5,0.29l1.41,2.83l0,0.05h-0.89l-1.3-2.7H14.82z M15.95,237.63
		c0.19,0,0.37-0.03,0.53-0.09c0.17-0.06,0.31-0.14,0.44-0.24c0.12-0.11,0.22-0.24,0.3-0.39c0.07-0.15,0.11-0.33,0.11-0.53
		c0-0.21-0.04-0.4-0.1-0.56c-0.07-0.16-0.17-0.29-0.29-0.4c-0.12-0.11-0.27-0.19-0.44-0.24s-0.36-0.08-0.56-0.09h-1.11v2.54H15.95z"
		/>
	<path class="st7" d="M21.28,238.32v2.7h-0.84v-6.63h1.94c0.31,0.01,0.6,0.05,0.87,0.13c0.27,0.08,0.51,0.21,0.72,0.37
		c0.2,0.16,0.36,0.37,0.48,0.62c0.12,0.25,0.17,0.54,0.17,0.87c0,0.21-0.03,0.41-0.09,0.59c-0.06,0.18-0.15,0.34-0.26,0.49
		c-0.11,0.15-0.24,0.27-0.39,0.39c-0.15,0.11-0.32,0.21-0.5,0.29l1.41,2.83l0,0.05h-0.89l-1.3-2.7H21.28z M22.41,237.63
		c0.19,0,0.37-0.03,0.53-0.09c0.17-0.06,0.31-0.14,0.44-0.24c0.12-0.11,0.22-0.24,0.3-0.39c0.07-0.15,0.11-0.33,0.11-0.53
		c0-0.21-0.04-0.4-0.1-0.56c-0.07-0.16-0.17-0.29-0.29-0.4c-0.12-0.11-0.27-0.19-0.44-0.24s-0.36-0.08-0.56-0.09h-1.11v2.54H22.41z"
		/>
	<path class="st7" d="M31.04,238.88c0,0.31-0.05,0.6-0.16,0.87c-0.11,0.27-0.26,0.51-0.45,0.71c-0.19,0.2-0.42,0.36-0.68,0.48
		c-0.26,0.12-0.55,0.17-0.87,0.17c-0.32,0-0.61-0.06-0.88-0.17c-0.26-0.12-0.49-0.27-0.68-0.48c-0.19-0.2-0.33-0.44-0.44-0.71
		s-0.16-0.56-0.16-0.87l0.01-4.49h0.8l0.02,4.49c0,0.2,0.03,0.39,0.09,0.57c0.06,0.18,0.14,0.34,0.26,0.48
		c0.11,0.14,0.25,0.25,0.41,0.34c0.17,0.08,0.36,0.13,0.57,0.13c0.22,0,0.41-0.04,0.57-0.12c0.16-0.08,0.3-0.2,0.41-0.34
		c0.11-0.14,0.19-0.3,0.25-0.48c0.06-0.18,0.09-0.37,0.09-0.57l0.01-4.49h0.82L31.04,238.88z"/>
	<path class="st7" d="M34.21,237.96v2.35h3.23v0.71h-4.07v-6.63h4.03v0.72h-3.19v2.13h2.77v0.71H34.21z"/>
	<path class="st7" d="M43.85,239.87c-0.12,0.26-0.27,0.48-0.46,0.66c-0.19,0.18-0.42,0.33-0.68,0.43c-0.26,0.1-0.55,0.15-0.87,0.15
		c-0.27,0-0.52-0.04-0.75-0.12c-0.22-0.08-0.42-0.18-0.59-0.32c-0.18-0.14-0.33-0.3-0.45-0.48c-0.13-0.19-0.23-0.39-0.31-0.61
		c-0.08-0.22-0.15-0.45-0.19-0.69c-0.04-0.24-0.06-0.48-0.07-0.73v-0.92c0-0.25,0.02-0.49,0.07-0.73c0.04-0.24,0.1-0.47,0.19-0.69
		c0.08-0.22,0.19-0.42,0.31-0.61s0.28-0.35,0.45-0.48c0.17-0.14,0.37-0.24,0.59-0.32s0.47-0.12,0.75-0.12
		c0.33,0,0.63,0.05,0.89,0.15c0.26,0.1,0.49,0.25,0.67,0.43c0.19,0.19,0.34,0.41,0.45,0.67c0.11,0.26,0.19,0.55,0.23,0.87h-0.84
		c-0.03-0.2-0.07-0.39-0.14-0.56c-0.07-0.17-0.16-0.32-0.27-0.46c-0.11-0.13-0.25-0.23-0.41-0.31c-0.16-0.07-0.35-0.11-0.58-0.11
		c-0.2,0-0.38,0.03-0.53,0.1c-0.15,0.07-0.28,0.15-0.39,0.27c-0.11,0.11-0.21,0.24-0.28,0.39c-0.08,0.15-0.13,0.31-0.18,0.47
		c-0.04,0.17-0.08,0.34-0.1,0.51c-0.02,0.17-0.03,0.34-0.03,0.51v0.93c0,0.16,0.01,0.33,0.03,0.51c0.02,0.17,0.05,0.34,0.1,0.51
		c0.05,0.17,0.11,0.33,0.18,0.48c0.07,0.15,0.17,0.28,0.28,0.39c0.11,0.12,0.24,0.21,0.4,0.27c0.15,0.07,0.33,0.1,0.53,0.1
		c0.22,0,0.41-0.04,0.58-0.1c0.16-0.07,0.3-0.17,0.41-0.3c0.11-0.12,0.2-0.27,0.27-0.44c0.07-0.17,0.11-0.36,0.14-0.56h0.84
		C44.05,239.34,43.97,239.62,43.85,239.87z"/>
	<path class="st7" d="M50.51,238.81c-0.04,0.24-0.1,0.47-0.18,0.7c-0.08,0.22-0.18,0.43-0.3,0.63s-0.27,0.36-0.44,0.51
		c-0.17,0.15-0.36,0.26-0.58,0.34c-0.22,0.08-0.47,0.12-0.74,0.12s-0.52-0.04-0.74-0.12c-0.22-0.08-0.42-0.2-0.58-0.34
		s-0.32-0.32-0.44-0.51c-0.12-0.2-0.23-0.41-0.3-0.63c-0.08-0.22-0.14-0.46-0.18-0.7c-0.04-0.24-0.06-0.48-0.06-0.71v-0.76
		c0-0.24,0.02-0.48,0.06-0.72s0.1-0.47,0.18-0.7c0.08-0.22,0.18-0.43,0.3-0.63c0.12-0.2,0.27-0.37,0.44-0.52
		c0.17-0.15,0.37-0.26,0.58-0.34c0.22-0.08,0.47-0.13,0.74-0.13c0.27,0,0.52,0.04,0.74,0.13c0.22,0.08,0.42,0.2,0.59,0.34
		c0.17,0.15,0.32,0.32,0.44,0.51c0.12,0.2,0.22,0.41,0.31,0.63c0.08,0.22,0.14,0.46,0.18,0.7c0.04,0.24,0.06,0.48,0.06,0.72v0.76
		C50.57,238.33,50.55,238.57,50.51,238.81z M49.7,236.83c-0.02-0.17-0.05-0.34-0.09-0.51c-0.05-0.17-0.1-0.33-0.18-0.48
		s-0.16-0.29-0.27-0.41c-0.11-0.12-0.24-0.21-0.39-0.28s-0.32-0.1-0.52-0.1c-0.19,0-0.37,0.03-0.51,0.1
		c-0.15,0.07-0.28,0.16-0.39,0.28c-0.11,0.12-0.2,0.25-0.27,0.41c-0.07,0.15-0.13,0.31-0.17,0.48c-0.05,0.17-0.08,0.34-0.1,0.51
		c-0.02,0.17-0.03,0.33-0.03,0.49v0.76c0,0.15,0.01,0.32,0.03,0.49c0.02,0.17,0.05,0.34,0.1,0.51c0.04,0.17,0.1,0.33,0.18,0.49
		c0.07,0.16,0.16,0.29,0.27,0.41c0.11,0.12,0.24,0.21,0.39,0.28c0.15,0.07,0.32,0.1,0.52,0.1s0.37-0.03,0.52-0.1
		c0.15-0.07,0.28-0.16,0.39-0.28c0.11-0.12,0.2-0.25,0.27-0.4s0.13-0.32,0.17-0.49c0.04-0.17,0.07-0.34,0.09-0.51
		s0.03-0.34,0.03-0.5v-0.76C49.73,237.17,49.72,237,49.7,236.83z"/>
	<path class="st7" d="M56.05,238.83c-0.09-0.14-0.21-0.26-0.36-0.36c-0.15-0.09-0.31-0.17-0.48-0.24c-0.17-0.06-0.34-0.12-0.5-0.17
		c-0.23-0.08-0.47-0.17-0.71-0.28c-0.24-0.11-0.46-0.24-0.66-0.39c-0.2-0.16-0.36-0.34-0.49-0.55s-0.19-0.46-0.19-0.74
		s0.06-0.54,0.19-0.76s0.29-0.41,0.49-0.57c0.2-0.15,0.43-0.27,0.69-0.35s0.52-0.12,0.78-0.12c0.29,0,0.57,0.05,0.83,0.14
		c0.27,0.1,0.5,0.23,0.71,0.4c0.21,0.17,0.37,0.38,0.5,0.63c0.12,0.25,0.19,0.52,0.2,0.82h-0.86c-0.02-0.19-0.07-0.37-0.14-0.52
		c-0.07-0.16-0.16-0.29-0.28-0.4c-0.12-0.11-0.25-0.2-0.41-0.26c-0.16-0.06-0.34-0.09-0.54-0.09c-0.16,0-0.32,0.02-0.47,0.07
		c-0.15,0.04-0.29,0.11-0.41,0.21c-0.12,0.09-0.22,0.2-0.29,0.34c-0.07,0.13-0.11,0.29-0.11,0.46c0,0.19,0.05,0.35,0.15,0.49
		c0.09,0.13,0.21,0.24,0.36,0.33c0.14,0.09,0.3,0.17,0.47,0.23c0.17,0.06,0.33,0.11,0.48,0.16c0.25,0.08,0.49,0.17,0.74,0.28
		c0.25,0.11,0.47,0.25,0.67,0.41c0.2,0.16,0.36,0.34,0.48,0.57s0.18,0.48,0.18,0.78c0,0.3-0.07,0.56-0.2,0.78
		c-0.13,0.22-0.3,0.41-0.51,0.55c-0.21,0.15-0.45,0.26-0.71,0.33c-0.26,0.07-0.53,0.11-0.79,0.11c-0.32,0-0.63-0.05-0.93-0.16
		s-0.57-0.26-0.79-0.46c-0.2-0.17-0.36-0.38-0.48-0.61c-0.12-0.23-0.18-0.49-0.19-0.78h0.86c0.03,0.21,0.08,0.39,0.17,0.55
		s0.19,0.29,0.33,0.4c0.13,0.11,0.29,0.2,0.46,0.25c0.17,0.06,0.37,0.08,0.57,0.08c0.16,0,0.33-0.02,0.49-0.06s0.3-0.11,0.43-0.19
		c0.12-0.08,0.23-0.19,0.3-0.33s0.12-0.29,0.12-0.47C56.19,239.14,56.14,238.97,56.05,238.83z"/>
</g>
<g>
	<path class="st7" d="M0.64,296.54h0.9L3,301.49l0.1,0.32l0.1-0.33l1.47-4.94h0.9l-2.09,6.63H2.73L0.64,296.54z"/>
	<path class="st7" d="M8.45,300.11v2.35h3.23v0.71H7.61v-6.63h4.03v0.72H8.45v2.13h2.77v0.71H8.45z"/>
	<path class="st7" d="M17.33,303.17l-2.57-4.95l-0.01,4.95h-0.85v-6.63h0.86l2.57,4.94l0.01-4.94h0.85v6.63H17.33z"/>
	<path class="st7" d="M21.37,300.11v2.35h3.23v0.71h-4.07v-6.63h4.03v0.72h-3.19v2.13h2.77v0.71H21.37z"/>
	<path class="st7" d="M31.08,302.46v0.71h-4.38l-0.01-0.66l3.3-5.25h-3.24v-0.72h4.2l0.01,0.64l-3.31,5.27H31.08z"/>
	<path class="st7" d="M37.59,301.03c0,0.31-0.05,0.6-0.16,0.87c-0.11,0.27-0.26,0.51-0.45,0.71c-0.19,0.2-0.42,0.36-0.68,0.48
		c-0.26,0.12-0.55,0.17-0.87,0.17c-0.32,0-0.61-0.06-0.88-0.17c-0.26-0.12-0.49-0.27-0.68-0.48c-0.19-0.2-0.33-0.44-0.44-0.71
		s-0.16-0.56-0.16-0.87l0.01-4.49h0.8l0.02,4.49c0,0.2,0.03,0.39,0.09,0.57c0.06,0.18,0.14,0.34,0.26,0.48
		c0.11,0.14,0.25,0.25,0.41,0.34c0.17,0.08,0.36,0.13,0.57,0.13c0.22,0,0.41-0.04,0.57-0.12c0.16-0.08,0.3-0.2,0.41-0.34
		c0.11-0.14,0.19-0.3,0.25-0.48c0.06-0.18,0.09-0.37,0.09-0.57l0.01-4.49h0.82L37.59,301.03z"/>
	<path class="st7" d="M40.76,300.11v2.35h3.23v0.71h-4.07v-6.63h4.03v0.72h-3.19v2.13h2.77v0.71H40.76z"/>
	<path class="st7" d="M50.54,302.46v0.71h-4.08v-6.63h0.84v5.91H50.54z"/>
	<path class="st7" d="M53.76,301.46l-0.53,1.72h-0.84l2.14-6.63h0.71l2.1,6.63h-0.84l-0.52-1.72H53.76z M55.75,300.72l-0.87-2.88
		l-0.89,2.88H55.75z"/>
</g>
</svg>
