<?xml version="1.0" encoding="utf-8"?>
<!-- Generator: Adobe Illustrator 27.0.1, SVG Export Plug-In . SVG Version: 6.00 Build 0)  -->
<svg version="1.1" id="Capa_1" xmlns="http://www.w3.org/2000/svg" xmlns:xlink="http://www.w3.org/1999/xlink" x="0px" y="0px"
	 viewBox="0 0 311 66" style="enable-background:new 0 0 311 66;" xml:space="preserve">
<style type="text/css">
	.st0{opacity:0.15;fill:#55A0B8;}
	.st1{opacity:0.5;}
	.st2{fill:none;}
	.st3{fill:none;stroke:#1D1D1B;stroke-width:0.25;stroke-linecap:round;stroke-linejoin:round;}
	.st4{opacity:0.35;}
	.st5{fill:none;stroke:#1D1D1B;stroke-width:0.25;stroke-linecap:round;stroke-linejoin:round;stroke-dasharray:0,0.751;}
	.st6{fill:none;stroke:#55A0B8;stroke-width:50;}
	.st7{fill:#55A0B8;}
	.st8{fill:#1D1D1B;}
	.st9{fill:none;stroke:#55A0B8;stroke-width:10;}
	
		.st10{opacity:0.5;fill:none;stroke:#1D1D1B;stroke-width:0.25;stroke-linecap:round;stroke-linejoin:round;stroke-dasharray:0,0.751;}
	.st11{fill:#FFFFFF;}
</style>
<rect y="9" class="st0" width="302" height="50"/>
<rect x="193.28" y="9" class="st7" width="108.72" height="50"/>
<g>
	<path class="st7" d="M11.65,21.94h-0.8v-3.06H8.13v3.06H7.34v-6.63h0.79v2.85h2.72v-2.85h0.8V21.94z"/>
	<path class="st7" d="M18.26,19.01c0,0.24-0.02,0.47-0.06,0.72c-0.04,0.24-0.1,0.47-0.18,0.7c-0.08,0.22-0.18,0.43-0.3,0.63
		c-0.12,0.2-0.27,0.37-0.44,0.51c-0.17,0.15-0.36,0.26-0.58,0.34c-0.22,0.08-0.47,0.12-0.74,0.12s-0.52-0.04-0.74-0.12
		c-0.22-0.08-0.41-0.2-0.58-0.34c-0.17-0.14-0.32-0.32-0.44-0.51s-0.23-0.41-0.31-0.63c-0.08-0.22-0.14-0.46-0.18-0.7
		c-0.04-0.24-0.06-0.48-0.06-0.71v-0.76c0-0.24,0.02-0.48,0.06-0.72c0.04-0.24,0.1-0.47,0.18-0.7s0.18-0.44,0.3-0.63
		s0.27-0.37,0.44-0.51c0.17-0.15,0.37-0.26,0.58-0.35c0.22-0.08,0.47-0.13,0.74-0.13c0.27,0,0.52,0.04,0.74,0.13
		c0.22,0.08,0.42,0.2,0.59,0.34c0.17,0.15,0.32,0.32,0.44,0.51c0.12,0.2,0.22,0.41,0.3,0.63s0.14,0.46,0.18,0.7
		c0.04,0.24,0.06,0.48,0.06,0.72V19.01z M17.43,18.25c0-0.16-0.01-0.32-0.03-0.49s-0.05-0.34-0.09-0.51
		c-0.04-0.17-0.1-0.33-0.18-0.48c-0.07-0.15-0.16-0.29-0.27-0.4c-0.11-0.12-0.24-0.21-0.39-0.28s-0.32-0.1-0.52-0.1
		c-0.19,0-0.37,0.04-0.51,0.11c-0.15,0.07-0.28,0.16-0.39,0.28s-0.2,0.25-0.27,0.4c-0.07,0.15-0.13,0.31-0.18,0.48
		c-0.04,0.17-0.08,0.34-0.1,0.51c-0.02,0.17-0.03,0.33-0.03,0.49v0.77c0,0.15,0.01,0.32,0.03,0.49c0.02,0.17,0.05,0.34,0.1,0.51
		c0.05,0.17,0.1,0.33,0.18,0.48c0.07,0.15,0.16,0.29,0.27,0.41c0.11,0.12,0.24,0.21,0.39,0.28s0.32,0.1,0.52,0.1s0.37-0.03,0.52-0.1
		s0.28-0.16,0.39-0.28c0.11-0.12,0.2-0.25,0.27-0.4c0.07-0.15,0.13-0.31,0.17-0.48s0.07-0.34,0.09-0.51
		c0.02-0.17,0.03-0.34,0.03-0.5V18.25z"/>
	<path class="st7" d="M21.34,15.31l1.08,3.31l1.17-3.31h1.05v6.63h-0.82V19.3l0.07-2.77l-1.22,3.57h-0.48l-1.12-3.47l0.07,2.67v2.64
		H20.3v-6.63H21.34z"/>
	<path class="st7" d="M30.52,18.88h-2.77v2.35h3.23v0.71h-4.07v-6.63h4.03v0.72h-3.19v2.13h2.77V18.88z"/>
	<path class="st7" d="M36.81,20.27c0-0.2-0.05-0.38-0.14-0.51c-0.09-0.14-0.21-0.26-0.36-0.35c-0.15-0.1-0.31-0.18-0.48-0.24
		c-0.17-0.06-0.34-0.12-0.5-0.17c-0.23-0.08-0.47-0.17-0.71-0.27c-0.24-0.11-0.46-0.24-0.66-0.39c-0.2-0.16-0.36-0.34-0.49-0.55
		c-0.12-0.21-0.19-0.46-0.19-0.74s0.06-0.54,0.19-0.77c0.13-0.22,0.29-0.41,0.49-0.57s0.43-0.27,0.69-0.35
		c0.26-0.08,0.52-0.12,0.78-0.12c0.29,0,0.57,0.05,0.83,0.14s0.5,0.23,0.71,0.4c0.21,0.17,0.37,0.38,0.5,0.63
		c0.12,0.25,0.19,0.52,0.2,0.82H36.8c-0.02-0.19-0.07-0.37-0.14-0.52c-0.07-0.16-0.16-0.29-0.28-0.4c-0.12-0.11-0.25-0.2-0.41-0.26
		c-0.16-0.06-0.34-0.09-0.54-0.09c-0.16,0-0.32,0.02-0.47,0.07c-0.15,0.04-0.29,0.11-0.41,0.21c-0.12,0.09-0.21,0.2-0.29,0.34
		c-0.07,0.13-0.11,0.29-0.11,0.46c0,0.19,0.05,0.35,0.15,0.48s0.21,0.24,0.36,0.33c0.14,0.09,0.3,0.17,0.47,0.23
		s0.33,0.11,0.48,0.16c0.16,0.05,0.33,0.11,0.5,0.18c0.17,0.07,0.33,0.14,0.48,0.23c0.15,0.08,0.3,0.18,0.43,0.29
		c0.13,0.11,0.25,0.23,0.35,0.36s0.18,0.28,0.24,0.45c0.06,0.16,0.08,0.34,0.08,0.54c0,0.3-0.07,0.56-0.2,0.78s-0.3,0.41-0.51,0.55
		c-0.21,0.15-0.45,0.26-0.71,0.33s-0.53,0.11-0.79,0.11c-0.29,0-0.58-0.04-0.87-0.14c-0.28-0.09-0.54-0.22-0.76-0.39
		s-0.4-0.38-0.54-0.63c-0.14-0.25-0.21-0.53-0.22-0.84h0.86c0.03,0.21,0.08,0.39,0.17,0.55c0.08,0.16,0.19,0.29,0.33,0.4
		c0.13,0.11,0.29,0.2,0.46,0.25c0.17,0.06,0.36,0.08,0.57,0.08c0.16,0,0.33-0.02,0.48-0.06c0.16-0.04,0.3-0.11,0.43-0.19
		c0.12-0.09,0.23-0.2,0.3-0.33C36.77,20.61,36.81,20.45,36.81,20.27z"/>
	<path class="st7" d="M10.6,24.5v0.76h-0.07c-0.28,0-0.53,0.03-0.75,0.09c-0.22,0.06-0.41,0.14-0.58,0.24
		c-0.17,0.1-0.31,0.22-0.43,0.36c-0.12,0.14-0.22,0.29-0.3,0.45c-0.08,0.16-0.14,0.33-0.18,0.51s-0.07,0.36-0.08,0.55
		c0.08-0.1,0.17-0.18,0.27-0.26c0.1-0.08,0.21-0.15,0.33-0.21c0.12-0.06,0.25-0.11,0.39-0.14s0.28-0.05,0.43-0.05
		c0.33,0,0.62,0.06,0.86,0.19c0.24,0.13,0.44,0.29,0.59,0.5c0.16,0.21,0.27,0.44,0.34,0.7c0.07,0.26,0.11,0.53,0.11,0.8
		c0,0.31-0.04,0.6-0.13,0.88c-0.09,0.27-0.22,0.51-0.39,0.72c-0.17,0.21-0.39,0.37-0.64,0.48s-0.55,0.18-0.89,0.18
		c-0.24,0-0.46-0.04-0.66-0.11c-0.2-0.07-0.38-0.16-0.54-0.28c-0.16-0.12-0.29-0.26-0.41-0.43c-0.12-0.16-0.22-0.34-0.29-0.53
		C7.5,29.69,7.44,29.5,7.4,29.29s-0.06-0.41-0.06-0.61v-0.4c0-0.3,0.02-0.61,0.06-0.91c0.04-0.3,0.1-0.6,0.19-0.88
		c0.09-0.28,0.21-0.54,0.37-0.79c0.15-0.24,0.35-0.46,0.58-0.63c0.24-0.18,0.52-0.32,0.84-0.42c0.33-0.1,0.71-0.15,1.14-0.15H10.6z
		 M9.49,27.48c-0.14,0-0.28,0.02-0.41,0.07c-0.13,0.05-0.26,0.11-0.37,0.19s-0.22,0.18-0.3,0.3s-0.16,0.24-0.21,0.38v0.28
		c0,0.29,0.03,0.55,0.1,0.78c0.07,0.23,0.16,0.42,0.28,0.57c0.12,0.15,0.25,0.27,0.41,0.35c0.16,0.08,0.32,0.12,0.49,0.12
		c0.2,0,0.37-0.04,0.52-0.11c0.15-0.08,0.28-0.18,0.38-0.31c0.1-0.13,0.18-0.29,0.24-0.48c0.05-0.19,0.08-0.39,0.08-0.61
		c0-0.19-0.03-0.38-0.07-0.57s-0.12-0.35-0.22-0.49c-0.1-0.14-0.23-0.26-0.38-0.34C9.88,27.53,9.7,27.48,9.49,27.48z"/>
	<path class="st7" d="M17.37,28.9h0.92v0.69h-0.92v1.54h-0.84v-1.54H13.5v-0.5l2.97-4.59h0.9V28.9z M14.44,28.9h2.09v-3.28
		l-0.14,0.25L14.44,28.9z"/>
	<path class="st7" d="M19.82,25.7c0-0.17,0.03-0.34,0.08-0.49c0.05-0.16,0.13-0.29,0.23-0.41c0.1-0.12,0.23-0.21,0.38-0.28
		c0.15-0.07,0.33-0.1,0.52-0.1c0.2,0,0.38,0.03,0.53,0.1s0.28,0.16,0.38,0.28c0.1,0.12,0.18,0.26,0.23,0.41s0.08,0.32,0.08,0.49
		v0.35c0,0.17-0.03,0.34-0.08,0.49c-0.05,0.16-0.13,0.29-0.23,0.41s-0.23,0.21-0.38,0.28s-0.33,0.1-0.52,0.1s-0.37-0.04-0.53-0.1
		c-0.15-0.07-0.28-0.16-0.38-0.28c-0.1-0.12-0.18-0.25-0.24-0.41c-0.05-0.15-0.08-0.32-0.08-0.49V25.7z M20.45,26.05
		c0,0.09,0.01,0.18,0.03,0.27c0.02,0.09,0.06,0.16,0.1,0.23s0.11,0.12,0.18,0.16s0.17,0.06,0.28,0.06c0.11,0,0.2-0.02,0.27-0.06
		s0.13-0.1,0.18-0.16c0.05-0.07,0.08-0.14,0.1-0.23c0.02-0.09,0.03-0.18,0.03-0.27V25.7c0-0.09-0.01-0.19-0.03-0.28
		c-0.02-0.09-0.06-0.17-0.11-0.24s-0.11-0.12-0.18-0.16s-0.17-0.06-0.28-0.06c-0.11,0-0.2,0.02-0.27,0.06s-0.13,0.1-0.18,0.16
		s-0.08,0.15-0.1,0.24c-0.02,0.09-0.03,0.18-0.03,0.28V26.05z M21.44,30.28l-0.51-0.28l2.58-4.72l0.5,0.28L21.44,30.28z
		 M22.56,29.59c0-0.17,0.03-0.34,0.08-0.49c0.05-0.16,0.13-0.29,0.23-0.41c0.1-0.12,0.23-0.21,0.38-0.28s0.33-0.1,0.52-0.1
		c0.2,0,0.38,0.04,0.53,0.1s0.28,0.16,0.38,0.28c0.1,0.12,0.18,0.25,0.23,0.41c0.05,0.15,0.08,0.32,0.08,0.49v0.36
		c0,0.17-0.03,0.34-0.08,0.49c-0.05,0.15-0.13,0.29-0.23,0.41c-0.1,0.12-0.23,0.21-0.38,0.28c-0.15,0.07-0.32,0.1-0.52,0.1
		c-0.2,0-0.38-0.03-0.53-0.1c-0.15-0.07-0.28-0.16-0.38-0.28c-0.1-0.12-0.18-0.25-0.23-0.41s-0.08-0.32-0.08-0.49V29.59z
		 M23.19,29.95c0,0.09,0.01,0.19,0.03,0.27s0.06,0.17,0.1,0.23s0.11,0.12,0.18,0.16s0.17,0.06,0.28,0.06c0.11,0,0.2-0.02,0.27-0.06
		c0.07-0.04,0.13-0.1,0.18-0.16s0.08-0.15,0.1-0.23c0.02-0.09,0.03-0.18,0.03-0.27v-0.36c0-0.09-0.01-0.18-0.03-0.27
		c-0.02-0.09-0.06-0.17-0.1-0.23c-0.05-0.07-0.11-0.12-0.18-0.16s-0.17-0.06-0.27-0.06c-0.11,0-0.2,0.02-0.28,0.06
		s-0.13,0.1-0.18,0.16c-0.05,0.07-0.08,0.15-0.1,0.23c-0.02,0.09-0.03,0.18-0.03,0.27V29.95z"/>
</g>
<g>
	<g>
		<path class="st11" d="M200.51,21.94v-6.63h1.53c0.46,0.01,0.87,0.08,1.24,0.23s0.67,0.36,0.92,0.63c0.25,0.27,0.44,0.59,0.57,0.96
			s0.2,0.79,0.2,1.24v0.49c0,0.46-0.07,0.87-0.2,1.24s-0.32,0.7-0.57,0.96c-0.25,0.27-0.56,0.48-0.92,0.63s-0.77,0.23-1.24,0.23
			H200.51z M201.37,16.01v5.25h0.68c0.36,0,0.67-0.07,0.93-0.19c0.26-0.12,0.48-0.29,0.65-0.5c0.17-0.21,0.3-0.46,0.38-0.75
			c0.08-0.29,0.13-0.6,0.13-0.94v-0.5c0-0.34-0.05-0.65-0.13-0.94s-0.21-0.54-0.38-0.75s-0.38-0.38-0.65-0.5
			c-0.26-0.12-0.57-0.19-0.93-0.19H201.37z"/>
		<path class="st11" d="M211.38,19.01c0,0.24-0.02,0.47-0.06,0.72c-0.04,0.24-0.1,0.47-0.18,0.7s-0.18,0.43-0.3,0.63
			c-0.12,0.2-0.27,0.37-0.44,0.51c-0.17,0.15-0.36,0.26-0.58,0.34c-0.22,0.08-0.47,0.12-0.74,0.12c-0.27,0-0.52-0.04-0.74-0.12
			c-0.22-0.08-0.42-0.2-0.58-0.34c-0.17-0.14-0.32-0.32-0.44-0.51c-0.12-0.2-0.23-0.41-0.31-0.63c-0.08-0.22-0.14-0.46-0.18-0.7
			c-0.04-0.24-0.06-0.48-0.06-0.71v-0.76c0-0.24,0.02-0.48,0.06-0.72c0.04-0.24,0.1-0.47,0.18-0.7c0.08-0.22,0.18-0.44,0.3-0.63
			s0.27-0.37,0.44-0.51c0.17-0.15,0.36-0.26,0.58-0.35c0.22-0.08,0.47-0.13,0.74-0.13c0.27,0,0.52,0.04,0.74,0.13
			c0.22,0.08,0.42,0.2,0.59,0.34c0.17,0.15,0.32,0.32,0.44,0.51c0.12,0.2,0.22,0.41,0.31,0.63c0.08,0.22,0.14,0.46,0.18,0.7
			c0.04,0.24,0.06,0.48,0.06,0.72V19.01z M210.54,18.25c0-0.16-0.01-0.32-0.03-0.49c-0.02-0.17-0.05-0.34-0.09-0.51
			s-0.1-0.33-0.17-0.48c-0.07-0.15-0.16-0.29-0.27-0.4c-0.11-0.12-0.24-0.21-0.39-0.28c-0.15-0.07-0.32-0.1-0.52-0.1
			c-0.19,0-0.37,0.04-0.51,0.11c-0.15,0.07-0.28,0.16-0.39,0.28s-0.2,0.25-0.27,0.4c-0.07,0.15-0.13,0.31-0.18,0.48
			c-0.04,0.17-0.08,0.34-0.1,0.51c-0.02,0.17-0.03,0.33-0.03,0.49v0.77c0,0.15,0.01,0.32,0.03,0.49c0.02,0.17,0.05,0.34,0.1,0.51
			c0.04,0.17,0.1,0.33,0.18,0.48c0.07,0.15,0.16,0.29,0.27,0.41c0.11,0.12,0.24,0.21,0.39,0.28s0.32,0.1,0.52,0.1
			s0.37-0.03,0.52-0.1c0.15-0.07,0.28-0.16,0.39-0.28c0.11-0.12,0.2-0.25,0.27-0.4c0.07-0.15,0.13-0.31,0.17-0.48
			s0.07-0.34,0.09-0.51c0.02-0.17,0.03-0.34,0.03-0.5V18.25z"/>
		<path class="st11" d="M217.68,21.94h-0.86l-2.57-4.95l-0.01,4.95h-0.85v-6.63h0.86l2.57,4.94l0.01-4.94h0.85V21.94z"/>
		<path class="st11" d="M223.63,18.88h-2.77v2.35h3.23v0.71h-4.07v-6.63h4.03v0.72h-3.19v2.13h2.77V18.88z"/>
		<path class="st11" d="M229.92,20.27c0-0.2-0.05-0.38-0.14-0.51c-0.09-0.14-0.21-0.26-0.36-0.35c-0.15-0.1-0.31-0.18-0.48-0.24
			c-0.17-0.06-0.34-0.12-0.5-0.17c-0.23-0.08-0.47-0.17-0.71-0.27c-0.24-0.11-0.46-0.24-0.66-0.39c-0.2-0.16-0.36-0.34-0.49-0.55
			s-0.19-0.46-0.19-0.74s0.06-0.54,0.19-0.77s0.29-0.41,0.49-0.57s0.43-0.27,0.69-0.35c0.26-0.08,0.52-0.12,0.78-0.12
			c0.29,0,0.57,0.05,0.83,0.14c0.27,0.1,0.5,0.23,0.71,0.4c0.21,0.17,0.37,0.38,0.5,0.63c0.12,0.25,0.19,0.52,0.2,0.82h-0.87
			c-0.02-0.19-0.07-0.37-0.14-0.52c-0.07-0.16-0.16-0.29-0.28-0.4c-0.12-0.11-0.25-0.2-0.41-0.26c-0.16-0.06-0.34-0.09-0.54-0.09
			c-0.16,0-0.32,0.02-0.47,0.07c-0.15,0.04-0.29,0.11-0.41,0.21c-0.12,0.09-0.22,0.2-0.29,0.34s-0.11,0.29-0.11,0.46
			c0,0.19,0.05,0.35,0.15,0.48c0.09,0.13,0.21,0.24,0.36,0.33c0.14,0.09,0.3,0.17,0.47,0.23c0.17,0.06,0.33,0.11,0.48,0.16
			c0.16,0.05,0.33,0.11,0.5,0.18c0.17,0.07,0.33,0.14,0.48,0.23c0.16,0.08,0.3,0.18,0.43,0.29c0.13,0.11,0.25,0.23,0.35,0.36
			s0.18,0.28,0.23,0.45c0.06,0.16,0.08,0.34,0.08,0.54c0,0.3-0.07,0.56-0.2,0.78c-0.13,0.22-0.3,0.41-0.51,0.55
			c-0.21,0.15-0.45,0.26-0.71,0.33c-0.26,0.07-0.53,0.11-0.79,0.11c-0.29,0-0.58-0.04-0.87-0.14c-0.28-0.09-0.54-0.22-0.76-0.39
			c-0.22-0.17-0.4-0.38-0.54-0.63c-0.14-0.25-0.21-0.53-0.22-0.84h0.86c0.03,0.21,0.08,0.39,0.17,0.55c0.08,0.16,0.19,0.29,0.33,0.4
			c0.13,0.11,0.29,0.2,0.46,0.25c0.17,0.06,0.36,0.08,0.57,0.08c0.16,0,0.33-0.02,0.48-0.06s0.3-0.11,0.43-0.19s0.23-0.2,0.3-0.33
			C229.88,20.61,229.92,20.45,229.92,20.27z"/>
		<path class="st11" d="M201.58,27.41h0.6c0.21,0,0.4-0.03,0.56-0.09c0.16-0.06,0.3-0.14,0.41-0.24c0.11-0.1,0.2-0.22,0.25-0.36
			c0.06-0.14,0.09-0.29,0.09-0.46c0-0.38-0.1-0.68-0.3-0.87c-0.2-0.2-0.49-0.29-0.87-0.29c-0.18,0-0.34,0.03-0.49,0.08
			s-0.27,0.13-0.38,0.23c-0.1,0.1-0.19,0.22-0.24,0.36c-0.06,0.14-0.09,0.29-0.09,0.47h-0.85c0-0.25,0.05-0.49,0.15-0.71
			s0.24-0.42,0.42-0.58s0.39-0.3,0.64-0.39c0.25-0.1,0.53-0.14,0.83-0.14c0.3,0,0.57,0.04,0.81,0.12c0.25,0.08,0.46,0.2,0.63,0.36
			c0.18,0.16,0.31,0.35,0.41,0.59c0.1,0.23,0.15,0.5,0.15,0.81c0,0.13-0.02,0.26-0.06,0.4c-0.04,0.14-0.1,0.27-0.18,0.4
			s-0.19,0.25-0.32,0.36c-0.13,0.12-0.28,0.21-0.46,0.29c0.22,0.07,0.4,0.16,0.54,0.27c0.14,0.11,0.26,0.24,0.35,0.38
			c0.09,0.14,0.15,0.29,0.18,0.44c0.04,0.15,0.05,0.31,0.05,0.46c0,0.31-0.05,0.58-0.16,0.82c-0.11,0.24-0.25,0.44-0.44,0.61
			c-0.19,0.17-0.41,0.29-0.67,0.38c-0.26,0.09-0.53,0.13-0.83,0.13c-0.29,0-0.57-0.04-0.82-0.12c-0.26-0.08-0.48-0.2-0.67-0.36
			c-0.19-0.16-0.34-0.35-0.45-0.58c-0.11-0.23-0.17-0.49-0.17-0.78h0.84c0,0.17,0.03,0.33,0.09,0.47c0.06,0.14,0.14,0.26,0.25,0.36
			s0.24,0.18,0.4,0.23s0.33,0.08,0.52,0.08c0.19,0,0.36-0.03,0.52-0.08c0.16-0.05,0.29-0.12,0.4-0.23s0.19-0.23,0.25-0.38
			c0.06-0.15,0.09-0.34,0.09-0.54c0-0.21-0.03-0.38-0.1-0.54s-0.16-0.28-0.29-0.38s-0.27-0.17-0.45-0.22s-0.37-0.07-0.58-0.07h-0.6
			V27.41z"/>
		<path class="st11" d="M210.17,24.5v0.76h-0.07c-0.28,0-0.53,0.03-0.75,0.09c-0.22,0.06-0.41,0.14-0.58,0.24
			c-0.17,0.1-0.31,0.22-0.43,0.36c-0.12,0.14-0.22,0.29-0.3,0.45c-0.08,0.16-0.14,0.33-0.18,0.51s-0.07,0.36-0.08,0.55
			c0.08-0.1,0.17-0.18,0.27-0.26c0.1-0.08,0.21-0.15,0.33-0.21c0.12-0.06,0.25-0.11,0.39-0.14c0.14-0.04,0.28-0.05,0.43-0.05
			c0.33,0,0.62,0.06,0.86,0.19c0.24,0.13,0.44,0.29,0.59,0.5c0.16,0.21,0.27,0.44,0.34,0.7c0.07,0.26,0.11,0.53,0.11,0.8
			c0,0.31-0.04,0.6-0.13,0.88c-0.09,0.27-0.22,0.51-0.39,0.72c-0.17,0.21-0.39,0.37-0.64,0.48c-0.26,0.12-0.55,0.18-0.89,0.18
			c-0.24,0-0.46-0.04-0.66-0.11c-0.2-0.07-0.38-0.16-0.54-0.28c-0.16-0.12-0.3-0.26-0.41-0.43s-0.22-0.34-0.29-0.53
			c-0.08-0.19-0.14-0.38-0.17-0.59c-0.04-0.2-0.06-0.41-0.06-0.61v-0.4c0-0.3,0.02-0.61,0.06-0.91s0.1-0.6,0.19-0.88
			c0.09-0.28,0.21-0.54,0.37-0.79c0.16-0.24,0.35-0.46,0.58-0.63c0.24-0.18,0.52-0.32,0.84-0.42c0.33-0.1,0.7-0.15,1.14-0.15H210.17
			z M209.07,27.48c-0.14,0-0.28,0.02-0.41,0.07c-0.13,0.05-0.26,0.11-0.37,0.19c-0.12,0.08-0.22,0.18-0.31,0.3s-0.16,0.24-0.21,0.38
			v0.28c0,0.29,0.03,0.55,0.1,0.78c0.07,0.23,0.16,0.42,0.28,0.57s0.25,0.27,0.41,0.35c0.15,0.08,0.32,0.12,0.49,0.12
			c0.2,0,0.37-0.04,0.52-0.11c0.15-0.08,0.28-0.18,0.38-0.31c0.11-0.13,0.18-0.29,0.24-0.48c0.05-0.19,0.08-0.39,0.08-0.61
			c0-0.19-0.02-0.38-0.07-0.57c-0.05-0.18-0.12-0.35-0.22-0.49c-0.1-0.14-0.23-0.26-0.38-0.34
			C209.45,27.53,209.27,27.48,209.07,27.48z"/>
		<path class="st11" d="M212.93,25.7c0-0.17,0.03-0.34,0.08-0.49c0.05-0.16,0.13-0.29,0.23-0.41c0.1-0.12,0.23-0.21,0.38-0.28
			c0.15-0.07,0.33-0.1,0.52-0.1c0.2,0,0.38,0.03,0.53,0.1s0.28,0.16,0.38,0.28c0.1,0.12,0.18,0.26,0.23,0.41s0.08,0.32,0.08,0.49
			v0.35c0,0.17-0.03,0.34-0.08,0.49c-0.05,0.16-0.13,0.29-0.23,0.41s-0.23,0.21-0.38,0.28s-0.33,0.1-0.52,0.1s-0.37-0.04-0.53-0.1
			s-0.28-0.16-0.38-0.28c-0.1-0.12-0.18-0.25-0.24-0.41c-0.05-0.15-0.08-0.32-0.08-0.49V25.7z M213.56,26.05
			c0,0.09,0.01,0.18,0.03,0.27c0.02,0.09,0.06,0.16,0.1,0.23s0.11,0.12,0.18,0.16s0.17,0.06,0.28,0.06c0.11,0,0.2-0.02,0.27-0.06
			s0.13-0.1,0.18-0.16c0.05-0.07,0.08-0.14,0.1-0.23c0.02-0.09,0.03-0.18,0.03-0.27V25.7c0-0.09-0.01-0.19-0.03-0.28
			c-0.02-0.09-0.06-0.17-0.1-0.24s-0.11-0.12-0.18-0.16c-0.08-0.04-0.17-0.06-0.28-0.06c-0.11,0-0.2,0.02-0.27,0.06
			s-0.13,0.1-0.18,0.16c-0.05,0.07-0.08,0.15-0.1,0.24s-0.03,0.18-0.03,0.28V26.05z M214.54,30.28l-0.5-0.28l2.58-4.72l0.5,0.28
			L214.54,30.28z M215.67,29.59c0-0.17,0.03-0.34,0.08-0.49c0.05-0.16,0.13-0.29,0.23-0.41c0.1-0.12,0.23-0.21,0.38-0.28
			c0.15-0.07,0.33-0.1,0.52-0.1c0.2,0,0.38,0.04,0.53,0.1c0.15,0.07,0.28,0.16,0.38,0.28c0.1,0.12,0.18,0.25,0.23,0.41
			c0.05,0.15,0.08,0.32,0.08,0.49v0.36c0,0.17-0.03,0.34-0.08,0.49c-0.05,0.15-0.13,0.29-0.23,0.41c-0.1,0.12-0.23,0.21-0.38,0.28
			s-0.32,0.1-0.52,0.1c-0.2,0-0.38-0.03-0.53-0.1s-0.28-0.16-0.38-0.28c-0.1-0.12-0.18-0.25-0.23-0.41s-0.08-0.32-0.08-0.49V29.59z
			 M216.3,29.95c0,0.09,0.01,0.19,0.03,0.27s0.06,0.17,0.1,0.23s0.11,0.12,0.18,0.16c0.08,0.04,0.17,0.06,0.28,0.06
			c0.11,0,0.2-0.02,0.27-0.06c0.07-0.04,0.13-0.1,0.18-0.16c0.04-0.07,0.08-0.15,0.1-0.23s0.03-0.18,0.03-0.27v-0.36
			c0-0.09-0.01-0.18-0.03-0.27s-0.05-0.17-0.1-0.23c-0.05-0.07-0.11-0.12-0.18-0.16c-0.08-0.04-0.17-0.06-0.27-0.06
			c-0.11,0-0.2,0.02-0.28,0.06s-0.13,0.1-0.18,0.16c-0.05,0.07-0.08,0.15-0.1,0.23c-0.02,0.09-0.03,0.18-0.03,0.27V29.95z"/>
	</g>
</g>
</svg>
