<?xml version="1.0" encoding="utf-8"?>
<!-- Generator: Adobe Illustrator 27.0.1, SVG Export Plug-In . SVG Version: 6.00 Build 0)  -->
<svg version="1.1" id="Capa_1" xmlns="http://www.w3.org/2000/svg" xmlns:xlink="http://www.w3.org/1999/xlink" x="0px" y="0px"
	 viewBox="0 0 311 540" style="enable-background:new 0 0 311 540;" xml:space="preserve">
<style type="text/css">
	.st0{opacity:0.15;fill:#55A0B8;}
	.st1{opacity:0.5;}
	.st2{fill:none;}
	.st3{fill:none;stroke:#1D1D1B;stroke-width:0.25;stroke-linecap:round;stroke-linejoin:round;}
	.st4{opacity:0.35;}
	.st5{fill:none;stroke:#1D1D1B;stroke-width:0.25;stroke-linecap:round;stroke-linejoin:round;stroke-dasharray:0,0.751;}
	.st6{fill:none;stroke:#55A0B8;stroke-width:50;}
	.st7{fill:#55A0B8;}
	.st8{fill:#1D1D1B;}
	.st9{fill:none;stroke:#55A0B8;stroke-width:10;}
	
		.st10{opacity:0.5;fill:none;stroke:#1D1D1B;stroke-width:0.25;stroke-linecap:round;stroke-linejoin:round;stroke-dasharray:0,0.751;}
	.st11{fill:#FFFFFF;}
</style>
<path class="st3" d="M300.01,0.12L300.01,0.12 M3.73,0.12L3.73,0.12"/>
<g>
	<path class="st7" d="M16.07,508.29v0.86l-4.95,2.57l4.95,0.01v0.85H9.45v-0.86l4.94-2.57l-4.94-0.01v-0.85H16.07z"/>
	<path class="st7" d="M9.45,505.98v-4.01h0.73v1.59h5.17v-1.59h0.73v4.01h-0.73v-1.55h-5.17v1.55H9.45z"/>
	<path class="st7" d="M14.08,495.22c0.31,0.04,0.59,0.12,0.84,0.24c0.26,0.12,0.48,0.27,0.66,0.46c0.18,0.19,0.33,0.42,0.43,0.67
		c0.1,0.26,0.15,0.55,0.15,0.87c0,0.27-0.04,0.52-0.12,0.75c-0.08,0.22-0.18,0.42-0.32,0.6c-0.14,0.17-0.3,0.33-0.48,0.45
		s-0.39,0.23-0.61,0.31c-0.22,0.08-0.45,0.15-0.69,0.19s-0.48,0.06-0.73,0.07H12.3c-0.25,0-0.49-0.02-0.73-0.07s-0.47-0.1-0.69-0.19
		c-0.22-0.08-0.42-0.19-0.61-0.31s-0.35-0.28-0.49-0.45c-0.14-0.17-0.24-0.37-0.32-0.59c-0.08-0.22-0.12-0.47-0.12-0.75
		c0-0.33,0.05-0.63,0.15-0.89c0.1-0.26,0.25-0.49,0.43-0.67c0.19-0.19,0.41-0.34,0.67-0.45c0.26-0.11,0.55-0.19,0.86-0.23v0.84
		c-0.2,0.03-0.39,0.07-0.56,0.14c-0.17,0.07-0.32,0.16-0.46,0.27s-0.23,0.25-0.31,0.41s-0.11,0.35-0.11,0.58
		c0,0.2,0.03,0.38,0.1,0.53c0.07,0.15,0.15,0.29,0.27,0.4c0.11,0.11,0.24,0.2,0.39,0.28c0.15,0.08,0.31,0.13,0.47,0.18
		c0.17,0.04,0.34,0.08,0.51,0.1c0.17,0.02,0.34,0.03,0.51,0.03h0.93c0.16,0,0.33-0.01,0.51-0.03s0.35-0.05,0.51-0.1
		c0.17-0.05,0.33-0.11,0.48-0.18c0.15-0.07,0.28-0.17,0.39-0.28c0.11-0.11,0.2-0.24,0.27-0.4c0.06-0.15,0.1-0.33,0.1-0.53
		c0-0.22-0.04-0.41-0.11-0.58c-0.07-0.16-0.17-0.3-0.29-0.41c-0.13-0.11-0.28-0.2-0.45-0.27c-0.17-0.07-0.36-0.11-0.56-0.14V495.22z
		"/>
	<path class="st7" d="M14.36,489.89v2.21l1.72,0.53v0.84l-6.63-2.14v-0.71l6.63-2.1v0.84L14.36,489.89z M13.62,491.88v-1.76
		l-2.88,0.87L13.62,491.88z"/>
	<path class="st7" d="M13.37,484.4v1.32h2.71v0.84H9.45v-1.94c0.01-0.31,0.05-0.6,0.13-0.87c0.08-0.27,0.2-0.51,0.37-0.72
		c0.16-0.2,0.37-0.37,0.62-0.48c0.25-0.12,0.54-0.17,0.87-0.17c0.22,0,0.41,0.03,0.59,0.09c0.18,0.06,0.34,0.15,0.49,0.26
		s0.28,0.24,0.39,0.39c0.11,0.15,0.21,0.32,0.29,0.5l2.83-1.41l0.05,0v0.89L13.37,484.4z M12.68,485.72v-1.13
		c0-0.19-0.03-0.37-0.09-0.53s-0.14-0.31-0.24-0.44c-0.11-0.13-0.24-0.23-0.39-0.3c-0.15-0.07-0.33-0.11-0.53-0.11
		c-0.21,0-0.4,0.04-0.56,0.1c-0.16,0.07-0.29,0.17-0.4,0.29c-0.11,0.12-0.19,0.27-0.24,0.44c-0.05,0.17-0.08,0.36-0.09,0.56v1.11
		H12.68z"/>
	<path class="st7" d="M14.36,476.97v2.21l1.72,0.53v0.84l-6.63-2.14v-0.71l6.63-2.1v0.84L14.36,476.97z M13.62,478.95v-1.76
		l-2.88,0.87L13.62,478.95z"/>
	<path class="st7" d="M15.2,469.38c0.33,0.28,0.57,0.6,0.73,0.96s0.24,0.76,0.23,1.19c0,0.27-0.04,0.52-0.12,0.75
		c-0.08,0.23-0.19,0.44-0.33,0.62c-0.14,0.18-0.31,0.34-0.5,0.48c-0.19,0.14-0.4,0.25-0.62,0.34c-0.22,0.09-0.46,0.16-0.7,0.21
		S13.4,474,13.15,474h-0.77c-0.25,0-0.49-0.03-0.73-0.07c-0.25-0.04-0.48-0.1-0.7-0.19s-0.43-0.19-0.63-0.32
		c-0.19-0.13-0.36-0.28-0.5-0.46c-0.14-0.18-0.25-0.38-0.34-0.6c-0.08-0.22-0.12-0.48-0.12-0.76c0-0.31,0.05-0.59,0.14-0.86
		s0.23-0.49,0.41-0.68c0.18-0.19,0.39-0.35,0.64-0.47c0.25-0.12,0.53-0.19,0.84-0.22v0.83c-0.19,0.03-0.37,0.08-0.53,0.15
		c-0.16,0.07-0.3,0.16-0.42,0.28c-0.12,0.11-0.21,0.25-0.27,0.41c-0.07,0.16-0.1,0.34-0.1,0.55c0,0.2,0.03,0.38,0.1,0.53
		c0.07,0.16,0.16,0.29,0.28,0.41s0.25,0.21,0.4,0.29c0.15,0.08,0.32,0.14,0.49,0.19s0.34,0.08,0.52,0.1
		c0.18,0.02,0.35,0.03,0.51,0.03h0.78c0.17,0,0.34-0.02,0.52-0.04c0.18-0.03,0.35-0.07,0.52-0.12s0.33-0.12,0.48-0.21
		c0.15-0.08,0.29-0.19,0.4-0.31c0.12-0.12,0.21-0.26,0.28-0.42c0.07-0.16,0.1-0.34,0.11-0.54c0-0.12,0-0.24-0.01-0.36
		s-0.04-0.25-0.07-0.37c-0.04-0.12-0.09-0.23-0.15-0.33c-0.06-0.1-0.14-0.19-0.24-0.26l-1.49-0.01v1.35h-0.71v-2.15L15.2,469.38z"/>
	<path class="st7" d="M9.45,463.04l4.49-0.01c0.31,0.01,0.6,0.06,0.87,0.17s0.51,0.25,0.71,0.45c0.2,0.19,0.36,0.42,0.48,0.68
		c0.12,0.26,0.17,0.55,0.17,0.87c0,0.32-0.06,0.61-0.17,0.88c-0.12,0.26-0.27,0.49-0.48,0.68c-0.2,0.19-0.44,0.33-0.71,0.44
		c-0.27,0.11-0.56,0.16-0.87,0.16l-4.49-0.01v-0.8l4.49-0.02c0.2,0,0.39-0.03,0.57-0.09s0.34-0.14,0.48-0.25
		c0.14-0.11,0.25-0.25,0.34-0.41c0.09-0.17,0.13-0.36,0.13-0.57c0-0.22-0.04-0.41-0.13-0.57c-0.08-0.16-0.2-0.3-0.34-0.41
		c-0.14-0.11-0.3-0.2-0.49-0.25s-0.37-0.09-0.57-0.09l-4.49-0.01V463.04z"/>
	<path class="st7" d="M14.36,457.58v2.21l1.72,0.53v0.84l-6.63-2.14v-0.71l6.63-2.1v0.84L14.36,457.58z M13.62,459.56v-1.76
		l-2.88,0.87L13.62,459.56z"/>
</g>
<g>
	<path class="st7" d="M45.43,515.75v2.21l1.72,0.53v0.84l-6.63-2.14v-0.71l6.63-2.1v0.84L45.43,515.75z M44.7,517.73v-1.76
		l-2.88,0.87L44.7,517.73z"/>
	<path class="st7" d="M44.22,508.76v2.76h2.93v0.85h-6.63v-4.07h0.72v3.22h2.27v-2.76H44.22z"/>
	<path class="st7" d="M46.28,501.7c0.33,0.28,0.57,0.6,0.73,0.96s0.24,0.76,0.23,1.19c0,0.27-0.04,0.52-0.12,0.75
		c-0.08,0.23-0.19,0.44-0.33,0.62c-0.14,0.18-0.31,0.34-0.5,0.48c-0.19,0.14-0.4,0.25-0.62,0.34c-0.22,0.09-0.46,0.16-0.7,0.21
		c-0.24,0.05-0.49,0.07-0.74,0.08h-0.77c-0.25,0-0.49-0.03-0.74-0.07s-0.48-0.1-0.7-0.19s-0.43-0.19-0.63-0.32
		c-0.19-0.13-0.36-0.28-0.5-0.46c-0.14-0.18-0.25-0.38-0.33-0.6s-0.12-0.48-0.12-0.76c0-0.31,0.05-0.59,0.14-0.86
		c0.1-0.26,0.23-0.49,0.41-0.68s0.39-0.35,0.64-0.47c0.25-0.12,0.53-0.19,0.84-0.22v0.83c-0.19,0.03-0.37,0.08-0.53,0.15
		c-0.16,0.07-0.3,0.16-0.42,0.28c-0.12,0.11-0.21,0.25-0.27,0.41c-0.06,0.16-0.1,0.34-0.1,0.55c0,0.2,0.04,0.38,0.1,0.53
		c0.07,0.16,0.16,0.29,0.28,0.41c0.12,0.12,0.25,0.21,0.4,0.29c0.15,0.08,0.31,0.14,0.48,0.19s0.34,0.08,0.52,0.1
		s0.35,0.03,0.51,0.03h0.78c0.17,0,0.34-0.02,0.52-0.04c0.18-0.03,0.35-0.07,0.52-0.12s0.33-0.12,0.48-0.21
		c0.15-0.08,0.29-0.19,0.4-0.31s0.21-0.26,0.28-0.42c0.07-0.16,0.1-0.34,0.11-0.54c0-0.12,0-0.24-0.01-0.36s-0.04-0.25-0.07-0.37
		c-0.04-0.12-0.09-0.23-0.15-0.33s-0.14-0.19-0.24-0.26l-1.49-0.01v1.35h-0.71v-2.15L46.28,501.7z"/>
	<path class="st7" d="M45.43,496.36v2.21l1.72,0.53v0.84l-6.63-2.14v-0.71l6.63-2.1v0.84L45.43,496.36z M44.7,498.34v-1.76
		l-2.88,0.87L44.7,498.34z"/>
	<path class="st7" d="M47.15,488.91v0.86l-4.95,2.57l4.95,0.01v0.85h-6.63v-0.86l4.94-2.57l-4.94-0.01v-0.85H47.15z"/>
	<path class="st7" d="M40.52,486.6v-4.01h0.73v1.59h5.17v-1.59h0.73v4.01h-0.73v-1.55h-5.17v1.55H40.52z"/>
	<path class="st7" d="M45.47,476.67c-0.2,0-0.38,0.05-0.51,0.14c-0.14,0.09-0.26,0.21-0.35,0.36s-0.17,0.31-0.24,0.48
		c-0.06,0.17-0.12,0.34-0.17,0.5c-0.08,0.23-0.17,0.47-0.27,0.71c-0.11,0.24-0.24,0.46-0.39,0.66c-0.15,0.2-0.34,0.36-0.55,0.49
		c-0.21,0.13-0.46,0.19-0.74,0.19s-0.54-0.06-0.76-0.19s-0.42-0.29-0.57-0.49c-0.15-0.2-0.27-0.43-0.35-0.69
		c-0.08-0.26-0.12-0.52-0.12-0.78c0-0.29,0.05-0.57,0.14-0.83c0.1-0.27,0.23-0.5,0.4-0.71c0.17-0.21,0.38-0.37,0.63-0.5
		c0.25-0.12,0.52-0.19,0.82-0.2v0.86c-0.19,0.02-0.37,0.07-0.52,0.14c-0.16,0.07-0.29,0.16-0.4,0.28s-0.2,0.25-0.26,0.41
		s-0.09,0.34-0.09,0.54c0,0.16,0.02,0.32,0.07,0.47c0.05,0.15,0.11,0.29,0.21,0.41c0.09,0.12,0.2,0.21,0.34,0.29
		s0.29,0.11,0.46,0.11c0.19,0,0.35-0.05,0.49-0.15c0.13-0.09,0.24-0.21,0.33-0.36c0.09-0.14,0.17-0.3,0.23-0.47
		c0.06-0.17,0.12-0.33,0.16-0.48c0.05-0.16,0.11-0.33,0.18-0.5c0.06-0.17,0.14-0.33,0.22-0.48c0.08-0.15,0.18-0.3,0.29-0.43
		c0.11-0.13,0.23-0.25,0.36-0.35c0.13-0.1,0.28-0.18,0.45-0.23c0.16-0.06,0.34-0.08,0.54-0.08c0.3,0,0.56,0.07,0.78,0.2
		s0.41,0.3,0.55,0.51c0.15,0.21,0.26,0.45,0.33,0.71c0.07,0.26,0.11,0.53,0.11,0.79c0,0.29-0.05,0.58-0.14,0.86
		c-0.09,0.28-0.22,0.54-0.39,0.76c-0.17,0.22-0.38,0.41-0.63,0.54c-0.25,0.14-0.53,0.21-0.85,0.22v-0.86
		c0.21-0.03,0.39-0.08,0.55-0.17c0.16-0.08,0.29-0.19,0.41-0.33s0.19-0.29,0.25-0.46c0.06-0.17,0.08-0.37,0.08-0.57
		c0-0.16-0.02-0.33-0.06-0.49s-0.1-0.3-0.19-0.43c-0.09-0.12-0.2-0.23-0.33-0.3C45.81,476.71,45.65,476.67,45.47,476.67z"/>
	<path class="st7" d="M41.24,469.21v2.05h5.91v0.82h-5.91v2.05h-0.72v-4.92H41.24z"/>
	<path class="st7" d="M45.43,464.05v2.21l1.72,0.53v0.84l-6.63-2.14v-0.71l6.63-2.1v0.84L45.43,464.05z M44.7,466.03v-1.76
		l-2.88,0.87L44.7,466.03z"/>
	<path class="st7" d="M47.15,456.6v0.86l-4.95,2.57l4.95,0.01v0.85h-6.63v-0.86l4.94-2.57l-4.94-0.01v-0.85H47.15z"/>
</g>
<g>
	<path class="st7" d="M75.56,505.05h2.66v0.84h-6.63v-2.15c0.01-0.3,0.05-0.58,0.14-0.84s0.21-0.5,0.38-0.7s0.37-0.36,0.62-0.48
		c0.25-0.12,0.53-0.18,0.85-0.18s0.6,0.06,0.84,0.18s0.45,0.28,0.62,0.48c0.17,0.2,0.29,0.43,0.38,0.7s0.13,0.55,0.14,0.84V505.05z
		 M74.87,505.05v-1.31c0-0.19-0.04-0.37-0.09-0.54s-0.14-0.31-0.25-0.43c-0.11-0.12-0.24-0.22-0.4-0.28s-0.34-0.1-0.54-0.1
		c-0.2,0-0.38,0.03-0.54,0.1s-0.3,0.16-0.41,0.28c-0.11,0.12-0.2,0.26-0.26,0.43s-0.09,0.34-0.1,0.54v1.31H74.87z"/>
	<path class="st7" d="M76.51,496.34v2.21l1.72,0.53v0.84l-6.63-2.14v-0.71l6.63-2.1v0.84L76.51,496.34z M75.77,498.33v-1.76
		l-2.88,0.87L75.77,498.33z"/>
	<path class="st7" d="M75.15,491.46l0.84,0.74h2.24v0.86h-6.63v-0.86h3.24l-0.8-0.64l-2.44-1.94v-1.02l2.9,2.32l3.73-2.47v1.02
		L75.15,491.46z"/>
	<path class="st7" d="M71.59,486.58v-4.01h0.73v1.59h5.17v-1.59h0.73v4.01h-0.73v-1.55h-5.17v1.55H71.59z"/>
	<path class="st7" d="M76.55,476.65c-0.2,0-0.38,0.05-0.51,0.14c-0.14,0.09-0.26,0.21-0.35,0.36s-0.17,0.31-0.24,0.48
		c-0.06,0.17-0.12,0.34-0.17,0.5c-0.08,0.23-0.17,0.47-0.27,0.71c-0.11,0.24-0.24,0.46-0.39,0.66c-0.15,0.2-0.34,0.36-0.55,0.49
		c-0.21,0.13-0.46,0.19-0.74,0.19s-0.54-0.06-0.76-0.19s-0.42-0.29-0.57-0.49c-0.15-0.2-0.27-0.43-0.35-0.69
		c-0.08-0.26-0.12-0.52-0.12-0.78c0-0.29,0.05-0.57,0.14-0.83c0.1-0.27,0.23-0.5,0.4-0.71c0.17-0.21,0.38-0.37,0.63-0.5
		c0.25-0.12,0.52-0.19,0.82-0.2v0.86c-0.19,0.02-0.37,0.07-0.52,0.14c-0.16,0.07-0.29,0.16-0.4,0.28s-0.2,0.25-0.26,0.41
		s-0.09,0.34-0.09,0.54c0,0.16,0.02,0.32,0.07,0.47c0.05,0.15,0.11,0.29,0.21,0.41c0.09,0.12,0.2,0.21,0.34,0.29
		s0.29,0.11,0.46,0.11c0.19,0,0.35-0.05,0.49-0.15c0.13-0.09,0.24-0.21,0.33-0.36c0.09-0.14,0.17-0.3,0.23-0.47
		c0.06-0.17,0.12-0.33,0.16-0.48c0.05-0.16,0.11-0.33,0.18-0.5c0.06-0.17,0.14-0.33,0.22-0.48c0.08-0.15,0.18-0.3,0.29-0.43
		c0.11-0.13,0.23-0.25,0.36-0.35c0.13-0.1,0.28-0.18,0.45-0.23c0.16-0.06,0.34-0.08,0.54-0.08c0.3,0,0.56,0.07,0.78,0.2
		s0.41,0.3,0.55,0.51c0.15,0.21,0.26,0.45,0.33,0.71c0.07,0.26,0.11,0.53,0.11,0.79c0,0.29-0.05,0.58-0.14,0.86
		c-0.09,0.28-0.22,0.54-0.39,0.76c-0.17,0.22-0.38,0.41-0.63,0.54c-0.25,0.14-0.53,0.21-0.85,0.22v-0.86
		c0.21-0.03,0.39-0.08,0.55-0.17c0.16-0.08,0.29-0.19,0.41-0.33s0.19-0.29,0.25-0.46c0.06-0.17,0.08-0.37,0.08-0.57
		c0-0.16-0.02-0.33-0.06-0.49s-0.1-0.3-0.19-0.43c-0.09-0.12-0.2-0.23-0.33-0.3C76.89,476.69,76.73,476.65,76.55,476.65z"/>
	<path class="st7" d="M72.31,469.19v2.05h5.91v0.82h-5.91v2.05h-0.72v-4.92H72.31z"/>
	<path class="st7" d="M76.51,464.03v2.21l1.72,0.53v0.84l-6.63-2.14v-0.71l6.63-2.1v0.84L76.51,464.03z M75.77,466.02v-1.76
		l-2.88,0.87L75.77,466.02z"/>
	<path class="st7" d="M78.22,456.58v0.86l-4.95,2.57l4.95,0.01v0.85h-6.63v-0.86l4.94-2.57l-4.94-0.01v-0.85H78.22z"/>
</g>
<g>
	<path class="st7" d="M109.3,501.81v0.8h-3.06v2.72h3.06v0.79h-6.63v-0.79h2.85v-2.72h-2.85v-0.8H109.3z"/>
	<path class="st7" d="M106.37,495.2c0.24,0,0.48,0.02,0.72,0.06s0.47,0.1,0.7,0.18c0.22,0.08,0.43,0.18,0.63,0.3
		s0.36,0.27,0.51,0.44c0.15,0.17,0.26,0.36,0.34,0.58c0.08,0.22,0.12,0.47,0.12,0.74s-0.04,0.52-0.12,0.74
		c-0.08,0.22-0.2,0.42-0.34,0.58s-0.32,0.32-0.51,0.44c-0.2,0.12-0.41,0.23-0.63,0.31c-0.22,0.08-0.46,0.14-0.7,0.18
		c-0.24,0.04-0.48,0.06-0.71,0.06h-0.76c-0.24,0-0.48-0.02-0.72-0.06s-0.47-0.1-0.7-0.18c-0.22-0.08-0.43-0.18-0.63-0.3
		c-0.2-0.12-0.37-0.27-0.51-0.44s-0.26-0.37-0.35-0.58c-0.08-0.22-0.13-0.47-0.13-0.74c0-0.27,0.04-0.52,0.13-0.74
		c0.08-0.22,0.2-0.42,0.34-0.59c0.15-0.17,0.32-0.32,0.51-0.44c0.2-0.12,0.41-0.22,0.63-0.3s0.46-0.14,0.7-0.18
		c0.24-0.04,0.48-0.06,0.72-0.06H106.37z M105.6,496.03c-0.16,0-0.32,0.01-0.49,0.03s-0.34,0.05-0.51,0.09
		c-0.17,0.04-0.33,0.1-0.48,0.17s-0.29,0.16-0.41,0.27c-0.12,0.11-0.21,0.24-0.28,0.39s-0.1,0.32-0.1,0.52
		c0,0.19,0.03,0.37,0.1,0.51c0.07,0.15,0.16,0.28,0.28,0.39c0.12,0.11,0.25,0.2,0.41,0.27c0.15,0.07,0.31,0.13,0.48,0.18
		c0.17,0.04,0.34,0.08,0.51,0.09c0.17,0.02,0.33,0.03,0.49,0.03h0.76c0.15,0,0.32-0.01,0.49-0.03c0.17-0.02,0.34-0.05,0.51-0.1
		c0.17-0.04,0.33-0.1,0.48-0.18c0.16-0.07,0.29-0.16,0.41-0.27c0.12-0.11,0.21-0.24,0.28-0.39c0.07-0.15,0.1-0.32,0.1-0.52
		s-0.03-0.37-0.1-0.52c-0.07-0.15-0.16-0.28-0.28-0.39c-0.12-0.11-0.25-0.2-0.4-0.27s-0.31-0.13-0.48-0.17
		c-0.17-0.04-0.34-0.07-0.51-0.09s-0.34-0.03-0.5-0.03H105.6z"/>
	<path class="st7" d="M109.3,488.89v0.86l-4.95,2.57l4.95,0.01v0.85h-6.63v-0.86l4.94-2.57l-4.94-0.01v-0.85H109.3z"/>
	<path class="st7" d="M109.3,486.67h-6.63v-1.53c0.01-0.46,0.08-0.87,0.23-1.24c0.15-0.36,0.36-0.67,0.63-0.92
		c0.27-0.25,0.59-0.44,0.96-0.57s0.79-0.2,1.25-0.2h0.49c0.46,0,0.87,0.07,1.25,0.2s0.7,0.32,0.96,0.57
		c0.27,0.25,0.48,0.56,0.63,0.92c0.15,0.36,0.23,0.77,0.23,1.24V486.67z M103.36,485.81h5.25v-0.68c0-0.36-0.07-0.67-0.19-0.93
		c-0.12-0.26-0.29-0.48-0.5-0.65c-0.21-0.17-0.46-0.3-0.75-0.38c-0.29-0.08-0.6-0.13-0.94-0.13h-0.5c-0.34,0-0.65,0.05-0.94,0.13
		s-0.54,0.21-0.75,0.38c-0.21,0.17-0.38,0.39-0.5,0.65c-0.12,0.26-0.19,0.57-0.19,0.93V485.81z"/>
	<path class="st7" d="M102.67,475.96l4.49-0.01c0.31,0.01,0.6,0.06,0.87,0.17c0.27,0.11,0.51,0.25,0.71,0.45
		c0.2,0.19,0.36,0.42,0.48,0.68c0.12,0.26,0.17,0.55,0.17,0.87c0,0.32-0.06,0.61-0.17,0.88c-0.12,0.26-0.27,0.49-0.48,0.68
		s-0.44,0.33-0.71,0.44s-0.56,0.16-0.87,0.16l-4.49-0.01v-0.8l4.49-0.02c0.2,0,0.39-0.03,0.57-0.09c0.18-0.06,0.34-0.14,0.48-0.25
		s0.25-0.25,0.34-0.41c0.08-0.17,0.13-0.36,0.13-0.57c0-0.22-0.04-0.41-0.12-0.57c-0.08-0.16-0.2-0.3-0.34-0.41
		c-0.14-0.11-0.3-0.2-0.48-0.25c-0.18-0.06-0.37-0.09-0.57-0.09l-4.49-0.01V475.96z"/>
	<path class="st7" d="M106.59,471.46v1.32h2.7v0.84h-6.63v-1.94c0.01-0.31,0.05-0.6,0.13-0.87c0.08-0.27,0.21-0.51,0.37-0.72
		c0.16-0.2,0.37-0.37,0.62-0.48c0.25-0.12,0.54-0.17,0.87-0.17c0.21,0,0.41,0.03,0.59,0.09c0.18,0.06,0.34,0.15,0.49,0.26
		c0.15,0.11,0.27,0.24,0.39,0.39c0.11,0.15,0.21,0.32,0.29,0.5l2.83-1.41l0.05,0v0.89L106.59,471.46z M105.9,472.79v-1.13
		c0-0.19-0.03-0.37-0.09-0.53c-0.06-0.17-0.14-0.31-0.24-0.44s-0.24-0.23-0.39-0.3c-0.15-0.07-0.33-0.11-0.53-0.11
		c-0.21,0-0.4,0.04-0.56,0.1c-0.16,0.07-0.29,0.17-0.4,0.29c-0.11,0.12-0.19,0.27-0.24,0.44s-0.08,0.36-0.09,0.56v1.11H105.9z"/>
	<path class="st7" d="M106.24,463.55v2.77h2.35v-3.23h0.71v4.07h-6.63v-4.03h0.72v3.19h2.13v-2.77H106.24z"/>
	<path class="st7" d="M107.62,457.27c-0.2,0-0.37,0.05-0.51,0.14s-0.26,0.21-0.35,0.36c-0.09,0.15-0.17,0.31-0.24,0.48
		c-0.06,0.17-0.12,0.34-0.17,0.5c-0.08,0.23-0.17,0.47-0.27,0.71s-0.24,0.46-0.39,0.66c-0.16,0.2-0.34,0.36-0.55,0.49
		s-0.46,0.19-0.74,0.19s-0.54-0.06-0.76-0.19s-0.41-0.29-0.57-0.49c-0.15-0.2-0.27-0.43-0.35-0.69s-0.12-0.52-0.12-0.78
		c0-0.29,0.05-0.57,0.14-0.83c0.1-0.27,0.23-0.5,0.4-0.71c0.17-0.21,0.38-0.37,0.63-0.5c0.25-0.12,0.52-0.19,0.82-0.2v0.86
		c-0.19,0.02-0.37,0.07-0.52,0.14c-0.16,0.07-0.29,0.16-0.4,0.28c-0.11,0.12-0.2,0.25-0.26,0.41c-0.06,0.16-0.09,0.34-0.09,0.54
		c0,0.16,0.02,0.32,0.07,0.47c0.04,0.15,0.11,0.29,0.21,0.41c0.09,0.12,0.2,0.21,0.34,0.29c0.13,0.07,0.29,0.11,0.46,0.11
		c0.19,0,0.35-0.05,0.49-0.15c0.13-0.09,0.24-0.21,0.33-0.36c0.09-0.14,0.17-0.3,0.23-0.47c0.06-0.17,0.11-0.33,0.16-0.48
		c0.05-0.16,0.11-0.33,0.18-0.5s0.14-0.33,0.23-0.48c0.08-0.15,0.18-0.3,0.29-0.43c0.11-0.13,0.23-0.25,0.36-0.35
		c0.13-0.1,0.28-0.18,0.45-0.23c0.16-0.06,0.34-0.08,0.54-0.08c0.3,0,0.56,0.07,0.78,0.2c0.22,0.13,0.41,0.3,0.55,0.51
		c0.15,0.21,0.26,0.45,0.33,0.71c0.07,0.26,0.11,0.53,0.11,0.79c0,0.29-0.04,0.58-0.14,0.86c-0.09,0.28-0.22,0.54-0.39,0.76
		c-0.17,0.22-0.38,0.41-0.63,0.54c-0.25,0.14-0.53,0.21-0.84,0.22v-0.86c0.21-0.03,0.39-0.08,0.55-0.17s0.29-0.19,0.41-0.33
		c0.11-0.13,0.19-0.29,0.25-0.46c0.06-0.17,0.08-0.37,0.08-0.57c0-0.16-0.02-0.33-0.06-0.49s-0.1-0.3-0.19-0.43
		c-0.09-0.12-0.2-0.23-0.33-0.3S107.81,457.27,107.62,457.27z"/>
</g>
<g>
	<path class="st7" d="M137.71,479.17h2.66v0.84h-6.63v-2.15c0.01-0.3,0.05-0.58,0.14-0.84s0.22-0.5,0.38-0.7s0.37-0.36,0.62-0.48
		c0.25-0.12,0.53-0.18,0.85-0.18c0.32,0,0.6,0.06,0.84,0.18c0.25,0.12,0.45,0.28,0.62,0.48s0.29,0.43,0.38,0.7s0.13,0.55,0.14,0.84
		V479.17z M137.02,479.17v-1.31c0-0.19-0.03-0.37-0.09-0.54c-0.06-0.16-0.14-0.31-0.25-0.43s-0.24-0.22-0.4-0.28s-0.33-0.1-0.54-0.1
		s-0.38,0.03-0.54,0.1c-0.16,0.07-0.3,0.16-0.41,0.28c-0.11,0.12-0.2,0.26-0.26,0.43s-0.09,0.34-0.1,0.54v1.31H137.02z"/>
	<path class="st7" d="M137.31,469.98v2.77h2.35v-3.23h0.71v4.07h-6.63v-4.03h0.72v3.19h2.13v-2.77H137.31z"/>
	<path class="st7" d="M137.67,464.97v1.32h2.7v0.84h-6.63v-1.94c0.01-0.31,0.05-0.6,0.13-0.87c0.08-0.27,0.21-0.51,0.37-0.72
		c0.16-0.2,0.37-0.37,0.62-0.48c0.25-0.12,0.54-0.17,0.87-0.17c0.21,0,0.41,0.03,0.59,0.09c0.18,0.06,0.34,0.15,0.49,0.26
		c0.15,0.11,0.27,0.24,0.39,0.39c0.11,0.15,0.21,0.32,0.29,0.5l2.83-1.41l0.05,0v0.89L137.67,464.97z M136.98,466.29v-1.13
		c0-0.19-0.03-0.37-0.09-0.53c-0.06-0.17-0.14-0.31-0.24-0.44s-0.24-0.23-0.39-0.3c-0.15-0.07-0.33-0.11-0.53-0.11
		c-0.21,0-0.4,0.04-0.56,0.1c-0.16,0.07-0.29,0.17-0.4,0.29c-0.11,0.12-0.19,0.27-0.24,0.44s-0.08,0.36-0.09,0.56v1.11H136.98z"/>
	<path class="st7" d="M132.12,458.05v-1.02l1.21,1.22v0.64L132.12,458.05z M133.75,456.54l4.49-0.01c0.31,0.01,0.6,0.06,0.87,0.17
		c0.27,0.11,0.51,0.25,0.71,0.45c0.2,0.19,0.36,0.42,0.48,0.68c0.12,0.26,0.17,0.55,0.17,0.87c0,0.32-0.06,0.61-0.17,0.88
		c-0.12,0.26-0.27,0.49-0.48,0.68s-0.44,0.33-0.71,0.44s-0.56,0.16-0.87,0.16l-4.49-0.01v-0.8l4.49-0.02c0.2,0,0.39-0.03,0.57-0.09
		c0.18-0.06,0.34-0.14,0.48-0.25s0.25-0.25,0.34-0.41c0.08-0.17,0.13-0.36,0.13-0.57c0-0.22-0.04-0.41-0.12-0.57
		c-0.08-0.16-0.2-0.3-0.34-0.41c-0.14-0.11-0.3-0.2-0.48-0.25c-0.18-0.06-0.37-0.09-0.57-0.09l-4.49-0.01V456.54z"/>
</g>
<g>
	<path class="st7" d="M169.77,496.03c-0.2,0-0.37,0.05-0.51,0.14s-0.26,0.21-0.35,0.36c-0.09,0.15-0.17,0.31-0.24,0.48
		c-0.06,0.17-0.12,0.34-0.17,0.5c-0.08,0.23-0.17,0.47-0.27,0.71s-0.24,0.46-0.39,0.66c-0.16,0.2-0.34,0.36-0.55,0.49
		s-0.46,0.19-0.74,0.19s-0.54-0.06-0.76-0.19s-0.41-0.29-0.57-0.49c-0.15-0.2-0.27-0.43-0.35-0.69s-0.12-0.52-0.12-0.78
		c0-0.29,0.05-0.57,0.14-0.83c0.1-0.27,0.23-0.5,0.4-0.71c0.17-0.21,0.38-0.37,0.63-0.5c0.25-0.12,0.52-0.19,0.82-0.2v0.86
		c-0.19,0.02-0.37,0.07-0.52,0.14c-0.16,0.07-0.29,0.16-0.4,0.28c-0.11,0.12-0.2,0.25-0.26,0.41c-0.06,0.16-0.09,0.34-0.09,0.54
		c0,0.16,0.02,0.32,0.07,0.47c0.04,0.15,0.11,0.29,0.21,0.41c0.09,0.12,0.2,0.21,0.34,0.29c0.13,0.07,0.29,0.11,0.46,0.11
		c0.19,0,0.35-0.05,0.49-0.15c0.13-0.09,0.24-0.21,0.33-0.36c0.09-0.14,0.17-0.3,0.23-0.47c0.06-0.17,0.11-0.33,0.16-0.48
		c0.05-0.16,0.11-0.33,0.18-0.5s0.14-0.33,0.23-0.48c0.08-0.15,0.18-0.3,0.29-0.43c0.11-0.13,0.23-0.25,0.36-0.35
		c0.13-0.1,0.28-0.18,0.45-0.23c0.16-0.06,0.34-0.08,0.54-0.08c0.3,0,0.56,0.07,0.78,0.2c0.22,0.13,0.41,0.3,0.55,0.51
		c0.15,0.21,0.26,0.45,0.33,0.71c0.07,0.26,0.11,0.53,0.11,0.79c0,0.29-0.04,0.58-0.14,0.86c-0.09,0.28-0.22,0.54-0.39,0.76
		c-0.17,0.22-0.38,0.41-0.63,0.54c-0.25,0.14-0.53,0.21-0.84,0.22v-0.86c0.21-0.03,0.39-0.08,0.55-0.17s0.29-0.19,0.41-0.33
		c0.11-0.13,0.19-0.29,0.25-0.46c0.06-0.17,0.08-0.37,0.08-0.57c0-0.16-0.02-0.33-0.06-0.49s-0.1-0.3-0.19-0.43
		c-0.09-0.12-0.2-0.23-0.33-0.3S169.95,496.03,169.77,496.03z"/>
	<path class="st7" d="M168.38,489.39v2.77h2.35v-3.23h0.71V493h-6.63v-4.03h0.72v3.19h2.13v-2.77H168.38z"/>
	<path class="st7" d="M171.45,482.42v0.86l-4.95,2.57l4.95,0.01v0.85h-6.63v-0.86l4.94-2.57l-4.94-0.01v-0.85H171.45z"/>
	<path class="st7" d="M168.38,476.47v2.77h2.35v-3.23h0.71v4.07h-6.63v-4.03h0.72v3.19h2.13v-2.77H168.38z"/>
	<path class="st7" d="M170.58,469.36c0.33,0.28,0.57,0.6,0.73,0.96c0.16,0.36,0.24,0.76,0.23,1.19c0,0.27-0.04,0.52-0.12,0.75
		c-0.08,0.23-0.19,0.44-0.33,0.62c-0.14,0.18-0.31,0.34-0.5,0.48c-0.19,0.14-0.4,0.25-0.62,0.34c-0.22,0.09-0.46,0.16-0.7,0.21
		s-0.49,0.07-0.74,0.08h-0.77c-0.25,0-0.49-0.03-0.74-0.07s-0.48-0.1-0.7-0.19s-0.43-0.19-0.63-0.32c-0.19-0.13-0.36-0.28-0.5-0.46
		c-0.14-0.18-0.25-0.38-0.33-0.6s-0.12-0.48-0.12-0.76c0-0.31,0.05-0.59,0.14-0.86s0.23-0.49,0.41-0.68s0.39-0.35,0.64-0.47
		c0.25-0.12,0.53-0.19,0.84-0.22v0.83c-0.19,0.03-0.37,0.08-0.53,0.15c-0.16,0.07-0.3,0.16-0.42,0.28
		c-0.12,0.11-0.21,0.25-0.27,0.41c-0.07,0.16-0.1,0.34-0.1,0.55c0,0.2,0.03,0.38,0.1,0.53c0.07,0.16,0.16,0.29,0.28,0.41
		s0.25,0.21,0.4,0.29c0.15,0.08,0.32,0.14,0.49,0.19s0.34,0.08,0.52,0.1c0.18,0.02,0.35,0.03,0.51,0.03h0.78
		c0.17,0,0.34-0.02,0.52-0.04c0.18-0.03,0.35-0.07,0.52-0.12s0.33-0.12,0.48-0.21c0.15-0.08,0.29-0.19,0.4-0.31s0.21-0.26,0.28-0.42
		c0.07-0.16,0.1-0.34,0.11-0.54c0-0.12,0-0.24-0.01-0.36c-0.01-0.13-0.04-0.25-0.07-0.37c-0.04-0.12-0.09-0.23-0.15-0.33
		c-0.06-0.1-0.14-0.19-0.24-0.26l-1.49-0.01v1.35h-0.71v-2.15L170.58,469.36z"/>
	<path class="st7" d="M169.73,464.02v2.21l1.72,0.53v0.84l-6.63-2.14v-0.71l6.63-2.1v0.84L169.73,464.02z M169,466.01v-1.76
		l-2.88,0.87L169,466.01z"/>
	<path class="st7" d="M170.73,459.78v-3.24h0.71v4.08h-6.63v-0.84H170.73z"/>
</g>
<g>
	<path class="st7" d="M195.9,479.17l3.31-1.08l-3.31-1.17v-1.05h6.63v0.82h-2.64l-2.77-0.07l3.57,1.22v0.48l-3.47,1.12l2.67-0.07
		h2.64v0.82h-6.63V479.17z"/>
	<path class="st7" d="M200.81,470.46v2.21l1.72,0.53v0.84l-6.63-2.14v-0.71l6.63-2.1v0.84L200.81,470.46z M200.07,472.45v-1.76
		l-2.88,0.87L200.07,472.45z"/>
	<path class="st7" d="M201.81,466.21v-3.24h0.71v4.08h-6.63v-0.84H201.81z"/>
	<path class="st7" d="M195.9,460.7v-4.01h0.73v1.59h5.17v-1.59h0.73v4.01h-0.73v-1.55h-5.17v1.55H195.9z"/>
</g>
<g>
	<path class="st7" d="M226.97,511.52l3.31-1.08l-3.31-1.17v-1.05h6.63v0.82h-2.64l-2.77-0.07l3.57,1.22v0.48l-3.47,1.12l2.67-0.07
		h2.64v0.82h-6.63V511.52z"/>
	<path class="st7" d="M231.88,502.82v2.21l1.72,0.53v0.84l-6.63-2.14v-0.71l6.63-2.1v0.84L231.88,502.82z M231.15,504.8v-1.76
		l-2.88,0.87L231.15,504.8z"/>
	<path class="st7" d="M230.89,497.32v1.32h2.7v0.84h-6.63v-1.94c0.01-0.31,0.05-0.6,0.13-0.87c0.08-0.27,0.21-0.51,0.37-0.72
		c0.16-0.2,0.37-0.37,0.62-0.48c0.25-0.12,0.54-0.17,0.87-0.17c0.21,0,0.41,0.03,0.59,0.09c0.18,0.06,0.34,0.15,0.49,0.26
		c0.15,0.11,0.27,0.24,0.39,0.39c0.11,0.15,0.21,0.32,0.29,0.5l2.83-1.41l0.05,0v0.89L230.89,497.32z M230.2,498.65v-1.13
		c0-0.19-0.03-0.37-0.09-0.53c-0.06-0.17-0.14-0.31-0.24-0.44s-0.24-0.23-0.39-0.3c-0.15-0.07-0.33-0.11-0.53-0.11
		c-0.21,0-0.4,0.04-0.56,0.1c-0.16,0.07-0.29,0.17-0.4,0.29c-0.11,0.12-0.19,0.27-0.24,0.44s-0.08,0.36-0.09,0.56v1.11H230.2z"/>
	<path class="st7" d="M230.89,490.86v1.32h2.7v0.84h-6.63v-1.94c0.01-0.31,0.05-0.6,0.13-0.87c0.08-0.27,0.21-0.51,0.37-0.72
		c0.16-0.2,0.37-0.37,0.62-0.48c0.25-0.12,0.54-0.17,0.87-0.17c0.21,0,0.41,0.03,0.59,0.09c0.18,0.06,0.34,0.15,0.49,0.26
		c0.15,0.11,0.27,0.24,0.39,0.39c0.11,0.15,0.21,0.32,0.29,0.5l2.83-1.41l0.05,0v0.89L230.89,490.86z M230.2,492.19v-1.13
		c0-0.19-0.03-0.37-0.09-0.53c-0.06-0.17-0.14-0.31-0.24-0.44s-0.24-0.23-0.39-0.3c-0.15-0.07-0.33-0.11-0.53-0.11
		c-0.21,0-0.4,0.04-0.56,0.1c-0.16,0.07-0.29,0.17-0.4,0.29c-0.11,0.12-0.19,0.27-0.24,0.44s-0.08,0.36-0.09,0.56v1.11H230.2z"/>
	<path class="st7" d="M226.97,482.43l4.49-0.01c0.31,0.01,0.6,0.06,0.87,0.17c0.27,0.11,0.51,0.25,0.71,0.45
		c0.2,0.19,0.36,0.42,0.48,0.68c0.12,0.26,0.17,0.55,0.17,0.87c0,0.32-0.06,0.61-0.17,0.88c-0.12,0.26-0.27,0.49-0.48,0.68
		s-0.44,0.33-0.71,0.44s-0.56,0.16-0.87,0.16l-4.49-0.01v-0.8l4.49-0.02c0.2,0,0.39-0.03,0.57-0.09c0.18-0.06,0.34-0.14,0.48-0.25
		s0.25-0.25,0.34-0.41c0.08-0.17,0.13-0.36,0.13-0.57c0-0.22-0.04-0.41-0.12-0.57c-0.08-0.16-0.2-0.3-0.34-0.41
		c-0.14-0.11-0.3-0.2-0.48-0.25c-0.18-0.06-0.37-0.09-0.57-0.09l-4.49-0.01V482.43z"/>
	<path class="st7" d="M230.53,476.48v2.77h2.35v-3.23h0.71v4.07h-6.63v-4.03h0.72v3.19h2.13v-2.77H230.53z"/>
	<path class="st7" d="M231.6,469.38c0.31,0.04,0.59,0.12,0.84,0.24s0.48,0.27,0.66,0.46c0.18,0.19,0.33,0.42,0.43,0.67
		c0.1,0.26,0.15,0.55,0.15,0.87c0,0.27-0.04,0.52-0.12,0.75c-0.08,0.22-0.18,0.42-0.32,0.6c-0.14,0.17-0.3,0.33-0.48,0.45
		c-0.19,0.13-0.39,0.23-0.61,0.31c-0.22,0.08-0.45,0.15-0.69,0.19c-0.24,0.04-0.48,0.06-0.73,0.07h-0.92
		c-0.25,0-0.49-0.02-0.73-0.07c-0.24-0.04-0.47-0.1-0.69-0.19c-0.22-0.08-0.42-0.19-0.61-0.31s-0.35-0.28-0.48-0.45
		c-0.14-0.17-0.24-0.37-0.32-0.59s-0.12-0.47-0.12-0.75c0-0.33,0.05-0.63,0.15-0.89c0.1-0.26,0.25-0.49,0.43-0.67
		c0.19-0.19,0.41-0.34,0.67-0.45c0.26-0.11,0.55-0.19,0.87-0.23v0.84c-0.2,0.03-0.39,0.07-0.56,0.14c-0.17,0.07-0.32,0.16-0.46,0.27
		c-0.13,0.11-0.23,0.25-0.31,0.41c-0.07,0.16-0.11,0.35-0.11,0.58c0,0.2,0.03,0.38,0.1,0.53c0.07,0.15,0.15,0.29,0.27,0.4
		c0.11,0.11,0.24,0.2,0.39,0.28c0.15,0.08,0.31,0.13,0.47,0.18c0.17,0.04,0.34,0.08,0.51,0.1c0.17,0.02,0.34,0.03,0.51,0.03h0.93
		c0.16,0,0.33-0.01,0.51-0.03c0.17-0.02,0.35-0.05,0.51-0.1c0.17-0.05,0.33-0.11,0.48-0.18c0.15-0.07,0.28-0.17,0.39-0.28
		c0.11-0.11,0.2-0.24,0.27-0.4c0.07-0.15,0.1-0.33,0.1-0.53c0-0.22-0.04-0.41-0.1-0.58c-0.07-0.16-0.17-0.3-0.29-0.41
		s-0.27-0.2-0.45-0.27c-0.17-0.07-0.36-0.11-0.56-0.14V469.38z"/>
	<path class="st7" d="M230.67,462.9c0.24,0,0.48,0.02,0.72,0.06s0.47,0.1,0.7,0.18c0.22,0.08,0.43,0.18,0.63,0.3
		s0.36,0.27,0.51,0.44c0.15,0.17,0.26,0.36,0.34,0.58c0.08,0.22,0.12,0.47,0.12,0.74s-0.04,0.52-0.12,0.74
		c-0.08,0.22-0.2,0.42-0.34,0.58s-0.32,0.32-0.51,0.44c-0.2,0.12-0.41,0.23-0.63,0.31c-0.22,0.08-0.46,0.14-0.7,0.18
		c-0.24,0.04-0.48,0.06-0.71,0.06h-0.76c-0.24,0-0.48-0.02-0.72-0.06s-0.47-0.1-0.7-0.18c-0.22-0.08-0.43-0.18-0.63-0.3
		c-0.2-0.12-0.37-0.27-0.51-0.44s-0.26-0.37-0.35-0.58c-0.08-0.22-0.13-0.47-0.13-0.74c0-0.27,0.04-0.52,0.13-0.74
		c0.08-0.22,0.2-0.42,0.34-0.59c0.15-0.17,0.32-0.32,0.51-0.44c0.2-0.12,0.41-0.22,0.63-0.3s0.46-0.14,0.7-0.18
		c0.24-0.04,0.48-0.06,0.72-0.06H230.67z M229.9,463.73c-0.16,0-0.32,0.01-0.49,0.03s-0.34,0.05-0.51,0.09
		c-0.17,0.04-0.33,0.1-0.48,0.17s-0.29,0.16-0.41,0.27c-0.12,0.11-0.21,0.24-0.28,0.39s-0.1,0.32-0.1,0.52
		c0,0.19,0.03,0.37,0.1,0.51c0.07,0.15,0.16,0.28,0.28,0.39c0.12,0.11,0.25,0.2,0.41,0.27c0.15,0.07,0.31,0.13,0.48,0.18
		c0.17,0.04,0.34,0.08,0.51,0.09c0.17,0.02,0.33,0.03,0.49,0.03h0.76c0.15,0,0.32-0.01,0.49-0.03c0.17-0.02,0.34-0.05,0.51-0.1
		c0.17-0.04,0.33-0.1,0.48-0.18c0.16-0.07,0.29-0.16,0.41-0.27c0.12-0.11,0.21-0.24,0.28-0.39c0.07-0.15,0.1-0.32,0.1-0.52
		s-0.03-0.37-0.1-0.52c-0.07-0.15-0.16-0.28-0.28-0.39c-0.12-0.11-0.25-0.2-0.4-0.27s-0.31-0.13-0.48-0.17
		c-0.17-0.04-0.34-0.07-0.51-0.09s-0.34-0.03-0.5-0.03H229.9z"/>
	<path class="st7" d="M231.92,457.28c-0.2,0-0.37,0.05-0.51,0.14s-0.26,0.21-0.35,0.36c-0.09,0.15-0.17,0.31-0.24,0.48
		c-0.06,0.17-0.12,0.34-0.17,0.5c-0.08,0.23-0.17,0.47-0.27,0.71s-0.24,0.46-0.39,0.66c-0.16,0.2-0.34,0.36-0.55,0.49
		s-0.46,0.19-0.74,0.19s-0.54-0.06-0.76-0.19s-0.41-0.29-0.57-0.49c-0.15-0.2-0.27-0.43-0.35-0.69s-0.12-0.52-0.12-0.78
		c0-0.29,0.05-0.57,0.14-0.83c0.1-0.27,0.23-0.5,0.4-0.71c0.17-0.21,0.38-0.37,0.63-0.5c0.25-0.12,0.52-0.19,0.82-0.2v0.86
		c-0.19,0.02-0.37,0.07-0.52,0.14c-0.16,0.07-0.29,0.16-0.4,0.28c-0.11,0.12-0.2,0.25-0.26,0.41c-0.06,0.16-0.09,0.34-0.09,0.54
		c0,0.16,0.02,0.32,0.07,0.47c0.04,0.15,0.11,0.29,0.21,0.41c0.09,0.12,0.2,0.21,0.34,0.29c0.13,0.07,0.29,0.11,0.46,0.11
		c0.19,0,0.35-0.05,0.49-0.15c0.13-0.09,0.24-0.21,0.33-0.36c0.09-0.14,0.17-0.3,0.23-0.47c0.06-0.17,0.11-0.33,0.16-0.48
		c0.05-0.16,0.11-0.33,0.18-0.5s0.14-0.33,0.23-0.48c0.08-0.15,0.18-0.3,0.29-0.43c0.11-0.13,0.23-0.25,0.36-0.35
		c0.13-0.1,0.28-0.18,0.45-0.23c0.16-0.06,0.34-0.08,0.54-0.08c0.3,0,0.56,0.07,0.78,0.2c0.22,0.13,0.41,0.3,0.55,0.51
		c0.15,0.21,0.26,0.45,0.33,0.71c0.07,0.26,0.11,0.53,0.11,0.79c0,0.29-0.04,0.58-0.14,0.86c-0.09,0.28-0.22,0.54-0.39,0.76
		c-0.17,0.22-0.38,0.41-0.63,0.54c-0.25,0.14-0.53,0.21-0.84,0.22v-0.86c0.21-0.03,0.39-0.08,0.55-0.17s0.29-0.19,0.41-0.33
		c0.11-0.13,0.19-0.29,0.25-0.46c0.06-0.17,0.08-0.37,0.08-0.57c0-0.16-0.02-0.33-0.06-0.49s-0.1-0.3-0.19-0.43
		c-0.09-0.12-0.2-0.23-0.33-0.3S232.1,457.28,231.92,457.28z"/>
</g>
<g>
	<path class="st7" d="M262.68,501.68c0.31,0.04,0.59,0.12,0.84,0.24s0.48,0.27,0.66,0.46c0.18,0.19,0.33,0.42,0.43,0.67
		c0.1,0.26,0.15,0.55,0.15,0.87c0,0.27-0.04,0.52-0.12,0.75c-0.08,0.22-0.18,0.42-0.32,0.6c-0.14,0.17-0.3,0.33-0.48,0.45
		c-0.19,0.13-0.39,0.23-0.61,0.31c-0.22,0.08-0.45,0.15-0.69,0.19c-0.24,0.04-0.48,0.06-0.73,0.07h-0.92
		c-0.25,0-0.49-0.02-0.73-0.07c-0.24-0.04-0.47-0.1-0.69-0.19c-0.22-0.08-0.42-0.19-0.61-0.31s-0.35-0.28-0.48-0.45
		c-0.14-0.17-0.24-0.37-0.32-0.59s-0.12-0.47-0.12-0.75c0-0.33,0.05-0.63,0.15-0.89c0.1-0.26,0.25-0.49,0.43-0.67
		c0.19-0.19,0.41-0.34,0.67-0.45c0.26-0.11,0.55-0.19,0.87-0.23v0.84c-0.2,0.03-0.39,0.07-0.56,0.14c-0.17,0.07-0.32,0.16-0.46,0.27
		c-0.13,0.11-0.23,0.25-0.31,0.41c-0.07,0.16-0.11,0.35-0.11,0.58c0,0.2,0.03,0.38,0.1,0.53c0.07,0.15,0.15,0.29,0.27,0.4
		c0.11,0.11,0.24,0.2,0.39,0.28c0.15,0.08,0.31,0.13,0.47,0.18c0.17,0.04,0.34,0.08,0.51,0.1c0.17,0.02,0.34,0.03,0.51,0.03h0.93
		c0.16,0,0.33-0.01,0.51-0.03c0.17-0.02,0.35-0.05,0.51-0.1c0.17-0.05,0.33-0.11,0.48-0.18c0.15-0.07,0.28-0.17,0.39-0.28
		c0.11-0.11,0.2-0.24,0.27-0.4c0.07-0.15,0.1-0.33,0.1-0.53c0-0.22-0.04-0.41-0.1-0.58c-0.07-0.16-0.17-0.3-0.29-0.41
		s-0.27-0.2-0.45-0.27c-0.17-0.07-0.36-0.11-0.56-0.14V501.68z"/>
	<path class="st7" d="M261.74,495.2c0.24,0,0.48,0.02,0.72,0.06s0.47,0.1,0.7,0.18c0.22,0.08,0.43,0.18,0.63,0.3
		s0.36,0.27,0.51,0.44c0.15,0.17,0.26,0.36,0.34,0.58c0.08,0.22,0.12,0.47,0.12,0.74s-0.04,0.52-0.12,0.74
		c-0.08,0.22-0.2,0.42-0.34,0.58s-0.32,0.32-0.51,0.44c-0.2,0.12-0.41,0.23-0.63,0.31c-0.22,0.08-0.46,0.14-0.7,0.18
		c-0.24,0.04-0.48,0.06-0.71,0.06h-0.76c-0.24,0-0.48-0.02-0.72-0.06s-0.47-0.1-0.7-0.18c-0.22-0.08-0.43-0.18-0.63-0.3
		c-0.2-0.12-0.37-0.27-0.51-0.44s-0.26-0.37-0.35-0.58c-0.08-0.22-0.13-0.47-0.13-0.74c0-0.27,0.04-0.52,0.13-0.74
		c0.08-0.22,0.2-0.42,0.34-0.59c0.15-0.17,0.32-0.32,0.51-0.44c0.2-0.12,0.41-0.22,0.63-0.3s0.46-0.14,0.7-0.18
		c0.24-0.04,0.48-0.06,0.72-0.06H261.74z M260.98,496.03c-0.16,0-0.32,0.01-0.49,0.03s-0.34,0.05-0.51,0.09
		c-0.17,0.04-0.33,0.1-0.48,0.17s-0.29,0.16-0.41,0.27c-0.12,0.11-0.21,0.24-0.28,0.39s-0.1,0.32-0.1,0.52
		c0,0.19,0.03,0.37,0.1,0.51c0.07,0.15,0.16,0.28,0.28,0.39c0.12,0.11,0.25,0.2,0.41,0.27c0.15,0.07,0.31,0.13,0.48,0.18
		c0.17,0.04,0.34,0.08,0.51,0.09c0.17,0.02,0.33,0.03,0.49,0.03h0.76c0.15,0,0.32-0.01,0.49-0.03c0.17-0.02,0.34-0.05,0.51-0.1
		c0.17-0.04,0.33-0.1,0.48-0.18c0.16-0.07,0.29-0.16,0.41-0.27c0.12-0.11,0.21-0.24,0.28-0.39c0.07-0.15,0.1-0.32,0.1-0.52
		s-0.03-0.37-0.1-0.52c-0.07-0.15-0.16-0.28-0.28-0.39c-0.12-0.11-0.25-0.2-0.4-0.27s-0.31-0.13-0.48-0.17
		c-0.17-0.04-0.34-0.07-0.51-0.09s-0.34-0.03-0.5-0.03H260.98z"/>
	<path class="st7" d="M263.96,492.1v-3.24h0.71v4.08h-6.63v-0.84H263.96z"/>
	<path class="st7" d="M257.47,484.13v0.68l-1.21,1.13v-1.02L257.47,484.13z M261.74,482.27c0.24,0,0.48,0.02,0.72,0.06
		s0.47,0.1,0.7,0.18c0.22,0.08,0.43,0.18,0.63,0.3s0.36,0.27,0.51,0.44c0.15,0.17,0.26,0.36,0.34,0.58
		c0.08,0.22,0.12,0.47,0.12,0.74s-0.04,0.52-0.12,0.74c-0.08,0.22-0.2,0.42-0.34,0.58s-0.32,0.32-0.51,0.44
		c-0.2,0.12-0.41,0.23-0.63,0.31c-0.22,0.08-0.46,0.14-0.7,0.18c-0.24,0.04-0.48,0.06-0.71,0.06h-0.76c-0.24,0-0.48-0.02-0.72-0.06
		s-0.47-0.1-0.7-0.18c-0.22-0.08-0.43-0.18-0.63-0.3c-0.2-0.12-0.37-0.27-0.51-0.44s-0.26-0.37-0.35-0.58
		c-0.08-0.22-0.13-0.47-0.13-0.74c0-0.27,0.04-0.52,0.13-0.74c0.08-0.22,0.2-0.42,0.34-0.59c0.15-0.17,0.32-0.32,0.51-0.44
		c0.2-0.12,0.41-0.22,0.63-0.3s0.46-0.14,0.7-0.18c0.24-0.04,0.48-0.06,0.72-0.06H261.74z M260.98,483.11
		c-0.16,0-0.32,0.01-0.49,0.03s-0.34,0.05-0.51,0.09c-0.17,0.04-0.33,0.1-0.48,0.17s-0.29,0.16-0.41,0.27
		c-0.12,0.11-0.21,0.24-0.28,0.39s-0.1,0.32-0.1,0.52c0,0.19,0.03,0.37,0.1,0.51c0.07,0.15,0.16,0.28,0.28,0.39
		c0.12,0.11,0.25,0.2,0.41,0.27c0.15,0.07,0.31,0.13,0.48,0.18c0.17,0.04,0.34,0.08,0.51,0.09c0.17,0.02,0.33,0.03,0.49,0.03h0.76
		c0.15,0,0.32-0.01,0.49-0.03c0.17-0.02,0.34-0.05,0.51-0.1c0.17-0.04,0.33-0.1,0.48-0.18c0.16-0.07,0.29-0.16,0.41-0.27
		c0.12-0.11,0.21-0.24,0.28-0.39c0.07-0.15,0.1-0.32,0.1-0.52s-0.03-0.37-0.1-0.52c-0.07-0.15-0.16-0.28-0.28-0.39
		c-0.12-0.11-0.25-0.2-0.4-0.27s-0.31-0.13-0.48-0.17c-0.17-0.04-0.34-0.07-0.51-0.09s-0.34-0.03-0.5-0.03H260.98z"/>
	<path class="st7" d="M258.04,479.2l3.31-1.08l-3.31-1.17v-1.05h6.63v0.82h-2.64l-2.77-0.07l3.57,1.22v0.48l-3.47,1.12l2.67-0.07
		h2.64v0.82h-6.63V479.2z"/>
	<path class="st7" d="M264.67,473.67h-6.63v-1.97c0-0.27,0.04-0.54,0.11-0.8c0.07-0.26,0.17-0.49,0.32-0.7s0.33-0.37,0.55-0.49
		c0.22-0.12,0.49-0.18,0.8-0.18c0.17,0,0.33,0.03,0.47,0.08c0.14,0.05,0.27,0.13,0.38,0.22c0.11,0.09,0.21,0.2,0.3,0.33
		c0.08,0.12,0.16,0.26,0.22,0.4c0.05-0.18,0.12-0.34,0.22-0.48s0.21-0.27,0.35-0.38c0.13-0.11,0.29-0.19,0.46-0.25
		c0.17-0.06,0.35-0.09,0.55-0.09c0.31,0,0.58,0.06,0.82,0.18c0.24,0.12,0.43,0.28,0.59,0.49c0.16,0.2,0.28,0.44,0.37,0.7
		s0.13,0.54,0.13,0.82V473.67z M260.87,472.82v-1.17c0-0.16-0.03-0.31-0.07-0.46c-0.05-0.15-0.12-0.29-0.21-0.41
		c-0.09-0.12-0.2-0.21-0.33-0.29c-0.13-0.07-0.28-0.11-0.46-0.11c-0.19,0-0.34,0.04-0.47,0.11c-0.13,0.07-0.24,0.17-0.32,0.29
		c-0.08,0.12-0.14,0.26-0.18,0.41c-0.04,0.16-0.06,0.32-0.06,0.48v1.15H260.87z M261.57,472.82h2.39v-1.3c0-0.18-0.03-0.34-0.09-0.5
		c-0.06-0.16-0.13-0.3-0.23-0.42c-0.1-0.12-0.22-0.22-0.37-0.29c-0.15-0.07-0.31-0.11-0.5-0.11c-0.19,0-0.35,0.03-0.5,0.09
		c-0.15,0.07-0.27,0.16-0.37,0.27s-0.18,0.25-0.23,0.41c-0.05,0.16-0.08,0.32-0.09,0.5V472.82z"/>
	<path class="st7" d="M258.04,467.2v-4.01h0.73v1.59h5.17v-1.59h0.73v4.01h-0.73v-1.55h-5.17v1.55H258.04z"/>
	<path class="st7" d="M262.96,457.57v2.21l1.72,0.53v0.84l-6.63-2.14v-0.71l6.63-2.1v0.84L262.96,457.57z M262.22,459.56v-1.76
		l-2.88,0.87L262.22,459.56z"/>
</g>
<g>
	<path class="st7" d="M294.39,510.46l-5.27-1.57v-0.9l6.63,2.09v0.73l-6.63,2.09v-0.9L294.39,510.46z"/>
	<path class="st7" d="M292.68,502.33v2.77h2.35v-3.23h0.71v4.07h-6.63v-4.03h0.72v3.19h2.13v-2.77H292.68z"/>
	<path class="st7" d="M295.75,495.36v0.86l-4.95,2.57l4.95,0.01v0.85h-6.63v-0.86l4.94-2.57l-4.94-0.01v-0.85H295.75z"/>
	<path class="st7" d="M292.68,489.41v2.77h2.35v-3.23h0.71v4.07h-6.63v-4.03h0.72v3.19h2.13v-2.77H292.68z"/>
	<path class="st7" d="M295.03,485.91v-3.43h0.71v4.38l-0.66,0.01l-5.25-3.3v3.24h-0.72v-4.2l0.64-0.01L295.03,485.91z"/>
	<path class="st7" d="M289.12,475.97l4.49-0.01c0.31,0.01,0.6,0.06,0.87,0.17c0.27,0.11,0.51,0.25,0.71,0.45
		c0.2,0.19,0.36,0.42,0.48,0.68c0.12,0.26,0.17,0.55,0.17,0.87c0,0.32-0.06,0.61-0.17,0.88c-0.12,0.26-0.27,0.49-0.48,0.68
		s-0.44,0.33-0.71,0.44s-0.56,0.16-0.87,0.16l-4.49-0.01v-0.8l4.49-0.02c0.2,0,0.39-0.03,0.57-0.09c0.18-0.06,0.34-0.14,0.48-0.25
		s0.25-0.25,0.34-0.41c0.08-0.17,0.13-0.36,0.13-0.57c0-0.22-0.04-0.41-0.12-0.57c-0.08-0.16-0.2-0.3-0.34-0.41
		c-0.14-0.11-0.3-0.2-0.48-0.25c-0.18-0.06-0.37-0.09-0.57-0.09l-4.49-0.01V475.97z"/>
	<path class="st7" d="M292.68,470.02v2.77h2.35v-3.23h0.71v4.07h-6.63v-4.03h0.72v3.19h2.13v-2.77H292.68z"/>
	<path class="st7" d="M295.03,466.25v-3.24h0.71v4.08h-6.63v-0.84H295.03z"/>
	<path class="st7" d="M294.03,457.58v2.21l1.72,0.53v0.84l-6.63-2.14v-0.71l6.63-2.1v0.84L294.03,457.58z M293.3,459.56v-1.76
		l-2.88,0.87L293.3,459.56z"/>
</g>
<g class="st1">
	<g>
		<path class="st8" d="M4.72,332.13l0.32-3.23h3.31v0.53H5.51l-0.23,2.22c0.16-0.11,0.35-0.2,0.56-0.27s0.44-0.1,0.68-0.1
			c0.3,0,0.57,0.05,0.82,0.16c0.24,0.11,0.45,0.25,0.62,0.44c0.17,0.19,0.3,0.42,0.39,0.68c0.09,0.26,0.14,0.55,0.14,0.86
			c0,0.31-0.04,0.59-0.12,0.86c-0.08,0.27-0.2,0.5-0.36,0.7c-0.16,0.2-0.37,0.36-0.61,0.47c-0.25,0.12-0.54,0.17-0.88,0.17
			c-0.28,0-0.53-0.04-0.77-0.12c-0.23-0.08-0.44-0.2-0.62-0.36c-0.18-0.16-0.32-0.35-0.43-0.58c-0.11-0.23-0.18-0.49-0.21-0.77h0.53
			c0.03,0.21,0.08,0.41,0.16,0.58c0.08,0.17,0.18,0.31,0.31,0.43c0.13,0.12,0.28,0.21,0.45,0.27s0.37,0.09,0.58,0.09
			c0.24,0,0.45-0.04,0.63-0.13c0.18-0.09,0.33-0.21,0.45-0.37c0.12-0.16,0.21-0.34,0.26-0.55c0.06-0.21,0.08-0.44,0.08-0.69
			c0-0.23-0.03-0.45-0.1-0.65s-0.17-0.37-0.3-0.52c-0.13-0.15-0.29-0.27-0.48-0.35c-0.19-0.08-0.4-0.13-0.63-0.13
			c-0.14,0-0.27,0.01-0.38,0.03c-0.12,0.02-0.23,0.05-0.33,0.09s-0.2,0.09-0.29,0.15c-0.09,0.06-0.19,0.13-0.28,0.21L4.72,332.13z"
			/>
		<path class="st8" d="M12.47,335.14c0-0.13,0.04-0.24,0.12-0.33c0.08-0.09,0.2-0.13,0.34-0.13c0.15,0,0.26,0.04,0.34,0.13
			c0.08,0.09,0.12,0.2,0.12,0.33c0,0.13-0.04,0.23-0.12,0.32c-0.08,0.08-0.2,0.12-0.34,0.12c-0.14,0-0.26-0.04-0.34-0.12
			C12.51,335.37,12.47,335.26,12.47,335.14z"/>
		<path class="st8" d="M21.36,332.9c0,0.37-0.04,0.72-0.12,1.05c-0.08,0.33-0.21,0.62-0.38,0.86s-0.39,0.44-0.65,0.58
			c-0.26,0.14-0.57,0.22-0.93,0.22c-0.36,0-0.67-0.07-0.93-0.22c-0.26-0.14-0.48-0.34-0.65-0.58c-0.17-0.25-0.3-0.53-0.38-0.86
			c-0.08-0.33-0.13-0.68-0.13-1.05v-1.38c0-0.37,0.05-0.72,0.13-1.05s0.21-0.62,0.38-0.87c0.17-0.25,0.39-0.45,0.65-0.59
			c0.26-0.14,0.57-0.22,0.93-0.22c0.36,0,0.67,0.07,0.94,0.22c0.26,0.14,0.48,0.34,0.65,0.59c0.17,0.25,0.3,0.54,0.38,0.87
			c0.08,0.33,0.12,0.68,0.12,1.05V332.9z M17.73,332.98c0,0.12,0,0.24,0.01,0.35l2.99-2.71c-0.04-0.19-0.1-0.38-0.18-0.54
			c-0.08-0.17-0.17-0.31-0.29-0.43c-0.12-0.12-0.26-0.22-0.42-0.29c-0.16-0.07-0.35-0.1-0.57-0.1c-0.28,0-0.52,0.06-0.72,0.18
			s-0.35,0.28-0.48,0.48c-0.12,0.2-0.21,0.43-0.26,0.69s-0.08,0.53-0.08,0.82V332.98z M20.81,331.43c0-0.1,0-0.2-0.01-0.3l-2.98,2.7
			c0.04,0.19,0.11,0.36,0.19,0.52c0.08,0.16,0.18,0.3,0.3,0.42c0.12,0.12,0.26,0.21,0.42,0.28c0.16,0.07,0.35,0.1,0.56,0.1
			c0.28,0,0.52-0.06,0.72-0.18c0.2-0.12,0.35-0.28,0.47-0.48c0.12-0.2,0.21-0.43,0.26-0.69s0.08-0.53,0.08-0.82V331.43z"/>
		<path class="st8" d="M27.82,332.9c0,0.37-0.04,0.72-0.12,1.05c-0.08,0.33-0.21,0.62-0.38,0.86s-0.38,0.44-0.65,0.58
			c-0.26,0.14-0.57,0.22-0.93,0.22c-0.36,0-0.67-0.07-0.93-0.22c-0.26-0.14-0.48-0.34-0.65-0.58s-0.3-0.53-0.38-0.86
			c-0.08-0.33-0.13-0.68-0.13-1.05v-1.38c0-0.37,0.05-0.72,0.13-1.05s0.21-0.62,0.38-0.87s0.39-0.45,0.65-0.59
			c0.26-0.14,0.57-0.22,0.93-0.22c0.36,0,0.67,0.07,0.94,0.22c0.26,0.14,0.48,0.34,0.65,0.59c0.17,0.25,0.3,0.54,0.38,0.87
			c0.08,0.33,0.13,0.68,0.13,1.05V332.9z M24.19,332.98c0,0.12,0,0.24,0.01,0.35l2.99-2.71c-0.04-0.19-0.1-0.38-0.18-0.54
			c-0.08-0.17-0.17-0.31-0.29-0.43c-0.12-0.12-0.26-0.22-0.43-0.29c-0.16-0.07-0.35-0.1-0.57-0.1c-0.28,0-0.52,0.06-0.72,0.18
			c-0.2,0.12-0.36,0.28-0.48,0.48c-0.12,0.2-0.21,0.43-0.26,0.69s-0.08,0.53-0.08,0.82V332.98z M27.27,331.43c0-0.1,0-0.2-0.01-0.3
			l-2.98,2.7c0.05,0.19,0.11,0.36,0.19,0.52c0.08,0.16,0.18,0.3,0.3,0.42c0.12,0.12,0.26,0.21,0.42,0.28
			c0.16,0.07,0.35,0.1,0.56,0.1c0.28,0,0.52-0.06,0.72-0.18c0.2-0.12,0.35-0.28,0.47-0.48c0.12-0.2,0.21-0.43,0.26-0.69
			s0.08-0.53,0.08-0.82V331.43z"/>
		<path class="st8" d="M34.28,332.9c0,0.37-0.04,0.72-0.12,1.05c-0.08,0.33-0.21,0.62-0.38,0.86s-0.39,0.44-0.65,0.58
			c-0.26,0.14-0.57,0.22-0.93,0.22c-0.36,0-0.67-0.07-0.93-0.22c-0.26-0.14-0.48-0.34-0.65-0.58s-0.3-0.53-0.38-0.86
			c-0.08-0.33-0.13-0.68-0.13-1.05v-1.38c0-0.37,0.04-0.72,0.13-1.05s0.21-0.62,0.38-0.87c0.17-0.25,0.39-0.45,0.65-0.59
			c0.26-0.14,0.57-0.22,0.93-0.22c0.36,0,0.67,0.07,0.94,0.22c0.26,0.14,0.48,0.34,0.65,0.59c0.17,0.25,0.3,0.54,0.38,0.87
			c0.08,0.33,0.12,0.68,0.12,1.05V332.9z M30.65,332.98c0,0.12,0,0.24,0.01,0.35l2.99-2.71c-0.04-0.19-0.1-0.38-0.18-0.54
			s-0.17-0.31-0.29-0.43s-0.26-0.22-0.42-0.29c-0.16-0.07-0.35-0.1-0.57-0.1c-0.28,0-0.52,0.06-0.72,0.18
			c-0.2,0.12-0.35,0.28-0.48,0.48c-0.12,0.2-0.21,0.43-0.26,0.69s-0.08,0.53-0.08,0.82V332.98z M33.74,331.43c0-0.1,0-0.2-0.01-0.3
			l-2.98,2.7c0.05,0.19,0.11,0.36,0.19,0.52c0.08,0.16,0.18,0.3,0.29,0.42c0.12,0.12,0.26,0.21,0.42,0.28s0.35,0.1,0.56,0.1
			c0.28,0,0.52-0.06,0.72-0.18c0.2-0.12,0.35-0.28,0.47-0.48c0.12-0.2,0.21-0.43,0.26-0.69s0.08-0.53,0.08-0.82V331.43z"/>
	</g>
	<g>
		<path class="st8" d="M6.92,213.26H6.37v-5.94l-1.83,0.79v-0.52l2.3-0.96h0.08V213.26z"/>
		<path class="st8" d="M14.9,210.64c0,0.37-0.04,0.72-0.12,1.05c-0.08,0.33-0.21,0.62-0.38,0.86c-0.17,0.25-0.38,0.44-0.65,0.58
			c-0.26,0.14-0.57,0.22-0.93,0.22c-0.36,0-0.67-0.07-0.93-0.22s-0.48-0.34-0.65-0.58c-0.17-0.25-0.3-0.53-0.38-0.86
			c-0.08-0.33-0.13-0.68-0.13-1.05v-1.38c0-0.37,0.04-0.72,0.13-1.05c0.08-0.33,0.21-0.62,0.38-0.87c0.17-0.25,0.39-0.45,0.65-0.59
			c0.26-0.14,0.57-0.22,0.93-0.22c0.36,0,0.67,0.07,0.94,0.22c0.26,0.14,0.48,0.34,0.65,0.59s0.3,0.54,0.38,0.87
			c0.08,0.33,0.13,0.68,0.13,1.05V210.64z M11.27,210.72c0,0.12,0,0.24,0.01,0.35l2.99-2.71c-0.04-0.19-0.1-0.37-0.18-0.54
			c-0.08-0.17-0.17-0.31-0.29-0.43c-0.12-0.12-0.26-0.22-0.43-0.29S13.02,207,12.81,207c-0.28,0-0.52,0.06-0.72,0.18
			c-0.2,0.12-0.35,0.28-0.48,0.48s-0.21,0.43-0.26,0.69c-0.05,0.26-0.08,0.54-0.08,0.82V210.72z M14.35,209.17c0-0.1,0-0.2-0.01-0.3
			l-2.98,2.71c0.05,0.19,0.11,0.36,0.19,0.52c0.08,0.16,0.18,0.3,0.3,0.42s0.26,0.21,0.42,0.28c0.16,0.07,0.35,0.1,0.55,0.1
			c0.28,0,0.52-0.06,0.72-0.18c0.2-0.12,0.35-0.28,0.47-0.48c0.12-0.2,0.21-0.43,0.26-0.69c0.05-0.26,0.08-0.53,0.08-0.82V209.17z"
			/>
		<path class="st8" d="M18.93,212.88c0-0.13,0.04-0.24,0.13-0.33c0.08-0.09,0.2-0.13,0.34-0.13c0.15,0,0.26,0.04,0.34,0.13
			c0.08,0.09,0.13,0.2,0.13,0.33c0,0.13-0.04,0.23-0.13,0.32c-0.08,0.08-0.2,0.12-0.34,0.12c-0.14,0-0.25-0.04-0.34-0.12
			C18.97,213.11,18.93,213,18.93,212.88z"/>
		<path class="st8" d="M27.82,210.64c0,0.37-0.04,0.72-0.12,1.05c-0.08,0.33-0.21,0.62-0.38,0.86c-0.17,0.25-0.38,0.44-0.65,0.58
			c-0.26,0.14-0.57,0.22-0.93,0.22c-0.36,0-0.67-0.07-0.93-0.22c-0.26-0.14-0.48-0.34-0.65-0.58c-0.17-0.25-0.3-0.53-0.38-0.86
			c-0.08-0.33-0.13-0.68-0.13-1.05v-1.38c0-0.37,0.05-0.72,0.13-1.05c0.08-0.33,0.21-0.62,0.38-0.87c0.17-0.25,0.39-0.45,0.65-0.59
			c0.26-0.14,0.57-0.22,0.93-0.22c0.36,0,0.67,0.07,0.94,0.22c0.26,0.14,0.48,0.34,0.65,0.59s0.3,0.54,0.38,0.87
			c0.08,0.33,0.13,0.68,0.13,1.05V210.64z M24.19,210.72c0,0.12,0,0.24,0.01,0.35l2.99-2.71c-0.04-0.19-0.1-0.37-0.18-0.54
			c-0.08-0.17-0.17-0.31-0.29-0.43c-0.12-0.12-0.26-0.22-0.43-0.29S25.95,207,25.73,207c-0.28,0-0.52,0.06-0.72,0.18
			c-0.2,0.12-0.36,0.28-0.48,0.48s-0.21,0.43-0.26,0.69c-0.05,0.26-0.08,0.54-0.08,0.82V210.72z M27.27,209.17c0-0.1,0-0.2-0.01-0.3
			l-2.98,2.71c0.05,0.19,0.11,0.36,0.19,0.52c0.08,0.16,0.18,0.3,0.3,0.42c0.12,0.12,0.26,0.21,0.42,0.28
			c0.16,0.07,0.35,0.1,0.56,0.1c0.28,0,0.52-0.06,0.72-0.18s0.35-0.28,0.47-0.48c0.12-0.2,0.21-0.43,0.26-0.69
			c0.05-0.26,0.08-0.53,0.08-0.82V209.17z"/>
		<path class="st8" d="M34.28,210.64c0,0.37-0.04,0.72-0.12,1.05c-0.08,0.33-0.21,0.62-0.38,0.86c-0.17,0.25-0.39,0.44-0.65,0.58
			c-0.26,0.14-0.57,0.22-0.93,0.22c-0.36,0-0.67-0.07-0.93-0.22c-0.26-0.14-0.48-0.34-0.65-0.58c-0.17-0.25-0.3-0.53-0.38-0.86
			c-0.08-0.33-0.13-0.68-0.13-1.05v-1.38c0-0.37,0.04-0.72,0.13-1.05c0.08-0.33,0.21-0.62,0.38-0.87c0.17-0.25,0.39-0.45,0.65-0.59
			c0.26-0.14,0.57-0.22,0.93-0.22c0.36,0,0.67,0.07,0.94,0.22c0.26,0.14,0.48,0.34,0.65,0.59s0.3,0.54,0.38,0.87
			c0.08,0.33,0.12,0.68,0.12,1.05V210.64z M30.65,210.72c0,0.12,0,0.24,0.01,0.35l2.99-2.71c-0.04-0.19-0.1-0.37-0.18-0.54
			c-0.08-0.17-0.17-0.31-0.29-0.43s-0.26-0.22-0.42-0.29c-0.16-0.07-0.35-0.11-0.57-0.11c-0.28,0-0.52,0.06-0.72,0.18
			c-0.2,0.12-0.35,0.28-0.48,0.48c-0.12,0.2-0.21,0.43-0.26,0.69c-0.05,0.26-0.08,0.54-0.08,0.82V210.72z M33.74,209.17
			c0-0.1,0-0.2-0.01-0.3l-2.98,2.71c0.05,0.19,0.11,0.36,0.19,0.52c0.08,0.16,0.18,0.3,0.29,0.42c0.12,0.12,0.26,0.21,0.42,0.28
			s0.35,0.1,0.56,0.1c0.28,0,0.52-0.06,0.72-0.18s0.35-0.28,0.47-0.48s0.21-0.43,0.26-0.69c0.05-0.26,0.08-0.53,0.08-0.82V209.17z"
			/>
		<path class="st8" d="M40.74,210.64c0,0.37-0.04,0.72-0.12,1.05c-0.08,0.33-0.21,0.62-0.38,0.86c-0.17,0.25-0.38,0.44-0.65,0.58
			c-0.26,0.14-0.57,0.22-0.93,0.22c-0.36,0-0.67-0.07-0.93-0.22c-0.26-0.14-0.48-0.34-0.65-0.58c-0.17-0.25-0.3-0.53-0.38-0.86
			c-0.08-0.33-0.13-0.68-0.13-1.05v-1.38c0-0.37,0.05-0.72,0.13-1.05c0.08-0.33,0.21-0.62,0.38-0.87c0.17-0.25,0.39-0.45,0.65-0.59
			c0.26-0.14,0.57-0.22,0.93-0.22c0.36,0,0.67,0.07,0.94,0.22c0.26,0.14,0.48,0.34,0.65,0.59s0.3,0.54,0.38,0.87
			c0.08,0.33,0.13,0.68,0.13,1.05V210.64z M37.12,210.72c0,0.12,0,0.24,0.01,0.35l2.99-2.71c-0.04-0.19-0.1-0.37-0.18-0.54
			c-0.08-0.17-0.17-0.31-0.29-0.43c-0.12-0.12-0.26-0.22-0.43-0.29S38.87,207,38.65,207c-0.28,0-0.52,0.06-0.72,0.18
			c-0.2,0.12-0.36,0.28-0.48,0.48s-0.21,0.43-0.26,0.69c-0.05,0.26-0.08,0.54-0.08,0.82V210.72z M40.2,209.17c0-0.1,0-0.2-0.01-0.3
			l-2.98,2.71c0.05,0.19,0.11,0.36,0.19,0.52c0.08,0.16,0.18,0.3,0.3,0.42c0.12,0.12,0.26,0.21,0.42,0.28
			c0.16,0.07,0.35,0.1,0.56,0.1c0.28,0,0.52-0.06,0.72-0.18s0.35-0.28,0.47-0.48c0.12-0.2,0.21-0.43,0.26-0.69
			c0.05-0.26,0.08-0.53,0.08-0.82V209.17z"/>
	</g>
	<g>
		<path class="st8" d="M6.92,90.33H6.37v-5.94l-1.83,0.79v-0.52l2.3-0.96h0.08V90.33z"/>
		<path class="st8" d="M11.19,86.94l0.32-3.23h3.31v0.53h-2.85l-0.23,2.22c0.16-0.11,0.35-0.2,0.56-0.27
			c0.21-0.07,0.44-0.1,0.68-0.1c0.3,0,0.57,0.05,0.81,0.16c0.24,0.1,0.45,0.25,0.62,0.44s0.3,0.42,0.39,0.68
			c0.09,0.26,0.14,0.55,0.14,0.86c0,0.31-0.04,0.59-0.12,0.86c-0.08,0.27-0.2,0.5-0.36,0.7s-0.37,0.36-0.62,0.47
			c-0.25,0.12-0.54,0.17-0.88,0.17c-0.28,0-0.53-0.04-0.77-0.12c-0.24-0.08-0.44-0.2-0.62-0.36c-0.18-0.16-0.32-0.35-0.43-0.58
			c-0.11-0.23-0.18-0.49-0.21-0.77h0.53c0.03,0.22,0.08,0.41,0.16,0.58c0.08,0.17,0.18,0.31,0.31,0.43
			c0.13,0.12,0.28,0.21,0.45,0.27c0.17,0.06,0.37,0.09,0.58,0.09c0.24,0,0.45-0.04,0.63-0.13s0.33-0.21,0.45-0.37
			c0.12-0.16,0.21-0.34,0.26-0.55c0.06-0.21,0.08-0.44,0.08-0.68c0-0.23-0.03-0.45-0.1-0.65s-0.17-0.38-0.3-0.52
			c-0.13-0.15-0.29-0.26-0.48-0.35c-0.19-0.08-0.4-0.13-0.63-0.13c-0.14,0-0.27,0.01-0.38,0.03c-0.12,0.02-0.23,0.05-0.33,0.09
			c-0.1,0.04-0.2,0.09-0.29,0.15c-0.09,0.06-0.18,0.13-0.28,0.21L11.19,86.94z"/>
		<path class="st8" d="M18.93,89.95c0-0.13,0.04-0.24,0.13-0.33c0.08-0.09,0.2-0.13,0.34-0.13c0.15,0,0.26,0.04,0.34,0.13
			c0.08,0.09,0.13,0.2,0.13,0.33c0,0.13-0.04,0.23-0.13,0.32c-0.08,0.08-0.2,0.12-0.34,0.12c-0.14,0-0.25-0.04-0.34-0.12
			C18.97,90.18,18.93,90.08,18.93,89.95z"/>
		<path class="st8" d="M27.82,87.71c0,0.37-0.04,0.72-0.12,1.05c-0.08,0.33-0.21,0.62-0.38,0.86c-0.17,0.25-0.38,0.44-0.65,0.58
			c-0.26,0.14-0.57,0.22-0.93,0.22c-0.36,0-0.67-0.07-0.93-0.22c-0.26-0.14-0.48-0.34-0.65-0.58c-0.17-0.25-0.3-0.53-0.38-0.86
			c-0.08-0.33-0.13-0.68-0.13-1.05v-1.38c0-0.37,0.05-0.72,0.13-1.05c0.08-0.33,0.21-0.62,0.38-0.87c0.17-0.25,0.39-0.45,0.65-0.59
			c0.26-0.14,0.57-0.22,0.93-0.22c0.36,0,0.67,0.07,0.94,0.22c0.26,0.14,0.48,0.34,0.65,0.59s0.3,0.54,0.38,0.87
			c0.08,0.33,0.13,0.68,0.13,1.05V87.71z M24.19,87.79c0,0.12,0,0.24,0.01,0.35l2.99-2.71c-0.04-0.19-0.1-0.37-0.18-0.54
			c-0.08-0.17-0.17-0.31-0.29-0.43c-0.12-0.12-0.26-0.22-0.43-0.29s-0.35-0.11-0.57-0.11c-0.28,0-0.52,0.06-0.72,0.18
			c-0.2,0.12-0.36,0.28-0.48,0.48s-0.21,0.43-0.26,0.69c-0.05,0.26-0.08,0.54-0.08,0.82V87.79z M27.27,86.24c0-0.1,0-0.2-0.01-0.3
			l-2.98,2.71c0.05,0.19,0.11,0.36,0.19,0.52c0.08,0.16,0.18,0.3,0.3,0.42c0.12,0.12,0.26,0.21,0.42,0.28
			c0.16,0.07,0.35,0.1,0.56,0.1c0.28,0,0.52-0.06,0.72-0.18s0.35-0.28,0.47-0.48c0.12-0.2,0.21-0.43,0.26-0.69
			c0.05-0.26,0.08-0.53,0.08-0.82V86.24z"/>
		<path class="st8" d="M34.28,87.71c0,0.37-0.04,0.72-0.12,1.05c-0.08,0.33-0.21,0.62-0.38,0.86c-0.17,0.25-0.39,0.44-0.65,0.58
			c-0.26,0.14-0.57,0.22-0.93,0.22c-0.36,0-0.67-0.07-0.93-0.22c-0.26-0.14-0.48-0.34-0.65-0.58c-0.17-0.25-0.3-0.53-0.38-0.86
			c-0.08-0.33-0.13-0.68-0.13-1.05v-1.38c0-0.37,0.04-0.72,0.13-1.05c0.08-0.33,0.21-0.62,0.38-0.87c0.17-0.25,0.39-0.45,0.65-0.59
			c0.26-0.14,0.57-0.22,0.93-0.22c0.36,0,0.67,0.07,0.94,0.22c0.26,0.14,0.48,0.34,0.65,0.59s0.3,0.54,0.38,0.87
			c0.08,0.33,0.12,0.68,0.12,1.05V87.71z M30.65,87.79c0,0.12,0,0.24,0.01,0.35l2.99-2.71c-0.04-0.19-0.1-0.37-0.18-0.54
			c-0.08-0.17-0.17-0.31-0.29-0.43s-0.26-0.22-0.42-0.29c-0.16-0.07-0.35-0.11-0.57-0.11c-0.28,0-0.52,0.06-0.72,0.18
			c-0.2,0.12-0.35,0.28-0.48,0.48c-0.12,0.2-0.21,0.43-0.26,0.69c-0.05,0.26-0.08,0.54-0.08,0.82V87.79z M33.74,86.24
			c0-0.1,0-0.2-0.01-0.3l-2.98,2.71c0.05,0.19,0.11,0.36,0.19,0.52c0.08,0.16,0.18,0.3,0.29,0.42c0.12,0.12,0.26,0.21,0.42,0.28
			s0.35,0.1,0.56,0.1c0.28,0,0.52-0.06,0.72-0.18s0.35-0.28,0.47-0.48s0.21-0.43,0.26-0.69c0.05-0.26,0.08-0.53,0.08-0.82V86.24z"/>
		<path class="st8" d="M40.74,87.71c0,0.37-0.04,0.72-0.12,1.05c-0.08,0.33-0.21,0.62-0.38,0.86c-0.17,0.25-0.38,0.44-0.65,0.58
			c-0.26,0.14-0.57,0.22-0.93,0.22c-0.36,0-0.67-0.07-0.93-0.22c-0.26-0.14-0.48-0.34-0.65-0.58c-0.17-0.25-0.3-0.53-0.38-0.86
			c-0.08-0.33-0.13-0.68-0.13-1.05v-1.38c0-0.37,0.05-0.72,0.13-1.05c0.08-0.33,0.21-0.62,0.38-0.87c0.17-0.25,0.39-0.45,0.65-0.59
			c0.26-0.14,0.57-0.22,0.93-0.22c0.36,0,0.67,0.07,0.94,0.22c0.26,0.14,0.48,0.34,0.65,0.59s0.3,0.54,0.38,0.87
			c0.08,0.33,0.13,0.68,0.13,1.05V87.71z M37.12,87.79c0,0.12,0,0.24,0.01,0.35l2.99-2.71c-0.04-0.19-0.1-0.37-0.18-0.54
			c-0.08-0.17-0.17-0.31-0.29-0.43c-0.12-0.12-0.26-0.22-0.43-0.29s-0.35-0.11-0.57-0.11c-0.28,0-0.52,0.06-0.72,0.18
			c-0.2,0.12-0.36,0.28-0.48,0.48s-0.21,0.43-0.26,0.69c-0.05,0.26-0.08,0.54-0.08,0.82V87.79z M40.2,86.24c0-0.1,0-0.2-0.01-0.3
			l-2.98,2.71c0.05,0.19,0.11,0.36,0.19,0.52c0.08,0.16,0.18,0.3,0.3,0.42c0.12,0.12,0.26,0.21,0.42,0.28
			c0.16,0.07,0.35,0.1,0.56,0.1c0.28,0,0.52-0.06,0.72-0.18s0.35-0.28,0.47-0.48c0.12-0.2,0.21-0.43,0.26-0.69
			c0.05-0.26,0.08-0.53,0.08-0.82V86.24z"/>
	</g>
</g>
<rect x="-22.88" y="-434.18" class="st2" width="101.77" height="602.69"/>
<path class="st3" d="M300.01,447.25L300.01,447.25 M3.73,447.25L3.73,447.25"/>
<path class="st3" d="M300.01,391.31L300.01,391.31 M3.73,391.31L3.73,391.31"/>
<path class="st3" d="M300.01,335.76L300.01,335.76 M3.73,335.76L3.73,335.76"/>
<path class="st3" d="M300.01,280.21L300.01,280.21 M3.73,280.21L3.73,280.21"/>
<path class="st3" d="M300.01,223.49L300.01,223.49 M3.73,223.49L3.73,223.49"/>
<path class="st3" d="M300.01,167.55L300.01,167.55 M3.73,167.55L3.73,167.55"/>
<path class="st3" d="M300.01,111.61L300.01,111.61 M3.73,111.61L3.73,111.61"/>
<path class="st3" d="M300.01,56.06L300.01,56.06 M3.73,56.06L3.73,56.06"/>
<g class="st4">
	<line class="st5" x1="4.9" y1="447.25" x2="299.42" y2="447.25"/>
	<line class="st5" x1="4.9" y1="422.8" x2="299.42" y2="422.8"/>
	<line class="st5" x1="4.9" y1="398.36" x2="299.42" y2="398.36"/>
	<line class="st5" x1="4.9" y1="373.91" x2="299.42" y2="373.91"/>
	<line class="st5" x1="4.9" y1="349.46" x2="299.42" y2="349.46"/>
	<line class="st5" x1="4.9" y1="325.01" x2="299.42" y2="325.01"/>
	<line class="st5" x1="4.9" y1="300.57" x2="299.42" y2="300.57"/>
	<line class="st5" x1="4.9" y1="251.67" x2="299.42" y2="251.67"/>
	<line class="st5" x1="4.9" y1="202.77" x2="299.42" y2="202.77"/>
	<line class="st5" x1="4.9" y1="276.12" x2="299.42" y2="276.12"/>
	<line class="st5" x1="4.9" y1="104.98" x2="299.42" y2="104.98"/>
	<line class="st5" x1="4.9" y1="129.43" x2="299.42" y2="129.43"/>
	<line class="st5" x1="4.9" y1="153.88" x2="299.42" y2="153.88"/>
	<line class="st5" x1="4.9" y1="178.33" x2="299.42" y2="178.33"/>
	<line class="st5" x1="4.9" y1="227.22" x2="299.42" y2="227.22"/>
	<line class="st5" x1="4.9" y1="80.54" x2="299.42" y2="80.54"/>
</g>
<line class="st9" x1="292.24" y1="447.45" x2="292.24" y2="56"/>
<rect x="-7.68" y="-488" class="st2" width="323.14" height="1013.9"/>
<g>
	<path class="st7" d="M295.3,43.42v0.84h-5.55l0.66,1.73h-0.77l-0.96-2.51v-0.07H295.3z"/>
	<path class="st7" d="M291.97,39.39l-3.3-0.33v-3.4h0.82v2.69l1.77,0.19c-0.08-0.13-0.14-0.29-0.2-0.47
		c-0.06-0.18-0.09-0.39-0.09-0.63c0-0.31,0.05-0.58,0.16-0.82s0.26-0.45,0.45-0.62s0.43-0.3,0.7-0.39c0.27-0.09,0.58-0.14,0.91-0.14
		c0.32,0,0.61,0.04,0.88,0.13c0.27,0.08,0.5,0.21,0.7,0.38c0.2,0.17,0.35,0.39,0.46,0.65c0.11,0.26,0.17,0.57,0.17,0.92
		c0,0.27-0.04,0.52-0.11,0.76c-0.08,0.24-0.19,0.45-0.34,0.64c-0.15,0.19-0.34,0.34-0.57,0.46c-0.23,0.12-0.5,0.2-0.81,0.23v-0.8
		c0.38-0.05,0.66-0.19,0.86-0.42c0.19-0.23,0.29-0.52,0.29-0.87c0-0.2-0.04-0.38-0.11-0.53s-0.17-0.28-0.31-0.39
		c-0.13-0.11-0.29-0.18-0.48-0.24c-0.18-0.05-0.39-0.08-0.62-0.08c-0.21,0-0.4,0.03-0.58,0.09c-0.18,0.06-0.33,0.15-0.47,0.26
		c-0.13,0.11-0.24,0.25-0.31,0.41s-0.11,0.35-0.11,0.56c0,0.14,0.01,0.26,0.03,0.36c0.02,0.1,0.05,0.19,0.08,0.28
		c0.04,0.08,0.08,0.16,0.13,0.23s0.11,0.14,0.18,0.22L291.97,39.39z"/>
	<path class="st7" d="M294.75,31.76c-0.09,0-0.18-0.01-0.25-0.04c-0.08-0.03-0.15-0.07-0.21-0.12c-0.06-0.05-0.11-0.12-0.14-0.21
		s-0.05-0.18-0.05-0.29s0.02-0.21,0.05-0.29s0.08-0.15,0.14-0.21c0.06-0.06,0.13-0.1,0.21-0.13c0.08-0.03,0.16-0.04,0.25-0.04
		c0.09,0,0.17,0.02,0.25,0.04c0.08,0.03,0.14,0.07,0.2,0.13c0.06,0.06,0.1,0.12,0.13,0.21c0.03,0.08,0.05,0.18,0.05,0.29
		s-0.02,0.21-0.05,0.29c-0.03,0.08-0.08,0.15-0.13,0.21s-0.12,0.1-0.2,0.12C294.92,31.75,294.84,31.76,294.75,31.76z"/>
	<path class="st7" d="M294.55,25.86c0-0.3-0.03-0.56-0.08-0.79c-0.05-0.23-0.13-0.43-0.23-0.59c-0.1-0.17-0.21-0.31-0.34-0.42
		s-0.28-0.2-0.44-0.28s-0.33-0.12-0.51-0.16s-0.36-0.05-0.54-0.06c0.09,0.07,0.18,0.16,0.26,0.25c0.08,0.09,0.15,0.2,0.21,0.32
		c0.06,0.12,0.11,0.25,0.14,0.39c0.04,0.14,0.05,0.3,0.05,0.47c0,0.33-0.06,0.61-0.19,0.85c-0.13,0.24-0.3,0.44-0.51,0.59
		c-0.21,0.16-0.45,0.27-0.71,0.34c-0.26,0.07-0.53,0.11-0.8,0.11c-0.31,0-0.61-0.04-0.89-0.13s-0.52-0.22-0.73-0.39
		s-0.37-0.39-0.5-0.64c-0.12-0.26-0.18-0.55-0.18-0.89c0-0.26,0.04-0.49,0.11-0.69c0.07-0.2,0.17-0.39,0.3-0.54s0.27-0.29,0.45-0.4
		c0.17-0.11,0.36-0.2,0.55-0.28c0.2-0.07,0.41-0.12,0.62-0.16c0.22-0.03,0.43-0.05,0.65-0.05h0.3c0.28,0,0.57,0.01,0.87,0.04
		s0.58,0.08,0.86,0.16c0.28,0.08,0.54,0.19,0.78,0.34c0.24,0.15,0.46,0.34,0.64,0.57c0.18,0.23,0.33,0.52,0.43,0.85
		c0.11,0.33,0.16,0.73,0.16,1.19v0.09h-0.75V25.86z M292.38,24.85c0-0.14-0.02-0.28-0.07-0.42c-0.05-0.14-0.11-0.26-0.2-0.37
		c-0.09-0.11-0.19-0.21-0.3-0.3c-0.12-0.09-0.25-0.16-0.39-0.21h-0.27c-0.29,0-0.56,0.03-0.79,0.1s-0.43,0.16-0.58,0.28
		c-0.16,0.12-0.28,0.25-0.37,0.41c-0.08,0.15-0.13,0.32-0.13,0.49c0,0.2,0.04,0.37,0.12,0.52c0.08,0.15,0.19,0.28,0.33,0.38
		c0.14,0.1,0.3,0.18,0.49,0.24s0.39,0.08,0.61,0.08c0.19,0,0.38-0.03,0.57-0.07c0.19-0.05,0.35-0.12,0.5-0.22s0.26-0.22,0.35-0.37
		S292.38,25.05,292.38,24.85z"/>
	<path class="st7" d="M294.55,19.39c0-0.3-0.03-0.56-0.08-0.79c-0.05-0.23-0.13-0.43-0.23-0.59c-0.1-0.17-0.21-0.31-0.34-0.42
		s-0.28-0.2-0.44-0.28s-0.33-0.12-0.51-0.16c-0.18-0.03-0.36-0.05-0.54-0.06c0.09,0.07,0.18,0.16,0.26,0.25
		c0.08,0.09,0.15,0.2,0.21,0.32c0.06,0.12,0.11,0.25,0.14,0.39s0.05,0.3,0.05,0.47c0,0.33-0.06,0.61-0.19,0.85s-0.3,0.43-0.51,0.59
		c-0.21,0.15-0.45,0.27-0.71,0.34c-0.26,0.07-0.53,0.11-0.8,0.11c-0.31,0-0.61-0.04-0.89-0.13s-0.52-0.21-0.73-0.39
		s-0.37-0.39-0.5-0.64c-0.12-0.26-0.18-0.55-0.18-0.89c0-0.25,0.04-0.48,0.11-0.69s0.17-0.38,0.3-0.54s0.27-0.29,0.45-0.4
		c0.17-0.11,0.36-0.2,0.55-0.28c0.2-0.07,0.41-0.12,0.62-0.16s0.43-0.05,0.65-0.05h0.3c0.28,0,0.57,0.01,0.87,0.04
		c0.3,0.03,0.58,0.08,0.86,0.16s0.54,0.19,0.78,0.34c0.24,0.14,0.46,0.33,0.64,0.57c0.18,0.23,0.33,0.52,0.43,0.85
		c0.11,0.33,0.16,0.73,0.16,1.19v0.09h-0.75V19.39z M292.38,18.39c0-0.14-0.02-0.28-0.07-0.42s-0.11-0.26-0.2-0.37
		c-0.09-0.11-0.19-0.22-0.3-0.3c-0.12-0.09-0.25-0.16-0.39-0.21h-0.27c-0.29,0-0.56,0.04-0.79,0.1s-0.43,0.16-0.58,0.28
		s-0.28,0.25-0.37,0.4c-0.08,0.15-0.13,0.32-0.13,0.49c0,0.2,0.04,0.37,0.12,0.52c0.08,0.15,0.19,0.28,0.33,0.38
		c0.14,0.1,0.3,0.18,0.49,0.24s0.39,0.08,0.61,0.08c0.19,0,0.38-0.02,0.57-0.07s0.35-0.12,0.5-0.22s0.26-0.22,0.35-0.37
		S292.38,18.59,292.38,18.39z"/>
	<path class="st7" d="M291.97,13.54l-3.3-0.33v-3.4h0.82v2.69l1.77,0.19c-0.08-0.13-0.14-0.29-0.2-0.47s-0.09-0.39-0.09-0.63
		c0-0.31,0.05-0.58,0.16-0.82c0.11-0.24,0.26-0.45,0.45-0.62s0.43-0.3,0.7-0.39c0.27-0.09,0.58-0.14,0.91-0.14
		c0.32,0,0.61,0.04,0.88,0.13c0.27,0.08,0.5,0.21,0.7,0.38c0.2,0.17,0.35,0.39,0.46,0.65c0.11,0.26,0.17,0.57,0.17,0.92
		c0,0.27-0.04,0.52-0.11,0.76c-0.08,0.24-0.19,0.45-0.34,0.64c-0.15,0.19-0.34,0.34-0.57,0.46c-0.23,0.12-0.5,0.2-0.81,0.23v-0.8
		c0.38-0.05,0.66-0.19,0.86-0.42s0.29-0.52,0.29-0.87c0-0.2-0.04-0.38-0.11-0.53c-0.07-0.16-0.17-0.29-0.31-0.39
		c-0.13-0.1-0.29-0.18-0.48-0.24c-0.18-0.05-0.39-0.08-0.62-0.08c-0.21,0-0.4,0.03-0.58,0.09c-0.18,0.06-0.33,0.14-0.47,0.26
		c-0.13,0.11-0.24,0.25-0.31,0.41s-0.11,0.35-0.11,0.56c0,0.14,0.01,0.26,0.03,0.36s0.05,0.19,0.08,0.28s0.08,0.16,0.13,0.23
		c0.05,0.07,0.11,0.14,0.18,0.22L291.97,13.54z"/>
</g>
<line class="st9" x1="260.88" y1="447.45" x2="260.88" y2="165"/>
<g>
	<path class="st7" d="M263.92,152.5v0.84h-5.55l0.66,1.73h-0.77l-0.96-2.51v-0.07H263.92z"/>
	<path class="st7" d="M263.92,146.04v0.84h-5.55l0.66,1.73h-0.77l-0.96-2.51v-0.07H263.92z"/>
	<path class="st7" d="M263.38,140.85c-0.09,0-0.18-0.01-0.25-0.04c-0.08-0.03-0.15-0.07-0.21-0.12c-0.06-0.05-0.11-0.12-0.14-0.21
		s-0.05-0.18-0.05-0.29s0.02-0.21,0.05-0.29s0.08-0.15,0.14-0.21c0.06-0.06,0.13-0.1,0.21-0.13c0.08-0.03,0.16-0.04,0.25-0.04
		c0.09,0,0.17,0.02,0.25,0.04c0.08,0.03,0.14,0.07,0.2,0.13c0.06,0.06,0.1,0.12,0.13,0.21c0.03,0.08,0.05,0.18,0.05,0.29
		s-0.02,0.21-0.05,0.29c-0.03,0.08-0.08,0.15-0.13,0.21s-0.12,0.1-0.2,0.12C263.55,140.83,263.47,140.85,263.38,140.85z"/>
	<path class="st7" d="M260.6,135.55l-3.3-0.33v-3.4h0.82v2.69l1.77,0.19c-0.08-0.13-0.14-0.29-0.2-0.47s-0.09-0.39-0.09-0.63
		c0-0.31,0.05-0.58,0.16-0.82c0.11-0.24,0.26-0.45,0.45-0.62s0.43-0.3,0.7-0.39c0.27-0.09,0.58-0.14,0.91-0.14
		c0.32,0,0.61,0.04,0.88,0.13c0.27,0.08,0.5,0.21,0.7,0.38c0.2,0.17,0.35,0.39,0.46,0.65c0.11,0.26,0.17,0.57,0.17,0.92
		c0,0.27-0.04,0.52-0.11,0.76c-0.08,0.24-0.19,0.45-0.34,0.64c-0.15,0.19-0.34,0.34-0.57,0.46c-0.23,0.12-0.5,0.2-0.81,0.23v-0.8
		c0.38-0.05,0.66-0.19,0.86-0.42s0.29-0.52,0.29-0.87c0-0.2-0.04-0.38-0.11-0.53c-0.07-0.16-0.17-0.29-0.31-0.39
		c-0.13-0.1-0.29-0.18-0.48-0.24c-0.18-0.05-0.39-0.08-0.62-0.08c-0.21,0-0.4,0.03-0.58,0.09c-0.18,0.06-0.33,0.14-0.47,0.26
		c-0.13,0.11-0.24,0.25-0.31,0.41s-0.11,0.35-0.11,0.56c0,0.14,0.01,0.26,0.03,0.36s0.05,0.19,0.08,0.28s0.08,0.16,0.13,0.23
		c0.05,0.07,0.11,0.14,0.18,0.22L260.6,135.55z"/>
	<path class="st7" d="M257.29,126.28h0.76v0.07c0,0.28,0.03,0.53,0.09,0.75c0.06,0.22,0.14,0.41,0.24,0.58
		c0.1,0.17,0.22,0.31,0.36,0.43c0.14,0.12,0.29,0.22,0.45,0.3c0.16,0.08,0.33,0.14,0.51,0.18c0.18,0.04,0.36,0.07,0.55,0.08
		c-0.09-0.08-0.18-0.17-0.26-0.27c-0.08-0.1-0.15-0.21-0.21-0.33c-0.06-0.12-0.11-0.25-0.14-0.39c-0.04-0.14-0.05-0.28-0.05-0.43
		c0-0.33,0.06-0.62,0.19-0.86s0.29-0.44,0.5-0.59s0.44-0.27,0.7-0.34c0.26-0.07,0.53-0.11,0.8-0.11c0.31,0,0.6,0.04,0.87,0.13
		c0.27,0.09,0.51,0.22,0.72,0.39s0.37,0.39,0.48,0.64c0.12,0.26,0.18,0.55,0.18,0.89c0,0.24-0.04,0.46-0.1,0.66
		c-0.07,0.2-0.17,0.38-0.28,0.53c-0.12,0.16-0.26,0.3-0.43,0.42c-0.16,0.12-0.34,0.22-0.53,0.29c-0.19,0.08-0.38,0.14-0.59,0.18
		c-0.2,0.04-0.41,0.06-0.61,0.06h-0.4c-0.3,0-0.61-0.02-0.91-0.06c-0.31-0.04-0.6-0.1-0.88-0.19c-0.28-0.09-0.54-0.21-0.79-0.37
		s-0.46-0.35-0.63-0.58s-0.32-0.51-0.42-0.84c-0.1-0.33-0.15-0.7-0.15-1.14V126.28z M260.28,127.38c0,0.14,0.02,0.28,0.07,0.42
		c0.05,0.13,0.11,0.26,0.19,0.37s0.18,0.22,0.3,0.3s0.24,0.16,0.38,0.21h0.28c0.29,0,0.55-0.03,0.78-0.1
		c0.23-0.07,0.42-0.16,0.57-0.28c0.16-0.12,0.27-0.25,0.35-0.41c0.08-0.15,0.12-0.32,0.12-0.49c0-0.2-0.04-0.37-0.11-0.52
		c-0.08-0.15-0.18-0.28-0.31-0.38c-0.13-0.11-0.29-0.18-0.48-0.24c-0.19-0.05-0.39-0.08-0.61-0.08c-0.19,0-0.38,0.02-0.57,0.07
		c-0.18,0.05-0.35,0.12-0.49,0.22s-0.26,0.23-0.34,0.38C260.32,127,260.28,127.18,260.28,127.38z"/>
	<path class="st7" d="M257.77,118.73l6.16,2.74v0.88l-5.89-2.74v3.59h-0.74v-4.48H257.77z"/>
</g>
<line class="st9" x1="229.68" y1="447.45" x2="229.68" y2="286"/>
<g>
	<path class="st7" d="M225.09,273.45h0.76v0.07c0,0.28,0.03,0.53,0.09,0.75s0.14,0.41,0.24,0.58c0.1,0.17,0.22,0.31,0.36,0.43
		c0.14,0.12,0.29,0.22,0.45,0.3c0.16,0.08,0.33,0.14,0.51,0.18c0.18,0.04,0.36,0.07,0.55,0.08c-0.09-0.08-0.18-0.17-0.26-0.27
		c-0.08-0.1-0.15-0.21-0.21-0.33c-0.06-0.12-0.11-0.25-0.14-0.39c-0.04-0.14-0.05-0.28-0.05-0.43c0-0.33,0.06-0.62,0.19-0.86
		c0.13-0.24,0.29-0.44,0.5-0.59c0.21-0.15,0.44-0.27,0.7-0.34c0.26-0.07,0.53-0.11,0.8-0.11c0.31,0,0.6,0.04,0.87,0.13
		c0.27,0.09,0.51,0.22,0.72,0.39c0.21,0.17,0.37,0.39,0.48,0.64c0.12,0.26,0.18,0.55,0.18,0.89c0,0.24-0.04,0.46-0.1,0.66
		s-0.17,0.38-0.28,0.54c-0.12,0.16-0.26,0.3-0.43,0.41s-0.34,0.22-0.53,0.29c-0.19,0.08-0.38,0.14-0.59,0.17
		c-0.2,0.04-0.41,0.06-0.61,0.06h-0.4c-0.3,0-0.61-0.02-0.91-0.06c-0.31-0.04-0.6-0.1-0.88-0.19c-0.28-0.09-0.54-0.21-0.79-0.37
		c-0.24-0.16-0.46-0.35-0.63-0.58s-0.32-0.52-0.42-0.84c-0.1-0.33-0.15-0.7-0.15-1.14V273.45z M228.08,274.55
		c0,0.14,0.02,0.28,0.07,0.41s0.11,0.26,0.19,0.37s0.18,0.22,0.3,0.31c0.12,0.09,0.24,0.16,0.38,0.21h0.28
		c0.29,0,0.55-0.04,0.78-0.1c0.23-0.07,0.42-0.16,0.57-0.28c0.16-0.12,0.27-0.25,0.35-0.41c0.08-0.15,0.12-0.32,0.12-0.49
		c0-0.2-0.04-0.37-0.11-0.52c-0.08-0.15-0.18-0.28-0.31-0.38c-0.13-0.1-0.29-0.18-0.48-0.24s-0.39-0.08-0.61-0.08
		c-0.19,0-0.38,0.02-0.57,0.07s-0.35,0.12-0.49,0.22c-0.14,0.1-0.26,0.23-0.34,0.38C228.12,274.17,228.08,274.35,228.08,274.55z"/>
	<path class="st7" d="M231.18,268.62c-0.09,0-0.18-0.01-0.25-0.04c-0.08-0.03-0.15-0.07-0.21-0.13c-0.06-0.05-0.11-0.12-0.14-0.2
		c-0.03-0.08-0.05-0.18-0.05-0.29s0.02-0.21,0.05-0.29c0.03-0.08,0.08-0.15,0.14-0.21c0.06-0.06,0.13-0.1,0.21-0.13
		c0.08-0.03,0.16-0.04,0.25-0.04c0.09,0,0.17,0.01,0.25,0.04c0.08,0.03,0.14,0.07,0.2,0.13c0.06,0.06,0.1,0.13,0.13,0.21
		c0.03,0.08,0.05,0.18,0.05,0.29s-0.02,0.21-0.05,0.29c-0.03,0.08-0.08,0.15-0.13,0.2s-0.12,0.1-0.2,0.13
		C231.35,268.61,231.27,268.62,231.18,268.62z"/>
	<path class="st7" d="M228.4,263.33l-3.3-0.33v-3.4h0.82v2.69l1.77,0.19c-0.08-0.13-0.14-0.29-0.2-0.47
		c-0.06-0.18-0.09-0.39-0.09-0.63c0-0.31,0.05-0.58,0.16-0.82s0.26-0.45,0.45-0.62s0.43-0.3,0.7-0.39c0.27-0.09,0.58-0.14,0.91-0.14
		c0.32,0,0.61,0.04,0.88,0.13c0.27,0.08,0.5,0.21,0.7,0.38c0.2,0.17,0.35,0.39,0.46,0.65s0.17,0.57,0.17,0.92
		c0,0.27-0.04,0.52-0.11,0.76c-0.08,0.24-0.19,0.45-0.34,0.64c-0.15,0.19-0.34,0.34-0.57,0.46c-0.23,0.12-0.5,0.19-0.81,0.22v-0.8
		c0.38-0.05,0.66-0.19,0.86-0.42c0.19-0.23,0.29-0.52,0.29-0.87c0-0.2-0.04-0.38-0.11-0.53c-0.07-0.15-0.17-0.28-0.31-0.39
		c-0.13-0.11-0.29-0.18-0.48-0.24c-0.18-0.05-0.39-0.08-0.62-0.08c-0.21,0-0.4,0.03-0.58,0.09c-0.18,0.06-0.33,0.15-0.47,0.26
		c-0.13,0.11-0.24,0.25-0.31,0.41s-0.11,0.35-0.11,0.56c0,0.14,0.01,0.26,0.03,0.36s0.05,0.19,0.08,0.28s0.08,0.16,0.13,0.23
		s0.11,0.15,0.18,0.22L228.4,263.33z"/>
	<path class="st7" d="M228.01,256.18v-0.6c0-0.21-0.03-0.4-0.09-0.56s-0.14-0.3-0.24-0.41c-0.1-0.11-0.22-0.19-0.36-0.25
		s-0.29-0.09-0.46-0.09c-0.38,0-0.68,0.1-0.87,0.3c-0.2,0.2-0.29,0.49-0.29,0.87c0,0.18,0.03,0.34,0.08,0.49
		c0.05,0.15,0.13,0.27,0.23,0.38c0.1,0.1,0.22,0.19,0.36,0.24s0.3,0.09,0.47,0.09v0.85c-0.25,0-0.49-0.05-0.71-0.15
		c-0.22-0.1-0.42-0.24-0.58-0.42c-0.17-0.18-0.3-0.39-0.39-0.64c-0.1-0.25-0.14-0.53-0.14-0.83c0-0.3,0.04-0.57,0.12-0.82
		c0.08-0.25,0.2-0.46,0.36-0.63c0.16-0.18,0.35-0.31,0.59-0.41c0.23-0.1,0.5-0.15,0.81-0.15c0.13,0,0.26,0.02,0.4,0.06
		c0.14,0.04,0.27,0.1,0.4,0.18c0.13,0.08,0.25,0.19,0.36,0.32c0.11,0.13,0.21,0.28,0.29,0.46c0.07-0.22,0.16-0.4,0.27-0.54
		c0.11-0.14,0.24-0.26,0.38-0.35c0.14-0.09,0.29-0.15,0.44-0.18c0.15-0.04,0.31-0.05,0.46-0.05c0.31,0,0.58,0.05,0.82,0.16
		c0.24,0.11,0.44,0.25,0.61,0.44c0.17,0.19,0.29,0.41,0.38,0.67c0.09,0.26,0.13,0.53,0.13,0.83c0,0.29-0.04,0.57-0.12,0.82
		c-0.08,0.26-0.2,0.48-0.36,0.67c-0.16,0.19-0.35,0.34-0.58,0.45c-0.23,0.11-0.49,0.17-0.78,0.17v-0.84c0.17,0,0.33-0.03,0.47-0.09
		c0.14-0.06,0.26-0.14,0.36-0.25c0.1-0.11,0.18-0.24,0.23-0.4s0.08-0.33,0.08-0.52s-0.02-0.36-0.08-0.52
		c-0.05-0.16-0.13-0.29-0.23-0.4s-0.23-0.19-0.38-0.25c-0.15-0.06-0.33-0.09-0.54-0.09c-0.21,0-0.38,0.03-0.54,0.1
		s-0.28,0.16-0.38,0.29c-0.1,0.12-0.17,0.27-0.22,0.45c-0.05,0.17-0.07,0.37-0.07,0.58v0.6H228.01z"/>
	<path class="st7" d="M225.09,247.6h0.76v0.07c0,0.28,0.03,0.53,0.09,0.75s0.14,0.41,0.24,0.58c0.1,0.17,0.22,0.31,0.36,0.43
		c0.14,0.12,0.29,0.22,0.45,0.3c0.16,0.08,0.33,0.14,0.51,0.18c0.18,0.04,0.36,0.07,0.55,0.08c-0.09-0.08-0.18-0.17-0.26-0.27
		c-0.08-0.1-0.15-0.21-0.21-0.33c-0.06-0.12-0.11-0.25-0.14-0.39c-0.04-0.14-0.05-0.28-0.05-0.43c0-0.33,0.06-0.62,0.19-0.86
		c0.13-0.24,0.29-0.44,0.5-0.59c0.21-0.15,0.44-0.27,0.7-0.34c0.26-0.07,0.53-0.11,0.8-0.11c0.31,0,0.6,0.04,0.87,0.13
		c0.27,0.09,0.51,0.22,0.72,0.39c0.21,0.17,0.37,0.39,0.48,0.64c0.12,0.26,0.18,0.55,0.18,0.89c0,0.24-0.04,0.46-0.1,0.66
		s-0.17,0.38-0.28,0.54c-0.12,0.16-0.26,0.3-0.43,0.41s-0.34,0.22-0.53,0.29c-0.19,0.08-0.38,0.14-0.59,0.17
		c-0.2,0.04-0.41,0.06-0.61,0.06h-0.4c-0.3,0-0.61-0.02-0.91-0.06c-0.31-0.04-0.6-0.1-0.88-0.19c-0.28-0.09-0.54-0.21-0.79-0.37
		c-0.24-0.16-0.46-0.35-0.63-0.58s-0.32-0.52-0.42-0.84c-0.1-0.33-0.15-0.7-0.15-1.14V247.6z M228.08,248.7
		c0,0.14,0.02,0.28,0.07,0.41s0.11,0.26,0.19,0.37s0.18,0.22,0.3,0.31c0.12,0.09,0.24,0.16,0.38,0.21h0.28
		c0.29,0,0.55-0.04,0.78-0.1c0.23-0.07,0.42-0.16,0.57-0.28c0.16-0.12,0.27-0.25,0.35-0.41c0.08-0.15,0.12-0.32,0.12-0.49
		c0-0.2-0.04-0.37-0.11-0.52c-0.08-0.15-0.18-0.28-0.31-0.38c-0.13-0.1-0.29-0.18-0.48-0.24s-0.39-0.08-0.61-0.08
		c-0.19,0-0.38,0.02-0.57,0.07s-0.35,0.12-0.49,0.22c-0.14,0.1-0.26,0.23-0.34,0.38C228.12,248.32,228.08,248.5,228.08,248.7z"/>
</g>
<line class="st9" x1="198.81" y1="447.45" x2="198.81" y2="336"/>
<g>
	<path class="st7" d="M199.75,323.04v-0.92h0.69v0.92h1.54v0.84h-1.54v3.02h-0.5l-4.59-2.97v-0.9H199.75z M199.75,325.97v-2.09
		h-3.28l0.25,0.14L199.75,325.97z"/>
	<path class="st7" d="M201.43,318.53c-0.09,0-0.18-0.01-0.25-0.04c-0.08-0.03-0.15-0.07-0.21-0.13c-0.06-0.05-0.11-0.12-0.14-0.2
		c-0.03-0.08-0.05-0.18-0.05-0.29s0.02-0.21,0.05-0.29c0.03-0.08,0.08-0.15,0.14-0.21c0.06-0.06,0.13-0.1,0.21-0.13
		c0.08-0.03,0.16-0.04,0.25-0.04c0.09,0,0.17,0.01,0.25,0.04c0.08,0.03,0.14,0.07,0.2,0.13c0.06,0.06,0.1,0.13,0.13,0.21
		c0.03,0.08,0.05,0.18,0.05,0.29s-0.02,0.21-0.05,0.29c-0.03,0.08-0.08,0.15-0.13,0.2s-0.12,0.1-0.2,0.13
		C201.6,318.51,201.52,318.53,201.43,318.53z"/>
	<path class="st7" d="M195.34,310.43h0.76v0.07c0,0.28,0.03,0.53,0.09,0.75s0.14,0.41,0.24,0.58c0.1,0.17,0.22,0.31,0.36,0.43
		c0.14,0.12,0.29,0.22,0.45,0.3c0.16,0.08,0.33,0.14,0.51,0.18c0.18,0.04,0.36,0.07,0.55,0.08c-0.09-0.08-0.18-0.17-0.26-0.27
		c-0.08-0.1-0.15-0.21-0.21-0.33c-0.06-0.12-0.11-0.25-0.14-0.39c-0.04-0.14-0.05-0.28-0.05-0.43c0-0.33,0.06-0.62,0.19-0.86
		c0.13-0.24,0.29-0.44,0.5-0.59c0.21-0.15,0.44-0.27,0.7-0.34c0.26-0.07,0.53-0.11,0.8-0.11c0.31,0,0.6,0.04,0.87,0.13
		c0.27,0.09,0.51,0.22,0.72,0.39c0.21,0.17,0.37,0.39,0.48,0.64c0.12,0.26,0.18,0.55,0.18,0.89c0,0.24-0.04,0.46-0.1,0.66
		s-0.17,0.38-0.28,0.54c-0.12,0.16-0.26,0.3-0.43,0.41s-0.34,0.22-0.53,0.29c-0.19,0.08-0.38,0.14-0.59,0.17
		c-0.2,0.04-0.41,0.06-0.61,0.06h-0.4c-0.3,0-0.61-0.02-0.91-0.06c-0.31-0.04-0.6-0.1-0.88-0.19c-0.28-0.09-0.54-0.21-0.79-0.37
		c-0.24-0.16-0.46-0.35-0.63-0.58s-0.32-0.52-0.42-0.84c-0.1-0.33-0.15-0.7-0.15-1.14V310.43z M198.33,311.53
		c0,0.14,0.02,0.28,0.07,0.41s0.11,0.26,0.19,0.37s0.18,0.22,0.3,0.31c0.12,0.09,0.24,0.16,0.38,0.21h0.28
		c0.29,0,0.55-0.04,0.78-0.1c0.23-0.07,0.42-0.16,0.57-0.28c0.16-0.12,0.27-0.25,0.35-0.41c0.08-0.15,0.12-0.32,0.12-0.49
		c0-0.2-0.04-0.37-0.11-0.52c-0.08-0.15-0.18-0.28-0.31-0.38c-0.13-0.1-0.29-0.18-0.48-0.24s-0.39-0.08-0.61-0.08
		c-0.19,0-0.38,0.02-0.57,0.07s-0.35,0.12-0.49,0.22c-0.14,0.1-0.26,0.23-0.34,0.38C198.37,311.15,198.33,311.33,198.33,311.53z"/>
	<path class="st7" d="M199.75,303.66v-0.92h0.69v0.92h1.54v0.84h-1.54v3.02h-0.5l-4.59-2.97v-0.9H199.75z M199.75,306.59v-2.09
		h-3.28l0.25,0.14L199.75,306.59z"/>
	<path class="st7" d="M195.82,296.41l6.16,2.75v0.88l-5.89-2.74v3.59h-0.74v-4.48H195.82z"/>
</g>
<line class="st9" x1="167.61" y1="447.45" x2="167.61" y2="368"/>
<g>
	<path class="st7" d="M167.62,356.17v-0.6c0-0.21-0.03-0.4-0.09-0.56s-0.14-0.3-0.24-0.41c-0.1-0.11-0.22-0.19-0.36-0.25
		s-0.29-0.09-0.46-0.09c-0.38,0-0.68,0.1-0.87,0.3c-0.2,0.2-0.29,0.49-0.29,0.87c0,0.18,0.03,0.34,0.08,0.49
		c0.05,0.15,0.13,0.27,0.23,0.38c0.1,0.1,0.22,0.19,0.36,0.24s0.3,0.09,0.47,0.09v0.85c-0.25,0-0.49-0.05-0.71-0.15
		c-0.22-0.1-0.42-0.24-0.58-0.42c-0.17-0.18-0.3-0.39-0.39-0.64c-0.1-0.25-0.14-0.53-0.14-0.83c0-0.3,0.04-0.57,0.12-0.82
		c0.08-0.25,0.2-0.46,0.36-0.63c0.16-0.18,0.35-0.31,0.59-0.41c0.23-0.1,0.5-0.15,0.81-0.15c0.13,0,0.26,0.02,0.4,0.06
		c0.14,0.04,0.27,0.1,0.4,0.18c0.13,0.08,0.25,0.19,0.36,0.32c0.11,0.13,0.21,0.28,0.29,0.46c0.07-0.22,0.16-0.4,0.27-0.54
		c0.11-0.14,0.24-0.26,0.38-0.35c0.14-0.09,0.29-0.15,0.44-0.18c0.15-0.04,0.31-0.05,0.46-0.05c0.31,0,0.58,0.05,0.82,0.16
		c0.24,0.11,0.44,0.25,0.61,0.44c0.17,0.19,0.29,0.41,0.38,0.67c0.09,0.26,0.13,0.53,0.13,0.83c0,0.29-0.04,0.57-0.12,0.82
		c-0.08,0.26-0.2,0.48-0.36,0.67c-0.16,0.19-0.35,0.34-0.58,0.45c-0.23,0.11-0.49,0.17-0.78,0.17v-0.84c0.17,0,0.33-0.03,0.47-0.09
		c0.14-0.06,0.26-0.14,0.36-0.25c0.1-0.11,0.18-0.24,0.23-0.4s0.08-0.33,0.08-0.52s-0.02-0.36-0.08-0.52
		c-0.05-0.16-0.13-0.29-0.23-0.4s-0.23-0.19-0.38-0.25c-0.15-0.06-0.33-0.09-0.54-0.09c-0.21,0-0.38,0.03-0.54,0.1
		s-0.28,0.16-0.38,0.29c-0.1,0.12-0.17,0.27-0.22,0.45c-0.05,0.17-0.07,0.37-0.07,0.58v0.6H167.62z"/>
	<path class="st7" d="M170.79,349.22c-0.09,0-0.18-0.01-0.25-0.04c-0.08-0.03-0.15-0.07-0.21-0.13c-0.06-0.05-0.11-0.12-0.14-0.2
		c-0.03-0.08-0.05-0.18-0.05-0.29s0.02-0.21,0.05-0.29c0.03-0.08,0.08-0.15,0.14-0.21c0.06-0.06,0.13-0.1,0.21-0.13
		c0.08-0.03,0.16-0.04,0.25-0.04c0.09,0,0.17,0.01,0.25,0.04c0.08,0.03,0.14,0.07,0.2,0.13c0.06,0.06,0.1,0.13,0.13,0.21
		c0.03,0.08,0.05,0.18,0.05,0.29s-0.02,0.21-0.05,0.29c-0.03,0.08-0.08,0.15-0.13,0.2s-0.12,0.1-0.2,0.13
		C170.96,349.21,170.88,349.22,170.79,349.22z"/>
	<path class="st7" d="M171.34,341.49v0.84h-5.55l0.66,1.73h-0.77l-0.96-2.51v-0.07H171.34z"/>
	<path class="st7" d="M170.59,336.86c0-0.3-0.03-0.56-0.08-0.79s-0.13-0.43-0.23-0.59c-0.1-0.17-0.21-0.31-0.34-0.42
		c-0.13-0.11-0.28-0.2-0.44-0.28c-0.16-0.07-0.33-0.12-0.51-0.16c-0.18-0.03-0.36-0.05-0.54-0.06c0.09,0.07,0.18,0.16,0.26,0.25
		c0.08,0.09,0.15,0.2,0.21,0.32c0.06,0.12,0.11,0.25,0.14,0.39c0.04,0.14,0.05,0.3,0.05,0.47c0,0.33-0.06,0.61-0.19,0.85
		s-0.3,0.43-0.51,0.59c-0.21,0.15-0.45,0.27-0.71,0.34c-0.26,0.07-0.53,0.11-0.8,0.11c-0.31,0-0.61-0.04-0.89-0.13
		c-0.28-0.09-0.52-0.22-0.73-0.39c-0.21-0.17-0.37-0.38-0.5-0.64s-0.18-0.55-0.18-0.89c0-0.25,0.04-0.48,0.11-0.69
		s0.17-0.39,0.3-0.54s0.27-0.29,0.45-0.4c0.17-0.11,0.36-0.2,0.55-0.28c0.2-0.07,0.41-0.12,0.62-0.16c0.22-0.03,0.43-0.05,0.65-0.05
		h0.3c0.28,0,0.57,0.01,0.87,0.04s0.58,0.08,0.86,0.16c0.28,0.08,0.54,0.19,0.78,0.34s0.46,0.33,0.64,0.57
		c0.18,0.23,0.33,0.52,0.43,0.85c0.11,0.33,0.16,0.73,0.16,1.19v0.09h-0.75V336.86z M168.42,335.85c0-0.14-0.02-0.28-0.07-0.42
		c-0.05-0.13-0.11-0.26-0.2-0.37c-0.09-0.11-0.19-0.21-0.3-0.3c-0.12-0.09-0.25-0.16-0.39-0.21h-0.27c-0.29,0-0.56,0.03-0.79,0.1
		s-0.43,0.16-0.58,0.28c-0.16,0.12-0.28,0.25-0.37,0.41s-0.13,0.32-0.13,0.49c0,0.2,0.04,0.37,0.12,0.52
		c0.08,0.15,0.19,0.28,0.33,0.38c0.14,0.11,0.3,0.18,0.49,0.24s0.39,0.08,0.61,0.08c0.19,0,0.38-0.02,0.57-0.07
		c0.19-0.05,0.35-0.12,0.5-0.22s0.26-0.22,0.35-0.37S168.42,336.05,168.42,335.85z"/>
	<path class="st7" d="M166.44,327.22c0.33,0,0.62,0.09,0.88,0.27c0.26,0.18,0.46,0.41,0.61,0.71c0.07-0.17,0.16-0.32,0.27-0.46
		c0.11-0.14,0.23-0.26,0.37-0.35s0.29-0.17,0.46-0.23c0.16-0.05,0.34-0.08,0.52-0.08c0.3,0,0.57,0.06,0.8,0.17
		c0.23,0.11,0.43,0.26,0.59,0.45s0.28,0.41,0.36,0.67s0.12,0.53,0.12,0.82c0,0.3-0.04,0.57-0.12,0.83c-0.08,0.26-0.2,0.48-0.36,0.67
		s-0.36,0.34-0.59,0.45s-0.5,0.16-0.81,0.16c-0.19,0-0.36-0.03-0.53-0.08c-0.17-0.05-0.32-0.13-0.46-0.22
		c-0.14-0.1-0.26-0.21-0.37-0.35c-0.11-0.14-0.2-0.29-0.27-0.46c-0.07,0.15-0.16,0.28-0.26,0.4s-0.22,0.22-0.34,0.3
		s-0.26,0.15-0.41,0.19c-0.15,0.05-0.3,0.07-0.47,0.07c-0.29,0-0.55-0.05-0.77-0.15c-0.23-0.1-0.42-0.23-0.57-0.4
		c-0.16-0.17-0.27-0.38-0.36-0.62s-0.12-0.5-0.12-0.78c0-0.28,0.04-0.54,0.12-0.78c0.08-0.24,0.2-0.45,0.36-0.62
		c0.15-0.18,0.34-0.31,0.57-0.41C165.89,327.27,166.15,327.22,166.44,327.22z M166.45,328.07c-0.17,0-0.32,0.03-0.46,0.08
		c-0.14,0.06-0.26,0.13-0.36,0.23c-0.1,0.1-0.18,0.22-0.24,0.35c-0.06,0.14-0.08,0.29-0.08,0.45s0.03,0.31,0.08,0.45
		c0.05,0.13,0.13,0.25,0.23,0.35c0.1,0.1,0.22,0.17,0.36,0.23c0.14,0.05,0.3,0.08,0.47,0.08s0.33-0.03,0.47-0.08
		c0.14-0.05,0.26-0.13,0.35-0.23s0.17-0.22,0.23-0.35c0.05-0.14,0.08-0.29,0.08-0.45c0-0.16-0.03-0.31-0.08-0.45
		c-0.05-0.14-0.13-0.25-0.23-0.35s-0.22-0.17-0.36-0.23C166.78,328.1,166.62,328.07,166.45,328.07z M169.53,327.92
		c-0.18,0-0.35,0.03-0.51,0.09c-0.15,0.06-0.29,0.15-0.4,0.26c-0.11,0.11-0.2,0.25-0.26,0.4s-0.09,0.33-0.09,0.51
		c0,0.19,0.03,0.36,0.09,0.52c0.06,0.15,0.15,0.29,0.26,0.4c0.11,0.11,0.24,0.19,0.4,0.25c0.16,0.06,0.33,0.09,0.51,0.09
		c0.19,0,0.36-0.03,0.51-0.09s0.28-0.14,0.38-0.25s0.18-0.24,0.24-0.4s0.08-0.33,0.08-0.53c0-0.19-0.03-0.36-0.08-0.51
		c-0.05-0.16-0.13-0.29-0.24-0.4c-0.1-0.11-0.23-0.2-0.38-0.26S169.72,327.92,169.53,327.92z"/>
</g>
<line class="st9" x1="136.09" y1="447.45" x2="136.09" y2="387"/>
<g>
	<path class="st7" d="M137.14,372.6v4.34h-0.61l-2.41-2.17c-0.21-0.19-0.41-0.36-0.57-0.49c-0.17-0.13-0.32-0.24-0.46-0.31
		c-0.14-0.08-0.27-0.13-0.4-0.17c-0.13-0.03-0.26-0.05-0.39-0.05c-0.16,0-0.32,0.03-0.46,0.08c-0.14,0.05-0.27,0.13-0.38,0.23
		s-0.19,0.22-0.25,0.37c-0.06,0.14-0.09,0.31-0.09,0.49c0,0.22,0.03,0.41,0.1,0.58s0.15,0.3,0.27,0.41
		c0.12,0.11,0.26,0.19,0.43,0.24c0.17,0.05,0.35,0.08,0.56,0.08v0.85c-0.28,0-0.54-0.05-0.79-0.15c-0.25-0.1-0.46-0.24-0.65-0.42
		c-0.18-0.18-0.33-0.41-0.44-0.67c-0.11-0.26-0.16-0.57-0.16-0.91c0-0.31,0.05-0.59,0.14-0.84c0.09-0.25,0.22-0.46,0.38-0.64
		c0.16-0.17,0.36-0.31,0.58-0.4c0.22-0.09,0.47-0.14,0.73-0.14c0.2,0,0.39,0.03,0.58,0.1c0.19,0.07,0.38,0.16,0.57,0.27
		c0.19,0.11,0.37,0.25,0.56,0.4s0.37,0.31,0.55,0.48l1.93,1.78v-3.33H137.14z"/>
	<path class="st7" d="M136.59,368.74c-0.09,0-0.18-0.01-0.25-0.04c-0.08-0.03-0.15-0.07-0.21-0.13c-0.06-0.05-0.11-0.12-0.14-0.2
		c-0.03-0.08-0.05-0.18-0.05-0.29s0.02-0.21,0.05-0.29c0.03-0.08,0.08-0.15,0.14-0.21c0.06-0.06,0.13-0.1,0.21-0.13
		c0.08-0.03,0.16-0.04,0.25-0.04c0.09,0,0.17,0.01,0.25,0.04c0.08,0.03,0.14,0.07,0.2,0.13c0.06,0.06,0.1,0.13,0.13,0.21
		c0.03,0.08,0.05,0.18,0.05,0.29s-0.02,0.21-0.05,0.29c-0.03,0.08-0.08,0.15-0.13,0.2s-0.12,0.1-0.2,0.13
		C136.76,368.73,136.68,368.74,136.59,368.74z"/>
	<path class="st7" d="M133.42,362.76v-0.6c0-0.21-0.03-0.4-0.09-0.56s-0.14-0.3-0.24-0.41c-0.1-0.11-0.22-0.19-0.36-0.25
		s-0.29-0.09-0.46-0.09c-0.38,0-0.68,0.1-0.87,0.3c-0.2,0.2-0.29,0.49-0.29,0.87c0,0.18,0.03,0.34,0.08,0.49
		c0.05,0.15,0.13,0.27,0.23,0.38c0.1,0.1,0.22,0.19,0.36,0.24s0.3,0.09,0.47,0.09v0.85c-0.25,0-0.49-0.05-0.71-0.15
		c-0.22-0.1-0.42-0.24-0.58-0.42c-0.17-0.18-0.3-0.39-0.39-0.64c-0.1-0.25-0.14-0.53-0.14-0.83c0-0.3,0.04-0.57,0.12-0.82
		c0.08-0.25,0.2-0.46,0.36-0.63c0.16-0.18,0.35-0.31,0.59-0.41c0.23-0.1,0.5-0.15,0.81-0.15c0.13,0,0.26,0.02,0.4,0.06
		c0.14,0.04,0.27,0.1,0.4,0.18c0.13,0.08,0.25,0.19,0.36,0.32c0.11,0.13,0.21,0.28,0.29,0.46c0.07-0.22,0.16-0.4,0.27-0.54
		c0.11-0.14,0.24-0.26,0.38-0.35c0.14-0.09,0.29-0.15,0.44-0.18c0.15-0.04,0.31-0.05,0.46-0.05c0.31,0,0.58,0.05,0.82,0.16
		c0.24,0.11,0.44,0.25,0.61,0.44c0.17,0.19,0.29,0.41,0.38,0.67c0.09,0.26,0.13,0.53,0.13,0.83c0,0.29-0.04,0.57-0.12,0.82
		c-0.08,0.26-0.2,0.48-0.36,0.67c-0.16,0.19-0.35,0.34-0.58,0.45c-0.23,0.11-0.49,0.17-0.78,0.17v-0.84c0.17,0,0.33-0.03,0.47-0.09
		c0.14-0.06,0.26-0.14,0.36-0.25c0.1-0.11,0.18-0.24,0.23-0.4s0.08-0.33,0.08-0.52s-0.02-0.36-0.08-0.52
		c-0.05-0.16-0.13-0.29-0.23-0.4s-0.23-0.19-0.38-0.25c-0.15-0.06-0.33-0.09-0.54-0.09c-0.21,0-0.38,0.03-0.54,0.1
		s-0.28,0.16-0.38,0.29c-0.1,0.12-0.17,0.27-0.22,0.45c-0.05,0.17-0.07,0.37-0.07,0.58v0.6H133.42z"/>
	<path class="st7" d="M133.81,356.98l-3.3-0.33v-3.4h0.82v2.69l1.77,0.19c-0.08-0.13-0.14-0.29-0.2-0.47
		c-0.06-0.18-0.09-0.39-0.09-0.63c0-0.31,0.05-0.58,0.16-0.82s0.26-0.45,0.45-0.62s0.43-0.3,0.7-0.39c0.27-0.09,0.58-0.14,0.91-0.14
		c0.32,0,0.61,0.04,0.88,0.13c0.27,0.08,0.5,0.21,0.7,0.38c0.2,0.17,0.35,0.39,0.46,0.65s0.17,0.57,0.17,0.92
		c0,0.27-0.04,0.52-0.11,0.76c-0.08,0.24-0.19,0.45-0.34,0.64c-0.15,0.19-0.34,0.34-0.57,0.46c-0.23,0.12-0.5,0.19-0.81,0.22v-0.8
		c0.38-0.05,0.66-0.19,0.86-0.42c0.19-0.23,0.29-0.52,0.29-0.87c0-0.2-0.04-0.38-0.11-0.53c-0.07-0.15-0.17-0.28-0.31-0.39
		c-0.13-0.11-0.29-0.18-0.48-0.24c-0.18-0.05-0.39-0.08-0.62-0.08c-0.21,0-0.4,0.03-0.58,0.09c-0.18,0.06-0.33,0.15-0.47,0.26
		c-0.13,0.11-0.24,0.25-0.31,0.41s-0.11,0.35-0.11,0.56c0,0.14,0.01,0.26,0.03,0.36s0.05,0.19,0.08,0.28s0.08,0.16,0.13,0.23
		s0.11,0.15,0.18,0.22L133.81,356.98z"/>
	<path class="st7" d="M130.5,347.72h0.76v0.07c0,0.28,0.03,0.53,0.09,0.75s0.14,0.41,0.24,0.58c0.1,0.17,0.22,0.31,0.36,0.43
		c0.14,0.12,0.29,0.22,0.45,0.3c0.16,0.08,0.33,0.14,0.51,0.18c0.18,0.04,0.36,0.07,0.55,0.08c-0.09-0.08-0.18-0.17-0.26-0.27
		c-0.08-0.1-0.15-0.21-0.21-0.33c-0.06-0.12-0.11-0.25-0.14-0.39c-0.04-0.14-0.05-0.28-0.05-0.43c0-0.33,0.06-0.62,0.19-0.86
		c0.13-0.24,0.29-0.44,0.5-0.59c0.21-0.15,0.44-0.27,0.7-0.34c0.26-0.07,0.53-0.11,0.8-0.11c0.31,0,0.6,0.04,0.87,0.13
		c0.27,0.09,0.51,0.22,0.72,0.39c0.21,0.17,0.37,0.39,0.48,0.64c0.12,0.26,0.18,0.55,0.18,0.89c0,0.24-0.04,0.46-0.1,0.66
		s-0.17,0.38-0.28,0.54c-0.12,0.16-0.26,0.3-0.43,0.41s-0.34,0.22-0.53,0.29c-0.19,0.08-0.38,0.14-0.59,0.17
		c-0.2,0.04-0.41,0.06-0.61,0.06h-0.4c-0.3,0-0.61-0.02-0.91-0.06c-0.31-0.04-0.6-0.1-0.88-0.19c-0.28-0.09-0.54-0.21-0.79-0.37
		c-0.24-0.16-0.46-0.35-0.63-0.58s-0.32-0.52-0.42-0.84c-0.1-0.33-0.15-0.7-0.15-1.14V347.72z M133.49,348.82
		c0,0.14,0.02,0.28,0.07,0.41s0.11,0.26,0.19,0.37s0.18,0.22,0.3,0.31c0.12,0.09,0.24,0.16,0.38,0.21h0.28
		c0.29,0,0.55-0.04,0.78-0.1c0.23-0.07,0.42-0.16,0.57-0.28c0.16-0.12,0.27-0.25,0.35-0.41c0.08-0.15,0.12-0.32,0.12-0.49
		c0-0.2-0.04-0.37-0.11-0.52c-0.08-0.15-0.18-0.28-0.31-0.38c-0.13-0.1-0.29-0.18-0.48-0.24s-0.39-0.08-0.61-0.08
		c-0.19,0-0.38,0.02-0.57,0.07s-0.35,0.12-0.49,0.22c-0.14,0.1-0.26,0.23-0.34,0.38C133.53,348.44,133.49,348.62,133.49,348.82z"/>
</g>
<line class="st9" x1="105.22" y1="447.45" x2="105.22" y2="391"/>
<g>
	<path class="st7" d="M107.94,375.76v4.34h-0.61l-2.41-2.17c-0.21-0.19-0.41-0.36-0.57-0.49c-0.17-0.13-0.32-0.24-0.46-0.31
		c-0.14-0.08-0.27-0.13-0.4-0.17c-0.13-0.03-0.26-0.05-0.39-0.05c-0.16,0-0.32,0.03-0.46,0.08c-0.14,0.05-0.27,0.13-0.38,0.23
		s-0.19,0.22-0.25,0.37c-0.06,0.14-0.09,0.31-0.09,0.49c0,0.22,0.03,0.41,0.1,0.58s0.15,0.3,0.27,0.41
		c0.12,0.11,0.26,0.19,0.43,0.24c0.17,0.05,0.35,0.08,0.56,0.08v0.85c-0.28,0-0.54-0.05-0.79-0.15c-0.25-0.1-0.46-0.24-0.65-0.42
		c-0.18-0.18-0.33-0.41-0.44-0.67c-0.11-0.26-0.16-0.57-0.16-0.91c0-0.31,0.05-0.59,0.14-0.84c0.09-0.25,0.22-0.46,0.38-0.64
		c0.16-0.17,0.36-0.31,0.58-0.4c0.22-0.09,0.47-0.14,0.73-0.14c0.2,0,0.39,0.03,0.58,0.1c0.19,0.07,0.38,0.16,0.57,0.27
		c0.19,0.11,0.37,0.25,0.56,0.4s0.37,0.31,0.55,0.48l1.93,1.78v-3.33H107.94z"/>
	<path class="st7" d="M107.4,371.9c-0.09,0-0.18-0.01-0.25-0.04c-0.08-0.03-0.15-0.07-0.21-0.13c-0.06-0.05-0.11-0.12-0.14-0.2
		c-0.03-0.08-0.05-0.18-0.05-0.29s0.02-0.21,0.05-0.29c0.03-0.08,0.08-0.15,0.14-0.21c0.06-0.06,0.13-0.1,0.21-0.13
		c0.08-0.03,0.16-0.04,0.25-0.04c0.09,0,0.17,0.01,0.25,0.04c0.08,0.03,0.14,0.07,0.2,0.13c0.06,0.06,0.1,0.13,0.13,0.21
		c0.03,0.08,0.05,0.18,0.05,0.29s-0.02,0.21-0.05,0.29c-0.03,0.08-0.08,0.15-0.13,0.2s-0.12,0.1-0.2,0.13
		C107.57,371.88,107.49,371.9,107.4,371.9z"/>
	<path class="st7" d="M107.94,362.83v4.34h-0.61l-2.41-2.17c-0.21-0.19-0.41-0.36-0.57-0.49c-0.17-0.13-0.32-0.24-0.46-0.31
		c-0.14-0.08-0.27-0.13-0.4-0.17c-0.13-0.03-0.26-0.05-0.39-0.05c-0.16,0-0.32,0.03-0.46,0.08c-0.14,0.05-0.27,0.13-0.38,0.23
		s-0.19,0.22-0.25,0.37c-0.06,0.14-0.09,0.31-0.09,0.49c0,0.22,0.03,0.41,0.1,0.58s0.15,0.3,0.27,0.41
		c0.12,0.11,0.26,0.19,0.43,0.24c0.17,0.05,0.35,0.08,0.56,0.08v0.85c-0.28,0-0.54-0.05-0.79-0.15c-0.25-0.1-0.46-0.24-0.65-0.42
		c-0.18-0.18-0.33-0.41-0.44-0.67c-0.11-0.26-0.16-0.57-0.16-0.91c0-0.31,0.05-0.59,0.14-0.84c0.09-0.25,0.22-0.46,0.38-0.64
		c0.16-0.17,0.36-0.31,0.58-0.4c0.22-0.09,0.47-0.14,0.73-0.14c0.2,0,0.39,0.03,0.58,0.1c0.19,0.07,0.38,0.16,0.57,0.27
		c0.19,0.11,0.37,0.25,0.56,0.4s0.37,0.31,0.55,0.48l1.93,1.78v-3.33H107.94z"/>
	<path class="st7" d="M104.62,360.14l-3.3-0.33v-3.4h0.82v2.69l1.77,0.19c-0.08-0.13-0.14-0.29-0.2-0.47
		c-0.06-0.18-0.09-0.39-0.09-0.63c0-0.31,0.05-0.58,0.16-0.82s0.26-0.45,0.45-0.62s0.43-0.3,0.7-0.39c0.27-0.09,0.58-0.14,0.91-0.14
		c0.32,0,0.61,0.04,0.88,0.13c0.27,0.08,0.5,0.21,0.7,0.38c0.2,0.17,0.35,0.39,0.46,0.65s0.17,0.57,0.17,0.92
		c0,0.27-0.04,0.52-0.11,0.76c-0.08,0.24-0.19,0.45-0.34,0.64c-0.15,0.19-0.34,0.34-0.57,0.46c-0.23,0.12-0.5,0.19-0.81,0.22v-0.8
		c0.38-0.05,0.66-0.19,0.86-0.42c0.19-0.23,0.29-0.52,0.29-0.87c0-0.2-0.04-0.38-0.11-0.53c-0.07-0.15-0.17-0.28-0.31-0.39
		c-0.13-0.11-0.29-0.18-0.48-0.24c-0.18-0.05-0.39-0.08-0.62-0.08c-0.21,0-0.4,0.03-0.58,0.09c-0.18,0.06-0.33,0.15-0.47,0.26
		c-0.13,0.11-0.24,0.25-0.31,0.41s-0.11,0.35-0.11,0.56c0,0.14,0.01,0.26,0.03,0.36s0.05,0.19,0.08,0.28s0.08,0.16,0.13,0.23
		s0.11,0.15,0.18,0.22L104.62,360.14z"/>
	<path class="st7" d="M105.72,350.56v-0.92h0.69v0.92h1.54v0.84h-1.54v3.02h-0.5l-4.59-2.97v-0.9H105.72z M105.72,353.49v-2.09
		h-3.28l0.25,0.14L105.72,353.49z"/>
</g>
<line class="st9" x1="73.86" y1="447.45" x2="73.86" y2="404"/>
<g>
	<path class="st7" d="M76.75,390.2v0.84h-5.55l0.66,1.73h-0.77l-0.96-2.51v-0.07H76.75z"/>
	<path class="st7" d="M76.2,385.01c-0.09,0-0.18-0.01-0.25-0.04c-0.08-0.03-0.15-0.07-0.21-0.13s-0.11-0.12-0.14-0.2
		c-0.03-0.08-0.05-0.18-0.05-0.29s0.02-0.21,0.05-0.29c0.03-0.08,0.08-0.15,0.14-0.21c0.06-0.06,0.13-0.1,0.21-0.13
		c0.08-0.03,0.16-0.04,0.25-0.04c0.09,0,0.17,0.01,0.25,0.04c0.08,0.03,0.14,0.07,0.2,0.13c0.06,0.06,0.1,0.13,0.13,0.21
		c0.03,0.08,0.05,0.18,0.05,0.29s-0.02,0.21-0.05,0.29c-0.03,0.08-0.08,0.15-0.13,0.2c-0.06,0.05-0.12,0.1-0.2,0.13
		C76.37,384.99,76.29,385.01,76.2,385.01z"/>
	<path class="st7" d="M70.11,376.91h0.76v0.07c0,0.28,0.03,0.53,0.09,0.75s0.14,0.41,0.24,0.58c0.1,0.17,0.22,0.31,0.36,0.43
		c0.14,0.12,0.29,0.22,0.45,0.3s0.34,0.14,0.51,0.18c0.18,0.04,0.36,0.07,0.55,0.08c-0.09-0.08-0.18-0.17-0.26-0.27
		s-0.15-0.21-0.21-0.33c-0.06-0.12-0.11-0.25-0.14-0.39c-0.03-0.14-0.05-0.28-0.05-0.43c0-0.33,0.06-0.62,0.19-0.86
		c0.13-0.24,0.29-0.44,0.5-0.59c0.21-0.15,0.44-0.27,0.7-0.34c0.26-0.07,0.53-0.11,0.8-0.11c0.31,0,0.6,0.04,0.87,0.13
		c0.27,0.09,0.51,0.22,0.72,0.39c0.21,0.17,0.37,0.39,0.49,0.64s0.18,0.55,0.18,0.89c0,0.24-0.03,0.46-0.1,0.66
		c-0.07,0.2-0.17,0.38-0.29,0.54c-0.12,0.16-0.26,0.3-0.43,0.41s-0.34,0.22-0.53,0.29c-0.19,0.08-0.38,0.14-0.59,0.17
		c-0.2,0.04-0.41,0.06-0.61,0.06h-0.4c-0.3,0-0.61-0.02-0.91-0.06c-0.31-0.04-0.6-0.1-0.88-0.19c-0.28-0.09-0.54-0.21-0.79-0.37
		c-0.24-0.16-0.46-0.35-0.63-0.58c-0.18-0.24-0.32-0.52-0.42-0.84c-0.1-0.33-0.15-0.7-0.15-1.14V376.91z M73.1,378.01
		c0,0.14,0.02,0.28,0.07,0.41c0.04,0.13,0.11,0.26,0.19,0.37c0.08,0.12,0.18,0.22,0.3,0.31c0.12,0.09,0.24,0.16,0.38,0.21h0.28
		c0.29,0,0.55-0.04,0.78-0.1c0.23-0.07,0.42-0.16,0.57-0.28c0.16-0.12,0.27-0.25,0.35-0.41c0.08-0.15,0.12-0.32,0.12-0.49
		c0-0.2-0.04-0.37-0.11-0.52c-0.08-0.15-0.18-0.28-0.31-0.38c-0.13-0.1-0.29-0.18-0.48-0.24c-0.19-0.05-0.39-0.08-0.61-0.08
		c-0.19,0-0.38,0.02-0.57,0.07s-0.35,0.12-0.49,0.22c-0.14,0.1-0.26,0.23-0.34,0.38C73.14,377.63,73.1,377.81,73.1,378.01z"/>
	<path class="st7" d="M73.03,372.57v-0.6c0-0.21-0.03-0.4-0.09-0.56c-0.06-0.16-0.14-0.3-0.24-0.41c-0.1-0.11-0.22-0.19-0.36-0.25
		c-0.14-0.06-0.29-0.09-0.46-0.09c-0.39,0-0.68,0.1-0.87,0.3s-0.29,0.49-0.29,0.87c0,0.18,0.03,0.34,0.08,0.49s0.13,0.27,0.23,0.38
		c0.1,0.1,0.22,0.19,0.36,0.24c0.14,0.06,0.3,0.09,0.47,0.09v0.85c-0.25,0-0.49-0.05-0.71-0.15c-0.22-0.1-0.42-0.24-0.58-0.42
		c-0.17-0.18-0.29-0.39-0.39-0.64c-0.1-0.25-0.14-0.53-0.14-0.83c0-0.3,0.04-0.57,0.12-0.82c0.08-0.25,0.2-0.46,0.36-0.63
		c0.16-0.18,0.35-0.31,0.59-0.41c0.23-0.1,0.5-0.15,0.81-0.15c0.13,0,0.26,0.02,0.4,0.06c0.14,0.04,0.27,0.1,0.4,0.18
		s0.25,0.19,0.36,0.32s0.21,0.28,0.28,0.46c0.07-0.22,0.16-0.4,0.27-0.54c0.11-0.14,0.24-0.26,0.38-0.35
		c0.14-0.09,0.29-0.15,0.44-0.18c0.15-0.04,0.31-0.05,0.46-0.05c0.31,0,0.58,0.05,0.82,0.16c0.24,0.11,0.44,0.25,0.61,0.44
		c0.17,0.19,0.29,0.41,0.38,0.67c0.09,0.26,0.13,0.53,0.13,0.83c0,0.29-0.04,0.57-0.12,0.82c-0.08,0.26-0.2,0.48-0.36,0.67
		c-0.16,0.19-0.35,0.34-0.58,0.45c-0.23,0.11-0.49,0.17-0.78,0.17v-0.84c0.17,0,0.33-0.03,0.47-0.09c0.14-0.06,0.26-0.14,0.36-0.25
		s0.18-0.24,0.23-0.4s0.08-0.33,0.08-0.52s-0.03-0.36-0.08-0.52c-0.05-0.16-0.13-0.29-0.23-0.4c-0.1-0.11-0.23-0.19-0.38-0.25
		c-0.15-0.06-0.33-0.09-0.54-0.09c-0.21,0-0.38,0.03-0.54,0.1s-0.28,0.16-0.38,0.29s-0.17,0.27-0.22,0.45
		c-0.05,0.17-0.07,0.37-0.07,0.58v0.6H73.03z"/>
	<path class="st7" d="M76.75,363.02v4.34h-0.61l-2.41-2.17c-0.22-0.19-0.41-0.36-0.57-0.49c-0.17-0.13-0.32-0.24-0.46-0.31
		c-0.14-0.08-0.27-0.13-0.4-0.17c-0.13-0.03-0.26-0.05-0.39-0.05c-0.16,0-0.32,0.03-0.46,0.08s-0.27,0.13-0.38,0.23
		c-0.11,0.1-0.19,0.22-0.25,0.37c-0.06,0.14-0.09,0.31-0.09,0.49c0,0.22,0.03,0.41,0.1,0.58c0.06,0.16,0.15,0.3,0.27,0.41
		c0.12,0.11,0.26,0.19,0.43,0.24c0.17,0.05,0.35,0.08,0.56,0.08v0.85c-0.28,0-0.54-0.05-0.79-0.15c-0.25-0.1-0.46-0.24-0.65-0.42
		s-0.33-0.41-0.44-0.67c-0.11-0.26-0.16-0.57-0.16-0.91c0-0.31,0.05-0.59,0.14-0.84c0.09-0.25,0.22-0.46,0.38-0.64
		c0.16-0.17,0.36-0.31,0.58-0.4c0.22-0.09,0.47-0.14,0.73-0.14c0.2,0,0.39,0.03,0.58,0.1s0.38,0.16,0.57,0.27
		c0.19,0.11,0.38,0.25,0.56,0.4s0.37,0.31,0.55,0.48l1.93,1.78v-3.33H76.75z"/>
</g>
<line class="st9" x1="42.82" y1="447.45" x2="42.82" y2="409"/>
<g>
	<path class="st7" d="M45.55,396.21v0.84h-5.55l0.66,1.73h-0.77l-0.97-2.51v-0.07H45.55z"/>
	<path class="st7" d="M45,391.01c-0.09,0-0.18-0.01-0.25-0.04c-0.08-0.03-0.15-0.07-0.21-0.13c-0.06-0.05-0.11-0.12-0.14-0.2
		c-0.03-0.08-0.05-0.18-0.05-0.29s0.02-0.21,0.05-0.29c0.03-0.08,0.08-0.15,0.14-0.21c0.06-0.06,0.13-0.1,0.21-0.13
		c0.08-0.03,0.16-0.04,0.25-0.04c0.09,0,0.17,0.01,0.25,0.04c0.08,0.03,0.15,0.07,0.2,0.13c0.06,0.06,0.1,0.13,0.13,0.21
		c0.03,0.08,0.05,0.18,0.05,0.29s-0.02,0.21-0.05,0.29c-0.03,0.08-0.08,0.15-0.13,0.2s-0.12,0.1-0.2,0.13
		C45.17,391,45.09,391.01,45,391.01z"/>
	<path class="st7" d="M38.92,382.91h0.76v0.07c0,0.28,0.03,0.53,0.09,0.75c0.06,0.22,0.14,0.41,0.24,0.58
		c0.1,0.17,0.22,0.31,0.36,0.43c0.14,0.12,0.29,0.22,0.45,0.3s0.34,0.14,0.52,0.18c0.18,0.04,0.36,0.07,0.54,0.08
		c-0.09-0.08-0.18-0.17-0.26-0.27c-0.08-0.1-0.15-0.21-0.21-0.33c-0.06-0.12-0.11-0.25-0.14-0.39c-0.04-0.14-0.05-0.28-0.05-0.43
		c0-0.33,0.06-0.62,0.19-0.86c0.12-0.24,0.29-0.44,0.5-0.59c0.21-0.15,0.44-0.27,0.7-0.34c0.26-0.07,0.53-0.11,0.8-0.11
		c0.31,0,0.6,0.04,0.87,0.13c0.27,0.09,0.51,0.22,0.72,0.39c0.2,0.17,0.37,0.39,0.49,0.64c0.12,0.26,0.18,0.55,0.18,0.89
		c0,0.24-0.03,0.46-0.1,0.66s-0.16,0.38-0.29,0.54c-0.12,0.16-0.26,0.3-0.42,0.41c-0.16,0.12-0.34,0.22-0.53,0.29
		c-0.19,0.08-0.38,0.14-0.59,0.17c-0.2,0.04-0.41,0.06-0.61,0.06h-0.4c-0.3,0-0.61-0.02-0.91-0.06c-0.3-0.04-0.6-0.1-0.88-0.19
		c-0.28-0.09-0.54-0.21-0.79-0.37c-0.24-0.16-0.46-0.35-0.63-0.58s-0.32-0.52-0.42-0.84c-0.1-0.33-0.15-0.7-0.15-1.14V382.91z
		 M41.9,384.01c0,0.14,0.02,0.28,0.07,0.41s0.11,0.26,0.19,0.37s0.18,0.22,0.29,0.31c0.12,0.09,0.24,0.16,0.38,0.21h0.28
		c0.29,0,0.55-0.04,0.78-0.1c0.23-0.07,0.42-0.16,0.57-0.28s0.27-0.25,0.35-0.41c0.08-0.15,0.12-0.32,0.12-0.49
		c0-0.2-0.04-0.37-0.11-0.52c-0.08-0.15-0.18-0.28-0.31-0.38c-0.13-0.1-0.29-0.18-0.48-0.24s-0.39-0.08-0.61-0.08
		c-0.19,0-0.38,0.02-0.57,0.07s-0.35,0.12-0.49,0.22c-0.14,0.1-0.26,0.23-0.34,0.38C41.95,383.63,41.9,383.81,41.9,384.01z"/>
	<path class="st7" d="M45.55,375.49v4.34h-0.61l-2.41-2.17c-0.22-0.19-0.41-0.36-0.57-0.49c-0.17-0.13-0.32-0.24-0.46-0.31
		s-0.27-0.13-0.4-0.17c-0.12-0.03-0.26-0.05-0.39-0.05c-0.16,0-0.32,0.03-0.46,0.08c-0.14,0.05-0.27,0.13-0.38,0.23
		c-0.11,0.1-0.19,0.22-0.25,0.37c-0.06,0.14-0.09,0.31-0.09,0.49c0,0.22,0.03,0.41,0.1,0.58c0.06,0.16,0.15,0.3,0.27,0.41
		c0.12,0.11,0.26,0.19,0.43,0.24c0.17,0.05,0.35,0.08,0.56,0.08v0.85c-0.28,0-0.54-0.05-0.79-0.15c-0.25-0.1-0.46-0.24-0.65-0.42
		c-0.19-0.18-0.33-0.41-0.44-0.67c-0.11-0.26-0.16-0.57-0.16-0.91c0-0.31,0.05-0.59,0.14-0.84c0.09-0.25,0.22-0.46,0.38-0.64
		c0.16-0.17,0.36-0.31,0.58-0.4c0.22-0.09,0.47-0.14,0.73-0.14c0.2,0,0.39,0.03,0.59,0.1c0.19,0.07,0.38,0.16,0.57,0.27
		c0.19,0.11,0.38,0.25,0.56,0.4s0.37,0.31,0.55,0.48l1.93,1.78v-3.33H45.55z"/>
	<path class="st7" d="M45.55,369.02v4.34h-0.61l-2.41-2.17c-0.22-0.19-0.41-0.36-0.57-0.49c-0.17-0.13-0.32-0.24-0.46-0.31
		s-0.27-0.13-0.4-0.17c-0.12-0.03-0.26-0.05-0.39-0.05c-0.16,0-0.32,0.03-0.46,0.08c-0.14,0.05-0.27,0.13-0.38,0.23
		c-0.11,0.1-0.19,0.22-0.25,0.37c-0.06,0.14-0.09,0.31-0.09,0.49c0,0.22,0.03,0.41,0.1,0.58c0.06,0.16,0.15,0.3,0.27,0.41
		c0.12,0.11,0.26,0.19,0.43,0.24c0.17,0.05,0.35,0.08,0.56,0.08v0.85c-0.28,0-0.54-0.05-0.79-0.15c-0.25-0.1-0.46-0.24-0.65-0.42
		c-0.19-0.18-0.33-0.41-0.44-0.67c-0.11-0.26-0.16-0.57-0.16-0.91c0-0.31,0.05-0.59,0.14-0.84c0.09-0.25,0.22-0.46,0.38-0.64
		c0.16-0.17,0.36-0.31,0.58-0.4c0.22-0.09,0.47-0.14,0.73-0.14c0.2,0,0.39,0.03,0.59,0.1c0.19,0.07,0.38,0.16,0.57,0.27
		c0.19,0.11,0.38,0.25,0.56,0.4s0.37,0.31,0.55,0.48l1.93,1.78v-3.33H45.55z"/>
</g>
<line class="st9" x1="11.63" y1="447.45" x2="11.63" y2="417"/>
<rect x="-7.68" y="-488" class="st2" width="323.14" height="1013.9"/>
<g>
	<path class="st7" d="M14.35,404.34v0.84H8.8l0.66,1.73H8.69l-0.96-2.51v-0.07H14.35z"/>
	<path class="st7" d="M13.81,399.14c-0.09,0-0.18-0.01-0.26-0.04c-0.08-0.03-0.15-0.07-0.21-0.13c-0.06-0.05-0.11-0.12-0.14-0.2
		c-0.03-0.08-0.05-0.18-0.05-0.29s0.02-0.21,0.05-0.29c0.03-0.08,0.08-0.15,0.14-0.21c0.06-0.06,0.13-0.1,0.21-0.13
		c0.08-0.03,0.16-0.04,0.26-0.04c0.09,0,0.17,0.01,0.25,0.04c0.08,0.03,0.14,0.07,0.2,0.13c0.06,0.06,0.1,0.13,0.13,0.21
		c0.03,0.08,0.05,0.18,0.05,0.29s-0.02,0.21-0.05,0.29c-0.03,0.08-0.08,0.15-0.13,0.2s-0.12,0.1-0.2,0.13
		C13.98,399.12,13.89,399.14,13.81,399.14z"/>
	<path class="st7" d="M14.35,390.08v4.34h-0.61l-2.41-2.17c-0.21-0.19-0.41-0.36-0.57-0.49c-0.17-0.13-0.32-0.24-0.46-0.31
		c-0.14-0.08-0.28-0.13-0.4-0.17c-0.13-0.03-0.26-0.05-0.39-0.05c-0.16,0-0.32,0.03-0.46,0.08s-0.27,0.13-0.38,0.23
		s-0.19,0.22-0.25,0.37c-0.06,0.14-0.09,0.31-0.09,0.49c0,0.22,0.03,0.41,0.1,0.58s0.15,0.3,0.27,0.41s0.26,0.19,0.43,0.24
		c0.17,0.05,0.35,0.08,0.56,0.08v0.85c-0.28,0-0.54-0.05-0.79-0.15c-0.25-0.1-0.46-0.24-0.65-0.42c-0.18-0.18-0.33-0.41-0.44-0.67
		c-0.11-0.26-0.16-0.57-0.16-0.91c0-0.31,0.05-0.59,0.14-0.84c0.09-0.25,0.22-0.46,0.38-0.64c0.16-0.17,0.36-0.31,0.58-0.4
		c0.22-0.09,0.47-0.14,0.73-0.14c0.2,0,0.39,0.03,0.58,0.1c0.19,0.07,0.38,0.16,0.57,0.27c0.19,0.11,0.37,0.25,0.56,0.4
		s0.37,0.31,0.55,0.48l1.93,1.78v-3.33H14.35z"/>
	<path class="st7" d="M7.72,384.58h0.76v0.07c0,0.28,0.03,0.53,0.09,0.75c0.06,0.22,0.14,0.41,0.24,0.58
		c0.1,0.17,0.22,0.31,0.36,0.43c0.14,0.12,0.29,0.22,0.45,0.3s0.33,0.14,0.51,0.18c0.18,0.04,0.36,0.07,0.55,0.08
		c-0.09-0.08-0.18-0.17-0.26-0.27s-0.15-0.21-0.21-0.33c-0.06-0.12-0.11-0.25-0.14-0.39c-0.03-0.14-0.05-0.28-0.05-0.43
		c0-0.33,0.06-0.62,0.19-0.86c0.13-0.24,0.29-0.44,0.5-0.59c0.21-0.15,0.44-0.27,0.7-0.34c0.26-0.07,0.53-0.11,0.8-0.11
		c0.31,0,0.6,0.04,0.88,0.13c0.27,0.09,0.51,0.22,0.72,0.39c0.21,0.17,0.37,0.39,0.48,0.64c0.12,0.26,0.18,0.55,0.18,0.89
		c0,0.24-0.04,0.46-0.1,0.66s-0.17,0.38-0.28,0.54c-0.12,0.16-0.26,0.3-0.43,0.41s-0.34,0.22-0.53,0.29
		c-0.19,0.08-0.38,0.14-0.59,0.17c-0.2,0.04-0.41,0.06-0.61,0.06h-0.4c-0.3,0-0.61-0.02-0.91-0.06c-0.31-0.04-0.6-0.1-0.88-0.19
		c-0.28-0.09-0.54-0.21-0.79-0.37c-0.25-0.16-0.46-0.35-0.64-0.58s-0.32-0.52-0.42-0.84c-0.1-0.33-0.16-0.7-0.16-1.14V384.58z
		 M10.71,385.68c0,0.14,0.02,0.28,0.07,0.41s0.11,0.26,0.19,0.37c0.08,0.12,0.18,0.22,0.3,0.31c0.12,0.09,0.24,0.16,0.38,0.21h0.28
		c0.29,0,0.55-0.04,0.78-0.1c0.23-0.07,0.42-0.16,0.57-0.28s0.27-0.25,0.35-0.41c0.08-0.15,0.12-0.32,0.12-0.49
		c0-0.2-0.04-0.37-0.11-0.52c-0.08-0.15-0.18-0.28-0.31-0.38c-0.13-0.1-0.29-0.18-0.48-0.24s-0.39-0.08-0.61-0.08
		c-0.19,0-0.38,0.02-0.57,0.07s-0.35,0.12-0.49,0.22c-0.14,0.1-0.26,0.23-0.34,0.38C10.75,385.3,10.71,385.48,10.71,385.68z"/>
	<path class="st7" d="M11.82,377.06c0.42,0,0.8,0.05,1.12,0.15c0.33,0.1,0.6,0.24,0.82,0.42c0.22,0.18,0.39,0.41,0.51,0.67
		c0.12,0.26,0.17,0.57,0.17,0.91c0,0.34-0.06,0.64-0.17,0.9c-0.12,0.27-0.28,0.49-0.51,0.68c-0.22,0.18-0.5,0.33-0.82,0.43
		s-0.7,0.15-1.12,0.15h-1.55c-0.42,0-0.8-0.05-1.12-0.15c-0.33-0.1-0.6-0.24-0.83-0.42s-0.4-0.41-0.51-0.67
		c-0.12-0.27-0.17-0.57-0.17-0.9c0-0.34,0.06-0.64,0.17-0.91c0.12-0.27,0.29-0.49,0.51-0.67c0.22-0.18,0.5-0.32,0.83-0.42
		c0.33-0.1,0.7-0.15,1.12-0.15H11.82z M11.65,380.5l-1.98-2.58c-0.44,0.05-0.77,0.18-1,0.38c-0.23,0.21-0.34,0.51-0.34,0.9
		c0,0.44,0.15,0.77,0.45,0.98s0.73,0.32,1.31,0.32H11.65z M10.47,377.91l1.97,2.58c0.43-0.05,0.75-0.18,0.98-0.4
		c0.22-0.21,0.34-0.51,0.34-0.89c0-0.45-0.15-0.77-0.46-0.98c-0.3-0.21-0.74-0.31-1.31-0.31H10.47z"/>
</g>
<rect x="-7.68" y="-488" class="st2" width="323.14" height="1013.9"/>
</svg>
