<?xml version="1.0" encoding="utf-8"?>
<!-- Generator: Adobe Illustrator 27.0.1, SVG Export Plug-In . SVG Version: 6.00 Build 0)  -->
<svg version="1.1" id="Capa_1" xmlns="http://www.w3.org/2000/svg" xmlns:xlink="http://www.w3.org/1999/xlink" x="0px" y="0px"
	 viewBox="0 0 311 708" style="enable-background:new 0 0 311 708;" xml:space="preserve">
<style type="text/css">
	.st0{opacity:0.5;}
	.st1{fill:none;}
	.st2{fill:none;stroke:#1D1D1B;stroke-width:0.25;stroke-linecap:round;stroke-linejoin:round;}
	.st3{opacity:0.35;}
	.st4{fill:none;stroke:#1D1D1B;stroke-width:0.25;stroke-linecap:round;stroke-linejoin:round;stroke-dasharray:0,0.751;}
	.st5{fill:none;stroke:#55A0B8;stroke-width:50;}
	.st6{fill:#55A0B8;}
	.st7{fill:#1D1D1B;}
	.st8{fill:none;stroke:#55A0B8;stroke-width:10;}
</style>
<g>
	<path class="st6" d="M16.07,676.29v0.86l-4.95,2.57l4.95,0.01v0.85H9.45v-0.86l4.94-2.57l-4.94-0.01v-0.85H16.07z"/>
	<path class="st6" d="M9.45,673.98v-4.01h0.73v1.59h5.17v-1.59h0.73v4.01h-0.73v-1.55h-5.17v1.55H9.45z"/>
	<path class="st6" d="M14.08,663.22c0.31,0.04,0.59,0.12,0.84,0.24c0.26,0.12,0.48,0.27,0.66,0.46c0.18,0.19,0.33,0.42,0.43,0.67
		c0.1,0.26,0.15,0.55,0.15,0.87c0,0.27-0.04,0.52-0.12,0.75c-0.08,0.22-0.18,0.42-0.32,0.6c-0.14,0.17-0.3,0.33-0.48,0.45
		s-0.39,0.23-0.61,0.31c-0.22,0.08-0.45,0.15-0.69,0.19s-0.48,0.06-0.73,0.07H12.3c-0.25,0-0.49-0.02-0.73-0.07s-0.47-0.1-0.69-0.19
		c-0.22-0.08-0.42-0.19-0.61-0.31s-0.35-0.28-0.49-0.45c-0.14-0.17-0.24-0.37-0.32-0.59c-0.08-0.22-0.12-0.47-0.12-0.75
		c0-0.33,0.05-0.63,0.15-0.89c0.1-0.26,0.25-0.49,0.43-0.67c0.19-0.19,0.41-0.34,0.67-0.45c0.26-0.11,0.55-0.19,0.86-0.23v0.84
		c-0.2,0.03-0.39,0.07-0.56,0.14c-0.17,0.07-0.32,0.16-0.46,0.27s-0.23,0.25-0.31,0.41s-0.11,0.35-0.11,0.58
		c0,0.2,0.03,0.38,0.1,0.53c0.07,0.15,0.15,0.29,0.27,0.4c0.11,0.11,0.24,0.2,0.39,0.28c0.15,0.08,0.31,0.13,0.47,0.18
		c0.17,0.04,0.34,0.08,0.51,0.1c0.17,0.02,0.34,0.03,0.51,0.03h0.93c0.16,0,0.33-0.01,0.51-0.03s0.35-0.05,0.51-0.1
		c0.17-0.05,0.33-0.11,0.48-0.18c0.15-0.07,0.28-0.17,0.39-0.28c0.11-0.11,0.2-0.24,0.27-0.4c0.06-0.15,0.1-0.33,0.1-0.53
		c0-0.22-0.04-0.41-0.11-0.58c-0.07-0.16-0.17-0.3-0.29-0.41c-0.13-0.11-0.28-0.2-0.45-0.27c-0.17-0.07-0.36-0.11-0.56-0.14V663.22z
		"/>
	<path class="st6" d="M14.36,657.89v2.21l1.72,0.53v0.84l-6.63-2.14v-0.71l6.63-2.1v0.84L14.36,657.89z M13.62,659.88v-1.76
		l-2.88,0.87L13.62,659.88z"/>
	<path class="st6" d="M13.37,652.4v1.32h2.71v0.84H9.45v-1.94c0.01-0.31,0.05-0.6,0.13-0.87c0.08-0.27,0.2-0.51,0.37-0.72
		c0.16-0.2,0.37-0.37,0.62-0.48c0.25-0.12,0.54-0.17,0.87-0.17c0.22,0,0.41,0.03,0.59,0.09c0.18,0.06,0.34,0.15,0.49,0.26
		s0.28,0.24,0.39,0.39c0.11,0.15,0.21,0.32,0.29,0.5l2.83-1.41l0.05,0v0.89L13.37,652.4z M12.68,653.72v-1.13
		c0-0.19-0.03-0.37-0.09-0.53s-0.14-0.31-0.24-0.44c-0.11-0.13-0.24-0.23-0.39-0.3c-0.15-0.07-0.33-0.11-0.53-0.11
		c-0.21,0-0.4,0.04-0.56,0.1c-0.16,0.07-0.29,0.17-0.4,0.29c-0.11,0.12-0.19,0.27-0.24,0.44c-0.05,0.17-0.08,0.36-0.09,0.56v1.11
		H12.68z"/>
	<path class="st6" d="M14.36,644.97v2.21l1.72,0.53v0.84l-6.63-2.14v-0.71l6.63-2.1v0.84L14.36,644.97z M13.62,646.95v-1.76
		l-2.88,0.87L13.62,646.95z"/>
	<path class="st6" d="M15.2,637.38c0.33,0.28,0.57,0.6,0.73,0.96s0.24,0.76,0.23,1.19c0,0.27-0.04,0.52-0.12,0.75
		c-0.08,0.23-0.19,0.44-0.33,0.62c-0.14,0.18-0.31,0.34-0.5,0.48c-0.19,0.14-0.4,0.25-0.62,0.34c-0.22,0.09-0.46,0.16-0.7,0.21
		S13.4,642,13.15,642h-0.77c-0.25,0-0.49-0.03-0.73-0.07c-0.25-0.04-0.48-0.1-0.7-0.19s-0.43-0.19-0.63-0.32
		c-0.19-0.13-0.36-0.28-0.5-0.46c-0.14-0.18-0.25-0.38-0.34-0.6c-0.08-0.22-0.12-0.48-0.12-0.76c0-0.31,0.05-0.59,0.14-0.86
		s0.23-0.49,0.41-0.68c0.18-0.19,0.39-0.35,0.64-0.47c0.25-0.12,0.53-0.19,0.84-0.22v0.83c-0.19,0.03-0.37,0.08-0.53,0.15
		c-0.16,0.07-0.3,0.16-0.42,0.28c-0.12,0.11-0.21,0.25-0.27,0.41c-0.07,0.16-0.1,0.34-0.1,0.55c0,0.2,0.03,0.38,0.1,0.53
		c0.07,0.16,0.16,0.29,0.28,0.41s0.25,0.21,0.4,0.29c0.15,0.08,0.32,0.14,0.49,0.19s0.34,0.08,0.52,0.1
		c0.18,0.02,0.35,0.03,0.51,0.03h0.78c0.17,0,0.34-0.02,0.52-0.04c0.18-0.03,0.35-0.07,0.52-0.12s0.33-0.12,0.48-0.21
		c0.15-0.08,0.29-0.19,0.4-0.31c0.12-0.12,0.21-0.26,0.28-0.42c0.07-0.16,0.1-0.34,0.11-0.54c0-0.12,0-0.24-0.01-0.36
		s-0.04-0.25-0.07-0.37c-0.04-0.12-0.09-0.23-0.15-0.33c-0.06-0.1-0.14-0.19-0.24-0.26l-1.49-0.01v1.35h-0.71v-2.15L15.2,637.38z"/>
	<path class="st6" d="M9.45,631.04l4.49-0.01c0.31,0.01,0.6,0.06,0.87,0.17s0.51,0.25,0.71,0.45c0.2,0.19,0.36,0.42,0.48,0.68
		c0.12,0.26,0.17,0.55,0.17,0.87c0,0.32-0.06,0.61-0.17,0.88c-0.12,0.26-0.27,0.49-0.48,0.68c-0.2,0.19-0.44,0.33-0.71,0.44
		c-0.27,0.11-0.56,0.16-0.87,0.16l-4.49-0.01v-0.8l4.49-0.02c0.2,0,0.39-0.03,0.57-0.09s0.34-0.14,0.48-0.25
		c0.14-0.11,0.25-0.25,0.34-0.41c0.09-0.17,0.13-0.36,0.13-0.57c0-0.22-0.04-0.41-0.13-0.57c-0.08-0.16-0.2-0.3-0.34-0.41
		c-0.14-0.11-0.3-0.2-0.49-0.25s-0.37-0.09-0.57-0.09l-4.49-0.01V631.04z"/>
	<path class="st6" d="M14.36,625.58v2.21l1.72,0.53v0.84l-6.63-2.14v-0.71l6.63-2.1v0.84L14.36,625.58z M13.62,627.56v-1.76
		l-2.88,0.87L13.62,627.56z"/>
</g>
<g>
	<path class="st6" d="M45.43,683.75v2.21l1.72,0.53v0.84l-6.63-2.14v-0.71l6.63-2.1v0.84L45.43,683.75z M44.7,685.73v-1.76
		l-2.88,0.87L44.7,685.73z"/>
	<path class="st6" d="M44.22,676.76v2.76h2.93v0.85h-6.63v-4.07h0.72v3.22h2.27v-2.76H44.22z"/>
	<path class="st6" d="M46.28,669.7c0.33,0.28,0.57,0.6,0.73,0.96s0.24,0.76,0.23,1.19c0,0.27-0.04,0.52-0.12,0.75
		c-0.08,0.23-0.19,0.44-0.33,0.62c-0.14,0.18-0.31,0.34-0.5,0.48c-0.19,0.14-0.4,0.25-0.62,0.34c-0.22,0.09-0.46,0.16-0.7,0.21
		c-0.24,0.05-0.49,0.07-0.74,0.08h-0.77c-0.25,0-0.49-0.03-0.74-0.07s-0.48-0.1-0.7-0.19s-0.43-0.19-0.63-0.32
		c-0.19-0.13-0.36-0.28-0.5-0.46c-0.14-0.18-0.25-0.38-0.33-0.6s-0.12-0.48-0.12-0.76c0-0.31,0.05-0.59,0.14-0.86
		c0.1-0.26,0.23-0.49,0.41-0.68s0.39-0.35,0.64-0.47c0.25-0.12,0.53-0.19,0.84-0.22v0.83c-0.19,0.03-0.37,0.08-0.53,0.15
		c-0.16,0.07-0.3,0.16-0.42,0.28c-0.12,0.11-0.21,0.25-0.27,0.41c-0.06,0.16-0.1,0.34-0.1,0.55c0,0.2,0.04,0.38,0.1,0.53
		c0.07,0.16,0.16,0.29,0.28,0.41c0.12,0.12,0.25,0.21,0.4,0.29c0.15,0.08,0.31,0.14,0.48,0.19s0.34,0.08,0.52,0.1
		s0.35,0.03,0.51,0.03h0.78c0.17,0,0.34-0.02,0.52-0.04c0.18-0.03,0.35-0.07,0.52-0.12s0.33-0.12,0.48-0.21
		c0.15-0.08,0.29-0.19,0.4-0.31s0.21-0.26,0.28-0.42c0.07-0.16,0.1-0.34,0.11-0.54c0-0.12,0-0.24-0.01-0.36s-0.04-0.25-0.07-0.37
		c-0.04-0.12-0.09-0.23-0.15-0.33s-0.14-0.19-0.24-0.26l-1.49-0.01v1.35h-0.71v-2.15L46.28,669.7z"/>
	<path class="st6" d="M45.43,664.36v2.21l1.72,0.53v0.84l-6.63-2.14v-0.71l6.63-2.1v0.84L45.43,664.36z M44.7,666.34v-1.76
		l-2.88,0.87L44.7,666.34z"/>
	<path class="st6" d="M47.15,656.91v0.86l-4.95,2.57l4.95,0.01v0.85h-6.63v-0.86l4.94-2.57l-4.94-0.01v-0.85H47.15z"/>
	<path class="st6" d="M40.52,654.6v-4.01h0.73v1.59h5.17v-1.59h0.73v4.01h-0.73v-1.55h-5.17v1.55H40.52z"/>
	<path class="st6" d="M45.47,644.67c-0.2,0-0.38,0.05-0.51,0.14c-0.14,0.09-0.26,0.21-0.35,0.36s-0.17,0.31-0.24,0.48
		c-0.06,0.17-0.12,0.34-0.17,0.5c-0.08,0.23-0.17,0.47-0.27,0.71c-0.11,0.24-0.24,0.46-0.39,0.66c-0.15,0.2-0.34,0.36-0.55,0.49
		c-0.21,0.13-0.46,0.19-0.74,0.19s-0.54-0.06-0.76-0.19s-0.42-0.29-0.57-0.49c-0.15-0.2-0.27-0.43-0.35-0.69
		c-0.08-0.26-0.12-0.52-0.12-0.78c0-0.29,0.05-0.57,0.14-0.83c0.1-0.27,0.23-0.5,0.4-0.71c0.17-0.21,0.38-0.37,0.63-0.5
		c0.25-0.12,0.52-0.19,0.82-0.2v0.86c-0.19,0.02-0.37,0.07-0.52,0.14c-0.16,0.07-0.29,0.16-0.4,0.28s-0.2,0.25-0.26,0.41
		s-0.09,0.34-0.09,0.54c0,0.16,0.02,0.32,0.07,0.47c0.05,0.15,0.11,0.29,0.21,0.41c0.09,0.12,0.2,0.21,0.34,0.29
		s0.29,0.11,0.46,0.11c0.19,0,0.35-0.05,0.49-0.15c0.13-0.09,0.24-0.21,0.33-0.36c0.09-0.14,0.17-0.3,0.23-0.47
		c0.06-0.17,0.12-0.33,0.16-0.48c0.05-0.16,0.11-0.33,0.18-0.5c0.06-0.17,0.14-0.33,0.22-0.48c0.08-0.15,0.18-0.3,0.29-0.43
		c0.11-0.13,0.23-0.25,0.36-0.35c0.13-0.1,0.28-0.18,0.45-0.23c0.16-0.06,0.34-0.08,0.54-0.08c0.3,0,0.56,0.07,0.78,0.2
		s0.41,0.3,0.55,0.51c0.15,0.21,0.26,0.45,0.33,0.71c0.07,0.26,0.11,0.53,0.11,0.79c0,0.29-0.05,0.58-0.14,0.86
		c-0.09,0.28-0.22,0.54-0.39,0.76c-0.17,0.22-0.38,0.41-0.63,0.54c-0.25,0.14-0.53,0.21-0.85,0.22v-0.86
		c0.21-0.03,0.39-0.08,0.55-0.17c0.16-0.08,0.29-0.19,0.41-0.33s0.19-0.29,0.25-0.46c0.06-0.17,0.08-0.37,0.08-0.57
		c0-0.16-0.02-0.33-0.06-0.49s-0.1-0.3-0.19-0.43c-0.09-0.12-0.2-0.23-0.33-0.3C45.81,644.71,45.65,644.67,45.47,644.67z"/>
	<path class="st6" d="M41.24,637.21v2.05h5.91v0.82h-5.91v2.05h-0.72v-4.92H41.24z"/>
	<path class="st6" d="M45.43,632.05v2.21l1.72,0.53v0.84l-6.63-2.14v-0.71l6.63-2.1v0.84L45.43,632.05z M44.7,634.03v-1.76
		l-2.88,0.87L44.7,634.03z"/>
	<path class="st6" d="M47.15,624.6v0.86l-4.95,2.57l4.95,0.01v0.85h-6.63v-0.86l4.94-2.57l-4.94-0.01v-0.85H47.15z"/>
</g>
<g>
	<path class="st6" d="M75.56,673.05h2.66v0.84h-6.63v-2.15c0.01-0.3,0.05-0.58,0.14-0.84s0.21-0.5,0.38-0.7s0.37-0.36,0.62-0.48
		c0.25-0.12,0.53-0.18,0.85-0.18s0.6,0.06,0.84,0.18s0.45,0.28,0.62,0.48c0.17,0.2,0.29,0.43,0.38,0.7s0.13,0.55,0.14,0.84V673.05z
		 M74.87,673.05v-1.31c0-0.19-0.04-0.37-0.09-0.54s-0.14-0.31-0.25-0.43c-0.11-0.12-0.24-0.22-0.4-0.28s-0.34-0.1-0.54-0.1
		c-0.2,0-0.38,0.03-0.54,0.1s-0.3,0.16-0.41,0.28c-0.11,0.12-0.2,0.26-0.26,0.43s-0.09,0.34-0.1,0.54v1.31H74.87z"/>
	<path class="st6" d="M76.51,664.34v2.21l1.72,0.53v0.84l-6.63-2.14v-0.71l6.63-2.1v0.84L76.51,664.34z M75.77,666.33v-1.76
		l-2.88,0.87L75.77,666.33z"/>
	<path class="st6" d="M75.15,659.46l0.84,0.74h2.24v0.86h-6.63v-0.86h3.24l-0.8-0.64l-2.44-1.94v-1.02l2.9,2.32l3.73-2.47v1.02
		L75.15,659.46z"/>
	<path class="st6" d="M71.59,654.58v-4.01h0.73v1.59h5.17v-1.59h0.73v4.01h-0.73v-1.55h-5.17v1.55H71.59z"/>
	<path class="st6" d="M76.55,644.65c-0.2,0-0.38,0.05-0.51,0.14c-0.14,0.09-0.26,0.21-0.35,0.36s-0.17,0.31-0.24,0.48
		c-0.06,0.17-0.12,0.34-0.17,0.5c-0.08,0.23-0.17,0.47-0.27,0.71c-0.11,0.24-0.24,0.46-0.39,0.66c-0.15,0.2-0.34,0.36-0.55,0.49
		c-0.21,0.13-0.46,0.19-0.74,0.19s-0.54-0.06-0.76-0.19s-0.42-0.29-0.57-0.49c-0.15-0.2-0.27-0.43-0.35-0.69
		c-0.08-0.26-0.12-0.52-0.12-0.78c0-0.29,0.05-0.57,0.14-0.83c0.1-0.27,0.23-0.5,0.4-0.71c0.17-0.21,0.38-0.37,0.63-0.5
		c0.25-0.12,0.52-0.19,0.82-0.2v0.86c-0.19,0.02-0.37,0.07-0.52,0.14c-0.16,0.07-0.29,0.16-0.4,0.28s-0.2,0.25-0.26,0.41
		s-0.09,0.34-0.09,0.54c0,0.16,0.02,0.32,0.07,0.47c0.05,0.15,0.11,0.29,0.21,0.41c0.09,0.12,0.2,0.21,0.34,0.29
		s0.29,0.11,0.46,0.11c0.19,0,0.35-0.05,0.49-0.15c0.13-0.09,0.24-0.21,0.33-0.36c0.09-0.14,0.17-0.3,0.23-0.47
		c0.06-0.17,0.12-0.33,0.16-0.48c0.05-0.16,0.11-0.33,0.18-0.5c0.06-0.17,0.14-0.33,0.22-0.48c0.08-0.15,0.18-0.3,0.29-0.43
		c0.11-0.13,0.23-0.25,0.36-0.35c0.13-0.1,0.28-0.18,0.45-0.23c0.16-0.06,0.34-0.08,0.54-0.08c0.3,0,0.56,0.07,0.78,0.2
		s0.41,0.3,0.55,0.51c0.15,0.21,0.26,0.45,0.33,0.71c0.07,0.26,0.11,0.53,0.11,0.79c0,0.29-0.05,0.58-0.14,0.86
		c-0.09,0.28-0.22,0.54-0.39,0.76c-0.17,0.22-0.38,0.41-0.63,0.54c-0.25,0.14-0.53,0.21-0.85,0.22v-0.86
		c0.21-0.03,0.39-0.08,0.55-0.17c0.16-0.08,0.29-0.19,0.41-0.33s0.19-0.29,0.25-0.46c0.06-0.17,0.08-0.37,0.08-0.57
		c0-0.16-0.02-0.33-0.06-0.49s-0.1-0.3-0.19-0.43c-0.09-0.12-0.2-0.23-0.33-0.3C76.89,644.69,76.73,644.65,76.55,644.65z"/>
	<path class="st6" d="M72.31,637.19v2.05h5.91v0.82h-5.91v2.05h-0.72v-4.92H72.31z"/>
	<path class="st6" d="M76.51,632.03v2.21l1.72,0.53v0.84l-6.63-2.14v-0.71l6.63-2.1v0.84L76.51,632.03z M75.77,634.02v-1.76
		l-2.88,0.87L75.77,634.02z"/>
	<path class="st6" d="M78.22,624.58v0.86l-4.95,2.57l4.95,0.01v0.85h-6.63v-0.86l4.94-2.57l-4.94-0.01v-0.85H78.22z"/>
</g>
<g>
	<path class="st6" d="M109.3,669.81v0.8h-3.06v2.72h3.06v0.79h-6.63v-0.79h2.85v-2.72h-2.85v-0.8H109.3z"/>
	<path class="st6" d="M106.37,663.2c0.24,0,0.48,0.02,0.72,0.06s0.47,0.1,0.7,0.18c0.22,0.08,0.43,0.18,0.63,0.3
		s0.36,0.27,0.51,0.44c0.15,0.17,0.26,0.36,0.34,0.58c0.08,0.22,0.12,0.47,0.12,0.74s-0.04,0.52-0.12,0.74
		c-0.08,0.22-0.2,0.42-0.34,0.58s-0.32,0.32-0.51,0.44c-0.2,0.12-0.41,0.23-0.63,0.31c-0.22,0.08-0.46,0.14-0.7,0.18
		c-0.24,0.04-0.48,0.06-0.71,0.06h-0.76c-0.24,0-0.48-0.02-0.72-0.06s-0.47-0.1-0.7-0.18c-0.22-0.08-0.43-0.18-0.63-0.3
		c-0.2-0.12-0.37-0.27-0.51-0.44s-0.26-0.37-0.35-0.58c-0.08-0.22-0.13-0.47-0.13-0.74c0-0.27,0.04-0.52,0.13-0.74
		c0.08-0.22,0.2-0.42,0.34-0.59c0.15-0.17,0.32-0.32,0.51-0.44c0.2-0.12,0.41-0.22,0.63-0.3s0.46-0.14,0.7-0.18
		c0.24-0.04,0.48-0.06,0.72-0.06H106.37z M105.6,664.03c-0.16,0-0.32,0.01-0.49,0.03s-0.34,0.05-0.51,0.09
		c-0.17,0.04-0.33,0.1-0.48,0.17s-0.29,0.16-0.41,0.27c-0.12,0.11-0.21,0.24-0.28,0.39s-0.1,0.32-0.1,0.52
		c0,0.19,0.03,0.37,0.1,0.51c0.07,0.15,0.16,0.28,0.28,0.39c0.12,0.11,0.25,0.2,0.41,0.27c0.15,0.07,0.31,0.13,0.48,0.18
		c0.17,0.04,0.34,0.08,0.51,0.09c0.17,0.02,0.33,0.03,0.49,0.03h0.76c0.15,0,0.32-0.01,0.49-0.03c0.17-0.02,0.34-0.05,0.51-0.1
		c0.17-0.04,0.33-0.1,0.48-0.18c0.16-0.07,0.29-0.16,0.41-0.27c0.12-0.11,0.21-0.24,0.28-0.39c0.07-0.15,0.1-0.32,0.1-0.52
		s-0.03-0.37-0.1-0.52c-0.07-0.15-0.16-0.28-0.28-0.39c-0.12-0.11-0.25-0.2-0.4-0.27s-0.31-0.13-0.48-0.17
		c-0.17-0.04-0.34-0.07-0.51-0.09s-0.34-0.03-0.5-0.03H105.6z"/>
	<path class="st6" d="M109.3,656.89v0.86l-4.95,2.57l4.95,0.01v0.85h-6.63v-0.86l4.94-2.57l-4.94-0.01v-0.85H109.3z"/>
	<path class="st6" d="M109.3,654.67h-6.63v-1.53c0.01-0.46,0.08-0.87,0.23-1.24c0.15-0.36,0.36-0.67,0.63-0.92
		c0.27-0.25,0.59-0.44,0.96-0.57s0.79-0.2,1.25-0.2h0.49c0.46,0,0.87,0.07,1.25,0.2s0.7,0.32,0.96,0.57
		c0.27,0.25,0.48,0.56,0.63,0.92c0.15,0.36,0.23,0.77,0.23,1.24V654.67z M103.36,653.81h5.25v-0.68c0-0.36-0.07-0.67-0.19-0.93
		c-0.12-0.26-0.29-0.48-0.5-0.65c-0.21-0.17-0.46-0.3-0.75-0.38c-0.29-0.08-0.6-0.13-0.94-0.13h-0.5c-0.34,0-0.65,0.05-0.94,0.13
		s-0.54,0.21-0.75,0.38c-0.21,0.17-0.38,0.39-0.5,0.65c-0.12,0.26-0.19,0.57-0.19,0.93V653.81z"/>
	<path class="st6" d="M102.67,643.96l4.49-0.01c0.31,0.01,0.6,0.06,0.87,0.17c0.27,0.11,0.51,0.25,0.71,0.45
		c0.2,0.19,0.36,0.42,0.48,0.68c0.12,0.26,0.17,0.55,0.17,0.87c0,0.32-0.06,0.61-0.17,0.88c-0.12,0.26-0.27,0.49-0.48,0.68
		s-0.44,0.33-0.71,0.44s-0.56,0.16-0.87,0.16l-4.49-0.01v-0.8l4.49-0.02c0.2,0,0.39-0.03,0.57-0.09c0.18-0.06,0.34-0.14,0.48-0.25
		s0.25-0.25,0.34-0.41c0.08-0.17,0.13-0.36,0.13-0.57c0-0.22-0.04-0.41-0.12-0.57c-0.08-0.16-0.2-0.3-0.34-0.41
		c-0.14-0.11-0.3-0.2-0.48-0.25c-0.18-0.06-0.37-0.09-0.57-0.09l-4.49-0.01V643.96z"/>
	<path class="st6" d="M106.59,639.46v1.32h2.7v0.84h-6.63v-1.94c0.01-0.31,0.05-0.6,0.13-0.87c0.08-0.27,0.21-0.51,0.37-0.72
		c0.16-0.2,0.37-0.37,0.62-0.48c0.25-0.12,0.54-0.17,0.87-0.17c0.21,0,0.41,0.03,0.59,0.09c0.18,0.06,0.34,0.15,0.49,0.26
		c0.15,0.11,0.27,0.24,0.39,0.39c0.11,0.15,0.21,0.32,0.29,0.5l2.83-1.41l0.05,0v0.89L106.59,639.46z M105.9,640.79v-1.13
		c0-0.19-0.03-0.37-0.09-0.53c-0.06-0.17-0.14-0.31-0.24-0.44s-0.24-0.23-0.39-0.3c-0.15-0.07-0.33-0.11-0.53-0.11
		c-0.21,0-0.4,0.04-0.56,0.1c-0.16,0.07-0.29,0.17-0.4,0.29c-0.11,0.12-0.19,0.27-0.24,0.44s-0.08,0.36-0.09,0.56v1.11H105.9z"/>
	<path class="st6" d="M106.24,631.55v2.77h2.35v-3.23h0.71v4.07h-6.63v-4.03h0.72v3.19h2.13v-2.77H106.24z"/>
	<path class="st6" d="M107.62,625.27c-0.2,0-0.37,0.05-0.51,0.14s-0.26,0.21-0.35,0.36c-0.09,0.15-0.17,0.31-0.24,0.48
		c-0.06,0.17-0.12,0.34-0.17,0.5c-0.08,0.23-0.17,0.47-0.27,0.71s-0.24,0.46-0.39,0.66c-0.16,0.2-0.34,0.36-0.55,0.49
		s-0.46,0.19-0.74,0.19s-0.54-0.06-0.76-0.19s-0.41-0.29-0.57-0.49c-0.15-0.2-0.27-0.43-0.35-0.69s-0.12-0.52-0.12-0.78
		c0-0.29,0.05-0.57,0.14-0.83c0.1-0.27,0.23-0.5,0.4-0.71c0.17-0.21,0.38-0.37,0.63-0.5c0.25-0.12,0.52-0.19,0.82-0.2v0.86
		c-0.19,0.02-0.37,0.07-0.52,0.14c-0.16,0.07-0.29,0.16-0.4,0.28c-0.11,0.12-0.2,0.25-0.26,0.41c-0.06,0.16-0.09,0.34-0.09,0.54
		c0,0.16,0.02,0.32,0.07,0.47c0.04,0.15,0.11,0.29,0.21,0.41c0.09,0.12,0.2,0.21,0.34,0.29c0.13,0.07,0.29,0.11,0.46,0.11
		c0.19,0,0.35-0.05,0.49-0.15c0.13-0.09,0.24-0.21,0.33-0.36c0.09-0.14,0.17-0.3,0.23-0.47c0.06-0.17,0.11-0.33,0.16-0.48
		c0.05-0.16,0.11-0.33,0.18-0.5s0.14-0.33,0.23-0.48c0.08-0.15,0.18-0.3,0.29-0.43c0.11-0.13,0.23-0.25,0.36-0.35
		c0.13-0.1,0.28-0.18,0.45-0.23c0.16-0.06,0.34-0.08,0.54-0.08c0.3,0,0.56,0.07,0.78,0.2c0.22,0.13,0.41,0.3,0.55,0.51
		c0.15,0.21,0.26,0.45,0.33,0.71c0.07,0.26,0.11,0.53,0.11,0.79c0,0.29-0.04,0.58-0.14,0.86c-0.09,0.28-0.22,0.54-0.39,0.76
		c-0.17,0.22-0.38,0.41-0.63,0.54c-0.25,0.14-0.53,0.21-0.84,0.22v-0.86c0.21-0.03,0.39-0.08,0.55-0.17s0.29-0.19,0.41-0.33
		c0.11-0.13,0.19-0.29,0.25-0.46c0.06-0.17,0.08-0.37,0.08-0.57c0-0.16-0.02-0.33-0.06-0.49s-0.1-0.3-0.19-0.43
		c-0.09-0.12-0.2-0.23-0.33-0.3S107.81,625.27,107.62,625.27z"/>
</g>
<g>
	<path class="st6" d="M137.71,647.17h2.66v0.84h-6.63v-2.15c0.01-0.3,0.05-0.58,0.14-0.84s0.22-0.5,0.38-0.7s0.37-0.36,0.62-0.48
		c0.25-0.12,0.53-0.18,0.85-0.18c0.32,0,0.6,0.06,0.84,0.18c0.25,0.12,0.45,0.28,0.62,0.48s0.29,0.43,0.38,0.7s0.13,0.55,0.14,0.84
		V647.17z M137.02,647.17v-1.31c0-0.19-0.03-0.37-0.09-0.54c-0.06-0.16-0.14-0.31-0.25-0.43s-0.24-0.22-0.4-0.28s-0.33-0.1-0.54-0.1
		s-0.38,0.03-0.54,0.1c-0.16,0.07-0.3,0.16-0.41,0.28c-0.11,0.12-0.2,0.26-0.26,0.43s-0.09,0.34-0.1,0.54v1.31H137.02z"/>
	<path class="st6" d="M137.31,637.98v2.77h2.35v-3.23h0.71v4.07h-6.63v-4.03h0.72v3.19h2.13v-2.77H137.31z"/>
	<path class="st6" d="M137.67,632.97v1.32h2.7v0.84h-6.63v-1.94c0.01-0.31,0.05-0.6,0.13-0.87c0.08-0.27,0.21-0.51,0.37-0.72
		c0.16-0.2,0.37-0.37,0.62-0.48c0.25-0.12,0.54-0.17,0.87-0.17c0.21,0,0.41,0.03,0.59,0.09c0.18,0.06,0.34,0.15,0.49,0.26
		c0.15,0.11,0.27,0.24,0.39,0.39c0.11,0.15,0.21,0.32,0.29,0.5l2.83-1.41l0.05,0v0.89L137.67,632.97z M136.98,634.29v-1.13
		c0-0.19-0.03-0.37-0.09-0.53c-0.06-0.17-0.14-0.31-0.24-0.44s-0.24-0.23-0.39-0.3c-0.15-0.07-0.33-0.11-0.53-0.11
		c-0.21,0-0.4,0.04-0.56,0.1c-0.16,0.07-0.29,0.17-0.4,0.29c-0.11,0.12-0.19,0.27-0.24,0.44s-0.08,0.36-0.09,0.56v1.11H136.98z"/>
	<path class="st6" d="M132.12,626.05v-1.02l1.21,1.22v0.64L132.12,626.05z M133.75,624.54l4.49-0.01c0.31,0.01,0.6,0.06,0.87,0.17
		c0.27,0.11,0.51,0.25,0.71,0.45c0.2,0.19,0.36,0.42,0.48,0.68c0.12,0.26,0.17,0.55,0.17,0.87c0,0.32-0.06,0.61-0.17,0.88
		c-0.12,0.26-0.27,0.49-0.48,0.68s-0.44,0.33-0.71,0.44s-0.56,0.16-0.87,0.16l-4.49-0.01v-0.8l4.49-0.02c0.2,0,0.39-0.03,0.57-0.09
		c0.18-0.06,0.34-0.14,0.48-0.25s0.25-0.25,0.34-0.41c0.08-0.17,0.13-0.36,0.13-0.57c0-0.22-0.04-0.41-0.12-0.57
		c-0.08-0.16-0.2-0.3-0.34-0.41c-0.14-0.11-0.3-0.2-0.48-0.25c-0.18-0.06-0.37-0.09-0.57-0.09l-4.49-0.01V624.54z"/>
</g>
<g>
	<path class="st6" d="M169.77,664.03c-0.2,0-0.37,0.05-0.51,0.14s-0.26,0.21-0.35,0.36c-0.09,0.15-0.17,0.31-0.24,0.48
		c-0.06,0.17-0.12,0.34-0.17,0.5c-0.08,0.23-0.17,0.47-0.27,0.71s-0.24,0.46-0.39,0.66c-0.16,0.2-0.34,0.36-0.55,0.49
		s-0.46,0.19-0.74,0.19s-0.54-0.06-0.76-0.19s-0.41-0.29-0.57-0.49c-0.15-0.2-0.27-0.43-0.35-0.69s-0.12-0.52-0.12-0.78
		c0-0.29,0.05-0.57,0.14-0.83c0.1-0.27,0.23-0.5,0.4-0.71c0.17-0.21,0.38-0.37,0.63-0.5c0.25-0.12,0.52-0.19,0.82-0.2v0.86
		c-0.19,0.02-0.37,0.07-0.52,0.14c-0.16,0.07-0.29,0.16-0.4,0.28c-0.11,0.12-0.2,0.25-0.26,0.41c-0.06,0.16-0.09,0.34-0.09,0.54
		c0,0.16,0.02,0.32,0.07,0.47c0.04,0.15,0.11,0.29,0.21,0.41c0.09,0.12,0.2,0.21,0.34,0.29c0.13,0.07,0.29,0.11,0.46,0.11
		c0.19,0,0.35-0.05,0.49-0.15c0.13-0.09,0.24-0.21,0.33-0.36c0.09-0.14,0.17-0.3,0.23-0.47c0.06-0.17,0.11-0.33,0.16-0.48
		c0.05-0.16,0.11-0.33,0.18-0.5s0.14-0.33,0.23-0.48c0.08-0.15,0.18-0.3,0.29-0.43c0.11-0.13,0.23-0.25,0.36-0.35
		c0.13-0.1,0.28-0.18,0.45-0.23c0.16-0.06,0.34-0.08,0.54-0.08c0.3,0,0.56,0.07,0.78,0.2c0.22,0.13,0.41,0.3,0.55,0.51
		c0.15,0.21,0.26,0.45,0.33,0.71c0.07,0.26,0.11,0.53,0.11,0.79c0,0.29-0.04,0.58-0.14,0.86c-0.09,0.28-0.22,0.54-0.39,0.76
		c-0.17,0.22-0.38,0.41-0.63,0.54c-0.25,0.14-0.53,0.21-0.84,0.22v-0.86c0.21-0.03,0.39-0.08,0.55-0.17s0.29-0.19,0.41-0.33
		c0.11-0.13,0.19-0.29,0.25-0.46c0.06-0.17,0.08-0.37,0.08-0.57c0-0.16-0.02-0.33-0.06-0.49s-0.1-0.3-0.19-0.43
		c-0.09-0.12-0.2-0.23-0.33-0.3S169.95,664.03,169.77,664.03z"/>
	<path class="st6" d="M168.38,657.39v2.77h2.35v-3.23h0.71V661h-6.63v-4.03h0.72v3.19h2.13v-2.77H168.38z"/>
	<path class="st6" d="M171.45,650.42v0.86l-4.95,2.57l4.95,0.01v0.85h-6.63v-0.86l4.94-2.57l-4.94-0.01v-0.85H171.45z"/>
	<path class="st6" d="M168.38,644.47v2.77h2.35v-3.23h0.71v4.07h-6.63v-4.03h0.72v3.19h2.13v-2.77H168.38z"/>
	<path class="st6" d="M170.58,637.36c0.33,0.28,0.57,0.6,0.73,0.96c0.16,0.36,0.24,0.76,0.23,1.19c0,0.27-0.04,0.52-0.12,0.75
		c-0.08,0.23-0.19,0.44-0.33,0.62c-0.14,0.18-0.31,0.34-0.5,0.48c-0.19,0.14-0.4,0.25-0.62,0.34c-0.22,0.09-0.46,0.16-0.7,0.21
		s-0.49,0.07-0.74,0.08h-0.77c-0.25,0-0.49-0.03-0.74-0.07s-0.48-0.1-0.7-0.19s-0.43-0.19-0.63-0.32c-0.19-0.13-0.36-0.28-0.5-0.46
		c-0.14-0.18-0.25-0.38-0.33-0.6s-0.12-0.48-0.12-0.76c0-0.31,0.05-0.59,0.14-0.86s0.23-0.49,0.41-0.68s0.39-0.35,0.64-0.47
		c0.25-0.12,0.53-0.19,0.84-0.22v0.83c-0.19,0.03-0.37,0.08-0.53,0.15c-0.16,0.07-0.3,0.16-0.42,0.28
		c-0.12,0.11-0.21,0.25-0.27,0.41c-0.07,0.16-0.1,0.34-0.1,0.55c0,0.2,0.03,0.38,0.1,0.53c0.07,0.16,0.16,0.29,0.28,0.41
		s0.25,0.21,0.4,0.29c0.15,0.08,0.32,0.14,0.49,0.19s0.34,0.08,0.52,0.1c0.18,0.02,0.35,0.03,0.51,0.03h0.78
		c0.17,0,0.34-0.02,0.52-0.04c0.18-0.03,0.35-0.07,0.52-0.12s0.33-0.12,0.48-0.21c0.15-0.08,0.29-0.19,0.4-0.31s0.21-0.26,0.28-0.42
		c0.07-0.16,0.1-0.34,0.11-0.54c0-0.12,0-0.24-0.01-0.36c-0.01-0.13-0.04-0.25-0.07-0.37c-0.04-0.12-0.09-0.23-0.15-0.33
		c-0.06-0.1-0.14-0.19-0.24-0.26l-1.49-0.01v1.35h-0.71v-2.15L170.58,637.36z"/>
	<path class="st6" d="M169.73,632.02v2.21l1.72,0.53v0.84l-6.63-2.14v-0.71l6.63-2.1v0.84L169.73,632.02z M169,634.01v-1.76
		l-2.88,0.87L169,634.01z"/>
	<path class="st6" d="M170.73,627.78v-3.24h0.71v4.08h-6.63v-0.84H170.73z"/>
</g>
<g>
	<path class="st6" d="M195.9,647.17l3.31-1.08l-3.31-1.17v-1.05h6.63v0.82h-2.64l-2.77-0.07l3.57,1.22v0.48l-3.47,1.12l2.67-0.07
		h2.64v0.82h-6.63V647.17z"/>
	<path class="st6" d="M200.81,638.46v2.21l1.72,0.53v0.84l-6.63-2.14v-0.71l6.63-2.1v0.84L200.81,638.46z M200.07,640.45v-1.76
		l-2.88,0.87L200.07,640.45z"/>
	<path class="st6" d="M201.81,634.21v-3.24h0.71v4.08h-6.63v-0.84H201.81z"/>
	<path class="st6" d="M195.9,628.7v-4.01h0.73v1.59h5.17v-1.59h0.73v4.01h-0.73v-1.55h-5.17v1.55H195.9z"/>
</g>
<g>
	<path class="st6" d="M226.97,679.52l3.31-1.08l-3.31-1.17v-1.05h6.63v0.82h-2.64l-2.77-0.07l3.57,1.22v0.48l-3.47,1.12l2.67-0.07
		h2.64v0.82h-6.63V679.52z"/>
	<path class="st6" d="M231.88,670.82v2.21l1.72,0.53v0.84l-6.63-2.14v-0.71l6.63-2.1v0.84L231.88,670.82z M231.15,672.8v-1.76
		l-2.88,0.87L231.15,672.8z"/>
	<path class="st6" d="M230.89,665.32v1.32h2.7v0.84h-6.63v-1.94c0.01-0.31,0.05-0.6,0.13-0.87c0.08-0.27,0.21-0.51,0.37-0.72
		c0.16-0.2,0.37-0.37,0.62-0.48c0.25-0.12,0.54-0.17,0.87-0.17c0.21,0,0.41,0.03,0.59,0.09c0.18,0.06,0.34,0.15,0.49,0.26
		c0.15,0.11,0.27,0.24,0.39,0.39c0.11,0.15,0.21,0.32,0.29,0.5l2.83-1.41l0.05,0v0.89L230.89,665.32z M230.2,666.65v-1.13
		c0-0.19-0.03-0.37-0.09-0.53c-0.06-0.17-0.14-0.31-0.24-0.44s-0.24-0.23-0.39-0.3c-0.15-0.07-0.33-0.11-0.53-0.11
		c-0.21,0-0.4,0.04-0.56,0.1c-0.16,0.07-0.29,0.17-0.4,0.29c-0.11,0.12-0.19,0.27-0.24,0.44s-0.08,0.36-0.09,0.56v1.11H230.2z"/>
	<path class="st6" d="M230.89,658.86v1.32h2.7v0.84h-6.63v-1.94c0.01-0.31,0.05-0.6,0.13-0.87c0.08-0.27,0.21-0.51,0.37-0.72
		c0.16-0.2,0.37-0.37,0.62-0.48c0.25-0.12,0.54-0.17,0.87-0.17c0.21,0,0.41,0.03,0.59,0.09c0.18,0.06,0.34,0.15,0.49,0.26
		c0.15,0.11,0.27,0.24,0.39,0.39c0.11,0.15,0.21,0.32,0.29,0.5l2.83-1.41l0.05,0v0.89L230.89,658.86z M230.2,660.19v-1.13
		c0-0.19-0.03-0.37-0.09-0.53c-0.06-0.17-0.14-0.31-0.24-0.44s-0.24-0.23-0.39-0.3c-0.15-0.07-0.33-0.11-0.53-0.11
		c-0.21,0-0.4,0.04-0.56,0.1c-0.16,0.07-0.29,0.17-0.4,0.29c-0.11,0.12-0.19,0.27-0.24,0.44s-0.08,0.36-0.09,0.56v1.11H230.2z"/>
	<path class="st6" d="M226.97,650.43l4.49-0.01c0.31,0.01,0.6,0.06,0.87,0.17c0.27,0.11,0.51,0.25,0.71,0.45
		c0.2,0.19,0.36,0.42,0.48,0.68c0.12,0.26,0.17,0.55,0.17,0.87c0,0.32-0.06,0.61-0.17,0.88c-0.12,0.26-0.27,0.49-0.48,0.68
		s-0.44,0.33-0.71,0.44s-0.56,0.16-0.87,0.16l-4.49-0.01v-0.8l4.49-0.02c0.2,0,0.39-0.03,0.57-0.09c0.18-0.06,0.34-0.14,0.48-0.25
		s0.25-0.25,0.34-0.41c0.08-0.17,0.13-0.36,0.13-0.57c0-0.22-0.04-0.41-0.12-0.57c-0.08-0.16-0.2-0.3-0.34-0.41
		c-0.14-0.11-0.3-0.2-0.48-0.25c-0.18-0.06-0.37-0.09-0.57-0.09l-4.49-0.01V650.43z"/>
	<path class="st6" d="M230.53,644.48v2.77h2.35v-3.23h0.71v4.07h-6.63v-4.03h0.72v3.19h2.13v-2.77H230.53z"/>
	<path class="st6" d="M231.6,637.38c0.31,0.04,0.59,0.12,0.84,0.24s0.48,0.27,0.66,0.46c0.18,0.19,0.33,0.42,0.43,0.67
		c0.1,0.26,0.15,0.55,0.15,0.87c0,0.27-0.04,0.52-0.12,0.75c-0.08,0.22-0.18,0.42-0.32,0.6c-0.14,0.17-0.3,0.33-0.48,0.45
		c-0.19,0.13-0.39,0.23-0.61,0.31c-0.22,0.08-0.45,0.15-0.69,0.19c-0.24,0.04-0.48,0.06-0.73,0.07h-0.92
		c-0.25,0-0.49-0.02-0.73-0.07c-0.24-0.04-0.47-0.1-0.69-0.19c-0.22-0.08-0.42-0.19-0.61-0.31s-0.35-0.28-0.48-0.45
		c-0.14-0.17-0.24-0.37-0.32-0.59s-0.12-0.47-0.12-0.75c0-0.33,0.05-0.63,0.15-0.89c0.1-0.26,0.25-0.49,0.43-0.67
		c0.19-0.19,0.41-0.34,0.67-0.45c0.26-0.11,0.55-0.19,0.87-0.23v0.84c-0.2,0.03-0.39,0.07-0.56,0.14c-0.17,0.07-0.32,0.16-0.46,0.27
		c-0.13,0.11-0.23,0.25-0.31,0.41c-0.07,0.16-0.11,0.35-0.11,0.58c0,0.2,0.03,0.38,0.1,0.53c0.07,0.15,0.15,0.29,0.27,0.4
		c0.11,0.11,0.24,0.2,0.39,0.28c0.15,0.08,0.31,0.13,0.47,0.18c0.17,0.04,0.34,0.08,0.51,0.1c0.17,0.02,0.34,0.03,0.51,0.03h0.93
		c0.16,0,0.33-0.01,0.51-0.03c0.17-0.02,0.35-0.05,0.51-0.1c0.17-0.05,0.33-0.11,0.48-0.18c0.15-0.07,0.28-0.17,0.39-0.28
		c0.11-0.11,0.2-0.24,0.27-0.4c0.07-0.15,0.1-0.33,0.1-0.53c0-0.22-0.04-0.41-0.1-0.58c-0.07-0.16-0.17-0.3-0.29-0.41
		s-0.27-0.2-0.45-0.27c-0.17-0.07-0.36-0.11-0.56-0.14V637.38z"/>
	<path class="st6" d="M230.67,630.9c0.24,0,0.48,0.02,0.72,0.06s0.47,0.1,0.7,0.18c0.22,0.08,0.43,0.18,0.63,0.3
		s0.36,0.27,0.51,0.44c0.15,0.17,0.26,0.36,0.34,0.58c0.08,0.22,0.12,0.47,0.12,0.74s-0.04,0.52-0.12,0.74
		c-0.08,0.22-0.2,0.42-0.34,0.58s-0.32,0.32-0.51,0.44c-0.2,0.12-0.41,0.23-0.63,0.31c-0.22,0.08-0.46,0.14-0.7,0.18
		c-0.24,0.04-0.48,0.06-0.71,0.06h-0.76c-0.24,0-0.48-0.02-0.72-0.06s-0.47-0.1-0.7-0.18c-0.22-0.08-0.43-0.18-0.63-0.3
		c-0.2-0.12-0.37-0.27-0.51-0.44s-0.26-0.37-0.35-0.58c-0.08-0.22-0.13-0.47-0.13-0.74c0-0.27,0.04-0.52,0.13-0.74
		c0.08-0.22,0.2-0.42,0.34-0.59c0.15-0.17,0.32-0.32,0.51-0.44c0.2-0.12,0.41-0.22,0.63-0.3s0.46-0.14,0.7-0.18
		c0.24-0.04,0.48-0.06,0.72-0.06H230.67z M229.9,631.73c-0.16,0-0.32,0.01-0.49,0.03s-0.34,0.05-0.51,0.09
		c-0.17,0.04-0.33,0.1-0.48,0.17s-0.29,0.16-0.41,0.27c-0.12,0.11-0.21,0.24-0.28,0.39s-0.1,0.32-0.1,0.52
		c0,0.19,0.03,0.37,0.1,0.51c0.07,0.15,0.16,0.28,0.28,0.39c0.12,0.11,0.25,0.2,0.41,0.27c0.15,0.07,0.31,0.13,0.48,0.18
		c0.17,0.04,0.34,0.08,0.51,0.09c0.17,0.02,0.33,0.03,0.49,0.03h0.76c0.15,0,0.32-0.01,0.49-0.03c0.17-0.02,0.34-0.05,0.51-0.1
		c0.17-0.04,0.33-0.1,0.48-0.18c0.16-0.07,0.29-0.16,0.41-0.27c0.12-0.11,0.21-0.24,0.28-0.39c0.07-0.15,0.1-0.32,0.1-0.52
		s-0.03-0.37-0.1-0.52c-0.07-0.15-0.16-0.28-0.28-0.39c-0.12-0.11-0.25-0.2-0.4-0.27s-0.31-0.13-0.48-0.17
		c-0.17-0.04-0.34-0.07-0.51-0.09s-0.34-0.03-0.5-0.03H229.9z"/>
	<path class="st6" d="M231.92,625.28c-0.2,0-0.37,0.05-0.51,0.14s-0.26,0.21-0.35,0.36c-0.09,0.15-0.17,0.31-0.24,0.48
		c-0.06,0.17-0.12,0.34-0.17,0.5c-0.08,0.23-0.17,0.47-0.27,0.71s-0.24,0.46-0.39,0.66c-0.16,0.2-0.34,0.36-0.55,0.49
		s-0.46,0.19-0.74,0.19s-0.54-0.06-0.76-0.19s-0.41-0.29-0.57-0.49c-0.15-0.2-0.27-0.43-0.35-0.69s-0.12-0.52-0.12-0.78
		c0-0.29,0.05-0.57,0.14-0.83c0.1-0.27,0.23-0.5,0.4-0.71c0.17-0.21,0.38-0.37,0.63-0.5c0.25-0.12,0.52-0.19,0.82-0.2v0.86
		c-0.19,0.02-0.37,0.07-0.52,0.14c-0.16,0.07-0.29,0.16-0.4,0.28c-0.11,0.12-0.2,0.25-0.26,0.41c-0.06,0.16-0.09,0.34-0.09,0.54
		c0,0.16,0.02,0.32,0.07,0.47c0.04,0.15,0.11,0.29,0.21,0.41c0.09,0.12,0.2,0.21,0.34,0.29c0.13,0.07,0.29,0.11,0.46,0.11
		c0.19,0,0.35-0.05,0.49-0.15c0.13-0.09,0.24-0.21,0.33-0.36c0.09-0.14,0.17-0.3,0.23-0.47c0.06-0.17,0.11-0.33,0.16-0.48
		c0.05-0.16,0.11-0.33,0.18-0.5s0.14-0.33,0.23-0.48c0.08-0.15,0.18-0.3,0.29-0.43c0.11-0.13,0.23-0.25,0.36-0.35
		c0.13-0.1,0.28-0.18,0.45-0.23c0.16-0.06,0.34-0.08,0.54-0.08c0.3,0,0.56,0.07,0.78,0.2c0.22,0.13,0.41,0.3,0.55,0.51
		c0.15,0.21,0.26,0.45,0.33,0.71c0.07,0.26,0.11,0.53,0.11,0.79c0,0.29-0.04,0.58-0.14,0.86c-0.09,0.28-0.22,0.54-0.39,0.76
		c-0.17,0.22-0.38,0.41-0.63,0.54c-0.25,0.14-0.53,0.21-0.84,0.22v-0.86c0.21-0.03,0.39-0.08,0.55-0.17s0.29-0.19,0.41-0.33
		c0.11-0.13,0.19-0.29,0.25-0.46c0.06-0.17,0.08-0.37,0.08-0.57c0-0.16-0.02-0.33-0.06-0.49s-0.1-0.3-0.19-0.43
		c-0.09-0.12-0.2-0.23-0.33-0.3S232.1,625.28,231.92,625.28z"/>
</g>
<g>
	<path class="st6" d="M262.68,669.68c0.31,0.04,0.59,0.12,0.84,0.24s0.48,0.27,0.66,0.46c0.18,0.19,0.33,0.42,0.43,0.67
		c0.1,0.26,0.15,0.55,0.15,0.87c0,0.27-0.04,0.52-0.12,0.75c-0.08,0.22-0.18,0.42-0.32,0.6c-0.14,0.17-0.3,0.33-0.48,0.45
		c-0.19,0.13-0.39,0.23-0.61,0.31c-0.22,0.08-0.45,0.15-0.69,0.19c-0.24,0.04-0.48,0.06-0.73,0.07h-0.92
		c-0.25,0-0.49-0.02-0.73-0.07c-0.24-0.04-0.47-0.1-0.69-0.19c-0.22-0.08-0.42-0.19-0.61-0.31s-0.35-0.28-0.48-0.45
		c-0.14-0.17-0.24-0.37-0.32-0.59s-0.12-0.47-0.12-0.75c0-0.33,0.05-0.63,0.15-0.89c0.1-0.26,0.25-0.49,0.43-0.67
		c0.19-0.19,0.41-0.34,0.67-0.45c0.26-0.11,0.55-0.19,0.87-0.23v0.84c-0.2,0.03-0.39,0.07-0.56,0.14c-0.17,0.07-0.32,0.16-0.46,0.27
		c-0.13,0.11-0.23,0.25-0.31,0.41c-0.07,0.16-0.11,0.35-0.11,0.58c0,0.2,0.03,0.38,0.1,0.53c0.07,0.15,0.15,0.29,0.27,0.4
		c0.11,0.11,0.24,0.2,0.39,0.28c0.15,0.08,0.31,0.13,0.47,0.18c0.17,0.04,0.34,0.08,0.51,0.1c0.17,0.02,0.34,0.03,0.51,0.03h0.93
		c0.16,0,0.33-0.01,0.51-0.03c0.17-0.02,0.35-0.05,0.51-0.1c0.17-0.05,0.33-0.11,0.48-0.18c0.15-0.07,0.28-0.17,0.39-0.28
		c0.11-0.11,0.2-0.24,0.27-0.4c0.07-0.15,0.1-0.33,0.1-0.53c0-0.22-0.04-0.41-0.1-0.58c-0.07-0.16-0.17-0.3-0.29-0.41
		s-0.27-0.2-0.45-0.27c-0.17-0.07-0.36-0.11-0.56-0.14V669.68z"/>
	<path class="st6" d="M261.74,663.2c0.24,0,0.48,0.02,0.72,0.06s0.47,0.1,0.7,0.18c0.22,0.08,0.43,0.18,0.63,0.3
		s0.36,0.27,0.51,0.44c0.15,0.17,0.26,0.36,0.34,0.58c0.08,0.22,0.12,0.47,0.12,0.74s-0.04,0.52-0.12,0.74
		c-0.08,0.22-0.2,0.42-0.34,0.58s-0.32,0.32-0.51,0.44c-0.2,0.12-0.41,0.23-0.63,0.31c-0.22,0.08-0.46,0.14-0.7,0.18
		c-0.24,0.04-0.48,0.06-0.71,0.06h-0.76c-0.24,0-0.48-0.02-0.72-0.06s-0.47-0.1-0.7-0.18c-0.22-0.08-0.43-0.18-0.63-0.3
		c-0.2-0.12-0.37-0.27-0.51-0.44s-0.26-0.37-0.35-0.58c-0.08-0.22-0.13-0.47-0.13-0.74c0-0.27,0.04-0.52,0.13-0.74
		c0.08-0.22,0.2-0.42,0.34-0.59c0.15-0.17,0.32-0.32,0.51-0.44c0.2-0.12,0.41-0.22,0.63-0.3s0.46-0.14,0.7-0.18
		c0.24-0.04,0.48-0.06,0.72-0.06H261.74z M260.98,664.03c-0.16,0-0.32,0.01-0.49,0.03s-0.34,0.05-0.51,0.09
		c-0.17,0.04-0.33,0.1-0.48,0.17s-0.29,0.16-0.41,0.27c-0.12,0.11-0.21,0.24-0.28,0.39s-0.1,0.32-0.1,0.52
		c0,0.19,0.03,0.37,0.1,0.51c0.07,0.15,0.16,0.28,0.28,0.39c0.12,0.11,0.25,0.2,0.41,0.27c0.15,0.07,0.31,0.13,0.48,0.18
		c0.17,0.04,0.34,0.08,0.51,0.09c0.17,0.02,0.33,0.03,0.49,0.03h0.76c0.15,0,0.32-0.01,0.49-0.03c0.17-0.02,0.34-0.05,0.51-0.1
		c0.17-0.04,0.33-0.1,0.48-0.18c0.16-0.07,0.29-0.16,0.41-0.27c0.12-0.11,0.21-0.24,0.28-0.39c0.07-0.15,0.1-0.32,0.1-0.52
		s-0.03-0.37-0.1-0.52c-0.07-0.15-0.16-0.28-0.28-0.39c-0.12-0.11-0.25-0.2-0.4-0.27s-0.31-0.13-0.48-0.17
		c-0.17-0.04-0.34-0.07-0.51-0.09s-0.34-0.03-0.5-0.03H260.98z"/>
	<path class="st6" d="M263.96,660.1v-3.24h0.71v4.08h-6.63v-0.84H263.96z"/>
	<path class="st6" d="M257.47,652.13v0.68l-1.21,1.13v-1.02L257.47,652.13z M261.74,650.27c0.24,0,0.48,0.02,0.72,0.06
		s0.47,0.1,0.7,0.18c0.22,0.08,0.43,0.18,0.63,0.3s0.36,0.27,0.51,0.44c0.15,0.17,0.26,0.36,0.34,0.58
		c0.08,0.22,0.12,0.47,0.12,0.74s-0.04,0.52-0.12,0.74c-0.08,0.22-0.2,0.42-0.34,0.58s-0.32,0.32-0.51,0.44
		c-0.2,0.12-0.41,0.23-0.63,0.31c-0.22,0.08-0.46,0.14-0.7,0.18c-0.24,0.04-0.48,0.06-0.71,0.06h-0.76c-0.24,0-0.48-0.02-0.72-0.06
		s-0.47-0.1-0.7-0.18c-0.22-0.08-0.43-0.18-0.63-0.3c-0.2-0.12-0.37-0.27-0.51-0.44s-0.26-0.37-0.35-0.58
		c-0.08-0.22-0.13-0.47-0.13-0.74c0-0.27,0.04-0.52,0.13-0.74c0.08-0.22,0.2-0.42,0.34-0.59c0.15-0.17,0.32-0.32,0.51-0.44
		c0.2-0.12,0.41-0.22,0.63-0.3s0.46-0.14,0.7-0.18c0.24-0.04,0.48-0.06,0.72-0.06H261.74z M260.98,651.11
		c-0.16,0-0.32,0.01-0.49,0.03s-0.34,0.05-0.51,0.09c-0.17,0.04-0.33,0.1-0.48,0.17s-0.29,0.16-0.41,0.27
		c-0.12,0.11-0.21,0.24-0.28,0.39s-0.1,0.32-0.1,0.52c0,0.19,0.03,0.37,0.1,0.51c0.07,0.15,0.16,0.28,0.28,0.39
		c0.12,0.11,0.25,0.2,0.41,0.27c0.15,0.07,0.31,0.13,0.48,0.18c0.17,0.04,0.34,0.08,0.51,0.09c0.17,0.02,0.33,0.03,0.49,0.03h0.76
		c0.15,0,0.32-0.01,0.49-0.03c0.17-0.02,0.34-0.05,0.51-0.1c0.17-0.04,0.33-0.1,0.48-0.18c0.16-0.07,0.29-0.16,0.41-0.27
		c0.12-0.11,0.21-0.24,0.28-0.39c0.07-0.15,0.1-0.32,0.1-0.52s-0.03-0.37-0.1-0.52c-0.07-0.15-0.16-0.28-0.28-0.39
		c-0.12-0.11-0.25-0.2-0.4-0.27s-0.31-0.13-0.48-0.17c-0.17-0.04-0.34-0.07-0.51-0.09s-0.34-0.03-0.5-0.03H260.98z"/>
	<path class="st6" d="M258.04,647.2l3.31-1.08l-3.31-1.17v-1.05h6.63v0.82h-2.64l-2.77-0.07l3.57,1.22v0.48l-3.47,1.12l2.67-0.07
		h2.64v0.82h-6.63V647.2z"/>
	<path class="st6" d="M264.67,641.67h-6.63v-1.97c0-0.27,0.04-0.54,0.11-0.8c0.07-0.26,0.17-0.49,0.32-0.7s0.33-0.37,0.55-0.49
		c0.22-0.12,0.49-0.18,0.8-0.18c0.17,0,0.33,0.03,0.47,0.08c0.14,0.05,0.27,0.13,0.38,0.22c0.11,0.09,0.21,0.2,0.3,0.33
		c0.08,0.12,0.16,0.26,0.22,0.4c0.05-0.18,0.12-0.34,0.22-0.48s0.21-0.27,0.35-0.38c0.13-0.11,0.29-0.19,0.46-0.25
		c0.17-0.06,0.35-0.09,0.55-0.09c0.31,0,0.58,0.06,0.82,0.18c0.24,0.12,0.43,0.28,0.59,0.49c0.16,0.2,0.28,0.44,0.37,0.7
		s0.13,0.54,0.13,0.82V641.67z M260.87,640.82v-1.17c0-0.16-0.03-0.31-0.07-0.46c-0.05-0.15-0.12-0.29-0.21-0.41
		c-0.09-0.12-0.2-0.21-0.33-0.29c-0.13-0.07-0.28-0.11-0.46-0.11c-0.19,0-0.34,0.04-0.47,0.11c-0.13,0.07-0.24,0.17-0.32,0.29
		c-0.08,0.12-0.14,0.26-0.18,0.41c-0.04,0.16-0.06,0.32-0.06,0.48v1.15H260.87z M261.57,640.82h2.39v-1.3c0-0.18-0.03-0.34-0.09-0.5
		c-0.06-0.16-0.13-0.3-0.23-0.42c-0.1-0.12-0.22-0.22-0.37-0.29c-0.15-0.07-0.31-0.11-0.5-0.11c-0.19,0-0.35,0.03-0.5,0.09
		c-0.15,0.07-0.27,0.16-0.37,0.27s-0.18,0.25-0.23,0.41c-0.05,0.16-0.08,0.32-0.09,0.5V640.82z"/>
	<path class="st6" d="M258.04,635.2v-4.01h0.73v1.59h5.17v-1.59h0.73v4.01h-0.73v-1.55h-5.17v1.55H258.04z"/>
	<path class="st6" d="M262.96,625.57v2.21l1.72,0.53v0.84l-6.63-2.14v-0.71l6.63-2.1v0.84L262.96,625.57z M262.22,627.56v-1.76
		l-2.88,0.87L262.22,627.56z"/>
</g>
<g>
	<path class="st6" d="M294.39,678.46l-5.27-1.57v-0.9l6.63,2.09v0.73l-6.63,2.09v-0.9L294.39,678.46z"/>
	<path class="st6" d="M292.68,670.33v2.77h2.35v-3.23h0.71v4.07h-6.63v-4.03h0.72v3.19h2.13v-2.77H292.68z"/>
	<path class="st6" d="M295.75,663.36v0.86l-4.95,2.57l4.95,0.01v0.85h-6.63v-0.86l4.94-2.57l-4.94-0.01v-0.85H295.75z"/>
	<path class="st6" d="M292.68,657.41v2.77h2.35v-3.23h0.71v4.07h-6.63v-4.03h0.72v3.19h2.13v-2.77H292.68z"/>
	<path class="st6" d="M295.03,653.91v-3.43h0.71v4.38l-0.66,0.01l-5.25-3.3v3.24h-0.72v-4.2l0.64-0.01L295.03,653.91z"/>
	<path class="st6" d="M289.12,643.97l4.49-0.01c0.31,0.01,0.6,0.06,0.87,0.17c0.27,0.11,0.51,0.25,0.71,0.45
		c0.2,0.19,0.36,0.42,0.48,0.68c0.12,0.26,0.17,0.55,0.17,0.87c0,0.32-0.06,0.61-0.17,0.88c-0.12,0.26-0.27,0.49-0.48,0.68
		s-0.44,0.33-0.71,0.44s-0.56,0.16-0.87,0.16l-4.49-0.01v-0.8l4.49-0.02c0.2,0,0.39-0.03,0.57-0.09c0.18-0.06,0.34-0.14,0.48-0.25
		s0.25-0.25,0.34-0.41c0.08-0.17,0.13-0.36,0.13-0.57c0-0.22-0.04-0.41-0.12-0.57c-0.08-0.16-0.2-0.3-0.34-0.41
		c-0.14-0.11-0.3-0.2-0.48-0.25c-0.18-0.06-0.37-0.09-0.57-0.09l-4.49-0.01V643.97z"/>
	<path class="st6" d="M292.68,638.02v2.77h2.35v-3.23h0.71v4.07h-6.63v-4.03h0.72v3.19h2.13v-2.77H292.68z"/>
	<path class="st6" d="M295.03,634.25v-3.24h0.71v4.08h-6.63v-0.84H295.03z"/>
	<path class="st6" d="M294.03,625.58v2.21l1.72,0.53v0.84l-6.63-2.14v-0.71l6.63-2.1v0.84L294.03,625.58z M293.3,627.56v-1.76
		l-2.88,0.87L293.3,627.56z"/>
</g>
<g class="st0">
	<g>
		<path class="st7" d="M4.63,450.2l0.33-3.3h3.4v0.82H5.67l-0.19,1.77c0.13-0.08,0.29-0.14,0.47-0.2s0.39-0.09,0.63-0.09
			c0.31,0,0.58,0.05,0.82,0.16c0.24,0.11,0.45,0.26,0.62,0.45s0.3,0.43,0.39,0.7c0.09,0.27,0.14,0.58,0.14,0.91
			c0,0.32-0.04,0.61-0.13,0.88c-0.08,0.27-0.21,0.5-0.38,0.7c-0.17,0.2-0.39,0.35-0.65,0.46c-0.26,0.11-0.57,0.17-0.92,0.17
			c-0.27,0-0.53-0.04-0.76-0.11c-0.24-0.08-0.45-0.19-0.64-0.34c-0.19-0.15-0.34-0.34-0.46-0.57s-0.19-0.5-0.23-0.81h0.8
			c0.05,0.38,0.19,0.66,0.42,0.86s0.52,0.29,0.87,0.29c0.2,0,0.38-0.04,0.53-0.11c0.15-0.07,0.28-0.17,0.39-0.31
			c0.1-0.13,0.18-0.29,0.24-0.48c0.05-0.18,0.08-0.39,0.08-0.62c0-0.21-0.03-0.4-0.09-0.58c-0.06-0.18-0.15-0.33-0.26-0.47
			c-0.11-0.13-0.25-0.24-0.41-0.31s-0.35-0.11-0.56-0.11c-0.14,0-0.26,0.01-0.36,0.03c-0.1,0.02-0.19,0.05-0.28,0.08
			c-0.08,0.04-0.16,0.08-0.23,0.13c-0.07,0.05-0.15,0.11-0.22,0.18L4.63,450.2z"/>
		<path class="st7" d="M12.26,452.98c0-0.09,0.01-0.18,0.04-0.25c0.03-0.08,0.07-0.15,0.12-0.21c0.05-0.06,0.12-0.11,0.21-0.14
			s0.18-0.05,0.29-0.05s0.21,0.02,0.29,0.05c0.08,0.03,0.15,0.08,0.21,0.14c0.06,0.06,0.1,0.13,0.13,0.21
			c0.03,0.08,0.04,0.16,0.04,0.25c0,0.09-0.01,0.17-0.04,0.25c-0.03,0.08-0.07,0.14-0.13,0.2s-0.13,0.1-0.21,0.13
			c-0.08,0.03-0.18,0.05-0.29,0.05s-0.21-0.02-0.29-0.05c-0.08-0.03-0.15-0.08-0.21-0.13s-0.1-0.12-0.12-0.2
			C12.27,453.15,12.26,453.07,12.26,452.98z"/>
		<path class="st7" d="M21.42,450.99c0,0.42-0.05,0.8-0.14,1.12c-0.1,0.33-0.24,0.6-0.42,0.82c-0.18,0.22-0.4,0.39-0.67,0.51
			s-0.57,0.17-0.91,0.17c-0.34,0-0.64-0.06-0.9-0.17s-0.49-0.28-0.68-0.51c-0.19-0.22-0.33-0.5-0.43-0.82s-0.15-0.7-0.15-1.12v-1.55
			c0-0.42,0.05-0.8,0.15-1.12c0.1-0.33,0.24-0.6,0.42-0.83s0.41-0.4,0.67-0.51c0.26-0.12,0.57-0.17,0.9-0.17
			c0.34,0,0.64,0.06,0.91,0.17c0.27,0.12,0.49,0.29,0.67,0.51s0.32,0.5,0.42,0.83c0.1,0.33,0.14,0.7,0.14,1.12V450.99z
			 M17.97,450.82l2.58-1.98c-0.05-0.44-0.18-0.77-0.38-1c-0.21-0.23-0.51-0.34-0.9-0.34c-0.44,0-0.77,0.15-0.98,0.45
			c-0.21,0.3-0.32,0.74-0.32,1.31V450.82z M20.57,449.64l-2.58,1.97c0.05,0.43,0.18,0.75,0.4,0.98c0.21,0.22,0.51,0.34,0.89,0.34
			c0.45,0,0.77-0.15,0.98-0.46s0.31-0.74,0.31-1.31V449.64z"/>
		<path class="st7" d="M27.88,450.99c0,0.42-0.05,0.8-0.15,1.12s-0.24,0.6-0.42,0.82c-0.18,0.22-0.41,0.39-0.67,0.51
			c-0.26,0.12-0.57,0.17-0.91,0.17c-0.34,0-0.64-0.06-0.9-0.17s-0.49-0.28-0.68-0.51c-0.19-0.22-0.33-0.5-0.43-0.82
			c-0.1-0.33-0.15-0.7-0.15-1.12v-1.55c0-0.42,0.05-0.8,0.15-1.12s0.24-0.6,0.42-0.83s0.41-0.4,0.67-0.51
			c0.27-0.12,0.57-0.17,0.9-0.17c0.34,0,0.64,0.06,0.91,0.17c0.27,0.12,0.49,0.29,0.67,0.51s0.32,0.5,0.42,0.83s0.15,0.7,0.15,1.12
			V450.99z M24.43,450.82l2.58-1.98c-0.05-0.44-0.18-0.77-0.38-1c-0.21-0.23-0.51-0.34-0.9-0.34c-0.44,0-0.77,0.15-0.98,0.45
			c-0.21,0.3-0.32,0.74-0.32,1.31V450.82z M27.03,449.64l-2.58,1.97c0.05,0.43,0.18,0.75,0.4,0.98s0.51,0.34,0.89,0.34
			c0.45,0,0.77-0.15,0.98-0.46c0.21-0.3,0.31-0.74,0.31-1.31V449.64z"/>
		<path class="st7" d="M34.34,450.99c0,0.42-0.05,0.8-0.15,1.12c-0.1,0.33-0.24,0.6-0.42,0.82c-0.18,0.22-0.41,0.39-0.67,0.51
			c-0.26,0.12-0.57,0.17-0.91,0.17c-0.34,0-0.64-0.06-0.9-0.17s-0.49-0.28-0.68-0.51c-0.19-0.22-0.33-0.5-0.43-0.82
			c-0.1-0.33-0.15-0.7-0.15-1.12v-1.55c0-0.42,0.05-0.8,0.15-1.12s0.24-0.6,0.42-0.83s0.41-0.4,0.67-0.51
			c0.26-0.12,0.57-0.17,0.9-0.17c0.34,0,0.64,0.06,0.91,0.17c0.27,0.12,0.49,0.29,0.67,0.51s0.32,0.5,0.42,0.83
			c0.1,0.33,0.15,0.7,0.15,1.12V450.99z M30.89,450.82l2.58-1.98c-0.05-0.44-0.18-0.77-0.38-1c-0.21-0.23-0.51-0.34-0.9-0.34
			c-0.44,0-0.77,0.15-0.98,0.45c-0.21,0.3-0.32,0.74-0.32,1.31V450.82z M33.49,449.64l-2.58,1.97c0.05,0.43,0.18,0.75,0.4,0.98
			s0.51,0.34,0.89,0.34c0.45,0,0.77-0.15,0.98-0.46c0.21-0.3,0.31-0.74,0.31-1.31V449.64z"/>
	</g>
	<g>
		<path class="st7" d="M7.06,282.26H6.22v-5.55l-1.73,0.66v-0.77l2.51-0.97h0.07V282.26z"/>
		<path class="st7" d="M14.96,279.73c0,0.42-0.05,0.8-0.15,1.12c-0.1,0.33-0.24,0.6-0.42,0.82c-0.18,0.22-0.41,0.39-0.67,0.51
			s-0.57,0.17-0.91,0.17c-0.34,0-0.64-0.06-0.9-0.17s-0.49-0.28-0.68-0.51c-0.19-0.22-0.33-0.5-0.43-0.82s-0.15-0.7-0.15-1.12v-1.55
			c0-0.42,0.05-0.79,0.14-1.12c0.1-0.33,0.24-0.6,0.42-0.83s0.41-0.4,0.67-0.51c0.27-0.12,0.57-0.17,0.9-0.17
			c0.34,0,0.64,0.06,0.91,0.17c0.27,0.12,0.49,0.29,0.67,0.51s0.32,0.5,0.42,0.83c0.1,0.33,0.15,0.7,0.15,1.12V279.73z
			 M11.51,279.56l2.58-1.98c-0.05-0.44-0.18-0.78-0.38-1c-0.21-0.23-0.51-0.34-0.9-0.34c-0.44,0-0.77,0.15-0.98,0.45
			s-0.32,0.74-0.32,1.31V279.56z M14.11,278.38l-2.58,1.97c0.05,0.43,0.18,0.75,0.4,0.98c0.21,0.22,0.51,0.34,0.89,0.34
			c0.45,0,0.77-0.15,0.98-0.46c0.21-0.3,0.31-0.74,0.31-1.31V278.38z"/>
		<path class="st7" d="M18.72,281.72c0-0.09,0.02-0.18,0.04-0.25c0.03-0.08,0.07-0.15,0.12-0.21s0.12-0.11,0.21-0.14
			s0.18-0.05,0.29-0.05c0.11,0,0.21,0.02,0.29,0.05c0.08,0.03,0.15,0.08,0.21,0.14s0.1,0.13,0.13,0.21
			c0.03,0.08,0.04,0.16,0.04,0.25c0,0.09-0.01,0.17-0.04,0.25c-0.03,0.08-0.07,0.15-0.13,0.2c-0.06,0.06-0.13,0.1-0.21,0.13
			c-0.08,0.03-0.18,0.05-0.29,0.05c-0.11,0-0.2-0.02-0.29-0.05c-0.08-0.03-0.15-0.08-0.21-0.13c-0.05-0.06-0.1-0.12-0.12-0.2
			S18.72,281.8,18.72,281.72z"/>
		<path class="st7" d="M27.88,279.73c0,0.42-0.05,0.8-0.15,1.12s-0.24,0.6-0.42,0.82c-0.18,0.22-0.41,0.39-0.67,0.51
			c-0.26,0.12-0.57,0.17-0.91,0.17c-0.34,0-0.64-0.06-0.9-0.17s-0.49-0.28-0.68-0.51c-0.19-0.22-0.33-0.5-0.43-0.82
			c-0.1-0.33-0.15-0.7-0.15-1.12v-1.55c0-0.42,0.05-0.79,0.15-1.12c0.1-0.33,0.24-0.6,0.42-0.83s0.41-0.4,0.67-0.51
			c0.27-0.12,0.57-0.17,0.9-0.17c0.34,0,0.64,0.06,0.91,0.17c0.27,0.12,0.49,0.29,0.67,0.51s0.32,0.5,0.42,0.83
			c0.1,0.33,0.15,0.7,0.15,1.12V279.73z M24.43,279.56l2.58-1.98c-0.05-0.44-0.18-0.78-0.38-1c-0.21-0.23-0.51-0.34-0.9-0.34
			c-0.44,0-0.77,0.15-0.98,0.45s-0.32,0.74-0.32,1.31V279.56z M27.03,278.38l-2.58,1.97c0.05,0.43,0.18,0.75,0.4,0.98
			s0.51,0.34,0.89,0.34c0.45,0,0.77-0.15,0.98-0.46c0.21-0.3,0.31-0.74,0.31-1.31V278.38z"/>
		<path class="st7" d="M34.34,279.73c0,0.42-0.05,0.8-0.15,1.12c-0.1,0.33-0.24,0.6-0.42,0.82c-0.18,0.22-0.41,0.39-0.67,0.51
			c-0.26,0.12-0.57,0.17-0.91,0.17c-0.34,0-0.64-0.06-0.9-0.17s-0.49-0.28-0.68-0.51c-0.19-0.22-0.33-0.5-0.43-0.82
			c-0.1-0.33-0.15-0.7-0.15-1.12v-1.55c0-0.42,0.05-0.79,0.15-1.12c0.1-0.33,0.24-0.6,0.42-0.83s0.41-0.4,0.67-0.51
			c0.26-0.12,0.57-0.17,0.9-0.17c0.34,0,0.64,0.06,0.91,0.17c0.27,0.12,0.49,0.29,0.67,0.51s0.32,0.5,0.42,0.83
			c0.1,0.33,0.15,0.7,0.15,1.12V279.73z M30.89,279.56l2.58-1.98c-0.05-0.44-0.18-0.78-0.38-1c-0.21-0.23-0.51-0.34-0.9-0.34
			c-0.44,0-0.77,0.15-0.98,0.45s-0.32,0.74-0.32,1.31V279.56z M33.49,278.38l-2.58,1.97c0.05,0.43,0.18,0.75,0.4,0.98
			s0.51,0.34,0.89,0.34c0.45,0,0.77-0.15,0.98-0.46c0.21-0.3,0.31-0.74,0.31-1.31V278.38z"/>
		<path class="st7" d="M40.8,279.73c0,0.42-0.05,0.8-0.15,1.12s-0.24,0.6-0.42,0.82c-0.18,0.22-0.41,0.39-0.67,0.51
			c-0.26,0.12-0.57,0.17-0.91,0.17c-0.34,0-0.64-0.06-0.9-0.17s-0.49-0.28-0.68-0.51c-0.19-0.22-0.33-0.5-0.43-0.82
			c-0.1-0.33-0.15-0.7-0.15-1.12v-1.55c0-0.42,0.05-0.79,0.15-1.12c0.1-0.33,0.24-0.6,0.42-0.83s0.41-0.4,0.67-0.51
			c0.27-0.12,0.57-0.17,0.9-0.17c0.34,0,0.64,0.06,0.91,0.17c0.27,0.12,0.49,0.29,0.67,0.51s0.32,0.5,0.42,0.83
			c0.1,0.33,0.15,0.7,0.15,1.12V279.73z M37.36,279.56l2.58-1.98c-0.05-0.44-0.18-0.78-0.38-1c-0.21-0.23-0.51-0.34-0.9-0.34
			c-0.44,0-0.77,0.15-0.98,0.45s-0.32,0.74-0.32,1.31V279.56z M39.96,278.38l-2.58,1.97c0.05,0.43,0.18,0.75,0.4,0.98
			s0.51,0.34,0.89,0.34c0.45,0,0.77-0.15,0.98-0.46c0.21-0.3,0.31-0.74,0.31-1.31V278.38z"/>
	</g>
	<g>
		<path class="st7" d="M7.06,109.33H6.22v-5.55l-1.73,0.66v-0.77l2.51-0.97h0.07V109.33z"/>
		<path class="st7" d="M11.09,106.01l0.33-3.31h3.4v0.82h-2.69l-0.19,1.77c0.13-0.08,0.29-0.14,0.47-0.2s0.39-0.09,0.63-0.09
			c0.31,0,0.58,0.05,0.82,0.16c0.24,0.11,0.45,0.26,0.62,0.45s0.3,0.43,0.39,0.7c0.09,0.27,0.14,0.58,0.14,0.91
			c0,0.32-0.04,0.61-0.13,0.88c-0.08,0.27-0.21,0.5-0.38,0.7c-0.17,0.2-0.39,0.35-0.65,0.46c-0.26,0.11-0.57,0.17-0.92,0.17
			c-0.27,0-0.52-0.04-0.76-0.11c-0.24-0.08-0.45-0.19-0.64-0.34s-0.34-0.34-0.46-0.57c-0.12-0.23-0.2-0.5-0.23-0.81h0.8
			c0.05,0.38,0.19,0.66,0.42,0.86s0.52,0.29,0.87,0.29c0.2,0,0.38-0.04,0.53-0.11c0.16-0.07,0.29-0.17,0.39-0.31
			c0.1-0.13,0.18-0.29,0.24-0.48c0.05-0.19,0.08-0.39,0.08-0.62c0-0.21-0.03-0.4-0.09-0.58c-0.06-0.18-0.14-0.33-0.26-0.47
			c-0.11-0.13-0.25-0.24-0.41-0.31c-0.16-0.08-0.35-0.11-0.56-0.11c-0.14,0-0.26,0.01-0.36,0.03c-0.1,0.02-0.19,0.05-0.28,0.08
			c-0.08,0.04-0.16,0.08-0.23,0.13c-0.07,0.05-0.14,0.11-0.22,0.18L11.09,106.01z"/>
		<path class="st7" d="M18.72,108.79c0-0.09,0.02-0.18,0.04-0.25c0.03-0.08,0.07-0.15,0.12-0.21s0.12-0.11,0.21-0.14
			c0.08-0.03,0.18-0.05,0.29-0.05c0.11,0,0.21,0.02,0.29,0.05c0.08,0.03,0.15,0.08,0.21,0.14s0.1,0.13,0.13,0.21
			c0.03,0.08,0.04,0.16,0.04,0.25c0,0.09-0.01,0.17-0.04,0.25c-0.03,0.08-0.07,0.15-0.13,0.2s-0.13,0.1-0.21,0.13
			c-0.08,0.03-0.18,0.05-0.29,0.05c-0.11,0-0.2-0.02-0.29-0.05c-0.08-0.03-0.15-0.08-0.21-0.13s-0.1-0.12-0.12-0.2
			C18.74,108.96,18.72,108.88,18.72,108.79z"/>
		<path class="st7" d="M27.88,106.8c0,0.42-0.05,0.8-0.15,1.12s-0.24,0.6-0.42,0.82c-0.18,0.22-0.41,0.39-0.67,0.51
			c-0.26,0.12-0.57,0.17-0.91,0.17c-0.34,0-0.64-0.06-0.9-0.17s-0.49-0.28-0.68-0.51c-0.19-0.22-0.33-0.5-0.43-0.82
			c-0.1-0.33-0.15-0.7-0.15-1.12v-1.55c0-0.42,0.05-0.8,0.15-1.12c0.1-0.33,0.24-0.6,0.42-0.83s0.41-0.4,0.67-0.51
			c0.27-0.12,0.57-0.18,0.9-0.18c0.34,0,0.64,0.06,0.91,0.18c0.27,0.12,0.49,0.29,0.67,0.51s0.32,0.5,0.42,0.83
			c0.1,0.33,0.15,0.7,0.15,1.12V106.8z M24.43,106.63l2.58-1.98c-0.05-0.44-0.18-0.77-0.38-1c-0.21-0.23-0.51-0.34-0.9-0.34
			c-0.44,0-0.77,0.15-0.98,0.45s-0.32,0.74-0.32,1.31V106.63z M27.03,105.46l-2.58,1.97c0.05,0.43,0.18,0.75,0.4,0.98
			s0.51,0.34,0.89,0.34c0.45,0,0.77-0.15,0.98-0.46c0.21-0.3,0.31-0.74,0.31-1.31V105.46z"/>
		<path class="st7" d="M34.34,106.8c0,0.42-0.05,0.8-0.15,1.12c-0.1,0.33-0.24,0.6-0.42,0.82c-0.18,0.22-0.41,0.39-0.67,0.51
			c-0.26,0.12-0.57,0.17-0.91,0.17c-0.34,0-0.64-0.06-0.9-0.17s-0.49-0.28-0.68-0.51c-0.19-0.22-0.33-0.5-0.43-0.82
			c-0.1-0.33-0.15-0.7-0.15-1.12v-1.55c0-0.42,0.05-0.8,0.15-1.12c0.1-0.33,0.24-0.6,0.42-0.83s0.41-0.4,0.67-0.51
			c0.26-0.12,0.57-0.18,0.9-0.18c0.34,0,0.64,0.06,0.91,0.18c0.27,0.12,0.49,0.29,0.67,0.51s0.32,0.5,0.42,0.83
			c0.1,0.33,0.15,0.7,0.15,1.12V106.8z M30.89,106.63l2.58-1.98c-0.05-0.44-0.18-0.77-0.38-1c-0.21-0.23-0.51-0.34-0.9-0.34
			c-0.44,0-0.77,0.15-0.98,0.45s-0.32,0.74-0.32,1.31V106.63z M33.49,105.46l-2.58,1.97c0.05,0.43,0.18,0.75,0.4,0.98
			s0.51,0.34,0.89,0.34c0.45,0,0.77-0.15,0.98-0.46c0.21-0.3,0.31-0.74,0.31-1.31V105.46z"/>
		<path class="st7" d="M40.8,106.8c0,0.42-0.05,0.8-0.15,1.12s-0.24,0.6-0.42,0.82c-0.18,0.22-0.41,0.39-0.67,0.51
			c-0.26,0.12-0.57,0.17-0.91,0.17c-0.34,0-0.64-0.06-0.9-0.17s-0.49-0.28-0.68-0.51c-0.19-0.22-0.33-0.5-0.43-0.82
			c-0.1-0.33-0.15-0.7-0.15-1.12v-1.55c0-0.42,0.05-0.8,0.15-1.12c0.1-0.33,0.24-0.6,0.42-0.83s0.41-0.4,0.67-0.51
			c0.27-0.12,0.57-0.18,0.9-0.18c0.34,0,0.64,0.06,0.91,0.18c0.27,0.12,0.49,0.29,0.67,0.51s0.32,0.5,0.42,0.83
			c0.1,0.33,0.15,0.7,0.15,1.12V106.8z M37.36,106.63l2.58-1.98c-0.05-0.44-0.18-0.77-0.38-1c-0.21-0.23-0.51-0.34-0.9-0.34
			c-0.44,0-0.77,0.15-0.98,0.45s-0.32,0.74-0.32,1.31V106.63z M39.96,105.46l-2.58,1.97c0.05,0.43,0.18,0.75,0.4,0.98
			s0.51,0.34,0.89,0.34c0.45,0,0.77-0.15,0.98-0.46c0.21-0.3,0.31-0.74,0.31-1.31V105.46z"/>
	</g>
</g>
<rect x="-22.88" y="-266.18" class="st1" width="101.77" height="602.69"/>
<path class="st2" d="M300.01,615.25L300.01,615.25 M3.73,615.25L3.73,615.25"/>
<path class="st2" d="M300.01,559.31L300.01,559.31 M3.73,559.31L3.73,559.31"/>
<path class="st2" d="M300.01,503.76L300.01,503.76 M3.73,503.76L3.73,503.76"/>
<path class="st2" d="M300.01,448.21L300.01,448.21 M3.73,448.21L3.73,448.21"/>
<path class="st2" d="M300.01,391.49L300.01,391.49 M3.73,391.49L3.73,391.49"/>
<path class="st2" d="M300.01,335.55L300.01,335.55 M3.73,335.55L3.73,335.55"/>
<path class="st2" d="M300.01,279.61L300.01,279.61 M3.73,279.61L3.73,279.61"/>
<path class="st2" d="M300.01,224.06L300.01,224.06 M3.73,224.06L3.73,224.06"/>
<path class="st2" d="M300.01,168.12L300.01,168.12 M3.73,168.12L3.73,168.12"/>
<path class="st2" d="M300.01,111.98L300.01,111.98 M3.73,111.98L3.73,111.98"/>
<path class="st2" d="M300.01,55.85L300.01,55.85 M3.73,55.85L3.73,55.85"/>
<path class="st2" d="M300.01,0.3L300.01,0.3 M3.73,0.3L3.73,0.3"/>
<g class="st3">
	<line class="st4" x1="4.9" y1="615.25" x2="299.42" y2="615.25"/>
	<line class="st4" x1="4.9" y1="580.74" x2="299.42" y2="580.74"/>
	<line class="st4" x1="4.9" y1="546.22" x2="299.42" y2="546.22"/>
	<line class="st4" x1="4.9" y1="511.71" x2="299.42" y2="511.71"/>
	<line class="st4" x1="4.9" y1="477.19" x2="299.42" y2="477.19"/>
	<line class="st4" x1="4.9" y1="442.68" x2="299.42" y2="442.68"/>
	<line class="st4" x1="4.9" y1="408.17" x2="299.42" y2="408.17"/>
	<line class="st4" x1="4.9" y1="373.65" x2="299.42" y2="373.65"/>
	<line class="st4" x1="4.9" y1="339.14" x2="299.42" y2="339.14"/>
	<line class="st4" x1="4.9" y1="235.59" x2="299.42" y2="235.59"/>
	<line class="st4" x1="4.9" y1="270.11" x2="299.42" y2="270.11"/>
	<line class="st4" x1="4.9" y1="132.05" x2="299.42" y2="132.05"/>
	<line class="st4" x1="4.9" y1="304.62" x2="299.42" y2="304.62"/>
	<line class="st4" x1="4.9" y1="166.56" x2="299.42" y2="166.56"/>
	<line class="st4" x1="4.9" y1="201.08" x2="299.42" y2="201.08"/>
	<line class="st4" x1="4.9" y1="97.54" x2="299.42" y2="97.54"/>
</g>
<line class="st8" x1="292.24" y1="615.45" x2="292.24" y2="63"/>
<rect x="-7.68" y="-320" class="st1" width="323.14" height="1013.9"/>
<g>
	<path class="st6" d="M295.3,49.42v0.84h-5.55l0.66,1.73h-0.77l-0.96-2.51v-0.07H295.3z"/>
	<path class="st6" d="M291.97,45.39l-3.3-0.33v-3.4h0.82v2.69l1.77,0.19c-0.08-0.13-0.14-0.29-0.2-0.47s-0.09-0.39-0.09-0.63
		c0-0.31,0.05-0.58,0.16-0.82s0.26-0.45,0.45-0.62s0.43-0.3,0.7-0.39c0.27-0.09,0.58-0.14,0.91-0.14c0.32,0,0.61,0.04,0.88,0.13
		c0.27,0.08,0.5,0.21,0.7,0.38c0.2,0.17,0.35,0.39,0.46,0.65c0.11,0.26,0.17,0.57,0.17,0.92c0,0.27-0.04,0.52-0.11,0.76
		c-0.08,0.24-0.19,0.45-0.34,0.64c-0.15,0.19-0.34,0.34-0.57,0.46c-0.23,0.12-0.5,0.19-0.81,0.23v-0.8
		c0.38-0.05,0.66-0.19,0.86-0.42s0.29-0.52,0.29-0.87c0-0.2-0.04-0.38-0.11-0.53s-0.17-0.28-0.31-0.39
		c-0.13-0.1-0.29-0.18-0.48-0.24c-0.18-0.05-0.39-0.08-0.62-0.08c-0.21,0-0.4,0.03-0.58,0.09c-0.18,0.06-0.33,0.15-0.47,0.26
		c-0.13,0.11-0.24,0.25-0.31,0.41s-0.11,0.35-0.11,0.56c0,0.14,0.01,0.26,0.03,0.36c0.02,0.1,0.05,0.19,0.08,0.28
		c0.04,0.08,0.08,0.16,0.13,0.23s0.11,0.15,0.18,0.22L291.97,45.39z"/>
	<path class="st6" d="M294.75,37.76c-0.09,0-0.18-0.01-0.25-0.04c-0.08-0.03-0.15-0.07-0.21-0.12c-0.06-0.05-0.11-0.12-0.14-0.21
		s-0.05-0.18-0.05-0.29c0-0.11,0.02-0.21,0.05-0.29s0.08-0.15,0.14-0.21c0.06-0.06,0.13-0.1,0.21-0.13
		c0.08-0.03,0.16-0.04,0.25-0.04c0.09,0,0.17,0.01,0.25,0.04c0.08,0.03,0.14,0.07,0.2,0.13s0.1,0.13,0.13,0.21
		c0.03,0.08,0.05,0.18,0.05,0.29c0,0.11-0.02,0.2-0.05,0.29c-0.03,0.08-0.08,0.15-0.13,0.21s-0.12,0.1-0.2,0.12
		C294.92,37.75,294.84,37.76,294.75,37.76z"/>
	<path class="st6" d="M294.55,31.86c0-0.3-0.03-0.56-0.08-0.79s-0.13-0.43-0.23-0.59c-0.1-0.17-0.21-0.31-0.34-0.42
		s-0.28-0.2-0.44-0.28s-0.33-0.12-0.51-0.16c-0.18-0.03-0.36-0.05-0.54-0.06c0.09,0.07,0.18,0.16,0.26,0.25
		c0.08,0.09,0.15,0.2,0.21,0.32c0.06,0.12,0.11,0.25,0.14,0.39c0.04,0.14,0.05,0.3,0.05,0.47c0,0.33-0.06,0.61-0.19,0.85
		c-0.13,0.24-0.3,0.44-0.51,0.59c-0.21,0.15-0.45,0.27-0.71,0.34c-0.26,0.07-0.53,0.11-0.8,0.11c-0.31,0-0.61-0.04-0.89-0.13
		s-0.52-0.22-0.73-0.39s-0.37-0.39-0.5-0.64s-0.18-0.55-0.18-0.89c0-0.25,0.04-0.48,0.11-0.69c0.07-0.2,0.17-0.39,0.3-0.54
		s0.27-0.29,0.45-0.4c0.17-0.11,0.36-0.2,0.55-0.28c0.2-0.07,0.41-0.12,0.62-0.16c0.22-0.03,0.43-0.05,0.65-0.05h0.3
		c0.28,0,0.57,0.01,0.87,0.04c0.3,0.03,0.58,0.08,0.86,0.16c0.28,0.08,0.54,0.19,0.78,0.34s0.46,0.34,0.64,0.57
		c0.18,0.23,0.33,0.52,0.43,0.85c0.11,0.33,0.16,0.73,0.16,1.19v0.09h-0.75V31.86z M292.38,30.85c0-0.14-0.02-0.28-0.07-0.42
		c-0.05-0.14-0.11-0.26-0.2-0.37c-0.09-0.11-0.19-0.22-0.3-0.3c-0.12-0.09-0.25-0.16-0.39-0.21h-0.27c-0.29,0-0.56,0.03-0.79,0.1
		s-0.43,0.16-0.58,0.28c-0.16,0.12-0.28,0.25-0.37,0.4c-0.08,0.15-0.13,0.32-0.13,0.49c0,0.2,0.04,0.37,0.12,0.52
		c0.08,0.15,0.19,0.28,0.33,0.38c0.14,0.1,0.3,0.18,0.49,0.24s0.39,0.08,0.61,0.08c0.19,0,0.38-0.02,0.57-0.07
		c0.19-0.05,0.35-0.12,0.5-0.22s0.26-0.22,0.35-0.37S292.38,31.05,292.38,30.85z"/>
	<path class="st6" d="M294.55,25.4c0-0.3-0.03-0.56-0.08-0.79s-0.13-0.43-0.23-0.59c-0.1-0.17-0.21-0.31-0.34-0.42
		s-0.28-0.2-0.44-0.28s-0.33-0.12-0.51-0.16c-0.18-0.03-0.36-0.05-0.54-0.06c0.09,0.07,0.18,0.16,0.26,0.25
		c0.08,0.09,0.15,0.2,0.21,0.32c0.06,0.12,0.11,0.25,0.14,0.39c0.04,0.14,0.05,0.3,0.05,0.47c0,0.33-0.06,0.61-0.19,0.85
		c-0.13,0.24-0.3,0.44-0.51,0.59c-0.21,0.15-0.45,0.27-0.71,0.34c-0.26,0.07-0.53,0.11-0.8,0.11c-0.31,0-0.61-0.04-0.89-0.13
		s-0.52-0.22-0.73-0.39s-0.37-0.39-0.5-0.64s-0.18-0.55-0.18-0.89c0-0.25,0.04-0.48,0.11-0.69c0.07-0.2,0.17-0.39,0.3-0.54
		s0.27-0.29,0.45-0.4c0.17-0.11,0.36-0.2,0.55-0.28c0.2-0.07,0.41-0.12,0.62-0.16c0.22-0.03,0.43-0.05,0.65-0.05h0.3
		c0.28,0,0.57,0.01,0.87,0.04c0.3,0.03,0.58,0.08,0.86,0.16c0.28,0.08,0.54,0.19,0.78,0.34s0.46,0.34,0.64,0.57
		c0.18,0.23,0.33,0.52,0.43,0.85c0.11,0.33,0.16,0.73,0.16,1.19v0.09h-0.75V25.4z M292.38,24.39c0-0.14-0.02-0.28-0.07-0.42
		c-0.05-0.14-0.11-0.26-0.2-0.37c-0.09-0.11-0.19-0.22-0.3-0.3c-0.12-0.09-0.25-0.16-0.39-0.21h-0.27c-0.29,0-0.56,0.03-0.79,0.1
		s-0.43,0.16-0.58,0.28c-0.16,0.12-0.28,0.25-0.37,0.4c-0.08,0.15-0.13,0.32-0.13,0.49c0,0.2,0.04,0.37,0.12,0.52
		c0.08,0.15,0.19,0.28,0.33,0.38c0.14,0.1,0.3,0.18,0.49,0.24s0.39,0.08,0.61,0.08c0.19,0,0.38-0.02,0.57-0.07
		c0.19-0.05,0.35-0.12,0.5-0.22s0.26-0.22,0.35-0.37S292.38,24.59,292.38,24.39z"/>
	<path class="st6" d="M291.97,19.54l-3.3-0.33v-3.4h0.82v2.69l1.77,0.19c-0.08-0.13-0.14-0.29-0.2-0.47s-0.09-0.39-0.09-0.63
		c0-0.31,0.05-0.58,0.16-0.82s0.26-0.45,0.45-0.62s0.43-0.3,0.7-0.39c0.27-0.09,0.58-0.14,0.91-0.14c0.32,0,0.61,0.04,0.88,0.13
		c0.27,0.08,0.5,0.21,0.7,0.38c0.2,0.17,0.35,0.39,0.46,0.65c0.11,0.26,0.17,0.57,0.17,0.92c0,0.27-0.04,0.52-0.11,0.76
		c-0.08,0.24-0.19,0.45-0.34,0.64c-0.15,0.19-0.34,0.34-0.57,0.46c-0.23,0.12-0.5,0.19-0.81,0.23v-0.8
		c0.38-0.05,0.66-0.19,0.86-0.42s0.29-0.52,0.29-0.87c0-0.2-0.04-0.38-0.11-0.53s-0.17-0.28-0.31-0.39
		c-0.13-0.1-0.29-0.18-0.48-0.24c-0.18-0.05-0.39-0.08-0.62-0.08c-0.21,0-0.4,0.03-0.58,0.09c-0.18,0.06-0.33,0.15-0.47,0.26
		c-0.13,0.11-0.24,0.25-0.31,0.41s-0.11,0.35-0.11,0.56c0,0.14,0.01,0.26,0.03,0.36c0.02,0.1,0.05,0.19,0.08,0.28
		c0.04,0.08,0.08,0.16,0.13,0.23s0.11,0.15,0.18,0.22L291.97,19.54z"/>
</g>
<line class="st8" x1="260.88" y1="615.45" x2="260.88" y2="220"/>
<g>
	<path class="st6" d="M263.92,206.5v0.84h-5.55l0.66,1.73h-0.77l-0.96-2.51v-0.07H263.92z"/>
	<path class="st6" d="M263.92,200.04v0.84h-5.55l0.66,1.73h-0.77l-0.96-2.51v-0.07H263.92z"/>
	<path class="st6" d="M263.38,194.85c-0.09,0-0.18-0.01-0.25-0.04c-0.08-0.03-0.15-0.07-0.21-0.12c-0.06-0.05-0.11-0.12-0.14-0.21
		s-0.05-0.18-0.05-0.29s0.02-0.21,0.05-0.29s0.08-0.15,0.14-0.21c0.06-0.06,0.13-0.1,0.21-0.13c0.08-0.03,0.16-0.04,0.25-0.04
		c0.09,0,0.17,0.02,0.25,0.04c0.08,0.03,0.14,0.07,0.2,0.13c0.06,0.06,0.1,0.12,0.13,0.21c0.03,0.08,0.05,0.18,0.05,0.29
		s-0.02,0.21-0.05,0.29c-0.03,0.08-0.08,0.15-0.13,0.21s-0.12,0.1-0.2,0.12C263.55,194.83,263.47,194.85,263.38,194.85z"/>
	<path class="st6" d="M260.6,189.55l-3.3-0.33v-3.4h0.82v2.69l1.77,0.19c-0.08-0.13-0.14-0.29-0.2-0.47s-0.09-0.39-0.09-0.63
		c0-0.31,0.05-0.58,0.16-0.82c0.11-0.24,0.26-0.45,0.45-0.62s0.43-0.3,0.7-0.39c0.27-0.09,0.58-0.14,0.91-0.14
		c0.32,0,0.61,0.04,0.88,0.13c0.27,0.08,0.5,0.21,0.7,0.38c0.2,0.17,0.35,0.39,0.46,0.65c0.11,0.26,0.17,0.57,0.17,0.92
		c0,0.27-0.04,0.52-0.11,0.76c-0.08,0.24-0.19,0.45-0.34,0.64c-0.15,0.19-0.34,0.34-0.57,0.46c-0.23,0.12-0.5,0.2-0.81,0.23v-0.8
		c0.38-0.05,0.66-0.19,0.86-0.42s0.29-0.52,0.29-0.87c0-0.2-0.04-0.38-0.11-0.53c-0.07-0.16-0.17-0.29-0.31-0.39
		c-0.13-0.1-0.29-0.18-0.48-0.24c-0.18-0.05-0.39-0.08-0.62-0.08c-0.21,0-0.4,0.03-0.58,0.09c-0.18,0.06-0.33,0.14-0.47,0.26
		c-0.13,0.11-0.24,0.25-0.31,0.41s-0.11,0.35-0.11,0.56c0,0.14,0.01,0.26,0.03,0.36s0.05,0.19,0.08,0.28s0.08,0.16,0.13,0.23
		c0.05,0.07,0.11,0.14,0.18,0.22L260.6,189.55z"/>
	<path class="st6" d="M257.29,180.28h0.76v0.07c0,0.28,0.03,0.53,0.09,0.75c0.06,0.22,0.14,0.41,0.24,0.58
		c0.1,0.17,0.22,0.31,0.36,0.43c0.14,0.12,0.29,0.22,0.45,0.3c0.16,0.08,0.33,0.14,0.51,0.18c0.18,0.04,0.36,0.07,0.55,0.08
		c-0.09-0.08-0.18-0.17-0.26-0.27c-0.08-0.1-0.15-0.21-0.21-0.33c-0.06-0.12-0.11-0.25-0.14-0.39c-0.04-0.14-0.05-0.28-0.05-0.43
		c0-0.33,0.06-0.62,0.19-0.86s0.29-0.44,0.5-0.59s0.44-0.27,0.7-0.34c0.26-0.07,0.53-0.11,0.8-0.11c0.31,0,0.6,0.04,0.87,0.13
		c0.27,0.09,0.51,0.22,0.72,0.39s0.37,0.39,0.48,0.64c0.12,0.26,0.18,0.55,0.18,0.89c0,0.24-0.04,0.46-0.1,0.66
		c-0.07,0.2-0.17,0.38-0.28,0.53c-0.12,0.16-0.26,0.3-0.43,0.42c-0.16,0.12-0.34,0.22-0.53,0.29c-0.19,0.08-0.38,0.14-0.59,0.18
		c-0.2,0.04-0.41,0.06-0.61,0.06h-0.4c-0.3,0-0.61-0.02-0.91-0.06c-0.31-0.04-0.6-0.1-0.88-0.19c-0.28-0.09-0.54-0.21-0.79-0.37
		s-0.46-0.35-0.63-0.58s-0.32-0.51-0.42-0.84c-0.1-0.33-0.15-0.7-0.15-1.14V180.28z M260.28,181.38c0,0.14,0.02,0.28,0.07,0.42
		c0.05,0.13,0.11,0.26,0.19,0.37s0.18,0.22,0.3,0.3s0.24,0.16,0.38,0.21h0.28c0.29,0,0.55-0.03,0.78-0.1
		c0.23-0.07,0.42-0.16,0.57-0.28c0.16-0.12,0.27-0.25,0.35-0.41c0.08-0.15,0.12-0.32,0.12-0.49c0-0.2-0.04-0.37-0.11-0.52
		c-0.08-0.15-0.18-0.28-0.31-0.38c-0.13-0.11-0.29-0.18-0.48-0.24c-0.19-0.05-0.39-0.08-0.61-0.08c-0.19,0-0.38,0.02-0.57,0.07
		c-0.18,0.05-0.35,0.12-0.49,0.22s-0.26,0.23-0.34,0.38C260.32,181,260.28,181.18,260.28,181.38z"/>
	<path class="st6" d="M257.77,172.73l6.16,2.74v0.88l-5.89-2.74v3.59h-0.74v-4.48H257.77z"/>
</g>
<line class="st8" x1="229.68" y1="615.45" x2="229.68" y2="391"/>
<g>
	<path class="st6" d="M225.09,377.45h0.76v0.07c0,0.28,0.03,0.53,0.09,0.75s0.14,0.41,0.24,0.58c0.1,0.17,0.22,0.31,0.36,0.43
		c0.14,0.12,0.29,0.22,0.45,0.3c0.16,0.08,0.33,0.14,0.51,0.18c0.18,0.04,0.36,0.07,0.55,0.08c-0.09-0.08-0.18-0.17-0.26-0.27
		c-0.08-0.1-0.15-0.21-0.21-0.33c-0.06-0.12-0.11-0.25-0.14-0.39c-0.04-0.14-0.05-0.28-0.05-0.43c0-0.33,0.06-0.62,0.19-0.86
		c0.13-0.24,0.29-0.44,0.5-0.59c0.21-0.15,0.44-0.27,0.7-0.34c0.26-0.07,0.53-0.11,0.8-0.11c0.31,0,0.6,0.04,0.87,0.13
		c0.27,0.09,0.51,0.22,0.72,0.39c0.21,0.17,0.37,0.39,0.48,0.64c0.12,0.26,0.18,0.55,0.18,0.89c0,0.24-0.04,0.46-0.1,0.66
		s-0.17,0.38-0.28,0.54c-0.12,0.16-0.26,0.3-0.43,0.41s-0.34,0.22-0.53,0.29c-0.19,0.08-0.38,0.14-0.59,0.17
		c-0.2,0.04-0.41,0.06-0.61,0.06h-0.4c-0.3,0-0.61-0.02-0.91-0.06c-0.31-0.04-0.6-0.1-0.88-0.19c-0.28-0.09-0.54-0.21-0.79-0.37
		c-0.24-0.16-0.46-0.35-0.63-0.58s-0.32-0.52-0.42-0.84c-0.1-0.33-0.15-0.7-0.15-1.14V377.45z M228.08,378.55
		c0,0.14,0.02,0.28,0.07,0.41s0.11,0.26,0.19,0.37s0.18,0.22,0.3,0.31c0.12,0.09,0.24,0.16,0.38,0.21h0.28
		c0.29,0,0.55-0.04,0.78-0.1c0.23-0.07,0.42-0.16,0.57-0.28c0.16-0.12,0.27-0.25,0.35-0.41c0.08-0.15,0.12-0.32,0.12-0.49
		c0-0.2-0.04-0.37-0.11-0.52c-0.08-0.15-0.18-0.28-0.31-0.38c-0.13-0.1-0.29-0.18-0.48-0.24s-0.39-0.08-0.61-0.08
		c-0.19,0-0.38,0.02-0.57,0.07s-0.35,0.12-0.49,0.22c-0.14,0.1-0.26,0.23-0.34,0.38C228.12,378.17,228.08,378.35,228.08,378.55z"/>
	<path class="st6" d="M231.18,372.62c-0.09,0-0.18-0.01-0.25-0.04c-0.08-0.03-0.15-0.07-0.21-0.13c-0.06-0.05-0.11-0.12-0.14-0.2
		c-0.03-0.08-0.05-0.18-0.05-0.29s0.02-0.21,0.05-0.29c0.03-0.08,0.08-0.15,0.14-0.21c0.06-0.06,0.13-0.1,0.21-0.13
		c0.08-0.03,0.16-0.04,0.25-0.04c0.09,0,0.17,0.01,0.25,0.04c0.08,0.03,0.14,0.07,0.2,0.13c0.06,0.06,0.1,0.13,0.13,0.21
		c0.03,0.08,0.05,0.18,0.05,0.29s-0.02,0.21-0.05,0.29c-0.03,0.08-0.08,0.15-0.13,0.2s-0.12,0.1-0.2,0.13
		C231.35,372.61,231.27,372.62,231.18,372.62z"/>
	<path class="st6" d="M228.4,367.33l-3.3-0.33v-3.4h0.82v2.69l1.77,0.19c-0.08-0.13-0.14-0.29-0.2-0.47
		c-0.06-0.18-0.09-0.39-0.09-0.63c0-0.31,0.05-0.58,0.16-0.82s0.26-0.45,0.45-0.62s0.43-0.3,0.7-0.39c0.27-0.09,0.58-0.14,0.91-0.14
		c0.32,0,0.61,0.04,0.88,0.13c0.27,0.08,0.5,0.21,0.7,0.38c0.2,0.17,0.35,0.39,0.46,0.65s0.17,0.57,0.17,0.92
		c0,0.27-0.04,0.52-0.11,0.76c-0.08,0.24-0.19,0.45-0.34,0.64c-0.15,0.19-0.34,0.34-0.57,0.46c-0.23,0.12-0.5,0.19-0.81,0.22v-0.8
		c0.38-0.05,0.66-0.19,0.86-0.42c0.19-0.23,0.29-0.52,0.29-0.87c0-0.2-0.04-0.38-0.11-0.53c-0.07-0.15-0.17-0.28-0.31-0.39
		c-0.13-0.11-0.29-0.18-0.48-0.24c-0.18-0.05-0.39-0.08-0.62-0.08c-0.21,0-0.4,0.03-0.58,0.09c-0.18,0.06-0.33,0.15-0.47,0.26
		c-0.13,0.11-0.24,0.25-0.31,0.41s-0.11,0.35-0.11,0.56c0,0.14,0.01,0.26,0.03,0.36s0.05,0.19,0.08,0.28s0.08,0.16,0.13,0.23
		s0.11,0.15,0.18,0.22L228.4,367.33z"/>
	<path class="st6" d="M228.01,360.18v-0.6c0-0.21-0.03-0.4-0.09-0.56s-0.14-0.3-0.24-0.41c-0.1-0.11-0.22-0.19-0.36-0.25
		s-0.29-0.09-0.46-0.09c-0.38,0-0.68,0.1-0.87,0.3c-0.2,0.2-0.29,0.49-0.29,0.87c0,0.18,0.03,0.34,0.08,0.49
		c0.05,0.15,0.13,0.27,0.23,0.38c0.1,0.1,0.22,0.19,0.36,0.24s0.3,0.09,0.47,0.09v0.85c-0.25,0-0.49-0.05-0.71-0.15
		c-0.22-0.1-0.42-0.24-0.58-0.42c-0.17-0.18-0.3-0.39-0.39-0.64c-0.1-0.25-0.14-0.53-0.14-0.83c0-0.3,0.04-0.57,0.12-0.82
		c0.08-0.25,0.2-0.46,0.36-0.63c0.16-0.18,0.35-0.31,0.59-0.41c0.23-0.1,0.5-0.15,0.81-0.15c0.13,0,0.26,0.02,0.4,0.06
		c0.14,0.04,0.27,0.1,0.4,0.18c0.13,0.08,0.25,0.19,0.36,0.32c0.11,0.13,0.21,0.28,0.29,0.46c0.07-0.22,0.16-0.4,0.27-0.54
		c0.11-0.14,0.24-0.26,0.38-0.35c0.14-0.09,0.29-0.15,0.44-0.18c0.15-0.04,0.31-0.05,0.46-0.05c0.31,0,0.58,0.05,0.82,0.16
		c0.24,0.11,0.44,0.25,0.61,0.44c0.17,0.19,0.29,0.41,0.38,0.67c0.09,0.26,0.13,0.53,0.13,0.83c0,0.29-0.04,0.57-0.12,0.82
		c-0.08,0.26-0.2,0.48-0.36,0.67c-0.16,0.19-0.35,0.34-0.58,0.45c-0.23,0.11-0.49,0.17-0.78,0.17v-0.84c0.17,0,0.33-0.03,0.47-0.09
		c0.14-0.06,0.26-0.14,0.36-0.25c0.1-0.11,0.18-0.24,0.23-0.4s0.08-0.33,0.08-0.52s-0.02-0.36-0.08-0.52
		c-0.05-0.16-0.13-0.29-0.23-0.4s-0.23-0.19-0.38-0.25c-0.15-0.06-0.33-0.09-0.54-0.09c-0.21,0-0.38,0.03-0.54,0.1
		s-0.28,0.16-0.38,0.29c-0.1,0.12-0.17,0.27-0.22,0.45c-0.05,0.17-0.07,0.37-0.07,0.58v0.6H228.01z"/>
	<path class="st6" d="M225.09,351.6h0.76v0.07c0,0.28,0.03,0.53,0.09,0.75s0.14,0.41,0.24,0.58c0.1,0.17,0.22,0.31,0.36,0.43
		c0.14,0.12,0.29,0.22,0.45,0.3c0.16,0.08,0.33,0.14,0.51,0.18c0.18,0.04,0.36,0.07,0.55,0.08c-0.09-0.08-0.18-0.17-0.26-0.27
		c-0.08-0.1-0.15-0.21-0.21-0.33c-0.06-0.12-0.11-0.25-0.14-0.39c-0.04-0.14-0.05-0.28-0.05-0.43c0-0.33,0.06-0.62,0.19-0.86
		c0.13-0.24,0.29-0.44,0.5-0.59c0.21-0.15,0.44-0.27,0.7-0.34c0.26-0.07,0.53-0.11,0.8-0.11c0.31,0,0.6,0.04,0.87,0.13
		c0.27,0.09,0.51,0.22,0.72,0.39c0.21,0.17,0.37,0.39,0.48,0.64c0.12,0.26,0.18,0.55,0.18,0.89c0,0.24-0.04,0.46-0.1,0.66
		s-0.17,0.38-0.28,0.54c-0.12,0.16-0.26,0.3-0.43,0.41s-0.34,0.22-0.53,0.29c-0.19,0.08-0.38,0.14-0.59,0.17
		c-0.2,0.04-0.41,0.06-0.61,0.06h-0.4c-0.3,0-0.61-0.02-0.91-0.06c-0.31-0.04-0.6-0.1-0.88-0.19c-0.28-0.09-0.54-0.21-0.79-0.37
		c-0.24-0.16-0.46-0.35-0.63-0.58s-0.32-0.52-0.42-0.84c-0.1-0.33-0.15-0.7-0.15-1.14V351.6z M228.08,352.7
		c0,0.14,0.02,0.28,0.07,0.41s0.11,0.26,0.19,0.37s0.18,0.22,0.3,0.31c0.12,0.09,0.24,0.16,0.38,0.21h0.28
		c0.29,0,0.55-0.04,0.78-0.1c0.23-0.07,0.42-0.16,0.57-0.28c0.16-0.12,0.27-0.25,0.35-0.41c0.08-0.15,0.12-0.32,0.12-0.49
		c0-0.2-0.04-0.37-0.11-0.52c-0.08-0.15-0.18-0.28-0.31-0.38c-0.13-0.1-0.29-0.18-0.48-0.24s-0.39-0.08-0.61-0.08
		c-0.19,0-0.38,0.02-0.57,0.07s-0.35,0.12-0.49,0.22c-0.14,0.1-0.26,0.23-0.34,0.38C228.12,352.32,228.08,352.5,228.08,352.7z"/>
</g>
<line class="st8" x1="198.81" y1="615.45" x2="198.81" y2="457"/>
<g>
	<path class="st6" d="M199.75,443.04v-0.92h0.69v0.92h1.54v0.84h-1.54v3.02h-0.5l-4.59-2.97v-0.9H199.75z M199.75,445.97v-2.09
		h-3.28l0.25,0.14L199.75,445.97z"/>
	<path class="st6" d="M201.43,438.53c-0.09,0-0.18-0.01-0.25-0.04c-0.08-0.03-0.15-0.07-0.21-0.13c-0.06-0.05-0.11-0.12-0.14-0.2
		c-0.03-0.08-0.05-0.18-0.05-0.29s0.02-0.21,0.05-0.29c0.03-0.08,0.08-0.15,0.14-0.21c0.06-0.06,0.13-0.1,0.21-0.13
		c0.08-0.03,0.16-0.04,0.25-0.04c0.09,0,0.17,0.01,0.25,0.04c0.08,0.03,0.14,0.07,0.2,0.13c0.06,0.06,0.1,0.13,0.13,0.21
		c0.03,0.08,0.05,0.18,0.05,0.29s-0.02,0.21-0.05,0.29c-0.03,0.08-0.08,0.15-0.13,0.2s-0.12,0.1-0.2,0.13
		C201.6,438.51,201.52,438.53,201.43,438.53z"/>
	<path class="st6" d="M195.34,430.43h0.76v0.07c0,0.28,0.03,0.53,0.09,0.75s0.14,0.41,0.24,0.58c0.1,0.17,0.22,0.31,0.36,0.43
		c0.14,0.12,0.29,0.22,0.45,0.3c0.16,0.08,0.33,0.14,0.51,0.18c0.18,0.04,0.36,0.07,0.55,0.08c-0.09-0.08-0.18-0.17-0.26-0.27
		c-0.08-0.1-0.15-0.21-0.21-0.33c-0.06-0.12-0.11-0.25-0.14-0.39c-0.04-0.14-0.05-0.28-0.05-0.43c0-0.33,0.06-0.62,0.19-0.86
		c0.13-0.24,0.29-0.44,0.5-0.59c0.21-0.15,0.44-0.27,0.7-0.34c0.26-0.07,0.53-0.11,0.8-0.11c0.31,0,0.6,0.04,0.87,0.13
		c0.27,0.09,0.51,0.22,0.72,0.39c0.21,0.17,0.37,0.39,0.48,0.64c0.12,0.26,0.18,0.55,0.18,0.89c0,0.24-0.04,0.46-0.1,0.66
		s-0.17,0.38-0.28,0.54c-0.12,0.16-0.26,0.3-0.43,0.41s-0.34,0.22-0.53,0.29c-0.19,0.08-0.38,0.14-0.59,0.17
		c-0.2,0.04-0.41,0.06-0.61,0.06h-0.4c-0.3,0-0.61-0.02-0.91-0.06c-0.31-0.04-0.6-0.1-0.88-0.19c-0.28-0.09-0.54-0.21-0.79-0.37
		c-0.24-0.16-0.46-0.35-0.63-0.58s-0.32-0.52-0.42-0.84c-0.1-0.33-0.15-0.7-0.15-1.14V430.43z M198.33,431.53
		c0,0.14,0.02,0.28,0.07,0.41s0.11,0.26,0.19,0.37s0.18,0.22,0.3,0.31c0.12,0.09,0.24,0.16,0.38,0.21h0.28
		c0.29,0,0.55-0.04,0.78-0.1c0.23-0.07,0.42-0.16,0.57-0.28c0.16-0.12,0.27-0.25,0.35-0.41c0.08-0.15,0.12-0.32,0.12-0.49
		c0-0.2-0.04-0.37-0.11-0.52c-0.08-0.15-0.18-0.28-0.31-0.38c-0.13-0.1-0.29-0.18-0.48-0.24s-0.39-0.08-0.61-0.08
		c-0.19,0-0.38,0.02-0.57,0.07s-0.35,0.12-0.49,0.22c-0.14,0.1-0.26,0.23-0.34,0.38C198.37,431.15,198.33,431.33,198.33,431.53z"/>
	<path class="st6" d="M199.75,423.66v-0.92h0.69v0.92h1.54v0.84h-1.54v3.02h-0.5l-4.59-2.97v-0.9H199.75z M199.75,426.59v-2.09
		h-3.28l0.25,0.14L199.75,426.59z"/>
	<path class="st6" d="M195.82,416.41l6.16,2.75v0.88l-5.89-2.74v3.59h-0.74v-4.48H195.82z"/>
</g>
<line class="st8" x1="167.61" y1="615.45" x2="167.61" y2="506"/>
<g>
	<path class="st6" d="M167.62,494.17v-0.6c0-0.21-0.03-0.4-0.09-0.56s-0.14-0.3-0.24-0.41c-0.1-0.11-0.22-0.19-0.36-0.25
		s-0.29-0.09-0.46-0.09c-0.38,0-0.68,0.1-0.87,0.3c-0.2,0.2-0.29,0.49-0.29,0.87c0,0.18,0.03,0.34,0.08,0.49
		c0.05,0.15,0.13,0.27,0.23,0.38c0.1,0.1,0.22,0.19,0.36,0.24s0.3,0.09,0.47,0.09v0.85c-0.25,0-0.49-0.05-0.71-0.15
		c-0.22-0.1-0.42-0.24-0.58-0.42c-0.17-0.18-0.3-0.39-0.39-0.64c-0.1-0.25-0.14-0.53-0.14-0.83c0-0.3,0.04-0.57,0.12-0.82
		c0.08-0.25,0.2-0.46,0.36-0.63c0.16-0.18,0.35-0.31,0.59-0.41c0.23-0.1,0.5-0.15,0.81-0.15c0.13,0,0.26,0.02,0.4,0.06
		c0.14,0.04,0.27,0.1,0.4,0.18c0.13,0.08,0.25,0.19,0.36,0.32c0.11,0.13,0.21,0.28,0.29,0.46c0.07-0.22,0.16-0.4,0.27-0.54
		c0.11-0.14,0.24-0.26,0.38-0.35c0.14-0.09,0.29-0.15,0.44-0.18c0.15-0.04,0.31-0.05,0.46-0.05c0.31,0,0.58,0.05,0.82,0.16
		c0.24,0.11,0.44,0.25,0.61,0.44c0.17,0.19,0.29,0.41,0.38,0.67c0.09,0.26,0.13,0.53,0.13,0.83c0,0.29-0.04,0.57-0.12,0.82
		c-0.08,0.26-0.2,0.48-0.36,0.67c-0.16,0.19-0.35,0.34-0.58,0.45c-0.23,0.11-0.49,0.17-0.78,0.17v-0.84c0.17,0,0.33-0.03,0.47-0.09
		c0.14-0.06,0.26-0.14,0.36-0.25c0.1-0.11,0.18-0.24,0.23-0.4s0.08-0.33,0.08-0.52s-0.02-0.36-0.08-0.52
		c-0.05-0.16-0.13-0.29-0.23-0.4s-0.23-0.19-0.38-0.25c-0.15-0.06-0.33-0.09-0.54-0.09c-0.21,0-0.38,0.03-0.54,0.1
		s-0.28,0.16-0.38,0.29c-0.1,0.12-0.17,0.27-0.22,0.45c-0.05,0.17-0.07,0.37-0.07,0.58v0.6H167.62z"/>
	<path class="st6" d="M170.79,487.22c-0.09,0-0.18-0.01-0.25-0.04c-0.08-0.03-0.15-0.07-0.21-0.13c-0.06-0.05-0.11-0.12-0.14-0.2
		c-0.03-0.08-0.05-0.18-0.05-0.29s0.02-0.21,0.05-0.29c0.03-0.08,0.08-0.15,0.14-0.21c0.06-0.06,0.13-0.1,0.21-0.13
		c0.08-0.03,0.16-0.04,0.25-0.04c0.09,0,0.17,0.01,0.25,0.04c0.08,0.03,0.14,0.07,0.2,0.13c0.06,0.06,0.1,0.13,0.13,0.21
		c0.03,0.08,0.05,0.18,0.05,0.29s-0.02,0.21-0.05,0.29c-0.03,0.08-0.08,0.15-0.13,0.2s-0.12,0.1-0.2,0.13
		C170.96,487.21,170.88,487.22,170.79,487.22z"/>
	<path class="st6" d="M171.34,479.49v0.84h-5.55l0.66,1.73h-0.77l-0.96-2.51v-0.07H171.34z"/>
	<path class="st6" d="M170.59,474.86c0-0.3-0.03-0.56-0.08-0.79s-0.13-0.43-0.23-0.59c-0.1-0.17-0.21-0.31-0.34-0.42
		c-0.13-0.11-0.28-0.2-0.44-0.28c-0.16-0.07-0.33-0.12-0.51-0.16c-0.18-0.03-0.36-0.05-0.54-0.06c0.09,0.07,0.18,0.16,0.26,0.25
		c0.08,0.09,0.15,0.2,0.21,0.32c0.06,0.12,0.11,0.25,0.14,0.39c0.04,0.14,0.05,0.3,0.05,0.47c0,0.33-0.06,0.61-0.19,0.85
		s-0.3,0.43-0.51,0.59c-0.21,0.15-0.45,0.27-0.71,0.34c-0.26,0.07-0.53,0.11-0.8,0.11c-0.31,0-0.61-0.04-0.89-0.13
		c-0.28-0.09-0.52-0.22-0.73-0.39c-0.21-0.17-0.37-0.38-0.5-0.64s-0.18-0.55-0.18-0.89c0-0.25,0.04-0.48,0.11-0.69
		s0.17-0.39,0.3-0.54s0.27-0.29,0.45-0.4c0.17-0.11,0.36-0.2,0.55-0.28c0.2-0.07,0.41-0.12,0.62-0.16c0.22-0.03,0.43-0.05,0.65-0.05
		h0.3c0.28,0,0.57,0.01,0.87,0.04s0.58,0.08,0.86,0.16c0.28,0.08,0.54,0.19,0.78,0.34s0.46,0.33,0.64,0.57
		c0.18,0.23,0.33,0.52,0.43,0.85c0.11,0.33,0.16,0.73,0.16,1.19v0.09h-0.75V474.86z M168.42,473.85c0-0.14-0.02-0.28-0.07-0.42
		c-0.05-0.13-0.11-0.26-0.2-0.37c-0.09-0.11-0.19-0.21-0.3-0.3c-0.12-0.09-0.25-0.16-0.39-0.21h-0.27c-0.29,0-0.56,0.03-0.79,0.1
		s-0.43,0.16-0.58,0.28c-0.16,0.12-0.28,0.25-0.37,0.41s-0.13,0.32-0.13,0.49c0,0.2,0.04,0.37,0.12,0.52
		c0.08,0.15,0.19,0.28,0.33,0.38c0.14,0.11,0.3,0.18,0.49,0.24s0.39,0.08,0.61,0.08c0.19,0,0.38-0.02,0.57-0.07
		c0.19-0.05,0.35-0.12,0.5-0.22s0.26-0.22,0.35-0.37S168.42,474.05,168.42,473.85z"/>
	<path class="st6" d="M166.44,465.22c0.33,0,0.62,0.09,0.88,0.27c0.26,0.18,0.46,0.41,0.61,0.71c0.07-0.17,0.16-0.32,0.27-0.46
		c0.11-0.14,0.23-0.26,0.37-0.35s0.29-0.17,0.46-0.23c0.16-0.05,0.34-0.08,0.52-0.08c0.3,0,0.57,0.06,0.8,0.17
		c0.23,0.11,0.43,0.26,0.59,0.45s0.28,0.41,0.36,0.67s0.12,0.53,0.12,0.82c0,0.3-0.04,0.57-0.12,0.83c-0.08,0.26-0.2,0.48-0.36,0.67
		s-0.36,0.34-0.59,0.45s-0.5,0.16-0.81,0.16c-0.19,0-0.36-0.03-0.53-0.08c-0.17-0.05-0.32-0.13-0.46-0.22
		c-0.14-0.1-0.26-0.21-0.37-0.35c-0.11-0.14-0.2-0.29-0.27-0.46c-0.07,0.15-0.16,0.28-0.26,0.4s-0.22,0.22-0.34,0.3
		s-0.26,0.15-0.41,0.19c-0.15,0.05-0.3,0.07-0.47,0.07c-0.29,0-0.55-0.05-0.77-0.15c-0.23-0.1-0.42-0.23-0.57-0.4
		c-0.16-0.17-0.27-0.38-0.36-0.62s-0.12-0.5-0.12-0.78c0-0.28,0.04-0.54,0.12-0.78c0.08-0.24,0.2-0.45,0.36-0.62
		c0.15-0.18,0.34-0.31,0.57-0.41C165.89,465.27,166.15,465.22,166.44,465.22z M166.45,466.07c-0.17,0-0.32,0.03-0.46,0.08
		c-0.14,0.06-0.26,0.13-0.36,0.23c-0.1,0.1-0.18,0.22-0.24,0.35c-0.06,0.14-0.08,0.29-0.08,0.45s0.03,0.31,0.08,0.45
		c0.05,0.13,0.13,0.25,0.23,0.35c0.1,0.1,0.22,0.17,0.36,0.23c0.14,0.05,0.3,0.08,0.47,0.08s0.33-0.03,0.47-0.08
		c0.14-0.05,0.26-0.13,0.35-0.23s0.17-0.22,0.23-0.35c0.05-0.14,0.08-0.29,0.08-0.45c0-0.16-0.03-0.31-0.08-0.45
		c-0.05-0.14-0.13-0.25-0.23-0.35s-0.22-0.17-0.36-0.23C166.78,466.1,166.62,466.07,166.45,466.07z M169.53,465.92
		c-0.18,0-0.35,0.03-0.51,0.09c-0.15,0.06-0.29,0.15-0.4,0.26c-0.11,0.11-0.2,0.25-0.26,0.4s-0.09,0.33-0.09,0.51
		c0,0.19,0.03,0.36,0.09,0.52c0.06,0.15,0.15,0.29,0.26,0.4c0.11,0.11,0.24,0.19,0.4,0.25c0.16,0.06,0.33,0.09,0.51,0.09
		c0.19,0,0.36-0.03,0.51-0.09s0.28-0.14,0.38-0.25s0.18-0.24,0.24-0.4s0.08-0.33,0.08-0.53c0-0.19-0.03-0.36-0.08-0.51
		c-0.05-0.16-0.13-0.29-0.24-0.4c-0.1-0.11-0.23-0.2-0.38-0.26S169.72,465.92,169.53,465.92z"/>
</g>
<line class="st8" x1="136.09" y1="615.45" x2="136.09" y2="535"/>
<g>
	<path class="st6" d="M139.14,517.6v4.34h-0.61l-2.41-2.17c-0.21-0.19-0.41-0.36-0.57-0.49c-0.17-0.13-0.32-0.24-0.46-0.31
		c-0.14-0.08-0.27-0.13-0.4-0.17c-0.13-0.03-0.26-0.05-0.39-0.05c-0.16,0-0.32,0.03-0.46,0.08c-0.14,0.05-0.27,0.13-0.38,0.23
		s-0.19,0.22-0.25,0.37c-0.06,0.14-0.09,0.31-0.09,0.49c0,0.22,0.03,0.41,0.1,0.58s0.15,0.3,0.27,0.41
		c0.12,0.11,0.26,0.19,0.43,0.24c0.17,0.05,0.35,0.08,0.56,0.08v0.85c-0.28,0-0.54-0.05-0.79-0.15c-0.25-0.1-0.46-0.24-0.65-0.42
		c-0.18-0.18-0.33-0.41-0.44-0.67c-0.11-0.26-0.16-0.57-0.16-0.91c0-0.31,0.05-0.59,0.14-0.84c0.09-0.25,0.22-0.46,0.38-0.64
		c0.16-0.17,0.36-0.31,0.58-0.4c0.22-0.09,0.47-0.14,0.73-0.14c0.2,0,0.39,0.03,0.58,0.1c0.19,0.07,0.38,0.16,0.57,0.27
		c0.19,0.11,0.37,0.25,0.56,0.4s0.37,0.31,0.55,0.48l1.93,1.78v-3.33H139.14z"/>
	<path class="st6" d="M138.59,513.74c-0.09,0-0.18-0.01-0.25-0.04c-0.08-0.03-0.15-0.07-0.21-0.13c-0.06-0.05-0.11-0.12-0.14-0.2
		c-0.03-0.08-0.05-0.18-0.05-0.29s0.02-0.21,0.05-0.29c0.03-0.08,0.08-0.15,0.14-0.21c0.06-0.06,0.13-0.1,0.21-0.13
		c0.08-0.03,0.16-0.04,0.25-0.04c0.09,0,0.17,0.01,0.25,0.04c0.08,0.03,0.14,0.07,0.2,0.13c0.06,0.06,0.1,0.13,0.13,0.21
		c0.03,0.08,0.05,0.18,0.05,0.29s-0.02,0.21-0.05,0.29c-0.03,0.08-0.08,0.15-0.13,0.2s-0.12,0.1-0.2,0.13
		C138.76,513.73,138.68,513.74,138.59,513.74z"/>
	<path class="st6" d="M135.42,507.76v-0.6c0-0.21-0.03-0.4-0.09-0.56s-0.14-0.3-0.24-0.41c-0.1-0.11-0.22-0.19-0.36-0.25
		s-0.29-0.09-0.46-0.09c-0.38,0-0.68,0.1-0.87,0.3c-0.2,0.2-0.29,0.49-0.29,0.87c0,0.18,0.03,0.34,0.08,0.49
		c0.05,0.15,0.13,0.27,0.23,0.38c0.1,0.1,0.22,0.19,0.36,0.24s0.3,0.09,0.47,0.09v0.85c-0.25,0-0.49-0.05-0.71-0.15
		c-0.22-0.1-0.42-0.24-0.58-0.42c-0.17-0.18-0.3-0.39-0.39-0.64c-0.1-0.25-0.14-0.53-0.14-0.83c0-0.3,0.04-0.57,0.12-0.82
		c0.08-0.25,0.2-0.46,0.36-0.63c0.16-0.18,0.35-0.31,0.59-0.41c0.23-0.1,0.5-0.15,0.81-0.15c0.13,0,0.26,0.02,0.4,0.06
		c0.14,0.04,0.27,0.1,0.4,0.18c0.13,0.08,0.25,0.19,0.36,0.32c0.11,0.13,0.21,0.28,0.29,0.46c0.07-0.22,0.16-0.4,0.27-0.54
		c0.11-0.14,0.24-0.26,0.38-0.35c0.14-0.09,0.29-0.15,0.44-0.18c0.15-0.04,0.31-0.05,0.46-0.05c0.31,0,0.58,0.05,0.82,0.16
		c0.24,0.11,0.44,0.25,0.61,0.44c0.17,0.19,0.29,0.41,0.38,0.67c0.09,0.26,0.13,0.53,0.13,0.83c0,0.29-0.04,0.57-0.12,0.82
		c-0.08,0.26-0.2,0.48-0.36,0.67c-0.16,0.19-0.35,0.34-0.58,0.45c-0.23,0.11-0.49,0.17-0.78,0.17v-0.84c0.17,0,0.33-0.03,0.47-0.09
		c0.14-0.06,0.26-0.14,0.36-0.25c0.1-0.11,0.18-0.24,0.23-0.4s0.08-0.33,0.08-0.52s-0.02-0.36-0.08-0.52
		c-0.05-0.16-0.13-0.29-0.23-0.4s-0.23-0.19-0.38-0.25c-0.15-0.06-0.33-0.09-0.54-0.09c-0.21,0-0.38,0.03-0.54,0.1
		s-0.28,0.16-0.38,0.29c-0.1,0.12-0.17,0.27-0.22,0.45c-0.05,0.17-0.07,0.37-0.07,0.58v0.6H135.42z"/>
	<path class="st6" d="M135.81,501.98l-3.3-0.33v-3.4h0.82v2.69l1.77,0.19c-0.08-0.13-0.14-0.29-0.2-0.47
		c-0.06-0.18-0.09-0.39-0.09-0.63c0-0.31,0.05-0.58,0.16-0.82s0.26-0.45,0.45-0.62s0.43-0.3,0.7-0.39c0.27-0.09,0.58-0.14,0.91-0.14
		c0.32,0,0.61,0.04,0.88,0.13c0.27,0.08,0.5,0.21,0.7,0.38c0.2,0.17,0.35,0.39,0.46,0.65s0.17,0.57,0.17,0.92
		c0,0.27-0.04,0.52-0.11,0.76c-0.08,0.24-0.19,0.45-0.34,0.64c-0.15,0.19-0.34,0.34-0.57,0.46c-0.23,0.12-0.5,0.19-0.81,0.22v-0.8
		c0.38-0.05,0.66-0.19,0.86-0.42c0.19-0.23,0.29-0.52,0.29-0.87c0-0.2-0.04-0.38-0.11-0.53c-0.07-0.15-0.17-0.28-0.31-0.39
		c-0.13-0.11-0.29-0.18-0.48-0.24c-0.18-0.05-0.39-0.08-0.62-0.08c-0.21,0-0.4,0.03-0.58,0.09c-0.18,0.06-0.33,0.15-0.47,0.26
		c-0.13,0.11-0.24,0.25-0.31,0.41s-0.11,0.35-0.11,0.56c0,0.14,0.01,0.26,0.03,0.36s0.05,0.19,0.08,0.28s0.08,0.16,0.13,0.23
		s0.11,0.15,0.18,0.22L135.81,501.98z"/>
	<path class="st6" d="M132.5,492.72h0.76v0.07c0,0.28,0.03,0.53,0.09,0.75s0.14,0.41,0.24,0.58c0.1,0.17,0.22,0.31,0.36,0.43
		c0.14,0.12,0.29,0.22,0.45,0.3c0.16,0.08,0.33,0.14,0.51,0.18c0.18,0.04,0.36,0.07,0.55,0.08c-0.09-0.08-0.18-0.17-0.26-0.27
		c-0.08-0.1-0.15-0.21-0.21-0.33c-0.06-0.12-0.11-0.25-0.14-0.39c-0.04-0.14-0.05-0.28-0.05-0.43c0-0.33,0.06-0.62,0.19-0.86
		c0.13-0.24,0.29-0.44,0.5-0.59c0.21-0.15,0.44-0.27,0.7-0.34c0.26-0.07,0.53-0.11,0.8-0.11c0.31,0,0.6,0.04,0.87,0.13
		c0.27,0.09,0.51,0.22,0.72,0.39c0.21,0.17,0.37,0.39,0.48,0.64c0.12,0.26,0.18,0.55,0.18,0.89c0,0.24-0.04,0.46-0.1,0.66
		s-0.17,0.38-0.28,0.54c-0.12,0.16-0.26,0.3-0.43,0.41s-0.34,0.22-0.53,0.29c-0.19,0.08-0.38,0.14-0.59,0.17
		c-0.2,0.04-0.41,0.06-0.61,0.06h-0.4c-0.3,0-0.61-0.02-0.91-0.06c-0.31-0.04-0.6-0.1-0.88-0.19c-0.28-0.09-0.54-0.21-0.79-0.37
		c-0.24-0.16-0.46-0.35-0.63-0.58s-0.32-0.52-0.42-0.84c-0.1-0.33-0.15-0.7-0.15-1.14V492.72z M135.49,493.82
		c0,0.14,0.02,0.28,0.07,0.41s0.11,0.26,0.19,0.37s0.18,0.22,0.3,0.31c0.12,0.09,0.24,0.16,0.38,0.21h0.28
		c0.29,0,0.55-0.04,0.78-0.1c0.23-0.07,0.42-0.16,0.57-0.28c0.16-0.12,0.27-0.25,0.35-0.41c0.08-0.15,0.12-0.32,0.12-0.49
		c0-0.2-0.04-0.37-0.11-0.52c-0.08-0.15-0.18-0.28-0.31-0.38c-0.13-0.1-0.29-0.18-0.48-0.24s-0.39-0.08-0.61-0.08
		c-0.19,0-0.38,0.02-0.57,0.07s-0.35,0.12-0.49,0.22c-0.14,0.1-0.26,0.23-0.34,0.38C135.53,493.44,135.49,493.62,135.49,493.82z"/>
</g>
<line class="st8" x1="105.22" y1="615.45" x2="105.22" y2="539"/>
<g>
	<path class="st6" d="M107.94,522.76v4.34h-0.61l-2.41-2.17c-0.21-0.19-0.41-0.36-0.57-0.49c-0.17-0.13-0.32-0.24-0.46-0.31
		c-0.14-0.08-0.27-0.13-0.4-0.17c-0.13-0.03-0.26-0.05-0.39-0.05c-0.16,0-0.32,0.03-0.46,0.08c-0.14,0.05-0.27,0.13-0.38,0.23
		s-0.19,0.22-0.25,0.37c-0.06,0.14-0.09,0.31-0.09,0.49c0,0.22,0.03,0.41,0.1,0.58s0.15,0.3,0.27,0.41
		c0.12,0.11,0.26,0.19,0.43,0.24c0.17,0.05,0.35,0.08,0.56,0.08v0.85c-0.28,0-0.54-0.05-0.79-0.15c-0.25-0.1-0.46-0.24-0.65-0.42
		c-0.18-0.18-0.33-0.41-0.44-0.67c-0.11-0.26-0.16-0.57-0.16-0.91c0-0.31,0.05-0.59,0.14-0.84c0.09-0.25,0.22-0.46,0.38-0.64
		c0.16-0.17,0.36-0.31,0.58-0.4c0.22-0.09,0.47-0.14,0.73-0.14c0.2,0,0.39,0.03,0.58,0.1c0.19,0.07,0.38,0.16,0.57,0.27
		c0.19,0.11,0.37,0.25,0.56,0.4s0.37,0.31,0.55,0.48l1.93,1.78v-3.33H107.94z"/>
	<path class="st6" d="M107.4,518.9c-0.09,0-0.18-0.01-0.25-0.04c-0.08-0.03-0.15-0.07-0.21-0.13c-0.06-0.05-0.11-0.12-0.14-0.2
		c-0.03-0.08-0.05-0.18-0.05-0.29s0.02-0.21,0.05-0.29c0.03-0.08,0.08-0.15,0.14-0.21c0.06-0.06,0.13-0.1,0.21-0.13
		c0.08-0.03,0.16-0.04,0.25-0.04c0.09,0,0.17,0.01,0.25,0.04c0.08,0.03,0.14,0.07,0.2,0.13c0.06,0.06,0.1,0.13,0.13,0.21
		c0.03,0.08,0.05,0.18,0.05,0.29s-0.02,0.21-0.05,0.29c-0.03,0.08-0.08,0.15-0.13,0.2s-0.12,0.1-0.2,0.13
		C107.57,518.88,107.49,518.9,107.4,518.9z"/>
	<path class="st6" d="M107.94,509.83v4.34h-0.61l-2.41-2.17c-0.21-0.19-0.41-0.36-0.57-0.49c-0.17-0.13-0.32-0.24-0.46-0.31
		c-0.14-0.08-0.27-0.13-0.4-0.17c-0.13-0.03-0.26-0.05-0.39-0.05c-0.16,0-0.32,0.03-0.46,0.08c-0.14,0.05-0.27,0.13-0.38,0.23
		s-0.19,0.22-0.25,0.37c-0.06,0.14-0.09,0.31-0.09,0.49c0,0.22,0.03,0.41,0.1,0.58s0.15,0.3,0.27,0.41
		c0.12,0.11,0.26,0.19,0.43,0.24c0.17,0.05,0.35,0.08,0.56,0.08v0.85c-0.28,0-0.54-0.05-0.79-0.15c-0.25-0.1-0.46-0.24-0.65-0.42
		c-0.18-0.18-0.33-0.41-0.44-0.67c-0.11-0.26-0.16-0.57-0.16-0.91c0-0.31,0.05-0.59,0.14-0.84c0.09-0.25,0.22-0.46,0.38-0.64
		c0.16-0.17,0.36-0.31,0.58-0.4c0.22-0.09,0.47-0.14,0.73-0.14c0.2,0,0.39,0.03,0.58,0.1c0.19,0.07,0.38,0.16,0.57,0.27
		c0.19,0.11,0.37,0.25,0.56,0.4s0.37,0.31,0.55,0.48l1.93,1.78v-3.33H107.94z"/>
	<path class="st6" d="M104.62,507.14l-3.3-0.33v-3.4h0.82v2.69l1.77,0.19c-0.08-0.13-0.14-0.29-0.2-0.47
		c-0.06-0.18-0.09-0.39-0.09-0.63c0-0.31,0.05-0.58,0.16-0.82s0.26-0.45,0.45-0.62s0.43-0.3,0.7-0.39c0.27-0.09,0.58-0.14,0.91-0.14
		c0.32,0,0.61,0.04,0.88,0.13c0.27,0.08,0.5,0.21,0.7,0.38c0.2,0.17,0.35,0.39,0.46,0.65s0.17,0.57,0.17,0.92
		c0,0.27-0.04,0.52-0.11,0.76c-0.08,0.24-0.19,0.45-0.34,0.64c-0.15,0.19-0.34,0.34-0.57,0.46c-0.23,0.12-0.5,0.19-0.81,0.22v-0.8
		c0.38-0.05,0.66-0.19,0.86-0.42c0.19-0.23,0.29-0.52,0.29-0.87c0-0.2-0.04-0.38-0.11-0.53c-0.07-0.15-0.17-0.28-0.31-0.39
		c-0.13-0.11-0.29-0.18-0.48-0.24c-0.18-0.05-0.39-0.08-0.62-0.08c-0.21,0-0.4,0.03-0.58,0.09c-0.18,0.06-0.33,0.15-0.47,0.26
		c-0.13,0.11-0.24,0.25-0.31,0.41s-0.11,0.35-0.11,0.56c0,0.14,0.01,0.26,0.03,0.36s0.05,0.19,0.08,0.28s0.08,0.16,0.13,0.23
		s0.11,0.15,0.18,0.22L104.62,507.14z"/>
	<path class="st6" d="M105.72,497.56v-0.92h0.69v0.92h1.54v0.84h-1.54v3.02h-0.5l-4.59-2.97v-0.9H105.72z M105.72,500.49v-2.09
		h-3.28l0.25,0.14L105.72,500.49z"/>
</g>
<line class="st8" x1="73.86" y1="615.45" x2="73.86" y2="557"/>
<g>
	<path class="st6" d="M76.75,543.2v0.84h-5.55l0.66,1.73h-0.77l-0.96-2.51v-0.07H76.75z"/>
	<path class="st6" d="M76.2,538.01c-0.09,0-0.18-0.01-0.25-0.04c-0.08-0.03-0.15-0.07-0.21-0.13s-0.11-0.12-0.14-0.2
		c-0.03-0.08-0.05-0.18-0.05-0.29s0.02-0.21,0.05-0.29c0.03-0.08,0.08-0.15,0.14-0.21c0.06-0.06,0.13-0.1,0.21-0.13
		c0.08-0.03,0.16-0.04,0.25-0.04c0.09,0,0.17,0.01,0.25,0.04c0.08,0.03,0.14,0.07,0.2,0.13c0.06,0.06,0.1,0.13,0.13,0.21
		c0.03,0.08,0.05,0.18,0.05,0.29s-0.02,0.21-0.05,0.29c-0.03,0.08-0.08,0.15-0.13,0.2c-0.06,0.05-0.12,0.1-0.2,0.13
		C76.37,537.99,76.29,538.01,76.2,538.01z"/>
	<path class="st6" d="M70.11,529.91h0.75v0.07c0,0.28,0.03,0.53,0.09,0.75s0.14,0.41,0.24,0.58c0.1,0.17,0.22,0.31,0.36,0.43
		c0.14,0.12,0.29,0.22,0.45,0.3s0.34,0.14,0.51,0.18c0.18,0.04,0.36,0.07,0.55,0.08c-0.09-0.08-0.18-0.17-0.26-0.27
		s-0.15-0.21-0.21-0.33c-0.06-0.12-0.11-0.25-0.14-0.39c-0.03-0.14-0.05-0.28-0.05-0.43c0-0.33,0.06-0.62,0.19-0.86
		c0.13-0.24,0.29-0.44,0.5-0.59c0.21-0.15,0.44-0.27,0.7-0.34c0.26-0.07,0.53-0.11,0.8-0.11c0.31,0,0.6,0.04,0.87,0.13
		c0.27,0.09,0.51,0.22,0.72,0.39c0.21,0.17,0.37,0.39,0.49,0.64s0.18,0.55,0.18,0.89c0,0.24-0.03,0.46-0.1,0.66
		c-0.07,0.2-0.17,0.38-0.29,0.54c-0.12,0.16-0.26,0.3-0.43,0.41s-0.34,0.22-0.53,0.29c-0.19,0.08-0.38,0.14-0.59,0.17
		c-0.2,0.04-0.41,0.06-0.61,0.06h-0.4c-0.3,0-0.61-0.02-0.91-0.06c-0.31-0.04-0.6-0.1-0.88-0.19c-0.28-0.09-0.54-0.21-0.79-0.37
		c-0.24-0.16-0.46-0.35-0.63-0.58c-0.18-0.24-0.32-0.52-0.42-0.84c-0.1-0.33-0.15-0.7-0.15-1.14V529.91z M73.1,531.01
		c0,0.14,0.02,0.28,0.07,0.41c0.04,0.13,0.11,0.26,0.19,0.37c0.08,0.12,0.18,0.22,0.3,0.31c0.12,0.09,0.24,0.16,0.38,0.21h0.28
		c0.29,0,0.55-0.04,0.78-0.1c0.23-0.07,0.42-0.16,0.57-0.28c0.16-0.12,0.27-0.25,0.35-0.41c0.08-0.15,0.12-0.32,0.12-0.49
		c0-0.2-0.04-0.37-0.11-0.52c-0.08-0.15-0.18-0.28-0.31-0.38c-0.13-0.1-0.29-0.18-0.48-0.24c-0.19-0.05-0.39-0.08-0.61-0.08
		c-0.19,0-0.38,0.02-0.57,0.07s-0.35,0.12-0.49,0.22c-0.14,0.1-0.26,0.23-0.34,0.38C73.14,530.63,73.1,530.81,73.1,531.01z"/>
	<path class="st6" d="M73.03,525.57v-0.6c0-0.21-0.03-0.4-0.09-0.56c-0.06-0.16-0.14-0.3-0.24-0.41c-0.1-0.11-0.22-0.19-0.36-0.25
		c-0.14-0.06-0.29-0.09-0.46-0.09c-0.39,0-0.68,0.1-0.87,0.3s-0.29,0.49-0.29,0.87c0,0.18,0.03,0.34,0.08,0.49s0.13,0.27,0.23,0.38
		c0.1,0.1,0.22,0.19,0.36,0.24c0.14,0.06,0.3,0.09,0.47,0.09v0.85c-0.25,0-0.49-0.05-0.71-0.15c-0.22-0.1-0.42-0.24-0.58-0.42
		c-0.17-0.18-0.29-0.39-0.39-0.64c-0.1-0.25-0.14-0.53-0.14-0.83c0-0.3,0.04-0.57,0.12-0.82c0.08-0.25,0.2-0.46,0.36-0.63
		c0.16-0.18,0.35-0.31,0.59-0.41c0.23-0.1,0.5-0.15,0.81-0.15c0.13,0,0.26,0.02,0.4,0.06c0.14,0.04,0.27,0.1,0.4,0.18
		s0.25,0.19,0.36,0.32s0.21,0.28,0.28,0.46c0.07-0.22,0.16-0.4,0.27-0.54c0.11-0.14,0.24-0.26,0.38-0.35
		c0.14-0.09,0.29-0.15,0.44-0.18c0.15-0.04,0.31-0.05,0.46-0.05c0.31,0,0.58,0.05,0.82,0.16c0.24,0.11,0.44,0.25,0.61,0.44
		c0.17,0.19,0.29,0.41,0.38,0.67c0.09,0.26,0.13,0.53,0.13,0.83c0,0.29-0.04,0.57-0.12,0.82c-0.08,0.26-0.2,0.48-0.36,0.67
		c-0.16,0.19-0.35,0.34-0.58,0.45c-0.23,0.11-0.49,0.17-0.78,0.17v-0.84c0.17,0,0.33-0.03,0.47-0.09c0.14-0.06,0.26-0.14,0.36-0.25
		s0.18-0.24,0.23-0.4s0.08-0.33,0.08-0.52s-0.03-0.36-0.08-0.52c-0.05-0.16-0.13-0.29-0.23-0.4c-0.1-0.11-0.23-0.19-0.38-0.25
		c-0.15-0.06-0.33-0.09-0.54-0.09c-0.21,0-0.38,0.03-0.54,0.1s-0.28,0.16-0.38,0.29s-0.17,0.27-0.22,0.45
		c-0.05,0.17-0.07,0.37-0.07,0.58v0.6H73.03z"/>
	<path class="st6" d="M76.75,516.02v4.34h-0.61l-2.41-2.17c-0.22-0.19-0.41-0.36-0.57-0.49c-0.17-0.13-0.32-0.24-0.46-0.31
		c-0.14-0.08-0.27-0.13-0.4-0.17c-0.13-0.03-0.26-0.05-0.39-0.05c-0.16,0-0.32,0.03-0.46,0.08s-0.27,0.13-0.38,0.23
		c-0.11,0.1-0.19,0.22-0.25,0.37c-0.06,0.14-0.09,0.31-0.09,0.49c0,0.22,0.03,0.41,0.1,0.58c0.06,0.16,0.15,0.3,0.27,0.41
		c0.12,0.11,0.26,0.19,0.43,0.24c0.17,0.05,0.35,0.08,0.56,0.08v0.85c-0.28,0-0.54-0.05-0.79-0.15c-0.25-0.1-0.46-0.24-0.65-0.42
		s-0.33-0.41-0.44-0.67c-0.11-0.26-0.16-0.57-0.16-0.91c0-0.31,0.05-0.59,0.14-0.84c0.09-0.25,0.22-0.46,0.38-0.64
		c0.16-0.17,0.36-0.31,0.58-0.4c0.22-0.09,0.47-0.14,0.73-0.14c0.2,0,0.39,0.03,0.58,0.1s0.38,0.16,0.57,0.27
		c0.19,0.11,0.38,0.25,0.56,0.4s0.37,0.31,0.55,0.48l1.93,1.78v-3.33H76.75z"/>
</g>
<line class="st8" x1="42.82" y1="615.45" x2="42.82" y2="562"/>
<g>
	<path class="st6" d="M45.55,548.21v0.84h-5.55l0.66,1.73h-0.77l-0.97-2.51v-0.07H45.55z"/>
	<path class="st6" d="M45,543.01c-0.09,0-0.18-0.01-0.25-0.04c-0.08-0.03-0.15-0.07-0.21-0.13c-0.06-0.05-0.11-0.12-0.14-0.2
		c-0.03-0.08-0.05-0.18-0.05-0.29s0.02-0.21,0.05-0.29c0.03-0.08,0.08-0.15,0.14-0.21c0.06-0.06,0.13-0.1,0.21-0.13
		c0.08-0.03,0.16-0.04,0.25-0.04c0.09,0,0.17,0.01,0.25,0.04c0.08,0.03,0.15,0.07,0.2,0.13c0.06,0.06,0.1,0.13,0.13,0.21
		c0.03,0.08,0.05,0.18,0.05,0.29s-0.02,0.21-0.05,0.29c-0.03,0.08-0.08,0.15-0.13,0.2s-0.12,0.1-0.2,0.13
		C45.17,543,45.09,543.01,45,543.01z"/>
	<path class="st6" d="M38.92,534.91h0.76v0.07c0,0.28,0.03,0.53,0.09,0.75c0.06,0.22,0.14,0.41,0.24,0.58
		c0.1,0.17,0.22,0.31,0.36,0.43c0.14,0.12,0.29,0.22,0.45,0.3s0.34,0.14,0.52,0.18c0.18,0.04,0.36,0.07,0.54,0.08
		c-0.09-0.08-0.18-0.17-0.26-0.27c-0.08-0.1-0.15-0.21-0.21-0.33c-0.06-0.12-0.11-0.25-0.14-0.39c-0.04-0.14-0.05-0.28-0.05-0.43
		c0-0.33,0.06-0.62,0.19-0.86c0.12-0.24,0.29-0.44,0.5-0.59c0.21-0.15,0.44-0.27,0.7-0.34c0.26-0.07,0.53-0.11,0.8-0.11
		c0.31,0,0.6,0.04,0.87,0.13c0.27,0.09,0.51,0.22,0.72,0.39c0.2,0.17,0.37,0.39,0.49,0.64c0.12,0.26,0.18,0.55,0.18,0.89
		c0,0.24-0.03,0.46-0.1,0.66s-0.16,0.38-0.29,0.54c-0.12,0.16-0.26,0.3-0.42,0.41c-0.16,0.12-0.34,0.22-0.53,0.29
		c-0.19,0.08-0.38,0.14-0.59,0.17c-0.2,0.04-0.41,0.06-0.61,0.06h-0.4c-0.3,0-0.61-0.02-0.91-0.06c-0.3-0.04-0.6-0.1-0.88-0.19
		c-0.28-0.09-0.54-0.21-0.79-0.37c-0.24-0.16-0.46-0.35-0.63-0.58s-0.32-0.52-0.42-0.84c-0.1-0.33-0.15-0.7-0.15-1.14V534.91z
		 M41.9,536.01c0,0.14,0.02,0.28,0.07,0.41s0.11,0.26,0.19,0.37s0.18,0.22,0.29,0.31c0.12,0.09,0.24,0.16,0.38,0.21h0.28
		c0.29,0,0.55-0.04,0.78-0.1c0.23-0.07,0.42-0.16,0.57-0.28s0.27-0.25,0.35-0.41c0.08-0.15,0.12-0.32,0.12-0.49
		c0-0.2-0.04-0.37-0.11-0.52c-0.08-0.15-0.18-0.28-0.31-0.38c-0.13-0.1-0.29-0.18-0.48-0.24s-0.39-0.08-0.61-0.08
		c-0.19,0-0.38,0.02-0.57,0.07s-0.35,0.12-0.49,0.22c-0.14,0.1-0.26,0.23-0.34,0.38C41.95,535.63,41.9,535.81,41.9,536.01z"/>
	<path class="st6" d="M45.55,527.49v4.34h-0.61l-2.41-2.17c-0.22-0.19-0.41-0.36-0.57-0.49c-0.17-0.13-0.32-0.24-0.46-0.31
		s-0.27-0.13-0.4-0.17c-0.12-0.03-0.26-0.05-0.39-0.05c-0.16,0-0.32,0.03-0.46,0.08c-0.14,0.05-0.27,0.13-0.38,0.23
		c-0.11,0.1-0.19,0.22-0.25,0.37c-0.06,0.14-0.09,0.31-0.09,0.49c0,0.22,0.03,0.41,0.1,0.58c0.06,0.16,0.15,0.3,0.27,0.41
		c0.12,0.11,0.26,0.19,0.43,0.24c0.17,0.05,0.35,0.08,0.56,0.08v0.85c-0.28,0-0.54-0.05-0.79-0.15c-0.25-0.1-0.46-0.24-0.65-0.42
		c-0.19-0.18-0.33-0.41-0.44-0.67c-0.11-0.26-0.16-0.57-0.16-0.91c0-0.31,0.05-0.59,0.14-0.84c0.09-0.25,0.22-0.46,0.38-0.64
		c0.16-0.17,0.36-0.31,0.58-0.4c0.22-0.09,0.47-0.14,0.73-0.14c0.2,0,0.39,0.03,0.59,0.1c0.19,0.07,0.38,0.16,0.57,0.27
		c0.19,0.11,0.38,0.25,0.56,0.4s0.37,0.31,0.55,0.48l1.93,1.78v-3.33H45.55z"/>
	<path class="st6" d="M45.55,521.02v4.34h-0.61l-2.41-2.17c-0.22-0.19-0.41-0.36-0.57-0.49c-0.17-0.13-0.32-0.24-0.46-0.31
		s-0.27-0.13-0.4-0.17c-0.12-0.03-0.26-0.05-0.39-0.05c-0.16,0-0.32,0.03-0.46,0.08c-0.14,0.05-0.27,0.13-0.38,0.23
		c-0.11,0.1-0.19,0.22-0.25,0.37c-0.06,0.14-0.09,0.31-0.09,0.49c0,0.22,0.03,0.41,0.1,0.58c0.06,0.16,0.15,0.3,0.27,0.41
		c0.12,0.11,0.26,0.19,0.43,0.24c0.17,0.05,0.35,0.08,0.56,0.08v0.85c-0.28,0-0.54-0.05-0.79-0.15c-0.25-0.1-0.46-0.24-0.65-0.42
		c-0.19-0.18-0.33-0.41-0.44-0.67c-0.11-0.26-0.16-0.57-0.16-0.91c0-0.31,0.05-0.59,0.14-0.84c0.09-0.25,0.22-0.46,0.38-0.64
		c0.16-0.17,0.36-0.31,0.58-0.4c0.22-0.09,0.47-0.14,0.73-0.14c0.2,0,0.39,0.03,0.59,0.1c0.19,0.07,0.38,0.16,0.57,0.27
		c0.19,0.11,0.38,0.25,0.56,0.4s0.37,0.31,0.55,0.48l1.93,1.78v-3.33H45.55z"/>
</g>
<line class="st8" x1="11.63" y1="615.45" x2="11.63" y2="572"/>
<rect x="-7.68" y="-320" class="st1" width="323.14" height="1013.9"/>
<g>
	<path class="st6" d="M14.35,558.34v0.84H8.8l0.66,1.73H8.69l-0.96-2.51v-0.07H14.35z"/>
	<path class="st6" d="M13.81,553.14c-0.09,0-0.18-0.01-0.26-0.04c-0.08-0.03-0.15-0.07-0.21-0.13c-0.06-0.05-0.11-0.12-0.14-0.2
		c-0.03-0.08-0.05-0.18-0.05-0.29s0.02-0.21,0.05-0.29c0.03-0.08,0.08-0.15,0.14-0.21c0.06-0.06,0.13-0.1,0.21-0.13
		c0.08-0.03,0.16-0.04,0.26-0.04c0.09,0,0.17,0.01,0.25,0.04c0.08,0.03,0.14,0.07,0.2,0.13c0.06,0.06,0.1,0.13,0.13,0.21
		c0.03,0.08,0.05,0.18,0.05,0.29s-0.02,0.21-0.05,0.29c-0.03,0.08-0.08,0.15-0.13,0.2s-0.12,0.1-0.2,0.13
		C13.98,553.12,13.89,553.14,13.81,553.14z"/>
	<path class="st6" d="M14.35,544.08v4.34h-0.61l-2.41-2.17c-0.21-0.19-0.41-0.36-0.57-0.49c-0.17-0.13-0.32-0.24-0.46-0.31
		c-0.14-0.08-0.28-0.13-0.4-0.17c-0.13-0.03-0.26-0.05-0.39-0.05c-0.16,0-0.32,0.03-0.46,0.08s-0.27,0.13-0.38,0.23
		s-0.19,0.22-0.25,0.37c-0.06,0.14-0.09,0.31-0.09,0.49c0,0.22,0.03,0.41,0.1,0.58s0.15,0.3,0.27,0.41s0.26,0.19,0.43,0.24
		c0.17,0.05,0.35,0.08,0.56,0.08v0.85c-0.28,0-0.54-0.05-0.79-0.15c-0.25-0.1-0.46-0.24-0.65-0.42c-0.18-0.18-0.33-0.41-0.44-0.67
		c-0.11-0.26-0.16-0.57-0.16-0.91c0-0.31,0.05-0.59,0.14-0.84c0.09-0.25,0.22-0.46,0.38-0.64c0.16-0.17,0.36-0.31,0.58-0.4
		c0.22-0.09,0.47-0.14,0.73-0.14c0.2,0,0.39,0.03,0.58,0.1c0.19,0.07,0.38,0.16,0.57,0.27c0.19,0.11,0.37,0.25,0.56,0.4
		s0.37,0.31,0.55,0.48l1.93,1.78v-3.33H14.35z"/>
	<path class="st6" d="M7.72,538.58h0.75v0.07c0,0.28,0.03,0.53,0.09,0.75c0.06,0.22,0.14,0.41,0.24,0.58
		c0.1,0.17,0.22,0.31,0.36,0.43c0.14,0.12,0.29,0.22,0.45,0.3s0.33,0.14,0.51,0.18c0.18,0.04,0.36,0.07,0.55,0.08
		c-0.09-0.08-0.18-0.17-0.26-0.27s-0.15-0.21-0.21-0.33c-0.06-0.12-0.11-0.25-0.14-0.39c-0.03-0.14-0.05-0.28-0.05-0.43
		c0-0.33,0.06-0.62,0.19-0.86c0.13-0.24,0.29-0.44,0.5-0.59c0.21-0.15,0.44-0.27,0.7-0.34c0.26-0.07,0.53-0.11,0.8-0.11
		c0.31,0,0.6,0.04,0.88,0.13c0.27,0.09,0.51,0.22,0.72,0.39c0.21,0.17,0.37,0.39,0.48,0.64c0.12,0.26,0.18,0.55,0.18,0.89
		c0,0.24-0.04,0.46-0.1,0.66s-0.17,0.38-0.28,0.54c-0.12,0.16-0.26,0.3-0.43,0.41s-0.34,0.22-0.53,0.29
		c-0.19,0.08-0.38,0.14-0.59,0.17c-0.2,0.04-0.41,0.06-0.61,0.06h-0.4c-0.3,0-0.61-0.02-0.91-0.06c-0.31-0.04-0.6-0.1-0.88-0.19
		c-0.28-0.09-0.54-0.21-0.79-0.37c-0.24-0.16-0.46-0.35-0.63-0.58s-0.32-0.52-0.42-0.84c-0.1-0.33-0.16-0.7-0.16-1.14V538.58z
		 M10.71,539.68c0,0.14,0.02,0.28,0.07,0.41s0.11,0.26,0.19,0.37c0.08,0.12,0.18,0.22,0.3,0.31c0.12,0.09,0.24,0.16,0.38,0.21h0.28
		c0.29,0,0.55-0.04,0.78-0.1c0.23-0.07,0.42-0.16,0.57-0.28s0.27-0.25,0.35-0.41c0.08-0.15,0.12-0.32,0.12-0.49
		c0-0.2-0.04-0.37-0.11-0.52c-0.08-0.15-0.18-0.28-0.31-0.38c-0.13-0.1-0.29-0.18-0.48-0.24s-0.39-0.08-0.61-0.08
		c-0.19,0-0.38,0.02-0.57,0.07s-0.35,0.12-0.49,0.22c-0.14,0.1-0.26,0.23-0.34,0.38C10.75,539.3,10.71,539.48,10.71,539.68z"/>
	<path class="st6" d="M11.82,531.06c0.42,0,0.8,0.05,1.12,0.15c0.33,0.1,0.6,0.24,0.82,0.42c0.22,0.18,0.39,0.41,0.51,0.67
		c0.12,0.26,0.17,0.57,0.17,0.91c0,0.34-0.06,0.64-0.17,0.9c-0.12,0.27-0.28,0.49-0.51,0.68c-0.22,0.18-0.5,0.33-0.82,0.43
		s-0.7,0.15-1.12,0.15h-1.55c-0.42,0-0.8-0.05-1.12-0.15c-0.33-0.1-0.6-0.24-0.83-0.42s-0.4-0.41-0.51-0.67
		c-0.12-0.27-0.17-0.57-0.17-0.9c0-0.34,0.06-0.64,0.17-0.91c0.12-0.27,0.29-0.49,0.51-0.67c0.22-0.18,0.5-0.32,0.83-0.42
		c0.33-0.1,0.7-0.15,1.12-0.15H11.82z M11.65,534.5l-1.98-2.58c-0.44,0.05-0.77,0.18-1,0.38c-0.23,0.21-0.34,0.51-0.34,0.9
		c0,0.44,0.15,0.77,0.45,0.98s0.73,0.32,1.31,0.32H11.65z M10.47,531.91l1.97,2.58c0.43-0.05,0.75-0.18,0.98-0.4
		c0.22-0.21,0.34-0.51,0.34-0.89c0-0.45-0.15-0.77-0.46-0.98c-0.3-0.21-0.74-0.31-1.31-0.31H10.47z"/>
</g>
<rect x="-7.68" y="-320" class="st1" width="323.14" height="1013.9"/>
</svg>
