<?xml version="1.0" encoding="utf-8"?>
<!-- Generator: Adobe Illustrator 27.0.1, SVG Export Plug-In . SVG Version: 6.00 Build 0)  -->
<svg version="1.1" id="Capa_1" xmlns="http://www.w3.org/2000/svg" xmlns:xlink="http://www.w3.org/1999/xlink" x="0px" y="0px"
	 viewBox="0 0 899 349" style="enable-background:new 0 0 899 349;" xml:space="preserve">
<style type="text/css">
	.st0{opacity:0.15;fill:#55A0B8;}
	.st1{opacity:0.5;}
	.st2{fill:none;}
	.st3{fill:none;stroke:#1D1D1B;stroke-width:0.25;stroke-linecap:round;stroke-linejoin:round;}
	.st4{opacity:0.35;}
	.st5{fill:none;stroke:#1D1D1B;stroke-width:0.25;stroke-linecap:round;stroke-linejoin:round;stroke-dasharray:0,0.751;}
	.st6{fill:none;stroke:#55A0B8;stroke-width:50;}
	.st7{fill:none;stroke:#55A0B8;stroke-width:10;}
	.st8{fill:#55A0B8;}
	.st9{font-family:'RobotoMono-Regular';}
	.st10{font-size:9.3234px;}
	.st11{fill:#1D1D1B;}
	
		.st12{opacity:0.5;fill:none;stroke:#1D1D1B;stroke-width:0.25;stroke-linecap:round;stroke-linejoin:round;stroke-dasharray:0,0.751;}
</style>
<text transform="matrix(1 0 0 1 0.2559 42.5732)"><tspan x="0" y="0" class="st8 st9 st10">NICARAGU</tspan><tspan x="51.69" y="0" class="st8 st9 st10">A</tspan></text>
<text transform="matrix(1 0 0 1 0.5381 73.6465)"><tspan x="0" y="0" class="st8 st9 st10">AFGANISTA</tspan><tspan x="58.16" y="0" class="st8 st9 st10">N</tspan></text>
<text transform="matrix(1 0 0 1 0.0371 104.7227)"><tspan x="0" y="0" class="st8 st9 st10">PAKISTA</tspan><tspan x="45.23" y="0" class="st8 st9 st10">N</tspan></text>
<text transform="matrix(1 0 0 1 0.2646 135.7983)"><tspan x="0" y="0" class="st8 st9 st10">HONDURE</tspan><tspan x="45.23" y="0" class="st8 st9 st10">S</tspan></text>
<text transform="matrix(1 0 0 1 0.0381 166.8726)"><tspan x="0" y="0" class="st8 st9 st10">PER</tspan><tspan x="19.39" y="0" class="st8 st9 st10">Ú</tspan></text>
<text transform="matrix(1 0 0 1 0.3691 197.9468)"><tspan x="0" y="0" class="st8 st9 st10">SENEGA</tspan><tspan x="38.77" y="0" class="st8 st9 st10">L</tspan></text>
<text transform="matrix(1 0 0 1 0.2324 229.0229)"><tspan x="0" y="0" class="st8 st9 st10">MAL</tspan><tspan x="19.39" y="0" class="st8 st9 st10">I</tspan></text>
<text transform="matrix(1 0 0 1 0.2314 260.0972)"><tspan x="0" y="0" class="st8 st9 st10">MARRUECO</tspan><tspan x="51.69" y="0" class="st8 st9 st10">S</tspan></text>
<text transform="matrix(1 0 0 1 0.4189 291.1724)"><tspan x="0" y="0" class="st8 st9 st10">COLÒMBI</tspan><tspan x="45.23" y="0" class="st8 st9 st10">A</tspan></text>
<text transform="matrix(1 0 0 1 0.584 322.2476)"><tspan x="0" y="0" class="st8 st9 st10">VENEZUEL</tspan><tspan x="51.69" y="0" class="st8 st9 st10">A</tspan></text>
<g class="st1">
	<text transform="matrix(0 -1 1 0 322.4587 60.521)"><tspan x="0" y="0" class="st11 st9 st10">5.00</tspan><tspan x="25.85" y="0" class="st11 st9 st10">0</tspan></text>
	<text transform="matrix(0 -1 1 0 559.2163 67.4897)"><tspan x="0" y="0" class="st11 st9 st10">10.00</tspan><tspan x="32.31" y="0" class="st11 st9 st10">0</tspan></text>
	<text transform="matrix(0.0158 -0.9999 0.9999 0.0158 796.392 69.15)"><tspan x="0" y="0" class="st11 st9 st10">15.00</tspan><tspan x="32.31" y="0" class="st11 st9 st10">0</tspan></text>
</g>
<path class="st3" d="M72.99,326.51L72.99,326.51 M72.99,30.23L72.99,30.23"/>
<path class="st3" d="M128.93,326.51L128.93,326.51 M128.93,30.23L128.93,30.23"/>
<path class="st3" d="M184.48,326.51L184.48,326.51 M184.48,30.23L184.48,30.23"/>
<path class="st3" d="M240.03,326.51L240.03,326.51 M240.03,30.23L240.03,30.23"/>
<path class="st3" d="M296.75,326.51L296.75,326.51 M296.75,30.23L296.75,30.23"/>
<path class="st3" d="M352.69,326.51L352.69,326.51 M352.69,30.23L352.69,30.23"/>
<path class="st3" d="M408.63,326.51L408.63,326.51 M408.63,30.23L408.63,30.23"/>
<path class="st3" d="M464.18,326.51L464.18,326.51 M464.18,30.23L464.18,30.23"/>
<path class="st3" d="M520.12,326.51L520.12,326.51 M520.12,30.23L520.12,30.23"/>
<path class="st3" d="M576.26,326.51L576.26,326.51 M576.26,30.23L576.26,30.23"/>
<path class="st3" d="M632.39,326.51L632.39,326.51 M632.39,30.23L632.39,30.23"/>
<path class="st3" d="M687.94,326.51L687.94,326.51 M687.94,30.23L687.94,30.23"/>
<path class="st3" d="M743.49,326.51L743.49,326.51 M743.49,30.23L743.49,30.23"/>
<path class="st3" d="M799.05,326.51L799.05,326.51 M799.05,30.23L799.05,30.23"/>
<path class="st3" d="M855.76,326.51L855.76,326.51 M855.76,30.23L855.76,30.23"/>
<g>
	<line class="st5" x1="72.8" y1="30.63" x2="72.8" y2="322"/>
	<line class="st5" x1="120.18" y1="30.63" x2="120.18" y2="322"/>
	<line class="st5" x1="167.57" y1="30.63" x2="167.57" y2="322"/>
	<line class="st5" x1="214.95" y1="30.63" x2="214.95" y2="322"/>
	<line class="st5" x1="262.33" y1="30.63" x2="262.33" y2="322"/>
	<line class="st5" x1="309.71" y1="30.63" x2="309.71" y2="322"/>
	<line class="st5" x1="357.09" y1="30.63" x2="357.09" y2="322"/>
	<line class="st5" x1="404.47" y1="30.63" x2="404.47" y2="322"/>
	<line class="st5" x1="451.85" y1="30.63" x2="451.85" y2="322"/>
	<line class="st5" x1="546.61" y1="30.63" x2="546.61" y2="322"/>
	<line class="st5" x1="641.38" y1="30.63" x2="641.38" y2="322"/>
	<line class="st5" x1="499.23" y1="30.63" x2="499.23" y2="322"/>
	<line class="st5" x1="594" y1="30.63" x2="594" y2="322"/>
	<line class="st5" x1="688.76" y1="30.63" x2="688.76" y2="322"/>
	<line class="st5" x1="736.14" y1="30.63" x2="736.14" y2="322"/>
	<line class="st5" x1="783.52" y1="30.63" x2="783.52" y2="322"/>
</g>
<line class="st7" x1="72.79" y1="318.74" x2="832" y2="318.74"/>
<rect x="832.3" y="313.82" class="st2" width="66.7" height="10.5"/>
<text transform="matrix(1 0 0 1 842.2988 321.7954)"><tspan x="0" y="0" class="st8 st9 st10">15.99</tspan><tspan x="32.31" y="0" class="st8 st9 st10">5</tspan></text>
<line class="st7" x1="72.79" y1="287.38" x2="713" y2="287.38"/>
<g>
	<rect x="712.21" y="283.45" class="st2" width="61.79" height="8.55"/>
	<text transform="matrix(1 0 0 1 722.2129 291.4224)" class="st8 st9 st10">11.567</text>
</g>
<line class="st7" x1="72.79" y1="256.18" x2="383" y2="256.18"/>
<g>
	<rect x="382.75" y="252.25" class="st2" width="46.25" height="8.75"/>
	<text transform="matrix(1 0 0 1 392.7549 260.2251)" class="st8 st9 st10">6.536</text>
</g>
<line class="st7" x1="72.79" y1="225.31" x2="292" y2="225.31"/>
<g>
	<rect x="292.61" y="221.06" class="st2" width="46.25" height="8.94"/>
	<text transform="matrix(1 0 0 1 302.6084 229.0298)" class="st8 st9 st10">4.647</text>
</g>
<line class="st7" x1="72.79" y1="194.11" x2="224" y2="194.11"/>
<g>
	<rect x="224.29" y="189.86" class="st2" width="46.25" height="9.14"/>
	<text transform="matrix(1 0 0 1 234.291 197.8345)" class="st8 st9 st10">3.198</text>
</g>
<line class="st7" x1="72.79" y1="162.59" x2="183" y2="162.59"/>
<g>
	<rect x="182.98" y="159.66" class="st2" width="46.25" height="8.34"/>
	<text transform="matrix(1 0 0 1 192.9824 167.6372)" class="st8 st9 st10">2.356</text>
</g>
<line class="st7" x1="72.79" y1="131.72" x2="180" y2="131.72"/>
<g>
	<rect x="180.18" y="127.47" class="st2" width="46.25" height="8.53"/>
	<text transform="matrix(1 0 0 1 190.1758 135.4419)" class="st8 st9 st10">2.254</text>
</g>
<line class="st7" x1="72.79" y1="100.36" x2="148" y2="100.36"/>
<g>
	<rect x="147.33" y="96.27" class="st2" width="46.25" height="8.73"/>
	<text transform="matrix(1 0 0 1 157.332 104.2456)" class="st8 st9 st10">1.632</text>
</g>
<line class="st7" x1="72.79" y1="69.32" x2="147" y2="69.32"/>
<g>
	<rect x="145.33" y="66.07" class="st2" width="46.25" height="8.93"/>
	<text transform="matrix(1 0 0 1 155.3301 74.0483)" class="st8 st9 st10">1.622</text>
</g>
<line class="st7" x1="72.79" y1="38.13" x2="134" y2="38.13"/>
<g>
	<rect x="134.38" y="34.88" class="st2" width="46.25" height="8.12"/>
	<text transform="matrix(1 0 0 1 144.3809 42.8521)" class="st8 st9 st10">1.260</text>
</g>
</svg>
