<?xml version="1.0" encoding="UTF-8"?>
<svg id="Capa_1" data-name="Capa 1" xmlns="http://www.w3.org/2000/svg" viewBox="0 0 15.75 7.5">
  <defs>
    <style>
      .cls-1 {
        fill: #fff;
      }
    </style>
  </defs>
  <path class="cls-1" d="M5.6,.6c0-.17,.05-.31,.16-.43,.11-.12,.24-.17,.39-.17s.29,.06,.39,.17c.11,.12,.16,.26,.16,.43s-.05,.31-.16,.42c-.11,.12-.24,.17-.39,.17s-.28-.06-.39-.17c-.11-.12-.16-.26-.16-.42m.04,4.71v-.37s.51-.66,.53-1.35c.02-.98-.53-1.5-.53-1.5v-.34h1.03v3.56h-1.03Z"/>
  <path class="cls-1" d="M3.76,4.3c.07,.06,.15,.11,.22,.14,.09,.03,.18,.05,.27,.05,.23,0,.41-.08,.54-.24,.13-.16,.2-.39,.2-.67s-.07-.51-.2-.67c-.13-.16-.31-.24-.54-.24-.09,0-.17,.02-.26,.06-.08,.03-.16,.08-.23,.14v1.43Zm.49,.34c-.11,0-.21-.02-.31-.06-.1-.04-.2-.1-.29-.19l-.02-.02v-1.57l.03-.02c.09-.08,.19-.15,.29-.19,.1-.04,.21-.07,.31-.07,.27,0,.49,.1,.64,.29,.16,.19,.23,.45,.23,.77s-.08,.58-.24,.77c-.16,.19-.37,.29-.64,.29m-1.51,.46c.27,.08,.52,.15,.75,.19,.25,.04,.49,.07,.71,.07,.59,0,1.06-.16,1.39-.47,.33-.31,.49-.74,.49-1.3s-.13-.99-.39-1.31c-.26-.32-.61-.48-1.07-.48-.18,0-.34,.03-.48,.08-.14,.05-.28,.13-.4,.24l-.11,.1V.17h-.88V5.09Zm1.46,.4c-.23,0-.47-.02-.73-.07-.25-.04-.53-.12-.81-.21l-.05-.02V.02h1.16V1.9c.1-.08,.21-.14,.33-.18,.16-.06,.33-.09,.52-.09,.49,0,.88,.18,1.17,.53,.29,.35,.43,.82,.43,1.41s-.18,1.07-.54,1.41c-.35,.34-.85,.51-1.48,.51"/>
  <path class="cls-1" d="M.62,7.06h-.15v.23c0,.14,0,.15-.03,.16h-.01s0,.03,0,.04c.03,0,.04,0,.07,0s.04,0,.06,0c0,0,0-.03,0-.03h-.01s-.03-.03-.03-.17v-.16s0-.03,.03-.03c.02,0,.03,.01,.04,.04,.02,.06,.04,.15,.05,.19,.04,.13,.07,.16,.11,.16,.01,0,.02,0,.02,0,0,0,0-.02,0-.02-.01,0-.03-.02-.04-.04-.04-.07-.07-.18-.11-.34,0-.01,0-.02,0-.03,0,0,0,0,0,0m.25,0h-.04v.23c0,.14,0,.15-.03,.16h-.01s0,.03,0,.04c.03,0,.05,0,.07,0,.02,0,.04,0,.07,0,0,0,0-.03,0-.03h-.01s-.03-.03-.03-.17v-.23Zm-.36-.35v.3s0,.04,0,.04c0,0,0,0,.04,0,.02,0,.04,0,.06-.03,.01-.03,.03-.07,.03-.16,0-.1-.03-.2-.09-.2-.03,0-.04,0-.04,.04m-.33,.35h.08s-.03-.02-.05-.02c-.02,0-.03,0-.03,.02m0,0h-.05v.23c0,.14,0,.15-.03,.16h0s0,.03,0,.04c.02,0,.04,0,.06,0s.05,0,.06,0c.1,0,.14-.1,.14-.25,0-.09-.02-.14-.04-.18h-.07s.06,.12,.06,.21c0,.13-.04,.18-.08,.18-.02,0-.03,0-.04-.04-.01-.03-.01-.09-.01-.14v-.19s0-.01,0-.02m0-.39s0,.01,0,.03v.26s0,.04,.03,.04c.05,0,.08-.04,.08-.17s-.04-.17-.08-.17c-.01,0-.02,0-.02,0m.73-.53c0-.09-.06-.16-.15-.16s-.15,.07-.15,.16,.06,.16,.15,.16,.15-.07,.15-.16m1.47-2.62c0,.3-.07,.54-.22,.72-.14,.17-.34,.26-.59,.26-.1,0-.19-.02-.29-.06-.1-.04-.19-.09-.27-.17v-1.53c.1-.08,.19-.13,.29-.17,.1-.04,.2-.06,.3-.06,.23,0,.42,.09,.56,.27,.14,.18,.21,.42,.21,.72M.98,6.14c0,.12-.1,.22-.22,.22s-.22-.1-.22-.22,.1-.22,.22-.22,.22,.1,.22,.22M3.46,3.53c0-.55-.14-1-.43-1.35-.28-.35-.65-.52-1.11-.52-.19,0-.35,.03-.5,.09-.15,.06-.3,.16-.43,.28v-.29H0V7.06H.14v-.26c0-.1,0-.12-.03-.13h-.02s0-.03,0-.04c.03,0,.07-.01,.12-.01,.03,0,.07,0,.09,.04,.02,.03,.04,.08,.04,.16,0,.09-.02,.14-.06,.18,0,.01,0,.02,.01,.02,.01,0,.02,.02,.04,.04h.14v-.23c0-.12,0-.14-.02-.15h-.02s0-.03,0-.04c.03,0,.07-.01,.12-.01,.03,0,.07,0,.09,.04,.03,.03,.04,.09,.04,.18,0,.12-.04,.19-.07,.21h.21v-.23c0-.14,0-.16-.03-.17h-.01s0-.03,0-.03c.03,0,.05,0,.07,0,.02,0,.04,0,.07,0,0,0,0,.03,0,.03h-.01s-.03,.03-.03,.17v.23h.15v-2.01c.12,.11,.26,.2,.41,.26,.15,.06,.31,.08,.49,.08,.45,0,.82-.17,1.11-.51,.28-.34,.43-.79,.43-1.34"/>
  <path class="cls-1" d="M9.64,6.35v-.42h-.06v.29c-.04,.07-.09,.07-.12,.07-.07,0-.1-.05-.1-.12v-.24h-.06v.25c0,.11,.06,.18,.15,.18,.06,0,.1-.03,.13-.07v.06h.06Zm-.53-.08s-.05,.04-.09,.04c-.02,0-.07-.01-.07-.06s.06-.09,.16-.11v.13Zm.13,0s-.05,.03-.05,.03c0,0-.01,0-.01-.02v-.23s-.02-.13-.14-.13c-.07,0-.11,.03-.14,.05v.07s.07-.06,.13-.06c.08,0,.08,.05,.08,.08v.04c-.17,.03-.23,.09-.23,.15,0,.06,.05,.11,.11,.11,.04,0,.07,0,.12-.05,0,.02,.01,.05,.05,.05,.01,0,.03,0,.08-.04v-.04Zm-.75-.29h.08c.1,0,.16,.05,.16,.15,0,.08-.05,.16-.15,.16-.05,0-.08-.02-.1-.03v-.28Zm-.06-.06v.62h.06v-.22s.05,.02,.11,.02c.13,0,.21-.1,.21-.22,0-.13-.08-.21-.23-.21h-.15Zm-.43,.33s-.05,.04-.09,.04c-.02,0-.07-.01-.07-.06s.06-.09,.16-.11v.13Zm.13,0s-.05,.03-.05,.03c0,0-.01,0-.01-.02v-.23s-.02-.13-.14-.13c-.07,0-.11,.03-.14,.05v.07s.07-.06,.13-.06c.08,0,.08,.05,.08,.08v.04c-.17,.03-.23,.09-.23,.15,0,.06,.05,.11,.11,.11,.04,0,.07,0,.12-.05,0,.02,.01,.05,.05,.05,.01,0,.03,0,.08-.04v-.04Zm-.46-.56h-.06v.63h.06v-.63Zm-.49,.55s-.05,.04-.09,.04c-.02,0-.07-.01-.07-.06s.06-.09,.16-.11v.13Zm.13,0s-.05,.03-.05,.03c0,0-.01,0-.01-.02v-.23s-.02-.13-.14-.13c-.07,0-.11,.03-.13,.05v.07s.07-.06,.13-.06c.08,0,.08,.05,.08,.08v.04c-.17,.03-.23,.09-.23,.15,0,.06,.05,.11,.11,.11,.04,0,.07,0,.12-.05,0,.02,.01,.05,.05,.05,.01,0,.03,0,.08-.04v-.04Zm-.9-.34v.41h.06v-.18s0-.07,.01-.1c.02-.05,.06-.08,.1-.08s.07,.03,.08,.04l.03-.06s-.06-.05-.1-.05c-.03,0-.05,.02-.06,.02-.03,.02-.06,.06-.07,.08v-.09h-.06Zm-.4,.17c.02-.08,.07-.12,.12-.12,.05,0,.11,.03,.12,.12h-.24Zm.3,.03c0-.12-.08-.21-.18-.21-.09,0-.19,.07-.19,.21,0,.11,.07,.22,.21,.22,.09,0,.13-.03,.16-.05v-.06s-.07,.06-.15,.06-.15-.06-.15-.16h.31Zm-.76-.16h.08c.1,0,.16,.05,.16,.15,0,.08-.05,.16-.15,.16-.05,0-.08-.02-.1-.03v-.28Zm-.06-.06v.62h.06v-.22s.05,.02,.11,.02c.13,0,.21-.1,.21-.22,0-.13-.08-.21-.23-.21h-.15Zm-.34,.03s-.06-.04-.12-.04c-.09,0-.13,.06-.13,.11,0,.07,.06,.1,.11,.12,.05,.03,.09,.05,.09,.09,0,.04-.04,.06-.07,.06-.02,0-.07,0-.13-.05v.07s.08,.04,.13,.04c.1,0,.14-.07,.14-.12,0-.06-.05-.09-.08-.11-.1-.05-.13-.07-.13-.1,0-.03,.03-.05,.07-.05s.08,.02,.12,.04v-.06Zm-.39-.2s-.04,.02-.04,.04,.02,.04,.04,.04,.04-.02,.04-.04-.02-.04-.04-.04m.03,.17h-.06v.41h.06v-.41Zm-.26,.33s-.05,.04-.09,.04c-.02,0-.07-.01-.07-.06s.06-.09,.16-.11v.13Zm.13,0s-.05,.03-.05,.03c0,0-.01,0-.01-.02v-.23s-.02-.13-.14-.13c-.07,0-.11,.03-.14,.05v.07s.07-.06,.13-.06c.08,0,.08,.05,.08,.08v.04c-.17,.03-.23,.09-.23,.15,0,.06,.05,.11,.11,.11,.04,0,.07,0,.12-.05,0,.02,.01,.05,.05,.05,.01,0,.03,0,.08-.04v-.04Zm-.75-.29h.08c.1,0,.16,.05,.16,.15,0,.08-.05,.16-.15,.16-.05,0-.08-.02-.1-.03v-.28Zm-.06-.06v.62h.06v-.22s.05,.02,.11,.02c.13,0,.21-.1,.21-.22,0-.13-.08-.21-.23-.21h-.15Zm-.11,.03s-.06-.04-.12-.04c-.09,0-.13,.06-.13,.11,0,.07,.06,.1,.11,.12,.05,.03,.09,.05,.09,.09,0,.04-.04,.06-.07,.06-.02,0-.07,0-.13-.05v.07s.08,.04,.13,.04c.1,0,.14-.07,.14-.12,0-.06-.05-.09-.08-.11-.1-.05-.13-.07-.13-.1,0-.03,.03-.05,.07-.05s.08,.02,.12,.04v-.06Zm-.63,.14c.02-.08,.07-.12,.12-.12,.05,0,.11,.03,.12,.12h-.24Zm.3,.03c0-.12-.08-.21-.18-.21-.09,0-.19,.07-.19,.21,0,.11,.07,.22,.21,.22,.09,0,.13-.03,.16-.05v-.06s-.07,.06-.15,.06-.15-.06-.15-.16h.31Zm-.92-.16h.07v.24c0,.07,.03,.12,.11,.12,.05,0,.08-.02,.1-.02v-.06s-.05,.03-.08,.03c-.06,0-.06-.04-.06-.09v-.22h.12v-.06h-.12v-.1l-.13,.14h0Zm-.4-.05v.41h.06v-.29c.04-.07,.09-.07,.12-.07,.07,0,.1,.05,.1,.12v.24h.06v-.25c0-.11-.06-.18-.15-.18-.06,0-.1,.03-.13,.07v-.06h-.06Zm-.15-.17s-.04,.02-.04,.04,.02,.04,.04,.04,.04-.02,.04-.04-.02-.04-.04-.04m.03,.17h-.06v.41h.06v-.41Zm-.4,0v.41h.06v-.18s0-.07,.01-.1c.02-.05,.06-.08,.1-.08s.07,.03,.08,.04l.03-.06s-.06-.05-.1-.05c-.03,0-.05,.02-.06,.02-.03,.02-.06,.06-.07,.08v-.09h-.06Zm-.41,.11s.09-.06,.12-.06c.07,0,.13,.07,.13,.16,0,.09-.07,.16-.15,.16,0,0-.05,0-.1-.02v-.24Zm-.06,.28s.1,.03,.15,.03c.14,0,.22-.09,.22-.23,0-.11-.07-.21-.18-.21-.07,0-.11,.04-.13,.05v-.26h-.06v.61Z"/>
  <path class="cls-1" d="M13.68,6.84s.01-.07,.01-.08h0s0,.05,.01,.08l.03,.21s0,.04-.01,.04h-.07s-.02,0-.01-.03l.03-.22Zm.1,.51s0,.05,0,.07c0,.01,0,.02-.02,.02h-.02s0,.03,0,.04c.02,0,.04,0,.06,0,.02,0,.04,0,.07,0,0,0,0-.03,0-.03h-.01s-.03-.03-.05-.14l-.07-.52c0-.06-.02-.12-.02-.17,0,0,0-.01,0-.01,0,.02-.02,.04-.03,.05,0,.02,0,.05,0,.09l-.05,.35c-.02,.14-.04,.23-.05,.29,0,.05-.02,.06-.03,.06h-.02s0,.03,0,.04c.01,0,.03,0,.05,0,.03,0,.04,0,.06,0,0,0,0-.03,0-.03h-.02s-.02-.01-.02-.03c0-.01,0-.05,.01-.11l.02-.14s0-.03,.02-.03h.08s.02,0,.02,.03l.02,.18Zm-.38-.14c0-.1,0-.11,.03-.21l.03-.14c.03-.11,.04-.19,.07-.2h.02s0-.03,0-.04c-.02,0-.03,0-.05,0s-.03,0-.05,0c0,0,0,.02,0,.03h0s.02,.02,.02,.02c0,.02-.02,.1-.04,.17-.02,.07-.03,.15-.05,.22-.02-.09-.04-.19-.06-.29,0-.01-.02-.09-.02-.1,0-.01,0-.02,.02-.02h0s0-.03,0-.03c-.01,0-.03,0-.06,0s-.05,0-.06,0c0,0,0,.02,0,.03h.02s.02,.02,.04,.1l.06,.3c.02,.07,.02,.09,.02,.16v.07c0,.14,0,.16-.03,.16h-.02s0,.03,0,.04c.03,0,.05,0,.07,0,.02,0,.04,0,.07,0,0,0,0-.02,0-.03h-.02s-.03-.03-.03-.17v-.07Zm-.25-.26c0-.06,0-.22,0-.27,0-.01,.01-.02,.03-.03h0s0-.03,0-.03c-.02,0-.03,0-.06,0-.02,0-.04,0-.06,0,0,0,0,.02,0,.03h0s.03,.02,.03,.03c.01,.04,.01,.21,.01,.27v.28s0,.05,0,.05h0c-.03-.06-.05-.13-.09-.23l-.05-.14s-.08-.22-.09-.28c0,0-.02,0-.02,0,0,0-.04,0-.06,0,0,0,0,.02,0,.03h0s.03,.02,.03,.03c.01,.03,.01,.06,.01,.09v.37c0,.06,0,.22,0,.27,0,.01-.01,.02-.02,.03h-.01s0,.03,0,.04c.02,0,.03,0,.06,0,.02,0,.04,0,.06,0,0,0,0-.02,0-.03h-.02s-.02-.01-.03-.03c0-.04,0-.21,0-.27v-.28s0-.07,0-.08h0s.05,.13,.06,.17l.13,.34c.05,.13,.06,.17,.07,.19,0,0,0,0,.01-.01,0-.03,0-.19,0-.23v-.31Zm-.44,.15c0,.2-.03,.34-.11,.34-.08,0-.11-.14-.11-.34v-.28c0-.13,0-.16,.03-.16h.01s0-.03,0-.03c-.03,0-.04,0-.07,0s-.04,0-.07,0c0,0,0,.03,0,.03h.01s.03,.03,.03,.17v.3c0,.15,.01,.25,.04,.3,.03,.05,.06,.07,.1,.07,.04,0,.08-.03,.1-.09,.03-.08,.04-.2,.04-.31v-.15c0-.07,0-.22,0-.26,0-.02,.01-.03,.03-.03h.01s0-.03,0-.03c-.02,0-.03,0-.06,0-.02,0-.04,0-.06,0,0,0,0,.02,0,.03h.01s.02,.01,.03,.03c0,.04,.01,.19,.01,.27v.15Zm-.55,.19c0,.14,0,.15-.03,.16h-.02s0,.03,0,.04c.03,0,.05,0,.07,0h.05c.06,0,.11,0,.13,0,0-.04,.02-.17,.02-.18,0,0-.01-.01-.01,0-.01,.07-.02,.11-.04,.13,0,.01-.02,.02-.07,.02-.04,0-.05-.02-.06-.03,0-.02-.01-.06-.01-.14v-.45c0-.14,0-.16,.03-.16h.01s0-.03,0-.03c-.03,0-.05,0-.07,0s-.04,0-.07,0c0,0,0,.03,0,.03h.01s.04,.03,.04,.17v.46Zm-.27-.44s.01-.07,.01-.08h0s0,.05,.01,.08l.03,.21s0,.04-.01,.04h-.07s-.02,0-.01-.03l.03-.22Zm.1,.51s0,.05,0,.07c0,.01,0,.02-.02,.02h-.02s0,.03,0,.04c.02,0,.04,0,.06,0,.02,0,.04,0,.07,0,0,0,0-.03,0-.03h-.01s-.03-.03-.05-.14l-.07-.52c0-.06-.02-.12-.02-.17,0,0,0-.01,0-.01,0,.02-.02,.04-.03,.05,0,.02,0,.05,0,.09l-.06,.35c-.02,.14-.04,.23-.05,.29,0,.05-.02,.06-.03,.06h-.02s0,.03,0,.04c.01,0,.03,0,.05,0,.03,0,.04,0,.06,0,0,0,0-.03,0-.03h-.02s-.02-.01-.02-.03c0-.01,0-.05,.01-.11l.02-.14s0-.03,.02-.03h.08s.02,0,.02,.03l.02,.18Zm-.37-.64s0-.04,.02-.04h.04s.05,.01,.06,.03c0,.01,.01,.06,.01,.09,0,0,.01,0,.01,0,0-.04,0-.14,0-.2,0,0,0,0,0,0,0,.03-.01,.04-.04,.04h-.22s-.04,0-.05-.04c0,0,0,0-.01,0,0,.05-.01,.13-.02,.19,0,.01,0,.02,.01,0,0-.03,.01-.06,.02-.09,.01-.03,.04-.03,.07-.03h.03s.02,0,.02,.04v.58c0,.14,0,.15-.03,.16h-.02s0,.03,0,.04c.03,0,.05,0,.07,0s.04,0,.07,0c0,0,0-.03,0-.03h-.02s-.03-.03-.03-.17v-.57Zm-.36,.13s.01-.07,.01-.08h0s0,.05,.01,.08l.03,.21s0,.04-.01,.04h-.07s-.02,0-.01-.03l.03-.22Zm.1,.51s0,.05,0,.07c0,.01,0,.02-.02,.02h-.02s0,.03,0,.04c.02,0,.04,0,.06,0,.02,0,.04,0,.07,0,0,0,0-.03,0-.03h-.01s-.03-.03-.05-.14l-.07-.52c0-.06-.02-.12-.02-.17,0,0,0-.01,0-.01,0,.02-.02,.04-.03,.05,0,.02,0,.05,0,.09l-.06,.35c-.02,.14-.04,.23-.05,.29,0,.05-.02,.06-.03,.06h-.02s0,.03,0,.04c.01,0,.03,0,.05,0,.03,0,.04,0,.06,0,0,0,0-.03,0-.03h-.02s-.02-.01-.02-.03c0-.01,0-.05,.01-.11l.02-.14s0-.03,.02-.03h.08s.02,0,.02,.03l.02,.18Zm-.6-.3c0,.17,.03,.28,.08,.35,.04,.06,.09,.09,.13,.09,.03,0,.07-.02,.09-.03,0,0,.01-.01,.02-.01,0-.02,.02-.11,.03-.18,0,0-.01-.01-.01,0-.01,.08-.04,.18-.11,.18-.09,0-.16-.15-.16-.42s.07-.39,.15-.39,.1,.1,.11,.19c0,0,.01,0,.01,0,0-.08,0-.16,0-.19,0,0,0,0-.02,0-.03-.02-.07-.03-.1-.03-.06,0-.11,.04-.15,.11-.04,.08-.07,.2-.07,.34m-.41,.23c0,.14,0,.15-.03,.16h-.02s0,.03,0,.04c.03,0,.05,0,.07,0h.05s.1,0,.14,0c0-.04,.02-.13,.02-.18,0-.01,0-.02-.01,0-.01,.07-.03,.11-.04,.13-.01,.01-.03,.02-.07,.02-.05,0-.06-.01-.07-.03,0-.02-.01-.07-.01-.13v-.18s0-.03,.02-.03h.03s.03,0,.04,0c.01,0,.01,.03,.02,.05v.05s.02,0,.02,0c0-.03,0-.08,0-.12,0-.05,0-.1,0-.13,0,0-.01,0-.01,0v.05s-.01,.04-.02,.05c0,0-.02,0-.05,0h-.03s-.02,0-.02-.04v-.26s0-.05,.02-.05h.04s.04,0,.05,0c.03,.02,.03,.06,.04,.12,0,0,.01,0,.01,0,0-.06,0-.15,0-.17,0,0-.04,0-.07,0h-.1s-.04,0-.06,0c0,0,0,.03,0,.03h0s.03,.03,.03,.17v.46Zm-.38-.51c0-.06,0-.09,0-.1,0,0,.02-.02,.05-.02,.14,0,.17,.24,.17,.38,0,.24-.05,.4-.15,.4-.03,0-.05-.01-.07-.05,0-.03-.01-.07-.01-.14v-.48Zm-.04,.51c0,.14,0,.15-.03,.16h-.01s0,.03,0,.04c.03,0,.04,0,.07,0,.02,0,.05,.01,.09,.01,.04,0,.09-.02,.12-.06,.06-.08,.09-.22,.09-.38s-.04-.32-.11-.38c-.04-.03-.07-.04-.12-.04s-.09,0-.14,.01c0,0,0,.03,0,.03h.01s.03,.04,.03,.13v.49Zm-.29-.19c0,.2-.03,.34-.11,.34-.08,0-.11-.14-.11-.34v-.28c0-.13,0-.16,.03-.16h.01s0-.03,0-.03c-.03,0-.04,0-.07,0s-.04,0-.07,0c0,0,0,.03,0,.03h.01s.03,.03,.03,.17v.3c0,.15,.01,.25,.04,.3,.03,.05,.06,.07,.1,.07,.04,0,.08-.03,.1-.09,.03-.08,.04-.2,.04-.31v-.15c0-.07,0-.22,0-.26,0-.02,.01-.03,.03-.03h.01s0-.03,0-.03c-.02,0-.03,0-.06,0-.02,0-.04,0-.06,0,0,0,0,.02,0,.03h.01s.02,.01,.03,.03c0,.04,.01,.19,.01,.27v.15Zm-.51-.26s.01-.07,.01-.08h0s0,.05,.01,.08l.03,.21s0,.04-.01,.04h-.07s-.02,0-.01-.03l.03-.22Zm.1,.51s0,.05,0,.07c0,.01,0,.02-.02,.02h-.02s0,.03,0,.04c.02,0,.04,0,.06,0,.02,0,.04,0,.07,0,0,0,0-.03,0-.03h-.01s-.03-.03-.05-.14l-.07-.52c0-.06-.02-.12-.02-.17,0,0,0-.01,0-.01,0,.02-.02,.04-.03,.05,0,.02,0,.05,0,.09l-.06,.35c-.02,.14-.04,.23-.05,.29,0,.05-.02,.06-.03,.06h-.02s0,.03,0,.04c.01,0,.03,0,.05,0,.03,0,.04,0,.06,0,0,0,0-.03,0-.03h-.02s-.02-.01-.02-.03c0-.01,0-.05,.01-.11l.02-.14s0-.03,.02-.03h.08s.02,0,.02,.03l.02,.18Zm-.41-.65s0-.05,.03-.05c.06,0,.09,.08,.09,.21,0,.11-.02,.19-.08,.22,0,0,0,.02,0,.03,.02,0,.05-.01,.07-.04,.02-.03,.05-.09,.05-.21,0-.09-.02-.16-.04-.19-.03-.04-.06-.05-.1-.05s-.08,0-.11,.01c0,0,0,.02,0,.03h.02s.03,.03,.03,.14v.48c0,.14,0,.15-.03,.16h-.01s0,.03,0,.04c.02,0,.04,0,.07,0s.04,0,.07,0c0,0,0-.03,0-.03h-.01s-.04-.03-.04-.17v-.58Zm-.5,.58c0,.14,0,.15-.03,.16h-.02s0,.03,0,.04c.03,0,.05,0,.07,0h.05s.1,0,.14,0c0-.04,.02-.13,.02-.18,0-.01,0-.02-.01,0-.01,.07-.03,.11-.04,.13-.01,.01-.03,.02-.07,.02-.05,0-.06-.01-.07-.03,0-.02-.01-.07-.01-.13v-.18s0-.03,.02-.03h.03s.03,0,.04,0c.01,0,.01,.03,.02,.05v.05s.02,0,.02,0c0-.03,0-.08,0-.12,0-.05,0-.1,0-.13,0,0-.01,0-.01,0v.05s-.01,.04-.02,.05c0,0-.02,0-.05,0h-.03s-.02,0-.02-.04v-.26s0-.05,.02-.05h.04s.04,0,.05,0c.03,.02,.03,.06,.04,.12,0,0,.01,0,.01,0,0-.06,0-.15,0-.17,0,0-.04,0-.07,0h-.1s-.04,0-.06,0c0,0,0,.03,0,.03h0s.03,.03,.03,.17v.46Zm-.38-.51c0-.06,0-.09,0-.1,0,0,.02-.02,.05-.02,.14,0,.17,.24,.17,.38,0,.24-.05,.4-.15,.4-.03,0-.05-.01-.07-.05,0-.03-.01-.07-.01-.14v-.48Zm-.04,.51c0,.14,0,.15-.03,.16h-.01s0,.03,0,.04c.03,0,.04,0,.07,0,.02,0,.05,.01,.09,.01,.04,0,.09-.02,.12-.06,.06-.08,.09-.22,.09-.38s-.04-.32-.11-.38c-.04-.03-.07-.04-.12-.04s-.09,0-.14,.01c0,0,0,.03,0,.03h.01s.03,.04,.03,.13v.49Zm-.24-.02c0-.12-.03-.2-.07-.25l-.04-.06s-.05-.08-.05-.16c0-.06,.01-.14,.06-.14s.07,.08,.07,.15c0,0,.01,0,.01,0,0-.05,0-.13,0-.16,0,0-.01,0-.02,0-.01,0-.03-.02-.05-.02-.07,0-.11,.1-.11,.22,0,.11,.03,.18,.06,.22l.05,.08c.04,.06,.04,.12,.04,.18,0,.08-.02,.15-.07,.15-.06,0-.08-.13-.09-.19,0,0-.01,0-.01,0,0,.06,0,.15,.01,.18,.01,.01,.04,.05,.08,.05,.07,0,.11-.1,.11-.24m-.47,.02c0,.14,0,.15-.03,.16h-.02s0,.03,0,.04c.03,0,.05,0,.07,0h.05c.06,0,.11,0,.13,0,0-.04,.02-.17,.02-.18,0,0-.01-.01-.01,0-.01,.07-.02,.11-.04,.13,0,.01-.02,.02-.07,.02-.04,0-.05-.02-.06-.03,0-.02-.01-.06-.01-.14v-.45c0-.14,0-.16,.03-.16h.01s0-.03,0-.03c-.03,0-.05,0-.07,0s-.04,0-.07,0c0,0,0,.03,0,.03h.01s.04,.03,.04,.17v.46Zm-.27-.44s.01-.07,.01-.08h0s0,.05,.01,.08l.03,.21s0,.04-.01,.04h-.07s-.02,0-.01-.03l.03-.22Zm.1,.51s0,.05,0,.07c0,.01,0,.02-.02,.02h-.02s0,.03,0,.04c.02,0,.04,0,.06,0,.02,0,.04,0,.07,0,0,0,0-.03,0-.03h-.01s-.03-.03-.05-.14l-.07-.52c0-.06-.02-.12-.02-.17,0,0,0-.01,0-.01,0,.02-.02,.04-.03,.05,0,.02,0,.05,0,.09l-.06,.35c-.02,.14-.04,.23-.05,.29,0,.05-.02,.06-.03,.06h-.02s0,.03,0,.04c.01,0,.03,0,.05,0,.03,0,.04,0,.06,0,0,0,0-.03,0-.03h-.02s-.02-.01-.02-.03c0-.01,0-.05,.01-.11l.02-.14s0-.03,.02-.03h.08s.02,0,.02,.03l.02,.18Zm-.31-.4c0-.06,0-.22,0-.27,0-.01,.01-.02,.03-.03h0s0-.03,0-.03c-.02,0-.03,0-.06,0-.02,0-.04,0-.06,0,0,0,0,.02,0,.03h0s.03,.02,.03,.03c.01,.04,.01,.21,.01,.27v.28s0,.05,0,.05h0c-.03-.06-.05-.13-.09-.23l-.05-.14s-.08-.22-.09-.28c0,0-.02,0-.02,0,0,0-.04,0-.06,0,0,0,0,.02,0,.03h0s.03,.02,.03,.03c.01,.03,.01,.06,.01,.09v.37c0,.06,0,.22,0,.27,0,.01-.01,.02-.02,.03h-.01s0,.03,0,.04c.02,0,.03,0,.06,0,.02,0,.04,0,.06,0,0,0,0-.02,0-.03h-.02s-.02-.01-.03-.03c0-.04,0-.21,0-.27v-.28s0-.07,0-.08h0s.05,.13,.06,.17l.13,.34c.05,.13,.06,.17,.07,.19,0,0,0,0,.01-.01,0-.03,0-.19,0-.23v-.31Zm-.57,.51c-.11,0-.15-.25-.15-.44,0-.28,.07-.37,.13-.37,.1,0,.14,.23,.14,.44,0,.25-.06,.37-.13,.37m0,.04c.1,0,.19-.19,.19-.45,0-.23-.06-.44-.19-.44-.11,0-.19,.2-.19,.46,0,.23,.07,.44,.19,.44m-.34-.22c0,.14,0,.15-.03,.16h-.01s0,.03,0,.04c.03,0,.05,0,.07,0,.02,0,.04,0,.07,0,0,0,0-.03,0-.03h-.01s-.03-.03-.03-.17v-.46c0-.14,0-.16,.03-.17h.01s0-.03,0-.03c-.03,0-.05,0-.07,0-.02,0-.04,0-.07,0,0,0,0,.03,0,.03h.01s.03,.03,.03,.17v.46Zm-.43-.22c0,.17,.03,.28,.08,.35,.04,.06,.09,.09,.13,.09,.03,0,.07-.02,.09-.03,0,0,.01-.01,.02-.01,0-.02,.02-.11,.03-.18,0,0-.01-.01-.01,0-.01,.08-.04,.18-.11,.18-.09,0-.16-.15-.16-.42s.07-.39,.15-.39c.08,0,.1,.1,.11,.19,0,0,.01,0,.01,0,0-.08,0-.16,0-.19,0,0,0,0-.02,0-.03-.02-.07-.03-.1-.03-.06,0-.11,.04-.15,.11-.04,.08-.07,.2-.07,.34m-.21-.22s.01-.07,.01-.08h0s0,.05,.01,.08l.03,.21s0,.04-.01,.04h-.07s-.02,0-.01-.03l.03-.22Zm.1,.51s0,.05,0,.07c0,.01,0,.02-.02,.02h-.02s0,.03,0,.04c.02,0,.04,0,.06,0,.02,0,.04,0,.07,0,0,0,0-.03,0-.03h-.01s-.03-.03-.05-.14l-.07-.52c0-.06-.02-.12-.02-.17,0,0,0-.01,0-.01,0,.02-.02,.04-.03,.05,0,.02,0,.05,0,.09l-.05,.35c-.02,.14-.04,.23-.05,.29,0,.05-.02,.06-.03,.06h-.02s0,.03,0,.04c.01,0,.03,0,.05,0,.03,0,.04,0,.06,0,0,0,0-.03,0-.03h-.02s-.02-.01-.02-.03c0-.01,0-.05,.01-.11l.02-.14s0-.03,.02-.03h.08s.02,0,.02,.03l.02,.18Zm-.31-.4c0-.06,0-.22,0-.27,0-.01,.01-.02,.03-.03h0s0-.03,0-.03c-.02,0-.03,0-.06,0-.02,0-.04,0-.06,0,0,0,0,.02,0,.03h0s.03,.02,.03,.03c.01,.04,.01,.21,.01,.27v.28s0,.05,0,.05h0c-.03-.06-.05-.13-.09-.23l-.05-.14s-.08-.22-.09-.28c0,0-.02,0-.02,0,0,0-.04,0-.06,0,0,0,0,.02,0,.03h0s.03,.02,.03,.03c.01,.03,.01,.06,.01,.09v.37c0,.06,0,.22,0,.27,0,.01-.01,.02-.02,.03h-.01s0,.03,0,.04c.02,0,.03,0,.06,0,.02,0,.04,0,.06,0,0,0,0-.02,0-.03h-.02s-.02-.01-.03-.03c0-.04,0-.21,0-.27v-.28s0-.07,0-.08h0s.05,.13,.06,.17l.13,.34c.05,.13,.06,.17,.07,.19,0,0,0,0,.01-.01,0-.03,0-.19,0-.23v-.31Zm-.6-.25s0-.04,.03-.04c.06,0,.09,.1,.09,.2,0,.09-.01,.13-.03,.16-.02,.03-.04,.03-.06,.03-.03,0-.04,0-.04,0,0,0,0-.02,0-.04v-.3Zm-.04,.58c0,.14,0,.15-.03,.16h-.01s0,.03,0,.04c.03,0,.04,0,.07,0s.04,0,.06,0c0,0,0-.03,0-.03h-.01s-.03-.03-.03-.17v-.16s0-.03,.03-.03c.02,0,.03,.01,.04,.04,.02,.06,.04,.15,.05,.19,.04,.13,.07,.16,.11,.16,.01,0,.02,0,.02,0,0,0,0-.02,0-.02-.01,0-.03-.02-.04-.04-.04-.07-.07-.18-.11-.34,0-.01,0-.02,0-.03,.03-.03,.07-.09,.07-.22,0-.09-.02-.15-.04-.18-.02-.03-.06-.04-.09-.04-.05,0-.09,0-.12,.01,0,0,0,.03,0,.03h.02s.02,.03,.02,.16v.46Zm-.32,0c0,.14,0,.15-.03,.16h-.02s0,.03,0,.04c.03,0,.05,0,.07,0h.05s.1,0,.14,0c0-.04,.02-.13,.02-.18,0-.01,0-.02-.01,0-.01,.07-.03,.11-.04,.13-.01,.01-.03,.02-.07,.02-.05,0-.06-.01-.07-.03,0-.02-.01-.07-.01-.13v-.18s0-.03,.02-.03h.03s.03,0,.04,0c.01,0,.01,.03,.02,.05v.05s.02,0,.02,0c0-.03,0-.08,0-.12,0-.05,0-.1,0-.13,0,0-.01,0-.01,0v.05s-.01,.04-.02,.05c0,0-.02,0-.05,0h-.03s-.02,0-.02-.04v-.26s0-.05,.02-.05h.04s.04,0,.05,0c.03,.02,.03,.06,.04,.12,0,0,.01,0,.01,0,0-.06,0-.15,0-.17,0,0-.04,0-.07,0h-.1s-.04,0-.06,0c0,0,0,.03,0,.03h0s.03,.03,.03,.17v.46Zm-.23-.57s0-.04,.02-.04h.04s.05,.01,.06,.03c0,.01,.01,.06,.01,.09,0,0,.01,0,.01,0,0-.04,0-.14,0-.2,0,0,0,0,0,0,0,.03-.01,.04-.04,.04h-.22s-.04,0-.05-.04c0,0,0,0-.01,0,0,.05-.01,.13-.02,.19,0,.01,0,.02,.01,0,0-.03,.01-.06,.02-.09,.01-.03,.04-.03,.07-.03h.03s.02,0,.02,.04v.58c0,.14,0,.15-.03,.16h-.02s0,.03,0,.04c.03,0,.05,0,.08,0s.04,0,.07,0c0,0,0-.03,0-.03h-.02s-.03-.03-.03-.17v-.57Zm-.27,.24c0-.06,0-.22,0-.27,0-.01,.01-.02,.03-.03h0s0-.03,0-.03c-.02,0-.03,0-.06,0-.02,0-.04,0-.06,0,0,0,0,.02,0,.03h0s.03,.02,.03,.03c.01,.04,.01,.21,.01,.27v.28s0,.05,0,.05h0c-.03-.06-.05-.13-.09-.23l-.05-.14s-.08-.22-.09-.28c0,0-.02,0-.02,0,0,0-.04,0-.06,0,0,0,0,.02,0,.03h0s.03,.02,.03,.03c.01,.03,.01,.06,.01,.09v.37c0,.06,0,.22,0,.27,0,.01-.01,.02-.02,.03h-.01s0,.03,0,.04c.02,0,.03,0,.06,0,.02,0,.04,0,.06,0,0,0,0-.02,0-.03h-.02s-.02-.01-.03-.03c0-.04,0-.21,0-.27v-.28s0-.07,0-.08h0s.05,.13,.06,.17l.13,.34c.05,.13,.06,.17,.07,.19,0,0,0,0,.01-.01,0-.03,0-.19,0-.23v-.31Zm-.48,.33c0,.14,0,.15-.03,.16h-.01s0,.03,0,.04c.03,0,.05,0,.07,0s.04,0,.07,0c0,0,0-.03,0-.03h-.01s-.03-.03-.03-.17v-.46c0-.14,0-.16,.03-.17h.01s0-.03,0-.03c-.03,0-.05,0-.07,0s-.04,0-.07,0c0,0,0,.03,0,.03h.01s.03,.03,.03,.17v.46Zm-.24-.02c0-.12-.03-.2-.07-.25l-.04-.06s-.05-.08-.05-.16c0-.06,.01-.14,.06-.14s.07,.08,.07,.15c0,0,.01,0,.01,0,0-.05,0-.13,0-.16,0,0-.01,0-.02,0-.01,0-.03-.02-.05-.02-.07,0-.11,.1-.11,.22,0,.11,.03,.18,.06,.22l.05,.08c.04,.06,.04,.12,.04,.18,0,.08-.02,.15-.07,.15-.06,0-.08-.13-.09-.19,0,0-.01,0-.01,0,0,.06,0,.15,.01,.18,.01,.01,.04,.05,.08,.05,.07,0,.11-.1,.11-.24m-.49,.02c0,.14,0,.15-.03,.16h-.02s0,.03,0,.04c.03,0,.05,0,.07,0h.05s.1,0,.14,0c0-.04,.02-.13,.02-.18,0-.01,0-.02-.01,0-.01,.07-.03,.11-.04,.13-.01,.01-.03,.02-.07,.02-.05,0-.06-.01-.07-.03,0-.02-.01-.07-.01-.13v-.18s0-.03,.02-.03h.03s.03,0,.04,0c.01,0,.01,.03,.02,.05v.05s.02,0,.02,0c0-.03,0-.08,0-.12,0-.05,0-.1,0-.13,0,0-.01,0-.01,0v.05s-.01,.04-.02,.05c0,0-.02,0-.05,0h-.03s-.02,0-.02-.04v-.26s0-.05,.02-.05h.04s.04,0,.05,0c.03,.02,.03,.06,.04,.12,0,0,.01,0,.01,0,0-.06,0-.15,0-.17,0,0-.04,0-.07,0h-.1s-.04,0-.06,0c0,0,0,.03,0,.03h0s.03,.03,.03,.17v.46Zm-.38-.51c0-.06,0-.09,0-.1,0,0,.02-.02,.05-.02,.14,0,.17,.24,.17,.38,0,.24-.05,.4-.15,.4-.03,0-.05-.01-.07-.05,0-.03-.01-.07-.01-.14v-.48Zm-.04,.51c0,.14,0,.15-.03,.16h-.01s0,.03,0,.04c.03,0,.04,0,.07,0,.02,0,.05,.01,.09,.01,.04,0,.09-.02,.12-.06,.06-.08,.09-.22,.09-.38s-.04-.32-.11-.38c-.04-.03-.07-.04-.12-.04s-.09,0-.14,.01c0,0,0,.03,0,.03h.01s.03,.04,.03,.13v.49Zm-.27-.44s.01-.07,.01-.08h0s0,.05,.01,.08l.03,.21s0,.04-.01,.04h-.07s-.02,0-.01-.03l.03-.22Zm.1,.51s0,.05,0,.07c0,.01,0,.02-.02,.02h-.02s0,.03,0,.04c.02,0,.04,0,.06,0,.02,0,.04,0,.07,0,0,0,0-.03,0-.03h-.01s-.03-.03-.05-.14l-.07-.52c0-.06-.02-.12-.02-.17,0,0,0-.01,0-.01,0,.02-.02,.04-.03,.05,0,.02,0,.05,0,.09l-.06,.35c-.02,.14-.04,.23-.05,.29,0,.05-.02,.06-.03,.06h-.02s0,.03,0,.04c.01,0,.03,0,.05,0,.03,0,.04,0,.06,0,0,0,0-.03,0-.03h-.02s-.02-.01-.02-.03c0-.01,0-.05,.01-.11l.02-.14s0-.03,.02-.03h.08s.02,0,.02,.03l.02,.18Zm-.3-.08c0-.07,0-.1,.02-.11h0s0-.03,0-.03c-.02,0-.04,0-.06,0-.03,0-.06,0-.08,0,0,0,0,.03,0,.03h.02s.04,.02,.04,.13v.05s0,.06,0,.07c0,.02-.03,.04-.06,.04-.11,0-.16-.2-.16-.44,0-.19,.05-.37,.15-.37,.06,0,.1,.04,.11,.18,0,0,.01,0,.01,0,0-.08,0-.14,0-.19,0,0-.02,0-.03-.01,0,0-.04-.02-.07-.02-.08,0-.14,.06-.17,.15-.03,.09-.05,.2-.05,.31s.02,.22,.05,.29c.04,.1,.1,.14,.16,.14,.03,0,.07-.02,.1-.03,.01,0,.02-.01,.03-.01,0,0,0-.01,0-.02,0,0-.01-.04-.01-.09v-.07Z"/>
</svg>