<?xml version="1.0" encoding="UTF-8"?>
<svg id="Capa_1" data-name="Capa 1" xmlns="http://www.w3.org/2000/svg" viewBox="0 0 15.8 6">
  <defs>
    <style>
      .cls-1 {
        fill: #fff;
      }
    </style>
  </defs>
  <g>
    <path class="cls-1" d="M.94,3.4V1.19l1.42,1.1L.94,3.4ZM1.51,0s-.03,0-.04,0h-.48s0,0-.01,0H.09S.03,.02,.03,.05V4.54s.03,.06,.07,.06H.96s.48,0,.48,0c.02,0,.04,0,.07,0,.6,0,1.76-.39,1.76-2.27C3.27,.06,1.94,0,1.51,0"/>
    <g>
      <path class="cls-1" d="M3.65,2.29h.84v2.25h-.84V2.29Zm-.04-.59c0-.25,.2-.43,.46-.43s.46,.18,.46,.43-.2,.43-.46,.43-.46-.18-.46-.43"/>
      <path class="cls-1" d="M4.93,2.29h.85v.46c.14-.35,.39-.49,.72-.49v.79c-.47-.03-.72,.13-.72,.45v1.04h-.85V2.29Z"/>
      <path class="cls-1" d="M8.29,3.16c0-.24-.13-.39-.35-.39-.21,0-.35,.13-.39,.39h.74Zm-1.6,.28v-.03c0-.73,.56-1.19,1.25-1.19,.63,0,1.17,.36,1.17,1.17v.21h-1.56c.02,.27,.18,.42,.42,.42s.33-.11,.35-.24h.79c-.07,.52-.46,.82-1.18,.82s-1.25-.41-1.25-1.16"/>
      <path class="cls-1" d="M9.29,3.45v-.03c0-.77,.54-1.19,1.22-1.19,.56,0,1.09,.24,1.13,.95h-.8c-.03-.18-.1-.3-.31-.3-.25,0-.38,.17-.38,.52v.03c0,.37,.12,.55,.39,.55,.19,0,.32-.12,.34-.34h.76c-.02,.58-.41,.96-1.16,.96-.68,0-1.2-.38-1.2-1.15"/>
      <path class="cls-1" d="M12.03,3.79v-.93h-.26v-.57h.26v-.46h.85v.46h.43v.57h-.43v.85c0,.16,.08,.22,.22,.22,.08,0,.14,0,.21-.03v.64c-.1,.03-.26,.06-.45,.06-.53,0-.83-.24-.83-.81"/>
      <path class="cls-1" d="M14.92,3.76v-.12h-.18c-.28,0-.39,.06-.39,.22,0,.11,.08,.18,.24,.18,.19,0,.33-.11,.33-.28m-1.41,.16c0-.53,.43-.74,1.21-.74h.19v-.04c0-.19-.03-.33-.26-.33-.19,0-.25,.12-.27,.24h-.79c.03-.55,.47-.83,1.11-.83s1.05,.27,1.05,.86v1.46h-.82v-.26c-.09,.16-.29,.31-.66,.31-.41,0-.77-.2-.77-.68"/>
    </g>
  </g>
  <g>
    <path class="cls-1" d="M.06,5.34h.11l.15,.51,.15-.51h.09l.14,.51,.15-.51h.1l-.2,.64h-.11l-.13-.48-.15,.48h-.11l-.2-.64Z"/>
    <path class="cls-1" d="M1.03,5.34h.11l.15,.51,.15-.51h.09l.14,.51,.15-.51h.1l-.2,.64h-.11l-.13-.48-.15,.48h-.11l-.2-.64Z"/>
    <path class="cls-1" d="M2,5.34h.11l.15,.51,.15-.51h.09l.14,.51,.15-.51h.1l-.2,.64h-.11l-.13-.48-.15,.48h-.11l-.2-.64Z"/>
    <path class="cls-1" d="M2.94,5.91s.04-.08,.08-.08,.08,.03,.08,.08-.04,.08-.08,.08-.08-.03-.08-.08Z"/>
    <path class="cls-1" d="M3.22,5.67h0c0-.2,.12-.34,.3-.34,.11,0,.17,.05,.21,.11v-.41h.1v.94h-.1v-.11c-.04,.06-.13,.12-.22,.12-.17,0-.29-.12-.29-.32Zm.51,0h0c0-.17-.08-.25-.2-.25s-.2,.09-.2,.24h0c0,.17,.09,.25,.19,.25,.12,0,.21-.08,.21-.24Z"/>
    <path class="cls-1" d="M4.01,5.15s.03-.07,.07-.07,.07,.03,.07,.07-.03,.07-.07,.07-.07-.03-.07-.07Zm.02,.2h.1v.64h-.1v-.64Z"/>
    <path class="cls-1" d="M4.34,5.34h.1v.11c.04-.07,.09-.12,.21-.13v.09c-.13,0-.21,.05-.21,.2v.35h-.1v-.64Z"/>
    <path class="cls-1" d="M4.73,5.67h0c0-.2,.12-.34,.3-.34,.15,0,.29,.09,.29,.32v.03h-.48c0,.14,.07,.22,.2,.22,.1,0,.16-.04,.17-.11h.1c-.02,.13-.13,.19-.27,.19-.18,0-.31-.13-.31-.32Zm.48-.07c0-.13-.08-.18-.18-.18s-.17,.07-.19,.18h.37Z"/>
    <path class="cls-1" d="M5.42,5.67h0c0-.2,.14-.34,.31-.34,.13,0,.26,.06,.28,.22h-.1c-.02-.1-.09-.14-.18-.14-.12,0-.2,.09-.2,.24h0c0,.17,.09,.25,.21,.25,.09,0,.17-.05,.18-.16h.09c-.01,.14-.12,.24-.28,.24-.18,0-.31-.13-.31-.32Z"/>
    <path class="cls-1" d="M6.18,5.82v-.39h-.09v-.09h.09v-.14h.1v.14h.15v.09h-.15v.38c0,.06,.03,.09,.08,.09,.03,0,.06,0,.08-.01v.09s-.04,.01-.09,.01c-.12,0-.17-.07-.17-.17Z"/>
    <path class="cls-1" d="M6.54,5.8c0-.15,.16-.2,.32-.2h.09v-.05c0-.1-.04-.14-.14-.14-.09,0-.14,.04-.15,.11h-.1c.01-.14,.13-.2,.25-.2s.23,.05,.23,.23v.42h-.1v-.08c-.05,.06-.1,.09-.2,.09-.12,0-.21-.06-.21-.19Zm.41-.05v-.08h-.09c-.13,0-.22,.03-.22,.13,0,.07,.03,.11,.12,.11,.11,0,.19-.05,.19-.15Z"/>
    <path class="cls-1" d="M7.24,5.91s.04-.08,.08-.08,.08,.03,.08,.08-.04,.08-.08,.08-.08-.03-.08-.08Z"/>
    <path class="cls-1" d="M7.52,5.67h0c0-.2,.14-.34,.31-.34,.13,0,.26,.06,.28,.22h-.1c-.02-.1-.09-.14-.18-.14-.12,0-.2,.09-.2,.24h0c0,.17,.08,.25,.21,.25,.09,0,.17-.05,.18-.16h.09c-.01,.14-.12,.24-.28,.24-.18,0-.31-.13-.31-.32Z"/>
    <path class="cls-1" d="M8.2,5.8c0-.15,.16-.2,.32-.2h.09v-.05c0-.1-.04-.14-.14-.14-.09,0-.14,.04-.15,.11h-.1c.01-.14,.13-.2,.25-.2s.23,.05,.23,.23v.42h-.1v-.08c-.05,.06-.1,.09-.2,.09-.12,0-.21-.06-.21-.19Zm.41-.05v-.08h-.09c-.13,0-.22,.03-.22,.13,0,.07,.03,.11,.12,.11,.11,0,.19-.05,.19-.15Z"/>
    <path class="cls-1" d="M8.93,5.82v-.39h-.09v-.09h.09v-.14h.1v.14h.15v.09h-.15v.38c0,.06,.03,.09,.08,.09,.03,0,.06,0,.08-.01v.09s-.04,.01-.09,.01c-.12,0-.17-.07-.17-.17Z"/>
  </g>
</svg>