<?xml version="1.0" encoding="UTF-8"?>
<svg id="Capa_1" data-name="Capa 1" xmlns="http://www.w3.org/2000/svg" viewBox="0 0 17.5 6">
  <defs>
    <style>
      .cls-1 {
        fill: #fff;
      }

      .cls-2 {
        fill: #1a171b;
      }
    </style>
  </defs>
  <g>
    <path class="cls-1" d="M6,3C6,1.57,5.03,.37,3.72,0H14.53C16.19,0,17.53,1.34,17.53,3s-1.34,3-3,3c0,0,0,0,0,0H3.72c1.32-.37,2.28-1.57,2.28-3Z"/>
    <path class="cls-1" d="M2.88,.11c1.59,0,2.88,1.29,2.88,2.88s-1.29,2.89-2.88,2.89S0,4.59,0,3,1.29,.11,2.88,.11Z"/>
  </g>
  <g>
    <path d="M2.81,1.32s-.03,.04-.03,.07c.03,.01,.05,.02,.07,0,.02-.01,.03-.04,.03-.07,0,.03,.01,.05,.03,.07,.02,.01,.05,.01,.07,0,0-.03-.01-.05-.03-.07-.02-.01-.05,0-.07,0,.02-.02,.04-.04,.04-.06s-.02-.05-.04-.06c-.02,.02-.04,.04-.04,.06s.02,.05,.04,.06c-.02-.01-.05-.02-.07,0"/>
    <path d="M3.08,1.33s-.04,.03-.05,.06c.02,.02,.05,.03,.07,.02,.02,0,.04-.03,.05-.06,0,.03,0,.06,.02,.07,.02,.02,.04,.02,.07,.01,0-.03,0-.06-.02-.07-.02-.02-.04-.02-.07-.01,.03-.01,.05-.03,.05-.05,0-.02,0-.05-.03-.07-.03,0-.05,.03-.05,.05,0,.02,0,.05,.03,.07-.02-.02-.05-.03-.07-.02"/>
    <path d="M3.4,1.44s.05-.02,.06-.04c.01-.02,0-.05-.01-.07-.03,0-.05,.02-.06,.04,0,.02,0,.05,.01,.07-.02-.02-.04-.04-.06-.03-.02,0-.04,.02-.06,.05,.02,.02,.04,.04,.06,.03,.02,0,.04-.02,.06-.05"/>
    <path d="M2.54,1.36s-.02,.04-.02,.07c.03,0,.05,0,.07-.01,.02-.02,.02-.04,.02-.07-.03,0-.05,0-.07,.01"/>
    <path d="M2.66,1.41s.05,0,.07-.02c0-.03-.02-.05-.05-.06-.02,0-.05,0-.07,.02,.02-.02,.03-.05,.02-.07,0-.02-.02-.04-.05-.05-.02,.02-.03,.05-.03,.07,0,.02,.02,.04,.05,.05,0,.03,.02,.05,.05,.06"/>
    <path d="M2.37,1.36s-.03-.04-.06-.04c-.02,.02-.02,.05-.01,.07,.01,.02,.03,.04,.06,.04,.01,.03,.03,.04,.06,.05,.02,0,.05-.01,.06-.03-.01-.03-.03-.04-.06-.05-.02,0-.05,.01-.06,.03,.02-.02,.02-.05,.01-.07"/>
    <path d="M2.88,.79s.06-.03,.06-.07-.03-.07-.06-.07-.07,.03-.07,.07,.03,.07,.07,.07"/>
    <path d="M2.88,1.55c.15,0,.29,.04,.41,.1l.05-.08c-.14-.07-.3-.11-.47-.11s-.33,.04-.47,.11l.05,.08c.12-.06,.26-.1,.41-.1"/>
    <path d="M2.26,1.3l.07-.07s-.04-.05-.04-.08c0-.07,.07-.12,.15-.12,.02,0,.04,0,.06,0,0,.01,0,.03,0,.04,0,.04,.01,.08,.04,.12l.07-.07s-.01-.03-.01-.05c0-.07,.07-.12,.15-.12,.03,0,.07,0,.09,.02v.14h.1v-.14s.06-.02,.09-.02c.08,0,.15,.05,.15,.12,0,.02,0,.03-.01,.05l.07,.07s.04-.08,.04-.12c0-.01,0-.03,0-.04,.02,0,.04,0,.06,0,.08,0,.15,.05,.15,.12,0,.03-.01,.06-.04,.08l.07,.07s.07-.09,.07-.15c0-.12-.11-.22-.25-.22-.04,0-.07,0-.1,.02-.05-.05-.12-.09-.2-.09-.05,0-.1,.01-.14,.04-.04-.02-.09-.04-.14-.04-.08,0-.16,.04-.2,.09-.03-.01-.07-.02-.1-.02-.14,0-.25,.1-.25,.22,0,.06,.03,.11,.07,.15"/>
    <path d="M2.9,3.33h.3v.39h-.3v-.39Zm-.04-.05h-.3v-.39h.3v.39Zm0-.55h-.3v-.54l-.15,.16v.38h-.37l-.15,.16h.52v.39h-.9l-.02,.02,.02,.02h.14v.14l.15,.16v-.3h.15v.46l.15,.16v-.62h.15v.77l.15,.16v-.93h.15v1.09l.15,.16v-1.25h.15v1.41l.02,.02,.02-.02v-.86h.3v.54l.15-.16v-.38h.37l.15-.16h-.52v-.39h.9l.02-.02-.02-.02h-.14v-.14l-.15-.16v.3h-.15v-.46l-.15-.16v.62h-.15v-.77l-.15-.16v.93h-.15v-1.09l-.15-.16v1.25h-.15V1.88l-.02-.02-.02,.02v.86Z"/>
    <path d="M2.88,4.97s-.06,.03-.06,.06,.03,.06,.06,.06,.06-.03,.06-.06-.03-.06-.06-.06"/>
    <path d="M1.22,3.24s-.06,.03-.06,.06,.03,.06,.06,.06,.06-.03,.06-.06-.03-.06-.06-.06"/>
    <path d="M4.54,3.24s-.06,.03-.06,.06,.03,.06,.06,.06,.06-.03,.06-.06-.03-.06-.06-.06"/>
    <path d="M2.88,4.87l-1.5-1.56,1.5-1.56,1.5,1.56-1.5,1.56Zm0-3.14s-.31,.18-.84,.73c-.52,.54-.69,.85-.69,.85,0,0,.18,.32,.7,.87,.52,.54,.82,.71,.82,.71,0,0,.31-.18,.84-.73,.52-.54,.69-.85,.69-.85,0,0-.18-.32-.7-.87-.52-.54-.82-.71-.82-.71"/>
  </g>
  <g>
    <path class="cls-2" d="M14.72,3.76c0,.14-.1,.21-.24,.21-.07,0-.13-.04-.13-.12,0-.07,.07-.12,.13-.12l.23-.02v.04Zm.3,.36v-.16s-.01,0-.03,0c-.04,0-.05-.02-.05-.06v-.34c0-.06,0-.13-.03-.19-.05-.14-.19-.19-.35-.19-.21,0-.37,.09-.38,.3h.22c0-.09,.07-.13,.17-.13,.13,0,.16,.06,.16,.15v.06l-.27,.02c-.18,.01-.31,.11-.31,.29,0,.15,.11,.29,.33,.29,.13,0,.24-.06,.28-.14,0,.07,.06,.13,.16,.13,.05,0,.07,0,.11-.03Zm-1.07,.01v-.62c0-.19-.12-.33-.31-.33-.11,0-.22,.04-.27,.14l-.02-.12h-.19v.92h.22v-.38c0-.08,0-.17,.03-.25,.03-.07,.08-.12,.16-.12,.12,0,.15,.07,.15,.17v.57h.22Zm-1.23-.46c0,.09-.01,.17-.07,.23-.03,.03-.08,.06-.14,.06s-.11-.03-.14-.06c-.05-.06-.07-.15-.07-.23s.01-.17,.07-.23c.03-.03,.08-.06,.14-.06s.11,.03,.14,.06c.05,.06,.07,.15,.07,.23m.23,0c0-.16-.04-.25-.11-.34-.06-.08-.18-.14-.32-.14s-.26,.07-.32,.14c-.07,.09-.11,.18-.11,.34s.04,.25,.11,.34c.06,.08,.18,.14,.32,.14s.26-.07,.32-.14c.07-.09,.11-.18,.11-.34m-.98,.46v-.19s-.02,0-.04,0c-.08,0-.09-.04-.09-.09v-1.01h-.22v1.05c0,.18,.1,.25,.25,.25,.04,0,.05,0,.1-.01m-.77-.55h-.4c0-.06,.02-.1,.05-.14,.03-.04,.09-.07,.16-.07,.06,0,.11,.02,.14,.05,.04,.04,.06,.09,.06,.16m.22,.1c0-.12-.01-.22-.08-.32-.08-.12-.2-.17-.34-.17-.13,0-.23,.05-.3,.12-.09,.09-.13,.22-.13,.37s.05,.28,.14,.37c.07,.07,.17,.11,.29,.11,.12,0,.23-.04,.31-.13,.04-.04,.07-.12,.08-.17h-.21s-.02,.06-.04,.08c-.03,.03-.07,.04-.13,.04-.06,0-.1-.03-.14-.06-.04-.04-.07-.11-.07-.18h.62s0-.06,0-.06m-.98,.13h-.22s-.01,.06-.03,.09c-.03,.04-.07,.07-.14,.07-.06,0-.1-.03-.14-.06-.05-.06-.06-.15-.06-.23s0-.18,.06-.23c.03-.03,.07-.06,.14-.06,.07,0,.12,.03,.14,.07,.01,.02,.03,.05,.03,.09h.22c0-.07-.03-.15-.07-.2-.06-.08-.18-.15-.32-.15s-.26,.07-.32,.15c-.07,.09-.1,.2-.1,.34s.03,.25,.1,.34c.06,.08,.18,.15,.32,.15s.25-.07,.32-.15c.04-.05,.07-.13,.07-.2m-.88-.39v-.21s-.05,0-.07,0c-.11,0-.22,.04-.26,.15l-.02-.14h-.19v.92h.22v-.47c0-.15,.08-.26,.24-.26,.02,0,.05,0,.08,0m-1.03,.35c0,.14-.1,.21-.24,.21-.07,0-.13-.04-.13-.12,0-.07,.07-.12,.13-.12l.23-.02v.04Zm.3,.36v-.16s-.01,0-.03,0c-.04,0-.05-.02-.05-.06v-.34c0-.06,0-.13-.03-.19-.05-.14-.19-.19-.35-.19-.21,0-.37,.09-.38,.3h.21c0-.09,.07-.13,.17-.13,.13,0,.16,.06,.16,.15v.06l-.27,.02c-.18,.01-.31,.11-.31,.29,0,.15,.11,.29,.33,.29,.13,0,.24-.06,.28-.14,0,.07,.06,.13,.16,.13,.05,0,.07,0,.11-.03Zm-1.24-.36c0,.13-.12,.17-.22,.17h-.28v-.35h.29c.12,0,.22,.05,.22,.18m-.03-.53c0,.12-.09,.16-.19,.16h-.29v-.32h.28c.1,0,.2,.04,.2,.16m.26,.54c0-.12-.06-.23-.18-.28,.11-.05,.15-.16,.15-.27,0-.11-.05-.21-.15-.27-.09-.05-.19-.07-.29-.07h-.5v1.26h.5c.12,0,.24-.01,.34-.09,.09-.07,.13-.17,.13-.28"/>
    <path class="cls-2" d="M14.84,1.98h-.29s.01-.07,.03-.1c.02-.03,.06-.05,.11-.05s.08,.02,.1,.04c.03,.03,.04,.07,.04,.12m.16,.07c0-.08,0-.16-.06-.23-.05-.08-.14-.12-.24-.12-.09,0-.16,.03-.21,.08-.06,.07-.1,.16-.1,.27s.04,.2,.1,.27c.05,.05,.12,.08,.21,.08,.08,0,.17-.03,.22-.09,.03-.03,.05-.08,.06-.12h-.15s-.02,.04-.03,.06c-.02,.02-.05,.03-.1,.03-.04,0-.08-.02-.1-.04-.03-.03-.05-.08-.05-.13h.44s0-.04,0-.04m-.85,0c0,.1-.03,.21-.15,.21-.05,0-.08-.02-.11-.05-.03-.04-.04-.1-.04-.16s0-.12,.04-.16c.02-.03,.06-.05,.11-.05,.12,0,.15,.12,.15,.21m.15,.33v-.92h-.16v.3s-.09-.06-.17-.06c-.07,0-.12,.02-.16,.05-.08,.06-.12,.17-.12,.3s.04,.22,.12,.29c.04,.03,.1,.06,.16,.06,.07,0,.15-.03,.19-.09v.07h.15Zm-.95,0v-.13s-.07,0-.1,0c-.05,0-.07-.02-.07-.07v-.32h.17v-.13h-.17v-.21l-.16,.04v.17h-.12v.13h.12v.34c0,.13,.07,.2,.2,.2,.05,0,.09,0,.14-.02m-.51,0v-.44c0-.14-.08-.24-.22-.24-.08,0-.16,.03-.2,.1v-.09h-.15v.66h.16v-.27c0-.06,0-.13,.02-.18,.02-.05,.06-.08,.11-.08,.08,0,.11,.05,.11,.13v.41h.16Zm-.82-.4h-.29s.01-.07,.03-.1c.02-.03,.06-.05,.11-.05s.08,.02,.1,.04c.03,.03,.04,.07,.04,.12m.16,.07c0-.08,0-.16-.06-.23-.06-.08-.14-.12-.24-.12-.09,0-.16,.03-.21,.08-.06,.07-.1,.16-.1,.27s.04,.2,.1,.27c.05,.05,.12,.08,.21,.08,.08,0,.17-.03,.22-.09,.03-.03,.05-.08,.06-.12h-.15s-.02,.04-.03,.06c-.02,.02-.05,.03-.1,.03s-.08-.02-.1-.04c-.03-.03-.05-.08-.05-.13h.44s0-.04,0-.04m-.7,.33v-.45c0-.14-.07-.23-.22-.23-.09,0-.16,.04-.2,.11-.03-.07-.1-.11-.19-.11-.09,0-.15,.04-.19,.1v-.09h-.15v.66h.16v-.36c0-.08,.04-.18,.13-.18,.08,0,.1,.05,.1,.13v.41h.16v-.36c0-.08,.04-.18,.13-.18,.08,0,.1,.05,.1,.13v.41h.16Zm-1.24-.26c0,.1-.07,.15-.17,.15-.05,0-.09-.03-.09-.08s.05-.08,.1-.09h.17s0,.02,0,.02Zm.21,.26v-.12s-.01,0-.02,0c-.03,0-.04-.01-.04-.04v-.25s0-.09-.02-.13c-.04-.1-.13-.14-.25-.14-.15,0-.27,.07-.28,.22h.15c0-.06,.05-.09,.12-.09,.09,0,.11,.04,.11,.11v.04h-.2c-.13,.02-.22,.1-.22,.22,0,.11,.08,.21,.24,.21,.09,0,.17-.05,.2-.1,0,.05,.04,.09,.11,.09,.04,0,.05,0,.08-.02Zm-.66,0v-.13s-.07,0-.1,0c-.05,0-.07-.02-.07-.07v-.32h.17v-.13h-.17v-.21l-.16,.04v.17h-.12v.13h.12v.34c0,.13,.07,.2,.2,.2,.05,0,.09,0,.14-.02m-.51,0v-.44c0-.14-.08-.24-.22-.24-.08,0-.16,.03-.2,.1v-.09h-.15v.66h.16v-.27c0-.06,0-.13,.02-.18,.02-.05,.06-.08,.11-.08,.08,0,.11,.05,.11,.13v.41h.16Zm-.71,0v-.66h-.16v.35c0,.05-.01,.11-.05,.15-.02,.02-.04,.03-.08,.03-.08,0-.11-.05-.11-.13v-.41h-.16v.44c0,.14,.09,.24,.23,.24,.08,0,.16-.04,.19-.1v.09h.14Zm-.7,.09v-.76h-.16v.72s-.03,.07-.08,.07c-.02,0-.03,0-.08,0v.14s.05,.01,.07,.01c.02,0,.04,0,.06,0,.12,0,.19-.07,.19-.18m0-1.01h-.17v.16h.17v-.16Zm-.52,.6h-.26l.13-.38,.13,.38Zm.28,.32l-.32-.9h-.18l-.32,.9h.17l.06-.17h.36l.06,.17h.17Z"/>
  </g>
</svg>